*
*
G04 PADS Layout (Build Number 2005.266.2) generated Gerber (RS-274-X) file*
G04 PC Version=2.1*
*
%IN "atlas_1_rev1.pcb"*%
*
%MOIN*%
*
%FSLAX35Y35*%
*
*
*
*
G04 PC Standard Apertures*
*
*
G04 Thermal Relief Aperture macro.*
%AMTER*
1,1,$1,0,0*
1,0,$1-$2,0,0*
21,0,$3,$4,0,0,45*
21,0,$3,$4,0,0,135*
%
*
*
G04 Annular Aperture macro.*
%AMANN*
1,1,$1,0,0*
1,0,$2,0,0*
%
*
*
G04 Odd Aperture macro.*
%AMODD*
1,1,$1,0,0*
1,0,$1-0.005,0,0*
%
*
*
G04 PC Custom Aperture Macros*
*
*
*
*
*
*
G04 PC Aperture Table*
*
%ADD010R,0.06X0.06*%
%ADD011C,0.06*%
%ADD014R,0.1X0.1*%
%ADD015C,0.1*%
%ADD021C,0.21*%
%ADD022C,0.04*%
%ADD023C,0.045*%
%ADD024C,0.11*%
%ADD026C,0.015*%
%ADD028C,0.025*%
%ADD040C,0.16*%
%ADD041C,0.145*%
*
*
*
*
G04 PC Copper Outlines (0)*
G04 Layer Name atlas_1_rev1.pcb - dark (0)*
%LPD*%
*
*
G04 PC Area=Custom_Thermal*
*
G04 PC Custom Flashes*
G04 Layer Name atlas_1_rev1.pcb - flashes*
%LPD*%
*
*
G04 PC Circuitry*
G04 Layer Name atlas_1_rev1.pcb - circuitry*
%LPD*%
*
G54D10*
G01X160000Y450000D03*
X150000D03*
X140000D03*
X240000D03*
X230000D03*
X220000D03*
X200000D03*
X260000D03*
X120000D03*
X180000D03*
X480000D03*
X470000D03*
X460000D03*
X440000D03*
X500000D03*
X560000D03*
X550000D03*
X540000D03*
X520000D03*
X580000D03*
X634000Y175000D03*
X320000Y450000D03*
X310000D03*
X300000D03*
X400000D03*
X390000D03*
X380000D03*
X280000D03*
X340000D03*
X360000D03*
X420000D03*
G54D11*
X160000Y440000D03*
Y430000D03*
Y420000D03*
Y410000D03*
Y400000D03*
Y390000D03*
Y380000D03*
Y370000D03*
Y360000D03*
Y350000D03*
Y340000D03*
Y330000D03*
Y320000D03*
Y310000D03*
Y300000D03*
Y290000D03*
Y280000D03*
Y270000D03*
Y260000D03*
Y250000D03*
Y240000D03*
Y230000D03*
Y220000D03*
Y210000D03*
Y200000D03*
Y190000D03*
Y180000D03*
Y170000D03*
Y160000D03*
Y150000D03*
Y140000D03*
X150000Y440000D03*
Y430000D03*
Y420000D03*
Y410000D03*
Y400000D03*
Y390000D03*
Y380000D03*
Y370000D03*
Y360000D03*
Y350000D03*
Y340000D03*
Y330000D03*
Y320000D03*
Y310000D03*
Y300000D03*
Y290000D03*
Y280000D03*
Y270000D03*
Y260000D03*
Y250000D03*
Y240000D03*
Y230000D03*
Y220000D03*
Y210000D03*
Y200000D03*
Y190000D03*
Y180000D03*
Y170000D03*
Y160000D03*
Y150000D03*
Y140000D03*
X140000Y440000D03*
Y430000D03*
Y420000D03*
Y410000D03*
Y400000D03*
Y390000D03*
Y380000D03*
Y370000D03*
Y360000D03*
Y350000D03*
Y340000D03*
Y330000D03*
Y320000D03*
Y310000D03*
Y300000D03*
Y290000D03*
Y280000D03*
Y270000D03*
Y260000D03*
Y250000D03*
Y240000D03*
Y230000D03*
Y220000D03*
Y210000D03*
Y200000D03*
Y190000D03*
Y180000D03*
Y170000D03*
Y160000D03*
Y150000D03*
Y140000D03*
X240000Y440000D03*
Y430000D03*
Y420000D03*
Y410000D03*
Y400000D03*
Y390000D03*
Y380000D03*
Y370000D03*
Y360000D03*
Y350000D03*
Y340000D03*
Y330000D03*
Y320000D03*
Y310000D03*
Y300000D03*
Y290000D03*
Y280000D03*
Y270000D03*
Y260000D03*
Y250000D03*
Y240000D03*
Y230000D03*
Y220000D03*
Y210000D03*
Y200000D03*
Y190000D03*
Y180000D03*
Y170000D03*
Y160000D03*
Y150000D03*
Y140000D03*
X230000Y440000D03*
Y430000D03*
Y420000D03*
Y410000D03*
Y400000D03*
Y390000D03*
Y380000D03*
Y370000D03*
Y360000D03*
Y350000D03*
Y340000D03*
Y330000D03*
Y320000D03*
Y310000D03*
Y300000D03*
Y290000D03*
Y280000D03*
Y270000D03*
Y260000D03*
Y250000D03*
Y240000D03*
Y230000D03*
Y220000D03*
Y210000D03*
Y200000D03*
Y190000D03*
Y180000D03*
Y170000D03*
Y160000D03*
Y150000D03*
Y140000D03*
X220000Y440000D03*
Y430000D03*
Y420000D03*
Y410000D03*
Y400000D03*
Y390000D03*
Y380000D03*
Y370000D03*
Y360000D03*
Y350000D03*
Y340000D03*
Y330000D03*
Y320000D03*
Y310000D03*
Y300000D03*
Y290000D03*
Y280000D03*
Y270000D03*
Y260000D03*
Y250000D03*
Y240000D03*
Y230000D03*
Y220000D03*
Y210000D03*
Y200000D03*
Y190000D03*
Y180000D03*
Y170000D03*
Y160000D03*
Y150000D03*
Y140000D03*
X200000Y440000D03*
Y430000D03*
Y420000D03*
Y410000D03*
Y400000D03*
Y390000D03*
Y380000D03*
Y370000D03*
Y360000D03*
Y350000D03*
Y340000D03*
Y330000D03*
Y320000D03*
Y310000D03*
Y300000D03*
Y290000D03*
Y280000D03*
Y270000D03*
Y260000D03*
Y250000D03*
Y240000D03*
Y230000D03*
Y220000D03*
Y210000D03*
Y200000D03*
Y190000D03*
Y180000D03*
Y170000D03*
Y160000D03*
Y150000D03*
Y140000D03*
X260000Y440000D03*
Y430000D03*
Y420000D03*
Y410000D03*
Y400000D03*
Y390000D03*
Y380000D03*
Y370000D03*
Y360000D03*
Y350000D03*
Y340000D03*
Y330000D03*
Y320000D03*
Y310000D03*
Y300000D03*
Y290000D03*
Y280000D03*
Y270000D03*
Y260000D03*
Y250000D03*
Y240000D03*
Y230000D03*
Y220000D03*
Y210000D03*
Y200000D03*
Y190000D03*
Y180000D03*
Y170000D03*
Y160000D03*
Y150000D03*
Y140000D03*
X120000Y440000D03*
Y430000D03*
Y420000D03*
Y410000D03*
Y400000D03*
Y390000D03*
Y380000D03*
Y370000D03*
Y360000D03*
Y350000D03*
Y340000D03*
Y330000D03*
Y320000D03*
Y310000D03*
Y300000D03*
Y290000D03*
Y280000D03*
Y270000D03*
Y260000D03*
Y250000D03*
Y240000D03*
Y230000D03*
Y220000D03*
Y210000D03*
Y200000D03*
Y190000D03*
Y180000D03*
Y170000D03*
Y160000D03*
Y150000D03*
Y140000D03*
X180000Y440000D03*
Y430000D03*
Y420000D03*
Y410000D03*
Y400000D03*
Y390000D03*
Y380000D03*
Y370000D03*
Y360000D03*
Y350000D03*
Y340000D03*
Y330000D03*
Y320000D03*
Y310000D03*
Y300000D03*
Y290000D03*
Y280000D03*
Y270000D03*
Y260000D03*
Y250000D03*
Y240000D03*
Y230000D03*
Y220000D03*
Y210000D03*
Y200000D03*
Y190000D03*
Y180000D03*
Y170000D03*
Y160000D03*
Y150000D03*
Y140000D03*
X480000Y440000D03*
Y430000D03*
Y420000D03*
Y410000D03*
Y400000D03*
Y390000D03*
Y380000D03*
Y370000D03*
Y360000D03*
Y350000D03*
Y340000D03*
Y330000D03*
Y320000D03*
Y310000D03*
Y300000D03*
Y290000D03*
Y280000D03*
Y270000D03*
Y260000D03*
Y250000D03*
Y240000D03*
Y230000D03*
Y220000D03*
Y210000D03*
Y200000D03*
Y190000D03*
Y180000D03*
Y170000D03*
Y160000D03*
Y150000D03*
Y140000D03*
X470000Y440000D03*
Y430000D03*
Y420000D03*
Y410000D03*
Y400000D03*
Y390000D03*
Y380000D03*
Y370000D03*
Y360000D03*
Y350000D03*
Y340000D03*
Y330000D03*
Y320000D03*
Y310000D03*
Y300000D03*
Y290000D03*
Y280000D03*
Y270000D03*
Y260000D03*
Y250000D03*
Y240000D03*
Y230000D03*
Y220000D03*
Y210000D03*
Y200000D03*
Y190000D03*
Y180000D03*
Y170000D03*
Y160000D03*
Y150000D03*
Y140000D03*
X460000Y440000D03*
Y430000D03*
Y420000D03*
Y410000D03*
Y400000D03*
Y390000D03*
Y380000D03*
Y370000D03*
Y360000D03*
Y350000D03*
Y340000D03*
Y330000D03*
Y320000D03*
Y310000D03*
Y300000D03*
Y290000D03*
Y280000D03*
Y270000D03*
Y260000D03*
Y250000D03*
Y240000D03*
Y230000D03*
Y220000D03*
Y210000D03*
Y200000D03*
Y190000D03*
Y180000D03*
Y170000D03*
Y160000D03*
Y150000D03*
Y140000D03*
X440000Y440000D03*
Y430000D03*
Y420000D03*
Y410000D03*
Y400000D03*
Y390000D03*
Y380000D03*
Y370000D03*
Y360000D03*
Y350000D03*
Y340000D03*
Y330000D03*
Y320000D03*
Y310000D03*
Y300000D03*
Y290000D03*
Y280000D03*
Y270000D03*
Y260000D03*
Y250000D03*
Y240000D03*
Y230000D03*
Y220000D03*
Y210000D03*
Y200000D03*
Y190000D03*
Y180000D03*
Y170000D03*
Y160000D03*
Y150000D03*
Y140000D03*
X500000Y440000D03*
Y430000D03*
Y420000D03*
Y410000D03*
Y400000D03*
Y390000D03*
Y380000D03*
Y370000D03*
Y360000D03*
Y350000D03*
Y340000D03*
Y330000D03*
Y320000D03*
Y310000D03*
Y300000D03*
Y290000D03*
Y280000D03*
Y270000D03*
Y260000D03*
Y250000D03*
Y240000D03*
Y230000D03*
Y220000D03*
Y210000D03*
Y200000D03*
Y190000D03*
Y180000D03*
Y170000D03*
Y160000D03*
Y150000D03*
Y140000D03*
X560000Y440000D03*
Y430000D03*
Y420000D03*
Y410000D03*
Y400000D03*
Y390000D03*
Y380000D03*
Y370000D03*
Y360000D03*
Y350000D03*
Y340000D03*
Y330000D03*
Y320000D03*
Y310000D03*
Y300000D03*
Y290000D03*
Y280000D03*
Y270000D03*
Y260000D03*
Y250000D03*
Y240000D03*
Y230000D03*
Y220000D03*
Y210000D03*
Y200000D03*
Y190000D03*
Y180000D03*
Y170000D03*
Y160000D03*
Y150000D03*
Y140000D03*
X550000Y440000D03*
Y430000D03*
Y420000D03*
Y410000D03*
Y400000D03*
Y390000D03*
Y380000D03*
Y370000D03*
Y360000D03*
Y350000D03*
Y340000D03*
Y330000D03*
Y320000D03*
Y310000D03*
Y300000D03*
Y290000D03*
Y280000D03*
Y270000D03*
Y260000D03*
Y250000D03*
Y240000D03*
Y230000D03*
Y220000D03*
Y210000D03*
Y200000D03*
Y190000D03*
Y180000D03*
Y170000D03*
Y160000D03*
Y150000D03*
Y140000D03*
X540000Y440000D03*
Y430000D03*
Y420000D03*
Y410000D03*
Y400000D03*
Y390000D03*
Y380000D03*
Y370000D03*
Y360000D03*
Y350000D03*
Y340000D03*
Y330000D03*
Y320000D03*
Y310000D03*
Y300000D03*
Y290000D03*
Y280000D03*
Y270000D03*
Y260000D03*
Y250000D03*
Y240000D03*
Y230000D03*
Y220000D03*
Y210000D03*
Y200000D03*
Y190000D03*
Y180000D03*
Y170000D03*
Y160000D03*
Y150000D03*
Y140000D03*
X520000Y440000D03*
Y430000D03*
Y420000D03*
Y410000D03*
Y400000D03*
Y390000D03*
Y380000D03*
Y370000D03*
Y360000D03*
Y350000D03*
Y340000D03*
Y330000D03*
Y320000D03*
Y310000D03*
Y300000D03*
Y290000D03*
Y280000D03*
Y270000D03*
Y260000D03*
Y250000D03*
Y240000D03*
Y230000D03*
Y220000D03*
Y210000D03*
Y200000D03*
Y190000D03*
Y180000D03*
Y170000D03*
Y160000D03*
Y150000D03*
Y140000D03*
X580000Y440000D03*
Y430000D03*
Y420000D03*
Y410000D03*
Y400000D03*
Y390000D03*
Y380000D03*
Y370000D03*
Y360000D03*
Y350000D03*
Y340000D03*
Y330000D03*
Y320000D03*
Y310000D03*
Y300000D03*
Y290000D03*
Y280000D03*
Y270000D03*
Y260000D03*
Y250000D03*
Y240000D03*
Y230000D03*
Y220000D03*
Y210000D03*
Y200000D03*
Y190000D03*
Y180000D03*
Y170000D03*
Y160000D03*
Y150000D03*
Y140000D03*
X634000Y165000D03*
Y155000D03*
Y145000D03*
Y135000D03*
Y125000D03*
X618000Y273000D03*
Y257000D03*
Y242000D03*
Y216000D03*
Y186000D03*
X622000Y121000D03*
X640000Y480000D03*
X630000D03*
X595000Y460000D03*
X320000Y440000D03*
Y430000D03*
Y420000D03*
Y410000D03*
Y400000D03*
Y390000D03*
Y380000D03*
Y370000D03*
Y360000D03*
Y350000D03*
Y340000D03*
Y330000D03*
Y320000D03*
Y310000D03*
Y300000D03*
Y290000D03*
Y280000D03*
Y270000D03*
Y260000D03*
Y250000D03*
Y240000D03*
Y230000D03*
Y220000D03*
Y210000D03*
Y200000D03*
Y190000D03*
Y180000D03*
Y170000D03*
Y160000D03*
Y150000D03*
Y140000D03*
X310000Y440000D03*
Y430000D03*
Y420000D03*
Y410000D03*
Y400000D03*
Y390000D03*
Y380000D03*
Y370000D03*
Y360000D03*
Y350000D03*
Y340000D03*
Y330000D03*
Y320000D03*
Y310000D03*
Y300000D03*
Y290000D03*
Y280000D03*
Y270000D03*
Y260000D03*
Y250000D03*
Y240000D03*
Y230000D03*
Y220000D03*
Y210000D03*
Y200000D03*
Y190000D03*
Y180000D03*
Y170000D03*
Y160000D03*
Y150000D03*
Y140000D03*
X300000Y440000D03*
Y430000D03*
Y420000D03*
Y410000D03*
Y400000D03*
Y390000D03*
Y380000D03*
Y370000D03*
Y360000D03*
Y350000D03*
Y340000D03*
Y330000D03*
Y320000D03*
Y310000D03*
Y300000D03*
Y290000D03*
Y280000D03*
Y270000D03*
Y260000D03*
Y250000D03*
Y240000D03*
Y230000D03*
Y220000D03*
Y210000D03*
Y200000D03*
Y190000D03*
Y180000D03*
Y170000D03*
Y160000D03*
Y150000D03*
Y140000D03*
X400000Y440000D03*
Y430000D03*
Y420000D03*
Y410000D03*
Y400000D03*
Y390000D03*
Y380000D03*
Y370000D03*
Y360000D03*
Y350000D03*
Y340000D03*
Y330000D03*
Y320000D03*
Y310000D03*
Y300000D03*
Y290000D03*
Y280000D03*
Y270000D03*
Y260000D03*
Y250000D03*
Y240000D03*
Y230000D03*
Y220000D03*
Y210000D03*
Y200000D03*
Y190000D03*
Y180000D03*
Y170000D03*
Y160000D03*
Y150000D03*
Y140000D03*
X390000Y440000D03*
Y430000D03*
Y420000D03*
Y410000D03*
Y400000D03*
Y390000D03*
Y380000D03*
Y370000D03*
Y360000D03*
Y350000D03*
Y340000D03*
Y330000D03*
Y320000D03*
Y310000D03*
Y300000D03*
Y290000D03*
Y280000D03*
Y270000D03*
Y260000D03*
Y250000D03*
Y240000D03*
Y230000D03*
Y220000D03*
Y210000D03*
Y200000D03*
Y190000D03*
Y180000D03*
Y170000D03*
Y160000D03*
Y150000D03*
Y140000D03*
X380000Y440000D03*
Y430000D03*
Y420000D03*
Y410000D03*
Y400000D03*
Y390000D03*
Y380000D03*
Y370000D03*
Y360000D03*
Y350000D03*
Y340000D03*
Y330000D03*
Y320000D03*
Y310000D03*
Y300000D03*
Y290000D03*
Y280000D03*
Y270000D03*
Y260000D03*
Y250000D03*
Y240000D03*
Y230000D03*
Y220000D03*
Y210000D03*
Y200000D03*
Y190000D03*
Y180000D03*
Y170000D03*
Y160000D03*
Y150000D03*
Y140000D03*
X280000Y440000D03*
Y430000D03*
Y420000D03*
Y410000D03*
Y400000D03*
Y390000D03*
Y380000D03*
Y370000D03*
Y360000D03*
Y350000D03*
Y340000D03*
Y330000D03*
Y320000D03*
Y310000D03*
Y300000D03*
Y290000D03*
Y280000D03*
Y270000D03*
Y260000D03*
Y250000D03*
Y240000D03*
Y230000D03*
Y220000D03*
Y210000D03*
Y200000D03*
Y190000D03*
Y180000D03*
Y170000D03*
Y160000D03*
Y150000D03*
Y140000D03*
X340000Y440000D03*
Y430000D03*
Y420000D03*
Y410000D03*
Y400000D03*
Y390000D03*
Y380000D03*
Y370000D03*
Y360000D03*
Y350000D03*
Y340000D03*
Y330000D03*
Y320000D03*
Y310000D03*
Y300000D03*
Y290000D03*
Y280000D03*
Y270000D03*
Y260000D03*
Y250000D03*
Y240000D03*
Y230000D03*
Y220000D03*
Y210000D03*
Y200000D03*
Y190000D03*
Y180000D03*
Y170000D03*
Y160000D03*
Y150000D03*
Y140000D03*
X360000Y440000D03*
Y430000D03*
Y420000D03*
Y410000D03*
Y400000D03*
Y390000D03*
Y380000D03*
Y370000D03*
Y360000D03*
Y350000D03*
Y340000D03*
Y330000D03*
Y320000D03*
Y310000D03*
Y300000D03*
Y290000D03*
Y280000D03*
Y270000D03*
Y260000D03*
Y250000D03*
Y240000D03*
Y230000D03*
Y220000D03*
Y210000D03*
Y200000D03*
Y190000D03*
Y180000D03*
Y170000D03*
Y160000D03*
Y150000D03*
Y140000D03*
X420000Y440000D03*
Y430000D03*
Y420000D03*
Y410000D03*
Y400000D03*
Y390000D03*
Y380000D03*
Y370000D03*
Y360000D03*
Y350000D03*
Y340000D03*
Y330000D03*
Y320000D03*
Y310000D03*
Y300000D03*
Y290000D03*
Y280000D03*
Y270000D03*
Y260000D03*
Y250000D03*
Y240000D03*
Y230000D03*
Y220000D03*
Y210000D03*
Y200000D03*
Y190000D03*
Y180000D03*
Y170000D03*
Y160000D03*
Y150000D03*
Y140000D03*
G54D14*
X610000Y301500D03*
G54D15*
Y318000D03*
Y334500D03*
Y351000D03*
Y367500D03*
Y384000D03*
Y400500D03*
Y417000D03*
Y433500D03*
X610600Y449600D03*
X631700Y301500D03*
Y318000D03*
Y334500D03*
Y351000D03*
Y367500D03*
Y384000D03*
Y400500D03*
Y417000D03*
Y433500D03*
Y450000D03*
G54D21*
X115000Y115000D03*
X600000D03*
X115000Y480000D03*
X600000D03*
G54D22*
X610000Y180000D02*
Y220000D01*
G54D23*
X595000Y186000D03*
X610000Y180000D03*
X601000Y200000D03*
X610000Y220000D03*
X601000Y227000D03*
Y257000D03*
Y275000D03*
G54D24*
X622000Y135000D03*
X602000D03*
G54D26*
X120000Y150000D02*
Y147625D01*
X122625Y145000*
X240000*
X257375*
X260000Y147625*
Y150000*
X120000D02*
X140000D01*
X160000D02*
X180000D01*
Y152375*
X182625Y155000*
X517375*
X520000Y152375*
Y150000*
X200000D02*
X220000D01*
X240000D02*
X260000D01*
X300000D02*
X280000D01*
Y147625*
X282625Y145000*
X417375*
X420000Y147625*
Y150000*
X320000D02*
X340000D01*
X360000D02*
X380000D01*
X400000D02*
X420000D01*
X460000D02*
X440000D01*
Y147625*
X442625Y145000*
X577375*
X580000Y147625*
Y150000*
X480000D02*
X500000D01*
X520000D02*
X540000D01*
X560000D02*
X580000D01*
X120000Y170000D02*
X140000D01*
X160000D02*
X180000D01*
X187375*
X190000Y172625*
Y182375*
X192625Y185000*
X577375*
X580000Y187625*
Y190000*
X200000Y170000D02*
X220000D01*
X240000D02*
X260000D01*
X280000D02*
X300000D01*
X320000D02*
X340000D01*
X360000D02*
X380000D01*
X400000D02*
X420000D01*
X440000D02*
X460000D01*
X480000D02*
X500000D01*
X520000D02*
X540000D01*
X560000D02*
X580000D01*
X584375*
X587000Y172625*
Y192375*
X120000Y190000D02*
X140000D01*
X160000D02*
X180000D01*
X200000D02*
X220000D01*
X240000D02*
X260000D01*
X280000D02*
X300000D01*
X320000D02*
X340000D01*
X360000D02*
X380000D01*
X400000D02*
X420000D01*
X440000D02*
X460000D01*
X480000D02*
X500000D01*
Y192375*
X502625Y195000*
X584375*
X587000Y192375*
X520000Y190000D02*
X540000D01*
X560000D02*
X580000D01*
X120000Y210000D02*
Y213250D01*
X121750Y215000*
X200000*
Y210000*
X140000D02*
X120000D01*
Y213250*
X121750Y215000*
X440000*
Y210000*
X120000D02*
Y213250D01*
X121750Y215000*
X280000*
X160000Y210000D02*
X180000D01*
X200000D02*
X220000D01*
X240000D02*
X260000D01*
X280000D02*
X300000D01*
X320000D02*
X340000D01*
X360000D02*
X380000D01*
X400000D02*
X420000D01*
X440000D02*
X460000D01*
X480000D02*
X500000D01*
X520000D02*
X540000D01*
X560000D02*
X580000D01*
X120000Y220000D02*
Y223250D01*
X121750Y225000*
X200000*
Y220000*
X140000D02*
X120000D01*
Y223250*
X121750Y225000*
X440000*
Y220000*
X120000D02*
Y223250D01*
X121750Y225000*
X280132*
X120000Y230000D02*
Y233250D01*
X121750Y235000*
X200000*
Y230000*
X140000D02*
X120000D01*
Y233250*
X121750Y235000*
X440000*
Y230000*
X120000D02*
Y233250D01*
X121750Y235000*
X280000*
X160000Y220000D02*
X180000D01*
X160000Y230000D02*
X180000D01*
X200000Y220000D02*
X220000D01*
X200000Y230000D02*
X220000D01*
X240000Y220000D02*
X260000D01*
X240000Y230000D02*
X260000D01*
X300000Y220000D02*
X280000D01*
Y224868*
X280132Y225000*
X280000Y230000D02*
X300000D01*
X280132Y225000D02*
X360000D01*
Y215000D02*
X280000D01*
Y210000*
X320000Y220000D02*
X340000D01*
X320000Y230000D02*
X340000D01*
X360000Y220000D02*
X380000D01*
X360000Y230000D02*
X380000D01*
X360000Y225000D02*
X518250D01*
X520000Y223250*
Y220000*
X360000Y225000D02*
Y220000D01*
Y215000D02*
X518250D01*
X520000Y213250*
Y210000*
X360000Y215000D02*
Y210000D01*
X400000Y220000D02*
X420000D01*
X400000Y230000D02*
X420000D01*
X440000Y220000D02*
X460000D01*
X440000Y230000D02*
X460000D01*
X480000Y220000D02*
X500000D01*
X480000Y230000D02*
X500000D01*
X520000Y220000D02*
X540000D01*
X520000Y230000D02*
X540000D01*
X560000Y220000D02*
X580000D01*
X560000Y230000D02*
X580000D01*
X120000Y240000D02*
Y243250D01*
X121750Y245000*
X200000*
Y240000*
X140000D02*
X120000D01*
Y243250*
X121750Y245000*
X440000*
Y240000*
X120000D02*
Y243250D01*
X121750Y245000*
X280000*
X120000Y250000D02*
Y253250D01*
X121750Y255000*
X200000*
Y250000*
X140000D02*
X120000D01*
Y253250*
X121750Y255000*
X440000*
Y250000*
X120000D02*
Y253250D01*
X121750Y255000*
X280000*
X160000Y240000D02*
X180000D01*
X160000Y250000D02*
X180000D01*
X200000Y240000D02*
X220000D01*
X200000Y250000D02*
X220000D01*
X240000Y240000D02*
X260000D01*
X240000Y250000D02*
X260000D01*
X280000Y240000D02*
X300000D01*
X280000Y250000D02*
X300000D01*
X360000Y245000D02*
X280000D01*
Y240000*
X360000Y235000D02*
X280000D01*
Y230000*
X320000Y240000D02*
X340000D01*
X320000Y250000D02*
X340000D01*
X360000Y240000D02*
X380000D01*
X360000Y250000D02*
X380000D01*
X360000Y245000D02*
X518250D01*
X520000Y243250*
Y240000*
X360000Y245000D02*
Y240000D01*
Y235000D02*
X518250D01*
X520000Y233250*
Y230000*
X360000Y235000D02*
Y230000D01*
X400000Y240000D02*
X420000D01*
X400000Y250000D02*
X420000D01*
X440000Y240000D02*
X460000D01*
X440000Y250000D02*
X460000D01*
X480000Y240000D02*
X500000D01*
X480000Y250000D02*
X500000D01*
X520000Y240000D02*
X540000D01*
X520000Y250000D02*
X540000D01*
X560000Y240000D02*
X580000D01*
X560000Y250000D02*
X580000D01*
X120000Y260000D02*
Y263250D01*
X121750Y265000*
X200000*
Y260000*
X140000D02*
X120000D01*
Y263250*
X121750Y265000*
X440000*
Y260000*
X120000D02*
Y263250D01*
X121750Y265000*
X280000*
X120000Y270000D02*
Y273250D01*
X121750Y275000*
X200000*
Y270000*
X140000D02*
X120000D01*
Y273250*
X121750Y275000*
X440000*
Y270000*
X120000D02*
Y273250D01*
X121750Y275000*
X280000*
X160000Y260000D02*
X180000D01*
X160000Y270000D02*
X180000D01*
X200000Y260000D02*
X220000D01*
X200000Y270000D02*
X220000D01*
X240000Y260000D02*
X260000D01*
X240000Y270000D02*
X260000D01*
X280000Y260000D02*
X300000D01*
X280000Y270000D02*
X300000D01*
X360000Y265000D02*
X280000D01*
Y260000*
X360000Y255000D02*
X280000D01*
Y250000*
X320000Y260000D02*
X340000D01*
X320000Y270000D02*
X340000D01*
X360000Y260000D02*
X380000D01*
X360000Y270000D02*
X380000D01*
X360000Y265000D02*
X518250D01*
X520000Y263250*
Y260000*
X360000Y265000D02*
Y260000D01*
Y255000D02*
X518250D01*
X520000Y253250*
Y250000*
X360000Y255000D02*
Y250000D01*
X400000Y260000D02*
X420000D01*
X400000Y270000D02*
X420000D01*
X440000Y260000D02*
X460000D01*
X440000Y270000D02*
X460000D01*
X480000Y260000D02*
X500000D01*
X480000Y270000D02*
X500000D01*
X520000Y260000D02*
X540000D01*
X520000Y270000D02*
X540000D01*
X560000Y260000D02*
X580000D01*
X560000Y270000D02*
X580000D01*
X593000Y258750D02*
Y349250D01*
X594750Y351000*
X610000*
X593000Y258750D02*
X594750Y257000D01*
X601000*
X120000Y280000D02*
Y283250D01*
X121750Y285000*
X200000*
Y280000*
X140000D02*
X120000D01*
Y283250*
X121750Y285000*
X440000*
Y280000*
X120000D02*
Y283250D01*
X121750Y285000*
X280000*
X120000Y290000D02*
Y293250D01*
X121750Y295000*
X200000*
Y290000*
X140000D02*
X120000D01*
Y293250*
X121750Y295000*
X440000*
Y290000*
X120000D02*
Y293250D01*
X121750Y295000*
X280000*
X160000Y280000D02*
X180000D01*
X160000Y290000D02*
X180000D01*
X200000Y280000D02*
X220000D01*
X200000Y290000D02*
X220000D01*
X240000Y280000D02*
X260000D01*
X240000Y290000D02*
X260000D01*
X280000Y280000D02*
X300000D01*
X280000Y290000D02*
X300000D01*
X360000Y285000D02*
X280000D01*
Y280000*
X360000Y275000D02*
X280000D01*
Y270000*
X320000Y280000D02*
X340000D01*
X320000Y290000D02*
X340000D01*
X360000Y280000D02*
X380000D01*
X360000Y290000D02*
X380000D01*
X360000Y285000D02*
X518250D01*
X520000Y283250*
Y280000*
X360000Y285000D02*
Y280000D01*
Y275000D02*
X518250D01*
X520000Y273250*
Y270000*
X360000Y275000D02*
Y270000D01*
X400000Y280000D02*
X420000D01*
X400000Y290000D02*
X420000D01*
X440000Y280000D02*
X460000D01*
X440000Y290000D02*
X460000D01*
X480000Y280000D02*
X500000D01*
X480000Y290000D02*
X500000D01*
X520000Y280000D02*
X540000D01*
X520000Y290000D02*
X540000D01*
X560000Y280000D02*
X580000D01*
X560000Y290000D02*
X580000D01*
X120000Y300000D02*
Y303250D01*
X121750Y305000*
X200000*
Y300000*
X140000D02*
X120000D01*
Y303250*
X121750Y305000*
X440000*
Y300000*
X120000D02*
Y303250D01*
X121750Y305000*
X280000*
X120000Y310000D02*
Y313250D01*
X121750Y315000*
X200000*
Y310000*
X140000D02*
X120000D01*
Y313250*
X121750Y315000*
X440000*
Y310000*
X120000D02*
Y313250D01*
X121750Y315000*
X280000*
X160000Y300000D02*
X180000D01*
X160000Y310000D02*
X180000D01*
X200000Y300000D02*
X220000D01*
X200000Y310000D02*
X220000D01*
X240000Y300000D02*
X260000D01*
X240000Y310000D02*
X260000D01*
X280000Y300000D02*
X300000D01*
X280000Y310000D02*
X300000D01*
X360000Y305000D02*
X280000D01*
Y300000*
X360000Y295000D02*
X280000D01*
Y290000*
X320000Y300000D02*
X340000D01*
X320000Y310000D02*
X340000D01*
X360000Y300000D02*
X380000D01*
X360000Y310000D02*
X380000D01*
X360000Y305000D02*
X518250D01*
X520000Y303250*
Y300000*
X360000Y305000D02*
Y300000D01*
Y295000D02*
X518250D01*
X520000Y293250*
Y290000*
X360000Y295000D02*
Y290000D01*
X400000Y300000D02*
X420000D01*
X400000Y310000D02*
X420000D01*
X440000Y300000D02*
X460000D01*
X440000Y310000D02*
X460000D01*
X480000Y300000D02*
X500000D01*
X480000Y310000D02*
X500000D01*
X520000Y300000D02*
X540000D01*
X520000Y310000D02*
X540000D01*
X560000Y300000D02*
X580000D01*
X560000Y310000D02*
X580000D01*
X120000Y320000D02*
Y323250D01*
X121750Y325000*
X200000*
Y320000*
X140000D02*
X120000D01*
Y323250*
X121750Y325000*
X440000*
Y320000*
X120000D02*
Y323250D01*
X121750Y325000*
X280000*
X120000Y330000D02*
Y333250D01*
X121750Y335000*
X200000*
Y330000*
X140000D02*
X120000D01*
Y333250*
X121750Y335000*
X440000*
Y330000*
X120000D02*
Y333250D01*
X121750Y335000*
X280000*
X160000Y320000D02*
X180000D01*
X160000Y330000D02*
X180000D01*
X200000Y320000D02*
X220000D01*
X200000Y330000D02*
X220000D01*
X240000Y320000D02*
X260000D01*
X240000Y330000D02*
X260000D01*
X280000Y320000D02*
X300000D01*
X280000Y330000D02*
X300000D01*
X360000Y325000D02*
X280000D01*
Y320000*
X360000Y315000D02*
X280000D01*
Y310000*
X320000Y320000D02*
X340000D01*
X320000Y330000D02*
X340000D01*
X360000Y320000D02*
X380000D01*
X360000Y330000D02*
X380000D01*
X360000Y325000D02*
X518250D01*
X520000Y323250*
Y320000*
X360000Y325000D02*
Y320000D01*
Y315000D02*
X518250D01*
X520000Y313250*
Y310000*
X360000Y315000D02*
Y310000D01*
X400000Y320000D02*
X420000D01*
X400000Y330000D02*
X420000D01*
X440000Y320000D02*
X460000D01*
X440000Y330000D02*
X460000D01*
X480000Y320000D02*
X500000D01*
X480000Y330000D02*
X500000D01*
X520000Y320000D02*
X540000D01*
X520000Y330000D02*
X540000D01*
X560000Y320000D02*
X580000D01*
X560000Y330000D02*
X580000D01*
X120000Y340000D02*
Y343250D01*
X121750Y345000*
X200000*
Y340000*
X140000D02*
X120000D01*
Y343250*
X121750Y345000*
X440000*
Y340000*
X120000D02*
Y343250D01*
X121750Y345000*
X280000*
X120000Y350000D02*
Y353250D01*
X121750Y355000*
X200000*
Y350000*
X140000D02*
X120000D01*
Y353250*
X121750Y355000*
X440000*
Y350000*
X120000D02*
Y353250D01*
X121750Y355000*
X280000*
X160000Y340000D02*
X180000D01*
X160000Y350000D02*
X180000D01*
X200000Y340000D02*
X220000D01*
X200000Y350000D02*
X220000D01*
X240000Y340000D02*
X260000D01*
X240000Y350000D02*
X260000D01*
X280000Y340000D02*
X300000D01*
X280000Y350000D02*
X300000D01*
X360000Y345000D02*
X280000D01*
Y340000*
X360000Y335000D02*
X280000D01*
Y330000*
X320000Y340000D02*
X340000D01*
X320000Y350000D02*
X340000D01*
X360000Y340000D02*
X380000D01*
X360000Y350000D02*
X380000D01*
X360000Y345000D02*
X518250D01*
X520000Y343250*
Y340000*
X360000Y345000D02*
Y340000D01*
Y335000D02*
X518250D01*
X520000Y333250*
Y330000*
X360000Y335000D02*
Y330000D01*
X400000Y340000D02*
X420000D01*
X400000Y350000D02*
X420000D01*
X440000Y340000D02*
X460000D01*
X440000Y350000D02*
X460000D01*
X480000Y340000D02*
X500000D01*
X480000Y350000D02*
X500000D01*
X520000Y340000D02*
X540000D01*
X520000Y350000D02*
X540000D01*
X560000Y340000D02*
X580000D01*
X560000Y350000D02*
X580000D01*
X120000Y360000D02*
Y363250D01*
X121750Y365000*
X200000*
Y360000*
X140000D02*
X120000D01*
Y363250*
X121750Y365000*
X440000*
Y360000*
X120000D02*
Y363250D01*
X121750Y365000*
X280000*
X120000Y370000D02*
Y373250D01*
X121750Y375000*
X200000*
Y370000*
X140000D02*
X120000D01*
Y373250*
X121750Y375000*
X440000*
Y370000*
X120000D02*
Y373250D01*
X121750Y375000*
X280000*
X160000Y360000D02*
X180000D01*
X160000Y370000D02*
X180000D01*
X200000Y360000D02*
X220000D01*
X200000Y370000D02*
X220000D01*
X240000Y360000D02*
X260000D01*
X240000Y370000D02*
X260000D01*
X280000Y360000D02*
X300000D01*
X280000Y370000D02*
X300000D01*
X360000Y365000D02*
X280000D01*
Y360000*
X360000Y355000D02*
X280000D01*
Y350000*
X320000Y360000D02*
X340000D01*
X320000Y370000D02*
X340000D01*
X360000Y360000D02*
X380000D01*
X360000Y370000D02*
X380000D01*
X360000Y365000D02*
X518250D01*
X520000Y363250*
Y360000*
X360000Y365000D02*
Y360000D01*
Y355000D02*
X518250D01*
X520000Y353250*
Y350000*
X360000Y355000D02*
Y350000D01*
X400000Y360000D02*
X420000D01*
X400000Y370000D02*
X420000D01*
X440000Y360000D02*
X460000D01*
X440000Y370000D02*
X460000D01*
X480000Y360000D02*
X500000D01*
X480000Y370000D02*
X500000D01*
X520000Y360000D02*
X540000D01*
X520000Y370000D02*
X540000D01*
X560000Y360000D02*
X580000D01*
X560000Y370000D02*
X580000D01*
X120000Y380000D02*
Y383250D01*
X121750Y385000*
X200000*
Y380000*
X140000D02*
X120000D01*
Y383250*
X121750Y385000*
X440000*
Y380000*
X120000D02*
Y383250D01*
X121750Y385000*
X280000*
X120000Y390000D02*
Y393250D01*
X121750Y395000*
X200000*
Y390000*
X140000D02*
X120000D01*
Y393250*
X121750Y395000*
X440000*
Y390000*
X120000D02*
Y393250D01*
X121750Y395000*
X280000*
X160000Y380000D02*
X180000D01*
X160000Y390000D02*
X180000D01*
X200000Y380000D02*
X220000D01*
X200000Y390000D02*
X220000D01*
X240000Y380000D02*
X260000D01*
X240000Y390000D02*
X260000D01*
X280000Y380000D02*
X300000D01*
X280000Y390000D02*
X300000D01*
X360000Y385000D02*
X280000D01*
Y380000*
X360000Y375000D02*
X280000D01*
Y370000*
X320000Y380000D02*
X340000D01*
X320000Y390000D02*
X340000D01*
X360000Y380000D02*
X380000D01*
X360000Y390000D02*
X380000D01*
X360000Y385000D02*
X518250D01*
X520000Y383250*
Y380000*
X360000Y385000D02*
Y380000D01*
Y375000D02*
X518250D01*
X520000Y373250*
Y370000*
X360000Y375000D02*
Y370000D01*
X400000Y380000D02*
X420000D01*
X400000Y390000D02*
X420000D01*
X440000Y380000D02*
X460000D01*
X440000Y390000D02*
X460000D01*
X480000Y380000D02*
X500000D01*
X480000Y390000D02*
X500000D01*
X520000Y380000D02*
X540000D01*
X520000Y390000D02*
X540000D01*
X560000Y380000D02*
X580000D01*
X560000Y390000D02*
X580000D01*
X120000Y400000D02*
Y403250D01*
X121750Y405000*
X200000*
Y400000*
X140000D02*
X120000D01*
Y403250*
X121750Y405000*
X440000*
Y400000*
X120000D02*
Y403250D01*
X121750Y405000*
X280000*
X120000Y410000D02*
Y413250D01*
X121750Y415000*
X200000*
Y410000*
X140000D02*
X120000D01*
Y413250*
X121750Y415000*
X440000*
Y410000*
X120000D02*
Y413250D01*
X121750Y415000*
X280000*
X160000Y400000D02*
X180000D01*
X160000Y410000D02*
X180000D01*
X200000Y400000D02*
X220000D01*
X200000Y410000D02*
X220000D01*
X240000Y400000D02*
X260000D01*
X240000Y410000D02*
X260000D01*
X280000Y400000D02*
X300000D01*
X280000Y410000D02*
X300000D01*
X360000Y405000D02*
X280000D01*
Y400000*
X360000Y395000D02*
X280000D01*
Y390000*
X320000Y400000D02*
X340000D01*
X320000Y410000D02*
X340000D01*
X360000Y400000D02*
X380000D01*
X360000Y410000D02*
X380000D01*
X360000Y405000D02*
X518250D01*
X520000Y403250*
Y400000*
X360000Y405000D02*
Y400000D01*
Y395000D02*
X518250D01*
X520000Y393250*
Y390000*
X360000Y395000D02*
Y390000D01*
X400000Y400000D02*
X420000D01*
X400000Y410000D02*
X420000D01*
X439000D02*
X440000Y409000D01*
Y410000*
X439000D02*
X460000D01*
X440000Y400000D02*
X460000D01*
X480000D02*
X500000D01*
X480000Y410000D02*
X500000D01*
X520000Y400000D02*
X540000D01*
X520000Y410000D02*
X540000D01*
X560000Y400000D02*
X580000D01*
X560000Y410000D02*
X580000D01*
X120000Y420000D02*
Y423250D01*
X121750Y425000*
X200000*
Y420000*
X140000D02*
X120000D01*
Y423250*
X121750Y425000*
X440000*
Y420000*
X120000D02*
Y423250D01*
X121750Y425000*
X280000*
X120000Y430000D02*
Y433250D01*
X121750Y435000*
X200000*
Y430000*
X140000D02*
X120000D01*
Y433250*
X121750Y435000*
X440000*
Y430000*
X120000D02*
Y433250D01*
X121750Y435000*
X280000*
X160000Y420000D02*
X180000D01*
X160000Y430000D02*
X180000D01*
X200000Y420000D02*
X220000D01*
X200000Y430000D02*
X220000D01*
X240000Y420000D02*
X260000D01*
X240000Y430000D02*
X260000D01*
X280000Y420000D02*
X300000D01*
X280000Y430000D02*
X300000D01*
X360000Y425000D02*
X280000D01*
Y420000*
X360000Y415000D02*
X280000D01*
Y410000*
X320000Y420000D02*
X340000D01*
X320000Y430000D02*
X340000D01*
X360000Y420000D02*
X380000D01*
X360000Y430000D02*
X380000D01*
X360000Y425000D02*
X518250D01*
X520000Y423250*
Y420000*
X360000Y425000D02*
Y420000D01*
Y415000D02*
X518250D01*
X520000Y413250*
Y410000*
X360000Y415000D02*
Y410000D01*
X400000Y420000D02*
X420000D01*
X400000Y430000D02*
X420000D01*
X440000Y420000D02*
X460000D01*
X440000Y430000D02*
X460000D01*
X480000Y420000D02*
X500000D01*
X480000Y430000D02*
X500000D01*
X520000Y420000D02*
X540000D01*
X520000Y430000D02*
X540000D01*
X560000Y420000D02*
X580000D01*
X560000Y430000D02*
X580000D01*
X120000Y440000D02*
Y443250D01*
X121750Y445000*
X200000*
Y440000*
X140000D02*
X120000D01*
Y443250*
X121750Y445000*
X440000*
Y440000*
X120000D02*
Y443250D01*
X121750Y445000*
X280000*
X160000Y440000D02*
X180000D01*
X200000D02*
X220000D01*
X240000D02*
X260000D01*
X280000D02*
X300000D01*
X360000Y445000D02*
X280000D01*
Y440000*
X360000Y435000D02*
X280000D01*
Y430000*
X320000Y440000D02*
X340000D01*
X360000D02*
X380000D01*
X360000Y445000D02*
X518250D01*
X520000Y443250*
Y440000*
X360000Y445000D02*
Y440000D01*
Y435000D02*
X518250D01*
X520000Y433250*
Y430000*
X360000Y435000D02*
Y430000D01*
X400000Y440000D02*
X420000D01*
X440000D02*
X460000D01*
X480000D02*
X500000D01*
X520000D02*
X540000D01*
X560000D02*
X580000D01*
G54D28*
X634000Y175000D02*
X640625D01*
X645000Y179375*
X610600Y449600D02*
Y454625D01*
X614975Y459000*
X640625*
X645000Y454625*
Y179375*
G54D40*
X150000Y472200D03*
Y117900D03*
X230000Y472200D03*
Y117900D03*
X470000Y472200D03*
Y117900D03*
X550000Y472200D03*
Y117900D03*
X310000Y472200D03*
Y117900D03*
X390000Y472200D03*
Y117900D03*
G54D41*
X629900Y283000D03*
Y468500D03*
X0Y0D02*
M02*
