*
*
G04 PADS Layout (Build Number 2005.266.2) generated Gerber (RS-274-X) file*
G04 PC Version=2.1*
*
%IN "atlas_2.pcb"*%
*
%MOIN*%
*
%FSLAX35Y35*%
*
*
*
*
G04 PC Standard Apertures*
*
*
G04 Thermal Relief Aperture macro.*
%AMTER*
1,1,$1,0,0*
1,0,$1-$2,0,0*
21,0,$3,$4,0,0,45*
21,0,$3,$4,0,0,135*
%
*
*
G04 Annular Aperture macro.*
%AMANN*
1,1,$1,0,0*
1,0,$2,0,0*
%
*
*
G04 Odd Aperture macro.*
%AMODD*
1,1,$1,0,0*
1,0,$1-0.005,0,0*
%
*
*
G04 PC Custom Aperture Macros*
*
*
*
*
*
*
G04 PC Aperture Table*
*
%ADD011C,0.06*%
%ADD012C,0.084*%
%ADD015C,0.1*%
%ADD016C,0.124*%
%ADD019C,0.01*%
%ADD023C,0.045*%
%ADD026C,0.015*%
%ADD029C,0.02*%
*
*
*
*
G04 PC Copper Outlines (0)*
G04 Layer Name atlas_2.pcb - dark (0)*
%LPD*%
*
*
G04 PC Area=ANP001212*
G75*
G36*
G01*
X619300Y458344D02*
Y492500D01*
X101500D01*
Y443700D01*
X117102D01*
G02*
X122898I2898J-3700D01*
G01*
X137102D01*
G02*
X142898I2898J-3700D01*
G01*
X147102D01*
G02*
X152898I2898J-3700D01*
G01*
X157102D01*
G02*
X162898I2898J-3700D01*
G01*
X177102D01*
G02*
X182898I2898J-3700D01*
G01*
X197102D01*
G02*
X202898I2898J-3700D01*
G01*
X217102D01*
G02*
X222898I2898J-3700D01*
G01*
X227102D01*
G02*
X232898I2898J-3700D01*
G01*
X237102D01*
G02*
X242898I2898J-3700D01*
G01*
X257102D01*
G02*
X262898I2898J-3700D01*
G01*
X277102D01*
G02*
X282898I2898J-3700D01*
G01*
X297102D01*
G02*
X302898I2898J-3700D01*
G01*
X307102D01*
G02*
X312898I2898J-3700D01*
G01*
X317102D01*
G02*
X322898I2898J-3700D01*
G01*
X337102D01*
G02*
X342898I2898J-3700D01*
G01*
X357102D01*
G02*
X362898I2898J-3700D01*
G01*
X377102D01*
G02*
X382898I2898J-3700D01*
G01*
X387102D01*
G02*
X392898I2898J-3700D01*
G01*
X397102D01*
G02*
X402898I2898J-3700D01*
G01*
X417102D01*
G02*
X422898I2898J-3700D01*
G01*
X437102D01*
G02*
X442898I2898J-3700D01*
G01*
X457102D01*
G02*
X462898I2898J-3700D01*
G01*
X467102D01*
G02*
X472898I2898J-3700D01*
G01*
X477102D01*
G02*
X482898I2898J-3700D01*
G01*
X497102D01*
G02*
X502898I2898J-3700D01*
G01*
X517102D01*
G02*
X522898I2898J-3700D01*
G01*
X537102D01*
G02*
X542898I2898J-3700D01*
G01*
X547102D01*
G02*
X552898I2898J-3700D01*
G01*
X557102D01*
G02*
X562898I2898J-3700D01*
G01*
X577102D01*
G02*
X582898I2898J-3700D01*
G01*
X586500D01*
G02*
X588460Y442500I0J-2200D01*
G01*
X588583D01*
G02*
X589500Y442700I917J-2000D01*
G01*
X618300D01*
Y456500D01*
G02*
X619300Y458344I2200J0D01*
G37*
G74*
*
*
G04 PC Area=ANP001254*
G75*
G36*
G01*
X648500Y101500D02*
Y154500D01*
X638673D01*
G02*
X629327I-4673J500D01*
G01*
X621700D01*
G02*
X619500Y152300I-2200J0D01*
G01*
X584099D01*
G02*
X575901I-4099J-2300D01*
G01*
X564099D01*
G02*
X555901I-4099J-2300D01*
G01*
X554099D01*
G02*
X545901I-4099J-2300D01*
G01*
X544099D01*
G02*
X535901I-4099J-2300D01*
G01*
X524099D01*
G02*
X515901I-4099J-2300D01*
G01*
X504099D01*
G02*
X495901I-4099J-2300D01*
G01*
X484099D01*
G02*
X475901I-4099J-2300D01*
G01*
X474099D01*
G02*
X465901I-4099J-2300D01*
G01*
X464099D01*
G02*
X455901I-4099J-2300D01*
G01*
X444099D01*
G02*
X435901I-4099J-2300D01*
G01*
X424099D01*
G02*
X415901I-4099J-2300D01*
G01*
X404099D01*
G02*
X395901I-4099J-2300D01*
G01*
X394099D01*
G02*
X385901I-4099J-2300D01*
G01*
X384099D01*
G02*
X375901I-4099J-2300D01*
G01*
X364099D01*
G02*
X355901I-4099J-2300D01*
G01*
X344099D01*
G02*
X335901I-4099J-2300D01*
G01*
X324099D01*
G02*
X315901I-4099J-2300D01*
G01*
X314099D01*
G02*
X305901I-4099J-2300D01*
G01*
X304099D01*
G02*
X295901I-4099J-2300D01*
G01*
X284099D01*
G02*
X275901I-4099J-2300D01*
G01*
X264099D01*
G02*
X255901I-4099J-2300D01*
G01*
X244099D01*
G02*
X235901I-4099J-2300D01*
G01*
X234099D01*
G02*
X225901I-4099J-2300D01*
G01*
X224099D01*
G02*
X215901I-4099J-2300D01*
G01*
X204099D01*
G02*
X195901I-4099J-2300D01*
G01*
X184099D01*
G02*
X175901I-4099J-2300D01*
G01*
X164099D01*
G02*
X155901I-4099J-2300D01*
G01*
X154099D01*
G02*
X145901I-4099J-2300D01*
G01*
X144099D01*
G02*
X135901I-4099J-2300D01*
G01*
X124099D01*
G02*
X115901I-4099J-2300D01*
G01*
X101500D01*
Y101500D01*
X648500D01*
G37*
G74*
*
*
G04 PC Area=ANP001318*
G75*
G36*
G01*
X619300Y156700D02*
Y174500D01*
X601460D01*
G02*
X599500Y173300I-1960J1000D01*
G01*
X583347D01*
G02*
X576653I-3347J-3300D01*
G01*
X563347D01*
G02*
X556653I-3347J-3300D01*
G01*
X553347D01*
G02*
X546653I-3347J-3300D01*
G01*
X543347D01*
G02*
X536653I-3347J-3300D01*
G01*
X523347D01*
G02*
X516653I-3347J-3300D01*
G01*
X503347D01*
G02*
X496653I-3347J-3300D01*
G01*
X483347D01*
G02*
X476653I-3347J-3300D01*
G01*
X473347D01*
G02*
X466653I-3347J-3300D01*
G01*
X463347D01*
G02*
X456653I-3347J-3300D01*
G01*
X443347D01*
G02*
X436653I-3347J-3300D01*
G01*
X423347D01*
G02*
X416653I-3347J-3300D01*
G01*
X403347D01*
G02*
X396653I-3347J-3300D01*
G01*
X393347D01*
G02*
X386653I-3347J-3300D01*
G01*
X383347D01*
G02*
X376653I-3347J-3300D01*
G01*
X363347D01*
G02*
X356653I-3347J-3300D01*
G01*
X343347D01*
G02*
X336653I-3347J-3300D01*
G01*
X323347D01*
G02*
X316653I-3347J-3300D01*
G01*
X313347D01*
G02*
X306653I-3347J-3300D01*
G01*
X303347D01*
G02*
X296653I-3347J-3300D01*
G01*
X283347D01*
G02*
X276653I-3347J-3300D01*
G01*
X263347D01*
G02*
X256653I-3347J-3300D01*
G01*
X243347D01*
G02*
X236653I-3347J-3300D01*
G01*
X233347D01*
G02*
X226653I-3347J-3300D01*
G01*
X223347D01*
G02*
X216653I-3347J-3300D01*
G01*
X203347D01*
G02*
X196653I-3347J-3300D01*
G01*
X183347D01*
G02*
X176653I-3347J-3300D01*
G01*
X163347D01*
G02*
X156653I-3347J-3300D01*
G01*
X153347D01*
G02*
X146653I-3347J-3300D01*
G01*
X143347D01*
G02*
X136653I-3347J-3300D01*
G01*
X123347D01*
G02*
X116653I-3347J-3300D01*
G01*
X101500D01*
Y156700D01*
X136653D01*
G02*
X143347I3347J3300D01*
G01*
X146653D01*
G02*
X153347I3347J3300D01*
G01*
X156653D01*
G02*
X163347I3347J3300D01*
G01*
X216653D01*
G02*
X223347I3347J3300D01*
G01*
X226653D01*
G02*
X233347I3347J3300D01*
G01*
X236653D01*
G02*
X243347I3347J3300D01*
G01*
X296653D01*
G02*
X303347I3347J3300D01*
G01*
X306653D01*
G02*
X313347I3347J3300D01*
G01*
X316653D01*
G02*
X323347I3347J3300D01*
G01*
X376653D01*
G02*
X383347I3347J3300D01*
G01*
X386653D01*
G02*
X393347I3347J3300D01*
G01*
X396653D01*
G02*
X403347I3347J3300D01*
G01*
X456653D01*
G02*
X463347I3347J3300D01*
G01*
X466653D01*
G02*
X473347I3347J3300D01*
G01*
X476653D01*
G02*
X483347I3347J3300D01*
G01*
X536653D01*
G02*
X543347I3347J3300D01*
G01*
X546653D01*
G02*
X553347I3347J3300D01*
G01*
X556653D01*
G02*
X563347I3347J3300D01*
G01*
X619300D01*
G37*
G74*
*
*
G04 PC Area=ANP001349*
G75*
G36*
G01*
X599300Y176700D02*
Y194300D01*
X591500D01*
G02*
X591347Y194305I0J2200D01*
X589500Y193300I-1847J1195D01*
G01*
X583347D01*
G02*
X576653I-3347J-3300D01*
G01*
X563347D01*
G02*
X556653I-3347J-3300D01*
G01*
X553347D01*
G02*
X546653I-3347J-3300D01*
G01*
X543347D01*
G02*
X536653I-3347J-3300D01*
G01*
X523347D01*
G02*
X516653I-3347J-3300D01*
G01*
X503347D01*
G02*
X496653I-3347J-3300D01*
G01*
X483347D01*
G02*
X476653I-3347J-3300D01*
G01*
X473347D01*
G02*
X466653I-3347J-3300D01*
G01*
X463347D01*
G02*
X456653I-3347J-3300D01*
G01*
X443347D01*
G02*
X436653I-3347J-3300D01*
G01*
X423347D01*
G02*
X416653I-3347J-3300D01*
G01*
X403347D01*
G02*
X396653I-3347J-3300D01*
G01*
X393347D01*
G02*
X386653I-3347J-3300D01*
G01*
X383347D01*
G02*
X376653I-3347J-3300D01*
G01*
X363347D01*
G02*
X356653I-3347J-3300D01*
G01*
X343347D01*
G02*
X336653I-3347J-3300D01*
G01*
X323347D01*
G02*
X316653I-3347J-3300D01*
G01*
X313347D01*
G02*
X306653I-3347J-3300D01*
G01*
X303347D01*
G02*
X296653I-3347J-3300D01*
G01*
X283347D01*
G02*
X276653I-3347J-3300D01*
G01*
X263347D01*
G02*
X256653I-3347J-3300D01*
G01*
X243347D01*
G02*
X236653I-3347J-3300D01*
G01*
X233347D01*
G02*
X226653I-3347J-3300D01*
G01*
X223347D01*
G02*
X216653I-3347J-3300D01*
G01*
X203347D01*
G02*
X196653I-3347J-3300D01*
G01*
X183347D01*
G02*
X176653I-3347J-3300D01*
G01*
X163347D01*
G02*
X156653I-3347J-3300D01*
G01*
X153347D01*
G02*
X146653I-3347J-3300D01*
G01*
X143347D01*
G02*
X136653I-3347J-3300D01*
G01*
X123347D01*
G02*
X116653I-3347J-3300D01*
G01*
X101500D01*
Y176700D01*
X136653D01*
G02*
X143347I3347J3300D01*
G01*
X146653D01*
G02*
X153347I3347J3300D01*
G01*
X156653D01*
G02*
X163347I3347J3300D01*
G01*
X216653D01*
G02*
X223347I3347J3300D01*
G01*
X226653D01*
G02*
X233347I3347J3300D01*
G01*
X236653D01*
G02*
X243347I3347J3300D01*
G01*
X296653D01*
G02*
X303347I3347J3300D01*
G01*
X306653D01*
G02*
X313347I3347J3300D01*
G01*
X316653D01*
G02*
X323347I3347J3300D01*
G01*
X376653D01*
G02*
X383347I3347J3300D01*
G01*
X386653D01*
G02*
X393347I3347J3300D01*
G01*
X396653D01*
G02*
X403347I3347J3300D01*
G01*
X456653D01*
G02*
X463347I3347J3300D01*
G01*
X466653D01*
G02*
X473347I3347J3300D01*
G01*
X476653D01*
G02*
X483347I3347J3300D01*
G01*
X536653D01*
G02*
X543347I3347J3300D01*
G01*
X546653D01*
G02*
X553347I3347J3300D01*
G01*
X556653D01*
G02*
X563347I3347J3300D01*
G01*
X599300D01*
G37*
G74*
*
*
G04 PC Area=ANP001382*
G75*
G36*
G01*
X589300Y196700D02*
Y214500D01*
X588460D01*
G02*
X586500Y213300I-1960J1000D01*
G01*
X583347D01*
G02*
X576653I-3347J-3300D01*
G01*
X563347D01*
G02*
X556653I-3347J-3300D01*
G01*
X553347D01*
G02*
X546653I-3347J-3300D01*
G01*
X543347D01*
G02*
X536653I-3347J-3300D01*
G01*
X523347D01*
G02*
X516653I-3347J-3300D01*
G01*
X503347D01*
G02*
X496653I-3347J-3300D01*
G01*
X483347D01*
G02*
X476653I-3347J-3300D01*
G01*
X473347D01*
G02*
X466653I-3347J-3300D01*
G01*
X463347D01*
G02*
X456653I-3347J-3300D01*
G01*
X443347D01*
G02*
X436653I-3347J-3300D01*
G01*
X423347D01*
G02*
X416653I-3347J-3300D01*
G01*
X403347D01*
G02*
X396653I-3347J-3300D01*
G01*
X393347D01*
G02*
X386653I-3347J-3300D01*
G01*
X383347D01*
G02*
X376653I-3347J-3300D01*
G01*
X363347D01*
G02*
X356653I-3347J-3300D01*
G01*
X343347D01*
G02*
X336653I-3347J-3300D01*
G01*
X323347D01*
G02*
X316653I-3347J-3300D01*
G01*
X313347D01*
G02*
X306653I-3347J-3300D01*
G01*
X303347D01*
G02*
X296653I-3347J-3300D01*
G01*
X283347D01*
G02*
X276653I-3347J-3300D01*
G01*
X263347D01*
G02*
X256653I-3347J-3300D01*
G01*
X243347D01*
G02*
X236653I-3347J-3300D01*
G01*
X233347D01*
G02*
X226653I-3347J-3300D01*
G01*
X223347D01*
G02*
X216653I-3347J-3300D01*
G01*
X203347D01*
G02*
X196653I-3347J-3300D01*
G01*
X183347D01*
G02*
X176653I-3347J-3300D01*
G01*
X163347D01*
G02*
X156653I-3347J-3300D01*
G01*
X153347D01*
G02*
X146653I-3347J-3300D01*
G01*
X143347D01*
G02*
X136653I-3347J-3300D01*
G01*
X123347D01*
G02*
X116653I-3347J-3300D01*
G01*
X101500D01*
Y196700D01*
X136653D01*
G02*
X143347I3347J3300D01*
G01*
X146653D01*
G02*
X153347I3347J3300D01*
G01*
X156653D01*
G02*
X163347I3347J3300D01*
G01*
X216653D01*
G02*
X223347I3347J3300D01*
G01*
X226653D01*
G02*
X233347I3347J3300D01*
G01*
X236653D01*
G02*
X243347I3347J3300D01*
G01*
X296653D01*
G02*
X303347I3347J3300D01*
G01*
X306653D01*
G02*
X313347I3347J3300D01*
G01*
X316653D01*
G02*
X323347I3347J3300D01*
G01*
X376653D01*
G02*
X383347I3347J3300D01*
G01*
X386653D01*
G02*
X393347I3347J3300D01*
G01*
X396653D01*
G02*
X403347I3347J3300D01*
G01*
X456653D01*
G02*
X463347I3347J3300D01*
G01*
X466653D01*
G02*
X473347I3347J3300D01*
G01*
X476653D01*
G02*
X483347I3347J3300D01*
G01*
X536653D01*
G02*
X543347I3347J3300D01*
G01*
X546653D01*
G02*
X553347I3347J3300D01*
G01*
X556653D01*
G02*
X563347I3347J3300D01*
G01*
X589300D01*
G37*
G74*
*
*
G04 PC Area=ANP001413*
G75*
G36*
G01*
X586500Y216700D02*
Y440300D01*
X584690D01*
G02*
X575310I-4690J-300D01*
G01*
X564690D01*
G02*
X555310I-4690J-300D01*
G01*
X554690D01*
G02*
X545310I-4690J-300D01*
G01*
X544690D01*
G02*
X535310I-4690J-300D01*
G01*
X524690D01*
G02*
X515310I-4690J-300D01*
G01*
X504690D01*
G02*
X495310I-4690J-300D01*
G01*
X484690D01*
G02*
X475310I-4690J-300D01*
G01*
X474690D01*
G02*
X465310I-4690J-300D01*
G01*
X464690D01*
G02*
X455310I-4690J-300D01*
G01*
X444690D01*
G02*
X435310I-4690J-300D01*
G01*
X424690D01*
G02*
X415310I-4690J-300D01*
G01*
X404690D01*
G02*
X395310I-4690J-300D01*
G01*
X394690D01*
G02*
X385310I-4690J-300D01*
G01*
X384690D01*
G02*
X375310I-4690J-300D01*
G01*
X364690D01*
G02*
X355310I-4690J-300D01*
G01*
X344690D01*
G02*
X335310I-4690J-300D01*
G01*
X324690D01*
G02*
X315310I-4690J-300D01*
G01*
X314690D01*
G02*
X305310I-4690J-300D01*
G01*
X304690D01*
G02*
X295310I-4690J-300D01*
G01*
X284690D01*
G02*
X275310I-4690J-300D01*
G01*
X264690D01*
G02*
X255310I-4690J-300D01*
G01*
X244690D01*
G02*
X235310I-4690J-300D01*
G01*
X234690D01*
G02*
X225310I-4690J-300D01*
G01*
X224690D01*
G02*
X215310I-4690J-300D01*
G01*
X204690D01*
G02*
X195310I-4690J-300D01*
G01*
X184690D01*
G02*
X175310I-4690J-300D01*
G01*
X164690D01*
G02*
X155310I-4690J-300D01*
G01*
X154690D01*
G02*
X145310I-4690J-300D01*
G01*
X144690D01*
G02*
X135310I-4690J-300D01*
G01*
X124690D01*
G02*
X115310I-4690J-300D01*
G01*
X101500D01*
Y216700D01*
X116653D01*
G02*
X123347I3347J3300D01*
G01*
X136653D01*
G02*
X143347I3347J3300D01*
G01*
X146653D01*
G02*
X153347I3347J3300D01*
G01*
X156653D01*
G02*
X163347I3347J3300D01*
G01*
X176653D01*
G02*
X183347I3347J3300D01*
G01*
X196653D01*
G02*
X203347I3347J3300D01*
G01*
X216653D01*
G02*
X223347I3347J3300D01*
G01*
X226653D01*
G02*
X233347I3347J3300D01*
G01*
X236653D01*
G02*
X243347I3347J3300D01*
G01*
X256653D01*
G02*
X263347I3347J3300D01*
G01*
X276653D01*
G02*
X283347I3347J3300D01*
G01*
X296653D01*
G02*
X303347I3347J3300D01*
G01*
X306653D01*
G02*
X313347I3347J3300D01*
G01*
X316653D01*
G02*
X323347I3347J3300D01*
G01*
X336653D01*
G02*
X343347I3347J3300D01*
G01*
X356653D01*
G02*
X363347I3347J3300D01*
G01*
X376653D01*
G02*
X383347I3347J3300D01*
G01*
X386653D01*
G02*
X393347I3347J3300D01*
G01*
X396653D01*
G02*
X403347I3347J3300D01*
G01*
X416653D01*
G02*
X423347I3347J3300D01*
G01*
X436653D01*
G02*
X443347I3347J3300D01*
G01*
X456653D01*
G02*
X463347I3347J3300D01*
G01*
X466653D01*
G02*
X473347I3347J3300D01*
G01*
X476653D01*
G02*
X483347I3347J3300D01*
G01*
X496653D01*
G02*
X503347I3347J3300D01*
G01*
X516653D01*
G02*
X523347I3347J3300D01*
G01*
X536653D01*
G02*
X543347I3347J3300D01*
G01*
X546653D01*
G02*
X553347I3347J3300D01*
G01*
X556653D01*
G02*
X563347I3347J3300D01*
G01*
X576653D01*
G02*
X583347I3347J3300D01*
G01*
X586500D01*
G37*
G74*
*
*
G04 PC Area=ANP002182*
G75*
G36*
G01*
X648500Y154500D02*
Y456500D01*
X633325D01*
G02*
X630075I-1625J-6500D01*
G01*
X621700D01*
Y442500D01*
G02*
X620500Y440540I-2200J0D01*
G01*
Y440500D01*
X620417D01*
G02*
X619500Y440300I-917J2000D01*
G01*
X589500D01*
Y325500D01*
X590583D01*
G02*
X591500Y325700I917J-2000D01*
G01*
X621500D01*
G02*
X622417Y325500I0J-2200D01*
G01*
X622500D01*
Y325460D01*
G02*
X623700Y323500I-1000J-1960D01*
G01*
Y310700D01*
X638500D01*
G02*
X639417Y310500I0J-2200D01*
G01*
X640500D01*
Y309417D01*
G02*
X640700Y308500I-2000J-917D01*
G01*
Y294500D01*
G02*
X640500Y293583I-2200J0D01*
G01*
Y174500D01*
X638673D01*
G02*
X629327I-4673J500D01*
G01*
X621700D01*
Y171500D01*
Y154500D01*
X629327D01*
G02*
X638673I4673J500D01*
G01*
X648500D01*
G37*
G74*
*
*
G04 PC Area=ANP002204*
G75*
G36*
G01*
X638300Y302653D02*
Y308300D01*
X622500D01*
G02*
X621583Y308500I0J2200D01*
G01*
X621500D01*
Y308540D01*
G02*
X620300Y310500I1000J1960D01*
G01*
Y323300D01*
X614099D01*
G02*
X605901I-4099J-5300D01*
G01*
X591500D01*
Y215417D01*
G02*
X591700Y214500I-2000J-917D01*
G01*
Y196700D01*
X598829D01*
G02*
X601500Y196082I2171J3300D01*
G01*
Y195417D01*
G02*
X601700Y194500I-2000J-917D01*
G01*
Y175500D01*
G02*
X601500Y174583I-2200J0D01*
G01*
Y174500D01*
X618500D01*
Y181327D01*
G02*
Y190673I-500J4673D01*
G01*
Y211327D01*
G02*
Y220673I-500J4673D01*
G01*
Y237327D01*
G02*
Y246673I-500J4673D01*
G01*
Y252327D01*
G02*
Y261673I-500J4673D01*
G01*
Y268327D01*
G02*
Y277673I-500J4673D01*
G01*
Y294500D01*
X621583D01*
G02*
X622500Y294700I917J-2000D01*
G01*
X638300D01*
Y300347D01*
G02*
Y302653I-6600J1153D01*
G37*
G74*
*
*
G04 PC Area=ANP002224*
G75*
G36*
G01*
X619500Y175417D02*
Y176500D01*
X611831D01*
G02*
X608169I-1831J3500D01*
G01*
X601700D01*
Y175500D01*
G02*
X601500Y174583I-2200J0D01*
G01*
Y171500D01*
X619300D01*
Y174500D01*
G02*
X619500Y175417I2200J0D01*
G37*
G74*
*
*
G04 PC Area=ANP002222*
G75*
G36*
G01*
X619500Y190454D02*
Y211546D01*
G02*
X617500Y211327I-1500J4454D01*
G01*
Y190673D01*
G02*
X619500Y190454I500J-4673D01*
G37*
G74*
*
*
G04 PC Area=ANP002221*
G75*
G36*
G01*
X619500Y220454D02*
Y237546D01*
G02*
X617500Y237327I-1500J4454D01*
G01*
Y220673D01*
G02*
X619500Y220454I500J-4673D01*
G37*
G74*
*
*
G04 PC Area=ANP002220*
G75*
G36*
G01*
X619500Y246454D02*
Y252546D01*
G02*
X617500Y252327I-1500J4454D01*
G01*
Y246673D01*
G02*
X619500Y246454I500J-4673D01*
G37*
G74*
*
*
G04 PC Area=ANP002219*
G75*
G36*
G01*
X619500Y261454D02*
Y268546D01*
G02*
X617500Y268327I-1500J4454D01*
G01*
Y261673D01*
G02*
X619500Y261454I500J-4673D01*
G37*
G74*
*
*
G04 PC Area=ANP002218*
G75*
G36*
G01*
X619500Y277454D02*
Y295500D01*
X617500D01*
Y277673D01*
G02*
X619500Y277454I500J-4673D01*
G37*
G74*
*
*
G04 PC Area=ANP002223*
G75*
G36*
G01*
X619500Y175500D02*
Y181546D01*
G02*
X617500Y181327I-1500J4454D01*
G01*
Y175500D01*
X619500D01*
G37*
G74*
*
*
G04 PC Area=ANP002214*
G75*
G36*
G01*
X648500Y441500D02*
Y492500D01*
X621700D01*
Y442500D01*
G02*
X621500Y441583I-2200J0D01*
G01*
Y441500D01*
X648500D01*
G37*
G74*
*
*
G04 PC Void Outlines (0)*
G04 Layer Name atlas_2.pcb - clear (0)*
%LPC*%
*
*
G04 PC Area=ANP001212*
G75*
G36*
G01*
X610600Y442900D02*
G03*
X610600I0J6700D01*
G37*
G74*
*
G75*
G36*
G01*
X595000Y455300D02*
G03*
X595000I0J4700D01*
G37*
G74*
*
G75*
G36*
G01*
X600000Y468800D02*
G03*
X600000I0J11200D01*
G37*
G74*
*
G75*
G36*
G01*
X550000Y462050D02*
G03*
X550000I0J7950D01*
G37*
G74*
*
G75*
G36*
G01*
X470000D02*
G03*
X470000I0J7950D01*
G37*
G74*
*
G75*
G36*
G01*
X390000D02*
G03*
X390000I0J7950D01*
G37*
G74*
*
G75*
G36*
G01*
X310000D02*
G03*
X310000I0J7950D01*
G37*
G74*
*
G75*
G36*
G01*
X230000D02*
G03*
X230000I0J7950D01*
G37*
G74*
*
G75*
G36*
G01*
X150000D02*
G03*
X150000I0J7950D01*
G37*
G74*
*
G75*
G36*
G01*
X115000Y468800D02*
G03*
X115000I0J11200D01*
G37*
G74*
*
*
G04 PC Area=ANP001254*
G75*
G36*
G01*
X634000Y120300D02*
G03*
X634000I0J4700D01*
G37*
G74*
*
G75*
G36*
G01*
Y140300D02*
G03*
X634000I0J4700D01*
G37*
G74*
*
G75*
G36*
G01*
X622000Y116300D02*
G03*
X622000I0J4700D01*
G37*
G74*
*
G75*
G36*
G01*
Y128250D02*
G03*
X622000I0J6750D01*
G37*
G74*
*
G75*
G36*
G01*
X600000Y103800D02*
G03*
X600000I0J11200D01*
G37*
G74*
*
G75*
G36*
G01*
X602000Y127800D02*
G03*
X602000I0J7200D01*
G37*
G74*
*
G75*
G36*
G01*
X550000Y112050D02*
G03*
X550000I0J7950D01*
G37*
G74*
*
G75*
G36*
G01*
X560000Y135300D02*
G03*
X560000I0J4700D01*
G37*
G74*
*
G75*
G36*
G01*
X550000D02*
G03*
X550000I0J4700D01*
G37*
G74*
*
G75*
G36*
G01*
X540000D02*
G03*
X540000I0J4700D01*
G37*
G74*
*
G75*
G36*
G01*
X470000Y112050D02*
G03*
X470000I0J7950D01*
G37*
G74*
*
G75*
G36*
G01*
X480000Y135300D02*
G03*
X480000I0J4700D01*
G37*
G74*
*
G75*
G36*
G01*
X470000D02*
G03*
X470000I0J4700D01*
G37*
G74*
*
G75*
G36*
G01*
X460000D02*
G03*
X460000I0J4700D01*
G37*
G74*
*
G75*
G36*
G01*
X390000Y112050D02*
G03*
X390000I0J7950D01*
G37*
G74*
*
G75*
G36*
G01*
X400000Y135300D02*
G03*
X400000I0J4700D01*
G37*
G74*
*
G75*
G36*
G01*
X390000D02*
G03*
X390000I0J4700D01*
G37*
G74*
*
G75*
G36*
G01*
X380000D02*
G03*
X380000I0J4700D01*
G37*
G74*
*
G75*
G36*
G01*
X310000Y112050D02*
G03*
X310000I0J7950D01*
G37*
G74*
*
G75*
G36*
G01*
X320000Y135300D02*
G03*
X320000I0J4700D01*
G37*
G74*
*
G75*
G36*
G01*
X310000D02*
G03*
X310000I0J4700D01*
G37*
G74*
*
G75*
G36*
G01*
X300000D02*
G03*
X300000I0J4700D01*
G37*
G74*
*
G75*
G36*
G01*
X230000Y112050D02*
G03*
X230000I0J7950D01*
G37*
G74*
*
G75*
G36*
G01*
X240000Y135300D02*
G03*
X240000I0J4700D01*
G37*
G74*
*
G75*
G36*
G01*
X230000D02*
G03*
X230000I0J4700D01*
G37*
G74*
*
G75*
G36*
G01*
X220000D02*
G03*
X220000I0J4700D01*
G37*
G74*
*
G75*
G36*
G01*
X150000Y112050D02*
G03*
X150000I0J7950D01*
G37*
G74*
*
G75*
G36*
G01*
X160000Y135300D02*
G03*
X160000I0J4700D01*
G37*
G74*
*
G75*
G36*
G01*
X150000D02*
G03*
X150000I0J4700D01*
G37*
G74*
*
G75*
G36*
G01*
X140000D02*
G03*
X140000I0J4700D01*
G37*
G74*
*
G75*
G36*
G01*
X115000Y103800D02*
G03*
X115000I0J11200D01*
G37*
G74*
*
*
G04 PC Area=ANP001349*
G75*
G36*
G01*
X595000Y182050D02*
G03*
X595000I0J3950D01*
G37*
G74*
*
*
G04 PC Area=ANP001413*
G75*
G36*
G01*
X580000Y225300D02*
G03*
X580000I0J4700D01*
G37*
G74*
*
G75*
G36*
G01*
Y235300D02*
G03*
X580000I0J4700D01*
G37*
G74*
*
G75*
G36*
G01*
Y245300D02*
G03*
X580000I0J4700D01*
G37*
G74*
*
G75*
G36*
G01*
Y255300D02*
G03*
X580000I0J4700D01*
G37*
G74*
*
G75*
G36*
G01*
Y265300D02*
G03*
X580000I0J4700D01*
G37*
G74*
*
G75*
G36*
G01*
Y275300D02*
G03*
X580000I0J4700D01*
G37*
G74*
*
G75*
G36*
G01*
Y285300D02*
G03*
X580000I0J4700D01*
G37*
G74*
*
G75*
G36*
G01*
Y295300D02*
G03*
X580000I0J4700D01*
G37*
G74*
*
G75*
G36*
G01*
Y305300D02*
G03*
X580000I0J4700D01*
G37*
G74*
*
G75*
G36*
G01*
Y315300D02*
G03*
X580000I0J4700D01*
G37*
G74*
*
G75*
G36*
G01*
Y325300D02*
G03*
X580000I0J4700D01*
G37*
G74*
*
G75*
G36*
G01*
Y335300D02*
G03*
X580000I0J4700D01*
G37*
G74*
*
G75*
G36*
G01*
Y345300D02*
G03*
X580000I0J4700D01*
G37*
G74*
*
G75*
G36*
G01*
Y355300D02*
G03*
X580000I0J4700D01*
G37*
G74*
*
G75*
G36*
G01*
Y365300D02*
G03*
X580000I0J4700D01*
G37*
G74*
*
G75*
G36*
G01*
Y375300D02*
G03*
X580000I0J4700D01*
G37*
G74*
*
G75*
G36*
G01*
Y385300D02*
G03*
X580000I0J4700D01*
G37*
G74*
*
G75*
G36*
G01*
Y395300D02*
G03*
X580000I0J4700D01*
G37*
G74*
*
G75*
G36*
G01*
Y405300D02*
G03*
X580000I0J4700D01*
G37*
G74*
*
G75*
G36*
G01*
Y415300D02*
G03*
X580000I0J4700D01*
G37*
G74*
*
G75*
G36*
G01*
Y425300D02*
G03*
X580000I0J4700D01*
G37*
G74*
*
G75*
G36*
G01*
X560000Y225300D02*
G03*
X560000I0J4700D01*
G37*
G74*
*
G75*
G36*
G01*
Y235300D02*
G03*
X560000I0J4700D01*
G37*
G74*
*
G75*
G36*
G01*
Y245300D02*
G03*
X560000I0J4700D01*
G37*
G74*
*
G75*
G36*
G01*
Y255300D02*
G03*
X560000I0J4700D01*
G37*
G74*
*
G75*
G36*
G01*
Y265300D02*
G03*
X560000I0J4700D01*
G37*
G74*
*
G75*
G36*
G01*
Y275300D02*
G03*
X560000I0J4700D01*
G37*
G74*
*
G75*
G36*
G01*
Y285300D02*
G03*
X560000I0J4700D01*
G37*
G74*
*
G75*
G36*
G01*
Y295300D02*
G03*
X560000I0J4700D01*
G37*
G74*
*
G75*
G36*
G01*
Y305300D02*
G03*
X560000I0J4700D01*
G37*
G74*
*
G75*
G36*
G01*
Y315300D02*
G03*
X560000I0J4700D01*
G37*
G74*
*
G75*
G36*
G01*
Y325300D02*
G03*
X560000I0J4700D01*
G37*
G74*
*
G75*
G36*
G01*
Y335300D02*
G03*
X560000I0J4700D01*
G37*
G74*
*
G75*
G36*
G01*
Y345300D02*
G03*
X560000I0J4700D01*
G37*
G74*
*
G75*
G36*
G01*
Y355300D02*
G03*
X560000I0J4700D01*
G37*
G74*
*
G75*
G36*
G01*
Y365300D02*
G03*
X560000I0J4700D01*
G37*
G74*
*
G75*
G36*
G01*
Y375300D02*
G03*
X560000I0J4700D01*
G37*
G74*
*
G75*
G36*
G01*
Y385300D02*
G03*
X560000I0J4700D01*
G37*
G74*
*
G75*
G36*
G01*
Y395300D02*
G03*
X560000I0J4700D01*
G37*
G74*
*
G75*
G36*
G01*
Y405300D02*
G03*
X560000I0J4700D01*
G37*
G74*
*
G75*
G36*
G01*
Y415300D02*
G03*
X560000I0J4700D01*
G37*
G74*
*
G75*
G36*
G01*
Y425300D02*
G03*
X560000I0J4700D01*
G37*
G74*
*
G75*
G36*
G01*
X550000Y225300D02*
G03*
X550000I0J4700D01*
G37*
G74*
*
G75*
G36*
G01*
Y235300D02*
G03*
X550000I0J4700D01*
G37*
G74*
*
G75*
G36*
G01*
Y245300D02*
G03*
X550000I0J4700D01*
G37*
G74*
*
G75*
G36*
G01*
Y255300D02*
G03*
X550000I0J4700D01*
G37*
G74*
*
G75*
G36*
G01*
Y265300D02*
G03*
X550000I0J4700D01*
G37*
G74*
*
G75*
G36*
G01*
Y275300D02*
G03*
X550000I0J4700D01*
G37*
G74*
*
G75*
G36*
G01*
Y285300D02*
G03*
X550000I0J4700D01*
G37*
G74*
*
G75*
G36*
G01*
Y295300D02*
G03*
X550000I0J4700D01*
G37*
G74*
*
G75*
G36*
G01*
Y305300D02*
G03*
X550000I0J4700D01*
G37*
G74*
*
G75*
G36*
G01*
Y315300D02*
G03*
X550000I0J4700D01*
G37*
G74*
*
G75*
G36*
G01*
Y325300D02*
G03*
X550000I0J4700D01*
G37*
G74*
*
G75*
G36*
G01*
Y335300D02*
G03*
X550000I0J4700D01*
G37*
G74*
*
G75*
G36*
G01*
Y345300D02*
G03*
X550000I0J4700D01*
G37*
G74*
*
G75*
G36*
G01*
Y355300D02*
G03*
X550000I0J4700D01*
G37*
G74*
*
G75*
G36*
G01*
Y365300D02*
G03*
X550000I0J4700D01*
G37*
G74*
*
G75*
G36*
G01*
Y375300D02*
G03*
X550000I0J4700D01*
G37*
G74*
*
G75*
G36*
G01*
Y385300D02*
G03*
X550000I0J4700D01*
G37*
G74*
*
G75*
G36*
G01*
Y395300D02*
G03*
X550000I0J4700D01*
G37*
G74*
*
G75*
G36*
G01*
Y405300D02*
G03*
X550000I0J4700D01*
G37*
G74*
*
G75*
G36*
G01*
Y415300D02*
G03*
X550000I0J4700D01*
G37*
G74*
*
G75*
G36*
G01*
Y425300D02*
G03*
X550000I0J4700D01*
G37*
G74*
*
G75*
G36*
G01*
X540000Y225300D02*
G03*
X540000I0J4700D01*
G37*
G74*
*
G75*
G36*
G01*
Y235300D02*
G03*
X540000I0J4700D01*
G37*
G74*
*
G75*
G36*
G01*
Y245300D02*
G03*
X540000I0J4700D01*
G37*
G74*
*
G75*
G36*
G01*
Y255300D02*
G03*
X540000I0J4700D01*
G37*
G74*
*
G75*
G36*
G01*
Y265300D02*
G03*
X540000I0J4700D01*
G37*
G74*
*
G75*
G36*
G01*
Y275300D02*
G03*
X540000I0J4700D01*
G37*
G74*
*
G75*
G36*
G01*
Y285300D02*
G03*
X540000I0J4700D01*
G37*
G74*
*
G75*
G36*
G01*
Y295300D02*
G03*
X540000I0J4700D01*
G37*
G74*
*
G75*
G36*
G01*
Y305300D02*
G03*
X540000I0J4700D01*
G37*
G74*
*
G75*
G36*
G01*
Y315300D02*
G03*
X540000I0J4700D01*
G37*
G74*
*
G75*
G36*
G01*
Y325300D02*
G03*
X540000I0J4700D01*
G37*
G74*
*
G75*
G36*
G01*
Y335300D02*
G03*
X540000I0J4700D01*
G37*
G74*
*
G75*
G36*
G01*
Y345300D02*
G03*
X540000I0J4700D01*
G37*
G74*
*
G75*
G36*
G01*
Y355300D02*
G03*
X540000I0J4700D01*
G37*
G74*
*
G75*
G36*
G01*
Y365300D02*
G03*
X540000I0J4700D01*
G37*
G74*
*
G75*
G36*
G01*
Y375300D02*
G03*
X540000I0J4700D01*
G37*
G74*
*
G75*
G36*
G01*
Y385300D02*
G03*
X540000I0J4700D01*
G37*
G74*
*
G75*
G36*
G01*
Y395300D02*
G03*
X540000I0J4700D01*
G37*
G74*
*
G75*
G36*
G01*
Y405300D02*
G03*
X540000I0J4700D01*
G37*
G74*
*
G75*
G36*
G01*
Y415300D02*
G03*
X540000I0J4700D01*
G37*
G74*
*
G75*
G36*
G01*
Y425300D02*
G03*
X540000I0J4700D01*
G37*
G74*
*
G75*
G36*
G01*
X520000Y225300D02*
G03*
X520000I0J4700D01*
G37*
G74*
*
G75*
G36*
G01*
Y235300D02*
G03*
X520000I0J4700D01*
G37*
G74*
*
G75*
G36*
G01*
Y245300D02*
G03*
X520000I0J4700D01*
G37*
G74*
*
G75*
G36*
G01*
Y255300D02*
G03*
X520000I0J4700D01*
G37*
G74*
*
G75*
G36*
G01*
Y265300D02*
G03*
X520000I0J4700D01*
G37*
G74*
*
G75*
G36*
G01*
Y275300D02*
G03*
X520000I0J4700D01*
G37*
G74*
*
G75*
G36*
G01*
Y285300D02*
G03*
X520000I0J4700D01*
G37*
G74*
*
G75*
G36*
G01*
Y295300D02*
G03*
X520000I0J4700D01*
G37*
G74*
*
G75*
G36*
G01*
Y305300D02*
G03*
X520000I0J4700D01*
G37*
G74*
*
G75*
G36*
G01*
Y315300D02*
G03*
X520000I0J4700D01*
G37*
G74*
*
G75*
G36*
G01*
Y325300D02*
G03*
X520000I0J4700D01*
G37*
G74*
*
G75*
G36*
G01*
Y335300D02*
G03*
X520000I0J4700D01*
G37*
G74*
*
G75*
G36*
G01*
Y345300D02*
G03*
X520000I0J4700D01*
G37*
G74*
*
G75*
G36*
G01*
Y355300D02*
G03*
X520000I0J4700D01*
G37*
G74*
*
G75*
G36*
G01*
Y365300D02*
G03*
X520000I0J4700D01*
G37*
G74*
*
G75*
G36*
G01*
Y375300D02*
G03*
X520000I0J4700D01*
G37*
G74*
*
G75*
G36*
G01*
Y385300D02*
G03*
X520000I0J4700D01*
G37*
G74*
*
G75*
G36*
G01*
Y395300D02*
G03*
X520000I0J4700D01*
G37*
G74*
*
G75*
G36*
G01*
Y405300D02*
G03*
X520000I0J4700D01*
G37*
G74*
*
G75*
G36*
G01*
Y415300D02*
G03*
X520000I0J4700D01*
G37*
G74*
*
G75*
G36*
G01*
Y425300D02*
G03*
X520000I0J4700D01*
G37*
G74*
*
G75*
G36*
G01*
X500000Y225300D02*
G03*
X500000I0J4700D01*
G37*
G74*
*
G75*
G36*
G01*
Y235300D02*
G03*
X500000I0J4700D01*
G37*
G74*
*
G75*
G36*
G01*
Y245300D02*
G03*
X500000I0J4700D01*
G37*
G74*
*
G75*
G36*
G01*
Y255300D02*
G03*
X500000I0J4700D01*
G37*
G74*
*
G75*
G36*
G01*
Y265300D02*
G03*
X500000I0J4700D01*
G37*
G74*
*
G75*
G36*
G01*
Y275300D02*
G03*
X500000I0J4700D01*
G37*
G74*
*
G75*
G36*
G01*
Y285300D02*
G03*
X500000I0J4700D01*
G37*
G74*
*
G75*
G36*
G01*
Y295300D02*
G03*
X500000I0J4700D01*
G37*
G74*
*
G75*
G36*
G01*
Y305300D02*
G03*
X500000I0J4700D01*
G37*
G74*
*
G75*
G36*
G01*
Y315300D02*
G03*
X500000I0J4700D01*
G37*
G74*
*
G75*
G36*
G01*
Y325300D02*
G03*
X500000I0J4700D01*
G37*
G74*
*
G75*
G36*
G01*
Y335300D02*
G03*
X500000I0J4700D01*
G37*
G74*
*
G75*
G36*
G01*
Y345300D02*
G03*
X500000I0J4700D01*
G37*
G74*
*
G75*
G36*
G01*
Y355300D02*
G03*
X500000I0J4700D01*
G37*
G74*
*
G75*
G36*
G01*
Y365300D02*
G03*
X500000I0J4700D01*
G37*
G74*
*
G75*
G36*
G01*
Y375300D02*
G03*
X500000I0J4700D01*
G37*
G74*
*
G75*
G36*
G01*
Y385300D02*
G03*
X500000I0J4700D01*
G37*
G74*
*
G75*
G36*
G01*
Y395300D02*
G03*
X500000I0J4700D01*
G37*
G74*
*
G75*
G36*
G01*
Y405300D02*
G03*
X500000I0J4700D01*
G37*
G74*
*
G75*
G36*
G01*
Y415300D02*
G03*
X500000I0J4700D01*
G37*
G74*
*
G75*
G36*
G01*
Y425300D02*
G03*
X500000I0J4700D01*
G37*
G74*
*
G75*
G36*
G01*
X480000Y225300D02*
G03*
X480000I0J4700D01*
G37*
G74*
*
G75*
G36*
G01*
Y235300D02*
G03*
X480000I0J4700D01*
G37*
G74*
*
G75*
G36*
G01*
Y245300D02*
G03*
X480000I0J4700D01*
G37*
G74*
*
G75*
G36*
G01*
Y255300D02*
G03*
X480000I0J4700D01*
G37*
G74*
*
G75*
G36*
G01*
Y265300D02*
G03*
X480000I0J4700D01*
G37*
G74*
*
G75*
G36*
G01*
Y275300D02*
G03*
X480000I0J4700D01*
G37*
G74*
*
G75*
G36*
G01*
Y285300D02*
G03*
X480000I0J4700D01*
G37*
G74*
*
G75*
G36*
G01*
Y295300D02*
G03*
X480000I0J4700D01*
G37*
G74*
*
G75*
G36*
G01*
Y305300D02*
G03*
X480000I0J4700D01*
G37*
G74*
*
G75*
G36*
G01*
Y315300D02*
G03*
X480000I0J4700D01*
G37*
G74*
*
G75*
G36*
G01*
Y325300D02*
G03*
X480000I0J4700D01*
G37*
G74*
*
G75*
G36*
G01*
Y335300D02*
G03*
X480000I0J4700D01*
G37*
G74*
*
G75*
G36*
G01*
Y345300D02*
G03*
X480000I0J4700D01*
G37*
G74*
*
G75*
G36*
G01*
Y355300D02*
G03*
X480000I0J4700D01*
G37*
G74*
*
G75*
G36*
G01*
Y365300D02*
G03*
X480000I0J4700D01*
G37*
G74*
*
G75*
G36*
G01*
Y375300D02*
G03*
X480000I0J4700D01*
G37*
G74*
*
G75*
G36*
G01*
Y385300D02*
G03*
X480000I0J4700D01*
G37*
G74*
*
G75*
G36*
G01*
Y395300D02*
G03*
X480000I0J4700D01*
G37*
G74*
*
G75*
G36*
G01*
Y405300D02*
G03*
X480000I0J4700D01*
G37*
G74*
*
G75*
G36*
G01*
Y415300D02*
G03*
X480000I0J4700D01*
G37*
G74*
*
G75*
G36*
G01*
Y425300D02*
G03*
X480000I0J4700D01*
G37*
G74*
*
G75*
G36*
G01*
X470000Y225300D02*
G03*
X470000I0J4700D01*
G37*
G74*
*
G75*
G36*
G01*
Y235300D02*
G03*
X470000I0J4700D01*
G37*
G74*
*
G75*
G36*
G01*
Y245300D02*
G03*
X470000I0J4700D01*
G37*
G74*
*
G75*
G36*
G01*
Y255300D02*
G03*
X470000I0J4700D01*
G37*
G74*
*
G75*
G36*
G01*
Y265300D02*
G03*
X470000I0J4700D01*
G37*
G74*
*
G75*
G36*
G01*
Y275300D02*
G03*
X470000I0J4700D01*
G37*
G74*
*
G75*
G36*
G01*
Y285300D02*
G03*
X470000I0J4700D01*
G37*
G74*
*
G75*
G36*
G01*
Y295300D02*
G03*
X470000I0J4700D01*
G37*
G74*
*
G75*
G36*
G01*
Y305300D02*
G03*
X470000I0J4700D01*
G37*
G74*
*
G75*
G36*
G01*
Y315300D02*
G03*
X470000I0J4700D01*
G37*
G74*
*
G75*
G36*
G01*
Y325300D02*
G03*
X470000I0J4700D01*
G37*
G74*
*
G75*
G36*
G01*
Y335300D02*
G03*
X470000I0J4700D01*
G37*
G74*
*
G75*
G36*
G01*
Y345300D02*
G03*
X470000I0J4700D01*
G37*
G74*
*
G75*
G36*
G01*
Y355300D02*
G03*
X470000I0J4700D01*
G37*
G74*
*
G75*
G36*
G01*
Y365300D02*
G03*
X470000I0J4700D01*
G37*
G74*
*
G75*
G36*
G01*
Y375300D02*
G03*
X470000I0J4700D01*
G37*
G74*
*
G75*
G36*
G01*
Y385300D02*
G03*
X470000I0J4700D01*
G37*
G74*
*
G75*
G36*
G01*
Y395300D02*
G03*
X470000I0J4700D01*
G37*
G74*
*
G75*
G36*
G01*
Y405300D02*
G03*
X470000I0J4700D01*
G37*
G74*
*
G75*
G36*
G01*
Y415300D02*
G03*
X470000I0J4700D01*
G37*
G74*
*
G75*
G36*
G01*
Y425300D02*
G03*
X470000I0J4700D01*
G37*
G74*
*
G75*
G36*
G01*
X460000Y225300D02*
G03*
X460000I0J4700D01*
G37*
G74*
*
G75*
G36*
G01*
Y235300D02*
G03*
X460000I0J4700D01*
G37*
G74*
*
G75*
G36*
G01*
Y245300D02*
G03*
X460000I0J4700D01*
G37*
G74*
*
G75*
G36*
G01*
Y255300D02*
G03*
X460000I0J4700D01*
G37*
G74*
*
G75*
G36*
G01*
Y265300D02*
G03*
X460000I0J4700D01*
G37*
G74*
*
G75*
G36*
G01*
Y275300D02*
G03*
X460000I0J4700D01*
G37*
G74*
*
G75*
G36*
G01*
Y285300D02*
G03*
X460000I0J4700D01*
G37*
G74*
*
G75*
G36*
G01*
Y295300D02*
G03*
X460000I0J4700D01*
G37*
G74*
*
G75*
G36*
G01*
Y305300D02*
G03*
X460000I0J4700D01*
G37*
G74*
*
G75*
G36*
G01*
Y315300D02*
G03*
X460000I0J4700D01*
G37*
G74*
*
G75*
G36*
G01*
Y325300D02*
G03*
X460000I0J4700D01*
G37*
G74*
*
G75*
G36*
G01*
Y335300D02*
G03*
X460000I0J4700D01*
G37*
G74*
*
G75*
G36*
G01*
Y345300D02*
G03*
X460000I0J4700D01*
G37*
G74*
*
G75*
G36*
G01*
Y355300D02*
G03*
X460000I0J4700D01*
G37*
G74*
*
G75*
G36*
G01*
Y365300D02*
G03*
X460000I0J4700D01*
G37*
G74*
*
G75*
G36*
G01*
Y375300D02*
G03*
X460000I0J4700D01*
G37*
G74*
*
G75*
G36*
G01*
Y385300D02*
G03*
X460000I0J4700D01*
G37*
G74*
*
G75*
G36*
G01*
Y395300D02*
G03*
X460000I0J4700D01*
G37*
G74*
*
G75*
G36*
G01*
Y405300D02*
G03*
X460000I0J4700D01*
G37*
G74*
*
G75*
G36*
G01*
Y415300D02*
G03*
X460000I0J4700D01*
G37*
G74*
*
G75*
G36*
G01*
Y425300D02*
G03*
X460000I0J4700D01*
G37*
G74*
*
G75*
G36*
G01*
X440000Y225300D02*
G03*
X440000I0J4700D01*
G37*
G74*
*
G75*
G36*
G01*
Y235300D02*
G03*
X440000I0J4700D01*
G37*
G74*
*
G75*
G36*
G01*
Y245300D02*
G03*
X440000I0J4700D01*
G37*
G74*
*
G75*
G36*
G01*
Y255300D02*
G03*
X440000I0J4700D01*
G37*
G74*
*
G75*
G36*
G01*
Y265300D02*
G03*
X440000I0J4700D01*
G37*
G74*
*
G75*
G36*
G01*
Y275300D02*
G03*
X440000I0J4700D01*
G37*
G74*
*
G75*
G36*
G01*
Y285300D02*
G03*
X440000I0J4700D01*
G37*
G74*
*
G75*
G36*
G01*
Y295300D02*
G03*
X440000I0J4700D01*
G37*
G74*
*
G75*
G36*
G01*
Y305300D02*
G03*
X440000I0J4700D01*
G37*
G74*
*
G75*
G36*
G01*
Y315300D02*
G03*
X440000I0J4700D01*
G37*
G74*
*
G75*
G36*
G01*
Y325300D02*
G03*
X440000I0J4700D01*
G37*
G74*
*
G75*
G36*
G01*
Y335300D02*
G03*
X440000I0J4700D01*
G37*
G74*
*
G75*
G36*
G01*
Y345300D02*
G03*
X440000I0J4700D01*
G37*
G74*
*
G75*
G36*
G01*
Y355300D02*
G03*
X440000I0J4700D01*
G37*
G74*
*
G75*
G36*
G01*
Y365300D02*
G03*
X440000I0J4700D01*
G37*
G74*
*
G75*
G36*
G01*
Y375300D02*
G03*
X440000I0J4700D01*
G37*
G74*
*
G75*
G36*
G01*
Y385300D02*
G03*
X440000I0J4700D01*
G37*
G74*
*
G75*
G36*
G01*
Y395300D02*
G03*
X440000I0J4700D01*
G37*
G74*
*
G75*
G36*
G01*
Y405300D02*
G03*
X440000I0J4700D01*
G37*
G74*
*
G75*
G36*
G01*
Y415300D02*
G03*
X440000I0J4700D01*
G37*
G74*
*
G75*
G36*
G01*
Y425300D02*
G03*
X440000I0J4700D01*
G37*
G74*
*
G75*
G36*
G01*
X420000Y225300D02*
G03*
X420000I0J4700D01*
G37*
G74*
*
G75*
G36*
G01*
Y235300D02*
G03*
X420000I0J4700D01*
G37*
G74*
*
G75*
G36*
G01*
Y245300D02*
G03*
X420000I0J4700D01*
G37*
G74*
*
G75*
G36*
G01*
Y255300D02*
G03*
X420000I0J4700D01*
G37*
G74*
*
G75*
G36*
G01*
Y265300D02*
G03*
X420000I0J4700D01*
G37*
G74*
*
G75*
G36*
G01*
Y275300D02*
G03*
X420000I0J4700D01*
G37*
G74*
*
G75*
G36*
G01*
Y285300D02*
G03*
X420000I0J4700D01*
G37*
G74*
*
G75*
G36*
G01*
Y295300D02*
G03*
X420000I0J4700D01*
G37*
G74*
*
G75*
G36*
G01*
Y305300D02*
G03*
X420000I0J4700D01*
G37*
G74*
*
G75*
G36*
G01*
Y315300D02*
G03*
X420000I0J4700D01*
G37*
G74*
*
G75*
G36*
G01*
Y325300D02*
G03*
X420000I0J4700D01*
G37*
G74*
*
G75*
G36*
G01*
Y335300D02*
G03*
X420000I0J4700D01*
G37*
G74*
*
G75*
G36*
G01*
Y345300D02*
G03*
X420000I0J4700D01*
G37*
G74*
*
G75*
G36*
G01*
Y355300D02*
G03*
X420000I0J4700D01*
G37*
G74*
*
G75*
G36*
G01*
Y365300D02*
G03*
X420000I0J4700D01*
G37*
G74*
*
G75*
G36*
G01*
Y375300D02*
G03*
X420000I0J4700D01*
G37*
G74*
*
G75*
G36*
G01*
Y385300D02*
G03*
X420000I0J4700D01*
G37*
G74*
*
G75*
G36*
G01*
Y395300D02*
G03*
X420000I0J4700D01*
G37*
G74*
*
G75*
G36*
G01*
Y405300D02*
G03*
X420000I0J4700D01*
G37*
G74*
*
G75*
G36*
G01*
Y415300D02*
G03*
X420000I0J4700D01*
G37*
G74*
*
G75*
G36*
G01*
Y425300D02*
G03*
X420000I0J4700D01*
G37*
G74*
*
G75*
G36*
G01*
X400000Y225300D02*
G03*
X400000I0J4700D01*
G37*
G74*
*
G75*
G36*
G01*
Y235300D02*
G03*
X400000I0J4700D01*
G37*
G74*
*
G75*
G36*
G01*
Y245300D02*
G03*
X400000I0J4700D01*
G37*
G74*
*
G75*
G36*
G01*
Y255300D02*
G03*
X400000I0J4700D01*
G37*
G74*
*
G75*
G36*
G01*
Y265300D02*
G03*
X400000I0J4700D01*
G37*
G74*
*
G75*
G36*
G01*
Y275300D02*
G03*
X400000I0J4700D01*
G37*
G74*
*
G75*
G36*
G01*
Y285300D02*
G03*
X400000I0J4700D01*
G37*
G74*
*
G75*
G36*
G01*
Y295300D02*
G03*
X400000I0J4700D01*
G37*
G74*
*
G75*
G36*
G01*
Y305300D02*
G03*
X400000I0J4700D01*
G37*
G74*
*
G75*
G36*
G01*
Y315300D02*
G03*
X400000I0J4700D01*
G37*
G74*
*
G75*
G36*
G01*
Y325300D02*
G03*
X400000I0J4700D01*
G37*
G74*
*
G75*
G36*
G01*
Y335300D02*
G03*
X400000I0J4700D01*
G37*
G74*
*
G75*
G36*
G01*
Y345300D02*
G03*
X400000I0J4700D01*
G37*
G74*
*
G75*
G36*
G01*
Y355300D02*
G03*
X400000I0J4700D01*
G37*
G74*
*
G75*
G36*
G01*
Y365300D02*
G03*
X400000I0J4700D01*
G37*
G74*
*
G75*
G36*
G01*
Y375300D02*
G03*
X400000I0J4700D01*
G37*
G74*
*
G75*
G36*
G01*
Y385300D02*
G03*
X400000I0J4700D01*
G37*
G74*
*
G75*
G36*
G01*
Y395300D02*
G03*
X400000I0J4700D01*
G37*
G74*
*
G75*
G36*
G01*
Y405300D02*
G03*
X400000I0J4700D01*
G37*
G74*
*
G75*
G36*
G01*
Y415300D02*
G03*
X400000I0J4700D01*
G37*
G74*
*
G75*
G36*
G01*
Y425300D02*
G03*
X400000I0J4700D01*
G37*
G74*
*
G75*
G36*
G01*
X390000Y225300D02*
G03*
X390000I0J4700D01*
G37*
G74*
*
G75*
G36*
G01*
Y235300D02*
G03*
X390000I0J4700D01*
G37*
G74*
*
G75*
G36*
G01*
Y245300D02*
G03*
X390000I0J4700D01*
G37*
G74*
*
G75*
G36*
G01*
Y255300D02*
G03*
X390000I0J4700D01*
G37*
G74*
*
G75*
G36*
G01*
Y265300D02*
G03*
X390000I0J4700D01*
G37*
G74*
*
G75*
G36*
G01*
Y275300D02*
G03*
X390000I0J4700D01*
G37*
G74*
*
G75*
G36*
G01*
Y285300D02*
G03*
X390000I0J4700D01*
G37*
G74*
*
G75*
G36*
G01*
Y295300D02*
G03*
X390000I0J4700D01*
G37*
G74*
*
G75*
G36*
G01*
Y305300D02*
G03*
X390000I0J4700D01*
G37*
G74*
*
G75*
G36*
G01*
Y315300D02*
G03*
X390000I0J4700D01*
G37*
G74*
*
G75*
G36*
G01*
Y325300D02*
G03*
X390000I0J4700D01*
G37*
G74*
*
G75*
G36*
G01*
Y335300D02*
G03*
X390000I0J4700D01*
G37*
G74*
*
G75*
G36*
G01*
Y345300D02*
G03*
X390000I0J4700D01*
G37*
G74*
*
G75*
G36*
G01*
Y355300D02*
G03*
X390000I0J4700D01*
G37*
G74*
*
G75*
G36*
G01*
Y365300D02*
G03*
X390000I0J4700D01*
G37*
G74*
*
G75*
G36*
G01*
Y375300D02*
G03*
X390000I0J4700D01*
G37*
G74*
*
G75*
G36*
G01*
Y385300D02*
G03*
X390000I0J4700D01*
G37*
G74*
*
G75*
G36*
G01*
Y395300D02*
G03*
X390000I0J4700D01*
G37*
G74*
*
G75*
G36*
G01*
Y405300D02*
G03*
X390000I0J4700D01*
G37*
G74*
*
G75*
G36*
G01*
Y415300D02*
G03*
X390000I0J4700D01*
G37*
G74*
*
G75*
G36*
G01*
Y425300D02*
G03*
X390000I0J4700D01*
G37*
G74*
*
G75*
G36*
G01*
X380000Y225300D02*
G03*
X380000I0J4700D01*
G37*
G74*
*
G75*
G36*
G01*
Y235300D02*
G03*
X380000I0J4700D01*
G37*
G74*
*
G75*
G36*
G01*
Y245300D02*
G03*
X380000I0J4700D01*
G37*
G74*
*
G75*
G36*
G01*
Y255300D02*
G03*
X380000I0J4700D01*
G37*
G74*
*
G75*
G36*
G01*
Y265300D02*
G03*
X380000I0J4700D01*
G37*
G74*
*
G75*
G36*
G01*
Y275300D02*
G03*
X380000I0J4700D01*
G37*
G74*
*
G75*
G36*
G01*
Y285300D02*
G03*
X380000I0J4700D01*
G37*
G74*
*
G75*
G36*
G01*
Y295300D02*
G03*
X380000I0J4700D01*
G37*
G74*
*
G75*
G36*
G01*
Y305300D02*
G03*
X380000I0J4700D01*
G37*
G74*
*
G75*
G36*
G01*
Y315300D02*
G03*
X380000I0J4700D01*
G37*
G74*
*
G75*
G36*
G01*
Y325300D02*
G03*
X380000I0J4700D01*
G37*
G74*
*
G75*
G36*
G01*
Y335300D02*
G03*
X380000I0J4700D01*
G37*
G74*
*
G75*
G36*
G01*
Y345300D02*
G03*
X380000I0J4700D01*
G37*
G74*
*
G75*
G36*
G01*
Y355300D02*
G03*
X380000I0J4700D01*
G37*
G74*
*
G75*
G36*
G01*
Y365300D02*
G03*
X380000I0J4700D01*
G37*
G74*
*
G75*
G36*
G01*
Y375300D02*
G03*
X380000I0J4700D01*
G37*
G74*
*
G75*
G36*
G01*
Y385300D02*
G03*
X380000I0J4700D01*
G37*
G74*
*
G75*
G36*
G01*
Y395300D02*
G03*
X380000I0J4700D01*
G37*
G74*
*
G75*
G36*
G01*
Y405300D02*
G03*
X380000I0J4700D01*
G37*
G74*
*
G75*
G36*
G01*
Y415300D02*
G03*
X380000I0J4700D01*
G37*
G74*
*
G75*
G36*
G01*
Y425300D02*
G03*
X380000I0J4700D01*
G37*
G74*
*
G75*
G36*
G01*
X360000Y225300D02*
G03*
X360000I0J4700D01*
G37*
G74*
*
G75*
G36*
G01*
Y235300D02*
G03*
X360000I0J4700D01*
G37*
G74*
*
G75*
G36*
G01*
Y245300D02*
G03*
X360000I0J4700D01*
G37*
G74*
*
G75*
G36*
G01*
Y255300D02*
G03*
X360000I0J4700D01*
G37*
G74*
*
G75*
G36*
G01*
Y265300D02*
G03*
X360000I0J4700D01*
G37*
G74*
*
G75*
G36*
G01*
Y275300D02*
G03*
X360000I0J4700D01*
G37*
G74*
*
G75*
G36*
G01*
Y285300D02*
G03*
X360000I0J4700D01*
G37*
G74*
*
G75*
G36*
G01*
Y295300D02*
G03*
X360000I0J4700D01*
G37*
G74*
*
G75*
G36*
G01*
Y305300D02*
G03*
X360000I0J4700D01*
G37*
G74*
*
G75*
G36*
G01*
Y315300D02*
G03*
X360000I0J4700D01*
G37*
G74*
*
G75*
G36*
G01*
Y325300D02*
G03*
X360000I0J4700D01*
G37*
G74*
*
G75*
G36*
G01*
Y335300D02*
G03*
X360000I0J4700D01*
G37*
G74*
*
G75*
G36*
G01*
Y345300D02*
G03*
X360000I0J4700D01*
G37*
G74*
*
G75*
G36*
G01*
Y355300D02*
G03*
X360000I0J4700D01*
G37*
G74*
*
G75*
G36*
G01*
Y365300D02*
G03*
X360000I0J4700D01*
G37*
G74*
*
G75*
G36*
G01*
Y375300D02*
G03*
X360000I0J4700D01*
G37*
G74*
*
G75*
G36*
G01*
Y385300D02*
G03*
X360000I0J4700D01*
G37*
G74*
*
G75*
G36*
G01*
Y395300D02*
G03*
X360000I0J4700D01*
G37*
G74*
*
G75*
G36*
G01*
Y405300D02*
G03*
X360000I0J4700D01*
G37*
G74*
*
G75*
G36*
G01*
Y415300D02*
G03*
X360000I0J4700D01*
G37*
G74*
*
G75*
G36*
G01*
Y425300D02*
G03*
X360000I0J4700D01*
G37*
G74*
*
G75*
G36*
G01*
X340000Y225300D02*
G03*
X340000I0J4700D01*
G37*
G74*
*
G75*
G36*
G01*
Y235300D02*
G03*
X340000I0J4700D01*
G37*
G74*
*
G75*
G36*
G01*
Y245300D02*
G03*
X340000I0J4700D01*
G37*
G74*
*
G75*
G36*
G01*
Y255300D02*
G03*
X340000I0J4700D01*
G37*
G74*
*
G75*
G36*
G01*
Y265300D02*
G03*
X340000I0J4700D01*
G37*
G74*
*
G75*
G36*
G01*
Y275300D02*
G03*
X340000I0J4700D01*
G37*
G74*
*
G75*
G36*
G01*
Y285300D02*
G03*
X340000I0J4700D01*
G37*
G74*
*
G75*
G36*
G01*
Y295300D02*
G03*
X340000I0J4700D01*
G37*
G74*
*
G75*
G36*
G01*
Y305300D02*
G03*
X340000I0J4700D01*
G37*
G74*
*
G75*
G36*
G01*
Y315300D02*
G03*
X340000I0J4700D01*
G37*
G74*
*
G75*
G36*
G01*
Y325300D02*
G03*
X340000I0J4700D01*
G37*
G74*
*
G75*
G36*
G01*
Y335300D02*
G03*
X340000I0J4700D01*
G37*
G74*
*
G75*
G36*
G01*
Y345300D02*
G03*
X340000I0J4700D01*
G37*
G74*
*
G75*
G36*
G01*
Y355300D02*
G03*
X340000I0J4700D01*
G37*
G74*
*
G75*
G36*
G01*
Y365300D02*
G03*
X340000I0J4700D01*
G37*
G74*
*
G75*
G36*
G01*
Y375300D02*
G03*
X340000I0J4700D01*
G37*
G74*
*
G75*
G36*
G01*
Y385300D02*
G03*
X340000I0J4700D01*
G37*
G74*
*
G75*
G36*
G01*
Y395300D02*
G03*
X340000I0J4700D01*
G37*
G74*
*
G75*
G36*
G01*
Y405300D02*
G03*
X340000I0J4700D01*
G37*
G74*
*
G75*
G36*
G01*
Y415300D02*
G03*
X340000I0J4700D01*
G37*
G74*
*
G75*
G36*
G01*
Y425300D02*
G03*
X340000I0J4700D01*
G37*
G74*
*
G75*
G36*
G01*
X320000Y225300D02*
G03*
X320000I0J4700D01*
G37*
G74*
*
G75*
G36*
G01*
Y235300D02*
G03*
X320000I0J4700D01*
G37*
G74*
*
G75*
G36*
G01*
Y245300D02*
G03*
X320000I0J4700D01*
G37*
G74*
*
G75*
G36*
G01*
Y255300D02*
G03*
X320000I0J4700D01*
G37*
G74*
*
G75*
G36*
G01*
Y265300D02*
G03*
X320000I0J4700D01*
G37*
G74*
*
G75*
G36*
G01*
Y275300D02*
G03*
X320000I0J4700D01*
G37*
G74*
*
G75*
G36*
G01*
Y285300D02*
G03*
X320000I0J4700D01*
G37*
G74*
*
G75*
G36*
G01*
Y295300D02*
G03*
X320000I0J4700D01*
G37*
G74*
*
G75*
G36*
G01*
Y305300D02*
G03*
X320000I0J4700D01*
G37*
G74*
*
G75*
G36*
G01*
Y315300D02*
G03*
X320000I0J4700D01*
G37*
G74*
*
G75*
G36*
G01*
Y325300D02*
G03*
X320000I0J4700D01*
G37*
G74*
*
G75*
G36*
G01*
Y335300D02*
G03*
X320000I0J4700D01*
G37*
G74*
*
G75*
G36*
G01*
Y345300D02*
G03*
X320000I0J4700D01*
G37*
G74*
*
G75*
G36*
G01*
Y355300D02*
G03*
X320000I0J4700D01*
G37*
G74*
*
G75*
G36*
G01*
Y365300D02*
G03*
X320000I0J4700D01*
G37*
G74*
*
G75*
G36*
G01*
Y375300D02*
G03*
X320000I0J4700D01*
G37*
G74*
*
G75*
G36*
G01*
Y385300D02*
G03*
X320000I0J4700D01*
G37*
G74*
*
G75*
G36*
G01*
Y395300D02*
G03*
X320000I0J4700D01*
G37*
G74*
*
G75*
G36*
G01*
Y405300D02*
G03*
X320000I0J4700D01*
G37*
G74*
*
G75*
G36*
G01*
Y415300D02*
G03*
X320000I0J4700D01*
G37*
G74*
*
G75*
G36*
G01*
Y425300D02*
G03*
X320000I0J4700D01*
G37*
G74*
*
G75*
G36*
G01*
X310000Y225300D02*
G03*
X310000I0J4700D01*
G37*
G74*
*
G75*
G36*
G01*
Y235300D02*
G03*
X310000I0J4700D01*
G37*
G74*
*
G75*
G36*
G01*
Y245300D02*
G03*
X310000I0J4700D01*
G37*
G74*
*
G75*
G36*
G01*
Y255300D02*
G03*
X310000I0J4700D01*
G37*
G74*
*
G75*
G36*
G01*
Y265300D02*
G03*
X310000I0J4700D01*
G37*
G74*
*
G75*
G36*
G01*
Y275300D02*
G03*
X310000I0J4700D01*
G37*
G74*
*
G75*
G36*
G01*
Y285300D02*
G03*
X310000I0J4700D01*
G37*
G74*
*
G75*
G36*
G01*
Y295300D02*
G03*
X310000I0J4700D01*
G37*
G74*
*
G75*
G36*
G01*
Y305300D02*
G03*
X310000I0J4700D01*
G37*
G74*
*
G75*
G36*
G01*
Y315300D02*
G03*
X310000I0J4700D01*
G37*
G74*
*
G75*
G36*
G01*
Y325300D02*
G03*
X310000I0J4700D01*
G37*
G74*
*
G75*
G36*
G01*
Y335300D02*
G03*
X310000I0J4700D01*
G37*
G74*
*
G75*
G36*
G01*
Y345300D02*
G03*
X310000I0J4700D01*
G37*
G74*
*
G75*
G36*
G01*
Y355300D02*
G03*
X310000I0J4700D01*
G37*
G74*
*
G75*
G36*
G01*
Y365300D02*
G03*
X310000I0J4700D01*
G37*
G74*
*
G75*
G36*
G01*
Y375300D02*
G03*
X310000I0J4700D01*
G37*
G74*
*
G75*
G36*
G01*
Y385300D02*
G03*
X310000I0J4700D01*
G37*
G74*
*
G75*
G36*
G01*
Y395300D02*
G03*
X310000I0J4700D01*
G37*
G74*
*
G75*
G36*
G01*
Y405300D02*
G03*
X310000I0J4700D01*
G37*
G74*
*
G75*
G36*
G01*
Y415300D02*
G03*
X310000I0J4700D01*
G37*
G74*
*
G75*
G36*
G01*
Y425300D02*
G03*
X310000I0J4700D01*
G37*
G74*
*
G75*
G36*
G01*
X300000Y225300D02*
G03*
X300000I0J4700D01*
G37*
G74*
*
G75*
G36*
G01*
Y235300D02*
G03*
X300000I0J4700D01*
G37*
G74*
*
G75*
G36*
G01*
Y245300D02*
G03*
X300000I0J4700D01*
G37*
G74*
*
G75*
G36*
G01*
Y255300D02*
G03*
X300000I0J4700D01*
G37*
G74*
*
G75*
G36*
G01*
Y265300D02*
G03*
X300000I0J4700D01*
G37*
G74*
*
G75*
G36*
G01*
Y275300D02*
G03*
X300000I0J4700D01*
G37*
G74*
*
G75*
G36*
G01*
Y285300D02*
G03*
X300000I0J4700D01*
G37*
G74*
*
G75*
G36*
G01*
Y295300D02*
G03*
X300000I0J4700D01*
G37*
G74*
*
G75*
G36*
G01*
Y305300D02*
G03*
X300000I0J4700D01*
G37*
G74*
*
G75*
G36*
G01*
Y315300D02*
G03*
X300000I0J4700D01*
G37*
G74*
*
G75*
G36*
G01*
Y325300D02*
G03*
X300000I0J4700D01*
G37*
G74*
*
G75*
G36*
G01*
Y335300D02*
G03*
X300000I0J4700D01*
G37*
G74*
*
G75*
G36*
G01*
Y345300D02*
G03*
X300000I0J4700D01*
G37*
G74*
*
G75*
G36*
G01*
Y355300D02*
G03*
X300000I0J4700D01*
G37*
G74*
*
G75*
G36*
G01*
Y365300D02*
G03*
X300000I0J4700D01*
G37*
G74*
*
G75*
G36*
G01*
Y375300D02*
G03*
X300000I0J4700D01*
G37*
G74*
*
G75*
G36*
G01*
Y385300D02*
G03*
X300000I0J4700D01*
G37*
G74*
*
G75*
G36*
G01*
Y395300D02*
G03*
X300000I0J4700D01*
G37*
G74*
*
G75*
G36*
G01*
Y405300D02*
G03*
X300000I0J4700D01*
G37*
G74*
*
G75*
G36*
G01*
Y415300D02*
G03*
X300000I0J4700D01*
G37*
G74*
*
G75*
G36*
G01*
Y425300D02*
G03*
X300000I0J4700D01*
G37*
G74*
*
G75*
G36*
G01*
X280000Y225300D02*
G03*
X280000I0J4700D01*
G37*
G74*
*
G75*
G36*
G01*
Y235300D02*
G03*
X280000I0J4700D01*
G37*
G74*
*
G75*
G36*
G01*
Y245300D02*
G03*
X280000I0J4700D01*
G37*
G74*
*
G75*
G36*
G01*
Y255300D02*
G03*
X280000I0J4700D01*
G37*
G74*
*
G75*
G36*
G01*
Y265300D02*
G03*
X280000I0J4700D01*
G37*
G74*
*
G75*
G36*
G01*
Y275300D02*
G03*
X280000I0J4700D01*
G37*
G74*
*
G75*
G36*
G01*
Y285300D02*
G03*
X280000I0J4700D01*
G37*
G74*
*
G75*
G36*
G01*
Y295300D02*
G03*
X280000I0J4700D01*
G37*
G74*
*
G75*
G36*
G01*
Y305300D02*
G03*
X280000I0J4700D01*
G37*
G74*
*
G75*
G36*
G01*
Y315300D02*
G03*
X280000I0J4700D01*
G37*
G74*
*
G75*
G36*
G01*
Y325300D02*
G03*
X280000I0J4700D01*
G37*
G74*
*
G75*
G36*
G01*
Y335300D02*
G03*
X280000I0J4700D01*
G37*
G74*
*
G75*
G36*
G01*
Y345300D02*
G03*
X280000I0J4700D01*
G37*
G74*
*
G75*
G36*
G01*
Y355300D02*
G03*
X280000I0J4700D01*
G37*
G74*
*
G75*
G36*
G01*
Y365300D02*
G03*
X280000I0J4700D01*
G37*
G74*
*
G75*
G36*
G01*
Y375300D02*
G03*
X280000I0J4700D01*
G37*
G74*
*
G75*
G36*
G01*
Y385300D02*
G03*
X280000I0J4700D01*
G37*
G74*
*
G75*
G36*
G01*
Y395300D02*
G03*
X280000I0J4700D01*
G37*
G74*
*
G75*
G36*
G01*
Y405300D02*
G03*
X280000I0J4700D01*
G37*
G74*
*
G75*
G36*
G01*
Y415300D02*
G03*
X280000I0J4700D01*
G37*
G74*
*
G75*
G36*
G01*
Y425300D02*
G03*
X280000I0J4700D01*
G37*
G74*
*
G75*
G36*
G01*
X260000Y225300D02*
G03*
X260000I0J4700D01*
G37*
G74*
*
G75*
G36*
G01*
Y235300D02*
G03*
X260000I0J4700D01*
G37*
G74*
*
G75*
G36*
G01*
Y245300D02*
G03*
X260000I0J4700D01*
G37*
G74*
*
G75*
G36*
G01*
Y255300D02*
G03*
X260000I0J4700D01*
G37*
G74*
*
G75*
G36*
G01*
Y265300D02*
G03*
X260000I0J4700D01*
G37*
G74*
*
G75*
G36*
G01*
Y275300D02*
G03*
X260000I0J4700D01*
G37*
G74*
*
G75*
G36*
G01*
Y285300D02*
G03*
X260000I0J4700D01*
G37*
G74*
*
G75*
G36*
G01*
Y295300D02*
G03*
X260000I0J4700D01*
G37*
G74*
*
G75*
G36*
G01*
Y305300D02*
G03*
X260000I0J4700D01*
G37*
G74*
*
G75*
G36*
G01*
Y315300D02*
G03*
X260000I0J4700D01*
G37*
G74*
*
G75*
G36*
G01*
Y325300D02*
G03*
X260000I0J4700D01*
G37*
G74*
*
G75*
G36*
G01*
Y335300D02*
G03*
X260000I0J4700D01*
G37*
G74*
*
G75*
G36*
G01*
Y345300D02*
G03*
X260000I0J4700D01*
G37*
G74*
*
G75*
G36*
G01*
Y355300D02*
G03*
X260000I0J4700D01*
G37*
G74*
*
G75*
G36*
G01*
Y365300D02*
G03*
X260000I0J4700D01*
G37*
G74*
*
G75*
G36*
G01*
Y375300D02*
G03*
X260000I0J4700D01*
G37*
G74*
*
G75*
G36*
G01*
Y385300D02*
G03*
X260000I0J4700D01*
G37*
G74*
*
G75*
G36*
G01*
Y395300D02*
G03*
X260000I0J4700D01*
G37*
G74*
*
G75*
G36*
G01*
Y405300D02*
G03*
X260000I0J4700D01*
G37*
G74*
*
G75*
G36*
G01*
Y415300D02*
G03*
X260000I0J4700D01*
G37*
G74*
*
G75*
G36*
G01*
Y425300D02*
G03*
X260000I0J4700D01*
G37*
G74*
*
G75*
G36*
G01*
X240000Y225300D02*
G03*
X240000I0J4700D01*
G37*
G74*
*
G75*
G36*
G01*
Y235300D02*
G03*
X240000I0J4700D01*
G37*
G74*
*
G75*
G36*
G01*
Y245300D02*
G03*
X240000I0J4700D01*
G37*
G74*
*
G75*
G36*
G01*
Y255300D02*
G03*
X240000I0J4700D01*
G37*
G74*
*
G75*
G36*
G01*
Y265300D02*
G03*
X240000I0J4700D01*
G37*
G74*
*
G75*
G36*
G01*
Y275300D02*
G03*
X240000I0J4700D01*
G37*
G74*
*
G75*
G36*
G01*
Y285300D02*
G03*
X240000I0J4700D01*
G37*
G74*
*
G75*
G36*
G01*
Y295300D02*
G03*
X240000I0J4700D01*
G37*
G74*
*
G75*
G36*
G01*
Y305300D02*
G03*
X240000I0J4700D01*
G37*
G74*
*
G75*
G36*
G01*
Y315300D02*
G03*
X240000I0J4700D01*
G37*
G74*
*
G75*
G36*
G01*
Y325300D02*
G03*
X240000I0J4700D01*
G37*
G74*
*
G75*
G36*
G01*
Y335300D02*
G03*
X240000I0J4700D01*
G37*
G74*
*
G75*
G36*
G01*
Y345300D02*
G03*
X240000I0J4700D01*
G37*
G74*
*
G75*
G36*
G01*
Y355300D02*
G03*
X240000I0J4700D01*
G37*
G74*
*
G75*
G36*
G01*
Y365300D02*
G03*
X240000I0J4700D01*
G37*
G74*
*
G75*
G36*
G01*
Y375300D02*
G03*
X240000I0J4700D01*
G37*
G74*
*
G75*
G36*
G01*
Y385300D02*
G03*
X240000I0J4700D01*
G37*
G74*
*
G75*
G36*
G01*
Y395300D02*
G03*
X240000I0J4700D01*
G37*
G74*
*
G75*
G36*
G01*
Y405300D02*
G03*
X240000I0J4700D01*
G37*
G74*
*
G75*
G36*
G01*
Y415300D02*
G03*
X240000I0J4700D01*
G37*
G74*
*
G75*
G36*
G01*
Y425300D02*
G03*
X240000I0J4700D01*
G37*
G74*
*
G75*
G36*
G01*
X230000Y225300D02*
G03*
X230000I0J4700D01*
G37*
G74*
*
G75*
G36*
G01*
Y235300D02*
G03*
X230000I0J4700D01*
G37*
G74*
*
G75*
G36*
G01*
Y245300D02*
G03*
X230000I0J4700D01*
G37*
G74*
*
G75*
G36*
G01*
Y255300D02*
G03*
X230000I0J4700D01*
G37*
G74*
*
G75*
G36*
G01*
Y265300D02*
G03*
X230000I0J4700D01*
G37*
G74*
*
G75*
G36*
G01*
Y275300D02*
G03*
X230000I0J4700D01*
G37*
G74*
*
G75*
G36*
G01*
Y285300D02*
G03*
X230000I0J4700D01*
G37*
G74*
*
G75*
G36*
G01*
Y295300D02*
G03*
X230000I0J4700D01*
G37*
G74*
*
G75*
G36*
G01*
Y305300D02*
G03*
X230000I0J4700D01*
G37*
G74*
*
G75*
G36*
G01*
Y315300D02*
G03*
X230000I0J4700D01*
G37*
G74*
*
G75*
G36*
G01*
Y325300D02*
G03*
X230000I0J4700D01*
G37*
G74*
*
G75*
G36*
G01*
Y335300D02*
G03*
X230000I0J4700D01*
G37*
G74*
*
G75*
G36*
G01*
Y345300D02*
G03*
X230000I0J4700D01*
G37*
G74*
*
G75*
G36*
G01*
Y355300D02*
G03*
X230000I0J4700D01*
G37*
G74*
*
G75*
G36*
G01*
Y365300D02*
G03*
X230000I0J4700D01*
G37*
G74*
*
G75*
G36*
G01*
Y375300D02*
G03*
X230000I0J4700D01*
G37*
G74*
*
G75*
G36*
G01*
Y385300D02*
G03*
X230000I0J4700D01*
G37*
G74*
*
G75*
G36*
G01*
Y395300D02*
G03*
X230000I0J4700D01*
G37*
G74*
*
G75*
G36*
G01*
Y405300D02*
G03*
X230000I0J4700D01*
G37*
G74*
*
G75*
G36*
G01*
Y415300D02*
G03*
X230000I0J4700D01*
G37*
G74*
*
G75*
G36*
G01*
Y425300D02*
G03*
X230000I0J4700D01*
G37*
G74*
*
G75*
G36*
G01*
X220000Y225300D02*
G03*
X220000I0J4700D01*
G37*
G74*
*
G75*
G36*
G01*
Y235300D02*
G03*
X220000I0J4700D01*
G37*
G74*
*
G75*
G36*
G01*
Y245300D02*
G03*
X220000I0J4700D01*
G37*
G74*
*
G75*
G36*
G01*
Y255300D02*
G03*
X220000I0J4700D01*
G37*
G74*
*
G75*
G36*
G01*
Y265300D02*
G03*
X220000I0J4700D01*
G37*
G74*
*
G75*
G36*
G01*
Y275300D02*
G03*
X220000I0J4700D01*
G37*
G74*
*
G75*
G36*
G01*
Y285300D02*
G03*
X220000I0J4700D01*
G37*
G74*
*
G75*
G36*
G01*
Y295300D02*
G03*
X220000I0J4700D01*
G37*
G74*
*
G75*
G36*
G01*
Y305300D02*
G03*
X220000I0J4700D01*
G37*
G74*
*
G75*
G36*
G01*
Y315300D02*
G03*
X220000I0J4700D01*
G37*
G74*
*
G75*
G36*
G01*
Y325300D02*
G03*
X220000I0J4700D01*
G37*
G74*
*
G75*
G36*
G01*
Y335300D02*
G03*
X220000I0J4700D01*
G37*
G74*
*
G75*
G36*
G01*
Y345300D02*
G03*
X220000I0J4700D01*
G37*
G74*
*
G75*
G36*
G01*
Y355300D02*
G03*
X220000I0J4700D01*
G37*
G74*
*
G75*
G36*
G01*
Y365300D02*
G03*
X220000I0J4700D01*
G37*
G74*
*
G75*
G36*
G01*
Y375300D02*
G03*
X220000I0J4700D01*
G37*
G74*
*
G75*
G36*
G01*
Y385300D02*
G03*
X220000I0J4700D01*
G37*
G74*
*
G75*
G36*
G01*
Y395300D02*
G03*
X220000I0J4700D01*
G37*
G74*
*
G75*
G36*
G01*
Y405300D02*
G03*
X220000I0J4700D01*
G37*
G74*
*
G75*
G36*
G01*
Y415300D02*
G03*
X220000I0J4700D01*
G37*
G74*
*
G75*
G36*
G01*
Y425300D02*
G03*
X220000I0J4700D01*
G37*
G74*
*
G75*
G36*
G01*
X200000Y225300D02*
G03*
X200000I0J4700D01*
G37*
G74*
*
G75*
G36*
G01*
Y235300D02*
G03*
X200000I0J4700D01*
G37*
G74*
*
G75*
G36*
G01*
Y245300D02*
G03*
X200000I0J4700D01*
G37*
G74*
*
G75*
G36*
G01*
Y255300D02*
G03*
X200000I0J4700D01*
G37*
G74*
*
G75*
G36*
G01*
Y265300D02*
G03*
X200000I0J4700D01*
G37*
G74*
*
G75*
G36*
G01*
Y275300D02*
G03*
X200000I0J4700D01*
G37*
G74*
*
G75*
G36*
G01*
Y285300D02*
G03*
X200000I0J4700D01*
G37*
G74*
*
G75*
G36*
G01*
Y295300D02*
G03*
X200000I0J4700D01*
G37*
G74*
*
G75*
G36*
G01*
Y305300D02*
G03*
X200000I0J4700D01*
G37*
G74*
*
G75*
G36*
G01*
Y315300D02*
G03*
X200000I0J4700D01*
G37*
G74*
*
G75*
G36*
G01*
Y325300D02*
G03*
X200000I0J4700D01*
G37*
G74*
*
G75*
G36*
G01*
Y335300D02*
G03*
X200000I0J4700D01*
G37*
G74*
*
G75*
G36*
G01*
Y345300D02*
G03*
X200000I0J4700D01*
G37*
G74*
*
G75*
G36*
G01*
Y355300D02*
G03*
X200000I0J4700D01*
G37*
G74*
*
G75*
G36*
G01*
Y365300D02*
G03*
X200000I0J4700D01*
G37*
G74*
*
G75*
G36*
G01*
Y375300D02*
G03*
X200000I0J4700D01*
G37*
G74*
*
G75*
G36*
G01*
Y385300D02*
G03*
X200000I0J4700D01*
G37*
G74*
*
G75*
G36*
G01*
Y395300D02*
G03*
X200000I0J4700D01*
G37*
G74*
*
G75*
G36*
G01*
Y405300D02*
G03*
X200000I0J4700D01*
G37*
G74*
*
G75*
G36*
G01*
Y415300D02*
G03*
X200000I0J4700D01*
G37*
G74*
*
G75*
G36*
G01*
Y425300D02*
G03*
X200000I0J4700D01*
G37*
G74*
*
G75*
G36*
G01*
X180000Y225300D02*
G03*
X180000I0J4700D01*
G37*
G74*
*
G75*
G36*
G01*
Y235300D02*
G03*
X180000I0J4700D01*
G37*
G74*
*
G75*
G36*
G01*
Y245300D02*
G03*
X180000I0J4700D01*
G37*
G74*
*
G75*
G36*
G01*
Y255300D02*
G03*
X180000I0J4700D01*
G37*
G74*
*
G75*
G36*
G01*
Y265300D02*
G03*
X180000I0J4700D01*
G37*
G74*
*
G75*
G36*
G01*
Y275300D02*
G03*
X180000I0J4700D01*
G37*
G74*
*
G75*
G36*
G01*
Y285300D02*
G03*
X180000I0J4700D01*
G37*
G74*
*
G75*
G36*
G01*
Y295300D02*
G03*
X180000I0J4700D01*
G37*
G74*
*
G75*
G36*
G01*
Y305300D02*
G03*
X180000I0J4700D01*
G37*
G74*
*
G75*
G36*
G01*
Y315300D02*
G03*
X180000I0J4700D01*
G37*
G74*
*
G75*
G36*
G01*
Y325300D02*
G03*
X180000I0J4700D01*
G37*
G74*
*
G75*
G36*
G01*
Y335300D02*
G03*
X180000I0J4700D01*
G37*
G74*
*
G75*
G36*
G01*
Y345300D02*
G03*
X180000I0J4700D01*
G37*
G74*
*
G75*
G36*
G01*
Y355300D02*
G03*
X180000I0J4700D01*
G37*
G74*
*
G75*
G36*
G01*
Y365300D02*
G03*
X180000I0J4700D01*
G37*
G74*
*
G75*
G36*
G01*
Y375300D02*
G03*
X180000I0J4700D01*
G37*
G74*
*
G75*
G36*
G01*
Y385300D02*
G03*
X180000I0J4700D01*
G37*
G74*
*
G75*
G36*
G01*
Y395300D02*
G03*
X180000I0J4700D01*
G37*
G74*
*
G75*
G36*
G01*
Y405300D02*
G03*
X180000I0J4700D01*
G37*
G74*
*
G75*
G36*
G01*
Y415300D02*
G03*
X180000I0J4700D01*
G37*
G74*
*
G75*
G36*
G01*
Y425300D02*
G03*
X180000I0J4700D01*
G37*
G74*
*
G75*
G36*
G01*
X160000Y225300D02*
G03*
X160000I0J4700D01*
G37*
G74*
*
G75*
G36*
G01*
Y235300D02*
G03*
X160000I0J4700D01*
G37*
G74*
*
G75*
G36*
G01*
Y245300D02*
G03*
X160000I0J4700D01*
G37*
G74*
*
G75*
G36*
G01*
Y255300D02*
G03*
X160000I0J4700D01*
G37*
G74*
*
G75*
G36*
G01*
Y265300D02*
G03*
X160000I0J4700D01*
G37*
G74*
*
G75*
G36*
G01*
Y275300D02*
G03*
X160000I0J4700D01*
G37*
G74*
*
G75*
G36*
G01*
Y285300D02*
G03*
X160000I0J4700D01*
G37*
G74*
*
G75*
G36*
G01*
Y295300D02*
G03*
X160000I0J4700D01*
G37*
G74*
*
G75*
G36*
G01*
Y305300D02*
G03*
X160000I0J4700D01*
G37*
G74*
*
G75*
G36*
G01*
Y315300D02*
G03*
X160000I0J4700D01*
G37*
G74*
*
G75*
G36*
G01*
Y325300D02*
G03*
X160000I0J4700D01*
G37*
G74*
*
G75*
G36*
G01*
Y335300D02*
G03*
X160000I0J4700D01*
G37*
G74*
*
G75*
G36*
G01*
Y345300D02*
G03*
X160000I0J4700D01*
G37*
G74*
*
G75*
G36*
G01*
Y355300D02*
G03*
X160000I0J4700D01*
G37*
G74*
*
G75*
G36*
G01*
Y365300D02*
G03*
X160000I0J4700D01*
G37*
G74*
*
G75*
G36*
G01*
Y375300D02*
G03*
X160000I0J4700D01*
G37*
G74*
*
G75*
G36*
G01*
Y385300D02*
G03*
X160000I0J4700D01*
G37*
G74*
*
G75*
G36*
G01*
Y395300D02*
G03*
X160000I0J4700D01*
G37*
G74*
*
G75*
G36*
G01*
Y405300D02*
G03*
X160000I0J4700D01*
G37*
G74*
*
G75*
G36*
G01*
Y415300D02*
G03*
X160000I0J4700D01*
G37*
G74*
*
G75*
G36*
G01*
Y425300D02*
G03*
X160000I0J4700D01*
G37*
G74*
*
G75*
G36*
G01*
X150000Y225300D02*
G03*
X150000I0J4700D01*
G37*
G74*
*
G75*
G36*
G01*
Y235300D02*
G03*
X150000I0J4700D01*
G37*
G74*
*
G75*
G36*
G01*
Y245300D02*
G03*
X150000I0J4700D01*
G37*
G74*
*
G75*
G36*
G01*
Y255300D02*
G03*
X150000I0J4700D01*
G37*
G74*
*
G75*
G36*
G01*
Y265300D02*
G03*
X150000I0J4700D01*
G37*
G74*
*
G75*
G36*
G01*
Y275300D02*
G03*
X150000I0J4700D01*
G37*
G74*
*
G75*
G36*
G01*
Y285300D02*
G03*
X150000I0J4700D01*
G37*
G74*
*
G75*
G36*
G01*
Y295300D02*
G03*
X150000I0J4700D01*
G37*
G74*
*
G75*
G36*
G01*
Y305300D02*
G03*
X150000I0J4700D01*
G37*
G74*
*
G75*
G36*
G01*
Y315300D02*
G03*
X150000I0J4700D01*
G37*
G74*
*
G75*
G36*
G01*
Y325300D02*
G03*
X150000I0J4700D01*
G37*
G74*
*
G75*
G36*
G01*
Y335300D02*
G03*
X150000I0J4700D01*
G37*
G74*
*
G75*
G36*
G01*
Y345300D02*
G03*
X150000I0J4700D01*
G37*
G74*
*
G75*
G36*
G01*
Y355300D02*
G03*
X150000I0J4700D01*
G37*
G74*
*
G75*
G36*
G01*
Y365300D02*
G03*
X150000I0J4700D01*
G37*
G74*
*
G75*
G36*
G01*
Y375300D02*
G03*
X150000I0J4700D01*
G37*
G74*
*
G75*
G36*
G01*
Y385300D02*
G03*
X150000I0J4700D01*
G37*
G74*
*
G75*
G36*
G01*
Y395300D02*
G03*
X150000I0J4700D01*
G37*
G74*
*
G75*
G36*
G01*
Y405300D02*
G03*
X150000I0J4700D01*
G37*
G74*
*
G75*
G36*
G01*
Y415300D02*
G03*
X150000I0J4700D01*
G37*
G74*
*
G75*
G36*
G01*
Y425300D02*
G03*
X150000I0J4700D01*
G37*
G74*
*
G75*
G36*
G01*
X140000Y225300D02*
G03*
X140000I0J4700D01*
G37*
G74*
*
G75*
G36*
G01*
Y235300D02*
G03*
X140000I0J4700D01*
G37*
G74*
*
G75*
G36*
G01*
Y245300D02*
G03*
X140000I0J4700D01*
G37*
G74*
*
G75*
G36*
G01*
Y255300D02*
G03*
X140000I0J4700D01*
G37*
G74*
*
G75*
G36*
G01*
Y265300D02*
G03*
X140000I0J4700D01*
G37*
G74*
*
G75*
G36*
G01*
Y275300D02*
G03*
X140000I0J4700D01*
G37*
G74*
*
G75*
G36*
G01*
Y285300D02*
G03*
X140000I0J4700D01*
G37*
G74*
*
G75*
G36*
G01*
Y295300D02*
G03*
X140000I0J4700D01*
G37*
G74*
*
G75*
G36*
G01*
Y305300D02*
G03*
X140000I0J4700D01*
G37*
G74*
*
G75*
G36*
G01*
Y315300D02*
G03*
X140000I0J4700D01*
G37*
G74*
*
G75*
G36*
G01*
Y325300D02*
G03*
X140000I0J4700D01*
G37*
G74*
*
G75*
G36*
G01*
Y335300D02*
G03*
X140000I0J4700D01*
G37*
G74*
*
G75*
G36*
G01*
Y345300D02*
G03*
X140000I0J4700D01*
G37*
G74*
*
G75*
G36*
G01*
Y355300D02*
G03*
X140000I0J4700D01*
G37*
G74*
*
G75*
G36*
G01*
Y365300D02*
G03*
X140000I0J4700D01*
G37*
G74*
*
G75*
G36*
G01*
Y375300D02*
G03*
X140000I0J4700D01*
G37*
G74*
*
G75*
G36*
G01*
Y385300D02*
G03*
X140000I0J4700D01*
G37*
G74*
*
G75*
G36*
G01*
Y395300D02*
G03*
X140000I0J4700D01*
G37*
G74*
*
G75*
G36*
G01*
Y405300D02*
G03*
X140000I0J4700D01*
G37*
G74*
*
G75*
G36*
G01*
Y415300D02*
G03*
X140000I0J4700D01*
G37*
G74*
*
G75*
G36*
G01*
Y425300D02*
G03*
X140000I0J4700D01*
G37*
G74*
*
G75*
G36*
G01*
X120000Y225300D02*
G03*
X120000I0J4700D01*
G37*
G74*
*
G75*
G36*
G01*
Y235300D02*
G03*
X120000I0J4700D01*
G37*
G74*
*
G75*
G36*
G01*
Y245300D02*
G03*
X120000I0J4700D01*
G37*
G74*
*
G75*
G36*
G01*
Y255300D02*
G03*
X120000I0J4700D01*
G37*
G74*
*
G75*
G36*
G01*
Y265300D02*
G03*
X120000I0J4700D01*
G37*
G74*
*
G75*
G36*
G01*
Y275300D02*
G03*
X120000I0J4700D01*
G37*
G74*
*
G75*
G36*
G01*
Y285300D02*
G03*
X120000I0J4700D01*
G37*
G74*
*
G75*
G36*
G01*
Y295300D02*
G03*
X120000I0J4700D01*
G37*
G74*
*
G75*
G36*
G01*
Y305300D02*
G03*
X120000I0J4700D01*
G37*
G74*
*
G75*
G36*
G01*
Y315300D02*
G03*
X120000I0J4700D01*
G37*
G74*
*
G75*
G36*
G01*
Y325300D02*
G03*
X120000I0J4700D01*
G37*
G74*
*
G75*
G36*
G01*
Y335300D02*
G03*
X120000I0J4700D01*
G37*
G74*
*
G75*
G36*
G01*
Y345300D02*
G03*
X120000I0J4700D01*
G37*
G74*
*
G75*
G36*
G01*
Y355300D02*
G03*
X120000I0J4700D01*
G37*
G74*
*
G75*
G36*
G01*
Y365300D02*
G03*
X120000I0J4700D01*
G37*
G74*
*
G75*
G36*
G01*
Y375300D02*
G03*
X120000I0J4700D01*
G37*
G74*
*
G75*
G36*
G01*
Y385300D02*
G03*
X120000I0J4700D01*
G37*
G74*
*
G75*
G36*
G01*
Y395300D02*
G03*
X120000I0J4700D01*
G37*
G74*
*
G75*
G36*
G01*
Y405300D02*
G03*
X120000I0J4700D01*
G37*
G74*
*
G75*
G36*
G01*
Y415300D02*
G03*
X120000I0J4700D01*
G37*
G74*
*
G75*
G36*
G01*
Y425300D02*
G03*
X120000I0J4700D01*
G37*
G74*
*
*
G04 PC Area=ANP002182*
G75*
G36*
G01*
X634000Y160300D02*
G03*
X634000I0J4700D01*
G37*
G74*
*
G75*
G36*
G01*
X631700Y311300D02*
G03*
X631700I0J6700D01*
G37*
G74*
*
G75*
G36*
G01*
Y327800D02*
G03*
X631700I0J6700D01*
G37*
G74*
*
G75*
G36*
G01*
Y344300D02*
G03*
X631700I0J6700D01*
G37*
G74*
*
G75*
G36*
G01*
Y360800D02*
G03*
X631700I0J6700D01*
G37*
G74*
*
G75*
G36*
G01*
Y377300D02*
G03*
X631700I0J6700D01*
G37*
G74*
*
G75*
G36*
G01*
Y393800D02*
G03*
X631700I0J6700D01*
G37*
G74*
*
G75*
G36*
G01*
Y410300D02*
G03*
X631700I0J6700D01*
G37*
G74*
*
G75*
G36*
G01*
Y426800D02*
G03*
X631700I0J6700D01*
G37*
G74*
*
G75*
G36*
G01*
X610000Y327800D02*
G03*
X610000I0J6700D01*
G37*
G74*
*
G75*
G36*
G01*
Y344300D02*
G03*
X610000I0J6700D01*
G37*
G74*
*
G75*
G36*
G01*
Y360800D02*
G03*
X610000I0J6700D01*
G37*
G74*
*
G75*
G36*
G01*
Y377300D02*
G03*
X610000I0J6700D01*
G37*
G74*
*
G75*
G36*
G01*
Y393800D02*
G03*
X610000I0J6700D01*
G37*
G74*
*
G75*
G36*
G01*
Y410300D02*
G03*
X610000I0J6700D01*
G37*
G74*
*
G75*
G36*
G01*
Y426800D02*
G03*
X610000I0J6700D01*
G37*
G74*
*
*
G04 PC Area=ANP002204*
G75*
G36*
G01*
X610000Y176050D02*
G03*
X610000I0J3950D01*
G37*
G74*
*
G75*
G36*
G01*
Y216050D02*
G03*
X610000I0J3950D01*
G37*
G74*
*
G75*
G36*
G01*
X601000Y223050D02*
G03*
X601000I0J3950D01*
G37*
G74*
*
G75*
G36*
G01*
Y253050D02*
G03*
X601000I0J3950D01*
G37*
G74*
*
G75*
G36*
G01*
Y271050D02*
G03*
X601000I0J3950D01*
G37*
G74*
*
*
G04 PC Area=ANP002214*
G75*
G36*
G01*
X631700Y443300D02*
G03*
X631700I0J6700D01*
G37*
G74*
*
G75*
G36*
G01*
X632074Y475782D02*
G02*
X627853Y475819I-2174J-7282D01*
X632074Y475782I2147J4181D01*
G37*
G74*
*
G75*
G36*
G01*
X640000Y475300D02*
G03*
X640000I0J4700D01*
G37*
G74*
*
*
G04 PC Copper Outlines (1)*
G04 Layer Name atlas_2.pcb - dark (1)*
%LPD*%
*
*
G04 PC Area=ANP002225*
G75*
G36*
G01*
X629500Y146357D02*
Y151500D01*
X615500D01*
Y142500D01*
X629500D01*
Y143643D01*
G02*
Y146357I4500J1357D01*
G37*
G74*
*
*
G04 PC Area=ANP002203*
G75*
G36*
G01*
X640500Y173500D02*
Y292500D01*
X639417D01*
G02*
X638500Y292300I-917J2000D01*
G01*
X622500D01*
Y284732D01*
G02*
Y281268I7400J-1732D01*
G01*
Y274357D01*
G02*
Y271643I-4500J-1357D01*
G01*
Y258357D01*
G02*
Y255643I-4500J-1357D01*
G01*
Y243357D01*
G02*
Y240643I-4500J-1357D01*
G01*
Y217357D01*
G02*
Y214643I-4500J-1357D01*
G01*
Y187357D01*
G02*
Y184643I-4500J-1357D01*
G01*
Y173500D01*
X629546D01*
G02*
X638454I4454J1500D01*
G01*
X640500D01*
G37*
G74*
*
*
G04 PC Copper Outlines (2)*
G04 Layer Name atlas_2.pcb - dark (2)*
%LPD*%
*
*
G04 PC Area=Custom_Thermal*
*
G04 PC Custom Flashes*
G04 Layer Name atlas_2.pcb - flashes*
%LPD*%
*
*
G04 PC Circuitry*
G04 Layer Name atlas_2.pcb - circuitry*
%LPD*%
*
G54D11*
G01X160000Y200000D03*
Y180000D03*
Y160000D03*
Y140000D03*
X150000Y440000D03*
Y430000D03*
Y420000D03*
Y410000D03*
Y400000D03*
Y390000D03*
Y380000D03*
Y370000D03*
Y360000D03*
Y350000D03*
Y340000D03*
Y330000D03*
Y320000D03*
Y310000D03*
Y300000D03*
Y290000D03*
Y280000D03*
Y270000D03*
Y260000D03*
Y250000D03*
Y240000D03*
Y230000D03*
Y220000D03*
Y200000D03*
Y180000D03*
Y160000D03*
Y140000D03*
X140000Y200000D03*
Y180000D03*
Y160000D03*
Y140000D03*
X240000Y200000D03*
Y180000D03*
Y160000D03*
Y140000D03*
X230000Y440000D03*
Y430000D03*
Y420000D03*
Y410000D03*
Y400000D03*
Y390000D03*
Y380000D03*
Y370000D03*
Y360000D03*
Y350000D03*
Y340000D03*
Y330000D03*
Y320000D03*
Y310000D03*
Y300000D03*
Y290000D03*
Y280000D03*
Y270000D03*
Y260000D03*
Y250000D03*
Y240000D03*
Y230000D03*
Y220000D03*
Y200000D03*
Y180000D03*
Y160000D03*
Y140000D03*
X220000Y200000D03*
Y180000D03*
Y160000D03*
Y140000D03*
X320000Y200000D03*
Y180000D03*
Y160000D03*
Y140000D03*
X310000Y440000D03*
Y430000D03*
Y420000D03*
Y410000D03*
Y400000D03*
Y390000D03*
Y380000D03*
Y370000D03*
Y360000D03*
Y350000D03*
Y340000D03*
Y330000D03*
Y320000D03*
Y310000D03*
Y300000D03*
Y290000D03*
Y280000D03*
Y270000D03*
Y260000D03*
Y250000D03*
Y240000D03*
Y230000D03*
Y220000D03*
Y200000D03*
Y180000D03*
Y160000D03*
Y140000D03*
X300000Y200000D03*
Y180000D03*
Y160000D03*
Y140000D03*
X400000Y200000D03*
Y180000D03*
Y160000D03*
Y140000D03*
X390000Y440000D03*
Y430000D03*
Y420000D03*
Y410000D03*
Y400000D03*
Y390000D03*
Y380000D03*
Y370000D03*
Y360000D03*
Y350000D03*
Y340000D03*
Y330000D03*
Y320000D03*
Y310000D03*
Y300000D03*
Y290000D03*
Y280000D03*
Y270000D03*
Y260000D03*
Y250000D03*
Y240000D03*
Y230000D03*
Y220000D03*
Y200000D03*
Y180000D03*
Y160000D03*
Y140000D03*
X380000Y200000D03*
Y180000D03*
Y160000D03*
Y140000D03*
X480000Y200000D03*
Y180000D03*
Y160000D03*
Y140000D03*
X470000Y440000D03*
Y430000D03*
Y420000D03*
Y410000D03*
Y400000D03*
Y390000D03*
Y380000D03*
Y370000D03*
Y360000D03*
Y350000D03*
Y340000D03*
Y330000D03*
Y320000D03*
Y310000D03*
Y300000D03*
Y290000D03*
Y280000D03*
Y270000D03*
Y260000D03*
Y250000D03*
Y240000D03*
Y230000D03*
Y220000D03*
Y200000D03*
Y180000D03*
Y160000D03*
Y140000D03*
X460000Y200000D03*
Y180000D03*
Y160000D03*
Y140000D03*
X560000Y200000D03*
Y180000D03*
Y160000D03*
Y140000D03*
X550000Y440000D03*
Y430000D03*
Y420000D03*
Y410000D03*
Y400000D03*
Y390000D03*
Y380000D03*
Y370000D03*
Y360000D03*
Y350000D03*
Y340000D03*
Y330000D03*
Y320000D03*
Y310000D03*
Y300000D03*
Y290000D03*
Y280000D03*
Y270000D03*
Y260000D03*
Y250000D03*
Y240000D03*
Y230000D03*
Y220000D03*
Y200000D03*
Y180000D03*
Y160000D03*
Y140000D03*
X540000Y200000D03*
Y180000D03*
Y160000D03*
Y140000D03*
G54D12*
X160000Y450000D03*
X150000D03*
X140000D03*
X240000D03*
X230000D03*
X220000D03*
X200000D03*
Y200000D03*
Y180000D03*
Y160000D03*
Y140000D03*
X260000Y450000D03*
Y200000D03*
Y180000D03*
Y160000D03*
Y140000D03*
X120000Y450000D03*
Y200000D03*
Y180000D03*
Y160000D03*
Y140000D03*
X180000Y450000D03*
Y200000D03*
Y180000D03*
Y160000D03*
Y140000D03*
X320000Y450000D03*
X310000D03*
X300000D03*
X280000D03*
Y200000D03*
Y180000D03*
Y160000D03*
Y140000D03*
X340000Y450000D03*
Y200000D03*
Y180000D03*
Y160000D03*
Y140000D03*
X400000Y450000D03*
X390000D03*
X380000D03*
X360000D03*
Y200000D03*
Y180000D03*
Y160000D03*
Y140000D03*
X420000Y450000D03*
Y200000D03*
Y180000D03*
Y160000D03*
Y140000D03*
X480000Y450000D03*
X470000D03*
X460000D03*
X440000D03*
Y200000D03*
Y180000D03*
Y160000D03*
Y140000D03*
X500000Y450000D03*
Y200000D03*
Y180000D03*
Y160000D03*
Y140000D03*
X560000Y450000D03*
X550000D03*
X540000D03*
X520000D03*
Y200000D03*
Y180000D03*
Y160000D03*
Y140000D03*
X580000Y450000D03*
Y200000D03*
Y180000D03*
Y160000D03*
Y140000D03*
X634000Y135000D03*
G54D15*
X622000D03*
X610000Y318000D03*
Y351000D03*
Y384000D03*
X610600Y449600D03*
X631700Y301500D03*
Y433500D03*
Y450000D03*
G54D16*
X610000Y301500D03*
G54D19*
X617300Y449600D02*
G75*
G03X617300I-6700J0D01*
G01X599700Y460000D02*
G03X599700I-4700J0D01*
G01X611200Y480000D02*
G03X611200I-11200J0D01*
G01X557950Y470000D02*
G03X557950I-7950J0D01*
G01X477950D02*
G03X477950I-7950J0D01*
G01X397950D02*
G03X397950I-7950J0D01*
G01X317950D02*
G03X317950I-7950J0D01*
G01X237950D02*
G03X237950I-7950J0D01*
G01X157950D02*
G03X157950I-7950J0D01*
G01X126200Y480000D02*
G03X126200I-11200J0D01*
G01X638700Y125000D02*
G03X638700I-4700J0D01*
G01Y145000D02*
G03X638700I-4700J0D01*
G01X626700Y121000D02*
G03X626700I-4700J0D01*
G01X628750Y135000D02*
G03X628750I-6750J0D01*
G01X611200Y115000D02*
G03X611200I-11200J0D01*
G01X609200Y135000D02*
G03X609200I-7200J0D01*
G01X557950Y120000D02*
G03X557950I-7950J0D01*
G01X564700Y140000D02*
G03X564700I-4700J0D01*
G01X554700D02*
G03X554700I-4700J0D01*
G01X544700D02*
G03X544700I-4700J0D01*
G01X477950Y120000D02*
G03X477950I-7950J0D01*
G01X484700Y140000D02*
G03X484700I-4700J0D01*
G01X474700D02*
G03X474700I-4700J0D01*
G01X464700D02*
G03X464700I-4700J0D01*
G01X397950Y120000D02*
G03X397950I-7950J0D01*
G01X404700Y140000D02*
G03X404700I-4700J0D01*
G01X394700D02*
G03X394700I-4700J0D01*
G01X384700D02*
G03X384700I-4700J0D01*
G01X317950Y120000D02*
G03X317950I-7950J0D01*
G01X324700Y140000D02*
G03X324700I-4700J0D01*
G01X314700D02*
G03X314700I-4700J0D01*
G01X304700D02*
G03X304700I-4700J0D01*
G01X237950Y120000D02*
G03X237950I-7950J0D01*
G01X244700Y140000D02*
G03X244700I-4700J0D01*
G01X234700D02*
G03X234700I-4700J0D01*
G01X224700D02*
G03X224700I-4700J0D01*
G01X157950Y120000D02*
G03X157950I-7950J0D01*
G01X164700Y140000D02*
G03X164700I-4700J0D01*
G01X154700D02*
G03X154700I-4700J0D01*
G01X144700D02*
G03X144700I-4700J0D01*
G01X126200Y115000D02*
G03X126200I-11200J0D01*
G01X598950Y186000D02*
G03X598950I-3950J0D01*
G01X584700Y230000D02*
G03X584700I-4700J0D01*
G01Y240000D02*
G03X584700I-4700J0D01*
G01Y250000D02*
G03X584700I-4700J0D01*
G01Y260000D02*
G03X584700I-4700J0D01*
G01Y270000D02*
G03X584700I-4700J0D01*
G01Y280000D02*
G03X584700I-4700J0D01*
G01Y290000D02*
G03X584700I-4700J0D01*
G01Y300000D02*
G03X584700I-4700J0D01*
G01Y310000D02*
G03X584700I-4700J0D01*
G01Y320000D02*
G03X584700I-4700J0D01*
G01Y330000D02*
G03X584700I-4700J0D01*
G01Y340000D02*
G03X584700I-4700J0D01*
G01Y350000D02*
G03X584700I-4700J0D01*
G01Y360000D02*
G03X584700I-4700J0D01*
G01Y370000D02*
G03X584700I-4700J0D01*
G01Y380000D02*
G03X584700I-4700J0D01*
G01Y390000D02*
G03X584700I-4700J0D01*
G01Y400000D02*
G03X584700I-4700J0D01*
G01Y410000D02*
G03X584700I-4700J0D01*
G01Y420000D02*
G03X584700I-4700J0D01*
G01Y430000D02*
G03X584700I-4700J0D01*
G01X564700Y230000D02*
G03X564700I-4700J0D01*
G01Y240000D02*
G03X564700I-4700J0D01*
G01Y250000D02*
G03X564700I-4700J0D01*
G01Y260000D02*
G03X564700I-4700J0D01*
G01Y270000D02*
G03X564700I-4700J0D01*
G01Y280000D02*
G03X564700I-4700J0D01*
G01Y290000D02*
G03X564700I-4700J0D01*
G01Y300000D02*
G03X564700I-4700J0D01*
G01Y310000D02*
G03X564700I-4700J0D01*
G01Y320000D02*
G03X564700I-4700J0D01*
G01Y330000D02*
G03X564700I-4700J0D01*
G01Y340000D02*
G03X564700I-4700J0D01*
G01Y350000D02*
G03X564700I-4700J0D01*
G01Y360000D02*
G03X564700I-4700J0D01*
G01Y370000D02*
G03X564700I-4700J0D01*
G01Y380000D02*
G03X564700I-4700J0D01*
G01Y390000D02*
G03X564700I-4700J0D01*
G01Y400000D02*
G03X564700I-4700J0D01*
G01Y410000D02*
G03X564700I-4700J0D01*
G01Y420000D02*
G03X564700I-4700J0D01*
G01Y430000D02*
G03X564700I-4700J0D01*
G01X554700Y230000D02*
G03X554700I-4700J0D01*
G01Y240000D02*
G03X554700I-4700J0D01*
G01Y250000D02*
G03X554700I-4700J0D01*
G01Y260000D02*
G03X554700I-4700J0D01*
G01Y270000D02*
G03X554700I-4700J0D01*
G01Y280000D02*
G03X554700I-4700J0D01*
G01Y290000D02*
G03X554700I-4700J0D01*
G01Y300000D02*
G03X554700I-4700J0D01*
G01Y310000D02*
G03X554700I-4700J0D01*
G01Y320000D02*
G03X554700I-4700J0D01*
G01Y330000D02*
G03X554700I-4700J0D01*
G01Y340000D02*
G03X554700I-4700J0D01*
G01Y350000D02*
G03X554700I-4700J0D01*
G01Y360000D02*
G03X554700I-4700J0D01*
G01Y370000D02*
G03X554700I-4700J0D01*
G01Y380000D02*
G03X554700I-4700J0D01*
G01Y390000D02*
G03X554700I-4700J0D01*
G01Y400000D02*
G03X554700I-4700J0D01*
G01Y410000D02*
G03X554700I-4700J0D01*
G01Y420000D02*
G03X554700I-4700J0D01*
G01Y430000D02*
G03X554700I-4700J0D01*
G01X544700Y230000D02*
G03X544700I-4700J0D01*
G01Y240000D02*
G03X544700I-4700J0D01*
G01Y250000D02*
G03X544700I-4700J0D01*
G01Y260000D02*
G03X544700I-4700J0D01*
G01Y270000D02*
G03X544700I-4700J0D01*
G01Y280000D02*
G03X544700I-4700J0D01*
G01Y290000D02*
G03X544700I-4700J0D01*
G01Y300000D02*
G03X544700I-4700J0D01*
G01Y310000D02*
G03X544700I-4700J0D01*
G01Y320000D02*
G03X544700I-4700J0D01*
G01Y330000D02*
G03X544700I-4700J0D01*
G01Y340000D02*
G03X544700I-4700J0D01*
G01Y350000D02*
G03X544700I-4700J0D01*
G01Y360000D02*
G03X544700I-4700J0D01*
G01Y370000D02*
G03X544700I-4700J0D01*
G01Y380000D02*
G03X544700I-4700J0D01*
G01Y390000D02*
G03X544700I-4700J0D01*
G01Y400000D02*
G03X544700I-4700J0D01*
G01Y410000D02*
G03X544700I-4700J0D01*
G01Y420000D02*
G03X544700I-4700J0D01*
G01Y430000D02*
G03X544700I-4700J0D01*
G01X524700Y230000D02*
G03X524700I-4700J0D01*
G01Y240000D02*
G03X524700I-4700J0D01*
G01Y250000D02*
G03X524700I-4700J0D01*
G01Y260000D02*
G03X524700I-4700J0D01*
G01Y270000D02*
G03X524700I-4700J0D01*
G01Y280000D02*
G03X524700I-4700J0D01*
G01Y290000D02*
G03X524700I-4700J0D01*
G01Y300000D02*
G03X524700I-4700J0D01*
G01Y310000D02*
G03X524700I-4700J0D01*
G01Y320000D02*
G03X524700I-4700J0D01*
G01Y330000D02*
G03X524700I-4700J0D01*
G01Y340000D02*
G03X524700I-4700J0D01*
G01Y350000D02*
G03X524700I-4700J0D01*
G01Y360000D02*
G03X524700I-4700J0D01*
G01Y370000D02*
G03X524700I-4700J0D01*
G01Y380000D02*
G03X524700I-4700J0D01*
G01Y390000D02*
G03X524700I-4700J0D01*
G01Y400000D02*
G03X524700I-4700J0D01*
G01Y410000D02*
G03X524700I-4700J0D01*
G01Y420000D02*
G03X524700I-4700J0D01*
G01Y430000D02*
G03X524700I-4700J0D01*
G01X504700Y230000D02*
G03X504700I-4700J0D01*
G01Y240000D02*
G03X504700I-4700J0D01*
G01Y250000D02*
G03X504700I-4700J0D01*
G01Y260000D02*
G03X504700I-4700J0D01*
G01Y270000D02*
G03X504700I-4700J0D01*
G01Y280000D02*
G03X504700I-4700J0D01*
G01Y290000D02*
G03X504700I-4700J0D01*
G01Y300000D02*
G03X504700I-4700J0D01*
G01Y310000D02*
G03X504700I-4700J0D01*
G01Y320000D02*
G03X504700I-4700J0D01*
G01Y330000D02*
G03X504700I-4700J0D01*
G01Y340000D02*
G03X504700I-4700J0D01*
G01Y350000D02*
G03X504700I-4700J0D01*
G01Y360000D02*
G03X504700I-4700J0D01*
G01Y370000D02*
G03X504700I-4700J0D01*
G01Y380000D02*
G03X504700I-4700J0D01*
G01Y390000D02*
G03X504700I-4700J0D01*
G01Y400000D02*
G03X504700I-4700J0D01*
G01Y410000D02*
G03X504700I-4700J0D01*
G01Y420000D02*
G03X504700I-4700J0D01*
G01Y430000D02*
G03X504700I-4700J0D01*
G01X484700Y230000D02*
G03X484700I-4700J0D01*
G01Y240000D02*
G03X484700I-4700J0D01*
G01Y250000D02*
G03X484700I-4700J0D01*
G01Y260000D02*
G03X484700I-4700J0D01*
G01Y270000D02*
G03X484700I-4700J0D01*
G01Y280000D02*
G03X484700I-4700J0D01*
G01Y290000D02*
G03X484700I-4700J0D01*
G01Y300000D02*
G03X484700I-4700J0D01*
G01Y310000D02*
G03X484700I-4700J0D01*
G01Y320000D02*
G03X484700I-4700J0D01*
G01Y330000D02*
G03X484700I-4700J0D01*
G01Y340000D02*
G03X484700I-4700J0D01*
G01Y350000D02*
G03X484700I-4700J0D01*
G01Y360000D02*
G03X484700I-4700J0D01*
G01Y370000D02*
G03X484700I-4700J0D01*
G01Y380000D02*
G03X484700I-4700J0D01*
G01Y390000D02*
G03X484700I-4700J0D01*
G01Y400000D02*
G03X484700I-4700J0D01*
G01Y410000D02*
G03X484700I-4700J0D01*
G01Y420000D02*
G03X484700I-4700J0D01*
G01Y430000D02*
G03X484700I-4700J0D01*
G01X474700Y230000D02*
G03X474700I-4700J0D01*
G01Y240000D02*
G03X474700I-4700J0D01*
G01Y250000D02*
G03X474700I-4700J0D01*
G01Y260000D02*
G03X474700I-4700J0D01*
G01Y270000D02*
G03X474700I-4700J0D01*
G01Y280000D02*
G03X474700I-4700J0D01*
G01Y290000D02*
G03X474700I-4700J0D01*
G01Y300000D02*
G03X474700I-4700J0D01*
G01Y310000D02*
G03X474700I-4700J0D01*
G01Y320000D02*
G03X474700I-4700J0D01*
G01Y330000D02*
G03X474700I-4700J0D01*
G01Y340000D02*
G03X474700I-4700J0D01*
G01Y350000D02*
G03X474700I-4700J0D01*
G01Y360000D02*
G03X474700I-4700J0D01*
G01Y370000D02*
G03X474700I-4700J0D01*
G01Y380000D02*
G03X474700I-4700J0D01*
G01Y390000D02*
G03X474700I-4700J0D01*
G01Y400000D02*
G03X474700I-4700J0D01*
G01Y410000D02*
G03X474700I-4700J0D01*
G01Y420000D02*
G03X474700I-4700J0D01*
G01Y430000D02*
G03X474700I-4700J0D01*
G01X464700Y230000D02*
G03X464700I-4700J0D01*
G01Y240000D02*
G03X464700I-4700J0D01*
G01Y250000D02*
G03X464700I-4700J0D01*
G01Y260000D02*
G03X464700I-4700J0D01*
G01Y270000D02*
G03X464700I-4700J0D01*
G01Y280000D02*
G03X464700I-4700J0D01*
G01Y290000D02*
G03X464700I-4700J0D01*
G01Y300000D02*
G03X464700I-4700J0D01*
G01Y310000D02*
G03X464700I-4700J0D01*
G01Y320000D02*
G03X464700I-4700J0D01*
G01Y330000D02*
G03X464700I-4700J0D01*
G01Y340000D02*
G03X464700I-4700J0D01*
G01Y350000D02*
G03X464700I-4700J0D01*
G01Y360000D02*
G03X464700I-4700J0D01*
G01Y370000D02*
G03X464700I-4700J0D01*
G01Y380000D02*
G03X464700I-4700J0D01*
G01Y390000D02*
G03X464700I-4700J0D01*
G01Y400000D02*
G03X464700I-4700J0D01*
G01Y410000D02*
G03X464700I-4700J0D01*
G01Y420000D02*
G03X464700I-4700J0D01*
G01Y430000D02*
G03X464700I-4700J0D01*
G01X444700Y230000D02*
G03X444700I-4700J0D01*
G01Y240000D02*
G03X444700I-4700J0D01*
G01Y250000D02*
G03X444700I-4700J0D01*
G01Y260000D02*
G03X444700I-4700J0D01*
G01Y270000D02*
G03X444700I-4700J0D01*
G01Y280000D02*
G03X444700I-4700J0D01*
G01Y290000D02*
G03X444700I-4700J0D01*
G01Y300000D02*
G03X444700I-4700J0D01*
G01Y310000D02*
G03X444700I-4700J0D01*
G01Y320000D02*
G03X444700I-4700J0D01*
G01Y330000D02*
G03X444700I-4700J0D01*
G01Y340000D02*
G03X444700I-4700J0D01*
G01Y350000D02*
G03X444700I-4700J0D01*
G01Y360000D02*
G03X444700I-4700J0D01*
G01Y370000D02*
G03X444700I-4700J0D01*
G01Y380000D02*
G03X444700I-4700J0D01*
G01Y390000D02*
G03X444700I-4700J0D01*
G01Y400000D02*
G03X444700I-4700J0D01*
G01Y410000D02*
G03X444700I-4700J0D01*
G01Y420000D02*
G03X444700I-4700J0D01*
G01Y430000D02*
G03X444700I-4700J0D01*
G01X424700Y230000D02*
G03X424700I-4700J0D01*
G01Y240000D02*
G03X424700I-4700J0D01*
G01Y250000D02*
G03X424700I-4700J0D01*
G01Y260000D02*
G03X424700I-4700J0D01*
G01Y270000D02*
G03X424700I-4700J0D01*
G01Y280000D02*
G03X424700I-4700J0D01*
G01Y290000D02*
G03X424700I-4700J0D01*
G01Y300000D02*
G03X424700I-4700J0D01*
G01Y310000D02*
G03X424700I-4700J0D01*
G01Y320000D02*
G03X424700I-4700J0D01*
G01Y330000D02*
G03X424700I-4700J0D01*
G01Y340000D02*
G03X424700I-4700J0D01*
G01Y350000D02*
G03X424700I-4700J0D01*
G01Y360000D02*
G03X424700I-4700J0D01*
G01Y370000D02*
G03X424700I-4700J0D01*
G01Y380000D02*
G03X424700I-4700J0D01*
G01Y390000D02*
G03X424700I-4700J0D01*
G01Y400000D02*
G03X424700I-4700J0D01*
G01Y410000D02*
G03X424700I-4700J0D01*
G01Y420000D02*
G03X424700I-4700J0D01*
G01Y430000D02*
G03X424700I-4700J0D01*
G01X404700Y230000D02*
G03X404700I-4700J0D01*
G01Y240000D02*
G03X404700I-4700J0D01*
G01Y250000D02*
G03X404700I-4700J0D01*
G01Y260000D02*
G03X404700I-4700J0D01*
G01Y270000D02*
G03X404700I-4700J0D01*
G01Y280000D02*
G03X404700I-4700J0D01*
G01Y290000D02*
G03X404700I-4700J0D01*
G01Y300000D02*
G03X404700I-4700J0D01*
G01Y310000D02*
G03X404700I-4700J0D01*
G01Y320000D02*
G03X404700I-4700J0D01*
G01Y330000D02*
G03X404700I-4700J0D01*
G01Y340000D02*
G03X404700I-4700J0D01*
G01Y350000D02*
G03X404700I-4700J0D01*
G01Y360000D02*
G03X404700I-4700J0D01*
G01Y370000D02*
G03X404700I-4700J0D01*
G01Y380000D02*
G03X404700I-4700J0D01*
G01Y390000D02*
G03X404700I-4700J0D01*
G01Y400000D02*
G03X404700I-4700J0D01*
G01Y410000D02*
G03X404700I-4700J0D01*
G01Y420000D02*
G03X404700I-4700J0D01*
G01Y430000D02*
G03X404700I-4700J0D01*
G01X394700Y230000D02*
G03X394700I-4700J0D01*
G01Y240000D02*
G03X394700I-4700J0D01*
G01Y250000D02*
G03X394700I-4700J0D01*
G01Y260000D02*
G03X394700I-4700J0D01*
G01Y270000D02*
G03X394700I-4700J0D01*
G01Y280000D02*
G03X394700I-4700J0D01*
G01Y290000D02*
G03X394700I-4700J0D01*
G01Y300000D02*
G03X394700I-4700J0D01*
G01Y310000D02*
G03X394700I-4700J0D01*
G01Y320000D02*
G03X394700I-4700J0D01*
G01Y330000D02*
G03X394700I-4700J0D01*
G01Y340000D02*
G03X394700I-4700J0D01*
G01Y350000D02*
G03X394700I-4700J0D01*
G01Y360000D02*
G03X394700I-4700J0D01*
G01Y370000D02*
G03X394700I-4700J0D01*
G01Y380000D02*
G03X394700I-4700J0D01*
G01Y390000D02*
G03X394700I-4700J0D01*
G01Y400000D02*
G03X394700I-4700J0D01*
G01Y410000D02*
G03X394700I-4700J0D01*
G01Y420000D02*
G03X394700I-4700J0D01*
G01Y430000D02*
G03X394700I-4700J0D01*
G01X384700Y230000D02*
G03X384700I-4700J0D01*
G01Y240000D02*
G03X384700I-4700J0D01*
G01Y250000D02*
G03X384700I-4700J0D01*
G01Y260000D02*
G03X384700I-4700J0D01*
G01Y270000D02*
G03X384700I-4700J0D01*
G01Y280000D02*
G03X384700I-4700J0D01*
G01Y290000D02*
G03X384700I-4700J0D01*
G01Y300000D02*
G03X384700I-4700J0D01*
G01Y310000D02*
G03X384700I-4700J0D01*
G01Y320000D02*
G03X384700I-4700J0D01*
G01Y330000D02*
G03X384700I-4700J0D01*
G01Y340000D02*
G03X384700I-4700J0D01*
G01Y350000D02*
G03X384700I-4700J0D01*
G01Y360000D02*
G03X384700I-4700J0D01*
G01Y370000D02*
G03X384700I-4700J0D01*
G01Y380000D02*
G03X384700I-4700J0D01*
G01Y390000D02*
G03X384700I-4700J0D01*
G01Y400000D02*
G03X384700I-4700J0D01*
G01Y410000D02*
G03X384700I-4700J0D01*
G01Y420000D02*
G03X384700I-4700J0D01*
G01Y430000D02*
G03X384700I-4700J0D01*
G01X364700Y230000D02*
G03X364700I-4700J0D01*
G01Y240000D02*
G03X364700I-4700J0D01*
G01Y250000D02*
G03X364700I-4700J0D01*
G01Y260000D02*
G03X364700I-4700J0D01*
G01Y270000D02*
G03X364700I-4700J0D01*
G01Y280000D02*
G03X364700I-4700J0D01*
G01Y290000D02*
G03X364700I-4700J0D01*
G01Y300000D02*
G03X364700I-4700J0D01*
G01Y310000D02*
G03X364700I-4700J0D01*
G01Y320000D02*
G03X364700I-4700J0D01*
G01Y330000D02*
G03X364700I-4700J0D01*
G01Y340000D02*
G03X364700I-4700J0D01*
G01Y350000D02*
G03X364700I-4700J0D01*
G01Y360000D02*
G03X364700I-4700J0D01*
G01Y370000D02*
G03X364700I-4700J0D01*
G01Y380000D02*
G03X364700I-4700J0D01*
G01Y390000D02*
G03X364700I-4700J0D01*
G01Y400000D02*
G03X364700I-4700J0D01*
G01Y410000D02*
G03X364700I-4700J0D01*
G01Y420000D02*
G03X364700I-4700J0D01*
G01Y430000D02*
G03X364700I-4700J0D01*
G01X344700Y230000D02*
G03X344700I-4700J0D01*
G01Y240000D02*
G03X344700I-4700J0D01*
G01Y250000D02*
G03X344700I-4700J0D01*
G01Y260000D02*
G03X344700I-4700J0D01*
G01Y270000D02*
G03X344700I-4700J0D01*
G01Y280000D02*
G03X344700I-4700J0D01*
G01Y290000D02*
G03X344700I-4700J0D01*
G01Y300000D02*
G03X344700I-4700J0D01*
G01Y310000D02*
G03X344700I-4700J0D01*
G01Y320000D02*
G03X344700I-4700J0D01*
G01Y330000D02*
G03X344700I-4700J0D01*
G01Y340000D02*
G03X344700I-4700J0D01*
G01Y350000D02*
G03X344700I-4700J0D01*
G01Y360000D02*
G03X344700I-4700J0D01*
G01Y370000D02*
G03X344700I-4700J0D01*
G01Y380000D02*
G03X344700I-4700J0D01*
G01Y390000D02*
G03X344700I-4700J0D01*
G01Y400000D02*
G03X344700I-4700J0D01*
G01Y410000D02*
G03X344700I-4700J0D01*
G01Y420000D02*
G03X344700I-4700J0D01*
G01Y430000D02*
G03X344700I-4700J0D01*
G01X324700Y230000D02*
G03X324700I-4700J0D01*
G01Y240000D02*
G03X324700I-4700J0D01*
G01Y250000D02*
G03X324700I-4700J0D01*
G01Y260000D02*
G03X324700I-4700J0D01*
G01Y270000D02*
G03X324700I-4700J0D01*
G01Y280000D02*
G03X324700I-4700J0D01*
G01Y290000D02*
G03X324700I-4700J0D01*
G01Y300000D02*
G03X324700I-4700J0D01*
G01Y310000D02*
G03X324700I-4700J0D01*
G01Y320000D02*
G03X324700I-4700J0D01*
G01Y330000D02*
G03X324700I-4700J0D01*
G01Y340000D02*
G03X324700I-4700J0D01*
G01Y350000D02*
G03X324700I-4700J0D01*
G01Y360000D02*
G03X324700I-4700J0D01*
G01Y370000D02*
G03X324700I-4700J0D01*
G01Y380000D02*
G03X324700I-4700J0D01*
G01Y390000D02*
G03X324700I-4700J0D01*
G01Y400000D02*
G03X324700I-4700J0D01*
G01Y410000D02*
G03X324700I-4700J0D01*
G01Y420000D02*
G03X324700I-4700J0D01*
G01Y430000D02*
G03X324700I-4700J0D01*
G01X314700Y230000D02*
G03X314700I-4700J0D01*
G01Y240000D02*
G03X314700I-4700J0D01*
G01Y250000D02*
G03X314700I-4700J0D01*
G01Y260000D02*
G03X314700I-4700J0D01*
G01Y270000D02*
G03X314700I-4700J0D01*
G01Y280000D02*
G03X314700I-4700J0D01*
G01Y290000D02*
G03X314700I-4700J0D01*
G01Y300000D02*
G03X314700I-4700J0D01*
G01Y310000D02*
G03X314700I-4700J0D01*
G01Y320000D02*
G03X314700I-4700J0D01*
G01Y330000D02*
G03X314700I-4700J0D01*
G01Y340000D02*
G03X314700I-4700J0D01*
G01Y350000D02*
G03X314700I-4700J0D01*
G01Y360000D02*
G03X314700I-4700J0D01*
G01Y370000D02*
G03X314700I-4700J0D01*
G01Y380000D02*
G03X314700I-4700J0D01*
G01Y390000D02*
G03X314700I-4700J0D01*
G01Y400000D02*
G03X314700I-4700J0D01*
G01Y410000D02*
G03X314700I-4700J0D01*
G01Y420000D02*
G03X314700I-4700J0D01*
G01Y430000D02*
G03X314700I-4700J0D01*
G01X304700Y230000D02*
G03X304700I-4700J0D01*
G01Y240000D02*
G03X304700I-4700J0D01*
G01Y250000D02*
G03X304700I-4700J0D01*
G01Y260000D02*
G03X304700I-4700J0D01*
G01Y270000D02*
G03X304700I-4700J0D01*
G01Y280000D02*
G03X304700I-4700J0D01*
G01Y290000D02*
G03X304700I-4700J0D01*
G01Y300000D02*
G03X304700I-4700J0D01*
G01Y310000D02*
G03X304700I-4700J0D01*
G01Y320000D02*
G03X304700I-4700J0D01*
G01Y330000D02*
G03X304700I-4700J0D01*
G01Y340000D02*
G03X304700I-4700J0D01*
G01Y350000D02*
G03X304700I-4700J0D01*
G01Y360000D02*
G03X304700I-4700J0D01*
G01Y370000D02*
G03X304700I-4700J0D01*
G01Y380000D02*
G03X304700I-4700J0D01*
G01Y390000D02*
G03X304700I-4700J0D01*
G01Y400000D02*
G03X304700I-4700J0D01*
G01Y410000D02*
G03X304700I-4700J0D01*
G01Y420000D02*
G03X304700I-4700J0D01*
G01Y430000D02*
G03X304700I-4700J0D01*
G01X284700Y230000D02*
G03X284700I-4700J0D01*
G01Y240000D02*
G03X284700I-4700J0D01*
G01Y250000D02*
G03X284700I-4700J0D01*
G01Y260000D02*
G03X284700I-4700J0D01*
G01Y270000D02*
G03X284700I-4700J0D01*
G01Y280000D02*
G03X284700I-4700J0D01*
G01Y290000D02*
G03X284700I-4700J0D01*
G01Y300000D02*
G03X284700I-4700J0D01*
G01Y310000D02*
G03X284700I-4700J0D01*
G01Y320000D02*
G03X284700I-4700J0D01*
G01Y330000D02*
G03X284700I-4700J0D01*
G01Y340000D02*
G03X284700I-4700J0D01*
G01Y350000D02*
G03X284700I-4700J0D01*
G01Y360000D02*
G03X284700I-4700J0D01*
G01Y370000D02*
G03X284700I-4700J0D01*
G01Y380000D02*
G03X284700I-4700J0D01*
G01Y390000D02*
G03X284700I-4700J0D01*
G01Y400000D02*
G03X284700I-4700J0D01*
G01Y410000D02*
G03X284700I-4700J0D01*
G01Y420000D02*
G03X284700I-4700J0D01*
G01Y430000D02*
G03X284700I-4700J0D01*
G01X264700Y230000D02*
G03X264700I-4700J0D01*
G01Y240000D02*
G03X264700I-4700J0D01*
G01Y250000D02*
G03X264700I-4700J0D01*
G01Y260000D02*
G03X264700I-4700J0D01*
G01Y270000D02*
G03X264700I-4700J0D01*
G01Y280000D02*
G03X264700I-4700J0D01*
G01Y290000D02*
G03X264700I-4700J0D01*
G01Y300000D02*
G03X264700I-4700J0D01*
G01Y310000D02*
G03X264700I-4700J0D01*
G01Y320000D02*
G03X264700I-4700J0D01*
G01Y330000D02*
G03X264700I-4700J0D01*
G01Y340000D02*
G03X264700I-4700J0D01*
G01Y350000D02*
G03X264700I-4700J0D01*
G01Y360000D02*
G03X264700I-4700J0D01*
G01Y370000D02*
G03X264700I-4700J0D01*
G01Y380000D02*
G03X264700I-4700J0D01*
G01Y390000D02*
G03X264700I-4700J0D01*
G01Y400000D02*
G03X264700I-4700J0D01*
G01Y410000D02*
G03X264700I-4700J0D01*
G01Y420000D02*
G03X264700I-4700J0D01*
G01Y430000D02*
G03X264700I-4700J0D01*
G01X244700Y230000D02*
G03X244700I-4700J0D01*
G01Y240000D02*
G03X244700I-4700J0D01*
G01Y250000D02*
G03X244700I-4700J0D01*
G01Y260000D02*
G03X244700I-4700J0D01*
G01Y270000D02*
G03X244700I-4700J0D01*
G01Y280000D02*
G03X244700I-4700J0D01*
G01Y290000D02*
G03X244700I-4700J0D01*
G01Y300000D02*
G03X244700I-4700J0D01*
G01Y310000D02*
G03X244700I-4700J0D01*
G01Y320000D02*
G03X244700I-4700J0D01*
G01Y330000D02*
G03X244700I-4700J0D01*
G01Y340000D02*
G03X244700I-4700J0D01*
G01Y350000D02*
G03X244700I-4700J0D01*
G01Y360000D02*
G03X244700I-4700J0D01*
G01Y370000D02*
G03X244700I-4700J0D01*
G01Y380000D02*
G03X244700I-4700J0D01*
G01Y390000D02*
G03X244700I-4700J0D01*
G01Y400000D02*
G03X244700I-4700J0D01*
G01Y410000D02*
G03X244700I-4700J0D01*
G01Y420000D02*
G03X244700I-4700J0D01*
G01Y430000D02*
G03X244700I-4700J0D01*
G01X234700Y230000D02*
G03X234700I-4700J0D01*
G01Y240000D02*
G03X234700I-4700J0D01*
G01Y250000D02*
G03X234700I-4700J0D01*
G01Y260000D02*
G03X234700I-4700J0D01*
G01Y270000D02*
G03X234700I-4700J0D01*
G01Y280000D02*
G03X234700I-4700J0D01*
G01Y290000D02*
G03X234700I-4700J0D01*
G01Y300000D02*
G03X234700I-4700J0D01*
G01Y310000D02*
G03X234700I-4700J0D01*
G01Y320000D02*
G03X234700I-4700J0D01*
G01Y330000D02*
G03X234700I-4700J0D01*
G01Y340000D02*
G03X234700I-4700J0D01*
G01Y350000D02*
G03X234700I-4700J0D01*
G01Y360000D02*
G03X234700I-4700J0D01*
G01Y370000D02*
G03X234700I-4700J0D01*
G01Y380000D02*
G03X234700I-4700J0D01*
G01Y390000D02*
G03X234700I-4700J0D01*
G01Y400000D02*
G03X234700I-4700J0D01*
G01Y410000D02*
G03X234700I-4700J0D01*
G01Y420000D02*
G03X234700I-4700J0D01*
G01Y430000D02*
G03X234700I-4700J0D01*
G01X224700Y230000D02*
G03X224700I-4700J0D01*
G01Y240000D02*
G03X224700I-4700J0D01*
G01Y250000D02*
G03X224700I-4700J0D01*
G01Y260000D02*
G03X224700I-4700J0D01*
G01Y270000D02*
G03X224700I-4700J0D01*
G01Y280000D02*
G03X224700I-4700J0D01*
G01Y290000D02*
G03X224700I-4700J0D01*
G01Y300000D02*
G03X224700I-4700J0D01*
G01Y310000D02*
G03X224700I-4700J0D01*
G01Y320000D02*
G03X224700I-4700J0D01*
G01Y330000D02*
G03X224700I-4700J0D01*
G01Y340000D02*
G03X224700I-4700J0D01*
G01Y350000D02*
G03X224700I-4700J0D01*
G01Y360000D02*
G03X224700I-4700J0D01*
G01Y370000D02*
G03X224700I-4700J0D01*
G01Y380000D02*
G03X224700I-4700J0D01*
G01Y390000D02*
G03X224700I-4700J0D01*
G01Y400000D02*
G03X224700I-4700J0D01*
G01Y410000D02*
G03X224700I-4700J0D01*
G01Y420000D02*
G03X224700I-4700J0D01*
G01Y430000D02*
G03X224700I-4700J0D01*
G01X204700Y230000D02*
G03X204700I-4700J0D01*
G01Y240000D02*
G03X204700I-4700J0D01*
G01Y250000D02*
G03X204700I-4700J0D01*
G01Y260000D02*
G03X204700I-4700J0D01*
G01Y270000D02*
G03X204700I-4700J0D01*
G01Y280000D02*
G03X204700I-4700J0D01*
G01Y290000D02*
G03X204700I-4700J0D01*
G01Y300000D02*
G03X204700I-4700J0D01*
G01Y310000D02*
G03X204700I-4700J0D01*
G01Y320000D02*
G03X204700I-4700J0D01*
G01Y330000D02*
G03X204700I-4700J0D01*
G01Y340000D02*
G03X204700I-4700J0D01*
G01Y350000D02*
G03X204700I-4700J0D01*
G01Y360000D02*
G03X204700I-4700J0D01*
G01Y370000D02*
G03X204700I-4700J0D01*
G01Y380000D02*
G03X204700I-4700J0D01*
G01Y390000D02*
G03X204700I-4700J0D01*
G01Y400000D02*
G03X204700I-4700J0D01*
G01Y410000D02*
G03X204700I-4700J0D01*
G01Y420000D02*
G03X204700I-4700J0D01*
G01Y430000D02*
G03X204700I-4700J0D01*
G01X184700Y230000D02*
G03X184700I-4700J0D01*
G01Y240000D02*
G03X184700I-4700J0D01*
G01Y250000D02*
G03X184700I-4700J0D01*
G01Y260000D02*
G03X184700I-4700J0D01*
G01Y270000D02*
G03X184700I-4700J0D01*
G01Y280000D02*
G03X184700I-4700J0D01*
G01Y290000D02*
G03X184700I-4700J0D01*
G01Y300000D02*
G03X184700I-4700J0D01*
G01Y310000D02*
G03X184700I-4700J0D01*
G01Y320000D02*
G03X184700I-4700J0D01*
G01Y330000D02*
G03X184700I-4700J0D01*
G01Y340000D02*
G03X184700I-4700J0D01*
G01Y350000D02*
G03X184700I-4700J0D01*
G01Y360000D02*
G03X184700I-4700J0D01*
G01Y370000D02*
G03X184700I-4700J0D01*
G01Y380000D02*
G03X184700I-4700J0D01*
G01Y390000D02*
G03X184700I-4700J0D01*
G01Y400000D02*
G03X184700I-4700J0D01*
G01Y410000D02*
G03X184700I-4700J0D01*
G01Y420000D02*
G03X184700I-4700J0D01*
G01Y430000D02*
G03X184700I-4700J0D01*
G01X164700Y230000D02*
G03X164700I-4700J0D01*
G01Y240000D02*
G03X164700I-4700J0D01*
G01Y250000D02*
G03X164700I-4700J0D01*
G01Y260000D02*
G03X164700I-4700J0D01*
G01Y270000D02*
G03X164700I-4700J0D01*
G01Y280000D02*
G03X164700I-4700J0D01*
G01Y290000D02*
G03X164700I-4700J0D01*
G01Y300000D02*
G03X164700I-4700J0D01*
G01Y310000D02*
G03X164700I-4700J0D01*
G01Y320000D02*
G03X164700I-4700J0D01*
G01Y330000D02*
G03X164700I-4700J0D01*
G01Y340000D02*
G03X164700I-4700J0D01*
G01Y350000D02*
G03X164700I-4700J0D01*
G01Y360000D02*
G03X164700I-4700J0D01*
G01Y370000D02*
G03X164700I-4700J0D01*
G01Y380000D02*
G03X164700I-4700J0D01*
G01Y390000D02*
G03X164700I-4700J0D01*
G01Y400000D02*
G03X164700I-4700J0D01*
G01Y410000D02*
G03X164700I-4700J0D01*
G01Y420000D02*
G03X164700I-4700J0D01*
G01Y430000D02*
G03X164700I-4700J0D01*
G01X154700Y230000D02*
G03X154700I-4700J0D01*
G01Y240000D02*
G03X154700I-4700J0D01*
G01Y250000D02*
G03X154700I-4700J0D01*
G01Y260000D02*
G03X154700I-4700J0D01*
G01Y270000D02*
G03X154700I-4700J0D01*
G01Y280000D02*
G03X154700I-4700J0D01*
G01Y290000D02*
G03X154700I-4700J0D01*
G01Y300000D02*
G03X154700I-4700J0D01*
G01Y310000D02*
G03X154700I-4700J0D01*
G01Y320000D02*
G03X154700I-4700J0D01*
G01Y330000D02*
G03X154700I-4700J0D01*
G01Y340000D02*
G03X154700I-4700J0D01*
G01Y350000D02*
G03X154700I-4700J0D01*
G01Y360000D02*
G03X154700I-4700J0D01*
G01Y370000D02*
G03X154700I-4700J0D01*
G01Y380000D02*
G03X154700I-4700J0D01*
G01Y390000D02*
G03X154700I-4700J0D01*
G01Y400000D02*
G03X154700I-4700J0D01*
G01Y410000D02*
G03X154700I-4700J0D01*
G01Y420000D02*
G03X154700I-4700J0D01*
G01Y430000D02*
G03X154700I-4700J0D01*
G01X144700Y230000D02*
G03X144700I-4700J0D01*
G01Y240000D02*
G03X144700I-4700J0D01*
G01Y250000D02*
G03X144700I-4700J0D01*
G01Y260000D02*
G03X144700I-4700J0D01*
G01Y270000D02*
G03X144700I-4700J0D01*
G01Y280000D02*
G03X144700I-4700J0D01*
G01Y290000D02*
G03X144700I-4700J0D01*
G01Y300000D02*
G03X144700I-4700J0D01*
G01Y310000D02*
G03X144700I-4700J0D01*
G01Y320000D02*
G03X144700I-4700J0D01*
G01Y330000D02*
G03X144700I-4700J0D01*
G01Y340000D02*
G03X144700I-4700J0D01*
G01Y350000D02*
G03X144700I-4700J0D01*
G01Y360000D02*
G03X144700I-4700J0D01*
G01Y370000D02*
G03X144700I-4700J0D01*
G01Y380000D02*
G03X144700I-4700J0D01*
G01Y390000D02*
G03X144700I-4700J0D01*
G01Y400000D02*
G03X144700I-4700J0D01*
G01Y410000D02*
G03X144700I-4700J0D01*
G01Y420000D02*
G03X144700I-4700J0D01*
G01Y430000D02*
G03X144700I-4700J0D01*
G01X124700Y230000D02*
G03X124700I-4700J0D01*
G01Y240000D02*
G03X124700I-4700J0D01*
G01Y250000D02*
G03X124700I-4700J0D01*
G01Y260000D02*
G03X124700I-4700J0D01*
G01Y270000D02*
G03X124700I-4700J0D01*
G01Y280000D02*
G03X124700I-4700J0D01*
G01Y290000D02*
G03X124700I-4700J0D01*
G01Y300000D02*
G03X124700I-4700J0D01*
G01Y310000D02*
G03X124700I-4700J0D01*
G01Y320000D02*
G03X124700I-4700J0D01*
G01Y330000D02*
G03X124700I-4700J0D01*
G01Y340000D02*
G03X124700I-4700J0D01*
G01Y350000D02*
G03X124700I-4700J0D01*
G01Y360000D02*
G03X124700I-4700J0D01*
G01Y370000D02*
G03X124700I-4700J0D01*
G01Y380000D02*
G03X124700I-4700J0D01*
G01Y390000D02*
G03X124700I-4700J0D01*
G01Y400000D02*
G03X124700I-4700J0D01*
G01Y410000D02*
G03X124700I-4700J0D01*
G01Y420000D02*
G03X124700I-4700J0D01*
G01Y430000D02*
G03X124700I-4700J0D01*
G01X638700Y165000D02*
G03X638700I-4700J0D01*
G01X638400Y318000D02*
G03X638400I-6700J0D01*
G01Y334500D02*
G03X638400I-6700J0D01*
G01Y351000D02*
G03X638400I-6700J0D01*
G01Y367500D02*
G03X638400I-6700J0D01*
G01Y384000D02*
G03X638400I-6700J0D01*
G01Y400500D02*
G03X638400I-6700J0D01*
G01Y417000D02*
G03X638400I-6700J0D01*
G01Y433500D02*
G03X638400I-6700J0D01*
G01X616700Y334500D02*
G03X616700I-6700J0D01*
G01Y351000D02*
G03X616700I-6700J0D01*
G01Y367500D02*
G03X616700I-6700J0D01*
G01Y384000D02*
G03X616700I-6700J0D01*
G01Y400500D02*
G03X616700I-6700J0D01*
G01Y417000D02*
G03X616700I-6700J0D01*
G01Y433500D02*
G03X616700I-6700J0D01*
G01X613950Y180000D02*
G03X613950I-3950J0D01*
G01Y220000D02*
G03X613950I-3950J0D01*
G01X604950Y227000D02*
G03X604950I-3950J0D01*
G01Y257000D02*
G03X604950I-3950J0D01*
G01Y275000D02*
G03X604950I-3950J0D01*
G01X638400Y450000D02*
G03X638400I-6700J0D01*
G01X644700Y480000D02*
G03X644700I-4700J0D01*
G01X619300Y458344D02*
Y492500D01*
X101500*
Y443700*
X117102*
X122898D02*
G03X117102I-2898J-3700D01*
G01X122898D02*
X137102D01*
X142898D02*
G03X137102I-2898J-3700D01*
G01X142898D02*
X147102D01*
X152898D02*
G03X147102I-2898J-3700D01*
G01X152898D02*
X157102D01*
X162898D02*
G03X157102I-2898J-3700D01*
G01X162898D02*
X177102D01*
X182898D02*
G03X177102I-2898J-3700D01*
G01X182898D02*
X197102D01*
X202898D02*
G03X197102I-2898J-3700D01*
G01X202898D02*
X217102D01*
X222898D02*
G03X217102I-2898J-3700D01*
G01X222898D02*
X227102D01*
X232898D02*
G03X227102I-2898J-3700D01*
G01X232898D02*
X237102D01*
X242898D02*
G03X237102I-2898J-3700D01*
G01X242898D02*
X257102D01*
X262898D02*
G03X257102I-2898J-3700D01*
G01X262898D02*
X277102D01*
X282898D02*
G03X277102I-2898J-3700D01*
G01X282898D02*
X297102D01*
X302898D02*
G03X297102I-2898J-3700D01*
G01X302898D02*
X307102D01*
X312898D02*
G03X307102I-2898J-3700D01*
G01X312898D02*
X317102D01*
X322898D02*
G03X317102I-2898J-3700D01*
G01X322898D02*
X337102D01*
X342898D02*
G03X337102I-2898J-3700D01*
G01X342898D02*
X357102D01*
X362898D02*
G03X357102I-2898J-3700D01*
G01X362898D02*
X377102D01*
X382898D02*
G03X377102I-2898J-3700D01*
G01X382898D02*
X387102D01*
X392898D02*
G03X387102I-2898J-3700D01*
G01X392898D02*
X397102D01*
X402898D02*
G03X397102I-2898J-3700D01*
G01X402898D02*
X417102D01*
X422898D02*
G03X417102I-2898J-3700D01*
G01X422898D02*
X437102D01*
X442898D02*
G03X437102I-2898J-3700D01*
G01X442898D02*
X457102D01*
X462898D02*
G03X457102I-2898J-3700D01*
G01X462898D02*
X467102D01*
X472898D02*
G03X467102I-2898J-3700D01*
G01X472898D02*
X477102D01*
X482898D02*
G03X477102I-2898J-3700D01*
G01X482898D02*
X497102D01*
X502898D02*
G03X497102I-2898J-3700D01*
G01X502898D02*
X517102D01*
X522898D02*
G03X517102I-2898J-3700D01*
G01X522898D02*
X537102D01*
X542898D02*
G03X537102I-2898J-3700D01*
G01X542898D02*
X547102D01*
X552898D02*
G03X547102I-2898J-3700D01*
G01X552898D02*
X557102D01*
X562898D02*
G03X557102I-2898J-3700D01*
G01X562898D02*
X577102D01*
X582898D02*
G03X577102I-2898J-3700D01*
G01X582898D02*
X586500D01*
X588460Y442500D02*
G03X586500Y443700I-1960J-1000D01*
G01X588460Y442500D02*
X588583D01*
X589500Y442700D02*
G03X588583Y442500I0J-2200D01*
G01X589500Y442700D02*
X618300D01*
Y456500*
X619300Y458344D02*
G03X618300Y456500I1200J-1844D01*
G01X648500Y101500D02*
Y154500D01*
X638673*
X629327D02*
G03X638673I4673J500D01*
G01X629327D02*
X621700D01*
X619500Y152300D02*
G03X621700Y154500I0J2200D01*
G01X619500Y152300D02*
X584099D01*
X575901D02*
G03X584099I4099J-2300D01*
G01X575901D02*
X564099D01*
X555901D02*
G03X564099I4099J-2300D01*
G01X555901D02*
X554099D01*
X545901D02*
G03X554099I4099J-2300D01*
G01X545901D02*
X544099D01*
X535901D02*
G03X544099I4099J-2300D01*
G01X535901D02*
X524099D01*
X515901D02*
G03X524099I4099J-2300D01*
G01X515901D02*
X504099D01*
X495901D02*
G03X504099I4099J-2300D01*
G01X495901D02*
X484099D01*
X475901D02*
G03X484099I4099J-2300D01*
G01X475901D02*
X474099D01*
X465901D02*
G03X474099I4099J-2300D01*
G01X465901D02*
X464099D01*
X455901D02*
G03X464099I4099J-2300D01*
G01X455901D02*
X444099D01*
X435901D02*
G03X444099I4099J-2300D01*
G01X435901D02*
X424099D01*
X415901D02*
G03X424099I4099J-2300D01*
G01X415901D02*
X404099D01*
X395901D02*
G03X404099I4099J-2300D01*
G01X395901D02*
X394099D01*
X385901D02*
G03X394099I4099J-2300D01*
G01X385901D02*
X384099D01*
X375901D02*
G03X384099I4099J-2300D01*
G01X375901D02*
X364099D01*
X355901D02*
G03X364099I4099J-2300D01*
G01X355901D02*
X344099D01*
X335901D02*
G03X344099I4099J-2300D01*
G01X335901D02*
X324099D01*
X315901D02*
G03X324099I4099J-2300D01*
G01X315901D02*
X314099D01*
X305901D02*
G03X314099I4099J-2300D01*
G01X305901D02*
X304099D01*
X295901D02*
G03X304099I4099J-2300D01*
G01X295901D02*
X284099D01*
X275901D02*
G03X284099I4099J-2300D01*
G01X275901D02*
X264099D01*
X255901D02*
G03X264099I4099J-2300D01*
G01X255901D02*
X244099D01*
X235901D02*
G03X244099I4099J-2300D01*
G01X235901D02*
X234099D01*
X225901D02*
G03X234099I4099J-2300D01*
G01X225901D02*
X224099D01*
X215901D02*
G03X224099I4099J-2300D01*
G01X215901D02*
X204099D01*
X195901D02*
G03X204099I4099J-2300D01*
G01X195901D02*
X184099D01*
X175901D02*
G03X184099I4099J-2300D01*
G01X175901D02*
X164099D01*
X155901D02*
G03X164099I4099J-2300D01*
G01X155901D02*
X154099D01*
X145901D02*
G03X154099I4099J-2300D01*
G01X145901D02*
X144099D01*
X135901D02*
G03X144099I4099J-2300D01*
G01X135901D02*
X124099D01*
X115901D02*
G03X124099I4099J-2300D01*
G01X115901D02*
X101500D01*
Y101500*
X648500*
X619300Y156700D02*
Y174500D01*
X601460*
X599500Y173300D02*
G03X601460Y174500I0J2200D01*
G01X599500Y173300D02*
X583347D01*
X576653D02*
G03X583347I3347J-3300D01*
G01X576653D02*
X563347D01*
X556653D02*
G03X563347I3347J-3300D01*
G01X556653D02*
X553347D01*
X546653D02*
G03X553347I3347J-3300D01*
G01X546653D02*
X543347D01*
X536653D02*
G03X543347I3347J-3300D01*
G01X536653D02*
X523347D01*
X516653D02*
G03X523347I3347J-3300D01*
G01X516653D02*
X503347D01*
X496653D02*
G03X503347I3347J-3300D01*
G01X496653D02*
X483347D01*
X476653D02*
G03X483347I3347J-3300D01*
G01X476653D02*
X473347D01*
X466653D02*
G03X473347I3347J-3300D01*
G01X466653D02*
X463347D01*
X456653D02*
G03X463347I3347J-3300D01*
G01X456653D02*
X443347D01*
X436653D02*
G03X443347I3347J-3300D01*
G01X436653D02*
X423347D01*
X416653D02*
G03X423347I3347J-3300D01*
G01X416653D02*
X403347D01*
X396653D02*
G03X403347I3347J-3300D01*
G01X396653D02*
X393347D01*
X386653D02*
G03X393347I3347J-3300D01*
G01X386653D02*
X383347D01*
X376653D02*
G03X383347I3347J-3300D01*
G01X376653D02*
X363347D01*
X356653D02*
G03X363347I3347J-3300D01*
G01X356653D02*
X343347D01*
X336653D02*
G03X343347I3347J-3300D01*
G01X336653D02*
X323347D01*
X316653D02*
G03X323347I3347J-3300D01*
G01X316653D02*
X313347D01*
X306653D02*
G03X313347I3347J-3300D01*
G01X306653D02*
X303347D01*
X296653D02*
G03X303347I3347J-3300D01*
G01X296653D02*
X283347D01*
X276653D02*
G03X283347I3347J-3300D01*
G01X276653D02*
X263347D01*
X256653D02*
G03X263347I3347J-3300D01*
G01X256653D02*
X243347D01*
X236653D02*
G03X243347I3347J-3300D01*
G01X236653D02*
X233347D01*
X226653D02*
G03X233347I3347J-3300D01*
G01X226653D02*
X223347D01*
X216653D02*
G03X223347I3347J-3300D01*
G01X216653D02*
X203347D01*
X196653D02*
G03X203347I3347J-3300D01*
G01X196653D02*
X183347D01*
X176653D02*
G03X183347I3347J-3300D01*
G01X176653D02*
X163347D01*
X156653D02*
G03X163347I3347J-3300D01*
G01X156653D02*
X153347D01*
X146653D02*
G03X153347I3347J-3300D01*
G01X146653D02*
X143347D01*
X136653D02*
G03X143347I3347J-3300D01*
G01X136653D02*
X123347D01*
X116653D02*
G03X123347I3347J-3300D01*
G01X116653D02*
X101500D01*
Y156700*
X136653*
X143347D02*
G03X136653I-3347J3300D01*
G01X143347D02*
X146653D01*
X153347D02*
G03X146653I-3347J3300D01*
G01X153347D02*
X156653D01*
X163347D02*
G03X156653I-3347J3300D01*
G01X163347D02*
X216653D01*
X223347D02*
G03X216653I-3347J3300D01*
G01X223347D02*
X226653D01*
X233347D02*
G03X226653I-3347J3300D01*
G01X233347D02*
X236653D01*
X243347D02*
G03X236653I-3347J3300D01*
G01X243347D02*
X296653D01*
X303347D02*
G03X296653I-3347J3300D01*
G01X303347D02*
X306653D01*
X313347D02*
G03X306653I-3347J3300D01*
G01X313347D02*
X316653D01*
X323347D02*
G03X316653I-3347J3300D01*
G01X323347D02*
X376653D01*
X383347D02*
G03X376653I-3347J3300D01*
G01X383347D02*
X386653D01*
X393347D02*
G03X386653I-3347J3300D01*
G01X393347D02*
X396653D01*
X403347D02*
G03X396653I-3347J3300D01*
G01X403347D02*
X456653D01*
X463347D02*
G03X456653I-3347J3300D01*
G01X463347D02*
X466653D01*
X473347D02*
G03X466653I-3347J3300D01*
G01X473347D02*
X476653D01*
X483347D02*
G03X476653I-3347J3300D01*
G01X483347D02*
X536653D01*
X543347D02*
G03X536653I-3347J3300D01*
G01X543347D02*
X546653D01*
X553347D02*
G03X546653I-3347J3300D01*
G01X553347D02*
X556653D01*
X563347D02*
G03X556653I-3347J3300D01*
G01X563347D02*
X619300D01*
X599300Y176700D02*
Y194300D01*
X591500*
X591347Y194305D02*
G03X591500Y194300I153J2195D01*
G01X589500Y193300D02*
G03X591347Y194305I0J2200D01*
G01X589500Y193300D02*
X583347D01*
X576653D02*
G03X583347I3347J-3300D01*
G01X576653D02*
X563347D01*
X556653D02*
G03X563347I3347J-3300D01*
G01X556653D02*
X553347D01*
X546653D02*
G03X553347I3347J-3300D01*
G01X546653D02*
X543347D01*
X536653D02*
G03X543347I3347J-3300D01*
G01X536653D02*
X523347D01*
X516653D02*
G03X523347I3347J-3300D01*
G01X516653D02*
X503347D01*
X496653D02*
G03X503347I3347J-3300D01*
G01X496653D02*
X483347D01*
X476653D02*
G03X483347I3347J-3300D01*
G01X476653D02*
X473347D01*
X466653D02*
G03X473347I3347J-3300D01*
G01X466653D02*
X463347D01*
X456653D02*
G03X463347I3347J-3300D01*
G01X456653D02*
X443347D01*
X436653D02*
G03X443347I3347J-3300D01*
G01X436653D02*
X423347D01*
X416653D02*
G03X423347I3347J-3300D01*
G01X416653D02*
X403347D01*
X396653D02*
G03X403347I3347J-3300D01*
G01X396653D02*
X393347D01*
X386653D02*
G03X393347I3347J-3300D01*
G01X386653D02*
X383347D01*
X376653D02*
G03X383347I3347J-3300D01*
G01X376653D02*
X363347D01*
X356653D02*
G03X363347I3347J-3300D01*
G01X356653D02*
X343347D01*
X336653D02*
G03X343347I3347J-3300D01*
G01X336653D02*
X323347D01*
X316653D02*
G03X323347I3347J-3300D01*
G01X316653D02*
X313347D01*
X306653D02*
G03X313347I3347J-3300D01*
G01X306653D02*
X303347D01*
X296653D02*
G03X303347I3347J-3300D01*
G01X296653D02*
X283347D01*
X276653D02*
G03X283347I3347J-3300D01*
G01X276653D02*
X263347D01*
X256653D02*
G03X263347I3347J-3300D01*
G01X256653D02*
X243347D01*
X236653D02*
G03X243347I3347J-3300D01*
G01X236653D02*
X233347D01*
X226653D02*
G03X233347I3347J-3300D01*
G01X226653D02*
X223347D01*
X216653D02*
G03X223347I3347J-3300D01*
G01X216653D02*
X203347D01*
X196653D02*
G03X203347I3347J-3300D01*
G01X196653D02*
X183347D01*
X176653D02*
G03X183347I3347J-3300D01*
G01X176653D02*
X163347D01*
X156653D02*
G03X163347I3347J-3300D01*
G01X156653D02*
X153347D01*
X146653D02*
G03X153347I3347J-3300D01*
G01X146653D02*
X143347D01*
X136653D02*
G03X143347I3347J-3300D01*
G01X136653D02*
X123347D01*
X116653D02*
G03X123347I3347J-3300D01*
G01X116653D02*
X101500D01*
Y176700*
X136653*
X143347D02*
G03X136653I-3347J3300D01*
G01X143347D02*
X146653D01*
X153347D02*
G03X146653I-3347J3300D01*
G01X153347D02*
X156653D01*
X163347D02*
G03X156653I-3347J3300D01*
G01X163347D02*
X216653D01*
X223347D02*
G03X216653I-3347J3300D01*
G01X223347D02*
X226653D01*
X233347D02*
G03X226653I-3347J3300D01*
G01X233347D02*
X236653D01*
X243347D02*
G03X236653I-3347J3300D01*
G01X243347D02*
X296653D01*
X303347D02*
G03X296653I-3347J3300D01*
G01X303347D02*
X306653D01*
X313347D02*
G03X306653I-3347J3300D01*
G01X313347D02*
X316653D01*
X323347D02*
G03X316653I-3347J3300D01*
G01X323347D02*
X376653D01*
X383347D02*
G03X376653I-3347J3300D01*
G01X383347D02*
X386653D01*
X393347D02*
G03X386653I-3347J3300D01*
G01X393347D02*
X396653D01*
X403347D02*
G03X396653I-3347J3300D01*
G01X403347D02*
X456653D01*
X463347D02*
G03X456653I-3347J3300D01*
G01X463347D02*
X466653D01*
X473347D02*
G03X466653I-3347J3300D01*
G01X473347D02*
X476653D01*
X483347D02*
G03X476653I-3347J3300D01*
G01X483347D02*
X536653D01*
X543347D02*
G03X536653I-3347J3300D01*
G01X543347D02*
X546653D01*
X553347D02*
G03X546653I-3347J3300D01*
G01X553347D02*
X556653D01*
X563347D02*
G03X556653I-3347J3300D01*
G01X563347D02*
X599300D01*
X589300Y196700D02*
Y214500D01*
X588460*
X586500Y213300D02*
G03X588460Y214500I0J2200D01*
G01X586500Y213300D02*
X583347D01*
X576653D02*
G03X583347I3347J-3300D01*
G01X576653D02*
X563347D01*
X556653D02*
G03X563347I3347J-3300D01*
G01X556653D02*
X553347D01*
X546653D02*
G03X553347I3347J-3300D01*
G01X546653D02*
X543347D01*
X536653D02*
G03X543347I3347J-3300D01*
G01X536653D02*
X523347D01*
X516653D02*
G03X523347I3347J-3300D01*
G01X516653D02*
X503347D01*
X496653D02*
G03X503347I3347J-3300D01*
G01X496653D02*
X483347D01*
X476653D02*
G03X483347I3347J-3300D01*
G01X476653D02*
X473347D01*
X466653D02*
G03X473347I3347J-3300D01*
G01X466653D02*
X463347D01*
X456653D02*
G03X463347I3347J-3300D01*
G01X456653D02*
X443347D01*
X436653D02*
G03X443347I3347J-3300D01*
G01X436653D02*
X423347D01*
X416653D02*
G03X423347I3347J-3300D01*
G01X416653D02*
X403347D01*
X396653D02*
G03X403347I3347J-3300D01*
G01X396653D02*
X393347D01*
X386653D02*
G03X393347I3347J-3300D01*
G01X386653D02*
X383347D01*
X376653D02*
G03X383347I3347J-3300D01*
G01X376653D02*
X363347D01*
X356653D02*
G03X363347I3347J-3300D01*
G01X356653D02*
X343347D01*
X336653D02*
G03X343347I3347J-3300D01*
G01X336653D02*
X323347D01*
X316653D02*
G03X323347I3347J-3300D01*
G01X316653D02*
X313347D01*
X306653D02*
G03X313347I3347J-3300D01*
G01X306653D02*
X303347D01*
X296653D02*
G03X303347I3347J-3300D01*
G01X296653D02*
X283347D01*
X276653D02*
G03X283347I3347J-3300D01*
G01X276653D02*
X263347D01*
X256653D02*
G03X263347I3347J-3300D01*
G01X256653D02*
X243347D01*
X236653D02*
G03X243347I3347J-3300D01*
G01X236653D02*
X233347D01*
X226653D02*
G03X233347I3347J-3300D01*
G01X226653D02*
X223347D01*
X216653D02*
G03X223347I3347J-3300D01*
G01X216653D02*
X203347D01*
X196653D02*
G03X203347I3347J-3300D01*
G01X196653D02*
X183347D01*
X176653D02*
G03X183347I3347J-3300D01*
G01X176653D02*
X163347D01*
X156653D02*
G03X163347I3347J-3300D01*
G01X156653D02*
X153347D01*
X146653D02*
G03X153347I3347J-3300D01*
G01X146653D02*
X143347D01*
X136653D02*
G03X143347I3347J-3300D01*
G01X136653D02*
X123347D01*
X116653D02*
G03X123347I3347J-3300D01*
G01X116653D02*
X101500D01*
Y196700*
X136653*
X143347D02*
G03X136653I-3347J3300D01*
G01X143347D02*
X146653D01*
X153347D02*
G03X146653I-3347J3300D01*
G01X153347D02*
X156653D01*
X163347D02*
G03X156653I-3347J3300D01*
G01X163347D02*
X216653D01*
X223347D02*
G03X216653I-3347J3300D01*
G01X223347D02*
X226653D01*
X233347D02*
G03X226653I-3347J3300D01*
G01X233347D02*
X236653D01*
X243347D02*
G03X236653I-3347J3300D01*
G01X243347D02*
X296653D01*
X303347D02*
G03X296653I-3347J3300D01*
G01X303347D02*
X306653D01*
X313347D02*
G03X306653I-3347J3300D01*
G01X313347D02*
X316653D01*
X323347D02*
G03X316653I-3347J3300D01*
G01X323347D02*
X376653D01*
X383347D02*
G03X376653I-3347J3300D01*
G01X383347D02*
X386653D01*
X393347D02*
G03X386653I-3347J3300D01*
G01X393347D02*
X396653D01*
X403347D02*
G03X396653I-3347J3300D01*
G01X403347D02*
X456653D01*
X463347D02*
G03X456653I-3347J3300D01*
G01X463347D02*
X466653D01*
X473347D02*
G03X466653I-3347J3300D01*
G01X473347D02*
X476653D01*
X483347D02*
G03X476653I-3347J3300D01*
G01X483347D02*
X536653D01*
X543347D02*
G03X536653I-3347J3300D01*
G01X543347D02*
X546653D01*
X553347D02*
G03X546653I-3347J3300D01*
G01X553347D02*
X556653D01*
X563347D02*
G03X556653I-3347J3300D01*
G01X563347D02*
X589300D01*
X586500Y216700D02*
Y440300D01*
X584690*
X575310D02*
G03X584690I4690J-300D01*
G01X575310D02*
X564690D01*
X555310D02*
G03X564690I4690J-300D01*
G01X555310D02*
X554690D01*
X545310D02*
G03X554690I4690J-300D01*
G01X545310D02*
X544690D01*
X535310D02*
G03X544690I4690J-300D01*
G01X535310D02*
X524690D01*
X515310D02*
G03X524690I4690J-300D01*
G01X515310D02*
X504690D01*
X495310D02*
G03X504690I4690J-300D01*
G01X495310D02*
X484690D01*
X475310D02*
G03X484690I4690J-300D01*
G01X475310D02*
X474690D01*
X465310D02*
G03X474690I4690J-300D01*
G01X465310D02*
X464690D01*
X455310D02*
G03X464690I4690J-300D01*
G01X455310D02*
X444690D01*
X435310D02*
G03X444690I4690J-300D01*
G01X435310D02*
X424690D01*
X415310D02*
G03X424690I4690J-300D01*
G01X415310D02*
X404690D01*
X395310D02*
G03X404690I4690J-300D01*
G01X395310D02*
X394690D01*
X385310D02*
G03X394690I4690J-300D01*
G01X385310D02*
X384690D01*
X375310D02*
G03X384690I4690J-300D01*
G01X375310D02*
X364690D01*
X355310D02*
G03X364690I4690J-300D01*
G01X355310D02*
X344690D01*
X335310D02*
G03X344690I4690J-300D01*
G01X335310D02*
X324690D01*
X315310D02*
G03X324690I4690J-300D01*
G01X315310D02*
X314690D01*
X305310D02*
G03X314690I4690J-300D01*
G01X305310D02*
X304690D01*
X295310D02*
G03X304690I4690J-300D01*
G01X295310D02*
X284690D01*
X275310D02*
G03X284690I4690J-300D01*
G01X275310D02*
X264690D01*
X255310D02*
G03X264690I4690J-300D01*
G01X255310D02*
X244690D01*
X235310D02*
G03X244690I4690J-300D01*
G01X235310D02*
X234690D01*
X225310D02*
G03X234690I4690J-300D01*
G01X225310D02*
X224690D01*
X215310D02*
G03X224690I4690J-300D01*
G01X215310D02*
X204690D01*
X195310D02*
G03X204690I4690J-300D01*
G01X195310D02*
X184690D01*
X175310D02*
G03X184690I4690J-300D01*
G01X175310D02*
X164690D01*
X155310D02*
G03X164690I4690J-300D01*
G01X155310D02*
X154690D01*
X145310D02*
G03X154690I4690J-300D01*
G01X145310D02*
X144690D01*
X135310D02*
G03X144690I4690J-300D01*
G01X135310D02*
X124690D01*
X115310D02*
G03X124690I4690J-300D01*
G01X115310D02*
X101500D01*
Y216700*
X116653*
X123347D02*
G03X116653I-3347J3300D01*
G01X123347D02*
X136653D01*
X143347D02*
G03X136653I-3347J3300D01*
G01X143347D02*
X146653D01*
X153347D02*
G03X146653I-3347J3300D01*
G01X153347D02*
X156653D01*
X163347D02*
G03X156653I-3347J3300D01*
G01X163347D02*
X176653D01*
X183347D02*
G03X176653I-3347J3300D01*
G01X183347D02*
X196653D01*
X203347D02*
G03X196653I-3347J3300D01*
G01X203347D02*
X216653D01*
X223347D02*
G03X216653I-3347J3300D01*
G01X223347D02*
X226653D01*
X233347D02*
G03X226653I-3347J3300D01*
G01X233347D02*
X236653D01*
X243347D02*
G03X236653I-3347J3300D01*
G01X243347D02*
X256653D01*
X263347D02*
G03X256653I-3347J3300D01*
G01X263347D02*
X276653D01*
X283347D02*
G03X276653I-3347J3300D01*
G01X283347D02*
X296653D01*
X303347D02*
G03X296653I-3347J3300D01*
G01X303347D02*
X306653D01*
X313347D02*
G03X306653I-3347J3300D01*
G01X313347D02*
X316653D01*
X323347D02*
G03X316653I-3347J3300D01*
G01X323347D02*
X336653D01*
X343347D02*
G03X336653I-3347J3300D01*
G01X343347D02*
X356653D01*
X363347D02*
G03X356653I-3347J3300D01*
G01X363347D02*
X376653D01*
X383347D02*
G03X376653I-3347J3300D01*
G01X383347D02*
X386653D01*
X393347D02*
G03X386653I-3347J3300D01*
G01X393347D02*
X396653D01*
X403347D02*
G03X396653I-3347J3300D01*
G01X403347D02*
X416653D01*
X423347D02*
G03X416653I-3347J3300D01*
G01X423347D02*
X436653D01*
X443347D02*
G03X436653I-3347J3300D01*
G01X443347D02*
X456653D01*
X463347D02*
G03X456653I-3347J3300D01*
G01X463347D02*
X466653D01*
X473347D02*
G03X466653I-3347J3300D01*
G01X473347D02*
X476653D01*
X483347D02*
G03X476653I-3347J3300D01*
G01X483347D02*
X496653D01*
X503347D02*
G03X496653I-3347J3300D01*
G01X503347D02*
X516653D01*
X523347D02*
G03X516653I-3347J3300D01*
G01X523347D02*
X536653D01*
X543347D02*
G03X536653I-3347J3300D01*
G01X543347D02*
X546653D01*
X553347D02*
G03X546653I-3347J3300D01*
G01X553347D02*
X556653D01*
X563347D02*
G03X556653I-3347J3300D01*
G01X563347D02*
X576653D01*
X583347D02*
G03X576653I-3347J3300D01*
G01X583347D02*
X586500D01*
X648500Y154500D02*
Y456500D01*
X633325*
X630075D02*
G03X633325I1625J-6500D01*
G01X630075D02*
X621700D01*
Y442500*
X620500Y440540D02*
G03X621700Y442500I-1000J1960D01*
G01X620500Y440540D02*
Y440500D01*
X620417*
X619500Y440300D02*
G03X620417Y440500I0J2200D01*
G01X619500Y440300D02*
X589500D01*
Y325500*
X590583*
X591500Y325700D02*
G03X590583Y325500I0J-2200D01*
G01X591500Y325700D02*
X621500D01*
X622417Y325500D02*
G03X621500Y325700I-917J-2000D01*
G01X622417Y325500D02*
X622500D01*
Y325460*
X623700Y323500D02*
G03X622500Y325460I-2200J0D01*
G01X623700Y323500D02*
Y310700D01*
X638500*
X639417Y310500D02*
G03X638500Y310700I-917J-2000D01*
G01X639417Y310500D02*
X640500D01*
Y309417*
X640700Y308500D02*
G03X640500Y309417I-2200J0D01*
G01X640700Y308500D02*
Y294500D01*
X640500Y293583D02*
G03X640700Y294500I-2000J917D01*
G01X640500Y293583D02*
Y174500D01*
X638673*
X629327D02*
G03X638673I4673J500D01*
G01X629327D02*
X621700D01*
Y171500*
Y154500*
X629327*
X638673D02*
G03X629327I-4673J500D01*
G01X638673D02*
X648500D01*
X640500Y173500D02*
Y292500D01*
X639417*
X638500Y292300D02*
G03X639417Y292500I0J2200D01*
G01X638500Y292300D02*
X622500D01*
Y284732*
Y281268D02*
G03Y284732I7400J1732D01*
G01Y281268D02*
Y274357D01*
Y271643D02*
G03Y274357I-4500J1357D01*
G01Y271643D02*
Y258357D01*
Y255643D02*
G03Y258357I-4500J1357D01*
G01Y255643D02*
Y243357D01*
Y240643D02*
G03Y243357I-4500J1357D01*
G01Y240643D02*
Y217357D01*
Y214643D02*
G03Y217357I-4500J1357D01*
G01Y214643D02*
Y187357D01*
Y184643D02*
G03Y187357I-4500J1357D01*
G01Y184643D02*
Y173500D01*
X629546*
X638454D02*
G03X629546I-4454J1500D01*
G01X638454D02*
X640500D01*
X638300Y302653D02*
Y308300D01*
X622500*
X621583Y308500D02*
G03X622500Y308300I917J2000D01*
G01X621583Y308500D02*
X621500D01*
Y308540*
X620300Y310500D02*
G03X621500Y308540I2200J0D01*
G01X620300Y310500D02*
Y323300D01*
X614099*
X605901D02*
G03X614099I4099J-5300D01*
G01X605901D02*
X591500D01*
Y215417*
X591700Y214500D02*
G03X591500Y215417I-2200J0D01*
G01X591700Y214500D02*
Y196700D01*
X598829*
X601500Y196082D02*
G03X598829Y196700I-500J3918D01*
G01X601500Y196082D02*
Y195417D01*
X601700Y194500D02*
G03X601500Y195417I-2200J0D01*
G01X601700Y194500D02*
Y175500D01*
X601500Y174583D02*
G03X601700Y175500I-2000J917D01*
G01X601500Y174583D02*
Y174500D01*
X618500*
Y181327*
Y190673D02*
G03Y181327I-500J-4673D01*
G01Y190673D02*
Y211327D01*
Y220673D02*
G03Y211327I-500J-4673D01*
G01Y220673D02*
Y237327D01*
Y246673D02*
G03Y237327I-500J-4673D01*
G01Y246673D02*
Y252327D01*
Y261673D02*
G03Y252327I-500J-4673D01*
G01Y261673D02*
Y268327D01*
Y277673D02*
G03Y268327I-500J-4673D01*
G01Y277673D02*
Y294500D01*
X621583*
X622500Y294700D02*
G03X621583Y294500I0J-2200D01*
G01X622500Y294700D02*
X638300D01*
Y300347*
Y302653D02*
G03Y300347I-6600J-1153D01*
G01X648500Y441500D02*
Y492500D01*
X621700*
Y442500*
X621500Y441583D02*
G03X621700Y442500I-2000J917D01*
G01X621500Y441583D02*
Y441500D01*
X648500*
X619500Y175500D02*
Y181546D01*
X617500Y181327D02*
G03X619500Y181546I500J4673D01*
G01X617500Y181327D02*
Y175500D01*
X619500*
Y190454D02*
Y211546D01*
X617500Y211327D02*
G03X619500Y211546I500J4673D01*
G01X617500Y211327D02*
Y190673D01*
X619500Y190454D02*
G03X617500Y190673I-1500J-4454D01*
G01X619500Y220454D02*
Y237546D01*
X617500Y237327D02*
G03X619500Y237546I500J4673D01*
G01X617500Y237327D02*
Y220673D01*
X619500Y220454D02*
G03X617500Y220673I-1500J-4454D01*
G01X619500Y246454D02*
Y252546D01*
X617500Y252327D02*
G03X619500Y252546I500J4673D01*
G01X617500Y252327D02*
Y246673D01*
X619500Y246454D02*
G03X617500Y246673I-1500J-4454D01*
G01X619500Y261454D02*
Y268546D01*
X617500Y268327D02*
G03X619500Y268546I500J4673D01*
G01X617500Y268327D02*
Y261673D01*
X619500Y261454D02*
G03X617500Y261673I-1500J-4454D01*
G01X619500Y277454D02*
Y295500D01*
X617500*
Y277673*
X619500Y277454D02*
G03X617500Y277673I-1500J-4454D01*
G01X619500Y175417D02*
Y176500D01*
X611831*
X608169D02*
G03X611831I1831J3500D01*
G01X608169D02*
X601700D01*
Y175500*
X601500Y174583D02*
G03X601700Y175500I-2000J917D01*
G01X601500Y174583D02*
Y171500D01*
X619300*
Y174500*
X619500Y175417D02*
G03X619300Y174500I2000J-917D01*
G01X629500Y146357D02*
Y151500D01*
X615500*
Y142500*
X629500*
Y143643*
Y146357D02*
G03Y143643I4500J-1357D01*
G01X617300Y449600D02*
G03X617300I-6700J0D01*
G01X599700Y460000D02*
G03X599700I-4700J0D01*
G01X611200Y480000D02*
G03X611200I-11200J0D01*
G01X557950Y470000D02*
G03X557950I-7950J0D01*
G01X477950D02*
G03X477950I-7950J0D01*
G01X397950D02*
G03X397950I-7950J0D01*
G01X317950D02*
G03X317950I-7950J0D01*
G01X237950D02*
G03X237950I-7950J0D01*
G01X157950D02*
G03X157950I-7950J0D01*
G01X126200Y480000D02*
G03X126200I-11200J0D01*
G01X638700Y125000D02*
G03X638700I-4700J0D01*
G01Y145000D02*
G03X638700I-4700J0D01*
G01X626700Y121000D02*
G03X626700I-4700J0D01*
G01X628750Y135000D02*
G03X628750I-6750J0D01*
G01X611200Y115000D02*
G03X611200I-11200J0D01*
G01X609200Y135000D02*
G03X609200I-7200J0D01*
G01X557950Y120000D02*
G03X557950I-7950J0D01*
G01X564700Y140000D02*
G03X564700I-4700J0D01*
G01X554700D02*
G03X554700I-4700J0D01*
G01X544700D02*
G03X544700I-4700J0D01*
G01X477950Y120000D02*
G03X477950I-7950J0D01*
G01X484700Y140000D02*
G03X484700I-4700J0D01*
G01X474700D02*
G03X474700I-4700J0D01*
G01X464700D02*
G03X464700I-4700J0D01*
G01X397950Y120000D02*
G03X397950I-7950J0D01*
G01X404700Y140000D02*
G03X404700I-4700J0D01*
G01X394700D02*
G03X394700I-4700J0D01*
G01X384700D02*
G03X384700I-4700J0D01*
G01X317950Y120000D02*
G03X317950I-7950J0D01*
G01X324700Y140000D02*
G03X324700I-4700J0D01*
G01X314700D02*
G03X314700I-4700J0D01*
G01X304700D02*
G03X304700I-4700J0D01*
G01X237950Y120000D02*
G03X237950I-7950J0D01*
G01X244700Y140000D02*
G03X244700I-4700J0D01*
G01X234700D02*
G03X234700I-4700J0D01*
G01X224700D02*
G03X224700I-4700J0D01*
G01X157950Y120000D02*
G03X157950I-7950J0D01*
G01X164700Y140000D02*
G03X164700I-4700J0D01*
G01X154700D02*
G03X154700I-4700J0D01*
G01X144700D02*
G03X144700I-4700J0D01*
G01X126200Y115000D02*
G03X126200I-11200J0D01*
G01X598950Y186000D02*
G03X598950I-3950J0D01*
G01X584700Y230000D02*
G03X584700I-4700J0D01*
G01Y240000D02*
G03X584700I-4700J0D01*
G01Y250000D02*
G03X584700I-4700J0D01*
G01Y260000D02*
G03X584700I-4700J0D01*
G01Y270000D02*
G03X584700I-4700J0D01*
G01Y280000D02*
G03X584700I-4700J0D01*
G01Y290000D02*
G03X584700I-4700J0D01*
G01Y300000D02*
G03X584700I-4700J0D01*
G01Y310000D02*
G03X584700I-4700J0D01*
G01Y320000D02*
G03X584700I-4700J0D01*
G01Y330000D02*
G03X584700I-4700J0D01*
G01Y340000D02*
G03X584700I-4700J0D01*
G01Y350000D02*
G03X584700I-4700J0D01*
G01Y360000D02*
G03X584700I-4700J0D01*
G01Y370000D02*
G03X584700I-4700J0D01*
G01Y380000D02*
G03X584700I-4700J0D01*
G01Y390000D02*
G03X584700I-4700J0D01*
G01Y400000D02*
G03X584700I-4700J0D01*
G01Y410000D02*
G03X584700I-4700J0D01*
G01Y420000D02*
G03X584700I-4700J0D01*
G01Y430000D02*
G03X584700I-4700J0D01*
G01X564700Y230000D02*
G03X564700I-4700J0D01*
G01Y240000D02*
G03X564700I-4700J0D01*
G01Y250000D02*
G03X564700I-4700J0D01*
G01Y260000D02*
G03X564700I-4700J0D01*
G01Y270000D02*
G03X564700I-4700J0D01*
G01Y280000D02*
G03X564700I-4700J0D01*
G01Y290000D02*
G03X564700I-4700J0D01*
G01Y300000D02*
G03X564700I-4700J0D01*
G01Y310000D02*
G03X564700I-4700J0D01*
G01Y320000D02*
G03X564700I-4700J0D01*
G01Y330000D02*
G03X564700I-4700J0D01*
G01Y340000D02*
G03X564700I-4700J0D01*
G01Y350000D02*
G03X564700I-4700J0D01*
G01Y360000D02*
G03X564700I-4700J0D01*
G01Y370000D02*
G03X564700I-4700J0D01*
G01Y380000D02*
G03X564700I-4700J0D01*
G01Y390000D02*
G03X564700I-4700J0D01*
G01Y400000D02*
G03X564700I-4700J0D01*
G01Y410000D02*
G03X564700I-4700J0D01*
G01Y420000D02*
G03X564700I-4700J0D01*
G01Y430000D02*
G03X564700I-4700J0D01*
G01X554700Y230000D02*
G03X554700I-4700J0D01*
G01Y240000D02*
G03X554700I-4700J0D01*
G01Y250000D02*
G03X554700I-4700J0D01*
G01Y260000D02*
G03X554700I-4700J0D01*
G01Y270000D02*
G03X554700I-4700J0D01*
G01Y280000D02*
G03X554700I-4700J0D01*
G01Y290000D02*
G03X554700I-4700J0D01*
G01Y300000D02*
G03X554700I-4700J0D01*
G01Y310000D02*
G03X554700I-4700J0D01*
G01Y320000D02*
G03X554700I-4700J0D01*
G01Y330000D02*
G03X554700I-4700J0D01*
G01Y340000D02*
G03X554700I-4700J0D01*
G01Y350000D02*
G03X554700I-4700J0D01*
G01Y360000D02*
G03X554700I-4700J0D01*
G01Y370000D02*
G03X554700I-4700J0D01*
G01Y380000D02*
G03X554700I-4700J0D01*
G01Y390000D02*
G03X554700I-4700J0D01*
G01Y400000D02*
G03X554700I-4700J0D01*
G01Y410000D02*
G03X554700I-4700J0D01*
G01Y420000D02*
G03X554700I-4700J0D01*
G01Y430000D02*
G03X554700I-4700J0D01*
G01X544700Y230000D02*
G03X544700I-4700J0D01*
G01Y240000D02*
G03X544700I-4700J0D01*
G01Y250000D02*
G03X544700I-4700J0D01*
G01Y260000D02*
G03X544700I-4700J0D01*
G01Y270000D02*
G03X544700I-4700J0D01*
G01Y280000D02*
G03X544700I-4700J0D01*
G01Y290000D02*
G03X544700I-4700J0D01*
G01Y300000D02*
G03X544700I-4700J0D01*
G01Y310000D02*
G03X544700I-4700J0D01*
G01Y320000D02*
G03X544700I-4700J0D01*
G01Y330000D02*
G03X544700I-4700J0D01*
G01Y340000D02*
G03X544700I-4700J0D01*
G01Y350000D02*
G03X544700I-4700J0D01*
G01Y360000D02*
G03X544700I-4700J0D01*
G01Y370000D02*
G03X544700I-4700J0D01*
G01Y380000D02*
G03X544700I-4700J0D01*
G01Y390000D02*
G03X544700I-4700J0D01*
G01Y400000D02*
G03X544700I-4700J0D01*
G01Y410000D02*
G03X544700I-4700J0D01*
G01Y420000D02*
G03X544700I-4700J0D01*
G01Y430000D02*
G03X544700I-4700J0D01*
G01X524700Y230000D02*
G03X524700I-4700J0D01*
G01Y240000D02*
G03X524700I-4700J0D01*
G01Y250000D02*
G03X524700I-4700J0D01*
G01Y260000D02*
G03X524700I-4700J0D01*
G01Y270000D02*
G03X524700I-4700J0D01*
G01Y280000D02*
G03X524700I-4700J0D01*
G01Y290000D02*
G03X524700I-4700J0D01*
G01Y300000D02*
G03X524700I-4700J0D01*
G01Y310000D02*
G03X524700I-4700J0D01*
G01Y320000D02*
G03X524700I-4700J0D01*
G01Y330000D02*
G03X524700I-4700J0D01*
G01Y340000D02*
G03X524700I-4700J0D01*
G01Y350000D02*
G03X524700I-4700J0D01*
G01Y360000D02*
G03X524700I-4700J0D01*
G01Y370000D02*
G03X524700I-4700J0D01*
G01Y380000D02*
G03X524700I-4700J0D01*
G01Y390000D02*
G03X524700I-4700J0D01*
G01Y400000D02*
G03X524700I-4700J0D01*
G01Y410000D02*
G03X524700I-4700J0D01*
G01Y420000D02*
G03X524700I-4700J0D01*
G01Y430000D02*
G03X524700I-4700J0D01*
G01X504700Y230000D02*
G03X504700I-4700J0D01*
G01Y240000D02*
G03X504700I-4700J0D01*
G01Y250000D02*
G03X504700I-4700J0D01*
G01Y260000D02*
G03X504700I-4700J0D01*
G01Y270000D02*
G03X504700I-4700J0D01*
G01Y280000D02*
G03X504700I-4700J0D01*
G01Y290000D02*
G03X504700I-4700J0D01*
G01Y300000D02*
G03X504700I-4700J0D01*
G01Y310000D02*
G03X504700I-4700J0D01*
G01Y320000D02*
G03X504700I-4700J0D01*
G01Y330000D02*
G03X504700I-4700J0D01*
G01Y340000D02*
G03X504700I-4700J0D01*
G01Y350000D02*
G03X504700I-4700J0D01*
G01Y360000D02*
G03X504700I-4700J0D01*
G01Y370000D02*
G03X504700I-4700J0D01*
G01Y380000D02*
G03X504700I-4700J0D01*
G01Y390000D02*
G03X504700I-4700J0D01*
G01Y400000D02*
G03X504700I-4700J0D01*
G01Y410000D02*
G03X504700I-4700J0D01*
G01Y420000D02*
G03X504700I-4700J0D01*
G01Y430000D02*
G03X504700I-4700J0D01*
G01X484700Y230000D02*
G03X484700I-4700J0D01*
G01Y240000D02*
G03X484700I-4700J0D01*
G01Y250000D02*
G03X484700I-4700J0D01*
G01Y260000D02*
G03X484700I-4700J0D01*
G01Y270000D02*
G03X484700I-4700J0D01*
G01Y280000D02*
G03X484700I-4700J0D01*
G01Y290000D02*
G03X484700I-4700J0D01*
G01Y300000D02*
G03X484700I-4700J0D01*
G01Y310000D02*
G03X484700I-4700J0D01*
G01Y320000D02*
G03X484700I-4700J0D01*
G01Y330000D02*
G03X484700I-4700J0D01*
G01Y340000D02*
G03X484700I-4700J0D01*
G01Y350000D02*
G03X484700I-4700J0D01*
G01Y360000D02*
G03X484700I-4700J0D01*
G01Y370000D02*
G03X484700I-4700J0D01*
G01Y380000D02*
G03X484700I-4700J0D01*
G01Y390000D02*
G03X484700I-4700J0D01*
G01Y400000D02*
G03X484700I-4700J0D01*
G01Y410000D02*
G03X484700I-4700J0D01*
G01Y420000D02*
G03X484700I-4700J0D01*
G01Y430000D02*
G03X484700I-4700J0D01*
G01X474700Y230000D02*
G03X474700I-4700J0D01*
G01Y240000D02*
G03X474700I-4700J0D01*
G01Y250000D02*
G03X474700I-4700J0D01*
G01Y260000D02*
G03X474700I-4700J0D01*
G01Y270000D02*
G03X474700I-4700J0D01*
G01Y280000D02*
G03X474700I-4700J0D01*
G01Y290000D02*
G03X474700I-4700J0D01*
G01Y300000D02*
G03X474700I-4700J0D01*
G01Y310000D02*
G03X474700I-4700J0D01*
G01Y320000D02*
G03X474700I-4700J0D01*
G01Y330000D02*
G03X474700I-4700J0D01*
G01Y340000D02*
G03X474700I-4700J0D01*
G01Y350000D02*
G03X474700I-4700J0D01*
G01Y360000D02*
G03X474700I-4700J0D01*
G01Y370000D02*
G03X474700I-4700J0D01*
G01Y380000D02*
G03X474700I-4700J0D01*
G01Y390000D02*
G03X474700I-4700J0D01*
G01Y400000D02*
G03X474700I-4700J0D01*
G01Y410000D02*
G03X474700I-4700J0D01*
G01Y420000D02*
G03X474700I-4700J0D01*
G01Y430000D02*
G03X474700I-4700J0D01*
G01X464700Y230000D02*
G03X464700I-4700J0D01*
G01Y240000D02*
G03X464700I-4700J0D01*
G01Y250000D02*
G03X464700I-4700J0D01*
G01Y260000D02*
G03X464700I-4700J0D01*
G01Y270000D02*
G03X464700I-4700J0D01*
G01Y280000D02*
G03X464700I-4700J0D01*
G01Y290000D02*
G03X464700I-4700J0D01*
G01Y300000D02*
G03X464700I-4700J0D01*
G01Y310000D02*
G03X464700I-4700J0D01*
G01Y320000D02*
G03X464700I-4700J0D01*
G01Y330000D02*
G03X464700I-4700J0D01*
G01Y340000D02*
G03X464700I-4700J0D01*
G01Y350000D02*
G03X464700I-4700J0D01*
G01Y360000D02*
G03X464700I-4700J0D01*
G01Y370000D02*
G03X464700I-4700J0D01*
G01Y380000D02*
G03X464700I-4700J0D01*
G01Y390000D02*
G03X464700I-4700J0D01*
G01Y400000D02*
G03X464700I-4700J0D01*
G01Y410000D02*
G03X464700I-4700J0D01*
G01Y420000D02*
G03X464700I-4700J0D01*
G01Y430000D02*
G03X464700I-4700J0D01*
G01X444700Y230000D02*
G03X444700I-4700J0D01*
G01Y240000D02*
G03X444700I-4700J0D01*
G01Y250000D02*
G03X444700I-4700J0D01*
G01Y260000D02*
G03X444700I-4700J0D01*
G01Y270000D02*
G03X444700I-4700J0D01*
G01Y280000D02*
G03X444700I-4700J0D01*
G01Y290000D02*
G03X444700I-4700J0D01*
G01Y300000D02*
G03X444700I-4700J0D01*
G01Y310000D02*
G03X444700I-4700J0D01*
G01Y320000D02*
G03X444700I-4700J0D01*
G01Y330000D02*
G03X444700I-4700J0D01*
G01Y340000D02*
G03X444700I-4700J0D01*
G01Y350000D02*
G03X444700I-4700J0D01*
G01Y360000D02*
G03X444700I-4700J0D01*
G01Y370000D02*
G03X444700I-4700J0D01*
G01Y380000D02*
G03X444700I-4700J0D01*
G01Y390000D02*
G03X444700I-4700J0D01*
G01Y400000D02*
G03X444700I-4700J0D01*
G01Y410000D02*
G03X444700I-4700J0D01*
G01Y420000D02*
G03X444700I-4700J0D01*
G01Y430000D02*
G03X444700I-4700J0D01*
G01X424700Y230000D02*
G03X424700I-4700J0D01*
G01Y240000D02*
G03X424700I-4700J0D01*
G01Y250000D02*
G03X424700I-4700J0D01*
G01Y260000D02*
G03X424700I-4700J0D01*
G01Y270000D02*
G03X424700I-4700J0D01*
G01Y280000D02*
G03X424700I-4700J0D01*
G01Y290000D02*
G03X424700I-4700J0D01*
G01Y300000D02*
G03X424700I-4700J0D01*
G01Y310000D02*
G03X424700I-4700J0D01*
G01Y320000D02*
G03X424700I-4700J0D01*
G01Y330000D02*
G03X424700I-4700J0D01*
G01Y340000D02*
G03X424700I-4700J0D01*
G01Y350000D02*
G03X424700I-4700J0D01*
G01Y360000D02*
G03X424700I-4700J0D01*
G01Y370000D02*
G03X424700I-4700J0D01*
G01Y380000D02*
G03X424700I-4700J0D01*
G01Y390000D02*
G03X424700I-4700J0D01*
G01Y400000D02*
G03X424700I-4700J0D01*
G01Y410000D02*
G03X424700I-4700J0D01*
G01Y420000D02*
G03X424700I-4700J0D01*
G01Y430000D02*
G03X424700I-4700J0D01*
G01X404700Y230000D02*
G03X404700I-4700J0D01*
G01Y240000D02*
G03X404700I-4700J0D01*
G01Y250000D02*
G03X404700I-4700J0D01*
G01Y260000D02*
G03X404700I-4700J0D01*
G01Y270000D02*
G03X404700I-4700J0D01*
G01Y280000D02*
G03X404700I-4700J0D01*
G01Y290000D02*
G03X404700I-4700J0D01*
G01Y300000D02*
G03X404700I-4700J0D01*
G01Y310000D02*
G03X404700I-4700J0D01*
G01Y320000D02*
G03X404700I-4700J0D01*
G01Y330000D02*
G03X404700I-4700J0D01*
G01Y340000D02*
G03X404700I-4700J0D01*
G01Y350000D02*
G03X404700I-4700J0D01*
G01Y360000D02*
G03X404700I-4700J0D01*
G01Y370000D02*
G03X404700I-4700J0D01*
G01Y380000D02*
G03X404700I-4700J0D01*
G01Y390000D02*
G03X404700I-4700J0D01*
G01Y400000D02*
G03X404700I-4700J0D01*
G01Y410000D02*
G03X404700I-4700J0D01*
G01Y420000D02*
G03X404700I-4700J0D01*
G01Y430000D02*
G03X404700I-4700J0D01*
G01X394700Y230000D02*
G03X394700I-4700J0D01*
G01Y240000D02*
G03X394700I-4700J0D01*
G01Y250000D02*
G03X394700I-4700J0D01*
G01Y260000D02*
G03X394700I-4700J0D01*
G01Y270000D02*
G03X394700I-4700J0D01*
G01Y280000D02*
G03X394700I-4700J0D01*
G01Y290000D02*
G03X394700I-4700J0D01*
G01Y300000D02*
G03X394700I-4700J0D01*
G01Y310000D02*
G03X394700I-4700J0D01*
G01Y320000D02*
G03X394700I-4700J0D01*
G01Y330000D02*
G03X394700I-4700J0D01*
G01Y340000D02*
G03X394700I-4700J0D01*
G01Y350000D02*
G03X394700I-4700J0D01*
G01Y360000D02*
G03X394700I-4700J0D01*
G01Y370000D02*
G03X394700I-4700J0D01*
G01Y380000D02*
G03X394700I-4700J0D01*
G01Y390000D02*
G03X394700I-4700J0D01*
G01Y400000D02*
G03X394700I-4700J0D01*
G01Y410000D02*
G03X394700I-4700J0D01*
G01Y420000D02*
G03X394700I-4700J0D01*
G01Y430000D02*
G03X394700I-4700J0D01*
G01X384700Y230000D02*
G03X384700I-4700J0D01*
G01Y240000D02*
G03X384700I-4700J0D01*
G01Y250000D02*
G03X384700I-4700J0D01*
G01Y260000D02*
G03X384700I-4700J0D01*
G01Y270000D02*
G03X384700I-4700J0D01*
G01Y280000D02*
G03X384700I-4700J0D01*
G01Y290000D02*
G03X384700I-4700J0D01*
G01Y300000D02*
G03X384700I-4700J0D01*
G01Y310000D02*
G03X384700I-4700J0D01*
G01Y320000D02*
G03X384700I-4700J0D01*
G01Y330000D02*
G03X384700I-4700J0D01*
G01Y340000D02*
G03X384700I-4700J0D01*
G01Y350000D02*
G03X384700I-4700J0D01*
G01Y360000D02*
G03X384700I-4700J0D01*
G01Y370000D02*
G03X384700I-4700J0D01*
G01Y380000D02*
G03X384700I-4700J0D01*
G01Y390000D02*
G03X384700I-4700J0D01*
G01Y400000D02*
G03X384700I-4700J0D01*
G01Y410000D02*
G03X384700I-4700J0D01*
G01Y420000D02*
G03X384700I-4700J0D01*
G01Y430000D02*
G03X384700I-4700J0D01*
G01X364700Y230000D02*
G03X364700I-4700J0D01*
G01Y240000D02*
G03X364700I-4700J0D01*
G01Y250000D02*
G03X364700I-4700J0D01*
G01Y260000D02*
G03X364700I-4700J0D01*
G01Y270000D02*
G03X364700I-4700J0D01*
G01Y280000D02*
G03X364700I-4700J0D01*
G01Y290000D02*
G03X364700I-4700J0D01*
G01Y300000D02*
G03X364700I-4700J0D01*
G01Y310000D02*
G03X364700I-4700J0D01*
G01Y320000D02*
G03X364700I-4700J0D01*
G01Y330000D02*
G03X364700I-4700J0D01*
G01Y340000D02*
G03X364700I-4700J0D01*
G01Y350000D02*
G03X364700I-4700J0D01*
G01Y360000D02*
G03X364700I-4700J0D01*
G01Y370000D02*
G03X364700I-4700J0D01*
G01Y380000D02*
G03X364700I-4700J0D01*
G01Y390000D02*
G03X364700I-4700J0D01*
G01Y400000D02*
G03X364700I-4700J0D01*
G01Y410000D02*
G03X364700I-4700J0D01*
G01Y420000D02*
G03X364700I-4700J0D01*
G01Y430000D02*
G03X364700I-4700J0D01*
G01X344700Y230000D02*
G03X344700I-4700J0D01*
G01Y240000D02*
G03X344700I-4700J0D01*
G01Y250000D02*
G03X344700I-4700J0D01*
G01Y260000D02*
G03X344700I-4700J0D01*
G01Y270000D02*
G03X344700I-4700J0D01*
G01Y280000D02*
G03X344700I-4700J0D01*
G01Y290000D02*
G03X344700I-4700J0D01*
G01Y300000D02*
G03X344700I-4700J0D01*
G01Y310000D02*
G03X344700I-4700J0D01*
G01Y320000D02*
G03X344700I-4700J0D01*
G01Y330000D02*
G03X344700I-4700J0D01*
G01Y340000D02*
G03X344700I-4700J0D01*
G01Y350000D02*
G03X344700I-4700J0D01*
G01Y360000D02*
G03X344700I-4700J0D01*
G01Y370000D02*
G03X344700I-4700J0D01*
G01Y380000D02*
G03X344700I-4700J0D01*
G01Y390000D02*
G03X344700I-4700J0D01*
G01Y400000D02*
G03X344700I-4700J0D01*
G01Y410000D02*
G03X344700I-4700J0D01*
G01Y420000D02*
G03X344700I-4700J0D01*
G01Y430000D02*
G03X344700I-4700J0D01*
G01X324700Y230000D02*
G03X324700I-4700J0D01*
G01Y240000D02*
G03X324700I-4700J0D01*
G01Y250000D02*
G03X324700I-4700J0D01*
G01Y260000D02*
G03X324700I-4700J0D01*
G01Y270000D02*
G03X324700I-4700J0D01*
G01Y280000D02*
G03X324700I-4700J0D01*
G01Y290000D02*
G03X324700I-4700J0D01*
G01Y300000D02*
G03X324700I-4700J0D01*
G01Y310000D02*
G03X324700I-4700J0D01*
G01Y320000D02*
G03X324700I-4700J0D01*
G01Y330000D02*
G03X324700I-4700J0D01*
G01Y340000D02*
G03X324700I-4700J0D01*
G01Y350000D02*
G03X324700I-4700J0D01*
G01Y360000D02*
G03X324700I-4700J0D01*
G01Y370000D02*
G03X324700I-4700J0D01*
G01Y380000D02*
G03X324700I-4700J0D01*
G01Y390000D02*
G03X324700I-4700J0D01*
G01Y400000D02*
G03X324700I-4700J0D01*
G01Y410000D02*
G03X324700I-4700J0D01*
G01Y420000D02*
G03X324700I-4700J0D01*
G01Y430000D02*
G03X324700I-4700J0D01*
G01X314700Y230000D02*
G03X314700I-4700J0D01*
G01Y240000D02*
G03X314700I-4700J0D01*
G01Y250000D02*
G03X314700I-4700J0D01*
G01Y260000D02*
G03X314700I-4700J0D01*
G01Y270000D02*
G03X314700I-4700J0D01*
G01Y280000D02*
G03X314700I-4700J0D01*
G01Y290000D02*
G03X314700I-4700J0D01*
G01Y300000D02*
G03X314700I-4700J0D01*
G01Y310000D02*
G03X314700I-4700J0D01*
G01Y320000D02*
G03X314700I-4700J0D01*
G01Y330000D02*
G03X314700I-4700J0D01*
G01Y340000D02*
G03X314700I-4700J0D01*
G01Y350000D02*
G03X314700I-4700J0D01*
G01Y360000D02*
G03X314700I-4700J0D01*
G01Y370000D02*
G03X314700I-4700J0D01*
G01Y380000D02*
G03X314700I-4700J0D01*
G01Y390000D02*
G03X314700I-4700J0D01*
G01Y400000D02*
G03X314700I-4700J0D01*
G01Y410000D02*
G03X314700I-4700J0D01*
G01Y420000D02*
G03X314700I-4700J0D01*
G01Y430000D02*
G03X314700I-4700J0D01*
G01X304700Y230000D02*
G03X304700I-4700J0D01*
G01Y240000D02*
G03X304700I-4700J0D01*
G01Y250000D02*
G03X304700I-4700J0D01*
G01Y260000D02*
G03X304700I-4700J0D01*
G01Y270000D02*
G03X304700I-4700J0D01*
G01Y280000D02*
G03X304700I-4700J0D01*
G01Y290000D02*
G03X304700I-4700J0D01*
G01Y300000D02*
G03X304700I-4700J0D01*
G01Y310000D02*
G03X304700I-4700J0D01*
G01Y320000D02*
G03X304700I-4700J0D01*
G01Y330000D02*
G03X304700I-4700J0D01*
G01Y340000D02*
G03X304700I-4700J0D01*
G01Y350000D02*
G03X304700I-4700J0D01*
G01Y360000D02*
G03X304700I-4700J0D01*
G01Y370000D02*
G03X304700I-4700J0D01*
G01Y380000D02*
G03X304700I-4700J0D01*
G01Y390000D02*
G03X304700I-4700J0D01*
G01Y400000D02*
G03X304700I-4700J0D01*
G01Y410000D02*
G03X304700I-4700J0D01*
G01Y420000D02*
G03X304700I-4700J0D01*
G01Y430000D02*
G03X304700I-4700J0D01*
G01X284700Y230000D02*
G03X284700I-4700J0D01*
G01Y240000D02*
G03X284700I-4700J0D01*
G01Y250000D02*
G03X284700I-4700J0D01*
G01Y260000D02*
G03X284700I-4700J0D01*
G01Y270000D02*
G03X284700I-4700J0D01*
G01Y280000D02*
G03X284700I-4700J0D01*
G01Y290000D02*
G03X284700I-4700J0D01*
G01Y300000D02*
G03X284700I-4700J0D01*
G01Y310000D02*
G03X284700I-4700J0D01*
G01Y320000D02*
G03X284700I-4700J0D01*
G01Y330000D02*
G03X284700I-4700J0D01*
G01Y340000D02*
G03X284700I-4700J0D01*
G01Y350000D02*
G03X284700I-4700J0D01*
G01Y360000D02*
G03X284700I-4700J0D01*
G01Y370000D02*
G03X284700I-4700J0D01*
G01Y380000D02*
G03X284700I-4700J0D01*
G01Y390000D02*
G03X284700I-4700J0D01*
G01Y400000D02*
G03X284700I-4700J0D01*
G01Y410000D02*
G03X284700I-4700J0D01*
G01Y420000D02*
G03X284700I-4700J0D01*
G01Y430000D02*
G03X284700I-4700J0D01*
G01X264700Y230000D02*
G03X264700I-4700J0D01*
G01Y240000D02*
G03X264700I-4700J0D01*
G01Y250000D02*
G03X264700I-4700J0D01*
G01Y260000D02*
G03X264700I-4700J0D01*
G01Y270000D02*
G03X264700I-4700J0D01*
G01Y280000D02*
G03X264700I-4700J0D01*
G01Y290000D02*
G03X264700I-4700J0D01*
G01Y300000D02*
G03X264700I-4700J0D01*
G01Y310000D02*
G03X264700I-4700J0D01*
G01Y320000D02*
G03X264700I-4700J0D01*
G01Y330000D02*
G03X264700I-4700J0D01*
G01Y340000D02*
G03X264700I-4700J0D01*
G01Y350000D02*
G03X264700I-4700J0D01*
G01Y360000D02*
G03X264700I-4700J0D01*
G01Y370000D02*
G03X264700I-4700J0D01*
G01Y380000D02*
G03X264700I-4700J0D01*
G01Y390000D02*
G03X264700I-4700J0D01*
G01Y400000D02*
G03X264700I-4700J0D01*
G01Y410000D02*
G03X264700I-4700J0D01*
G01Y420000D02*
G03X264700I-4700J0D01*
G01Y430000D02*
G03X264700I-4700J0D01*
G01X244700Y230000D02*
G03X244700I-4700J0D01*
G01Y240000D02*
G03X244700I-4700J0D01*
G01Y250000D02*
G03X244700I-4700J0D01*
G01Y260000D02*
G03X244700I-4700J0D01*
G01Y270000D02*
G03X244700I-4700J0D01*
G01Y280000D02*
G03X244700I-4700J0D01*
G01Y290000D02*
G03X244700I-4700J0D01*
G01Y300000D02*
G03X244700I-4700J0D01*
G01Y310000D02*
G03X244700I-4700J0D01*
G01Y320000D02*
G03X244700I-4700J0D01*
G01Y330000D02*
G03X244700I-4700J0D01*
G01Y340000D02*
G03X244700I-4700J0D01*
G01Y350000D02*
G03X244700I-4700J0D01*
G01Y360000D02*
G03X244700I-4700J0D01*
G01Y370000D02*
G03X244700I-4700J0D01*
G01Y380000D02*
G03X244700I-4700J0D01*
G01Y390000D02*
G03X244700I-4700J0D01*
G01Y400000D02*
G03X244700I-4700J0D01*
G01Y410000D02*
G03X244700I-4700J0D01*
G01Y420000D02*
G03X244700I-4700J0D01*
G01Y430000D02*
G03X244700I-4700J0D01*
G01X234700Y230000D02*
G03X234700I-4700J0D01*
G01Y240000D02*
G03X234700I-4700J0D01*
G01Y250000D02*
G03X234700I-4700J0D01*
G01Y260000D02*
G03X234700I-4700J0D01*
G01Y270000D02*
G03X234700I-4700J0D01*
G01Y280000D02*
G03X234700I-4700J0D01*
G01Y290000D02*
G03X234700I-4700J0D01*
G01Y300000D02*
G03X234700I-4700J0D01*
G01Y310000D02*
G03X234700I-4700J0D01*
G01Y320000D02*
G03X234700I-4700J0D01*
G01Y330000D02*
G03X234700I-4700J0D01*
G01Y340000D02*
G03X234700I-4700J0D01*
G01Y350000D02*
G03X234700I-4700J0D01*
G01Y360000D02*
G03X234700I-4700J0D01*
G01Y370000D02*
G03X234700I-4700J0D01*
G01Y380000D02*
G03X234700I-4700J0D01*
G01Y390000D02*
G03X234700I-4700J0D01*
G01Y400000D02*
G03X234700I-4700J0D01*
G01Y410000D02*
G03X234700I-4700J0D01*
G01Y420000D02*
G03X234700I-4700J0D01*
G01Y430000D02*
G03X234700I-4700J0D01*
G01X224700Y230000D02*
G03X224700I-4700J0D01*
G01Y240000D02*
G03X224700I-4700J0D01*
G01Y250000D02*
G03X224700I-4700J0D01*
G01Y260000D02*
G03X224700I-4700J0D01*
G01Y270000D02*
G03X224700I-4700J0D01*
G01Y280000D02*
G03X224700I-4700J0D01*
G01Y290000D02*
G03X224700I-4700J0D01*
G01Y300000D02*
G03X224700I-4700J0D01*
G01Y310000D02*
G03X224700I-4700J0D01*
G01Y320000D02*
G03X224700I-4700J0D01*
G01Y330000D02*
G03X224700I-4700J0D01*
G01Y340000D02*
G03X224700I-4700J0D01*
G01Y350000D02*
G03X224700I-4700J0D01*
G01Y360000D02*
G03X224700I-4700J0D01*
G01Y370000D02*
G03X224700I-4700J0D01*
G01Y380000D02*
G03X224700I-4700J0D01*
G01Y390000D02*
G03X224700I-4700J0D01*
G01Y400000D02*
G03X224700I-4700J0D01*
G01Y410000D02*
G03X224700I-4700J0D01*
G01Y420000D02*
G03X224700I-4700J0D01*
G01Y430000D02*
G03X224700I-4700J0D01*
G01X204700Y230000D02*
G03X204700I-4700J0D01*
G01Y240000D02*
G03X204700I-4700J0D01*
G01Y250000D02*
G03X204700I-4700J0D01*
G01Y260000D02*
G03X204700I-4700J0D01*
G01Y270000D02*
G03X204700I-4700J0D01*
G01Y280000D02*
G03X204700I-4700J0D01*
G01Y290000D02*
G03X204700I-4700J0D01*
G01Y300000D02*
G03X204700I-4700J0D01*
G01Y310000D02*
G03X204700I-4700J0D01*
G01Y320000D02*
G03X204700I-4700J0D01*
G01Y330000D02*
G03X204700I-4700J0D01*
G01Y340000D02*
G03X204700I-4700J0D01*
G01Y350000D02*
G03X204700I-4700J0D01*
G01Y360000D02*
G03X204700I-4700J0D01*
G01Y370000D02*
G03X204700I-4700J0D01*
G01Y380000D02*
G03X204700I-4700J0D01*
G01Y390000D02*
G03X204700I-4700J0D01*
G01Y400000D02*
G03X204700I-4700J0D01*
G01Y410000D02*
G03X204700I-4700J0D01*
G01Y420000D02*
G03X204700I-4700J0D01*
G01Y430000D02*
G03X204700I-4700J0D01*
G01X184700Y230000D02*
G03X184700I-4700J0D01*
G01Y240000D02*
G03X184700I-4700J0D01*
G01Y250000D02*
G03X184700I-4700J0D01*
G01Y260000D02*
G03X184700I-4700J0D01*
G01Y270000D02*
G03X184700I-4700J0D01*
G01Y280000D02*
G03X184700I-4700J0D01*
G01Y290000D02*
G03X184700I-4700J0D01*
G01Y300000D02*
G03X184700I-4700J0D01*
G01Y310000D02*
G03X184700I-4700J0D01*
G01Y320000D02*
G03X184700I-4700J0D01*
G01Y330000D02*
G03X184700I-4700J0D01*
G01Y340000D02*
G03X184700I-4700J0D01*
G01Y350000D02*
G03X184700I-4700J0D01*
G01Y360000D02*
G03X184700I-4700J0D01*
G01Y370000D02*
G03X184700I-4700J0D01*
G01Y380000D02*
G03X184700I-4700J0D01*
G01Y390000D02*
G03X184700I-4700J0D01*
G01Y400000D02*
G03X184700I-4700J0D01*
G01Y410000D02*
G03X184700I-4700J0D01*
G01Y420000D02*
G03X184700I-4700J0D01*
G01Y430000D02*
G03X184700I-4700J0D01*
G01X164700Y230000D02*
G03X164700I-4700J0D01*
G01Y240000D02*
G03X164700I-4700J0D01*
G01Y250000D02*
G03X164700I-4700J0D01*
G01Y260000D02*
G03X164700I-4700J0D01*
G01Y270000D02*
G03X164700I-4700J0D01*
G01Y280000D02*
G03X164700I-4700J0D01*
G01Y290000D02*
G03X164700I-4700J0D01*
G01Y300000D02*
G03X164700I-4700J0D01*
G01Y310000D02*
G03X164700I-4700J0D01*
G01Y320000D02*
G03X164700I-4700J0D01*
G01Y330000D02*
G03X164700I-4700J0D01*
G01Y340000D02*
G03X164700I-4700J0D01*
G01Y350000D02*
G03X164700I-4700J0D01*
G01Y360000D02*
G03X164700I-4700J0D01*
G01Y370000D02*
G03X164700I-4700J0D01*
G01Y380000D02*
G03X164700I-4700J0D01*
G01Y390000D02*
G03X164700I-4700J0D01*
G01Y400000D02*
G03X164700I-4700J0D01*
G01Y410000D02*
G03X164700I-4700J0D01*
G01Y420000D02*
G03X164700I-4700J0D01*
G01Y430000D02*
G03X164700I-4700J0D01*
G01X154700Y230000D02*
G03X154700I-4700J0D01*
G01Y240000D02*
G03X154700I-4700J0D01*
G01Y250000D02*
G03X154700I-4700J0D01*
G01Y260000D02*
G03X154700I-4700J0D01*
G01Y270000D02*
G03X154700I-4700J0D01*
G01Y280000D02*
G03X154700I-4700J0D01*
G01Y290000D02*
G03X154700I-4700J0D01*
G01Y300000D02*
G03X154700I-4700J0D01*
G01Y310000D02*
G03X154700I-4700J0D01*
G01Y320000D02*
G03X154700I-4700J0D01*
G01Y330000D02*
G03X154700I-4700J0D01*
G01Y340000D02*
G03X154700I-4700J0D01*
G01Y350000D02*
G03X154700I-4700J0D01*
G01Y360000D02*
G03X154700I-4700J0D01*
G01Y370000D02*
G03X154700I-4700J0D01*
G01Y380000D02*
G03X154700I-4700J0D01*
G01Y390000D02*
G03X154700I-4700J0D01*
G01Y400000D02*
G03X154700I-4700J0D01*
G01Y410000D02*
G03X154700I-4700J0D01*
G01Y420000D02*
G03X154700I-4700J0D01*
G01Y430000D02*
G03X154700I-4700J0D01*
G01X144700Y230000D02*
G03X144700I-4700J0D01*
G01Y240000D02*
G03X144700I-4700J0D01*
G01Y250000D02*
G03X144700I-4700J0D01*
G01Y260000D02*
G03X144700I-4700J0D01*
G01Y270000D02*
G03X144700I-4700J0D01*
G01Y280000D02*
G03X144700I-4700J0D01*
G01Y290000D02*
G03X144700I-4700J0D01*
G01Y300000D02*
G03X144700I-4700J0D01*
G01Y310000D02*
G03X144700I-4700J0D01*
G01Y320000D02*
G03X144700I-4700J0D01*
G01Y330000D02*
G03X144700I-4700J0D01*
G01Y340000D02*
G03X144700I-4700J0D01*
G01Y350000D02*
G03X144700I-4700J0D01*
G01Y360000D02*
G03X144700I-4700J0D01*
G01Y370000D02*
G03X144700I-4700J0D01*
G01Y380000D02*
G03X144700I-4700J0D01*
G01Y390000D02*
G03X144700I-4700J0D01*
G01Y400000D02*
G03X144700I-4700J0D01*
G01Y410000D02*
G03X144700I-4700J0D01*
G01Y420000D02*
G03X144700I-4700J0D01*
G01Y430000D02*
G03X144700I-4700J0D01*
G01X124700Y230000D02*
G03X124700I-4700J0D01*
G01Y240000D02*
G03X124700I-4700J0D01*
G01Y250000D02*
G03X124700I-4700J0D01*
G01Y260000D02*
G03X124700I-4700J0D01*
G01Y270000D02*
G03X124700I-4700J0D01*
G01Y280000D02*
G03X124700I-4700J0D01*
G01Y290000D02*
G03X124700I-4700J0D01*
G01Y300000D02*
G03X124700I-4700J0D01*
G01Y310000D02*
G03X124700I-4700J0D01*
G01Y320000D02*
G03X124700I-4700J0D01*
G01Y330000D02*
G03X124700I-4700J0D01*
G01Y340000D02*
G03X124700I-4700J0D01*
G01Y350000D02*
G03X124700I-4700J0D01*
G01Y360000D02*
G03X124700I-4700J0D01*
G01Y370000D02*
G03X124700I-4700J0D01*
G01Y380000D02*
G03X124700I-4700J0D01*
G01Y390000D02*
G03X124700I-4700J0D01*
G01Y400000D02*
G03X124700I-4700J0D01*
G01Y410000D02*
G03X124700I-4700J0D01*
G01Y420000D02*
G03X124700I-4700J0D01*
G01Y430000D02*
G03X124700I-4700J0D01*
G01X638700Y165000D02*
G03X638700I-4700J0D01*
G01X638400Y318000D02*
G03X638400I-6700J0D01*
G01Y334500D02*
G03X638400I-6700J0D01*
G01Y351000D02*
G03X638400I-6700J0D01*
G01Y367500D02*
G03X638400I-6700J0D01*
G01Y384000D02*
G03X638400I-6700J0D01*
G01Y400500D02*
G03X638400I-6700J0D01*
G01Y417000D02*
G03X638400I-6700J0D01*
G01Y433500D02*
G03X638400I-6700J0D01*
G01X616700Y334500D02*
G03X616700I-6700J0D01*
G01Y351000D02*
G03X616700I-6700J0D01*
G01Y367500D02*
G03X616700I-6700J0D01*
G01Y384000D02*
G03X616700I-6700J0D01*
G01Y400500D02*
G03X616700I-6700J0D01*
G01Y417000D02*
G03X616700I-6700J0D01*
G01Y433500D02*
G03X616700I-6700J0D01*
G01X613950Y180000D02*
G03X613950I-3950J0D01*
G01Y220000D02*
G03X613950I-3950J0D01*
G01X604950Y227000D02*
G03X604950I-3950J0D01*
G01Y257000D02*
G03X604950I-3950J0D01*
G01Y275000D02*
G03X604950I-3950J0D01*
G01X638400Y450000D02*
G03X638400I-6700J0D01*
G01X627853Y475819D02*
G03X632074Y475782I2047J-7319D01*
X627853Y475819I-2074J4218*
G01X644700Y480000D02*
G03X644700I-4700J0D01*
G54D23*
G01X595000Y186000D03*
X601000Y227000D03*
G54D26*
X615338Y444862D02*
X614136Y446064D01*
X615338Y454338D02*
X614136Y453136D01*
X605862Y454338D02*
X607064Y453136D01*
X605862Y444862D02*
X607064Y446064D01*
X617227Y130227D02*
X618464Y131464D01*
X626773Y130227D02*
X625536Y131464D01*
X626773Y139773D02*
X625536Y138536D01*
X617227Y139773D02*
X618464Y138536D01*
X563323Y136677D02*
X562121Y137879D01*
X563323Y143323D02*
X562121Y142121D01*
X556677Y143323D02*
X557879Y142121D01*
X556677Y136677D02*
X557879Y137879D01*
X553323Y136677D02*
X552121Y137879D01*
X553323Y143323D02*
X552121Y142121D01*
X546677Y143323D02*
X547879Y142121D01*
X546677Y136677D02*
X547879Y137879D01*
X543323Y136677D02*
X542121Y137879D01*
X543323Y143323D02*
X542121Y142121D01*
X536677Y143323D02*
X537879Y142121D01*
X536677Y136677D02*
X537879Y137879D01*
X483323Y136677D02*
X482121Y137879D01*
X483323Y143323D02*
X482121Y142121D01*
X476677Y143323D02*
X477879Y142121D01*
X476677Y136677D02*
X477879Y137879D01*
X473323Y136677D02*
X472121Y137879D01*
X473323Y143323D02*
X472121Y142121D01*
X466677Y143323D02*
X467879Y142121D01*
X466677Y136677D02*
X467879Y137879D01*
X463323Y136677D02*
X462121Y137879D01*
X463323Y143323D02*
X462121Y142121D01*
X456677Y143323D02*
X457879Y142121D01*
X456677Y136677D02*
X457879Y137879D01*
X143323Y136677D02*
X142121Y137879D01*
X143323Y143323D02*
X142121Y142121D01*
X136677Y143323D02*
X137879Y142121D01*
X136677Y136677D02*
X137879Y137879D01*
X153323Y136677D02*
X152121Y137879D01*
X153323Y143323D02*
X152121Y142121D01*
X146677Y143323D02*
X147879Y142121D01*
X146677Y136677D02*
X147879Y137879D01*
X163323Y136677D02*
X162121Y137879D01*
X163323Y143323D02*
X162121Y142121D01*
X156677Y143323D02*
X157879Y142121D01*
X156677Y136677D02*
X157879Y137879D01*
X223323Y136677D02*
X222121Y137879D01*
X223323Y143323D02*
X222121Y142121D01*
X216677Y143323D02*
X217879Y142121D01*
X216677Y136677D02*
X217879Y137879D01*
X233323Y136677D02*
X232121Y137879D01*
X233323Y143323D02*
X232121Y142121D01*
X226677Y143323D02*
X227879Y142121D01*
X226677Y136677D02*
X227879Y137879D01*
X243323Y136677D02*
X242121Y137879D01*
X243323Y143323D02*
X242121Y142121D01*
X236677Y143323D02*
X237879Y142121D01*
X236677Y136677D02*
X237879Y137879D01*
X303323Y136677D02*
X302121Y137879D01*
X303323Y143323D02*
X302121Y142121D01*
X296677Y143323D02*
X297879Y142121D01*
X296677Y136677D02*
X297879Y137879D01*
X313323Y136677D02*
X312121Y137879D01*
X313323Y143323D02*
X312121Y142121D01*
X306677Y143323D02*
X307879Y142121D01*
X306677Y136677D02*
X307879Y137879D01*
X323323Y136677D02*
X322121Y137879D01*
X323323Y143323D02*
X322121Y142121D01*
X316677Y143323D02*
X317879Y142121D01*
X316677Y136677D02*
X317879Y137879D01*
X383323Y136677D02*
X382121Y137879D01*
X383323Y143323D02*
X382121Y142121D01*
X376677Y143323D02*
X377879Y142121D01*
X376677Y136677D02*
X377879Y137879D01*
X393323Y136677D02*
X392121Y137879D01*
X393323Y143323D02*
X392121Y142121D01*
X386677Y143323D02*
X387879Y142121D01*
X386677Y136677D02*
X387879Y137879D01*
X403323Y136677D02*
X402121Y137879D01*
X403323Y143323D02*
X402121Y142121D01*
X396677Y143323D02*
X397879Y142121D01*
X396677Y136677D02*
X397879Y137879D01*
X563323Y156677D02*
X562121Y157879D01*
X563323Y163323D02*
X562121Y162121D01*
X556677Y163323D02*
X557879Y162121D01*
X556677Y156677D02*
X557879Y157879D01*
X553323Y156677D02*
X552121Y157879D01*
X553323Y163323D02*
X552121Y162121D01*
X546677Y163323D02*
X547879Y162121D01*
X546677Y156677D02*
X547879Y157879D01*
X543323Y156677D02*
X542121Y157879D01*
X543323Y163323D02*
X542121Y162121D01*
X536677Y163323D02*
X537879Y162121D01*
X536677Y156677D02*
X537879Y157879D01*
X483323Y156677D02*
X482121Y157879D01*
X483323Y163323D02*
X482121Y162121D01*
X476677Y163323D02*
X477879Y162121D01*
X476677Y156677D02*
X477879Y157879D01*
X473323Y156677D02*
X472121Y157879D01*
X473323Y163323D02*
X472121Y162121D01*
X466677Y163323D02*
X467879Y162121D01*
X466677Y156677D02*
X467879Y157879D01*
X463323Y156677D02*
X462121Y157879D01*
X463323Y163323D02*
X462121Y162121D01*
X456677Y163323D02*
X457879Y162121D01*
X456677Y156677D02*
X457879Y157879D01*
X403323Y156677D02*
X402121Y157879D01*
X403323Y163323D02*
X402121Y162121D01*
X396677Y163323D02*
X397879Y162121D01*
X396677Y156677D02*
X397879Y157879D01*
X393323Y156677D02*
X392121Y157879D01*
X393323Y163323D02*
X392121Y162121D01*
X386677Y163323D02*
X387879Y162121D01*
X386677Y156677D02*
X387879Y157879D01*
X383323Y156677D02*
X382121Y157879D01*
X383323Y163323D02*
X382121Y162121D01*
X376677Y163323D02*
X377879Y162121D01*
X376677Y156677D02*
X377879Y157879D01*
X323323Y156677D02*
X322121Y157879D01*
X323323Y163323D02*
X322121Y162121D01*
X316677Y163323D02*
X317879Y162121D01*
X316677Y156677D02*
X317879Y157879D01*
X313323Y156677D02*
X312121Y157879D01*
X313323Y163323D02*
X312121Y162121D01*
X306677Y163323D02*
X307879Y162121D01*
X306677Y156677D02*
X307879Y157879D01*
X303323Y156677D02*
X302121Y157879D01*
X303323Y163323D02*
X302121Y162121D01*
X296677Y163323D02*
X297879Y162121D01*
X296677Y156677D02*
X297879Y157879D01*
X243323Y156677D02*
X242121Y157879D01*
X243323Y163323D02*
X242121Y162121D01*
X236677Y163323D02*
X237879Y162121D01*
X236677Y156677D02*
X237879Y157879D01*
X233323Y156677D02*
X232121Y157879D01*
X233323Y163323D02*
X232121Y162121D01*
X226677Y163323D02*
X227879Y162121D01*
X226677Y156677D02*
X227879Y157879D01*
X223323Y156677D02*
X222121Y157879D01*
X223323Y163323D02*
X222121Y162121D01*
X216677Y163323D02*
X217879Y162121D01*
X216677Y156677D02*
X217879Y157879D01*
X163323Y156677D02*
X162121Y157879D01*
X163323Y163323D02*
X162121Y162121D01*
X156677Y163323D02*
X157879Y162121D01*
X156677Y156677D02*
X157879Y157879D01*
X153323Y156677D02*
X152121Y157879D01*
X153323Y163323D02*
X152121Y162121D01*
X146677Y163323D02*
X147879Y162121D01*
X146677Y156677D02*
X147879Y157879D01*
X143323Y156677D02*
X142121Y157879D01*
X143323Y163323D02*
X142121Y162121D01*
X136677Y163323D02*
X137879Y162121D01*
X136677Y156677D02*
X137879Y157879D01*
X143323Y176677D02*
X142121Y177879D01*
X143323Y183323D02*
X142121Y182121D01*
X136677Y183323D02*
X137879Y182121D01*
X136677Y176677D02*
X137879Y177879D01*
X153323Y176677D02*
X152121Y177879D01*
X153323Y183323D02*
X152121Y182121D01*
X146677Y183323D02*
X147879Y182121D01*
X146677Y176677D02*
X147879Y177879D01*
X163323Y176677D02*
X162121Y177879D01*
X163323Y183323D02*
X162121Y182121D01*
X156677Y183323D02*
X157879Y182121D01*
X156677Y176677D02*
X157879Y177879D01*
X223323Y176677D02*
X222121Y177879D01*
X223323Y183323D02*
X222121Y182121D01*
X216677Y183323D02*
X217879Y182121D01*
X216677Y176677D02*
X217879Y177879D01*
X233323Y176677D02*
X232121Y177879D01*
X233323Y183323D02*
X232121Y182121D01*
X226677Y183323D02*
X227879Y182121D01*
X226677Y176677D02*
X227879Y177879D01*
X243323Y176677D02*
X242121Y177879D01*
X243323Y183323D02*
X242121Y182121D01*
X236677Y183323D02*
X237879Y182121D01*
X236677Y176677D02*
X237879Y177879D01*
X303323Y176677D02*
X302121Y177879D01*
X303323Y183323D02*
X302121Y182121D01*
X296677Y183323D02*
X297879Y182121D01*
X296677Y176677D02*
X297879Y177879D01*
X313323Y176677D02*
X312121Y177879D01*
X313323Y183323D02*
X312121Y182121D01*
X306677Y183323D02*
X307879Y182121D01*
X306677Y176677D02*
X307879Y177879D01*
X323323Y176677D02*
X322121Y177879D01*
X323323Y183323D02*
X322121Y182121D01*
X316677Y183323D02*
X317879Y182121D01*
X316677Y176677D02*
X317879Y177879D01*
X383323Y176677D02*
X382121Y177879D01*
X383323Y183323D02*
X382121Y182121D01*
X376677Y183323D02*
X377879Y182121D01*
X376677Y176677D02*
X377879Y177879D01*
X393323Y176677D02*
X392121Y177879D01*
X393323Y183323D02*
X392121Y182121D01*
X386677Y183323D02*
X387879Y182121D01*
X386677Y176677D02*
X387879Y177879D01*
X403323Y176677D02*
X402121Y177879D01*
X403323Y183323D02*
X402121Y182121D01*
X396677Y183323D02*
X397879Y182121D01*
X396677Y176677D02*
X397879Y177879D01*
X463323Y176677D02*
X462121Y177879D01*
X463323Y183323D02*
X462121Y182121D01*
X456677Y183323D02*
X457879Y182121D01*
X456677Y176677D02*
X457879Y177879D01*
X473323Y176677D02*
X472121Y177879D01*
X473323Y183323D02*
X472121Y182121D01*
X466677Y183323D02*
X467879Y182121D01*
X466677Y176677D02*
X467879Y177879D01*
X483323Y176677D02*
X482121Y177879D01*
X483323Y183323D02*
X482121Y182121D01*
X476677Y183323D02*
X477879Y182121D01*
X476677Y176677D02*
X477879Y177879D01*
X543323Y176677D02*
X542121Y177879D01*
X543323Y183323D02*
X542121Y182121D01*
X536677Y183323D02*
X537879Y182121D01*
X536677Y176677D02*
X537879Y177879D01*
X553323Y176677D02*
X552121Y177879D01*
X553323Y183323D02*
X552121Y182121D01*
X546677Y183323D02*
X547879Y182121D01*
X546677Y176677D02*
X547879Y177879D01*
X563323Y176677D02*
X562121Y177879D01*
X563323Y183323D02*
X562121Y182121D01*
X556677Y183323D02*
X557879Y182121D01*
X556677Y176677D02*
X557879Y177879D01*
X563323Y196677D02*
X562121Y197879D01*
X563323Y203323D02*
X562121Y202121D01*
X556677Y203323D02*
X557879Y202121D01*
X556677Y196677D02*
X557879Y197879D01*
X553323Y196677D02*
X552121Y197879D01*
X553323Y203323D02*
X552121Y202121D01*
X546677Y203323D02*
X547879Y202121D01*
X546677Y196677D02*
X547879Y197879D01*
X543323Y196677D02*
X542121Y197879D01*
X543323Y203323D02*
X542121Y202121D01*
X536677Y203323D02*
X537879Y202121D01*
X536677Y196677D02*
X537879Y197879D01*
X483323Y196677D02*
X482121Y197879D01*
X483323Y203323D02*
X482121Y202121D01*
X476677Y203323D02*
X477879Y202121D01*
X476677Y196677D02*
X477879Y197879D01*
X473323Y196677D02*
X472121Y197879D01*
X473323Y203323D02*
X472121Y202121D01*
X466677Y203323D02*
X467879Y202121D01*
X466677Y196677D02*
X467879Y197879D01*
X463323Y196677D02*
X462121Y197879D01*
X463323Y203323D02*
X462121Y202121D01*
X456677Y203323D02*
X457879Y202121D01*
X456677Y196677D02*
X457879Y197879D01*
X403323Y196677D02*
X402121Y197879D01*
X403323Y203323D02*
X402121Y202121D01*
X396677Y203323D02*
X397879Y202121D01*
X396677Y196677D02*
X397879Y197879D01*
X393323Y196677D02*
X392121Y197879D01*
X393323Y203323D02*
X392121Y202121D01*
X386677Y203323D02*
X387879Y202121D01*
X386677Y196677D02*
X387879Y197879D01*
X383323Y196677D02*
X382121Y197879D01*
X383323Y203323D02*
X382121Y202121D01*
X376677Y203323D02*
X377879Y202121D01*
X376677Y196677D02*
X377879Y197879D01*
X323323Y196677D02*
X322121Y197879D01*
X323323Y203323D02*
X322121Y202121D01*
X316677Y203323D02*
X317879Y202121D01*
X316677Y196677D02*
X317879Y197879D01*
X313323Y196677D02*
X312121Y197879D01*
X313323Y203323D02*
X312121Y202121D01*
X306677Y203323D02*
X307879Y202121D01*
X306677Y196677D02*
X307879Y197879D01*
X303323Y196677D02*
X302121Y197879D01*
X303323Y203323D02*
X302121Y202121D01*
X296677Y203323D02*
X297879Y202121D01*
X296677Y196677D02*
X297879Y197879D01*
X243323Y196677D02*
X242121Y197879D01*
X243323Y203323D02*
X242121Y202121D01*
X236677Y203323D02*
X237879Y202121D01*
X236677Y196677D02*
X237879Y197879D01*
X233323Y196677D02*
X232121Y197879D01*
X233323Y203323D02*
X232121Y202121D01*
X226677Y203323D02*
X227879Y202121D01*
X226677Y196677D02*
X227879Y197879D01*
X223323Y196677D02*
X222121Y197879D01*
X223323Y203323D02*
X222121Y202121D01*
X216677Y203323D02*
X217879Y202121D01*
X216677Y196677D02*
X217879Y197879D01*
X163323Y196677D02*
X162121Y197879D01*
X163323Y203323D02*
X162121Y202121D01*
X156677Y203323D02*
X157879Y202121D01*
X156677Y196677D02*
X157879Y197879D01*
X153323Y196677D02*
X152121Y197879D01*
X153323Y203323D02*
X152121Y202121D01*
X146677Y203323D02*
X147879Y202121D01*
X146677Y196677D02*
X147879Y197879D01*
X143323Y196677D02*
X142121Y197879D01*
X143323Y203323D02*
X142121Y202121D01*
X136677Y203323D02*
X137879Y202121D01*
X136677Y196677D02*
X137879Y197879D01*
X473323Y436677D02*
X472121Y437879D01*
X466677Y436677D02*
X467879Y437879D01*
X393323Y436677D02*
X392121Y437879D01*
X386677Y436677D02*
X387879Y437879D01*
X313323Y436677D02*
X312121Y437879D01*
X306677Y436677D02*
X307879Y437879D01*
X233323Y436677D02*
X232121Y437879D01*
X226677Y436677D02*
X227879Y437879D01*
X553323Y436677D02*
X552121Y437879D01*
X546677Y436677D02*
X547879Y437879D01*
X153323Y436677D02*
X152121Y437879D01*
X146677Y436677D02*
X147879Y437879D01*
X553323Y396677D02*
X552121Y397879D01*
X553323Y403323D02*
X552121Y402121D01*
X546677Y403323D02*
X547879Y402121D01*
X546677Y396677D02*
X547879Y397879D01*
X553323Y426677D02*
X552121Y427879D01*
X553323Y433323D02*
X552121Y432121D01*
X546677Y433323D02*
X547879Y432121D01*
X546677Y426677D02*
X547879Y427879D01*
X553323Y416677D02*
X552121Y417879D01*
X553323Y423323D02*
X552121Y422121D01*
X546677Y423323D02*
X547879Y422121D01*
X546677Y416677D02*
X547879Y417879D01*
X553323Y406677D02*
X552121Y407879D01*
X553323Y413323D02*
X552121Y412121D01*
X546677Y413323D02*
X547879Y412121D01*
X546677Y406677D02*
X547879Y407879D01*
X553323Y386677D02*
X552121Y387879D01*
X553323Y393323D02*
X552121Y392121D01*
X546677Y393323D02*
X547879Y392121D01*
X546677Y386677D02*
X547879Y387879D01*
X553323Y376677D02*
X552121Y377879D01*
X553323Y383323D02*
X552121Y382121D01*
X546677Y383323D02*
X547879Y382121D01*
X546677Y376677D02*
X547879Y377879D01*
X553323Y366677D02*
X552121Y367879D01*
X553323Y373323D02*
X552121Y372121D01*
X546677Y373323D02*
X547879Y372121D01*
X546677Y366677D02*
X547879Y367879D01*
X553323Y356677D02*
X552121Y357879D01*
X553323Y363323D02*
X552121Y362121D01*
X546677Y363323D02*
X547879Y362121D01*
X546677Y356677D02*
X547879Y357879D01*
X553323Y346677D02*
X552121Y347879D01*
X553323Y353323D02*
X552121Y352121D01*
X546677Y353323D02*
X547879Y352121D01*
X546677Y346677D02*
X547879Y347879D01*
X553323Y336677D02*
X552121Y337879D01*
X553323Y343323D02*
X552121Y342121D01*
X546677Y343323D02*
X547879Y342121D01*
X546677Y336677D02*
X547879Y337879D01*
X553323Y326677D02*
X552121Y327879D01*
X553323Y333323D02*
X552121Y332121D01*
X546677Y333323D02*
X547879Y332121D01*
X546677Y326677D02*
X547879Y327879D01*
X553323Y316677D02*
X552121Y317879D01*
X553323Y323323D02*
X552121Y322121D01*
X546677Y323323D02*
X547879Y322121D01*
X546677Y316677D02*
X547879Y317879D01*
X553323Y306677D02*
X552121Y307879D01*
X553323Y313323D02*
X552121Y312121D01*
X546677Y313323D02*
X547879Y312121D01*
X546677Y306677D02*
X547879Y307879D01*
X553323Y296677D02*
X552121Y297879D01*
X553323Y303323D02*
X552121Y302121D01*
X546677Y303323D02*
X547879Y302121D01*
X546677Y296677D02*
X547879Y297879D01*
X553323Y286677D02*
X552121Y287879D01*
X553323Y293323D02*
X552121Y292121D01*
X546677Y293323D02*
X547879Y292121D01*
X546677Y286677D02*
X547879Y287879D01*
X553323Y276677D02*
X552121Y277879D01*
X553323Y283323D02*
X552121Y282121D01*
X546677Y283323D02*
X547879Y282121D01*
X546677Y276677D02*
X547879Y277879D01*
X553323Y266677D02*
X552121Y267879D01*
X553323Y273323D02*
X552121Y272121D01*
X546677Y273323D02*
X547879Y272121D01*
X546677Y266677D02*
X547879Y267879D01*
X553323Y256677D02*
X552121Y257879D01*
X553323Y263323D02*
X552121Y262121D01*
X546677Y263323D02*
X547879Y262121D01*
X546677Y256677D02*
X547879Y257879D01*
X553323Y246677D02*
X552121Y247879D01*
X553323Y253323D02*
X552121Y252121D01*
X546677Y253323D02*
X547879Y252121D01*
X546677Y246677D02*
X547879Y247879D01*
X553323Y236677D02*
X552121Y237879D01*
X553323Y243323D02*
X552121Y242121D01*
X546677Y243323D02*
X547879Y242121D01*
X546677Y236677D02*
X547879Y237879D01*
X553323Y226677D02*
X552121Y227879D01*
X553323Y233323D02*
X552121Y232121D01*
X546677Y233323D02*
X547879Y232121D01*
X546677Y226677D02*
X547879Y227879D01*
X553323Y216677D02*
X552121Y217879D01*
X553323Y223323D02*
X552121Y222121D01*
X546677Y223323D02*
X547879Y222121D01*
X546677Y216677D02*
X547879Y217879D01*
X473323Y426677D02*
X472121Y427879D01*
X473323Y433323D02*
X472121Y432121D01*
X466677Y433323D02*
X467879Y432121D01*
X466677Y426677D02*
X467879Y427879D01*
X473323Y416677D02*
X472121Y417879D01*
X473323Y423323D02*
X472121Y422121D01*
X466677Y423323D02*
X467879Y422121D01*
X466677Y416677D02*
X467879Y417879D01*
X473323Y406677D02*
X472121Y407879D01*
X473323Y413323D02*
X472121Y412121D01*
X466677Y413323D02*
X467879Y412121D01*
X466677Y406677D02*
X467879Y407879D01*
X473323Y396677D02*
X472121Y397879D01*
X473323Y403323D02*
X472121Y402121D01*
X466677Y403323D02*
X467879Y402121D01*
X466677Y396677D02*
X467879Y397879D01*
X473323Y386677D02*
X472121Y387879D01*
X473323Y393323D02*
X472121Y392121D01*
X466677Y393323D02*
X467879Y392121D01*
X466677Y386677D02*
X467879Y387879D01*
X473323Y376677D02*
X472121Y377879D01*
X473323Y383323D02*
X472121Y382121D01*
X466677Y383323D02*
X467879Y382121D01*
X466677Y376677D02*
X467879Y377879D01*
X473323Y366677D02*
X472121Y367879D01*
X473323Y373323D02*
X472121Y372121D01*
X466677Y373323D02*
X467879Y372121D01*
X466677Y366677D02*
X467879Y367879D01*
X473323Y356677D02*
X472121Y357879D01*
X473323Y363323D02*
X472121Y362121D01*
X466677Y363323D02*
X467879Y362121D01*
X466677Y356677D02*
X467879Y357879D01*
X473323Y346677D02*
X472121Y347879D01*
X473323Y353323D02*
X472121Y352121D01*
X466677Y353323D02*
X467879Y352121D01*
X466677Y346677D02*
X467879Y347879D01*
X473323Y336677D02*
X472121Y337879D01*
X473323Y343323D02*
X472121Y342121D01*
X466677Y343323D02*
X467879Y342121D01*
X466677Y336677D02*
X467879Y337879D01*
X473323Y326677D02*
X472121Y327879D01*
X473323Y333323D02*
X472121Y332121D01*
X466677Y333323D02*
X467879Y332121D01*
X466677Y326677D02*
X467879Y327879D01*
X473323Y316677D02*
X472121Y317879D01*
X473323Y323323D02*
X472121Y322121D01*
X466677Y323323D02*
X467879Y322121D01*
X466677Y316677D02*
X467879Y317879D01*
X473323Y306677D02*
X472121Y307879D01*
X473323Y313323D02*
X472121Y312121D01*
X466677Y313323D02*
X467879Y312121D01*
X466677Y306677D02*
X467879Y307879D01*
X473323Y296677D02*
X472121Y297879D01*
X473323Y303323D02*
X472121Y302121D01*
X466677Y303323D02*
X467879Y302121D01*
X466677Y296677D02*
X467879Y297879D01*
X473323Y286677D02*
X472121Y287879D01*
X473323Y293323D02*
X472121Y292121D01*
X466677Y293323D02*
X467879Y292121D01*
X466677Y286677D02*
X467879Y287879D01*
X473323Y276677D02*
X472121Y277879D01*
X473323Y283323D02*
X472121Y282121D01*
X466677Y283323D02*
X467879Y282121D01*
X466677Y276677D02*
X467879Y277879D01*
X473323Y266677D02*
X472121Y267879D01*
X473323Y273323D02*
X472121Y272121D01*
X466677Y273323D02*
X467879Y272121D01*
X466677Y266677D02*
X467879Y267879D01*
X473323Y256677D02*
X472121Y257879D01*
X473323Y263323D02*
X472121Y262121D01*
X466677Y263323D02*
X467879Y262121D01*
X466677Y256677D02*
X467879Y257879D01*
X473323Y246677D02*
X472121Y247879D01*
X473323Y253323D02*
X472121Y252121D01*
X466677Y253323D02*
X467879Y252121D01*
X466677Y246677D02*
X467879Y247879D01*
X473323Y236677D02*
X472121Y237879D01*
X473323Y243323D02*
X472121Y242121D01*
X466677Y243323D02*
X467879Y242121D01*
X466677Y236677D02*
X467879Y237879D01*
X473323Y226677D02*
X472121Y227879D01*
X473323Y233323D02*
X472121Y232121D01*
X466677Y233323D02*
X467879Y232121D01*
X466677Y226677D02*
X467879Y227879D01*
X473323Y216677D02*
X472121Y217879D01*
X473323Y223323D02*
X472121Y222121D01*
X466677Y223323D02*
X467879Y222121D01*
X466677Y216677D02*
X467879Y217879D01*
X393323Y426677D02*
X392121Y427879D01*
X393323Y433323D02*
X392121Y432121D01*
X386677Y433323D02*
X387879Y432121D01*
X386677Y426677D02*
X387879Y427879D01*
X393323Y416677D02*
X392121Y417879D01*
X393323Y423323D02*
X392121Y422121D01*
X386677Y423323D02*
X387879Y422121D01*
X386677Y416677D02*
X387879Y417879D01*
X393323Y406677D02*
X392121Y407879D01*
X393323Y413323D02*
X392121Y412121D01*
X386677Y413323D02*
X387879Y412121D01*
X386677Y406677D02*
X387879Y407879D01*
X393323Y396677D02*
X392121Y397879D01*
X393323Y403323D02*
X392121Y402121D01*
X386677Y403323D02*
X387879Y402121D01*
X386677Y396677D02*
X387879Y397879D01*
X393323Y386677D02*
X392121Y387879D01*
X393323Y393323D02*
X392121Y392121D01*
X386677Y393323D02*
X387879Y392121D01*
X386677Y386677D02*
X387879Y387879D01*
X393323Y376677D02*
X392121Y377879D01*
X393323Y383323D02*
X392121Y382121D01*
X386677Y383323D02*
X387879Y382121D01*
X386677Y376677D02*
X387879Y377879D01*
X393323Y366677D02*
X392121Y367879D01*
X393323Y373323D02*
X392121Y372121D01*
X386677Y373323D02*
X387879Y372121D01*
X386677Y366677D02*
X387879Y367879D01*
X393323Y356677D02*
X392121Y357879D01*
X393323Y363323D02*
X392121Y362121D01*
X386677Y363323D02*
X387879Y362121D01*
X386677Y356677D02*
X387879Y357879D01*
X393323Y346677D02*
X392121Y347879D01*
X393323Y353323D02*
X392121Y352121D01*
X386677Y353323D02*
X387879Y352121D01*
X386677Y346677D02*
X387879Y347879D01*
X393323Y336677D02*
X392121Y337879D01*
X393323Y343323D02*
X392121Y342121D01*
X386677Y343323D02*
X387879Y342121D01*
X386677Y336677D02*
X387879Y337879D01*
X393323Y326677D02*
X392121Y327879D01*
X393323Y333323D02*
X392121Y332121D01*
X386677Y333323D02*
X387879Y332121D01*
X386677Y326677D02*
X387879Y327879D01*
X393323Y316677D02*
X392121Y317879D01*
X393323Y323323D02*
X392121Y322121D01*
X386677Y323323D02*
X387879Y322121D01*
X386677Y316677D02*
X387879Y317879D01*
X393323Y306677D02*
X392121Y307879D01*
X393323Y313323D02*
X392121Y312121D01*
X386677Y313323D02*
X387879Y312121D01*
X386677Y306677D02*
X387879Y307879D01*
X393323Y296677D02*
X392121Y297879D01*
X393323Y303323D02*
X392121Y302121D01*
X386677Y303323D02*
X387879Y302121D01*
X386677Y296677D02*
X387879Y297879D01*
X393323Y286677D02*
X392121Y287879D01*
X393323Y293323D02*
X392121Y292121D01*
X386677Y293323D02*
X387879Y292121D01*
X386677Y286677D02*
X387879Y287879D01*
X393323Y276677D02*
X392121Y277879D01*
X393323Y283323D02*
X392121Y282121D01*
X386677Y283323D02*
X387879Y282121D01*
X386677Y276677D02*
X387879Y277879D01*
X393323Y266677D02*
X392121Y267879D01*
X393323Y273323D02*
X392121Y272121D01*
X386677Y273323D02*
X387879Y272121D01*
X386677Y266677D02*
X387879Y267879D01*
X393323Y256677D02*
X392121Y257879D01*
X393323Y263323D02*
X392121Y262121D01*
X386677Y263323D02*
X387879Y262121D01*
X386677Y256677D02*
X387879Y257879D01*
X393323Y246677D02*
X392121Y247879D01*
X393323Y253323D02*
X392121Y252121D01*
X386677Y253323D02*
X387879Y252121D01*
X386677Y246677D02*
X387879Y247879D01*
X393323Y236677D02*
X392121Y237879D01*
X393323Y243323D02*
X392121Y242121D01*
X386677Y243323D02*
X387879Y242121D01*
X386677Y236677D02*
X387879Y237879D01*
X393323Y226677D02*
X392121Y227879D01*
X393323Y233323D02*
X392121Y232121D01*
X386677Y233323D02*
X387879Y232121D01*
X386677Y226677D02*
X387879Y227879D01*
X393323Y216677D02*
X392121Y217879D01*
X393323Y223323D02*
X392121Y222121D01*
X386677Y223323D02*
X387879Y222121D01*
X386677Y216677D02*
X387879Y217879D01*
X313323Y426677D02*
X312121Y427879D01*
X313323Y433323D02*
X312121Y432121D01*
X306677Y433323D02*
X307879Y432121D01*
X306677Y426677D02*
X307879Y427879D01*
X313323Y416677D02*
X312121Y417879D01*
X313323Y423323D02*
X312121Y422121D01*
X306677Y423323D02*
X307879Y422121D01*
X306677Y416677D02*
X307879Y417879D01*
X313323Y406677D02*
X312121Y407879D01*
X313323Y413323D02*
X312121Y412121D01*
X306677Y413323D02*
X307879Y412121D01*
X306677Y406677D02*
X307879Y407879D01*
X313323Y396677D02*
X312121Y397879D01*
X313323Y403323D02*
X312121Y402121D01*
X306677Y403323D02*
X307879Y402121D01*
X306677Y396677D02*
X307879Y397879D01*
X313323Y386677D02*
X312121Y387879D01*
X313323Y393323D02*
X312121Y392121D01*
X306677Y393323D02*
X307879Y392121D01*
X306677Y386677D02*
X307879Y387879D01*
X313323Y376677D02*
X312121Y377879D01*
X313323Y383323D02*
X312121Y382121D01*
X306677Y383323D02*
X307879Y382121D01*
X306677Y376677D02*
X307879Y377879D01*
X313323Y366677D02*
X312121Y367879D01*
X313323Y373323D02*
X312121Y372121D01*
X306677Y373323D02*
X307879Y372121D01*
X306677Y366677D02*
X307879Y367879D01*
X313323Y356677D02*
X312121Y357879D01*
X313323Y363323D02*
X312121Y362121D01*
X306677Y363323D02*
X307879Y362121D01*
X306677Y356677D02*
X307879Y357879D01*
X313323Y346677D02*
X312121Y347879D01*
X313323Y353323D02*
X312121Y352121D01*
X306677Y353323D02*
X307879Y352121D01*
X306677Y346677D02*
X307879Y347879D01*
X313323Y336677D02*
X312121Y337879D01*
X313323Y343323D02*
X312121Y342121D01*
X306677Y343323D02*
X307879Y342121D01*
X306677Y336677D02*
X307879Y337879D01*
X313323Y326677D02*
X312121Y327879D01*
X313323Y333323D02*
X312121Y332121D01*
X306677Y333323D02*
X307879Y332121D01*
X306677Y326677D02*
X307879Y327879D01*
X313323Y316677D02*
X312121Y317879D01*
X313323Y323323D02*
X312121Y322121D01*
X306677Y323323D02*
X307879Y322121D01*
X306677Y316677D02*
X307879Y317879D01*
X313323Y306677D02*
X312121Y307879D01*
X313323Y313323D02*
X312121Y312121D01*
X306677Y313323D02*
X307879Y312121D01*
X306677Y306677D02*
X307879Y307879D01*
X313323Y296677D02*
X312121Y297879D01*
X313323Y303323D02*
X312121Y302121D01*
X306677Y303323D02*
X307879Y302121D01*
X306677Y296677D02*
X307879Y297879D01*
X313323Y286677D02*
X312121Y287879D01*
X313323Y293323D02*
X312121Y292121D01*
X306677Y293323D02*
X307879Y292121D01*
X306677Y286677D02*
X307879Y287879D01*
X313323Y276677D02*
X312121Y277879D01*
X313323Y283323D02*
X312121Y282121D01*
X306677Y283323D02*
X307879Y282121D01*
X306677Y276677D02*
X307879Y277879D01*
X313323Y266677D02*
X312121Y267879D01*
X313323Y273323D02*
X312121Y272121D01*
X306677Y273323D02*
X307879Y272121D01*
X306677Y266677D02*
X307879Y267879D01*
X313323Y256677D02*
X312121Y257879D01*
X313323Y263323D02*
X312121Y262121D01*
X306677Y263323D02*
X307879Y262121D01*
X306677Y256677D02*
X307879Y257879D01*
X313323Y246677D02*
X312121Y247879D01*
X313323Y253323D02*
X312121Y252121D01*
X306677Y253323D02*
X307879Y252121D01*
X306677Y246677D02*
X307879Y247879D01*
X313323Y236677D02*
X312121Y237879D01*
X313323Y243323D02*
X312121Y242121D01*
X306677Y243323D02*
X307879Y242121D01*
X306677Y236677D02*
X307879Y237879D01*
X313323Y226677D02*
X312121Y227879D01*
X313323Y233323D02*
X312121Y232121D01*
X306677Y233323D02*
X307879Y232121D01*
X306677Y226677D02*
X307879Y227879D01*
X313323Y216677D02*
X312121Y217879D01*
X313323Y223323D02*
X312121Y222121D01*
X306677Y223323D02*
X307879Y222121D01*
X306677Y216677D02*
X307879Y217879D01*
X233323Y426677D02*
X232121Y427879D01*
X233323Y433323D02*
X232121Y432121D01*
X226677Y433323D02*
X227879Y432121D01*
X226677Y426677D02*
X227879Y427879D01*
X233323Y416677D02*
X232121Y417879D01*
X233323Y423323D02*
X232121Y422121D01*
X226677Y423323D02*
X227879Y422121D01*
X226677Y416677D02*
X227879Y417879D01*
X233323Y406677D02*
X232121Y407879D01*
X233323Y413323D02*
X232121Y412121D01*
X226677Y413323D02*
X227879Y412121D01*
X226677Y406677D02*
X227879Y407879D01*
X233323Y396677D02*
X232121Y397879D01*
X233323Y403323D02*
X232121Y402121D01*
X226677Y403323D02*
X227879Y402121D01*
X226677Y396677D02*
X227879Y397879D01*
X233323Y386677D02*
X232121Y387879D01*
X233323Y393323D02*
X232121Y392121D01*
X226677Y393323D02*
X227879Y392121D01*
X226677Y386677D02*
X227879Y387879D01*
X233323Y376677D02*
X232121Y377879D01*
X233323Y383323D02*
X232121Y382121D01*
X226677Y383323D02*
X227879Y382121D01*
X226677Y376677D02*
X227879Y377879D01*
X233323Y366677D02*
X232121Y367879D01*
X233323Y373323D02*
X232121Y372121D01*
X226677Y373323D02*
X227879Y372121D01*
X226677Y366677D02*
X227879Y367879D01*
X233323Y356677D02*
X232121Y357879D01*
X233323Y363323D02*
X232121Y362121D01*
X226677Y363323D02*
X227879Y362121D01*
X226677Y356677D02*
X227879Y357879D01*
X233323Y346677D02*
X232121Y347879D01*
X233323Y353323D02*
X232121Y352121D01*
X226677Y353323D02*
X227879Y352121D01*
X226677Y346677D02*
X227879Y347879D01*
X233323Y336677D02*
X232121Y337879D01*
X233323Y343323D02*
X232121Y342121D01*
X226677Y343323D02*
X227879Y342121D01*
X226677Y336677D02*
X227879Y337879D01*
X233323Y326677D02*
X232121Y327879D01*
X233323Y333323D02*
X232121Y332121D01*
X226677Y333323D02*
X227879Y332121D01*
X226677Y326677D02*
X227879Y327879D01*
X233323Y316677D02*
X232121Y317879D01*
X233323Y323323D02*
X232121Y322121D01*
X226677Y323323D02*
X227879Y322121D01*
X226677Y316677D02*
X227879Y317879D01*
X233323Y306677D02*
X232121Y307879D01*
X233323Y313323D02*
X232121Y312121D01*
X226677Y313323D02*
X227879Y312121D01*
X226677Y306677D02*
X227879Y307879D01*
X233323Y296677D02*
X232121Y297879D01*
X233323Y303323D02*
X232121Y302121D01*
X226677Y303323D02*
X227879Y302121D01*
X226677Y296677D02*
X227879Y297879D01*
X233323Y286677D02*
X232121Y287879D01*
X233323Y293323D02*
X232121Y292121D01*
X226677Y293323D02*
X227879Y292121D01*
X226677Y286677D02*
X227879Y287879D01*
X233323Y276677D02*
X232121Y277879D01*
X233323Y283323D02*
X232121Y282121D01*
X226677Y283323D02*
X227879Y282121D01*
X226677Y276677D02*
X227879Y277879D01*
X233323Y266677D02*
X232121Y267879D01*
X233323Y273323D02*
X232121Y272121D01*
X226677Y273323D02*
X227879Y272121D01*
X226677Y266677D02*
X227879Y267879D01*
X233323Y256677D02*
X232121Y257879D01*
X233323Y263323D02*
X232121Y262121D01*
X226677Y263323D02*
X227879Y262121D01*
X226677Y256677D02*
X227879Y257879D01*
X233323Y246677D02*
X232121Y247879D01*
X233323Y253323D02*
X232121Y252121D01*
X226677Y253323D02*
X227879Y252121D01*
X226677Y246677D02*
X227879Y247879D01*
X233323Y236677D02*
X232121Y237879D01*
X233323Y243323D02*
X232121Y242121D01*
X226677Y243323D02*
X227879Y242121D01*
X226677Y236677D02*
X227879Y237879D01*
X233323Y226677D02*
X232121Y227879D01*
X233323Y233323D02*
X232121Y232121D01*
X226677Y233323D02*
X227879Y232121D01*
X226677Y226677D02*
X227879Y227879D01*
X233323Y216677D02*
X232121Y217879D01*
X233323Y223323D02*
X232121Y222121D01*
X226677Y223323D02*
X227879Y222121D01*
X226677Y216677D02*
X227879Y217879D01*
X153323Y426677D02*
X152121Y427879D01*
X153323Y433323D02*
X152121Y432121D01*
X146677Y433323D02*
X147879Y432121D01*
X146677Y426677D02*
X147879Y427879D01*
X153323Y216677D02*
X152121Y217879D01*
X153323Y223323D02*
X152121Y222121D01*
X146677Y223323D02*
X147879Y222121D01*
X146677Y216677D02*
X147879Y217879D01*
X153323Y226677D02*
X152121Y227879D01*
X153323Y233323D02*
X152121Y232121D01*
X146677Y233323D02*
X147879Y232121D01*
X146677Y226677D02*
X147879Y227879D01*
X153323Y236677D02*
X152121Y237879D01*
X153323Y243323D02*
X152121Y242121D01*
X146677Y243323D02*
X147879Y242121D01*
X146677Y236677D02*
X147879Y237879D01*
X153323Y246677D02*
X152121Y247879D01*
X153323Y253323D02*
X152121Y252121D01*
X146677Y253323D02*
X147879Y252121D01*
X146677Y246677D02*
X147879Y247879D01*
X153323Y256677D02*
X152121Y257879D01*
X153323Y263323D02*
X152121Y262121D01*
X146677Y263323D02*
X147879Y262121D01*
X146677Y256677D02*
X147879Y257879D01*
X153323Y266677D02*
X152121Y267879D01*
X153323Y273323D02*
X152121Y272121D01*
X146677Y273323D02*
X147879Y272121D01*
X146677Y266677D02*
X147879Y267879D01*
X153323Y276677D02*
X152121Y277879D01*
X153323Y283323D02*
X152121Y282121D01*
X146677Y283323D02*
X147879Y282121D01*
X146677Y276677D02*
X147879Y277879D01*
X153323Y286677D02*
X152121Y287879D01*
X153323Y293323D02*
X152121Y292121D01*
X146677Y293323D02*
X147879Y292121D01*
X146677Y286677D02*
X147879Y287879D01*
X153323Y296677D02*
X152121Y297879D01*
X153323Y303323D02*
X152121Y302121D01*
X146677Y303323D02*
X147879Y302121D01*
X146677Y296677D02*
X147879Y297879D01*
X153323Y306677D02*
X152121Y307879D01*
X153323Y313323D02*
X152121Y312121D01*
X146677Y313323D02*
X147879Y312121D01*
X146677Y306677D02*
X147879Y307879D01*
X153323Y316677D02*
X152121Y317879D01*
X153323Y323323D02*
X152121Y322121D01*
X146677Y323323D02*
X147879Y322121D01*
X146677Y316677D02*
X147879Y317879D01*
X153323Y326677D02*
X152121Y327879D01*
X153323Y333323D02*
X152121Y332121D01*
X146677Y333323D02*
X147879Y332121D01*
X146677Y326677D02*
X147879Y327879D01*
X153323Y336677D02*
X152121Y337879D01*
X153323Y343323D02*
X152121Y342121D01*
X146677Y343323D02*
X147879Y342121D01*
X146677Y336677D02*
X147879Y337879D01*
X153323Y346677D02*
X152121Y347879D01*
X153323Y353323D02*
X152121Y352121D01*
X146677Y353323D02*
X147879Y352121D01*
X146677Y346677D02*
X147879Y347879D01*
X153323Y356677D02*
X152121Y357879D01*
X153323Y363323D02*
X152121Y362121D01*
X146677Y363323D02*
X147879Y362121D01*
X146677Y356677D02*
X147879Y357879D01*
X153323Y366677D02*
X152121Y367879D01*
X153323Y373323D02*
X152121Y372121D01*
X146677Y373323D02*
X147879Y372121D01*
X146677Y366677D02*
X147879Y367879D01*
X153323Y376677D02*
X152121Y377879D01*
X153323Y383323D02*
X152121Y382121D01*
X146677Y383323D02*
X147879Y382121D01*
X146677Y376677D02*
X147879Y377879D01*
X153323Y386677D02*
X152121Y387879D01*
X153323Y393323D02*
X152121Y392121D01*
X146677Y393323D02*
X147879Y392121D01*
X146677Y386677D02*
X147879Y387879D01*
X153323Y396677D02*
X152121Y397879D01*
X153323Y403323D02*
X152121Y402121D01*
X146677Y403323D02*
X147879Y402121D01*
X146677Y396677D02*
X147879Y397879D01*
X153323Y406677D02*
X152121Y407879D01*
X153323Y413323D02*
X152121Y412121D01*
X146677Y413323D02*
X147879Y412121D01*
X146677Y406677D02*
X147879Y407879D01*
X153323Y416677D02*
X152121Y417879D01*
X153323Y423323D02*
X152121Y422121D01*
X146677Y423323D02*
X147879Y422121D01*
X146677Y416677D02*
X147879Y417879D01*
X614738Y379262D02*
X613536Y380464D01*
X614738Y388738D02*
X613536Y387536D01*
X605262Y388738D02*
X606464Y387536D01*
X605262Y379262D02*
X606464Y380464D01*
X636438Y445262D02*
X635236Y446464D01*
X636438Y454738D02*
X635236Y453536D01*
X626962Y454738D02*
X628164Y453536D01*
X626962Y445262D02*
X628164Y446464D01*
X636438Y428762D02*
X635236Y429964D01*
X636438Y438238D02*
X635236Y437036D01*
X626962Y438238D02*
X628164Y437036D01*
X626962Y428762D02*
X628164Y429964D01*
X614738Y346262D02*
X613536Y347464D01*
X614738Y355738D02*
X613536Y354536D01*
X605262Y355738D02*
X606464Y354536D01*
X605262Y346262D02*
X606464Y347464D01*
X614738Y313262D02*
X613536Y314464D01*
X614738Y322738D02*
X613536Y321536D01*
X605262Y322738D02*
X606464Y321536D01*
X605262Y313262D02*
X606464Y314464D01*
X636438Y296762D02*
X635236Y297964D01*
X636438Y306238D02*
X635236Y305036D01*
X626962Y306238D02*
X628164Y305036D01*
X626962Y296762D02*
X628164Y297964D01*
X597793Y188793D02*
X596591Y187591D01*
X592207Y188793D02*
X593409Y187591D01*
X592207Y183207D02*
X593409Y184409D01*
X597793Y183207D02*
X596591Y184409D01*
X603793Y229793D02*
X602591Y228591D01*
X598207Y229793D02*
X599409Y228591D01*
X598207Y224207D02*
X599409Y225409D01*
X603793Y224207D02*
X602591Y225409D01*
G54D29*
X120000Y200000D02*
X580000D01*
G74*
X0Y0D02*
M02*
