%
T1C.015F095S3
X0108Y0137
X0124Y0137
X0133Y015
X01238Y01597
X01078Y01597
X0145Y023
X0139Y0276
X0138Y029
X0149Y0302
X0137Y0335
X0153Y0335
X0137Y048
X0153Y048
X01798Y04483
X018Y0432
X0165Y0418
X0165Y0363
X0158Y035
X0169Y0346
X0161Y0324
X0169Y0324
X01795Y03083
X0165Y0307
X0164Y0298
X01824Y02781
X0164Y0278
X0175Y0273
X0162Y0265
X0179Y0261
X0164Y0193
X018Y0193
X017Y0105
X0215Y012
X0226Y0122
X0188Y0148
X0203Y015
X0197Y0162
X0228Y0185
X0183Y0204
X0188Y0209
X0212Y0215
X0189Y0222
X0217Y0249
X0232Y0265
X0197Y02709
X01862Y0273
X0232Y0275
X01912Y02764
X0232Y0285
X0232Y0295
X01882Y03011
X01835Y03047
X0218Y0325
X0185Y0353
X0215Y0353
X0215Y0415
X0201Y0425
X0194Y044
X0279Y044
X027Y0425
X0235Y041
X0281Y0409
X0235Y0353
X0245Y0353
X0265Y0353
X0263Y034
X0281Y032
X0263Y0285
X0247Y0285
X0263Y0265
X0247Y0265
X0233Y0249
X0263Y0245
X0247Y0245
X0273Y0235
X02631Y02309
X02471Y02309
X0278Y015
X0285Y012
X0306Y0122
X0332Y016
X0325Y017
X033Y02
X0318Y0205
X0305Y0213
X0305Y0242
X0319Y02563
X0331Y026
X0315Y0281
X0316Y0296
X0302Y0299
X0317Y0315
X0285Y0391
X0289Y0409
X0292Y0432
X0285Y0448
X0332Y048
X0348Y048
X0355Y0465
X0348Y045
X033689Y044318
X034221Y038891
X033542Y03831
X0349Y036
X035Y0347
X03458Y03427
X03503Y03402
X03468Y0332
X0336Y0323
X03428Y03219
X0347Y02978
X034973Y029227
X0335Y0281
X0349Y0279
X035Y0232
X0348Y016
X0345Y0113
X036055Y010556
X0378Y0115
X036063Y014143
X03675Y02
X037514Y02115
X03637Y02391
X03635Y02544
X0365Y0262
X03673Y02704
X03631Y0275
X0367Y0279
X03675Y02852
X03629Y02884
X037152Y029052
X036619Y029262
X03762Y0294
X038Y0294
X036065Y0336
X037237Y033613
X038123Y033688
X035828Y0339
X03765Y03395
X03646Y033967
X03615Y034195
X036898Y034265
X037567Y03433
X0372Y0345
X03654Y03468
X036084Y034996
X03585Y0353
X03679Y03556
X0364Y0356
X0375Y0365
X03678Y0384
X0361Y0389
X0371Y0393
X03614Y03961
X03642Y03999
X03608Y0404
X0369Y0408
X0361Y04091
X0363Y0424
X03746Y04333
X037Y0455
X0388Y0361
X0384Y03525
X0393Y035
X0389Y0342
X0383Y0333
X038644Y033106
X039158Y0327
X04012Y0324
X038816Y032306
X038642Y03147
X0393Y03125
X03865Y03095
X03903Y03095
X03985Y0305
X03865Y03029
X0395Y0296
X04035Y0291
X0392Y0262
X0385Y0228
X0389Y0217
X040187Y019245
X0383Y019
X03875Y01875
X03916Y01653
X0428Y0115
X04146Y01265
X04325Y013
X042809Y014506
X042Y0172
X0418Y0206
X043Y02215
X0421Y02245
X043Y024
X043Y02495
X043Y025663
X04271Y02591
X042945Y0264
X043Y02692
X041Y02835
X04173Y02842
X043Y0285
X04135Y028537
X043Y02918
X042207Y029638
X0416Y029757
X043Y02985
X04275Y0302
X04295Y031
X04235Y03105
X0417Y0311
X0413Y031742
X042306Y032069
X041979Y032279
X041795Y032799
X043Y032883
X042098Y033102
X0408Y0333
X043Y033403
X0416Y03485
X0412Y03545
X0425Y0452
X0425Y0465
X04422Y04751
X04432Y0465
X04475Y041
X045472Y040308
X044053Y039539
X04405Y038366
X04457Y038343
X045377Y03675
X044709Y036629
X0444Y0364
X04385Y0361
X04555Y0356
X04517Y03555
X044047Y03547
X04545Y03425
X044486Y033928
X04505Y0338
X044626Y03335
X04425Y03271
X044487Y032013
X04482Y02955
X0443Y0294
X0444Y028948
X04478Y028948
X0453Y028948
X044376Y027992
X04425Y02668
X044208Y02616
X045148Y025891
X044841Y025641
X04483Y024906
X04445Y0249
X04549Y02465
X04495Y0243
X04525Y0239
X04473Y023707
X04415Y0231
X04445Y0215
X045759Y020941
X04415Y0203
X0437Y0198
X04345Y0188
X04505Y01855
X04375Y01847
X04528Y018023
X04375Y0179
X04485Y0177
X04345Y01765
X04485Y01713
X043782Y016893
X04485Y0163
X04375Y0163
X04516Y015875
X0457Y0157
X04485Y01545
X04485Y01485
X0451Y01435
X045517Y013833
X04375Y011
X04525Y01085
X04625Y011
X04775Y011
X04827Y013842
X04789Y01385
X04685Y01385
X04737Y01395
X045822Y014065
X046457Y014176
X046934Y01423
X0466Y01605
X0458Y01815
X04794Y01877
X047352Y01885
X04805Y01915
X04583Y02022
X04635Y0204
X047933Y021617
X04667Y0219
X046334Y022184
X047075Y022352
X048015Y02245
X046555Y022502
X0476Y02375
X0468Y02375
X04718Y023792
X046307Y023993
X04772Y0242
X04813Y02469
X04675Y0261
X0481Y031
X04765Y03115
X047306Y031344
X046782Y034268
X04715Y03565
X047513Y0359
X04675Y03595
X046457Y036393
X04806Y03646
X04705Y0365
X046984Y036919
X047921Y037091
X047229Y037276
X04822Y03733
X046467Y037533
X04725Y037656
X0479Y03785
X04605Y03805
X0478Y0404
X04625Y041
X04675Y041
X0478Y0415
X04675Y04208
X047146Y0428
X0475Y0452
X04811Y04648
X0493Y04945
X04925Y04875
X04925Y04825
X04925Y04775
X050594Y04356
X04899Y04303
X049745Y042711
X04875Y042
X04875Y04
X04975Y03845
X0484Y03785
X050411Y036889
X0504Y0365
X050638Y035886
X048346Y03566
X049006Y035619
X0498Y0355
X05032Y035497
X04903Y03425
X04865Y03425
X0503Y03425
X04865Y0332
X0505Y0331
X05021Y03188
X0487Y03075
X04835Y0304
X0504Y0302
X0495Y03015
X0492Y029088
X050543Y02781
X04829Y02573
X0486Y02462
X04896Y02427
X049476Y02425
X049856Y024186
X050116Y023881
X04935Y023863
X048433Y023747
X048953Y02372
X049483Y022504
X048395Y0225
X050423Y0225
X049103Y022447
X050436Y02212
X048702Y022028
X049623Y021984
X048367Y021617
X049027Y021617
X050313Y020413
X04952Y01915
X049889Y01906
X049119Y0188
X04955Y01877
X05015Y01815
X04945Y0173
X04975Y017063
X050145Y017045
X05015Y01585
X05015Y01533
X049791Y01491
X0489Y0146
X05004Y014493
X04955Y01405
X04883Y01398
X049206Y013856
X05025Y013281
X04875Y011
X05275Y011
X05125Y011
X053Y01525
X05195Y0154
X053Y01725
X05125Y0173
X05125Y01768
X05155Y01823
X0514Y01875
X053241Y018891
X051741Y019095
X051221Y019108
X051385Y019628
X051741Y01981
X051831Y02019
X051393Y02025
X0514Y02063
X052377Y021577
X051236Y02199
X0524Y022201
X05195Y0225
X05226Y02371
X05321Y02386
X05123Y024
X053041Y024228
X052067Y025017
X052409Y025409
X0514Y0258
X05315Y0258
X05249Y02598
X053263Y02618
X05265Y0265
X050952Y026652
X052187Y026773
X05141Y027861
X051788Y028416
X051255Y029411
X0523Y029475
X05192Y029496
X0519Y0303
X051Y03053
X05088Y033186
X051949Y033186
X05255Y03345
X05155Y0336
X053165Y03375
X05095Y03395
X05274Y03406
X052421Y034279
X051351Y03429
X050864Y035536
X052728Y035553
X051018Y035901
X05188Y035908
X052558Y036073
X051398Y036161
X051646Y03685
X05273Y036881
X05325Y03695
X0522Y037099
X052914Y037486
X05275Y039363
X0525Y03965
X052719Y039969
X052727Y040489
X05125Y04185
X05222Y04237
X05155Y0425
X0527Y0429
X0509Y04545
X0529Y045528
X0518Y0468
X0509Y04715
X0518Y0474
X05275Y04925
X0551Y049
X0553Y0475
X0533Y0465
X0541Y04605
X053433Y045533
X05355Y045
X05493Y0445
X0548Y0437
X05465Y043
X0538Y04295
X0557Y0412
X054784Y041016
X05564Y04082
X053787Y040773
X05415Y0404
X053805Y04001
X05424Y03972
X054847Y03962
X053434Y038822
X05365Y0385
X055298Y03795
X05425Y0377
X053863Y037599
X054642Y037158
X0554Y03715
X055158Y036742
X053543Y036706
X05445Y0365
X054254Y036037
X053808Y03555
X054809Y03524
X054313Y034287
X053793Y0342
X053451Y034001
X053533Y033523
X054053Y033345
X05475Y030168
X054785Y027728
X054405Y027661
X053609Y02657
X054129Y026537
X053632Y02608
X054097Y026017
X0536Y0248
X054174Y024214
X05368Y02372
X055775Y022948
X053346Y0225
X054677Y0225
X053726Y022464
X05495Y0221
X05457Y021978
X053738Y021792
X055087Y02158
X05469Y02144
X054988Y02115
X054188Y021008
X05455Y02025
X053686Y02025
X05361Y019875
X05537Y0193
X05575Y01925
X053512Y018625
X053793Y01817
X0534Y0168
X05405Y01675
X05525Y0163
X05455Y0136
X0537Y0121
X05555Y01205
X0542Y0114
X05625Y011
X05772Y0127
X0581Y01275
X05635Y012751
X0576Y01385
X05675Y01395
X057213Y014129
X05825Y01423
X05635Y01485
X05775Y0155
X056369Y015729
X056457Y016193
X05825Y0164
X056457Y016573
X05635Y01715
X057951Y017649
X057007Y017697
X056331Y017787
X057033Y018217
X056751Y018579
X057008Y01886
X056751Y01915
X057008Y020224
X0566Y02035
X056728Y02083
X055928Y02094
X056027Y021462
X056827Y021506
X05603Y021962
X05669Y02215
X05763Y022461
X05669Y02253
X056012Y022581
X056Y02462
X05777Y02489
X05665Y0249
X058248Y025148
X056301Y025253
X05765Y02555
X056002Y025619
X056775Y026238
X05652Y02657
X056Y02669
X0579Y02674
X057482Y026814
X05797Y02726
X056Y027297
X056755Y02735
X05625Y028097
X05695Y02815
X057447Y028868
X056415Y029037
X056814Y029376
X056Y029808
X057304Y029819
X056473Y029837
X056925Y030176
X057839Y030218
X056028Y030328
X056555Y030357
X05635Y03075
X058241Y030947
X056034Y030984
X056947Y031097
X057609Y032159
X057356Y032444
X056Y03245
X0577Y0328
X056504Y033077
X056289Y0334
X05675Y033648
X05636Y03392
X05814Y033977
X056Y0341
X05795Y03455
X056952Y034565
X0575Y03495
X0581Y03507
X057617Y03533
X0573Y03555
X0559Y03575
X057931Y035752
X0573Y03675
X056699Y037082
X05597Y0374
X0563Y0376
X05775Y0384
X056867Y0384
X056Y0384
X0576Y039481
X05708Y0395
X057949Y039669
X055805Y039957
X056Y0403
X0562Y04065
X05585Y04155
X05645Y04185
X0578Y04295
X05725Y04395
X0567Y04435
X0574Y0445
X056019Y044519
X0562Y0456
X0581Y0456
X05675Y049
X0594Y0456
X05898Y04559
X05883Y0445
X05935Y0445
X060705Y044485
X0606Y0439
X05856Y039516
X0596Y0395
X05933Y038415
X05985Y03835
X059457Y038005
X060144Y037956
X0597Y0374
X06005Y0363
X059614Y036199
X06045Y03575
X06007Y0356
X05895Y03555
X05898Y03465
X059526Y03385
X058392Y033692
X05955Y033415
X059876Y033061
X059525Y032895
X058418Y032851
X060074Y032729
X059815Y03245
X060582Y03215
X058409Y03203
X05998Y03179
X05967Y031365
X0606Y03105
X06005Y03101
X060641Y030502
X060261Y03035
X06017Y029969
X06055Y0299
X0598Y029665
X060172Y029542
X059292Y029355
X058667Y029047
X059361Y028975
X058677Y028527
X060024Y028422
X060565Y028285
X060267Y028046
X058729Y027556
X05835Y0272
X06055Y026926
X0594Y0265
X0604Y026266
X059056Y026156
X058613Y025638
X059713Y025635
X060745Y024389
X0589Y0237
X05965Y02025
X05909Y019098
X05843Y01908
X060465Y018886
X060126Y018409
X059759Y01824
X060463Y017937
X060158Y017705
X06075Y0173
X05915Y01585
X06015Y0139
X05835Y01385
X05915Y01385
X05995Y01275
X0586Y01275
X0604Y0126
X05835Y012463
X06068Y01148
X05875Y011
X06035Y01025
X061256Y010924
X06275Y011
X0628Y01205
X06135Y012223
X06295Y0124
X06195Y0131
X06113Y01409
X061158Y014772
X06165Y0151
X06285Y01535
X06165Y01568
X0616Y0162
X0628Y01635
X061172Y016728
X06166Y01691
X06127Y0173
X063047Y017303
X061633Y017474
X061102Y017642
X061658Y01815
X060998Y018162
X063Y0182
X060824Y01851
X061196Y01863
X061465Y019164
X060922Y019165
X061885Y019666
X06095Y02025
X0626Y0223
X06303Y022305
X06291Y02273
X061283Y022817
X061184Y023184
X06125Y023564
X06275Y02385
X061545Y0243
X06285Y0247
X060782Y024806
X060847Y025186
X06275Y0253
X060929Y026371
X060881Y027331
X061278Y027867
X060952Y029526
X063252Y029547
X062452Y029665
X060952Y030046
X062453Y03012
X06095Y03075
X063019Y031081
X06287Y03147
X06221Y03181
X06225Y032393
X06295Y0327
X061553Y032847
X06182Y033161
X061139Y033168
X060956Y03355
X062Y03407
X06189Y03445
X06137Y03445
X06085Y03445
X06241Y034467
X062946Y035578
X06083Y035635
X06205Y03575
X06311Y035978
X06231Y036027
X061127Y036073
X063178Y036451
X062098Y036547
X061622Y036807
X062766Y03726
X06095Y038411
X0615Y038763
X061808Y038993
X0612Y040315
X0629Y0414
X0612Y0421
X06305Y04225
X0623Y0423
X0612Y0425
X0609Y042817
X063Y04375
X06248Y0438
X0612Y04384
X0623Y04425
X061085Y0445
X06238Y04477
X0616Y045
X06095Y0456
X06133Y0456
X06155Y0467
X063Y0475
X06125Y049
X0623Y0494
X0648Y0426
X0646Y0401
X0643Y0382
X063986Y037001
X0655Y03615
X06415Y03605
X06363Y03597
X06453Y035967
X064099Y0356
X06545Y035
X065171Y034642
X0636Y03445
X063952Y034067
X0656Y03395
X06385Y0325
X06365Y03215
X0656Y031963
X064128Y031893
X06445Y0314
X06371Y031297
X0656Y03123
X06445Y030753
X0656Y03057
X063957Y030492
X064477Y030373
X065603Y03001
X063772Y029551
X0652Y0273
X06475Y02695
X0649Y0265
X06385Y02645
X064103Y026166
X064595Y025725
X06555Y02555
X06575Y02395
X06485Y0238
X0646Y022
X06525Y02
X0646Y0195
X0634Y0188
X06525Y01705
X06534Y01636
X063866Y015903
X06495Y01565
X06405Y0155
X063422Y01545
X0649Y0141
X063661Y014099
X063768Y011018
X06525Y011
X0661Y0122
X066425Y013777
X0663Y0175
X067366Y019982
X06675Y02
X06705Y0264
X06595Y0302
X0659Y03152
X06625Y03195
X06585Y03225
X06745Y033765
X067Y03405
X06735Y0357
X06705Y03625
X067168Y0368
X06624Y037432
X0663Y0426
X0673Y04535
X0658Y0463
X066944Y047515
X0658Y0479
X069404Y041149
X069115Y030265
X069023Y02982
X068415Y02635
X0686Y02485
X0684Y02395
X06975Y0229
X06975Y01025
T2C.03F197S55
X018Y011
X017Y021
X0145Y0216
X0124Y0237
X014499Y025574
X0133Y031
X0135Y032
X0157Y0393
X0157Y0403
X0165Y041
X018Y0415
X0165Y0465
X018Y0465
X018Y048
X0165Y048
X0172Y049
X0195Y0465
X0215Y0465
X019Y0425
X0225Y0425
X019Y0415
X0225Y0415
X02Y0415
X02Y0385
X0225Y0375
X0225Y036
X02Y036
X021Y032
X02Y029
X0225Y0229
X021Y0195
X021Y0175
X024Y0153
X027Y0245
X028Y026
X028Y028
X0255Y036
X0255Y0375
X0275Y039
X027Y0415
X025Y0415
X0245Y0425
X0255Y0465
X0235Y0465
X0275Y0465
X03Y0475
X032Y0475
X03Y0465
X032Y0465
X03Y0455
X032Y0455
X0285Y036
X033Y0332
X0307Y0261
X0286Y0219
X032Y0153
X0344Y0259
X0342Y0266
X045Y0423
X04Y0425
T3C.035F197S55
X015Y043
X015Y044
T4C.03622F197S55
X066Y043516
X066787Y043516
X066Y0445
X066787Y0445
T5C.037F197S55
X037Y0135
X038Y0135
X037Y0145
X038Y0145
X037Y0155
X038Y0155
X037Y0165
X038Y0165
X037Y0175
X038Y0175
X04Y0175
X041Y0175
X04Y0165
X041Y0165
X04Y0155
X041Y0155
X04Y0145
X041Y0145
X04Y0135
X041Y0135
X058Y0475
X06Y0475
X059Y049
X065Y049
X066Y049
X0646Y046
X068Y04
X068Y039
X068Y038
X068Y037
X068Y036
X068Y035
X068Y034
X068Y033
X068Y032
X068Y031
X069Y031
X069Y032
X069Y033
X069Y034
X069Y035
X069Y036
X069Y037
X069Y038
X069Y039
X069Y04
T6C.046F139S55
X012Y0185
X012Y038
T7C.05512F107S55
X046Y0485
X047378Y0485
T8C.067F089S55
X011Y0175
X013Y0175
X011Y0195
X013Y0195
X011Y037
X013Y037
X011Y039
X013Y039
T9C.07F081S55
X03603Y031465
T10C.079F081S55
X013Y042
X013Y046
T11C.09055F066S55
X067854Y041638
X067854Y046378
T12C.144F035S9
X0115Y0115
X0115Y0485
X04Y0485
X04Y0115
X0685Y0115
X0685Y0485
M30
