*
*
G04 PADS Layout (Build Number 2005.266.2) generated Gerber (RS-274-X) file*
G04 PC Version=2.1*
*
%IN "QS1R_11302006_AB_done.p"*%
*
%MOIN*%
*
%FSLAX35Y35*%
*
*
*
*
G04 PC Standard Apertures*
*
*
G04 Thermal Relief Aperture macro.*
%AMTER*
1,1,$1,0,0*
1,0,$1-$2,0,0*
21,0,$3,$4,0,0,45*
21,0,$3,$4,0,0,135*
%
*
*
G04 Annular Aperture macro.*
%AMANN*
1,1,$1,0,0*
1,0,$2,0,0*
%
*
*
G04 Odd Aperture macro.*
%AMODD*
1,1,$1,0,0*
1,0,$1-0.005,0,0*
%
*
*
G04 PC Custom Aperture Macros*
*
*
*
*
*
*
G04 PC Aperture Table*
*
%ADD017C,0.11*%
%ADD028C,0.06*%
%ADD031C,0.1*%
%ADD033C,0.01*%
%ADD036C,0.09843*%
%ADD038C,0.225*%
%ADD046C,0.031*%
%ADD051C,0.17*%
*
*
*
*
G04 PC Copper Outlines (0)*
G04 Layer Name QS1R_11302006_AB_done.p - dark (0)*
%LPD*%
*
*
G04 PC Area=ANP000000*
G75*
G36*
G01*
X357500Y466146D02*
Y498500D01*
X101500D01*
Y102500D01*
X168854D01*
G02*
X171146I1146J2500D01*
G01*
X357500D01*
Y309118D01*
G02*
Y320182I2800J5532D01*
G01*
Y336362D01*
G02*
Y341638I776J2638D01*
G01*
Y350438D01*
G02*
Y355562I1000J2562D01*
G01*
Y463854D01*
G02*
Y466146I-2500J1146D01*
G37*
G74*
*
*
G04 PC Area=ANP000277*
G75*
G36*
G01*
X697500Y231750D02*
Y498500D01*
X359500D01*
Y411405D01*
G02*
X361924Y406510I1500J-2305D01*
X363028Y402388I-1124J-2510D01*
X363936Y397163I1172J-2488D01*
X359500Y394112I-2536J-1063D01*
G01*
Y391305D01*
G02*
Y386695I1500J-2305D01*
G01*
Y355562D01*
G02*
X361232Y352685I-1000J-2562D01*
X359500Y347560I-395J-2722D01*
G01*
Y343835D01*
G02*
X364213Y342396I2000J-1887D01*
X366370Y341777I386J-2723D01*
X367021Y344579I2609J870D01*
X367357Y344868I-1621J2221D01*
X369277Y345381I1622J-2221D01*
X374619Y345839I2723J-381D01*
X377987Y341813I1055J-2539D01*
X379107Y338623I-1487J-2313D01*
X383697Y335660I2124J-1746D01*
X385659Y333701I-697J-2660D01*
X383778Y330362I778J-2638D01*
X380534Y334217I-778J2638D01*
X378624Y337754I697J2660D01*
X374863Y337290I-2124J1746D01*
X374007Y338340I-2493J-1160D01*
X374187Y340987I2493J1160D01*
X373055Y342461I1487J2313D01*
X371702Y342266I-1055J2539D01*
X367208Y340543I-2723J381D01*
X362992Y337441I-2609J-870D01*
X359500Y333502I-2342J-1441D01*
G01*
Y320798D01*
G02*
Y308502I800J-6148D01*
G01*
Y143937D01*
G02*
Y138923I1130J-2507D01*
G01*
Y108102D01*
G02*
Y103018I1050J-2542D01*
G01*
Y102500D01*
X600750D01*
G02*
X606250I2750J0D01*
G01*
X694750D01*
G02*
X697500Y105250I2750J0D01*
G01*
Y226250D01*
G02*
Y231750I0J2750D01*
G37*
G74*
*
*
G04 PC Void Outlines (0)*
G04 Layer Name QS1R_11302006_AB_done.p - clear (0)*
%LPC*%
*
*
G04 PC Area=ANP000000*
G75*
G36*
G01*
X345000Y110250D02*
G03*
X345000I0J2750D01*
G37*
G74*
*
G75*
G36*
G01*
X348000Y157250D02*
G03*
X348000I0J2750D01*
G37*
G74*
*
G75*
G36*
G01*
X350000Y229250D02*
G03*
X350000I0J2750D01*
G37*
G74*
*
G75*
G36*
G01*
X349000Y276250D02*
G03*
X349000I0J2750D01*
G37*
G74*
*
G75*
G36*
G01*
X349730Y289520D02*
G03*
X349730I0J2750D01*
G37*
G74*
*
G75*
G36*
G01*
X347000Y295050D02*
G03*
X347000I0J2750D01*
G37*
G74*
*
G75*
G36*
G01*
X342800Y319150D02*
G03*
X342800I0J2750D01*
G37*
G74*
*
G75*
G36*
G01*
X346800Y329250D02*
G03*
X346800I0J2750D01*
G37*
G74*
*
G75*
G36*
G01*
X348520Y342296D02*
G02*
X347580Y340604I1780J-2096D01*
X348520Y342296I-1780J2096D01*
G37*
G74*
*
G75*
G36*
G01*
X350000Y344250D02*
G03*
X350000I0J2750D01*
G37*
G74*
*
G75*
G36*
G01*
X349000Y357250D02*
G03*
X349000I0J2750D01*
G37*
G74*
*
G75*
G36*
G01*
X348000Y447250D02*
G03*
X348000I0J2750D01*
G37*
G74*
*
G75*
G36*
G01*
Y477250D02*
G03*
X348000I0J2750D01*
G37*
G74*
*
G75*
G36*
G01*
X342210Y386160D02*
G03*
X342210I0J2750D01*
G37*
G74*
*
G75*
G36*
G01*
X332000Y157250D02*
G03*
X332000I0J2750D01*
G37*
G74*
*
G75*
G36*
G01*
X320000Y148800D02*
G03*
X320000I0J4200D01*
G37*
G74*
*
G75*
G36*
G01*
X325000Y167250D02*
G03*
X325000I0J2750D01*
G37*
G74*
*
G75*
G36*
G01*
X330000Y197250D02*
G03*
X330000I0J2750D01*
G37*
G74*
*
G75*
G36*
G01*
X331000Y257250D02*
G03*
X331000I0J2750D01*
G37*
G74*
*
G75*
G36*
G01*
X335000Y278250D02*
G03*
X335000I0J2750D01*
G37*
G74*
*
G75*
G36*
G01*
X336000Y320250D02*
G03*
X336000I0J2750D01*
G37*
G74*
*
G75*
G36*
G01*
X335422Y380353D02*
G03*
X335422I-0J2750D01*
G37*
G74*
*
G75*
G36*
G01*
X336894Y440433D02*
G03*
X336894I0J2750D01*
G37*
G74*
*
G75*
G36*
G01*
X332000Y477250D02*
G03*
X332000I0J2750D01*
G37*
G74*
*
G75*
G36*
G01*
X318000Y202250D02*
G03*
X318000I0J2750D01*
G37*
G74*
*
G75*
G36*
G01*
X319000Y253550D02*
G03*
X319000I0J2750D01*
G37*
G74*
*
G75*
G36*
G01*
X315000Y278250D02*
G03*
X315000I0J2750D01*
G37*
G74*
*
G75*
G36*
G01*
X316000Y293250D02*
G03*
X316000I0J2750D01*
G37*
G74*
*
G75*
G36*
G01*
X317000Y312250D02*
G03*
X317000I0J2750D01*
G37*
G74*
*
G75*
G36*
G01*
X306000Y119250D02*
G03*
X306000I0J2750D01*
G37*
G74*
*
G75*
G36*
G01*
X305000Y210250D02*
G03*
X305000I0J2750D01*
G37*
G74*
*
G75*
G36*
G01*
Y239250D02*
G03*
X305000I0J2750D01*
G37*
G74*
*
G75*
G36*
G01*
X302000Y296250D02*
G03*
X302000I0J2750D01*
G37*
G74*
*
G75*
G36*
G01*
X285000Y117250D02*
G03*
X285000I0J2750D01*
G37*
G74*
*
G75*
G36*
G01*
X278000Y147250D02*
G03*
X278000I0J2750D01*
G37*
G74*
*
G75*
G36*
G01*
X281000Y317250D02*
G03*
X281000I0J2750D01*
G37*
G74*
*
G75*
G36*
G01*
X285000Y388250D02*
G03*
X285000I0J2750D01*
G37*
G74*
*
G75*
G36*
G01*
X289000Y406250D02*
G03*
X289000I0J2750D01*
G37*
G74*
*
G75*
G36*
G01*
X292000Y429250D02*
G03*
X292000I0J2750D01*
G37*
G74*
*
G75*
G36*
G01*
X281000Y406250D02*
G03*
X281000I0J2750D01*
G37*
G74*
*
G75*
G36*
G01*
X285000Y445250D02*
G03*
X285000I0J2750D01*
G37*
G74*
*
G75*
G36*
G01*
X279000Y437250D02*
G03*
X279000I0J2750D01*
G37*
G74*
*
G75*
G36*
G01*
X273000Y232250D02*
G03*
X273000I0J2750D01*
G37*
G74*
*
G75*
G36*
G01*
X263100Y228150D02*
G03*
X263100I0J2750D01*
G37*
G74*
*
G75*
G36*
G01*
X270000Y240800D02*
G03*
X270000I0J4200D01*
G37*
G74*
*
G75*
G36*
G01*
X263000Y242250D02*
G03*
X263000I0J2750D01*
G37*
G74*
*
G75*
G36*
G01*
Y262250D02*
G03*
X263000I0J2750D01*
G37*
G74*
*
G75*
G36*
G01*
Y282250D02*
G03*
X263000I0J2750D01*
G37*
G74*
*
G75*
G36*
G01*
Y337250D02*
G03*
X263000I0J2750D01*
G37*
G74*
*
G75*
G36*
G01*
X265000Y350250D02*
G03*
X265000I0J2750D01*
G37*
G74*
*
G75*
G36*
G01*
X270000Y422250D02*
G03*
X270000I0J2750D01*
G37*
G74*
*
G75*
G36*
G01*
X247100Y228150D02*
G03*
X247100I0J2750D01*
G37*
G74*
*
G75*
G36*
G01*
X247000Y242250D02*
G03*
X247000I0J2750D01*
G37*
G74*
*
G75*
G36*
G01*
Y262250D02*
G03*
X247000I0J2750D01*
G37*
G74*
*
G75*
G36*
G01*
Y282250D02*
G03*
X247000I0J2750D01*
G37*
G74*
*
G75*
G36*
G01*
X240000Y148800D02*
G03*
X240000I0J4200D01*
G37*
G74*
*
G75*
G36*
G01*
X245000Y350250D02*
G03*
X245000I0J2750D01*
G37*
G74*
*
G75*
G36*
G01*
X226000Y119250D02*
G03*
X226000I0J2750D01*
G37*
G74*
*
G75*
G36*
G01*
X228000Y182250D02*
G03*
X228000I0J2750D01*
G37*
G74*
*
G75*
G36*
G01*
X233000Y246250D02*
G03*
X233000I0J2750D01*
G37*
G74*
*
G75*
G36*
G01*
X232000Y262250D02*
G03*
X232000I0J2750D01*
G37*
G74*
*
G75*
G36*
G01*
Y272250D02*
G03*
X232000I0J2750D01*
G37*
G74*
*
G75*
G36*
G01*
Y282250D02*
G03*
X232000I0J2750D01*
G37*
G74*
*
G75*
G36*
G01*
Y292250D02*
G03*
X232000I0J2750D01*
G37*
G74*
*
G75*
G36*
G01*
X235000Y350250D02*
G03*
X235000I0J2750D01*
G37*
G74*
*
G75*
G36*
G01*
Y407250D02*
G03*
X235000I0J2750D01*
G37*
G74*
*
G75*
G36*
G01*
X215000Y117250D02*
G03*
X215000I0J2750D01*
G37*
G74*
*
G75*
G36*
G01*
X212000Y212250D02*
G03*
X212000I0J2750D01*
G37*
G74*
*
G75*
G36*
G01*
X217000Y246250D02*
G03*
X217000I0J2750D01*
G37*
G74*
*
G75*
G36*
G01*
X218000Y322250D02*
G03*
X218000I0J2750D01*
G37*
G74*
*
G75*
G36*
G01*
X215000Y350250D02*
G03*
X215000I0J2750D01*
G37*
G74*
*
G75*
G36*
G01*
Y412250D02*
G03*
X215000I0J2750D01*
G37*
G74*
*
G75*
G36*
G01*
X203000Y147250D02*
G03*
X203000I0J2750D01*
G37*
G74*
*
G75*
G36*
G01*
X197000Y159250D02*
G03*
X197000I0J2750D01*
G37*
G74*
*
G75*
G36*
G01*
Y268150D02*
G03*
X197000I0J2750D01*
G37*
G74*
*
G75*
G36*
G01*
X201000Y422250D02*
G03*
X201000I0J2750D01*
G37*
G74*
*
G75*
G36*
G01*
X188000Y145250D02*
G03*
X188000I0J2750D01*
G37*
G74*
*
G75*
G36*
G01*
X180000Y105800D02*
G03*
X180000I0J4200D01*
G37*
G74*
*
G75*
G36*
G01*
Y190250D02*
G03*
X180000I0J2750D01*
G37*
G74*
*
G75*
G36*
G01*
X183000Y201250D02*
G03*
X183000I0J2750D01*
G37*
G74*
*
G75*
G36*
G01*
X188000Y206250D02*
G03*
X188000I0J2750D01*
G37*
G74*
*
G75*
G36*
G01*
X189000Y219250D02*
G03*
X189000I0J2750D01*
G37*
G74*
*
G75*
G36*
G01*
X186200Y270250D02*
G03*
X186200I0J2750D01*
G37*
G74*
*
G75*
G36*
G01*
X191200Y273650D02*
G03*
X191200I0J2750D01*
G37*
G74*
*
G75*
G36*
G01*
X194000Y437250D02*
G03*
X194000I0J2750D01*
G37*
G74*
*
G75*
G36*
G01*
X188200Y298350D02*
G03*
X188200I0J2750D01*
G37*
G74*
*
G75*
G36*
G01*
X179000Y258250D02*
G03*
X179000I0J2750D01*
G37*
G74*
*
G75*
G36*
G01*
X182400Y275350D02*
G03*
X182400I0J2750D01*
G37*
G74*
*
G75*
G36*
G01*
X181880Y306922D02*
G02*
X181120Y306078I1620J-2222D01*
X181880Y306922I-1620J2222D01*
G37*
G74*
*
G75*
G36*
G01*
X185000Y350250D02*
G03*
X185000I0J2750D01*
G37*
G74*
*
G75*
G36*
G01*
X180000Y429250D02*
G03*
X180000I0J2750D01*
G37*
G74*
*
G75*
G36*
G01*
X179800Y445550D02*
G03*
X179800I0J2750D01*
G37*
G74*
*
G75*
G36*
G01*
X164000Y190250D02*
G03*
X164000I0J2750D01*
G37*
G74*
*
G75*
G36*
G01*
X162000Y262250D02*
G03*
X162000I0J2750D01*
G37*
G74*
*
G75*
G36*
G01*
X164000Y275250D02*
G03*
X164000I0J2750D01*
G37*
G74*
*
G75*
G36*
G01*
Y295250D02*
G03*
X164000I0J2750D01*
G37*
G74*
*
G75*
G36*
G01*
X165000Y304250D02*
G03*
X165000I0J2750D01*
G37*
G74*
*
G75*
G36*
G01*
X169000Y321250D02*
G03*
X169000I0J2750D01*
G37*
G74*
*
G75*
G36*
G01*
Y343250D02*
G03*
X169000I0J2750D01*
G37*
G74*
*
G75*
G36*
G01*
X172000Y485800D02*
G03*
X172000I0J4200D01*
G37*
G74*
*
G75*
G36*
G01*
X161000Y321250D02*
G03*
X161000I0J2750D01*
G37*
G74*
*
G75*
G36*
G01*
X165000Y360250D02*
G03*
X165000I0J2750D01*
G37*
G74*
*
G75*
G36*
G01*
Y415250D02*
G03*
X165000I0J2750D01*
G37*
G74*
*
G75*
G36*
G01*
X145000Y227250D02*
G03*
X145000I0J2750D01*
G37*
G74*
*
G75*
G36*
G01*
X149000Y299250D02*
G03*
X149000I0J2750D01*
G37*
G74*
*
G75*
G36*
G01*
X153000Y332250D02*
G03*
X153000I0J2750D01*
G37*
G74*
*
G75*
G36*
G01*
X158000Y347250D02*
G03*
X158000I0J2750D01*
G37*
G74*
*
G75*
G36*
G01*
X150000Y425800D02*
G03*
X150000I0J4200D01*
G37*
G74*
*
G75*
G36*
G01*
Y435800D02*
G03*
X150000I0J4200D01*
G37*
G74*
*
G75*
G36*
G01*
X153000Y477250D02*
G03*
X153000I0J2750D01*
G37*
G74*
*
G75*
G36*
G01*
X133000Y147250D02*
G03*
X133000I0J2750D01*
G37*
G74*
*
G75*
G36*
G01*
X124000Y134250D02*
G03*
X124000I0J2750D01*
G37*
G74*
*
G75*
G36*
G01*
X123800Y156950D02*
G03*
X123800I0J2750D01*
G37*
G74*
*
G75*
G36*
G01*
X130000Y168300D02*
G03*
X130000I0J6700D01*
G37*
G74*
*
G75*
G36*
G01*
X108000Y134250D02*
G03*
X108000I0J2750D01*
G37*
G74*
*
G75*
G36*
G01*
X107800Y156950D02*
G03*
X107800I0J2750D01*
G37*
G74*
*
G75*
G36*
G01*
X110000Y168300D02*
G03*
X110000I0J6700D01*
G37*
G74*
*
G75*
G36*
G01*
X120000Y180050D02*
G03*
X120000I0J4950D01*
G37*
G74*
*
G75*
G36*
G01*
X130000Y188300D02*
G03*
X130000I0J6700D01*
G37*
G74*
*
G75*
G36*
G01*
X139000Y273250D02*
G03*
X139000I0J2750D01*
G37*
G74*
*
G75*
G36*
G01*
X138000Y287250D02*
G03*
X138000I0J2750D01*
G37*
G74*
*
G75*
G36*
G01*
X137000Y332250D02*
G03*
X137000I0J2750D01*
G37*
G74*
*
G75*
G36*
G01*
X130000Y363300D02*
G03*
X130000I0J6700D01*
G37*
G74*
*
G75*
G36*
G01*
X110000Y188300D02*
G03*
X110000I0J6700D01*
G37*
G74*
*
G75*
G36*
G01*
Y363300D02*
G03*
X110000I0J6700D01*
G37*
G74*
*
G75*
G36*
G01*
X120000Y375050D02*
G03*
X120000I0J4950D01*
G37*
G74*
*
G75*
G36*
G01*
X130000Y383300D02*
G03*
X130000I0J6700D01*
G37*
G74*
*
G75*
G36*
G01*
Y413800D02*
G03*
X130000I0J6200D01*
G37*
G74*
*
G75*
G36*
G01*
Y453800D02*
G03*
X130000I0J6200D01*
G37*
G74*
*
G75*
G36*
G01*
X137000Y477250D02*
G03*
X137000I0J2750D01*
G37*
G74*
*
G75*
G36*
G01*
X110000Y383300D02*
G03*
X110000I0J6700D01*
G37*
G74*
*
G75*
G36*
G01*
X175000Y270250D02*
G03*
X175000I0J2750D01*
G37*
G74*
*
*
G04 PC Area=ANP000277*
G75*
G36*
G01*
X684000Y236750D02*
G03*
X684000I0J2750D01*
G37*
G74*
*
G75*
G36*
G01*
X686000Y245750D02*
G03*
X686000I0J2750D01*
G37*
G74*
*
G75*
G36*
G01*
X689172Y300740D02*
G02*
X692204Y300110I1978J1910D01*
X689172Y300740I-1978J-1910D01*
G37*
G74*
*
G75*
G36*
G01*
X684146Y260750D02*
G03*
X684146I0J2750D01*
G37*
G74*
*
G75*
G36*
G01*
X690000Y305800D02*
G03*
X690000I0J4200D01*
G37*
G74*
*
G75*
G36*
G01*
Y315800D02*
G03*
X690000I0J4200D01*
G37*
G74*
*
G75*
G36*
G01*
Y325800D02*
G03*
X690000I0J4200D01*
G37*
G74*
*
G75*
G36*
G01*
Y335800D02*
G03*
X690000I0J4200D01*
G37*
G74*
*
G75*
G36*
G01*
Y345800D02*
G03*
X690000I0J4200D01*
G37*
G74*
*
G75*
G36*
G01*
Y355800D02*
G03*
X690000I0J4200D01*
G37*
G74*
*
G75*
G36*
G01*
Y365800D02*
G03*
X690000I0J4200D01*
G37*
G74*
*
G75*
G36*
G01*
Y375800D02*
G03*
X690000I0J4200D01*
G37*
G74*
*
G75*
G36*
G01*
Y385800D02*
G03*
X690000I0J4200D01*
G37*
G74*
*
G75*
G36*
G01*
Y395800D02*
G03*
X690000I0J4200D01*
G37*
G74*
*
G75*
G36*
G01*
X694040Y408740D02*
G03*
X694040I0J2750D01*
G37*
G74*
*
G75*
G36*
G01*
X673660Y197070D02*
G03*
X673660I0J2750D01*
G37*
G74*
*
G75*
G36*
G01*
X680000Y305800D02*
G03*
X680000I0J4200D01*
G37*
G74*
*
G75*
G36*
G01*
Y315800D02*
G03*
X680000I0J4200D01*
G37*
G74*
*
G75*
G36*
G01*
Y325800D02*
G03*
X680000I0J4200D01*
G37*
G74*
*
G75*
G36*
G01*
X661000Y119250D02*
G03*
X661000I0J2750D01*
G37*
G74*
*
G75*
G36*
G01*
X664250Y135020D02*
G03*
X664250I0J2750D01*
G37*
G74*
*
G75*
G36*
G01*
X663000Y172250D02*
G03*
X663000I0J2750D01*
G37*
G74*
*
G75*
G36*
G01*
X667500Y197250D02*
G03*
X667500I0J2750D01*
G37*
G74*
*
G75*
G36*
G01*
X670500Y261250D02*
G03*
X670500I0J2750D01*
G37*
G74*
*
G75*
G36*
G01*
X675801Y340069D02*
G02*
X677151Y336914I4199J-69D01*
X671885Y338498I-2651J732D01*
X672615Y339648I-1885J2002D01*
X675801Y340069I1885J-2002D01*
G37*
G74*
*
G75*
G36*
G01*
X680000Y345800D02*
G03*
X680000I0J4200D01*
G37*
G74*
*
G75*
G36*
G01*
X673500Y354250D02*
G03*
X673500I0J2750D01*
G37*
G74*
*
G75*
G36*
G01*
X680000Y355800D02*
G03*
X680000I0J4200D01*
G37*
G74*
*
G75*
G36*
G01*
Y365800D02*
G03*
X680000I0J4200D01*
G37*
G74*
*
G75*
G36*
G01*
Y375800D02*
G03*
X680000I0J4200D01*
G37*
G74*
*
G75*
G36*
G01*
Y385800D02*
G03*
X680000I0J4200D01*
G37*
G74*
*
G75*
G36*
G01*
Y395800D02*
G03*
X680000I0J4200D01*
G37*
G74*
*
G75*
G36*
G01*
X670500Y359750D02*
G03*
X670500I0J2750D01*
G37*
G74*
*
G75*
G36*
G01*
X671677Y365250D02*
G03*
X671677I-0J2750D01*
G37*
G74*
*
G75*
G36*
G01*
X678543Y409150D02*
G03*
X678543I0J7228D01*
G37*
G74*
*
G75*
G36*
G01*
X652500Y107250D02*
G03*
X652500I0J2750D01*
G37*
G74*
*
G75*
G36*
G01*
X649000Y138250D02*
G03*
X649000I0J2750D01*
G37*
G74*
*
G75*
G36*
G01*
X649500Y153750D02*
G03*
X649500I0J2750D01*
G37*
G74*
*
G75*
G36*
G01*
X653400Y160850D02*
G03*
X653400I0J2750D01*
G37*
G74*
*
G75*
G36*
G01*
X652500Y167750D02*
G03*
X652500I0J2750D01*
G37*
G74*
*
G75*
G36*
G01*
Y197250D02*
G03*
X652500I0J2750D01*
G37*
G74*
*
G75*
G36*
G01*
X657500Y236750D02*
G03*
X657500I0J2750D01*
G37*
G74*
*
G75*
G36*
G01*
X655500Y252750D02*
G03*
X655500I0J2750D01*
G37*
G74*
*
G75*
G36*
G01*
X637677Y107427D02*
G03*
X637677I-0J2750D01*
G37*
G74*
*
G75*
G36*
G01*
X636610Y138243D02*
G03*
X636610I0J2750D01*
G37*
G74*
*
G75*
G36*
G01*
X641059Y157693D02*
G02*
X638097Y156337I-559J-2693D01*
X641059Y157693I558J2692D01*
G37*
G74*
*
G75*
G36*
G01*
X646000Y192250D02*
G03*
X646000I0J2750D01*
G37*
G74*
*
G75*
G36*
G01*
Y217250D02*
G03*
X646000I0J2750D01*
G37*
G74*
*
G75*
G36*
G01*
X648500Y235250D02*
G03*
X648500I0J2750D01*
G37*
G74*
*
G75*
G36*
G01*
X645954Y254496D02*
G03*
X645954I-0J2750D01*
G37*
G74*
*
G75*
G36*
G01*
X649571Y267690D02*
G02*
X646929Y266810I-571J-2690D01*
X649571Y267690I571J2690D01*
G37*
G74*
*
G75*
G36*
G01*
X652000Y270250D02*
G03*
X652000I0J2750D01*
G37*
G74*
*
G75*
G36*
G01*
X658504Y304563D02*
G02*
X658680Y299375I996J-2563D01*
X656847Y302724I-2653J724D01*
X656996Y303137I2653J-724D01*
X658504Y304563I-996J2563D01*
G37*
G74*
*
G75*
G36*
G01*
X661187Y321917D02*
G02*
X659813Y320083I1313J-2417D01*
X658747Y319761I-1313J2417D01*
X658033Y317775I-2747J-135D01*
X658745Y312462I967J-2575D01*
X656255Y315038I-2745J-162D01*
X656967Y317051I2745J162D01*
X655753Y322365I-967J2575D01*
X661187Y321917I2747J135D01*
G37*
G74*
*
G75*
G36*
G01*
X662400Y371570D02*
G03*
X662400I0J2750D01*
G37*
G74*
*
G75*
G36*
G01*
X663000Y423250D02*
G03*
X663000I0J2750D01*
G37*
G74*
*
G75*
G36*
G01*
X656000Y336750D02*
G03*
X656000I0J2750D01*
G37*
G74*
*
G75*
G36*
G01*
X651881Y349161D02*
G02*
X654329Y347255I2619J839D01*
X651881Y349161I-2619J-839D01*
G37*
G74*
*
G75*
G36*
G01*
X655000Y358750D02*
G03*
X655000I0J2750D01*
G37*
G74*
*
G75*
G36*
G01*
X663937Y436620D02*
G02*
Y433695I3937J-1463D01*
Y436620I-3937J1462D01*
G37*
G74*
*
G75*
G36*
G01*
Y446463D02*
G02*
Y443537I3937J-1463D01*
Y446463I-3937J1463D01*
G37*
G74*
*
G75*
G36*
G01*
X673000Y450750D02*
G03*
X673000I0J2750D01*
G37*
G74*
*
G75*
G36*
G01*
X678543Y456552D02*
G03*
X678543I0J7228D01*
G37*
G74*
*
G75*
G36*
G01*
X669440Y472400D02*
G03*
X669440I0J2750D01*
G37*
G74*
*
G75*
G36*
G01*
X658000Y460250D02*
G03*
X658000I0J2750D01*
G37*
G74*
*
G75*
G36*
G01*
Y476250D02*
G03*
X658000I0J2750D01*
G37*
G74*
*
G75*
G36*
G01*
X660000Y485800D02*
G03*
X660000I0J4200D01*
G37*
G74*
*
G75*
G36*
G01*
X641248Y264398D02*
G02*
X638282Y261759I-218J-2742D01*
X641248Y264398I218J2741D01*
G37*
G74*
*
G75*
G36*
G01*
X631280Y225623D02*
G02*
X628171Y221313I-980J-2569D01*
X626955Y225579I-2171J1687D01*
X631280Y225623I2145J1721D01*
G37*
G74*
*
G75*
G36*
G01*
X627500Y235750D02*
G03*
X627500I0J2750D01*
G37*
G74*
*
G75*
G36*
G01*
X628500Y244250D02*
G03*
X628500I0J2750D01*
G37*
G74*
*
G75*
G36*
G01*
X627500Y250250D02*
G03*
X627500I0J2750D01*
G37*
G74*
*
G75*
G36*
G01*
X635114Y296382D02*
G02*
X635127Y294590I2607J-876D01*
X635114Y296382I-2606J876D01*
G37*
G74*
*
G75*
G36*
G01*
X646614Y305771D02*
G02*
X642021Y303675I-1844J-2041D01*
X642320Y304978I-2451J1248D01*
X642657Y305489I2450J-1248D01*
X646614Y305771I1843J2041D01*
G37*
G74*
*
G75*
G36*
G01*
X644500Y311250D02*
G03*
X644500I0J2750D01*
G37*
G74*
*
G75*
G36*
G01*
X637100Y310223D02*
G03*
X637100I0J2751D01*
G37*
G74*
*
G75*
G36*
G01*
X639099Y320601D02*
G02*
X638680Y319824I2180J-1676D01*
X635876Y324178I-2180J1676D01*
X639124Y322322I2624J822D01*
X639099Y320601I-2624J-822D01*
G37*
G74*
*
G75*
G36*
G01*
X638415Y343185D02*
G02*
X637106Y341982I1106J-2518D01*
X638415Y343185I-1106J2518D01*
G37*
G74*
*
G75*
G36*
G01*
X643813Y361987D02*
G02*
X642987Y358187I1487J-2313D01*
X642798Y358075I-1487J2313D01*
X639696Y358425I-1805J-2075D01*
X639022Y359307I1804J2075D01*
X633686Y358841I-2722J389D01*
X631857Y357133I-2586J935D01*
X628707Y358421I-2392J-1356D01*
X630099Y362338I2393J1355D01*
X632783Y361951I1683J2174D01*
X633714Y360631I-1683J-2175D01*
X638778Y360889I2586J-935D01*
X643813Y361987I2722J-389D01*
G37*
G74*
*
G75*
G36*
G01*
X639864Y367260D02*
G03*
X639864I-0J2750D01*
G37*
G74*
*
G75*
G36*
G01*
X643000Y379250D02*
G03*
X643000I0J2750D01*
G37*
G74*
*
G75*
G36*
G01*
X646000Y398250D02*
G03*
X646000I0J2750D01*
G37*
G74*
*
G75*
G36*
G01*
X648000Y423250D02*
G03*
X648000I0J2750D01*
G37*
G74*
*
G75*
G36*
G01*
X646000Y455800D02*
G03*
X646000I0J4200D01*
G37*
G74*
*
G75*
G36*
G01*
X650000Y485800D02*
G03*
X650000I0J4200D01*
G37*
G74*
*
G75*
G36*
G01*
X620350Y360246D02*
G02*
X623250Y357528I2750J28D01*
X620350Y360246I-2750J-28D01*
G37*
G74*
*
G75*
G36*
G01*
X627664Y369854D02*
G03*
X627664I-0J2750D01*
G37*
G74*
*
G75*
G36*
G01*
X629000Y411250D02*
G03*
X629000I0J2750D01*
G37*
G74*
*
G75*
G36*
G01*
X630500Y419750D02*
G03*
X630500I0J2750D01*
G37*
G74*
*
G75*
G36*
G01*
X618823Y367177D02*
G02*
X618380Y366364I2159J-1703D01*
X618823Y367177I-2160J1702D01*
G37*
G74*
*
G75*
G36*
G01*
X609500Y381360D02*
G03*
X609500I0J2750D01*
G37*
G74*
*
G75*
G36*
G01*
X615358Y390353D02*
G02*
X617717Y387198I2717J-428D01*
X615358Y390353I-2717J428D01*
G37*
G74*
*
G75*
G36*
G01*
X623000Y420250D02*
G03*
X623000I0J2750D01*
G37*
G74*
*
G75*
G36*
G01*
X627482Y438606D02*
G02*
X627318Y436894I2518J-1106D01*
X622693Y439767I-2518J1106D01*
X622608Y445222I307J2733D01*
X624192Y444978I1192J2478D01*
X625107Y440733I-1192J-2478D01*
X627482Y438606I-307J-2733D01*
G37*
G74*
*
G75*
G36*
G01*
X630000Y472250D02*
G03*
X630000I0J2750D01*
G37*
G74*
*
G75*
G36*
G01*
X623000Y491250D02*
G03*
X623000I0J2750D01*
G37*
G74*
*
G75*
G36*
G01*
X612000Y400400D02*
G03*
X612000I0J2750D01*
G37*
G74*
*
G75*
G36*
G01*
X611716Y427735D02*
G02*
X613887Y423000I284J-2735D01*
X610113I-1887J-2000D01*
X609284Y425431I1887J2000D01*
X611716Y427735I-284J2735D01*
G37*
G74*
*
G75*
G36*
G01*
X612000Y435650D02*
G03*
X612000I0J2750D01*
G37*
G74*
*
G75*
G36*
G01*
X597958Y364050D02*
G02*
X598678Y360940I2542J-1050D01*
X597958Y364050I-2542J1050D01*
G37*
G74*
*
G75*
G36*
G01*
X597000Y371250D02*
G03*
X597000I0J2750D01*
G37*
G74*
*
G75*
G36*
G01*
X600960Y382271D02*
G02*
X598977Y380792I477J-2708D01*
X597103Y381131I-477J2708D01*
X592294Y381592I-2530J-1078D01*
X596002Y384651I1004J2560D01*
X600960Y382271I2498J-1151D01*
G37*
G74*
*
G75*
G36*
G01*
X606000Y436250D02*
G03*
X606000I0J2750D01*
G37*
G74*
*
G75*
G36*
G01*
X608872Y446910D02*
G02*
X609028Y442940I1978J-1910D01*
X608872Y446910I-1978J1910D01*
G37*
G74*
*
G75*
G36*
G01*
X616000Y447250D02*
G03*
X616000I0J2750D01*
G37*
G74*
*
G75*
G36*
G01*
X611400Y457988D02*
G02*
Y454012I1900J-1988D01*
Y457988I-1900J1988D01*
G37*
G74*
*
G75*
G36*
G01*
X615500Y464250D02*
G03*
X615500I0J2750D01*
G37*
G74*
*
G75*
G36*
G01*
X612500Y487250D02*
G03*
X612500I0J2750D01*
G37*
G74*
*
G75*
G36*
G01*
X596000Y392250D02*
G03*
X596000I0J2750D01*
G37*
G74*
*
G75*
G36*
G01*
X584146Y339656D02*
G02*
X581168Y337032I-230J-2740D01*
X584146Y339656I230J2740D01*
G37*
G74*
*
G75*
G36*
G01*
X578693Y352197D02*
G02*
X580721Y347964I2307J-1497D01*
X579779Y348236I-1221J-2464D01*
X578481Y351803I1221J2464D01*
X577402Y350839I-2307J1497D01*
X573772Y351961I-2402J-1339D01*
X573472Y352791I2402J1339D01*
X575702Y356009I-472J2709D01*
X577092Y355892I472J-2709D01*
X578393Y354925I2219J1625D01*
X578693Y352197I-2219J-1625D01*
G37*
G74*
*
G75*
G36*
G01*
X585600Y392405D02*
G03*
X585600I0J2750D01*
G37*
G74*
*
G75*
G36*
G01*
X590900Y445896D02*
G02*
Y444104I2600J-896D01*
Y445896I-2600J896D01*
G37*
G74*
*
G75*
G36*
G01*
X591858Y457724D02*
G02*
X591942Y454176I2142J-1724D01*
X591858Y457724I-2142J1724D01*
G37*
G74*
*
G75*
G36*
G01*
X600000Y470800D02*
G03*
X600000I0J4200D01*
G37*
G74*
*
G75*
G36*
G01*
X590000Y485800D02*
G03*
X590000I0J4200D01*
G37*
G74*
*
G75*
G36*
G01*
X573000Y364750D02*
G03*
X573000I0J2750D01*
G37*
G74*
*
G75*
G36*
G01*
X577500Y381250D02*
G03*
X577500I0J2750D01*
G37*
G74*
*
G75*
G36*
G01*
X566990Y368074D02*
G03*
X566990I-0J2750D01*
G37*
G74*
*
G75*
G36*
G01*
X568668Y381250D02*
G03*
X568668I-0J2750D01*
G37*
G74*
*
G75*
G36*
G01*
X576844Y397430D02*
G02*
X578649Y394076I2650J-736D01*
X573368Y394016I-2649J737D01*
X573432Y395797I-2568J984D01*
X576844Y397430I2568J-984D01*
G37*
G74*
*
G75*
G36*
G01*
X578000Y426750D02*
G03*
X578000I0J2750D01*
G37*
G74*
*
G75*
G36*
G01*
X581000Y453250D02*
G03*
X581000I0J2750D01*
G37*
G74*
*
G75*
G36*
G01*
X572500Y436750D02*
G03*
X572500I0J2750D01*
G37*
G74*
*
G75*
G36*
G01*
X574000Y442250D02*
G03*
X574000I0J2750D01*
G37*
G74*
*
G75*
G36*
G01*
X580000Y470800D02*
G03*
X580000I0J4200D01*
G37*
G74*
*
G75*
G36*
G01*
X559000Y354750D02*
G03*
X559000I0J2750D01*
G37*
G74*
*
G75*
G36*
G01*
X560334Y376676D02*
G02*
X562366Y373324I2666J-676D01*
X560334Y376676I-2666J676D01*
G37*
G74*
*
G75*
G36*
G01*
X560000Y381250D02*
G03*
X560000I0J2750D01*
G37*
G74*
*
G75*
G36*
G01*
X542000Y111250D02*
G03*
X542000I0J2750D01*
G37*
G74*
*
G75*
G36*
G01*
X545500Y133250D02*
G03*
X545500I0J2750D01*
G37*
G74*
*
G75*
G36*
G01*
X537000Y118250D02*
G03*
X537000I0J2750D01*
G37*
G74*
*
G75*
G36*
G01*
X540500Y164750D02*
G03*
X540500I0J2750D01*
G37*
G74*
*
G75*
G36*
G01*
X545500Y199750D02*
G03*
X545500I0J2750D01*
G37*
G74*
*
G75*
G36*
G01*
X550743Y218547D02*
G02*
X551977Y213283I127J-2747D01*
X547138Y211660I-2094J-1783D01*
X548296Y216769I-238J2740D01*
X549626Y218253I2574J-969D01*
X548178Y218588I-126J2747D01*
X545570Y222527I-2478J1193D01*
X549216Y223735I1204J2473D01*
X550743Y218547I284J-2735D01*
G37*
G74*
*
G75*
G36*
G01*
X537377Y215175D02*
G03*
X537377I-0J2750D01*
G37*
G74*
*
G75*
G36*
G01*
X535551Y226789D02*
G02*
X535174Y222847I1711J-2153D01*
X535551Y226789I-1712J2153D01*
G37*
G74*
*
G75*
G36*
G01*
X534809Y239097D02*
G02*
X534095Y236707I1991J-1897D01*
X529565Y239662I-1992J1896D01*
X532944Y241221I841J2618D01*
X534809Y239097I-841J-2618D01*
G37*
G74*
*
G75*
G36*
G01*
X541735Y239387D02*
G03*
X541735I0J2750D01*
G37*
G74*
*
G75*
G36*
G01*
X536000Y245250D02*
G03*
X536000I0J2750D01*
G37*
G74*
*
G75*
G36*
G01*
X538742Y266414D02*
G02*
X542010Y262716I2543J-1045D01*
X538455Y259066I-1036J-2547D01*
X533959Y259390I-2135J1734D01*
G01*
X533893Y259355D01*
G02*
X530241Y260445I-2393J-1355D01*
X533699Y264335I2393J1355D01*
X538742Y266414I2386J1367D01*
G37*
G74*
*
G75*
G36*
G01*
X545610Y278874D02*
G02*
X546285Y275012I2237J-1599D01*
X545610Y278874I-2238J1599D01*
G37*
G74*
*
G75*
G36*
G01*
X547500Y298925D02*
G03*
X547500I0J2750D01*
G37*
G74*
*
G75*
G36*
G01*
X540399Y343208D02*
G02*
X540658Y341664I2730J-337D01*
X537183Y339353I-2729J336D01*
X536200Y337841I-2670J660D01*
X537970Y334451I-867J-2610D01*
X537896Y334234I2563J-997D01*
X532601Y334919I-2563J997D01*
X529055Y338406I-949J2581D01*
X524699Y340081I-1656J2195D01*
X526913Y343308I-487J2707D01*
X529996Y339695I486J-2707D01*
X531773Y340247I1656J-2195D01*
X535259Y342660I2740J-234D01*
X540399Y343208I2670J-660D01*
G37*
G74*
*
G75*
G36*
G01*
X548087Y349650D02*
G03*
X548087I0J2750D01*
G37*
G74*
*
G75*
G36*
G01*
X551595Y370166D02*
G02*
X553989Y368750I2405J1334D01*
X551595Y370166I-2405J-1334D01*
G37*
G74*
*
G75*
G36*
G01*
X552980Y376750D02*
G03*
X552980I-0J2750D01*
G37*
G74*
*
G75*
G36*
G01*
X559376Y405678D02*
G02*
X562624Y403822I2624J822D01*
X560694Y400339I-2624J-822D01*
X557359Y402234I-2641J-766D01*
X559376Y405678I2641J766D01*
G37*
G74*
*
G75*
G36*
G01*
X564500Y415750D02*
G03*
X564500I0J2750D01*
G37*
G74*
*
G75*
G36*
G01*
X567000Y440750D02*
G03*
X567000I0J2750D01*
G37*
G74*
*
G75*
G36*
G01*
X555926Y414532D02*
G02*
X559574Y412968I2574J968D01*
X558639Y409792I-2574J-968D01*
X554757Y410408I-2243J-1592D01*
X555926Y414532I2243J1592D01*
G37*
G74*
*
G75*
G36*
G01*
X560187Y442437D02*
G03*
X560187I0J2750D01*
G37*
G74*
*
G75*
G36*
G01*
X562000Y453250D02*
G03*
X562000I0J2750D01*
G37*
G74*
*
G75*
G36*
G01*
X567500Y487250D02*
G03*
X567500I0J2750D01*
G37*
G74*
*
G75*
G36*
G01*
X538081Y352750D02*
G03*
X538081I0J2750D01*
G37*
G74*
*
G75*
G36*
G01*
X542490Y363124D02*
G02*
X544551Y362250I2010J1876D01*
X542490Y363124I-2010J-1876D01*
G37*
G74*
*
G75*
G36*
G01*
X546417Y368833D02*
G03*
X546417I-0J2750D01*
G37*
G74*
*
G75*
G36*
G01*
X548471Y393446D02*
G03*
X548471I-0J2750D01*
G37*
G74*
*
G75*
G36*
G01*
X526700Y358221D02*
G02*
X526162Y358045I581J-2688D01*
X526700Y358221I-581J2688D01*
G37*
G74*
*
G75*
G36*
G01*
X535233Y369801D02*
G02*
X532699Y366757I200J-2742D01*
X530008Y368336I-199J2743D01*
X529792Y369977I-2708J478D01*
X535233Y369801I2708J-477D01*
G37*
G74*
*
G75*
G36*
G01*
X540088Y378320D02*
G02*
X541046Y374666I2412J-1320D01*
X540088Y378320I-2412J1320D01*
G37*
G74*
*
G75*
G36*
G01*
X540699Y399362D02*
G02*
X539749Y397935I1699J-2162D01*
X539114Y402633I-1700J2162D01*
X539045Y405239I2386J1367D01*
X540328Y406488I-1172J2488D01*
X540435Y401465I1172J-2488D01*
X540699Y399362I-2386J-1368D01*
G37*
G74*
*
G75*
G36*
G01*
X547843Y407407D02*
G03*
X547843I0J2750D01*
G37*
G74*
*
G75*
G36*
G01*
X546500Y427250D02*
G03*
X546500I0J2750D01*
G37*
G74*
*
G75*
G36*
G01*
X548000Y434250D02*
G03*
X548000I0J2750D01*
G37*
G74*
*
G75*
G36*
G01*
X549300Y442250D02*
G03*
X549300I0J2750D01*
G37*
G74*
*
G75*
G36*
G01*
X553000Y472250D02*
G03*
X553000I0J2750D01*
G37*
G74*
*
G75*
G36*
G01*
X551000Y487250D02*
G03*
X551000I0J2750D01*
G37*
G74*
*
G75*
G36*
G01*
X538000Y426750D02*
G03*
X538000I0J2750D01*
G37*
G74*
*
G75*
G36*
G01*
X535243Y452738D02*
G02*
X534590Y452595I257J-2738D01*
X531674Y454632I-257J2738D01*
X531659Y455976I-2674J643D01*
X535243Y452738I2674J-643D01*
G37*
G74*
*
G75*
G36*
G01*
X541000Y457750D02*
G03*
X541000I0J2750D01*
G37*
G74*
*
G75*
G36*
G01*
X533000Y462250D02*
G03*
X533000I0J2750D01*
G37*
G74*
*
G75*
G36*
G01*
X527500Y489750D02*
G03*
X527500I0J2750D01*
G37*
G74*
*
G75*
G36*
G01*
X516458Y365750D02*
G03*
X516458I-0J2750D01*
G37*
G74*
*
G75*
G36*
G01*
X512500Y415750D02*
G03*
X512500I0J2750D01*
G37*
G74*
*
G75*
G36*
G01*
X515500Y422250D02*
G03*
X515500I0J2750D01*
G37*
G74*
*
G75*
G36*
G01*
X518000Y465250D02*
G03*
X518000I0J2750D01*
G37*
G74*
*
G75*
G36*
G01*
Y471250D02*
G03*
X518000I0J2750D01*
G37*
G74*
*
G75*
G36*
G01*
X502113Y367000D02*
G02*
X506002Y366886I2001J1886D01*
X502113Y367000I-2002J-1886D01*
G37*
G74*
*
G75*
G36*
G01*
X505940Y432850D02*
G03*
X505940I0J2750D01*
G37*
G74*
*
G75*
G36*
G01*
X509000Y451750D02*
G03*
X509000I0J2750D01*
G37*
G74*
*
G75*
G36*
G01*
Y468750D02*
G03*
X509000I0J2750D01*
G37*
G74*
*
G75*
G36*
G01*
X497500Y381750D02*
G03*
X497500I0J2750D01*
G37*
G74*
*
G75*
G36*
G01*
X497450Y424360D02*
G03*
X497450I0J2750D01*
G37*
G74*
*
G75*
G36*
G01*
X482900Y254550D02*
G03*
X482900I0J2750D01*
G37*
G74*
*
G75*
G36*
G01*
X484402Y306598D02*
G02*
X486098Y304902I2598J902D01*
X484402Y306598I-2598J-902D01*
G37*
G74*
*
G75*
G36*
G01*
X479190Y312071D02*
G02*
X478310Y309429I1810J-2071D01*
X473841Y310799I-1810J2071D01*
X475722Y314138I-778J2638D01*
X479190Y312071I778J-2638D01*
G37*
G74*
*
G75*
G36*
G01*
X486500Y329250D02*
G03*
X486500I0J2750D01*
G37*
G74*
*
G75*
G36*
G01*
X488400Y344488D02*
G02*
Y340512I1900J-1988D01*
Y344488I-1900J1988D01*
G37*
G74*
*
G75*
G36*
G01*
X490057Y353437D02*
G03*
X490057I-0J2750D01*
G37*
G74*
*
G75*
G36*
G01*
X483457Y353850D02*
G03*
X483457I-0J2750D01*
G37*
G74*
*
G75*
G36*
G01*
X467500Y258250D02*
G03*
X467500I0J2750D01*
G37*
G74*
*
G75*
G36*
G01*
X467825Y339929D02*
G03*
X467825I-0J2750D01*
G37*
G74*
*
G75*
G36*
G01*
X472378Y359106D02*
G02*
X474248Y356394I2748J-106D01*
X468813Y357083I-2748J106D01*
X465434Y361315I-1313J2417D01*
X466639Y362112I-861J2612D01*
X470187Y358917I861J-2612D01*
X472378Y359106I1313J-2417D01*
G37*
G74*
*
G75*
G36*
G01*
X480600Y361850D02*
G03*
X480600I0J2750D01*
G37*
G74*
*
G75*
G36*
G01*
X479472Y373651D02*
G02*
X481941Y370562I2728J-351D01*
X479472Y373651I-2728J351D01*
G37*
G74*
*
G75*
G36*
G01*
X481500Y379646D02*
G02*
Y377354I2500J-1146D01*
Y379646I-2500J1146D01*
G37*
G74*
*
G75*
G36*
G01*
X487500Y397250D02*
G03*
X487500I0J2750D01*
G37*
G74*
*
G75*
G36*
G01*
Y417250D02*
G03*
X487500I0J2750D01*
G37*
G74*
*
G75*
G36*
G01*
X489903Y427551D02*
G03*
X489903I-0J2750D01*
G37*
G74*
*
G75*
G36*
G01*
X491354Y485000D02*
G02*
X493646I1146J2500D01*
Y480000I-1146J-2500D01*
X491354I-1146J-2500D01*
Y485000I1146J2500D01*
G37*
G74*
*
G75*
G36*
G01*
X493000Y491750D02*
G03*
X493000I0J2750D01*
G37*
G74*
*
G75*
G36*
G01*
X470411Y374772D02*
G02*
X474376Y374550I2089J1789D01*
X472460Y370016I-2089J-1789D01*
X471898Y367368I-2623J-826D01*
X468440Y366822I-1398J-2368D01*
X469664Y371934I1397J2368D01*
X470411Y374772I2623J827D01*
G37*
G74*
*
G75*
G36*
G01*
X478000Y401250D02*
G03*
X478000I0J2750D01*
G37*
G74*
*
G75*
G36*
G01*
Y412250D02*
G03*
X478000I0J2750D01*
G37*
G74*
*
G75*
G36*
G01*
X481100Y462050D02*
G03*
X481100I0J2750D01*
G37*
G74*
*
G75*
G36*
G01*
X464667Y372583D02*
G03*
X464667I-0J2750D01*
G37*
G74*
*
G75*
G36*
G01*
X450500Y182750D02*
G03*
X450500I0J2750D01*
G37*
G74*
*
G75*
G36*
G01*
X437500Y107250D02*
G03*
X437500I0J2750D01*
G37*
G74*
*
G75*
G36*
G01*
X428000Y112250D02*
G03*
X428000I0J2750D01*
G37*
G74*
*
G75*
G36*
G01*
X432500Y127250D02*
G03*
X432500I0J2750D01*
G37*
G74*
*
G75*
G36*
G01*
X437500Y160250D02*
G03*
X437500I0J2750D01*
G37*
G74*
*
G75*
G36*
G01*
X437822Y166181D02*
G03*
X437822I-0J2750D01*
G37*
G74*
*
G75*
G36*
G01*
X434760Y179238D02*
G02*
X437240Y176262I2740J-238D01*
X434760Y179238I-2740J238D01*
G37*
G74*
*
G75*
G36*
G01*
X437191Y187433D02*
G02*
X434809Y185267I309J-2733D01*
X437191Y187433I-309J2733D01*
G37*
G74*
*
G75*
G36*
G01*
X437000Y195250D02*
G03*
X437000I0J2750D01*
G37*
G74*
*
G75*
G36*
G01*
X441500Y200250D02*
G03*
X441500I0J2750D01*
G37*
G74*
*
G75*
G36*
G01*
X444500Y212250D02*
G03*
X444500I0J2750D01*
G37*
G74*
*
G75*
G36*
G01*
X447300Y234323D02*
G03*
X447300I0J2750D01*
G37*
G74*
*
G75*
G36*
G01*
X451917Y241687D02*
G02*
X450083Y240313I583J-2687D01*
X451917Y241687I-583J2687D01*
G37*
G74*
*
G75*
G36*
G01*
X454900Y243750D02*
G03*
X454900I0J2750D01*
G37*
G74*
*
G75*
G36*
G01*
X441500Y228250D02*
G03*
X441500I0J2750D01*
G37*
G74*
*
G75*
G36*
G01*
X446367Y251019D02*
G02*
X446433Y247044I1933J-1956D01*
X446367Y251019I-1933J1956D01*
G37*
G74*
*
G75*
G36*
G01*
X448738Y259137D02*
G02*
X451147Y256178I2740J-229D01*
X448738Y259137I-2740J229D01*
G37*
G74*
*
G75*
G36*
G01*
X441421Y264270D02*
G02*
X443157Y264130I1079J2530D01*
X441421Y264270I-1079J-2530D01*
G37*
G74*
*
G75*
G36*
G01*
X443760Y277170D02*
G03*
X443760I0J2750D01*
G37*
G74*
*
G75*
G36*
G01*
X450400Y290371D02*
G02*
Y288579I2600J-896D01*
X445900Y287487I-2600J896D01*
X442054Y291418I-1900J1988D01*
X445464Y295221I946J2582D01*
X445736Y294279I2736J279D01*
X444946Y292057I-2736J-279D01*
X445900Y291463I-946J-2582D01*
X450400Y290371I1900J-1988D01*
G37*
G74*
*
G75*
G36*
G01*
X444867Y317383D02*
G03*
X444867I-0J2750D01*
G37*
G74*
*
G75*
G36*
G01*
X442500Y324350D02*
G03*
X442500I0J2750D01*
G37*
G74*
*
G75*
G36*
G01*
X446263Y330750D02*
G03*
X446263I-0J2750D01*
G37*
G74*
*
G75*
G36*
G01*
X450500Y335250D02*
G03*
X450500I0J2750D01*
G37*
G74*
*
G75*
G36*
G01*
X454500Y339750D02*
G03*
X454500I0J2750D01*
G37*
G74*
*
G75*
G36*
G01*
X453343Y357705D02*
G02*
X453857Y353795I2157J-1705D01*
X453343Y357705I-2157J1705D01*
G37*
G74*
*
G75*
G36*
G01*
X460500Y377750D02*
G03*
X460500I0J2750D01*
G37*
G74*
*
G75*
G36*
G01*
X465000Y411146D02*
G02*
Y408854I2500J-1146D01*
Y411146I-2500J1146D01*
G37*
G74*
*
G75*
G36*
G01*
X467500Y418050D02*
G03*
X467500I0J2750D01*
G37*
G74*
*
G75*
G36*
G01*
X471459Y425250D02*
G03*
X471459I0J2750D01*
G37*
G74*
*
G75*
G36*
G01*
X475000Y449250D02*
G03*
X475000I0J2750D01*
G37*
G74*
*
G75*
G36*
G01*
X473780Y478879D02*
G03*
X473780I-0J6121D01*
G37*
G74*
*
G75*
G36*
G01*
X453773Y364750D02*
G03*
X453773I0J2750D01*
G37*
G74*
*
G75*
G36*
G01*
X454720Y400330D02*
G03*
X454720I0J2750D01*
G37*
G74*
*
G75*
G36*
G01*
X444863Y336534D02*
G03*
X444863I-0J2750D01*
G37*
G74*
*
G75*
G36*
G01*
X440472Y351950D02*
G03*
X440472I0J2750D01*
G37*
G74*
*
G75*
G36*
G01*
X438500Y358250D02*
G03*
X438500I0J2750D01*
G37*
G74*
*
G75*
G36*
G01*
X444372Y366725D02*
G02*
X446715Y363562I2715J-438D01*
X444372Y366725I-2715J438D01*
G37*
G74*
*
G75*
G36*
G01*
X443139Y384435D02*
G02*
X443061Y382660I2561J-1002D01*
X443139Y384435I-2561J1003D01*
G37*
G74*
*
G75*
G36*
G01*
X447500Y407250D02*
G03*
X447500I0J2750D01*
G37*
G74*
*
G75*
G36*
G01*
X450000Y418800D02*
G03*
X450000I0J4200D01*
G37*
G74*
*
G75*
G36*
G01*
X460000Y478879D02*
G03*
X460000I0J6121D01*
G37*
G74*
*
G75*
G36*
G01*
X440530Y392640D02*
G03*
X440530I0J2750D01*
G37*
G74*
*
G75*
G36*
G01*
X443200Y462250D02*
G03*
X443200I0J2750D01*
G37*
G74*
*
G75*
G36*
G01*
X442200Y472350D02*
G03*
X442200I0J2750D01*
G37*
G74*
*
G75*
G36*
G01*
X428090Y142310D02*
G03*
X428090I0J2750D01*
G37*
G74*
*
G75*
G36*
G01*
X430000Y218750D02*
G03*
X430000I0J2750D01*
G37*
G74*
*
G75*
G36*
G01*
Y237250D02*
G03*
X430000I0J2750D01*
G37*
G74*
*
G75*
G36*
G01*
Y246750D02*
G03*
X430000I0J2750D01*
G37*
G74*
*
G75*
G36*
G01*
X428877Y266690D02*
G02*
X430574Y266510I1123J2510D01*
X428650Y261369I-1123J-2510D01*
X429835Y259371I-1551J-2270D01*
X427264Y256353I165J-2745D01*
X427900Y261729I-165J2746D01*
X428877Y266690I1551J2271D01*
G37*
G74*
*
G75*
G36*
G01*
X430000Y282250D02*
G03*
X430000I0J2750D01*
G37*
G74*
*
G75*
G36*
G01*
Y289050D02*
G03*
X430000I0J2750D01*
G37*
G74*
*
G75*
G36*
G01*
X430145Y301246D02*
G02*
X427355Y299254I-145J-2746D01*
X430145Y301246I145J2746D01*
G37*
G74*
*
G75*
G36*
G01*
X429500Y307250D02*
G03*
X429500I0J2750D01*
G37*
G74*
*
G75*
G36*
G01*
X429104Y331434D02*
G02*
X430896I896J2600D01*
X429104I-896J-2600D01*
G37*
G74*
*
G75*
G36*
G01*
X423500Y307750D02*
G03*
X423500I0J2750D01*
G37*
G74*
*
G75*
G36*
G01*
X416000Y294824D02*
G03*
X416000I0J2750D01*
G37*
G74*
*
G75*
G36*
G01*
X417000Y308250D02*
G03*
X417000I0J2750D01*
G37*
G74*
*
G75*
G36*
G01*
X422476Y323376D02*
G02*
X420376Y320103I587J-2687D01*
X422476Y323376I-587J2686D01*
G37*
G74*
*
G75*
G36*
G01*
X413000Y314668D02*
G03*
X413000I0J2750D01*
G37*
G74*
*
G75*
G36*
G01*
X418246Y330723D02*
G02*
X420683Y328286I2734J297D01*
X418246Y330723I-2734J-297D01*
G37*
G74*
*
G75*
G36*
G01*
X425000Y449250D02*
G03*
X425000I0J2750D01*
G37*
G74*
*
G75*
G36*
G01*
Y462250D02*
G03*
X425000I0J2750D01*
G37*
G74*
*
G75*
G36*
G01*
X416000Y345750D02*
G03*
X416000I0J2750D01*
G37*
G74*
*
G75*
G36*
G01*
X400000Y130800D02*
G03*
X400000I0J4200D01*
G37*
G74*
*
G75*
G36*
G01*
Y140800D02*
G03*
X400000I0J4200D01*
G37*
G74*
*
G75*
G36*
G01*
Y150800D02*
G03*
X400000I0J4200D01*
G37*
G74*
*
G75*
G36*
G01*
Y160800D02*
G03*
X400000I0J4200D01*
G37*
G74*
*
G75*
G36*
G01*
Y170800D02*
G03*
X400000I0J4200D01*
G37*
G74*
*
G75*
G36*
G01*
X401870Y189700D02*
G03*
X401870I0J2750D01*
G37*
G74*
*
G75*
G36*
G01*
X403500Y288250D02*
G03*
X403500I0J2750D01*
G37*
G74*
*
G75*
G36*
G01*
X408000Y330250D02*
G03*
X408000I0J2750D01*
G37*
G74*
*
G75*
G36*
G01*
X412000Y351750D02*
G03*
X412000I0J2750D01*
G37*
G74*
*
G75*
G36*
G01*
X391600Y162550D02*
G03*
X391600I0J2750D01*
G37*
G74*
*
G75*
G36*
G01*
X385720Y189596D02*
G02*
X384780Y187904I1780J-2096D01*
X385720Y189596I-1780J2096D01*
G37*
G74*
*
G75*
G36*
G01*
X389000Y214250D02*
G03*
X389000I0J2750D01*
G37*
G74*
*
G75*
G36*
G01*
X392000Y259250D02*
G03*
X392000I0J2750D01*
G37*
G74*
*
G75*
G36*
G01*
X395000Y293250D02*
G03*
X395000I0J2750D01*
G37*
G74*
*
G75*
G36*
G01*
X398500Y302250D02*
G03*
X398500I0J2750D01*
G37*
G74*
*
G75*
G36*
G01*
X401200Y321250D02*
G03*
X401200I0J2750D01*
G37*
G74*
*
G75*
G36*
G01*
X400000Y420800D02*
G03*
X400000I0J4200D01*
G37*
G74*
*
G75*
G36*
G01*
X385000Y225250D02*
G03*
X385000I0J2750D01*
G37*
G74*
*
G75*
G36*
G01*
X386500Y300150D02*
G03*
X386500I0J2750D01*
G37*
G74*
*
G75*
G36*
G01*
X390261Y312250D02*
G02*
X393039Y309750I2739J250D01*
X388400Y307512I-2739J-250D01*
X385564Y312086I-1900J1988D01*
X387353Y312114I853J2614D01*
X388400Y311488I-853J-2614D01*
X390261Y312250I1900J-1988D01*
G37*
G74*
*
G75*
G36*
G01*
X389212Y325602D02*
G02*
X390525Y324461I2368J1398D01*
X389212Y325602I-2369J-1398D01*
G37*
G74*
*
G75*
G36*
G01*
X370000Y130800D02*
G03*
X370000I0J4200D01*
G37*
G74*
*
G75*
G36*
G01*
Y140800D02*
G03*
X370000I0J4200D01*
G37*
G74*
*
G75*
G36*
G01*
Y150800D02*
G03*
X370000I0J4200D01*
G37*
G74*
*
G75*
G36*
G01*
Y160800D02*
G03*
X370000I0J4200D01*
G37*
G74*
*
G75*
G36*
G01*
Y170800D02*
G03*
X370000I0J4200D01*
G37*
G74*
*
G75*
G36*
G01*
X375140Y208750D02*
G03*
X375140I0J2750D01*
G37*
G74*
*
G75*
G36*
G01*
X367500Y197250D02*
G03*
X367500I0J2750D01*
G37*
G74*
*
G75*
G36*
G01*
X363700Y236350D02*
G03*
X363700I0J2750D01*
G37*
G74*
*
G75*
G36*
G01*
X363500Y251650D02*
G03*
X363500I0J2750D01*
G37*
G74*
*
G75*
G36*
G01*
X365000Y259250D02*
G03*
X365000I0J2750D01*
G37*
G74*
*
G75*
G36*
G01*
X367300Y267650D02*
G03*
X367300I0J2750D01*
G37*
G74*
*
G75*
G36*
G01*
X363100Y272250D02*
G03*
X363100I0J2750D01*
G37*
G74*
*
G75*
G36*
G01*
X367000Y276250D02*
G03*
X367000I0J2750D01*
G37*
G74*
*
G75*
G36*
G01*
X367500Y282450D02*
G03*
X367500I0J2750D01*
G37*
G74*
*
G75*
G36*
G01*
X371517Y287767D02*
G03*
X371517I-0J2750D01*
G37*
G74*
*
G75*
G36*
G01*
X378100Y295988D02*
G02*
Y292012I1900J-1988D01*
Y295988I-1900J1988D01*
G37*
G74*
*
G75*
G36*
G01*
X364042Y290902D02*
G02*
X365050Y290114I2150J1714D01*
X364042Y290902I-2150J-1714D01*
G37*
G74*
*
G75*
G36*
G01*
X378000Y112250D02*
G03*
X378000I0J2750D01*
G37*
G74*
*
G75*
G36*
G01*
X380000Y130800D02*
G03*
X380000I0J4200D01*
G37*
G74*
*
G75*
G36*
G01*
Y140800D02*
G03*
X380000I0J4200D01*
G37*
G74*
*
G75*
G36*
G01*
Y150800D02*
G03*
X380000I0J4200D01*
G37*
G74*
*
G75*
G36*
G01*
Y160800D02*
G03*
X380000I0J4200D01*
G37*
G74*
*
G75*
G36*
G01*
Y170800D02*
G03*
X380000I0J4200D01*
G37*
G74*
*
G75*
G36*
G01*
X389000Y339250D02*
G03*
X389000I0J2750D01*
G37*
G74*
*
G75*
G36*
G01*
X393000Y347250D02*
G03*
X393000I0J2750D01*
G37*
G74*
*
G75*
G36*
G01*
X384000Y349750D02*
G03*
X384000I0J2750D01*
G37*
G74*
*
G75*
G36*
G01*
X388000Y358250D02*
G03*
X388000I0J2750D01*
G37*
G74*
*
G75*
G36*
G01*
X375000Y362250D02*
G03*
X375000I0J2750D01*
G37*
G74*
*
G75*
G36*
G01*
X366147Y357719D02*
G02*
X365753Y353881I1753J-2119D01*
X366147Y357719I-1753J2119D01*
G37*
G74*
*
G75*
G36*
G01*
X367800Y381250D02*
G03*
X367800I0J2750D01*
G37*
G74*
*
G75*
G36*
G01*
X371000Y390250D02*
G03*
X371000I0J2750D01*
G37*
G74*
*
G75*
G36*
G01*
X374600Y430550D02*
G03*
X374600I0J2750D01*
G37*
G74*
*
G75*
G36*
G01*
X369000Y405250D02*
G03*
X369000I0J2750D01*
G37*
G74*
*
G75*
G36*
G01*
X370000Y452250D02*
G03*
X370000I0J2750D01*
G37*
G74*
*
G75*
G36*
G01*
X363000Y421250D02*
G03*
X363000I0J2750D01*
G37*
G74*
*
G75*
G36*
G01*
X414600Y123750D02*
G03*
X414600I0J2750D01*
G37*
G74*
*
G75*
G36*
G01*
X420000Y169250D02*
G03*
X420000I0J2750D01*
G37*
G74*
*
G75*
G36*
G01*
X418000Y203250D02*
G03*
X418000I0J2750D01*
G37*
G74*
*
G75*
G36*
G01*
X421000Y221750D02*
G03*
X421000I0J2750D01*
G37*
G74*
*
G75*
G36*
G01*
X410000Y130800D02*
G03*
X410000I0J4200D01*
G37*
G74*
*
G75*
G36*
G01*
Y140800D02*
G03*
X410000I0J4200D01*
G37*
G74*
*
G75*
G36*
G01*
Y150800D02*
G03*
X410000I0J4200D01*
G37*
G74*
*
G75*
G36*
G01*
Y160800D02*
G03*
X410000I0J4200D01*
G37*
G74*
*
G75*
G36*
G01*
Y170800D02*
G03*
X410000I0J4200D01*
G37*
G74*
*
G75*
G36*
G01*
X415961Y286602D02*
G02*
X414839Y282972I1339J-2402D01*
X412648Y282759I-1339J2402D01*
X410852Y286115I-2648J741D01*
X415961Y286602I2648J-741D01*
G37*
G74*
*
G75*
G36*
G01*
X422073Y293631D02*
G03*
X422073I-0J2750D01*
G37*
G74*
*
G75*
G36*
G01*
X457593Y206657D02*
G03*
X457593I0J2750D01*
G37*
G74*
*
G75*
G36*
G01*
X462500Y107250D02*
G03*
X462500I0J2750D01*
G37*
G74*
*
G75*
G36*
G01*
X473519Y185750D02*
G03*
X473519I-0J2750D01*
G37*
G74*
*
G75*
G36*
G01*
X466000Y157750D02*
G03*
X466000I0J2750D01*
G37*
G74*
*
G75*
G36*
G01*
X452500Y105750D02*
G03*
X452500I0J2750D01*
G37*
G74*
*
G75*
G36*
G01*
X455505Y141062D02*
G02*
X457886Y137921I2719J-412D01*
X455505Y141062I-2719J412D01*
G37*
G74*
*
G75*
G36*
G01*
X457000Y154250D02*
G03*
X457000I0J2750D01*
G37*
G74*
*
G75*
G36*
G01*
X451000Y140750D02*
G03*
X451000I0J2750D01*
G37*
G74*
*
G75*
G36*
G01*
X448500Y145750D02*
G03*
X448500I0J2750D01*
G37*
G74*
*
G75*
G36*
G01*
X450697Y161346D02*
G02*
Y156154I907J-2596D01*
X449407Y157096I-2197J-1654D01*
Y160404I2197J1654D01*
X450697Y161346I-907J2596D01*
G37*
G74*
*
G75*
G36*
G01*
X448500Y168550D02*
G03*
X448500I0J2750D01*
G37*
G74*
*
G75*
G36*
G01*
X455250Y181484D02*
G02*
X455550Y180251I2750J16D01*
X450992Y178162I-2750J-16D01*
X450308Y179073I-2492J-1162D01*
X455250Y181484I2492J1162D01*
G37*
G74*
*
G75*
G36*
G01*
X458300Y199450D02*
G03*
X458300I0J2750D01*
G37*
G74*
*
G75*
G36*
G01*
X463500Y201250D02*
G03*
X463500I0J2750D01*
G37*
G74*
*
G75*
G36*
G01*
X468284Y224736D02*
G02*
X468012Y223794I2464J-1221D01*
X466054Y222312I-2464J1221D01*
X466090Y221681I-2710J-468D01*
X463955Y219163I610J-2681D01*
X462838Y224547I-611J2681D01*
X468284Y224736I2710J468D01*
G37*
G74*
*
G75*
G36*
G01*
X475186Y240127D02*
G02*
X478014Y239373I2014J1873D01*
X473723Y235957I-2014J-1873D01*
X470119Y235747I-1923J1966D01*
X465472Y238582I-2119J1753D01*
X465601Y238845I-2399J1345D01*
X469681Y239676I2399J-1345D01*
X474077Y239466I2119J-1753D01*
X475186Y240127I1923J-1966D01*
G37*
G74*
*
G75*
G36*
G01*
X477500Y107250D02*
G03*
X477500I0J2750D01*
G37*
G74*
*
G75*
G36*
G01*
X480840Y140449D02*
G02*
X480760Y136474I1860J-2025D01*
X476160Y138270I-1860J2026D01*
X471240I-2460J1230D01*
X465882Y139341I-2740J230D01*
X466802Y143371I-1308J2419D01*
X472012Y141671I2533J-1071D01*
X476440Y139730I1688J-2171D01*
X480840Y140449I2460J-1230D01*
G37*
G74*
*
G75*
G36*
G01*
X478115Y190132D02*
G02*
X481785Y189068I2385J1368D01*
X478115Y190132I-2386J-1368D01*
G37*
G74*
*
G75*
G36*
G01*
X489303Y218746D02*
G02*
X487981Y217700I963J-2576D01*
X485912Y217758I-963J2576D01*
X481498Y214478I-2246J-1588D01*
Y217862I-2168J1692D01*
X484773Y218687I2168J-1692D01*
X489303Y218746I2245J1589D01*
G37*
G74*
*
G75*
G36*
G01*
X481790Y226705D02*
G02*
X482305Y222795I2158J-1705D01*
X481790Y226705I-2157J1705D01*
G37*
G74*
*
G75*
G36*
G01*
X503000Y339750D02*
G03*
X503000I0J2750D01*
G37*
G74*
*
G75*
G36*
G01*
X492000Y288125D02*
G03*
X492000I0J2750D01*
G37*
G74*
*
G75*
G36*
G01*
X495000Y298750D02*
G03*
X495000I0J2750D01*
G37*
G74*
*
G75*
G36*
G01*
X512363Y217150D02*
G03*
X512363I0J2750D01*
G37*
G74*
*
G75*
G36*
G01*
X512300Y237250D02*
G03*
X512300I0J2750D01*
G37*
G74*
*
G75*
G36*
G01*
X514000Y255250D02*
G03*
X514000I0J2750D01*
G37*
G74*
*
G75*
G36*
G01*
X502500Y130056D02*
G03*
X502500I0J2750D01*
G37*
G74*
*
G75*
G36*
G01*
X487500Y107250D02*
G03*
X487500I0J2750D01*
G37*
G74*
*
G75*
G36*
G01*
X492841Y141201D02*
G02*
X494722Y137862I2659J-701D01*
X489586Y137369I-2659J701D01*
X490777Y140994I-1286J2431D01*
X492841Y141201I1286J-2431D01*
G37*
G74*
*
G75*
G36*
G01*
X500266Y147678D02*
G02*
X498048Y146353I136J-2746D01*
X500266Y147678I-136J2747D01*
G37*
G74*
*
G75*
G36*
G01*
X500604Y155900D02*
G02*
X502396I896J2600D01*
X500604I-896J-2600D01*
G37*
G74*
*
G75*
G36*
G01*
X489000Y143250D02*
G03*
X489000I0J2750D01*
G37*
G74*
*
G75*
G36*
G01*
X499560Y172448D02*
G02*
X499386Y168625I1887J-2001D01*
X494774Y170264I-1886J2001D01*
X497226Y173362I-274J2736D01*
X499560Y172448I274J-2736D01*
G37*
G74*
*
G75*
G36*
G01*
X501500Y178750D02*
G03*
X501500I0J2750D01*
G37*
G74*
*
G75*
G36*
G01*
X497514Y192981D02*
G02*
X498241Y187928I1376J-2381D01*
X493226Y186154I-2741J-228D01*
X492736Y190272I-2039J1846D01*
X497514Y192981I2461J1228D01*
G37*
G74*
*
G75*
G36*
G01*
X503128Y201378D02*
G03*
X503128I0J2750D01*
G37*
G74*
*
G75*
G36*
G01*
X506282Y223170D02*
G02*
X502311Y223030I-1919J-1970D01*
X506282Y223170I1919J1970D01*
G37*
G74*
*
G75*
G36*
G01*
X509520Y263770D02*
G03*
X509520I0J2750D01*
G37*
G74*
*
G75*
G36*
G01*
X514103Y275860D02*
G03*
X514103I0J2750D01*
G37*
G74*
*
G75*
G36*
G01*
X517884Y281413D02*
G03*
X517884I-0J2750D01*
G37*
G74*
*
G75*
G36*
G01*
X521210Y296840D02*
G02*
X520990Y292876I1790J-2087D01*
X521210Y296840I-1790J2087D01*
G37*
G74*
*
G75*
G36*
G01*
X525500Y331750D02*
G03*
X525500I0J2750D01*
G37*
G74*
*
G75*
G36*
G01*
X519000Y300250D02*
G03*
X519000I0J2750D01*
G37*
G74*
*
G75*
G36*
G01*
X519490Y329113D02*
G03*
X519490I-0J2750D01*
G37*
G74*
*
G75*
G36*
G01*
X529136Y372114D02*
G03*
X529136I0J2750D01*
G37*
G74*
*
G75*
G36*
G01*
X512552Y291355D02*
G03*
X512552I0J2750D01*
G37*
G74*
*
G75*
G36*
G01*
X496069Y222589D02*
G02*
X494990Y222299I161J-2745D01*
X493223Y222812I-160J2745D01*
X492636Y226703I-2193J1658D01*
X496069Y222589I2194J-1659D01*
G37*
G74*
*
G75*
G36*
G01*
X501298Y241553D02*
G02*
X498423Y239109I-142J-2746D01*
X496337Y240244I142J2747D01*
X495888Y239990I-1572J2256D01*
X492109Y236254I-2388J-1364D01*
X486881Y236452I-2582J946D01*
X486973Y238221I-2554J1021D01*
X490918Y239572I2554J-1021D01*
X492377Y241136I2582J-946D01*
X492146Y241661I2388J1364D01*
X487017Y243645I-2546J1039D01*
X483446Y245180I-1017J2555D01*
X483854Y247920I-2146J1720D01*
X488583Y245255I2146J-1720D01*
X492219Y243539I1017J-2555D01*
X496993Y244112I2546J-1039D01*
X501298Y241553I1572J-2256D01*
G37*
G74*
*
G75*
G36*
G01*
X505432Y275351D02*
G03*
X505432I-0J2750D01*
G37*
G74*
*
G75*
G36*
G01*
X510000Y302550D02*
G03*
X510000I0J2750D01*
G37*
G74*
*
G75*
G36*
G01*
X515500Y333250D02*
G03*
X515500I0J2750D01*
G37*
G74*
*
G75*
G36*
G01*
X504000Y299250D02*
G03*
X504000I0J2750D01*
G37*
G74*
*
G75*
G36*
G01*
X502103Y316050D02*
G03*
X502103I0J2750D01*
G37*
G74*
*
G75*
G36*
G01*
X506470Y333324D02*
G02*
X507330Y329539I2330J-1461D01*
X506470Y333324I-2330J1461D01*
G37*
G74*
*
G75*
G36*
G01*
X510986Y341814D02*
G02*
X512025Y340588I2526J1088D01*
X510986Y341814I-2525J-1088D01*
G37*
G74*
*
G75*
G36*
G01*
X516565Y360684D02*
G02*
X516211Y360009I2235J-1602D01*
X512926Y359070I-2235J1603D01*
X511165Y356445I-2750J-59D01*
X505945Y354800I-2529J-1081D01*
X500595Y354091I-2745J173D01*
X500605Y355882I-2595J909D01*
X503915Y357628I2595J-909D01*
X508195Y360919I2461J1228D01*
X511227Y361553I1981J-1908D01*
X516565Y360684I2749J59D01*
G37*
G74*
*
G75*
G36*
G01*
X522000Y368236D02*
G03*
X522000I0J2750D01*
G37*
G74*
*
G75*
G36*
G01*
X527747Y396365D02*
G02*
X524753Y393761I-247J-2739D01*
X524480Y399200I247J2739D01*
X526332Y402301I2707J487D01*
X528122Y402273I935J2586D01*
X527707Y396987I-935J-2586D01*
X527747Y396365I-2707J-487D01*
G37*
G74*
*
G75*
G36*
G01*
X522199Y420950D02*
G03*
X522199I-0J2750D01*
G37*
G74*
*
G75*
G36*
G01*
X527000Y426250D02*
G03*
X527000I0J2750D01*
G37*
G74*
*
G75*
G36*
G01*
X530000Y169750D02*
G03*
X530000I0J2750D01*
G37*
G74*
*
G75*
G36*
G01*
X519500Y151250D02*
G03*
X519500I0J2750D01*
G37*
G74*
*
G75*
G36*
G01*
X512500Y107250D02*
G03*
X512500I0J2750D01*
G37*
G74*
*
G75*
G36*
G01*
X510512Y174900D02*
G02*
X514488I1988J1900D01*
X510512I-1988J-1900D01*
G37*
G74*
*
G75*
G36*
G01*
X516341Y203820D02*
G02*
X519741Y199551I1969J-1920D01*
X516491Y195506I-2336J-1451D01*
X513365Y193572I-2639J773D01*
X514828Y191906I-1160J-2493D01*
X516629Y188308I2577J-960D01*
X515221Y185036I-2629J-808D01*
X514279Y184764I279J-2736D01*
X511417Y188444I-279J2736D01*
X512692Y193786I788J2635D01*
X514766Y198873I1160J2493D01*
X515974Y200448I2639J-773D01*
X515897Y200580I2336J1452D01*
X511977Y204437I-1969J1920D01*
X515952Y204363I2023J1863D01*
X516341Y203820I-2024J-1863D01*
G37*
G74*
*
G75*
G36*
G01*
X523767Y213017D02*
G03*
X523767I-0J2750D01*
G37*
G74*
*
G75*
G36*
G01*
X522032Y223926D02*
G02*
X521469Y223080I1968J-1920D01*
X522032Y223926I-1969J1920D01*
G37*
G74*
*
G75*
G36*
G01*
X522603Y234353D02*
G03*
X522603I0J2750D01*
G37*
G74*
*
G75*
G36*
G01*
X521718Y252707D02*
G02*
X523041Y251552I2375J1386D01*
X521718Y252707I-2375J-1386D01*
G37*
G74*
*
G75*
G36*
G01*
X524487Y266874D02*
G02*
X526085Y262281I2013J-1874D01*
X525315Y262519I-1185J-2481D01*
X523886Y265853I1185J2481D01*
X524487Y266874I-2013J1874D01*
G37*
G74*
*
G75*
G36*
G01*
X537042Y387696D02*
G02*
X533799Y385519I-542J-2696D01*
X537042Y387696I542J2696D01*
G37*
G74*
*
G75*
G36*
G01*
X527500Y107250D02*
G03*
X527500I0J2750D01*
G37*
G74*
*
G75*
G36*
G01*
X530000Y149750D02*
G03*
X530000I0J2750D01*
G37*
G74*
*
G75*
G36*
G01*
X534000Y165250D02*
G03*
X534000I0J2750D01*
G37*
G74*
*
G75*
G36*
G01*
X537076Y184313D02*
G02*
X535969Y183630I850J-2615D01*
X532372Y186155I-849J2616D01*
X535154Y188996I33J2750D01*
X537076Y184313I-34J-2750D01*
G37*
G74*
*
G75*
G36*
G01*
X534546Y201017D02*
G02*
X538421Y200234I2316J1483D01*
X534546Y201017I-2316J-1483D01*
G37*
G74*
*
G75*
G36*
G01*
X541883Y207328D02*
G03*
X541883I0J2750D01*
G37*
G74*
*
G75*
G36*
G01*
X555500Y117750D02*
G03*
X555500I0J2750D01*
G37*
G74*
*
G75*
G36*
G01*
X552500Y160250D02*
G03*
X552500I0J2750D01*
G37*
G74*
*
G75*
G36*
G01*
X555857Y194705D02*
G02*
X555343Y190795I1643J-2205D01*
X555857Y194705I-1643J2205D01*
G37*
G74*
*
G75*
G36*
G01*
X559148Y217127D02*
G02*
X561422Y217113I1152J2497D01*
X560484Y211874I-1152J-2497D01*
X559069Y212142I-1201J-2473D01*
X559148Y217127I1201J2474D01*
G37*
G74*
*
G75*
G36*
G01*
X560334Y228547D02*
G02*
X557536Y226736I-210J-2742D01*
X560334Y228547I210J2742D01*
G37*
G74*
*
G75*
G36*
G01*
X560000Y243448D02*
G03*
X560000I0J2750D01*
G37*
G74*
*
G75*
G36*
G01*
X563500Y145750D02*
G03*
X563500I0J2750D01*
G37*
G74*
*
G75*
G36*
G01*
X562579Y163834D02*
G02*
X566555I1988J1900D01*
X565513Y159352I-1988J-1900D01*
X562742Y159876I-1824J-2058D01*
X562579Y163834I1825J2058D01*
G37*
G74*
*
G75*
G36*
G01*
X563500Y168750D02*
G03*
X563500I0J2750D01*
G37*
G74*
*
G75*
G36*
G01*
X563313Y175124D02*
G03*
X563313I-0J2750D01*
G37*
G74*
*
G75*
G36*
G01*
X562500Y107250D02*
G03*
X562500I0J2750D01*
G37*
G74*
*
G75*
G36*
G01*
X563500Y124760D02*
G03*
X563500I0J2750D01*
G37*
G74*
*
G75*
G36*
G01*
X569466Y308216D02*
G03*
X569466I0J2750D01*
G37*
G74*
*
G75*
G36*
G01*
X560000Y321750D02*
G03*
X560000I0J2750D01*
G37*
G74*
*
G75*
G36*
G01*
X566340Y338968D02*
G02*
X565597Y334494I1164J-2492D01*
X565590Y333468I-2705J-494D01*
X562342Y331306I-550J-2694D01*
X562431Y336711I550J2694D01*
X560962Y338424I1169J2489D01*
X562638Y341776I-962J2576D01*
X566340Y338968I962J-2576D01*
G37*
G74*
*
G75*
G36*
G01*
X569520Y342896D02*
G03*
X569520I0J2750D01*
G37*
G74*
*
G75*
G36*
G01*
X574419Y327050D02*
G02*
X576144Y325387I2581J950D01*
X576311Y324335I-2581J-950D01*
X573345Y321696I-218J-2742D01*
X574419Y327050I218J2741D01*
G37*
G74*
*
G75*
G36*
G01*
X576500Y252750D02*
G03*
X576500I0J2750D01*
G37*
G74*
*
G75*
G36*
G01*
X570115Y184911D02*
G02*
X571085Y179525I216J-2742D01*
X569314Y179614I-1017J-2556D01*
X567726Y183052I1017J2555D01*
X567330Y188537I-216J2741D01*
X567334Y188756I2749J61D01*
X570256Y191343I176J2744D01*
X570259Y185854I-177J-2745D01*
X570115Y184911I-2749J-61D01*
G37*
G74*
*
G75*
G36*
G01*
X568550Y204530D02*
G02*
X567529Y201214I1529J-2286D01*
X565502Y206205I-1529J2286D01*
X567781Y205595I1781J2095D01*
X568550Y204530I-1781J-2095D01*
G37*
G74*
*
G75*
G36*
G01*
X584786Y274431D02*
G02*
X586007Y273130I2508J1129D01*
X581293Y270359I-2507J-1130D01*
X580167Y269890I-1593J2241D01*
X576604Y266050I-1167J-2490D01*
X577218Y269494I-1782J2094D01*
X578533Y270110I1782J-2094D01*
X581907Y274241I1167J2490D01*
X584786Y274431I1593J-2241D01*
G37*
G74*
*
G75*
G36*
G01*
X587613Y287891D02*
G02*
X585825Y287854I-841J-2619D01*
X587613Y287891I840J2618D01*
G37*
G74*
*
G75*
G36*
G01*
X589800Y343750D02*
G03*
X589800I0J2750D01*
G37*
G74*
*
G75*
G36*
G01*
X568270Y212310D02*
G03*
X568270I-0J2750D01*
G37*
G74*
*
G75*
G36*
G01*
X564912Y223400D02*
G02*
X568888I1988J1900D01*
X564912I-1988J-1900D01*
G37*
G74*
*
G75*
G36*
G01*
X565594Y251597D02*
G02*
X563912Y249930I906J-2597D01*
X560423Y253470I-906J2596D01*
X562599Y255246I-407J2720D01*
X565594Y251597I407J-2720D01*
G37*
G74*
*
G75*
G36*
G01*
X567889Y265123D02*
G02*
X565062Y262953I-138J-2746D01*
X562450Y265652I138J2747D01*
X562750Y266948I-2450J1248D01*
X567889Y265123I2450J-1248D01*
G37*
G74*
*
G75*
G36*
G01*
X567546Y270750D02*
G03*
X567546I-0J2750D01*
G37*
G74*
*
G75*
G36*
G01*
X569500Y278750D02*
G03*
X569500I0J2750D01*
G37*
G74*
*
G75*
G36*
G01*
X574465Y285930D02*
G03*
X574465I0J2750D01*
G37*
G74*
*
G75*
G36*
G01*
X560000Y270219D02*
G03*
X560000I0J2750D01*
G37*
G74*
*
G75*
G36*
G01*
X562500Y278219D02*
G03*
X562500I0J2750D01*
G37*
G74*
*
G75*
G36*
G01*
X565605Y292702D02*
G02*
X566687Y291425I2539J1055D01*
X565605Y292702I-2539J-1056D01*
G37*
G74*
*
G75*
G36*
G01*
X571755Y300625D02*
G02*
X570534Y299324I1286J-2430D01*
X566596Y301026I-1287J2431D01*
X565929Y300846I-1046J2543D01*
X562453Y296832I-1196J-2477D01*
X559258Y300724I-2453J1244D01*
X561321Y305822I1025J2552D01*
X560776Y307125I2179J1678D01*
X563065Y310215I-435J2716D01*
X565968Y306287I435J-2715D01*
X568201Y304298I-418J-2718D01*
X571755Y300625I1046J-2543D01*
G37*
G74*
*
G75*
G36*
G01*
X578393Y299426D02*
G03*
X578393I0J2750D01*
G37*
G74*
*
G75*
G36*
G01*
X582412Y306721D02*
G03*
X582412I0J2750D01*
G37*
G74*
*
G75*
G36*
G01*
X584093Y317549D02*
G03*
X584093I0J2750D01*
G37*
G74*
*
G75*
G36*
G01*
X584177Y325764D02*
G03*
X584177I-0J2750D01*
G37*
G74*
*
G75*
G36*
G01*
X589500Y352750D02*
G03*
X589500I0J2750D01*
G37*
G74*
*
G75*
G36*
G01*
X587500Y107250D02*
G03*
X587500I0J2750D01*
G37*
G74*
*
G75*
G36*
G01*
X583500Y128646D02*
G02*
X586247Y124761I2500J-1146D01*
X580753I-2747J-135D01*
X579357Y125295I247J2739D01*
X578843Y129205I-2157J1705D01*
X583500Y128646I2157J-1705D01*
G37*
G74*
*
G75*
G36*
G01*
X591500Y135750D02*
G03*
X591500I0J2750D01*
G37*
G74*
*
G75*
G36*
G01*
Y155750D02*
G03*
X591500I0J2750D01*
G37*
G74*
*
G75*
G36*
G01*
X596500Y199750D02*
G03*
X596500I0J2750D01*
G37*
G74*
*
G75*
G36*
G01*
X597129Y253600D02*
G03*
X597129I-0J2750D01*
G37*
G74*
*
G75*
G36*
G01*
X598646Y184935D02*
G02*
X600206Y181555I2618J-841D01*
X598646Y184935I-2619J841D01*
G37*
G74*
*
G75*
G36*
G01*
X599208Y312527D02*
G02*
X597990Y311224I1292J-2427D01*
X597604Y316248I-1292J2428D01*
X598895Y315306I2197J1655D01*
X599208Y312527I-2197J-1654D01*
G37*
G74*
*
G75*
G36*
G01*
X590900Y188233D02*
G03*
X590900I0J2750D01*
G37*
G74*
*
G75*
G36*
G01*
X584861Y140890D02*
G02*
X581139Y139910I-1361J-2390D01*
X584861Y140890I1361J2390D01*
G37*
G74*
*
G75*
G36*
G01*
X574869Y141007D02*
G02*
X573264Y138780I1131J-2507D01*
X570242Y139290I-1131J2507D01*
X569391Y141497I-2742J210D01*
X574869Y141007I2742J-210D01*
G37*
G74*
*
G75*
G36*
G01*
X577500Y152250D02*
G03*
X577500I0J2750D01*
G37*
G74*
*
G75*
G36*
G01*
X582500Y161250D02*
G03*
X582500I0J2750D01*
G37*
G74*
*
G75*
G36*
G01*
X579511Y173739D02*
G03*
X579511I0J2750D01*
G37*
G74*
*
G75*
G36*
G01*
X584300Y188050D02*
G03*
X584300I0J2750D01*
G37*
G74*
*
G75*
G36*
G01*
X589000Y234250D02*
G03*
X589000I0J2750D01*
G37*
G74*
*
G75*
G36*
G01*
X576300Y221857D02*
G03*
X576300I0J2750D01*
G37*
G74*
*
G75*
G36*
G01*
X579877Y250580D02*
G02*
X580300Y249797I2600J897D01*
X579877Y250580I-2600J-897D01*
G37*
G74*
*
G75*
G36*
G01*
X586130Y253626D02*
G03*
X586130I-0J2750D01*
G37*
G74*
*
G75*
G36*
G01*
X591372Y264191D02*
G02*
X593191Y262372I2628J809D01*
X591372Y264191I-2628J-809D01*
G37*
G74*
*
G75*
G36*
G01*
X595193Y291997D02*
G02*
X591339Y291300I-1583J-2248D01*
X595193Y291997I1584J2249D01*
G37*
G74*
*
G75*
G36*
G01*
X605816Y318750D02*
G03*
X605816I0J2750D01*
G37*
G74*
*
G75*
G36*
G01*
X601500Y136250D02*
G03*
X601500I0J2750D01*
G37*
G74*
*
G75*
G36*
G01*
X601914Y179780D02*
G02*
X604294Y176638I2719J-413D01*
X601914Y179780I-2719J413D01*
G37*
G74*
*
G75*
G36*
G01*
X602922Y283198D02*
G02*
X605394Y280112I2728J-348D01*
X600108Y281470I-2728J348D01*
X602796Y283207I130J2747D01*
X602922Y283198I-130J-2747D01*
G37*
G74*
*
G75*
G36*
G01*
X606921Y301354D02*
G02*
X610416Y297857I2600J-897D01*
X607419Y297030I-895J-2600D01*
X604226Y296563I-1919J1970D01*
X599258Y294204I-2503J-1140D01*
X598991Y299215I-1258J2446D01*
X600277Y302044I2709J475D01*
X603827Y305966I2333J1456D01*
X606061Y307751I2583J-943D01*
X608726Y310139I-61J2749D01*
X609149Y304773I774J-2639D01*
X605193Y302557I-2739J250D01*
X604595Y301597I-2583J943D01*
X606921Y301354I905J-2597D01*
G37*
G74*
*
G75*
G36*
G01*
X601434Y329949D02*
G02*
X600902Y324543I-693J-2661D01*
X596104Y326338I-2750J-40D01*
X594487Y331594I-858J2612D01*
X593707Y336236I1013J2556D01*
X597056Y336418I1556J2268D01*
X598109Y333280I-1556J-2268D01*
X601434Y329949I656J-2671D01*
G37*
G74*
*
G75*
G36*
G01*
X609170Y358955D02*
G02*
X610401Y358120I2101J1774D01*
X605847Y355103I-2101J-1774D01*
X603276Y355037I-1347J2397D01*
X601924Y358463I-2576J963D01*
X606953Y358744I2576J-963D01*
X609170Y358955I1347J-2398D01*
G37*
G74*
*
G75*
G36*
G01*
X619500Y128250D02*
G03*
X619500I0J2750D01*
G37*
G74*
*
G75*
G36*
G01*
X622979Y298927D02*
G02*
X626068Y298923I1547J2273D01*
X622979Y298927I-1547J-2273D01*
G37*
G74*
*
G75*
G36*
G01*
X627500Y107250D02*
G03*
X627500I0J2750D01*
G37*
G74*
*
G75*
G36*
G01*
X626926Y123032D02*
G02*
X630574Y121468I2574J968D01*
X626926Y123032I-2574J-968D01*
G37*
G74*
*
G75*
G36*
G01*
X634217Y151750D02*
G03*
X634217I0J2750D01*
G37*
G74*
*
G75*
G36*
G01*
X628500Y150750D02*
G03*
X628500I0J2750D01*
G37*
G74*
*
G75*
G36*
G01*
X628000Y160750D02*
G03*
X628000I0J2750D01*
G37*
G74*
*
G75*
G36*
G01*
X630472Y170278D02*
G03*
X630472I0J2750D01*
G37*
G74*
*
G75*
G36*
G01*
X630000Y179250D02*
G03*
X630000I0J2750D01*
G37*
G74*
*
G75*
G36*
G01*
X634000Y185250D02*
G03*
X634000I0J2750D01*
G37*
G74*
*
G75*
G36*
G01*
X631123Y313399D02*
G02*
X627764Y312114I-936J-2586D01*
X631123Y313399I936J2586D01*
G37*
G74*
*
G75*
G36*
G01*
X629500Y324250D02*
G03*
X629500I0J2750D01*
G37*
G74*
*
G75*
G36*
G01*
X612557Y106493D02*
G03*
X612557I-0J2750D01*
G37*
G74*
*
G75*
G36*
G01*
X613500Y119480D02*
G03*
X613500I0J2750D01*
G37*
G74*
*
G75*
G36*
G01*
X606800Y112050D02*
G03*
X606800I0J2750D01*
G37*
G74*
*
G75*
G36*
G01*
X611300Y138150D02*
G03*
X611300I0J2750D01*
G37*
G74*
*
G75*
G36*
G01*
X611577Y144973D02*
G03*
X611577I-0J2750D01*
G37*
G74*
*
G75*
G36*
G01*
X616500Y148250D02*
G03*
X616500I0J2750D01*
G37*
G74*
*
G75*
G36*
G01*
X617106Y159482D02*
G02*
X615394Y159318I-606J-2682D01*
X617106Y159482I606J2682D01*
G37*
G74*
*
G75*
G36*
G01*
X613851Y169018D02*
G02*
X614471Y167364I2749J87D01*
X613851Y169018I-2749J-86D01*
G37*
G74*
*
G75*
G36*
G01*
X602190Y128071D02*
G02*
X601310Y125429I1810J-2071D01*
X602190Y128071I-1810J2071D01*
G37*
G74*
*
G75*
G36*
G01*
X613709Y175558D02*
G02*
X615325Y172181I2626J-819D01*
X610100Y172104I-2625J819D01*
X608392Y175601I-2600J896D01*
X609783Y178875I2626J817D01*
X607373Y182488I199J2743D01*
X605799Y186365I867J2610D01*
X606607Y190798I-1147J2499D01*
X611935Y192102I2616J849D01*
X611934Y191187I2711J-461D01*
X607268Y189713I-2711J460D01*
X607093Y187597I-2616J-849D01*
X609509Y187538I1147J-2499D01*
X611941Y183548I2455J-1240D01*
X611217Y179161I-1959J-1930D01*
X613639Y175585I-199J-2743D01*
G01*
X613709Y175558D01*
G37*
G74*
*
G75*
G36*
G01*
X616582Y178750D02*
G03*
X616582I-0J2750D01*
G37*
G74*
*
G75*
G36*
G01*
X618845Y193905D02*
G03*
X618845I0J2750D01*
G37*
G74*
*
G75*
G36*
G01*
X622097Y315347D02*
G03*
X622097I-0J2750D01*
G37*
G74*
*
G75*
G36*
G01*
X622500Y321184D02*
G03*
X622500I0J2750D01*
G37*
G74*
*
G75*
G36*
G01*
X609500Y199750D02*
G03*
X609500I0J2750D01*
G37*
G74*
*
G75*
G36*
G01*
X614255Y230521D02*
G02*
X610423Y229491I-1422J-2354D01*
X610240Y234078I1422J2354D01*
X614105Y233412I2260J1567D01*
X614255Y230521I-2260J-1567D01*
G37*
G74*
*
G75*
G36*
G01*
X615452Y240250D02*
G03*
X615452I0J2750D01*
G37*
G74*
*
G75*
G36*
G01*
X606210Y250294D02*
G02*
X610077Y249632I2259J1569D01*
X609411Y245821I-2259J-1569D01*
X605859Y246133I-1959J-1930D01*
X606210Y250294I1959J1930D01*
G37*
G74*
*
G75*
G36*
G01*
X606535Y263728D02*
G02*
X606750Y262650I2750J-13D01*
X606535Y263728I-2750J13D01*
G37*
G74*
*
G75*
G36*
G01*
X606491Y271828D02*
G02*
X607818Y270743I2317J1480D01*
X606491Y271828I-2318J-1480D01*
G37*
G74*
*
G75*
G36*
G01*
X612782Y275918D02*
G03*
X612782I0J2751D01*
G37*
G74*
*
G75*
G36*
G01*
X615474Y331216D02*
G02*
X618255Y328863I2721J397D01*
X612951Y329414I-2722J-396D01*
X608895Y332833I-1561J2264D01*
X612060Y334345I670J2667D01*
X613972Y330731I-670J-2667D01*
X615474Y331216I1561J-2264D01*
G37*
G74*
*
G75*
G36*
G01*
X621472Y345475D02*
G02*
X621528Y343691I2628J-809D01*
X621285Y343131I-2628J809D01*
X617615Y342069I-1285J-2431D01*
X616300Y343604I1285J2431D01*
X611100I-2600J896D01*
Y345396I-2600J896D01*
X616300I2600J-896D01*
X621472Y345475I2600J-896D01*
G37*
G74*
*
*
G04 PC Copper Outlines (1)*
G04 Layer Name QS1R_11302006_AB_done.p - dark (1)*
%LPD*%
*
*
G04 PC Area=ANP000276*
G75*
G36*
G01*
X505891Y355538D02*
G02*
X505995Y356132I2745J-174D01*
X505661Y356201I381J2724D01*
X505891Y355538I-2461J-1228D01*
G37*
G74*
*
*
G04 PC Area=ANP000274*
G75*
G36*
G01*
X564062Y336489D02*
G02*
X564799Y335982I-1170J-2489D01*
X564764Y336708I2705J494D01*
X564062Y336489I-1164J2492D01*
G37*
G74*
*
*
G04 PC Area=ANP000272*
G75*
G36*
G01*
X606761Y307750D02*
G02*
X606774Y307861I2739J-250D01*
X606349Y307772I-774J2639D01*
X606761Y307750I61J-2749D01*
G37*
G74*
*
*
G04 PC Area=ANP000273*
G75*
G36*
G01*
X607602Y297227D02*
G02*
X608625Y297857I1919J-1970D01*
X608099Y298102I896J2600D01*
X607602Y297227I-2599J898D01*
G37*
G74*
*
*
G04 PC Copper Outlines (2)*
G04 Layer Name QS1R_11302006_AB_done.p - dark (2)*
%LPD*%
*
*
G04 PC Area=Custom_Thermal*
*
G04 PC Custom Flashes*
G04 Layer Name QS1R_11302006_AB_done.p - flashes*
%LPD*%
*
*
G04 PC Circuitry*
G04 Layer Name QS1R_11302006_AB_done.p - circuitry*
%LPD*%
*
G54D17*
G01X110000Y390000D03*
X130000D03*
X110000Y370000D03*
X130000D03*
X110000Y195000D03*
X130000D03*
X110000Y175000D03*
X130000D03*
G54D28*
X660000Y490000D03*
X590000D03*
X667874Y445000D03*
X150000Y430000D03*
X680000Y310000D03*
X380000Y175000D03*
Y135000D03*
X410000Y175000D03*
Y135000D03*
X145000Y216000D03*
X124000Y237000D03*
X144988Y255743D03*
X133000Y310000D03*
X135000Y320000D03*
X157000Y393000D03*
Y403000D03*
X165000Y410000D03*
Y465000D03*
Y480000D03*
X210000Y195000D03*
Y175000D03*
X170000Y210000D03*
X225000Y229000D03*
X307000Y261000D03*
X286000Y219000D03*
X280000Y260000D03*
X342000Y266000D03*
X344000Y259000D03*
X200000Y290000D03*
X210000Y320000D03*
X330000Y332000D03*
X280000Y280000D03*
X200000Y415000D03*
X190000D03*
X180000D03*
X255000Y360000D03*
X225000D03*
X200000D03*
X255000Y375000D03*
X225000D03*
X200000Y385000D03*
X225000Y415000D03*
X245000Y425000D03*
X225000D03*
X190000D03*
X250000Y415000D03*
X270000D03*
X285000Y360000D03*
X275000Y390000D03*
X180000Y480000D03*
Y465000D03*
X215000D03*
X235000D03*
X195000D03*
X255000D03*
X320000Y475000D03*
Y465000D03*
Y455000D03*
X300000D03*
Y465000D03*
Y475000D03*
X275000Y465000D03*
G54D31*
X130000Y420000D03*
Y460000D03*
G54D33*
X347750Y113000D02*
G75*
G03X347750I-2750J0D01*
G01X350750Y160000D02*
G03X350750I-2750J0D01*
G01X352750Y232000D02*
G03X352750I-2750J0D01*
G01X351750Y279000D02*
G03X351750I-2750J0D01*
G01X352480Y292270D02*
G03X352480I-2750J0D01*
G01X349750Y297800D02*
G03X349750I-2750J0D01*
G01X345550Y321900D02*
G03X345550I-2750J0D01*
G01X349550Y332000D02*
G03X349550I-2750J0D01*
G01X352750Y347000D02*
G03X352750I-2750J0D01*
G01X351750Y360000D02*
G03X351750I-2750J0D01*
G01X350750Y450000D02*
G03X350750I-2750J0D01*
G01Y480000D02*
G03X350750I-2750J0D01*
G01X344960Y388910D02*
G03X344960I-2750J0D01*
G01X334750Y160000D02*
G03X334750I-2750J0D01*
G01X324200Y153000D02*
G03X324200I-4200J0D01*
G01X327750Y170000D02*
G03X327750I-2750J0D01*
G01X332750Y200000D02*
G03X332750I-2750J0D01*
G01X333750Y260000D02*
G03X333750I-2750J0D01*
G01X337750Y281000D02*
G03X337750I-2750J0D01*
G01X338750Y323000D02*
G03X338750I-2750J0D01*
G01X338172Y383103D02*
G03X338172I-2750J0D01*
G01X339644Y443183D02*
G03X339644I-2750J0D01*
G01X334750Y480000D02*
G03X334750I-2750J0D01*
G01X320750Y205000D02*
G03X320750I-2750J0D01*
G01X321750Y256300D02*
G03X321750I-2750J0D01*
G01X317750Y281000D02*
G03X317750I-2750J0D01*
G01X318750Y296000D02*
G03X318750I-2750J0D01*
G01X319750Y315000D02*
G03X319750I-2750J0D01*
G01X308750Y122000D02*
G03X308750I-2750J0D01*
G01X307750Y213000D02*
G03X307750I-2750J0D01*
G01Y242000D02*
G03X307750I-2750J0D01*
G01X304750Y299000D02*
G03X304750I-2750J0D01*
G01X287750Y120000D02*
G03X287750I-2750J0D01*
G01X280750Y150000D02*
G03X280750I-2750J0D01*
G01X283750Y320000D02*
G03X283750I-2750J0D01*
G01X287750Y391000D02*
G03X287750I-2750J0D01*
G01X291750Y409000D02*
G03X291750I-2750J0D01*
G01X294750Y432000D02*
G03X294750I-2750J0D01*
G01X283750Y409000D02*
G03X283750I-2750J0D01*
G01X287750Y448000D02*
G03X287750I-2750J0D01*
G01X281750Y440000D02*
G03X281750I-2750J0D01*
G01X275750Y235000D02*
G03X275750I-2750J0D01*
G01X265850Y230900D02*
G03X265850I-2750J0D01*
G01X274200Y245000D02*
G03X274200I-4200J0D01*
G01X265750D02*
G03X265750I-2750J0D01*
G01Y265000D02*
G03X265750I-2750J0D01*
G01Y285000D02*
G03X265750I-2750J0D01*
G01Y340000D02*
G03X265750I-2750J0D01*
G01X267750Y353000D02*
G03X267750I-2750J0D01*
G01X272750Y425000D02*
G03X272750I-2750J0D01*
G01X249850Y230900D02*
G03X249850I-2750J0D01*
G01X249750Y245000D02*
G03X249750I-2750J0D01*
G01Y265000D02*
G03X249750I-2750J0D01*
G01Y285000D02*
G03X249750I-2750J0D01*
G01X244200Y153000D02*
G03X244200I-4200J0D01*
G01X247750Y353000D02*
G03X247750I-2750J0D01*
G01X228750Y122000D02*
G03X228750I-2750J0D01*
G01X230750Y185000D02*
G03X230750I-2750J0D01*
G01X235750Y249000D02*
G03X235750I-2750J0D01*
G01X234750Y265000D02*
G03X234750I-2750J0D01*
G01Y275000D02*
G03X234750I-2750J0D01*
G01Y285000D02*
G03X234750I-2750J0D01*
G01Y295000D02*
G03X234750I-2750J0D01*
G01X237750Y353000D02*
G03X237750I-2750J0D01*
G01Y410000D02*
G03X237750I-2750J0D01*
G01X217750Y120000D02*
G03X217750I-2750J0D01*
G01X214750Y215000D02*
G03X214750I-2750J0D01*
G01X219750Y249000D02*
G03X219750I-2750J0D01*
G01X220750Y325000D02*
G03X220750I-2750J0D01*
G01X217750Y353000D02*
G03X217750I-2750J0D01*
G01Y415000D02*
G03X217750I-2750J0D01*
G01X205750Y150000D02*
G03X205750I-2750J0D01*
G01X199750Y162000D02*
G03X199750I-2750J0D01*
G01Y270900D02*
G03X199750I-2750J0D01*
G01X203750Y425000D02*
G03X203750I-2750J0D01*
G01X190750Y148000D02*
G03X190750I-2750J0D01*
G01X184200Y110000D02*
G03X184200I-4200J0D01*
G01X182750Y193000D02*
G03X182750I-2750J0D01*
G01X185750Y204000D02*
G03X185750I-2750J0D01*
G01X190750Y209000D02*
G03X190750I-2750J0D01*
G01X191750Y222000D02*
G03X191750I-2750J0D01*
G01X188950Y273000D02*
G03X188950I-2750J0D01*
G01X193950Y276400D02*
G03X193950I-2750J0D01*
G01X196750Y440000D02*
G03X196750I-2750J0D01*
G01X190950Y301100D02*
G03X190950I-2750J0D01*
G01X181750Y261000D02*
G03X181750I-2750J0D01*
G01X185150Y278100D02*
G03X185150I-2750J0D01*
G01X187750Y353000D02*
G03X187750I-2750J0D01*
G01X182750Y432000D02*
G03X182750I-2750J0D01*
G01X182550Y448300D02*
G03X182550I-2750J0D01*
G01X166750Y193000D02*
G03X166750I-2750J0D01*
G01X164750Y265000D02*
G03X164750I-2750J0D01*
G01X166750Y278000D02*
G03X166750I-2750J0D01*
G01Y298000D02*
G03X166750I-2750J0D01*
G01X167750Y307000D02*
G03X167750I-2750J0D01*
G01X171750Y324000D02*
G03X171750I-2750J0D01*
G01Y346000D02*
G03X171750I-2750J0D01*
G01X176200Y490000D02*
G03X176200I-4200J0D01*
G01X163750Y324000D02*
G03X163750I-2750J0D01*
G01X167750Y363000D02*
G03X167750I-2750J0D01*
G01Y418000D02*
G03X167750I-2750J0D01*
G01X147750Y230000D02*
G03X147750I-2750J0D01*
G01X151750Y302000D02*
G03X151750I-2750J0D01*
G01X155750Y335000D02*
G03X155750I-2750J0D01*
G01X160750Y350000D02*
G03X160750I-2750J0D01*
G01X154200Y430000D02*
G03X154200I-4200J0D01*
G01Y440000D02*
G03X154200I-4200J0D01*
G01X155750Y480000D02*
G03X155750I-2750J0D01*
G01X135750Y150000D02*
G03X135750I-2750J0D01*
G01X126750Y137000D02*
G03X126750I-2750J0D01*
G01X126550Y159700D02*
G03X126550I-2750J0D01*
G01X136700Y175000D02*
G03X136700I-6700J0D01*
G01X110750Y137000D02*
G03X110750I-2750J0D01*
G01X110550Y159700D02*
G03X110550I-2750J0D01*
G01X116700Y175000D02*
G03X116700I-6700J0D01*
G01X124950Y185000D02*
G03X124950I-4950J0D01*
G01X136700Y195000D02*
G03X136700I-6700J0D01*
G01X141750Y276000D02*
G03X141750I-2750J0D01*
G01X140750Y290000D02*
G03X140750I-2750J0D01*
G01X139750Y335000D02*
G03X139750I-2750J0D01*
G01X136700Y370000D02*
G03X136700I-6700J0D01*
G01X116700Y195000D02*
G03X116700I-6700J0D01*
G01Y370000D02*
G03X116700I-6700J0D01*
G01X124950Y380000D02*
G03X124950I-4950J0D01*
G01X136700Y390000D02*
G03X136700I-6700J0D01*
G01X136200Y420000D02*
G03X136200I-6200J0D01*
G01Y460000D02*
G03X136200I-6200J0D01*
G01X139750Y480000D02*
G03X139750I-2750J0D01*
G01X116700Y390000D02*
G03X116700I-6700J0D01*
G01X177750Y273000D02*
G03X177750I-2750J0D01*
G01X686750Y239500D02*
G03X686750I-2750J0D01*
G01X688750Y248500D02*
G03X688750I-2750J0D01*
G01X686896Y263500D02*
G03X686896I-2750J0D01*
G01X694200Y310000D02*
G03X694200I-4200J0D01*
G01Y320000D02*
G03X694200I-4200J0D01*
G01Y330000D02*
G03X694200I-4200J0D01*
G01Y340000D02*
G03X694200I-4200J0D01*
G01Y350000D02*
G03X694200I-4200J0D01*
G01Y360000D02*
G03X694200I-4200J0D01*
G01Y370000D02*
G03X694200I-4200J0D01*
G01Y380000D02*
G03X694200I-4200J0D01*
G01Y390000D02*
G03X694200I-4200J0D01*
G01Y400000D02*
G03X694200I-4200J0D01*
G01X696790Y411490D02*
G03X696790I-2750J0D01*
G01X676410Y199820D02*
G03X676410I-2750J0D01*
G01X684200Y310000D02*
G03X684200I-4200J0D01*
G01Y320000D02*
G03X684200I-4200J0D01*
G01Y330000D02*
G03X684200I-4200J0D01*
G01X663750Y122000D02*
G03X663750I-2750J0D01*
G01X667000Y137770D02*
G03X667000I-2750J0D01*
G01X665750Y175000D02*
G03X665750I-2750J0D01*
G01X670250Y200000D02*
G03X670250I-2750J0D01*
G01X673250Y264000D02*
G03X673250I-2750J0D01*
G01X684200Y350000D02*
G03X684200I-4200J0D01*
G01X676250Y357000D02*
G03X676250I-2750J0D01*
G01X684200Y360000D02*
G03X684200I-4200J0D01*
G01Y370000D02*
G03X684200I-4200J0D01*
G01Y380000D02*
G03X684200I-4200J0D01*
G01Y390000D02*
G03X684200I-4200J0D01*
G01Y400000D02*
G03X684200I-4200J0D01*
G01X673250Y362500D02*
G03X673250I-2750J0D01*
G01X674427Y368000D02*
G03X674427I-2750J0D01*
G01X685771Y416378D02*
G03X685771I-7228J0D01*
G01X655250Y110000D02*
G03X655250I-2750J0D01*
G01X651750Y141000D02*
G03X651750I-2750J0D01*
G01X652250Y156500D02*
G03X652250I-2750J0D01*
G01X656150Y163600D02*
G03X656150I-2750J0D01*
G01X655250Y170500D02*
G03X655250I-2750J0D01*
G01Y200000D02*
G03X655250I-2750J0D01*
G01X660250Y239500D02*
G03X660250I-2750J0D01*
G01X658250Y255500D02*
G03X658250I-2750J0D01*
G01X640427Y110177D02*
G03X640427I-2750J0D01*
G01X639360Y140993D02*
G03X639360I-2750J0D01*
G01X648750Y195000D02*
G03X648750I-2750J0D01*
G01Y220000D02*
G03X648750I-2750J0D01*
G01X651250Y238000D02*
G03X651250I-2750J0D01*
G01X648704Y257246D02*
G03X648704I-2750J0D01*
G01X654750Y273000D02*
G03X654750I-2750J0D01*
G01X665150Y374320D02*
G03X665150I-2750J0D01*
G01X665750Y426000D02*
G03X665750I-2750J0D01*
G01X658750Y339500D02*
G03X658750I-2750J0D01*
G01X657750Y361500D02*
G03X657750I-2750J0D01*
G01X675750Y453500D02*
G03X675750I-2750J0D01*
G01X685771Y463780D02*
G03X685771I-7228J0D01*
G01X672190Y475150D02*
G03X672190I-2750J0D01*
G01X660750Y463000D02*
G03X660750I-2750J0D01*
G01Y479000D02*
G03X660750I-2750J0D01*
G01X664200Y490000D02*
G03X664200I-4200J0D01*
G01X630250Y238500D02*
G03X630250I-2750J0D01*
G01X631250Y247000D02*
G03X631250I-2750J0D01*
G01X630250Y253000D02*
G03X630250I-2750J0D01*
G01X647250Y314000D02*
G03X647250I-2750J0D01*
G01X639850Y312974D02*
G03X639850I-2750J0D01*
G01X642614Y370010D02*
G03X642614I-2750J0D01*
G01X645750Y382000D02*
G03X645750I-2750J0D01*
G01X648750Y401000D02*
G03X648750I-2750J0D01*
G01X650750Y426000D02*
G03X650750I-2750J0D01*
G01X650200Y460000D02*
G03X650200I-4200J0D01*
G01X654200Y490000D02*
G03X654200I-4200J0D01*
G01X630414Y372604D02*
G03X630414I-2750J0D01*
G01X631750Y414000D02*
G03X631750I-2750J0D01*
G01X633250Y422500D02*
G03X633250I-2750J0D01*
G01X612250Y384110D02*
G03X612250I-2750J0D01*
G01X625750Y423000D02*
G03X625750I-2750J0D01*
G01X632750Y475000D02*
G03X632750I-2750J0D01*
G01X625750Y494000D02*
G03X625750I-2750J0D01*
G01X614750Y403150D02*
G03X614750I-2750J0D01*
G01Y438400D02*
G03X614750I-2750J0D01*
G01X599750Y374000D02*
G03X599750I-2750J0D01*
G01X608750Y439000D02*
G03X608750I-2750J0D01*
G01X618750Y450000D02*
G03X618750I-2750J0D01*
G01X618250Y467000D02*
G03X618250I-2750J0D01*
G01X615250Y490000D02*
G03X615250I-2750J0D01*
G01X598750Y395000D02*
G03X598750I-2750J0D01*
G01X588350Y395155D02*
G03X588350I-2750J0D01*
G01X604200Y475000D02*
G03X604200I-4200J0D01*
G01X594200Y490000D02*
G03X594200I-4200J0D01*
G01X575750Y367500D02*
G03X575750I-2750J0D01*
G01X580250Y384000D02*
G03X580250I-2750J0D01*
G01X569740Y370824D02*
G03X569740I-2750J0D01*
G01X571418Y384000D02*
G03X571418I-2750J0D01*
G01X580750Y429500D02*
G03X580750I-2750J0D01*
G01X583750Y456000D02*
G03X583750I-2750J0D01*
G01X575250Y439500D02*
G03X575250I-2750J0D01*
G01X576750Y445000D02*
G03X576750I-2750J0D01*
G01X584200Y475000D02*
G03X584200I-4200J0D01*
G01X561750Y357500D02*
G03X561750I-2750J0D01*
G01X562750Y384000D02*
G03X562750I-2750J0D01*
G01X544750Y114000D02*
G03X544750I-2750J0D01*
G01X548250Y136000D02*
G03X548250I-2750J0D01*
G01X539750Y121000D02*
G03X539750I-2750J0D01*
G01X543250Y167500D02*
G03X543250I-2750J0D01*
G01X548250Y202500D02*
G03X548250I-2750J0D01*
G01X540127Y217925D02*
G03X540127I-2750J0D01*
G01X544485Y242137D02*
G03X544485I-2750J0D01*
G01X538750Y248000D02*
G03X538750I-2750J0D01*
G01X550250Y301675D02*
G03X550250I-2750J0D01*
G01X550837Y352400D02*
G03X550837I-2750J0D01*
G01X555730Y379500D02*
G03X555730I-2750J0D01*
G01X567250Y418500D02*
G03X567250I-2750J0D01*
G01X569750Y443500D02*
G03X569750I-2750J0D01*
G01X562937Y445187D02*
G03X562937I-2750J0D01*
G01X564750Y456000D02*
G03X564750I-2750J0D01*
G01X570250Y490000D02*
G03X570250I-2750J0D01*
G01X540831Y355500D02*
G03X540831I-2750J0D01*
G01X549167Y371583D02*
G03X549167I-2750J0D01*
G01X551221Y396196D02*
G03X551221I-2750J0D01*
G01X550593Y410157D02*
G03X550593I-2750J0D01*
G01X549250Y430000D02*
G03X549250I-2750J0D01*
G01X550750Y437000D02*
G03X550750I-2750J0D01*
G01X552050Y445000D02*
G03X552050I-2750J0D01*
G01X555750Y475000D02*
G03X555750I-2750J0D01*
G01X553750Y490000D02*
G03X553750I-2750J0D01*
G01X540750Y429500D02*
G03X540750I-2750J0D01*
G01X543750Y460500D02*
G03X543750I-2750J0D01*
G01X535750Y465000D02*
G03X535750I-2750J0D01*
G01X530250Y492500D02*
G03X530250I-2750J0D01*
G01X519208Y368500D02*
G03X519208I-2750J0D01*
G01X515250Y418500D02*
G03X515250I-2750J0D01*
G01X518250Y425000D02*
G03X518250I-2750J0D01*
G01X520750Y468000D02*
G03X520750I-2750J0D01*
G01Y474000D02*
G03X520750I-2750J0D01*
G01X508690Y435600D02*
G03X508690I-2750J0D01*
G01X511750Y454500D02*
G03X511750I-2750J0D01*
G01Y471500D02*
G03X511750I-2750J0D01*
G01X500250Y384500D02*
G03X500250I-2750J0D01*
G01X500200Y427110D02*
G03X500200I-2750J0D01*
G01X485650Y257300D02*
G03X485650I-2750J0D01*
G01X489250Y332000D02*
G03X489250I-2750J0D01*
G01X492807Y356187D02*
G03X492807I-2750J0D01*
G01X486207Y356600D02*
G03X486207I-2750J0D01*
G01X470250Y261000D02*
G03X470250I-2750J0D01*
G01X470575Y342679D02*
G03X470575I-2750J0D01*
G01X483350Y364600D02*
G03X483350I-2750J0D01*
G01X490250Y400000D02*
G03X490250I-2750J0D01*
G01Y420000D02*
G03X490250I-2750J0D01*
G01X492653Y430301D02*
G03X492653I-2750J0D01*
G01X495750Y494500D02*
G03X495750I-2750J0D01*
G01X480750Y404000D02*
G03X480750I-2750J0D01*
G01Y415000D02*
G03X480750I-2750J0D01*
G01X483850Y464800D02*
G03X483850I-2750J0D01*
G01X467417Y375333D02*
G03X467417I-2750J0D01*
G01X453250Y185500D02*
G03X453250I-2750J0D01*
G01X440250Y110000D02*
G03X440250I-2750J0D01*
G01X430750Y115000D02*
G03X430750I-2750J0D01*
G01X435250Y130000D02*
G03X435250I-2750J0D01*
G01X440250Y163000D02*
G03X440250I-2750J0D01*
G01X440572Y168931D02*
G03X440572I-2750J0D01*
G01X439750Y198000D02*
G03X439750I-2750J0D01*
G01X444250Y203000D02*
G03X444250I-2750J0D01*
G01X447250Y215000D02*
G03X447250I-2750J0D01*
G01X450050Y237073D02*
G03X450050I-2750J0D01*
G01X457650Y246500D02*
G03X457650I-2750J0D01*
G01X444250Y231000D02*
G03X444250I-2750J0D01*
G01X446510Y279920D02*
G03X446510I-2750J0D01*
G01X447617Y320133D02*
G03X447617I-2750J0D01*
G01X445250Y327100D02*
G03X445250I-2750J0D01*
G01X449013Y333500D02*
G03X449013I-2750J0D01*
G01X453250Y338000D02*
G03X453250I-2750J0D01*
G01X457250Y342500D02*
G03X457250I-2750J0D01*
G01X463250Y380500D02*
G03X463250I-2750J0D01*
G01X470250Y420800D02*
G03X470250I-2750J0D01*
G01X474209Y428000D02*
G03X474209I-2750J0D01*
G01X477750Y452000D02*
G03X477750I-2750J0D01*
G01X479901Y485000D02*
G03X479901I-6121J0D01*
G01X456523Y367500D02*
G03X456523I-2750J0D01*
G01X457470Y403080D02*
G03X457470I-2750J0D01*
G01X447613Y339284D02*
G03X447613I-2750J0D01*
G01X443222Y354700D02*
G03X443222I-2750J0D01*
G01X441250Y361000D02*
G03X441250I-2750J0D01*
G01X450250Y410000D02*
G03X450250I-2750J0D01*
G01X454200Y423000D02*
G03X454200I-4200J0D01*
G01X466121Y485000D02*
G03X466121I-6121J0D01*
G01X443280Y395390D02*
G03X443280I-2750J0D01*
G01X445950Y465000D02*
G03X445950I-2750J0D01*
G01X444950Y475100D02*
G03X444950I-2750J0D01*
G01X430840Y145060D02*
G03X430840I-2750J0D01*
G01X432750Y221500D02*
G03X432750I-2750J0D01*
G01Y240000D02*
G03X432750I-2750J0D01*
G01Y249500D02*
G03X432750I-2750J0D01*
G01Y285000D02*
G03X432750I-2750J0D01*
G01Y291800D02*
G03X432750I-2750J0D01*
G01X432250Y310000D02*
G03X432250I-2750J0D01*
G01X426250Y310500D02*
G03X426250I-2750J0D01*
G01X418750Y297574D02*
G03X418750I-2750J0D01*
G01X419750Y311000D02*
G03X419750I-2750J0D01*
G01X415750Y317418D02*
G03X415750I-2750J0D01*
G01X427750Y452000D02*
G03X427750I-2750J0D01*
G01Y465000D02*
G03X427750I-2750J0D01*
G01X418750Y348500D02*
G03X418750I-2750J0D01*
G01X404200Y135000D02*
G03X404200I-4200J0D01*
G01Y145000D02*
G03X404200I-4200J0D01*
G01Y155000D02*
G03X404200I-4200J0D01*
G01Y165000D02*
G03X404200I-4200J0D01*
G01Y175000D02*
G03X404200I-4200J0D01*
G01X404620Y192450D02*
G03X404620I-2750J0D01*
G01X406250Y291000D02*
G03X406250I-2750J0D01*
G01X410750Y333000D02*
G03X410750I-2750J0D01*
G01X414750Y354500D02*
G03X414750I-2750J0D01*
G01X394350Y165300D02*
G03X394350I-2750J0D01*
G01X391750Y217000D02*
G03X391750I-2750J0D01*
G01X394750Y262000D02*
G03X394750I-2750J0D01*
G01X397750Y296000D02*
G03X397750I-2750J0D01*
G01X401250Y305000D02*
G03X401250I-2750J0D01*
G01X403950Y324000D02*
G03X403950I-2750J0D01*
G01X404200Y425000D02*
G03X404200I-4200J0D01*
G01X387750Y228000D02*
G03X387750I-2750J0D01*
G01X389250Y302900D02*
G03X389250I-2750J0D01*
G01X374200Y135000D02*
G03X374200I-4200J0D01*
G01Y145000D02*
G03X374200I-4200J0D01*
G01Y155000D02*
G03X374200I-4200J0D01*
G01Y165000D02*
G03X374200I-4200J0D01*
G01Y175000D02*
G03X374200I-4200J0D01*
G01X377890Y211500D02*
G03X377890I-2750J0D01*
G01X370250Y200000D02*
G03X370250I-2750J0D01*
G01X366450Y239100D02*
G03X366450I-2750J0D01*
G01X366250Y254400D02*
G03X366250I-2750J0D01*
G01X367750Y262000D02*
G03X367750I-2750J0D01*
G01X370050Y270400D02*
G03X370050I-2750J0D01*
G01X365850Y275000D02*
G03X365850I-2750J0D01*
G01X369750Y279000D02*
G03X369750I-2750J0D01*
G01X370250Y285200D02*
G03X370250I-2750J0D01*
G01X374267Y290517D02*
G03X374267I-2750J0D01*
G01X380750Y115000D02*
G03X380750I-2750J0D01*
G01X384200Y135000D02*
G03X384200I-4200J0D01*
G01Y145000D02*
G03X384200I-4200J0D01*
G01Y155000D02*
G03X384200I-4200J0D01*
G01Y165000D02*
G03X384200I-4200J0D01*
G01Y175000D02*
G03X384200I-4200J0D01*
G01X391750Y342000D02*
G03X391750I-2750J0D01*
G01X395750Y350000D02*
G03X395750I-2750J0D01*
G01X386750Y352500D02*
G03X386750I-2750J0D01*
G01X390750Y361000D02*
G03X390750I-2750J0D01*
G01X377750Y365000D02*
G03X377750I-2750J0D01*
G01X370550Y384000D02*
G03X370550I-2750J0D01*
G01X373750Y393000D02*
G03X373750I-2750J0D01*
G01X377350Y433300D02*
G03X377350I-2750J0D01*
G01X371750Y408000D02*
G03X371750I-2750J0D01*
G01X372750Y455000D02*
G03X372750I-2750J0D01*
G01X365750Y424000D02*
G03X365750I-2750J0D01*
G01X417350Y126500D02*
G03X417350I-2750J0D01*
G01X422750Y172000D02*
G03X422750I-2750J0D01*
G01X420750Y206000D02*
G03X420750I-2750J0D01*
G01X423750Y224500D02*
G03X423750I-2750J0D01*
G01X414200Y135000D02*
G03X414200I-4200J0D01*
G01Y145000D02*
G03X414200I-4200J0D01*
G01Y155000D02*
G03X414200I-4200J0D01*
G01Y165000D02*
G03X414200I-4200J0D01*
G01Y175000D02*
G03X414200I-4200J0D01*
G01X424823Y296381D02*
G03X424823I-2750J0D01*
G01X460343Y209407D02*
G03X460343I-2750J0D01*
G01X465250Y110000D02*
G03X465250I-2750J0D01*
G01X476269Y188500D02*
G03X476269I-2750J0D01*
G01X468750Y160500D02*
G03X468750I-2750J0D01*
G01X455250Y108500D02*
G03X455250I-2750J0D01*
G01X459750Y157000D02*
G03X459750I-2750J0D01*
G01X453750Y143500D02*
G03X453750I-2750J0D01*
G01X451250Y148500D02*
G03X451250I-2750J0D01*
G01Y171300D02*
G03X451250I-2750J0D01*
G01X461050Y202200D02*
G03X461050I-2750J0D01*
G01X466250Y204000D02*
G03X466250I-2750J0D01*
G01X480250Y110000D02*
G03X480250I-2750J0D01*
G01X505750Y342500D02*
G03X505750I-2750J0D01*
G01X494750Y290875D02*
G03X494750I-2750J0D01*
G01X497750Y301500D02*
G03X497750I-2750J0D01*
G01X515113Y219900D02*
G03X515113I-2750J0D01*
G01X515050Y240000D02*
G03X515050I-2750J0D01*
G01X516750Y258000D02*
G03X516750I-2750J0D01*
G01X505250Y132806D02*
G03X505250I-2750J0D01*
G01X490250Y110000D02*
G03X490250I-2750J0D01*
G01X491750Y146000D02*
G03X491750I-2750J0D01*
G01X504250Y181500D02*
G03X504250I-2750J0D01*
G01X505878Y204128D02*
G03X505878I-2750J0D01*
G01X512270Y266520D02*
G03X512270I-2750J0D01*
G01X516853Y278610D02*
G03X516853I-2750J0D01*
G01X520634Y284163D02*
G03X520634I-2750J0D01*
G01X528250Y334500D02*
G03X528250I-2750J0D01*
G01X521750Y303000D02*
G03X521750I-2750J0D01*
G01X522240Y331863D02*
G03X522240I-2750J0D01*
G01X531886Y374864D02*
G03X531886I-2750J0D01*
G01X515302Y294105D02*
G03X515302I-2750J0D01*
G01X508182Y278101D02*
G03X508182I-2750J0D01*
G01X512750Y305300D02*
G03X512750I-2750J0D01*
G01X518250Y336000D02*
G03X518250I-2750J0D01*
G01X506750Y302000D02*
G03X506750I-2750J0D01*
G01X504853Y318800D02*
G03X504853I-2750J0D01*
G01X524750Y370986D02*
G03X524750I-2750J0D01*
G01X524949Y423700D02*
G03X524949I-2750J0D01*
G01X529750Y429000D02*
G03X529750I-2750J0D01*
G01X532750Y172500D02*
G03X532750I-2750J0D01*
G01X522250Y154000D02*
G03X522250I-2750J0D01*
G01X515250Y110000D02*
G03X515250I-2750J0D01*
G01X526517Y215767D02*
G03X526517I-2750J0D01*
G01X525353Y237103D02*
G03X525353I-2750J0D01*
G01X530250Y110000D02*
G03X530250I-2750J0D01*
G01X532750Y152500D02*
G03X532750I-2750J0D01*
G01X536750Y168000D02*
G03X536750I-2750J0D01*
G01X544633Y210078D02*
G03X544633I-2750J0D01*
G01X558250Y120500D02*
G03X558250I-2750J0D01*
G01X555250Y163000D02*
G03X555250I-2750J0D01*
G01X562750Y246198D02*
G03X562750I-2750J0D01*
G01X566250Y148500D02*
G03X566250I-2750J0D01*
G01Y171500D02*
G03X566250I-2750J0D01*
G01X566063Y177874D02*
G03X566063I-2750J0D01*
G01X565250Y110000D02*
G03X565250I-2750J0D01*
G01X566250Y127510D02*
G03X566250I-2750J0D01*
G01X572216Y310966D02*
G03X572216I-2750J0D01*
G01X562750Y324500D02*
G03X562750I-2750J0D01*
G01X572270Y345646D02*
G03X572270I-2750J0D01*
G01X579250Y255500D02*
G03X579250I-2750J0D01*
G01X592550Y346500D02*
G03X592550I-2750J0D01*
G01X571020Y215060D02*
G03X571020I-2750J0D01*
G01X570296Y273500D02*
G03X570296I-2750J0D01*
G01X572250Y281500D02*
G03X572250I-2750J0D01*
G01X577215Y288680D02*
G03X577215I-2750J0D01*
G01X562750Y272969D02*
G03X562750I-2750J0D01*
G01X565250Y280969D02*
G03X565250I-2750J0D01*
G01X581143Y302176D02*
G03X581143I-2750J0D01*
G01X585162Y309471D02*
G03X585162I-2750J0D01*
G01X586843Y320299D02*
G03X586843I-2750J0D01*
G01X586927Y328514D02*
G03X586927I-2750J0D01*
G01X592250Y355500D02*
G03X592250I-2750J0D01*
G01X590250Y110000D02*
G03X590250I-2750J0D01*
G01X594250Y138500D02*
G03X594250I-2750J0D01*
G01Y158500D02*
G03X594250I-2750J0D01*
G01X599250Y202500D02*
G03X599250I-2750J0D01*
G01X599879Y256350D02*
G03X599879I-2750J0D01*
G01X593650Y190983D02*
G03X593650I-2750J0D01*
G01X580250Y155000D02*
G03X580250I-2750J0D01*
G01X585250Y164000D02*
G03X585250I-2750J0D01*
G01X582261Y176489D02*
G03X582261I-2750J0D01*
G01X587050Y190800D02*
G03X587050I-2750J0D01*
G01X591750Y237000D02*
G03X591750I-2750J0D01*
G01X579050Y224607D02*
G03X579050I-2750J0D01*
G01X588880Y256376D02*
G03X588880I-2750J0D01*
G01X608566Y321500D02*
G03X608566I-2750J0D01*
G01X604250Y139000D02*
G03X604250I-2750J0D01*
G01X622250Y131000D02*
G03X622250I-2750J0D01*
G01X630250Y110000D02*
G03X630250I-2750J0D01*
G01X636967Y154500D02*
G03X636967I-2750J0D01*
G01X631250Y153500D02*
G03X631250I-2750J0D01*
G01X630750Y163500D02*
G03X630750I-2750J0D01*
G01X633222Y173028D02*
G03X633222I-2750J0D01*
G01X632750Y182000D02*
G03X632750I-2750J0D01*
G01X636750Y188000D02*
G03X636750I-2750J0D01*
G01X632250Y327000D02*
G03X632250I-2750J0D01*
G01X615307Y109243D02*
G03X615307I-2750J0D01*
G01X616250Y122230D02*
G03X616250I-2750J0D01*
G01X609550Y114800D02*
G03X609550I-2750J0D01*
G01X614050Y140900D02*
G03X614050I-2750J0D01*
G01X614327Y147723D02*
G03X614327I-2750J0D01*
G01X619250Y151000D02*
G03X619250I-2750J0D01*
G01X619332Y181500D02*
G03X619332I-2750J0D01*
G01X621595Y196655D02*
G03X621595I-2750J0D01*
G01X624847Y318097D02*
G03X624847I-2750J0D01*
G01X625250Y323934D02*
G03X625250I-2750J0D01*
G01X612250Y202500D02*
G03X612250I-2750J0D01*
G01X618202Y243000D02*
G03X618202I-2750J0D01*
G01X615532Y278669D02*
G03X615532I-2750J0D01*
G01X357500Y466146D02*
Y498500D01*
X101500*
Y102500*
X168854*
X171146D02*
G03X168854I-1146J2500D01*
G01X171146D02*
X357500D01*
Y309118*
Y320182D02*
G03Y309118I2800J-5532D01*
G01Y320182D02*
Y336362D01*
Y341638D02*
G03Y336362I776J-2638D01*
G01Y341638D02*
Y350438D01*
Y355562D02*
G03Y350438I1000J-2562D01*
G01Y355562D02*
Y463854D01*
Y466146D02*
G03Y463854I-2500J-1146D01*
G01X697500Y231750D02*
Y498500D01*
X359500*
Y411405*
X361924Y406510D02*
G03X359500Y411405I-924J2590D01*
G01X363028Y402388D02*
G03X361924Y406510I-2228J1612D01*
G01X363936Y397163D02*
G03X363028Y402388I264J2737D01*
G01X359500Y394112D02*
G03X363936Y397163I1900J1988D01*
G01X359500Y394112D02*
Y391305D01*
Y386695D02*
G03Y391305I1500J2305D01*
G01Y386695D02*
Y355562D01*
X361232Y352685D02*
G03X359500Y355562I-2732J315D01*
G01Y347560D02*
G03X361232Y352685I1337J2403D01*
G01X359500Y347560D02*
Y343835D01*
X364213Y342396D02*
G03X359500Y343835I-2713J-448D01*
G01X366370Y341777D02*
G03X364213Y342396I-1771J-2104D01*
G01X367021Y344579D02*
G03X366370Y341777I1958J-1932D01*
G01X367357Y344868D02*
G03X367021Y344579I-1957J1932D01*
G01X369277Y345381D02*
G03X367357Y344868I-298J-2734D01*
G01X374619Y345839D02*
G03X369277Y345381I-2619J-839D01*
G01X377987Y341813D02*
G03X374619Y345839I-2313J1487D01*
G01X379107Y338623D02*
G03X377987Y341813I-2607J877D01*
G01X383697Y335660D02*
G03X379107Y338623I-2466J1217D01*
G01X385659Y333701D02*
G03X383697Y335660I-2659J-701D01*
G01X383778Y330362D02*
G03X385659Y333701I2659J701D01*
G01X380534Y334217D02*
G03X383778Y330362I2466J-1217D01*
G01X378624Y337754D02*
G03X380534Y334217I2607J-877D01*
G01X374863Y337290D02*
G03X378624Y337754I1637J2210D01*
G01X374007Y338340D02*
G03X374863Y337290I-1637J-2210D01*
G01X374187Y340987D02*
G03X374007Y338340I2313J-1487D01*
G01X373055Y342461D02*
G03X374187Y340987I2619J839D01*
G01X371702Y342266D02*
G03X373055Y342461I298J2734D01*
G01X367208Y340543D02*
G03X371702Y342266I1771J2104D01*
G01X362992Y337441D02*
G03X367208Y340543I1607J2232D01*
G01X359500Y333502D02*
G03X362992Y337441I1150J2498D01*
G01X359500Y333502D02*
Y320798D01*
Y308502D02*
G03Y320798I800J6148D01*
G01Y308502D02*
Y143937D01*
Y138923D02*
G03Y143937I1130J2507D01*
G01Y138923D02*
Y108102D01*
Y103018D02*
G03Y108102I1050J2542D01*
G01Y103018D02*
Y102500D01*
X600750*
X606250D02*
G03X600750I-2750J0D01*
G01X606250D02*
X694750D01*
X697500Y105250D02*
G03X694750Y102500I0J-2750D01*
G01X697500Y105250D02*
Y226250D01*
Y231750D02*
G03Y226250I0J-2750D01*
G01X505995Y356132D02*
G03X505891Y355538I2641J-768D01*
G01X505661Y356201D02*
G03X505995Y356132I715J2655D01*
G01X505891Y355538D02*
G03X505661Y356201I-2691J-565D01*
G01X564799Y335982D02*
G03X564062Y336489I-1907J-1982D01*
G01X564764Y336708D02*
G03X564799Y335982I2740J-232D01*
G01X564062Y336489D02*
G03X564764Y336708I-462J2711D01*
G01X608625Y297857D02*
G03X607602Y297227I896J-2600D01*
G01X608099Y298102D02*
G03X608625Y297857I1422J2355D01*
G01X607602Y297227D02*
G03X608099Y298102I-2102J1773D01*
G01X606774Y307861D02*
G03X606761Y307750I2726J-361D01*
G01X606349Y307772D02*
G03X606774Y307861I-349J2728D01*
G01X606761Y307750D02*
G03X606349Y307772I-351J-2727D01*
G01X347750Y113000D02*
G03X347750I-2750J0D01*
G01X350750Y160000D02*
G03X350750I-2750J0D01*
G01X352750Y232000D02*
G03X352750I-2750J0D01*
G01X351750Y279000D02*
G03X351750I-2750J0D01*
G01X352480Y292270D02*
G03X352480I-2750J0D01*
G01X349750Y297800D02*
G03X349750I-2750J0D01*
G01X345550Y321900D02*
G03X345550I-2750J0D01*
G01X349550Y332000D02*
G03X349550I-2750J0D01*
G01X347580Y340604D02*
G03X348520Y342296I2720J-404D01*
X347580Y340604I-2720J404*
G01X352750Y347000D02*
G03X352750I-2750J0D01*
G01X351750Y360000D02*
G03X351750I-2750J0D01*
G01X350750Y450000D02*
G03X350750I-2750J0D01*
G01Y480000D02*
G03X350750I-2750J0D01*
G01X344960Y388910D02*
G03X344960I-2750J0D01*
G01X334750Y160000D02*
G03X334750I-2750J0D01*
G01X324200Y153000D02*
G03X324200I-4200J0D01*
G01X327750Y170000D02*
G03X327750I-2750J0D01*
G01X332750Y200000D02*
G03X332750I-2750J0D01*
G01X333750Y260000D02*
G03X333750I-2750J0D01*
G01X337750Y281000D02*
G03X337750I-2750J0D01*
G01X338750Y323000D02*
G03X338750I-2750J0D01*
G01X338172Y383103D02*
G03X338172I-2750J0D01*
G01X339644Y443183D02*
G03X339644I-2750J0D01*
G01X334750Y480000D02*
G03X334750I-2750J0D01*
G01X320750Y205000D02*
G03X320750I-2750J0D01*
G01X321750Y256300D02*
G03X321750I-2750J0D01*
G01X317750Y281000D02*
G03X317750I-2750J0D01*
G01X318750Y296000D02*
G03X318750I-2750J0D01*
G01X319750Y315000D02*
G03X319750I-2750J0D01*
G01X308750Y122000D02*
G03X308750I-2750J0D01*
G01X307750Y213000D02*
G03X307750I-2750J0D01*
G01Y242000D02*
G03X307750I-2750J0D01*
G01X304750Y299000D02*
G03X304750I-2750J0D01*
G01X287750Y120000D02*
G03X287750I-2750J0D01*
G01X280750Y150000D02*
G03X280750I-2750J0D01*
G01X283750Y320000D02*
G03X283750I-2750J0D01*
G01X287750Y391000D02*
G03X287750I-2750J0D01*
G01X291750Y409000D02*
G03X291750I-2750J0D01*
G01X294750Y432000D02*
G03X294750I-2750J0D01*
G01X283750Y409000D02*
G03X283750I-2750J0D01*
G01X287750Y448000D02*
G03X287750I-2750J0D01*
G01X281750Y440000D02*
G03X281750I-2750J0D01*
G01X275750Y235000D02*
G03X275750I-2750J0D01*
G01X265850Y230900D02*
G03X265850I-2750J0D01*
G01X274200Y245000D02*
G03X274200I-4200J0D01*
G01X265750D02*
G03X265750I-2750J0D01*
G01Y265000D02*
G03X265750I-2750J0D01*
G01Y285000D02*
G03X265750I-2750J0D01*
G01Y340000D02*
G03X265750I-2750J0D01*
G01X267750Y353000D02*
G03X267750I-2750J0D01*
G01X272750Y425000D02*
G03X272750I-2750J0D01*
G01X249850Y230900D02*
G03X249850I-2750J0D01*
G01X249750Y245000D02*
G03X249750I-2750J0D01*
G01Y265000D02*
G03X249750I-2750J0D01*
G01Y285000D02*
G03X249750I-2750J0D01*
G01X244200Y153000D02*
G03X244200I-4200J0D01*
G01X247750Y353000D02*
G03X247750I-2750J0D01*
G01X228750Y122000D02*
G03X228750I-2750J0D01*
G01X230750Y185000D02*
G03X230750I-2750J0D01*
G01X235750Y249000D02*
G03X235750I-2750J0D01*
G01X234750Y265000D02*
G03X234750I-2750J0D01*
G01Y275000D02*
G03X234750I-2750J0D01*
G01Y285000D02*
G03X234750I-2750J0D01*
G01Y295000D02*
G03X234750I-2750J0D01*
G01X237750Y353000D02*
G03X237750I-2750J0D01*
G01Y410000D02*
G03X237750I-2750J0D01*
G01X217750Y120000D02*
G03X217750I-2750J0D01*
G01X214750Y215000D02*
G03X214750I-2750J0D01*
G01X219750Y249000D02*
G03X219750I-2750J0D01*
G01X220750Y325000D02*
G03X220750I-2750J0D01*
G01X217750Y353000D02*
G03X217750I-2750J0D01*
G01Y415000D02*
G03X217750I-2750J0D01*
G01X205750Y150000D02*
G03X205750I-2750J0D01*
G01X199750Y162000D02*
G03X199750I-2750J0D01*
G01Y270900D02*
G03X199750I-2750J0D01*
G01X203750Y425000D02*
G03X203750I-2750J0D01*
G01X190750Y148000D02*
G03X190750I-2750J0D01*
G01X184200Y110000D02*
G03X184200I-4200J0D01*
G01X182750Y193000D02*
G03X182750I-2750J0D01*
G01X185750Y204000D02*
G03X185750I-2750J0D01*
G01X190750Y209000D02*
G03X190750I-2750J0D01*
G01X191750Y222000D02*
G03X191750I-2750J0D01*
G01X188950Y273000D02*
G03X188950I-2750J0D01*
G01X193950Y276400D02*
G03X193950I-2750J0D01*
G01X196750Y440000D02*
G03X196750I-2750J0D01*
G01X190950Y301100D02*
G03X190950I-2750J0D01*
G01X181750Y261000D02*
G03X181750I-2750J0D01*
G01X185150Y278100D02*
G03X185150I-2750J0D01*
G01X181120Y306078D02*
G03X181880Y306922I2380J-1378D01*
X181120Y306078I-2380J1378*
G01X187750Y353000D02*
G03X187750I-2750J0D01*
G01X182750Y432000D02*
G03X182750I-2750J0D01*
G01X182550Y448300D02*
G03X182550I-2750J0D01*
G01X166750Y193000D02*
G03X166750I-2750J0D01*
G01X164750Y265000D02*
G03X164750I-2750J0D01*
G01X166750Y278000D02*
G03X166750I-2750J0D01*
G01Y298000D02*
G03X166750I-2750J0D01*
G01X167750Y307000D02*
G03X167750I-2750J0D01*
G01X171750Y324000D02*
G03X171750I-2750J0D01*
G01Y346000D02*
G03X171750I-2750J0D01*
G01X176200Y490000D02*
G03X176200I-4200J0D01*
G01X163750Y324000D02*
G03X163750I-2750J0D01*
G01X167750Y363000D02*
G03X167750I-2750J0D01*
G01Y418000D02*
G03X167750I-2750J0D01*
G01X147750Y230000D02*
G03X147750I-2750J0D01*
G01X151750Y302000D02*
G03X151750I-2750J0D01*
G01X155750Y335000D02*
G03X155750I-2750J0D01*
G01X160750Y350000D02*
G03X160750I-2750J0D01*
G01X154200Y430000D02*
G03X154200I-4200J0D01*
G01Y440000D02*
G03X154200I-4200J0D01*
G01X155750Y480000D02*
G03X155750I-2750J0D01*
G01X135750Y150000D02*
G03X135750I-2750J0D01*
G01X126750Y137000D02*
G03X126750I-2750J0D01*
G01X126550Y159700D02*
G03X126550I-2750J0D01*
G01X136700Y175000D02*
G03X136700I-6700J0D01*
G01X110750Y137000D02*
G03X110750I-2750J0D01*
G01X110550Y159700D02*
G03X110550I-2750J0D01*
G01X116700Y175000D02*
G03X116700I-6700J0D01*
G01X124950Y185000D02*
G03X124950I-4950J0D01*
G01X136700Y195000D02*
G03X136700I-6700J0D01*
G01X141750Y276000D02*
G03X141750I-2750J0D01*
G01X140750Y290000D02*
G03X140750I-2750J0D01*
G01X139750Y335000D02*
G03X139750I-2750J0D01*
G01X136700Y370000D02*
G03X136700I-6700J0D01*
G01X116700Y195000D02*
G03X116700I-6700J0D01*
G01Y370000D02*
G03X116700I-6700J0D01*
G01X124950Y380000D02*
G03X124950I-4950J0D01*
G01X136700Y390000D02*
G03X136700I-6700J0D01*
G01X136200Y420000D02*
G03X136200I-6200J0D01*
G01Y460000D02*
G03X136200I-6200J0D01*
G01X139750Y480000D02*
G03X139750I-2750J0D01*
G01X116700Y390000D02*
G03X116700I-6700J0D01*
G01X177750Y273000D02*
G03X177750I-2750J0D01*
G01X686750Y239500D02*
G03X686750I-2750J0D01*
G01X688750Y248500D02*
G03X688750I-2750J0D01*
G01X692204Y300110D02*
G03X689172Y300740I-1054J2540D01*
X692204Y300110I1054J-2540*
G01X686896Y263500D02*
G03X686896I-2750J0D01*
G01X694200Y310000D02*
G03X694200I-4200J0D01*
G01Y320000D02*
G03X694200I-4200J0D01*
G01Y330000D02*
G03X694200I-4200J0D01*
G01Y340000D02*
G03X694200I-4200J0D01*
G01Y350000D02*
G03X694200I-4200J0D01*
G01Y360000D02*
G03X694200I-4200J0D01*
G01Y370000D02*
G03X694200I-4200J0D01*
G01Y380000D02*
G03X694200I-4200J0D01*
G01Y390000D02*
G03X694200I-4200J0D01*
G01Y400000D02*
G03X694200I-4200J0D01*
G01X696790Y411490D02*
G03X696790I-2750J0D01*
G01X676410Y199820D02*
G03X676410I-2750J0D01*
G01X684200Y310000D02*
G03X684200I-4200J0D01*
G01Y320000D02*
G03X684200I-4200J0D01*
G01Y330000D02*
G03X684200I-4200J0D01*
G01X663750Y122000D02*
G03X663750I-2750J0D01*
G01X667000Y137770D02*
G03X667000I-2750J0D01*
G01X665750Y175000D02*
G03X665750I-2750J0D01*
G01X670250Y200000D02*
G03X670250I-2750J0D01*
G01X673250Y264000D02*
G03X673250I-2750J0D01*
G01X677151Y336914D02*
G03X675801Y340069I2849J3086D01*
G01X671885Y338498D02*
G03X677151Y336914I2615J-852D01*
G01X672615Y339648D02*
G03X671885Y338498I-2615J852D01*
G01X675801Y340069D02*
G03X672615Y339648I-1301J-2423D01*
G01X684200Y350000D02*
G03X684200I-4200J0D01*
G01X676250Y357000D02*
G03X676250I-2750J0D01*
G01X684200Y360000D02*
G03X684200I-4200J0D01*
G01Y370000D02*
G03X684200I-4200J0D01*
G01Y380000D02*
G03X684200I-4200J0D01*
G01Y390000D02*
G03X684200I-4200J0D01*
G01Y400000D02*
G03X684200I-4200J0D01*
G01X673250Y362500D02*
G03X673250I-2750J0D01*
G01X674427Y368000D02*
G03X674427I-2750J0D01*
G01X685771Y416378D02*
G03X685771I-7228J0D01*
G01X655250Y110000D02*
G03X655250I-2750J0D01*
G01X651750Y141000D02*
G03X651750I-2750J0D01*
G01X652250Y156500D02*
G03X652250I-2750J0D01*
G01X656150Y163600D02*
G03X656150I-2750J0D01*
G01X655250Y170500D02*
G03X655250I-2750J0D01*
G01Y200000D02*
G03X655250I-2750J0D01*
G01X660250Y239500D02*
G03X660250I-2750J0D01*
G01X658250Y255500D02*
G03X658250I-2750J0D01*
G01X640427Y110177D02*
G03X640427I-2750J0D01*
G01X639360Y140993D02*
G03X639360I-2750J0D01*
G01X638097Y156337D02*
G03X641059Y157693I2403J-1337D01*
X638097Y156337I-2404J1336*
G01X648750Y195000D02*
G03X648750I-2750J0D01*
G01Y220000D02*
G03X648750I-2750J0D01*
G01X651250Y238000D02*
G03X651250I-2750J0D01*
G01X648704Y257246D02*
G03X648704I-2750J0D01*
G01X646929Y266810D02*
G03X649571Y267690I2071J-1810D01*
X646929Y266810I-2071J1810*
G01X654750Y273000D02*
G03X654750I-2750J0D01*
G01X658680Y299375D02*
G03X658504Y304563I820J2625D01*
G01X656847Y302724D02*
G03X658680Y299375I-820J-2625D01*
G01X656996Y303137D02*
G03X656847Y302724I2504J-1137D01*
G01X658504Y304563D02*
G03X656996Y303137I-2504J1137D01*
G01X659813Y320083D02*
G03X661187Y321917I2687J-583D01*
G01X658747Y319761D02*
G03X659813Y320083I-247J2739D01*
G01X658033Y317775D02*
G03X658747Y319761I-2033J1851D01*
G01X658745Y312462D02*
G03X658033Y317775I255J2738D01*
G01X656255Y315038D02*
G03X658745Y312462I-255J-2738D01*
G01X656967Y317051D02*
G03X656255Y315038I2033J-1851D01*
G01X655753Y322365D02*
G03X656967Y317051I247J-2739D01*
G01X661187Y321917D02*
G03X655753Y322365I-2687J583D01*
G01X665150Y374320D02*
G03X665150I-2750J0D01*
G01X665750Y426000D02*
G03X665750I-2750J0D01*
G01X658750Y339500D02*
G03X658750I-2750J0D01*
G01X654329Y347255D02*
G03X651881Y349161I171J2745D01*
X654329Y347255I-171J-2745*
G01X657750Y361500D02*
G03X657750I-2750J0D01*
G01X663937Y433695D02*
G03Y436620I3937J1462D01*
Y433695I-3937J-1463*
G01Y443537D02*
G03Y446463I3937J1463D01*
Y443537I-3937J-1463*
G01X675750Y453500D02*
G03X675750I-2750J0D01*
G01X685771Y463780D02*
G03X685771I-7228J0D01*
G01X672190Y475150D02*
G03X672190I-2750J0D01*
G01X660750Y463000D02*
G03X660750I-2750J0D01*
G01Y479000D02*
G03X660750I-2750J0D01*
G01X664200Y490000D02*
G03X664200I-4200J0D01*
G01X638282Y261759D02*
G03X641248Y264398I2748J-103D01*
X638282Y261759I-2748J102*
G01X628171Y221313D02*
G03X631280Y225623I2129J1741D01*
G01X626955Y225579D02*
G03X628171Y221313I-955J-2579D01*
G01X631280Y225623D02*
G03X626955Y225579I-2180J1677D01*
G01X630250Y238500D02*
G03X630250I-2750J0D01*
G01X631250Y247000D02*
G03X631250I-2750J0D01*
G01X630250Y253000D02*
G03X630250I-2750J0D01*
G01X635127Y294590D02*
G03X635114Y296382I2594J916D01*
X635127Y294590I-2593J-916*
G01X642021Y303675D02*
G03X646614Y305771I2749J55D01*
G01X642320Y304978D02*
G03X642021Y303675I-2750J-55D01*
G01X642657Y305489D02*
G03X642320Y304978I2113J-1759D01*
G01X646614Y305771D02*
G03X642657Y305489I-2114J1759D01*
G01X647250Y314000D02*
G03X647250I-2750J0D01*
G01X639850Y312974D02*
G03X639850I-2750J0D01*
G01X638680Y319824D02*
G03X639099Y320601I2599J-899D01*
G01X635876Y324178D02*
G03X638680Y319824I624J-2678D01*
G01X639124Y322322D02*
G03X635876Y324178I-624J2678D01*
G01X639099Y320601D02*
G03X639124Y322322I-2599J899D01*
G01X637106Y341982D02*
G03X638415Y343185I2415J-1315D01*
X637106Y341982I-2415J1315*
G01X642987Y358187D02*
G03X643813Y361987I2313J1487D01*
G01X642798Y358075D02*
G03X642987Y358187I-1298J2425D01*
G01X639696Y358425D02*
G03X642798Y358075I1297J-2425D01*
G01X639022Y359307D02*
G03X639696Y358425I2478J1193D01*
G01X633686Y358841D02*
G03X639022Y359307I2614J855D01*
G01X631857Y357133D02*
G03X633686Y358841I-757J2643D01*
G01X628707Y358421D02*
G03X631857Y357133I758J-2644D01*
G01X630099Y362338D02*
G03X628707Y358421I1001J-2562D01*
G01X632783Y361951D02*
G03X630099Y362338I-1001J2561D01*
G01X633714Y360631D02*
G03X632783Y361951I-2614J-855D01*
G01X638778Y360889D02*
G03X633714Y360631I-2478J-1193D01*
G01X643813Y361987D02*
G03X638778Y360889I-2313J-1487D01*
G01X642614Y370010D02*
G03X642614I-2750J0D01*
G01X645750Y382000D02*
G03X645750I-2750J0D01*
G01X648750Y401000D02*
G03X648750I-2750J0D01*
G01X650750Y426000D02*
G03X650750I-2750J0D01*
G01X650200Y460000D02*
G03X650200I-4200J0D01*
G01X654200Y490000D02*
G03X654200I-4200J0D01*
G01X623250Y357528D02*
G03X620350Y360246I-150J2746D01*
X623250Y357528I150J-2746*
G01X630414Y372604D02*
G03X630414I-2750J0D01*
G01X631750Y414000D02*
G03X631750I-2750J0D01*
G01X633250Y422500D02*
G03X633250I-2750J0D01*
G01X618380Y366364D02*
G03X618823Y367177I2602J-890D01*
X618380Y366364I-2603J889*
G01X612250Y384110D02*
G03X612250I-2750J0D01*
G01X617717Y387198D02*
G03X615358Y390353I358J2727D01*
X617717Y387198I-358J-2727*
G01X625750Y423000D02*
G03X625750I-2750J0D01*
G01X627318Y436894D02*
G03X627482Y438606I2682J606D01*
G01X622693Y439767D02*
G03X627318Y436894I2107J-1767D01*
G01X622608Y445222D02*
G03X622693Y439767I392J-2722D01*
G01X624192Y444978D02*
G03X622608Y445222I-392J2722D01*
G01X625107Y440733D02*
G03X624192Y444978I-2107J1767D01*
G01X627482Y438606D02*
G03X625107Y440733I-2682J-606D01*
G01X632750Y475000D02*
G03X632750I-2750J0D01*
G01X625750Y494000D02*
G03X625750I-2750J0D01*
G01X614750Y403150D02*
G03X614750I-2750J0D01*
G01X613887Y423000D02*
G03X611716Y427735I-1887J2000D01*
G01X610113Y423000D02*
G03X613887I1887J-2000D01*
G01X609284Y425431D02*
G03X610113Y423000I2716J-431D01*
G01X611716Y427735D02*
G03X609284Y425431I-2716J431D01*
G01X614750Y438400D02*
G03X614750I-2750J0D01*
G01X598678Y360940D02*
G03X597958Y364050I1822J2060D01*
X598678Y360940I-1822J-2060*
G01X599750Y374000D02*
G03X599750I-2750J0D01*
G01X598977Y380792D02*
G03X600960Y382271I2460J-1229D01*
G01X597103Y381131D02*
G03X598977Y380792I1397J2369D01*
G01X592294Y381592D02*
G03X597103Y381131I2279J-1539D01*
G01X596002Y384651D02*
G03X592294Y381592I-2704J-499D01*
G01X600960Y382271D02*
G03X596002Y384651I-2460J1229D01*
G01X608750Y439000D02*
G03X608750I-2750J0D01*
G01X609028Y442940D02*
G03X608872Y446910I1822J2060D01*
X609028Y442940I-1822J-2060*
G01X618750Y450000D02*
G03X618750I-2750J0D01*
G01X611400Y454012D02*
G03Y457988I1900J1988D01*
Y454012I-1900J-1988*
G01X618250Y467000D02*
G03X618250I-2750J0D01*
G01X615250Y490000D02*
G03X615250I-2750J0D01*
G01X598750Y395000D02*
G03X598750I-2750J0D01*
G01X581168Y337032D02*
G03X584146Y339656I2748J-116D01*
X581168Y337032I-2748J116*
G01X580721Y347964D02*
G03X578693Y352197I279J2736D01*
G01X579779Y348236D02*
G03X580721Y347964I-279J-2736D01*
G01X578481Y351803D02*
G03X579779Y348236I2519J-1103D01*
G01X577402Y350839D02*
G03X578481Y351803I-1228J2461D01*
G01X573772Y351961D02*
G03X577402Y350839I1228J-2461D01*
G01X573472Y352791D02*
G03X573772Y351961I2702J509D01*
G01X575702Y356009D02*
G03X573472Y352791I-2702J-509D01*
G01X577092Y355892D02*
G03X575702Y356009I-918J-2592D01*
G01X578393Y354925D02*
G03X577092Y355892I918J2592D01*
G01X578693Y352197D02*
G03X578393Y354925I-2519J1103D01*
G01X588350Y395155D02*
G03X588350I-2750J0D01*
G01X590900Y444104D02*
G03Y445896I2600J896D01*
Y444104I-2600J-896*
G01X591942Y454176D02*
G03X591858Y457724I2058J1824D01*
X591942Y454176I-2058J-1824*
G01X604200Y475000D02*
G03X604200I-4200J0D01*
G01X594200Y490000D02*
G03X594200I-4200J0D01*
G01X575750Y367500D02*
G03X575750I-2750J0D01*
G01X580250Y384000D02*
G03X580250I-2750J0D01*
G01X569740Y370824D02*
G03X569740I-2750J0D01*
G01X571418Y384000D02*
G03X571418I-2750J0D01*
G01X578649Y394076D02*
G03X576844Y397430I845J2618D01*
G01X573368Y394016D02*
G03X578649Y394076I2632J797D01*
G01X573432Y395797D02*
G03X573368Y394016I-2632J-797D01*
G01X576844Y397430D02*
G03X573432Y395797I-844J-2617D01*
G01X580750Y429500D02*
G03X580750I-2750J0D01*
G01X583750Y456000D02*
G03X583750I-2750J0D01*
G01X575250Y439500D02*
G03X575250I-2750J0D01*
G01X576750Y445000D02*
G03X576750I-2750J0D01*
G01X584200Y475000D02*
G03X584200I-4200J0D01*
G01X561750Y357500D02*
G03X561750I-2750J0D01*
G01X562366Y373324D02*
G03X560334Y376676I634J2676D01*
X562366Y373324I-634J-2676*
G01X562750Y384000D02*
G03X562750I-2750J0D01*
G01X544750Y114000D02*
G03X544750I-2750J0D01*
G01X548250Y136000D02*
G03X548250I-2750J0D01*
G01X539750Y121000D02*
G03X539750I-2750J0D01*
G01X543250Y167500D02*
G03X543250I-2750J0D01*
G01X548250Y202500D02*
G03X548250I-2750J0D01*
G01X551977Y213283D02*
G03X550743Y218547I-1107J2517D01*
G01X547138Y211660D02*
G03X551977Y213283I2745J-160D01*
G01X548296Y216769D02*
G03X547138Y211660I-1396J-2369D01*
G01X549626Y218253D02*
G03X548296Y216769I1244J-2453D01*
G01X548178Y218588D02*
G03X549626Y218253I1322J2412D01*
G01X545570Y222527D02*
G03X548178Y218588I130J-2746D01*
G01X549216Y223735D02*
G03X545570Y222527I-2442J1265D01*
G01X550743Y218547D02*
G03X549216Y223735I-1243J2453D01*
G01X540127Y217925D02*
G03X540127I-2750J0D01*
G01X535174Y222847D02*
G03X535551Y226789I2088J1789D01*
X535174Y222847I-2089J-1789*
G01X534095Y236707D02*
G03X534809Y239097I2705J493D01*
G01X529565Y239662D02*
G03X534095Y236707I2538J-1059D01*
G01X532944Y241221D02*
G03X529565Y239662I-2538J1059D01*
G01X534809Y239097D02*
G03X532944Y241221I-2706J-494D01*
G01X544485Y242137D02*
G03X544485I-2750J0D01*
G01X538750Y248000D02*
G03X538750I-2750J0D01*
G01X542010Y262716D02*
G03X538742Y266414I-725J2653D01*
G01X538455Y259066D02*
G03X542010Y262716I2519J1103D01*
G01X533959Y259390D02*
G03X538455Y259066I2361J1410D01*
G01X533893Y259355D02*
G03X533959Y259390I-1259J2445D01*
G01X530241Y260445D02*
G03X533893Y259355I1259J-2445D01*
G01X533699Y264335D02*
G03X530241Y260445I-1065J-2535D01*
G01X538742Y266414D02*
G03X533699Y264335I-2657J-712D01*
G01X546285Y275012D02*
G03X545610Y278874I1562J2263D01*
X546285Y275012I-1563J-2263*
G01X550250Y301675D02*
G03X550250I-2750J0D01*
G01X540658Y341664D02*
G03X540399Y343208I2471J1207D01*
G01X537183Y339353D02*
G03X540658Y341664I746J2647D01*
G01X536200Y337841D02*
G03X537183Y339353I-1687J2172D01*
G01X537970Y334451D02*
G03X536200Y337841I-2637J780D01*
G01X537896Y334234D02*
G03X537970Y334451I2637J-780D01*
G01X532601Y334919D02*
G03X537896Y334234I2732J312D01*
G01X529055Y338406D02*
G03X532601Y334919I2597J-906D01*
G01X524699Y340081D02*
G03X529055Y338406I2700J520D01*
G01X526913Y343308D02*
G03X524699Y340081I-2701J-520D01*
G01X529996Y339695D02*
G03X526913Y343308I-2597J906D01*
G01X531773Y340247D02*
G03X529996Y339695I-121J-2747D01*
G01X535259Y342660D02*
G03X531773Y340247I-746J-2647D01*
G01X540399Y343208D02*
G03X535259Y342660I-2470J-1208D01*
G01X550837Y352400D02*
G03X550837I-2750J0D01*
G01X553989Y368750D02*
G03X551595Y370166I11J2750D01*
X553989Y368750I-11J-2750*
G01X555730Y379500D02*
G03X555730I-2750J0D01*
G01X562624Y403822D02*
G03X559376Y405678I-624J2678D01*
G01X560694Y400339D02*
G03X562624Y403822I-694J2661D01*
G01X557359Y402234D02*
G03X560694Y400339I694J-2661D01*
G01X559376Y405678D02*
G03X557359Y402234I624J-2678D01*
G01X567250Y418500D02*
G03X567250I-2750J0D01*
G01X569750Y443500D02*
G03X569750I-2750J0D01*
G01X559574Y412968D02*
G03X555926Y414532I-1074J2532D01*
G01X558639Y409792D02*
G03X559574Y412968I-1639J2208D01*
G01X554757Y410408D02*
G03X558639Y409792I1639J-2208D01*
G01X555926Y414532D02*
G03X554757Y410408I1074J-2532D01*
G01X562937Y445187D02*
G03X562937I-2750J0D01*
G01X564750Y456000D02*
G03X564750I-2750J0D01*
G01X570250Y490000D02*
G03X570250I-2750J0D01*
G01X540831Y355500D02*
G03X540831I-2750J0D01*
G01X544551Y362250D02*
G03X542490Y363124I-51J2750D01*
X544551Y362250I51J-2750*
G01X549167Y371583D02*
G03X549167I-2750J0D01*
G01X551221Y396196D02*
G03X551221I-2750J0D01*
G01X526162Y358045D02*
G03X526700Y358221I1119J-2512D01*
X526162Y358045I-1119J2512*
G01X532699Y366757D02*
G03X535233Y369801I2734J302D01*
G01X530008Y368336D02*
G03X532699Y366757I2492J1164D01*
G01X529792Y369977D02*
G03X530008Y368336I-2492J-1163D01*
G01X535233Y369801D02*
G03X529792Y369977I-2733J-301D01*
G01X541046Y374666D02*
G03X540088Y378320I1454J2334D01*
X541046Y374666I-1454J-2334*
G01X539749Y397935D02*
G03X540699Y399362I2649J-735D01*
G01X539114Y402633D02*
G03X539749Y397935I-1065J-2536D01*
G01X539045Y405239D02*
G03X539114Y402633I2455J-1239D01*
G01X540328Y406488D02*
G03X539045Y405239I-2455J1239D01*
G01X540435Y401465D02*
G03X540328Y406488I1065J2535D01*
G01X540699Y399362D02*
G03X540435Y401465I-2650J735D01*
G01X550593Y410157D02*
G03X550593I-2750J0D01*
G01X549250Y430000D02*
G03X549250I-2750J0D01*
G01X550750Y437000D02*
G03X550750I-2750J0D01*
G01X552050Y445000D02*
G03X552050I-2750J0D01*
G01X555750Y475000D02*
G03X555750I-2750J0D01*
G01X553750Y490000D02*
G03X553750I-2750J0D01*
G01X540750Y429500D02*
G03X540750I-2750J0D01*
G01X534590Y452595D02*
G03X535243Y452738I910J-2595D01*
G01X531674Y454632D02*
G03X534590Y452595I2659J701D01*
G01X531659Y455976D02*
G03X531674Y454632I-2659J-701D01*
G01X535243Y452738D02*
G03X531659Y455976I-910J2595D01*
G01X543750Y460500D02*
G03X543750I-2750J0D01*
G01X535750Y465000D02*
G03X535750I-2750J0D01*
G01X530250Y492500D02*
G03X530250I-2750J0D01*
G01X519208Y368500D02*
G03X519208I-2750J0D01*
G01X515250Y418500D02*
G03X515250I-2750J0D01*
G01X518250Y425000D02*
G03X518250I-2750J0D01*
G01X520750Y468000D02*
G03X520750I-2750J0D01*
G01Y474000D02*
G03X520750I-2750J0D01*
G01X506002Y366886D02*
G03X502113Y367000I-1888J2000D01*
X506002Y366886I1887J-2000*
G01X508690Y435600D02*
G03X508690I-2750J0D01*
G01X511750Y454500D02*
G03X511750I-2750J0D01*
G01Y471500D02*
G03X511750I-2750J0D01*
G01X500250Y384500D02*
G03X500250I-2750J0D01*
G01X500200Y427110D02*
G03X500200I-2750J0D01*
G01X485650Y257300D02*
G03X485650I-2750J0D01*
G01X486098Y304902D02*
G03X484402Y306598I902J2598D01*
X486098Y304902I-902J-2598*
G01X478310Y309429D02*
G03X479190Y312071I2690J571D01*
G01X473841Y310799D02*
G03X478310Y309429I2659J701D01*
G01X475722Y314138D02*
G03X473841Y310799I-2659J-701D01*
G01X479190Y312071D02*
G03X475722Y314138I-2690J-571D01*
G01X489250Y332000D02*
G03X489250I-2750J0D01*
G01X488400Y340512D02*
G03Y344488I1900J1988D01*
Y340512I-1900J-1988*
G01X492807Y356187D02*
G03X492807I-2750J0D01*
G01X486207Y356600D02*
G03X486207I-2750J0D01*
G01X470250Y261000D02*
G03X470250I-2750J0D01*
G01X470575Y342679D02*
G03X470575I-2750J0D01*
G01X474248Y356394D02*
G03X472378Y359106I878J2606D01*
G01X468813Y357083D02*
G03X474248Y356394I2687J-583D01*
G01X465434Y361315D02*
G03X468813Y357083I2066J-1815D01*
G01X466639Y362112D02*
G03X465434Y361315I-2066J1815D01*
G01X470187Y358917D02*
G03X466639Y362112I-2687J583D01*
G01X472378Y359106D02*
G03X470187Y358917I-878J-2606D01*
G01X483350Y364600D02*
G03X483350I-2750J0D01*
G01X481941Y370562D02*
G03X479472Y373651I259J2738D01*
X481941Y370562I-259J-2738*
G01X481500Y377354D02*
G03Y379646I2500J1146D01*
Y377354I-2500J-1146*
G01X490250Y400000D02*
G03X490250I-2750J0D01*
G01Y420000D02*
G03X490250I-2750J0D01*
G01X492653Y430301D02*
G03X492653I-2750J0D01*
G01X493646Y485000D02*
G03X491354I-1146J2500D01*
G01X493646Y480000D02*
G03Y485000I-1146J2500D01*
G01X491354Y480000D02*
G03X493646I1146J-2500D01*
G01X491354Y485000D02*
G03Y480000I1146J-2500D01*
G01X495750Y494500D02*
G03X495750I-2750J0D01*
G01X474376Y374550D02*
G03X470411Y374772I-1876J2011D01*
G01X472460Y370016D02*
G03X474376Y374550I-173J2745D01*
G01X471898Y367368D02*
G03X472460Y370016I-2061J1822D01*
G01X468440Y366822D02*
G03X471898Y367368I2060J-1822D01*
G01X469664Y371934D02*
G03X468440Y366822I173J-2744D01*
G01X470411Y374772D02*
G03X469664Y371934I1876J-2011D01*
G01X480750Y404000D02*
G03X480750I-2750J0D01*
G01Y415000D02*
G03X480750I-2750J0D01*
G01X483850Y464800D02*
G03X483850I-2750J0D01*
G01X467417Y375333D02*
G03X467417I-2750J0D01*
G01X453250Y185500D02*
G03X453250I-2750J0D01*
G01X440250Y110000D02*
G03X440250I-2750J0D01*
G01X430750Y115000D02*
G03X430750I-2750J0D01*
G01X435250Y130000D02*
G03X435250I-2750J0D01*
G01X440250Y163000D02*
G03X440250I-2750J0D01*
G01X440572Y168931D02*
G03X440572I-2750J0D01*
G01X437240Y176262D02*
G03X434760Y179238I260J2738D01*
X437240Y176262I-260J-2738*
G01X434809Y185267D02*
G03X437191Y187433I2691J-567D01*
X434809Y185267I-2691J567*
G01X439750Y198000D02*
G03X439750I-2750J0D01*
G01X444250Y203000D02*
G03X444250I-2750J0D01*
G01X447250Y215000D02*
G03X447250I-2750J0D01*
G01X450050Y237073D02*
G03X450050I-2750J0D01*
G01X450083Y240313D02*
G03X451917Y241687I2417J-1313D01*
X450083Y240313I-2417J1313*
G01X457650Y246500D02*
G03X457650I-2750J0D01*
G01X444250Y231000D02*
G03X444250I-2750J0D01*
G01X446433Y247044D02*
G03X446367Y251019I1867J2019D01*
X446433Y247044I-1867J-2019*
G01X451147Y256178D02*
G03X448738Y259137I331J2730D01*
X451147Y256178I-331J-2730*
G01X443157Y264130D02*
G03X441421Y264270I-657J2670D01*
X443157Y264130I657J-2670*
G01X446510Y279920D02*
G03X446510I-2750J0D01*
G01X450400Y288579D02*
G03Y290371I2600J896D01*
G01X445900Y287487D02*
G03X450400Y288579I1900J1988D01*
G01X442054Y291418D02*
G03X445900Y287487I1946J-1943D01*
G01X445464Y295221D02*
G03X442054Y291418I-2464J-1221D01*
G01X445736Y294279D02*
G03X445464Y295221I2464J1221D01*
G01X444946Y292057D02*
G03X445736Y294279I-1946J1943D01*
G01X445900Y291463D02*
G03X444946Y292057I-1900J-1988D01*
G01X450400Y290371D02*
G03X445900Y291463I-2600J-896D01*
G01X447617Y320133D02*
G03X447617I-2750J0D01*
G01X445250Y327100D02*
G03X445250I-2750J0D01*
G01X449013Y333500D02*
G03X449013I-2750J0D01*
G01X453250Y338000D02*
G03X453250I-2750J0D01*
G01X457250Y342500D02*
G03X457250I-2750J0D01*
G01X453857Y353795D02*
G03X453343Y357705I1643J2205D01*
X453857Y353795I-1643J-2205*
G01X463250Y380500D02*
G03X463250I-2750J0D01*
G01X465000Y408854D02*
G03Y411146I2500J1146D01*
Y408854I-2500J-1146*
G01X470250Y420800D02*
G03X470250I-2750J0D01*
G01X474209Y428000D02*
G03X474209I-2750J0D01*
G01X477750Y452000D02*
G03X477750I-2750J0D01*
G01X479901Y485000D02*
G03X479901I-6121J0D01*
G01X456523Y367500D02*
G03X456523I-2750J0D01*
G01X457470Y403080D02*
G03X457470I-2750J0D01*
G01X447613Y339284D02*
G03X447613I-2750J0D01*
G01X443222Y354700D02*
G03X443222I-2750J0D01*
G01X441250Y361000D02*
G03X441250I-2750J0D01*
G01X446715Y363562D02*
G03X444372Y366725I372J2725D01*
X446715Y363562I-372J-2725*
G01X443061Y382660D02*
G03X443139Y384435I2639J773D01*
X443061Y382660I-2639J-772*
G01X450250Y410000D02*
G03X450250I-2750J0D01*
G01X454200Y423000D02*
G03X454200I-4200J0D01*
G01X466121Y485000D02*
G03X466121I-6121J0D01*
G01X443280Y395390D02*
G03X443280I-2750J0D01*
G01X445950Y465000D02*
G03X445950I-2750J0D01*
G01X444950Y475100D02*
G03X444950I-2750J0D01*
G01X430840Y145060D02*
G03X430840I-2750J0D01*
G01X432750Y221500D02*
G03X432750I-2750J0D01*
G01Y240000D02*
G03X432750I-2750J0D01*
G01Y249500D02*
G03X432750I-2750J0D01*
G01X430574Y266510D02*
G03X428877Y266690I-574J2690D01*
G01X428650Y261369D02*
G03X430574Y266510I801J2631D01*
G01X429835Y259371D02*
G03X428650Y261369I-2736J-272D01*
G01X427264Y256353D02*
G03X429835Y259371I2736J273D01*
G01X427900Y261729D02*
G03X427264Y256353I-801J-2630D01*
G01X428877Y266690D02*
G03X427900Y261729I574J-2690D01*
G01X432750Y285000D02*
G03X432750I-2750J0D01*
G01Y291800D02*
G03X432750I-2750J0D01*
G01X427355Y299254D02*
G03X430145Y301246I2645J-754D01*
X427355Y299254I-2645J754*
G01X432250Y310000D02*
G03X432250I-2750J0D01*
G01X430896Y331434D02*
G03X429104I-896J2600D01*
X430896I896J-2600*
G01X426250Y310500D02*
G03X426250I-2750J0D01*
G01X418750Y297574D02*
G03X418750I-2750J0D01*
G01X419750Y311000D02*
G03X419750I-2750J0D01*
G01X420376Y320103D02*
G03X422476Y323376I2687J586D01*
X420376Y320103I-2687J-587*
G01X415750Y317418D02*
G03X415750I-2750J0D01*
G01X420683Y328286D02*
G03X418246Y330723I297J2734D01*
X420683Y328286I-297J-2734*
G01X427750Y452000D02*
G03X427750I-2750J0D01*
G01Y465000D02*
G03X427750I-2750J0D01*
G01X418750Y348500D02*
G03X418750I-2750J0D01*
G01X404200Y135000D02*
G03X404200I-4200J0D01*
G01Y145000D02*
G03X404200I-4200J0D01*
G01Y155000D02*
G03X404200I-4200J0D01*
G01Y165000D02*
G03X404200I-4200J0D01*
G01Y175000D02*
G03X404200I-4200J0D01*
G01X404620Y192450D02*
G03X404620I-2750J0D01*
G01X406250Y291000D02*
G03X406250I-2750J0D01*
G01X410750Y333000D02*
G03X410750I-2750J0D01*
G01X414750Y354500D02*
G03X414750I-2750J0D01*
G01X394350Y165300D02*
G03X394350I-2750J0D01*
G01X384780Y187904D02*
G03X385720Y189596I2720J-404D01*
X384780Y187904I-2720J404*
G01X391750Y217000D02*
G03X391750I-2750J0D01*
G01X394750Y262000D02*
G03X394750I-2750J0D01*
G01X397750Y296000D02*
G03X397750I-2750J0D01*
G01X401250Y305000D02*
G03X401250I-2750J0D01*
G01X403950Y324000D02*
G03X403950I-2750J0D01*
G01X404200Y425000D02*
G03X404200I-4200J0D01*
G01X387750Y228000D02*
G03X387750I-2750J0D01*
G01X389250Y302900D02*
G03X389250I-2750J0D01*
G01X393039Y309750D02*
G03X390261Y312250I-39J2750D01*
G01X388400Y307512D02*
G03X393039Y309750I1900J1988D01*
G01X385564Y312086D02*
G03X388400Y307512I936J-2586D01*
G01X387353Y312114D02*
G03X385564Y312086I-936J2586D01*
G01X388400Y311488D02*
G03X387353Y312114I-1900J-1988D01*
G01X390261Y312250D02*
G03X388400Y311488I39J-2750D01*
G01X390525Y324461D02*
G03X389212Y325602I1055J2539D01*
X390525Y324461I-1056J-2539*
G01X374200Y135000D02*
G03X374200I-4200J0D01*
G01Y145000D02*
G03X374200I-4200J0D01*
G01Y155000D02*
G03X374200I-4200J0D01*
G01Y165000D02*
G03X374200I-4200J0D01*
G01Y175000D02*
G03X374200I-4200J0D01*
G01X377890Y211500D02*
G03X377890I-2750J0D01*
G01X370250Y200000D02*
G03X370250I-2750J0D01*
G01X366450Y239100D02*
G03X366450I-2750J0D01*
G01X366250Y254400D02*
G03X366250I-2750J0D01*
G01X367750Y262000D02*
G03X367750I-2750J0D01*
G01X370050Y270400D02*
G03X370050I-2750J0D01*
G01X365850Y275000D02*
G03X365850I-2750J0D01*
G01X369750Y279000D02*
G03X369750I-2750J0D01*
G01X370250Y285200D02*
G03X370250I-2750J0D01*
G01X374267Y290517D02*
G03X374267I-2750J0D01*
G01X378100Y292012D02*
G03Y295988I1900J1988D01*
Y292012I-1900J-1988*
G01X365050Y290114D02*
G03X364042Y290902I1142J2502D01*
X365050Y290114I-1142J-2502*
G01X380750Y115000D02*
G03X380750I-2750J0D01*
G01X384200Y135000D02*
G03X384200I-4200J0D01*
G01Y145000D02*
G03X384200I-4200J0D01*
G01Y155000D02*
G03X384200I-4200J0D01*
G01Y165000D02*
G03X384200I-4200J0D01*
G01Y175000D02*
G03X384200I-4200J0D01*
G01X391750Y342000D02*
G03X391750I-2750J0D01*
G01X395750Y350000D02*
G03X395750I-2750J0D01*
G01X386750Y352500D02*
G03X386750I-2750J0D01*
G01X390750Y361000D02*
G03X390750I-2750J0D01*
G01X377750Y365000D02*
G03X377750I-2750J0D01*
G01X365753Y353881D02*
G03X366147Y357719I2147J1719D01*
X365753Y353881I-2147J-1719*
G01X370550Y384000D02*
G03X370550I-2750J0D01*
G01X373750Y393000D02*
G03X373750I-2750J0D01*
G01X377350Y433300D02*
G03X377350I-2750J0D01*
G01X371750Y408000D02*
G03X371750I-2750J0D01*
G01X372750Y455000D02*
G03X372750I-2750J0D01*
G01X365750Y424000D02*
G03X365750I-2750J0D01*
G01X417350Y126500D02*
G03X417350I-2750J0D01*
G01X422750Y172000D02*
G03X422750I-2750J0D01*
G01X420750Y206000D02*
G03X420750I-2750J0D01*
G01X423750Y224500D02*
G03X423750I-2750J0D01*
G01X414200Y135000D02*
G03X414200I-4200J0D01*
G01Y145000D02*
G03X414200I-4200J0D01*
G01Y155000D02*
G03X414200I-4200J0D01*
G01Y165000D02*
G03X414200I-4200J0D01*
G01Y175000D02*
G03X414200I-4200J0D01*
G01X414839Y282972D02*
G03X415961Y286602I2461J1228D01*
G01X412648Y282759D02*
G03X414839Y282972I852J2615D01*
G01X410852Y286115D02*
G03X412648Y282759I-852J-2615D01*
G01X415961Y286602D02*
G03X410852Y286115I-2461J-1228D01*
G01X424823Y296381D02*
G03X424823I-2750J0D01*
G01X460343Y209407D02*
G03X460343I-2750J0D01*
G01X465250Y110000D02*
G03X465250I-2750J0D01*
G01X476269Y188500D02*
G03X476269I-2750J0D01*
G01X468750Y160500D02*
G03X468750I-2750J0D01*
G01X455250Y108500D02*
G03X455250I-2750J0D01*
G01X457886Y137921D02*
G03X455505Y141062I338J2729D01*
X457886Y137921I-338J-2729*
G01X459750Y157000D02*
G03X459750I-2750J0D01*
G01X453750Y143500D02*
G03X453750I-2750J0D01*
G01X451250Y148500D02*
G03X451250I-2750J0D01*
G01X450697Y156154D02*
G03Y161346I907J2596D01*
G01X449407Y157096D02*
G03X450697Y156154I-907J-2596D01*
G01X449407Y160404D02*
G03Y157096I2197J-1654D01*
G01X450697Y161346D02*
G03X449407Y160404I-2197J1654D01*
G01X451250Y171300D02*
G03X451250I-2750J0D01*
G01X455550Y180251D02*
G03X455250Y181484I2450J1249D01*
G01X450992Y178162D02*
G03X455550Y180251I1808J2073D01*
G01X450308Y179073D02*
G03X450992Y178162I-1808J-2073D01*
G01X455250Y181484D02*
G03X450308Y179073I-2450J-1249D01*
G01X461050Y202200D02*
G03X461050I-2750J0D01*
G01X466250Y204000D02*
G03X466250I-2750J0D01*
G01X468012Y223794D02*
G03X468284Y224736I2736J-279D01*
G01X466054Y222312D02*
G03X468012Y223794I-506J2703D01*
G01X466090Y221681D02*
G03X466054Y222312I-2746J163D01*
G01X463955Y219163D02*
G03X466090Y221681I2745J-163D01*
G01X462838Y224547D02*
G03X463955Y219163I506J-2703D01*
G01X468284Y224736D02*
G03X462838Y224547I-2736J279D01*
G01X478014Y239373D02*
G03X475186Y240127I-814J2627D01*
G01X473723Y235957D02*
G03X478014Y239373I2277J1543D01*
G01X470119Y235747D02*
G03X473723Y235957I1681J2176D01*
G01X465472Y238582D02*
G03X470119Y235747I2528J-1082D01*
G01X465601Y238845D02*
G03X465472Y238582I-2528J1082D01*
G01X469681Y239676D02*
G03X465601Y238845I-1681J-2176D01*
G01X474077Y239466D02*
G03X469681Y239676I-2277J-1543D01*
G01X475186Y240127D02*
G03X474077Y239466I814J-2627D01*
G01X480250Y110000D02*
G03X480250I-2750J0D01*
G01X480760Y136474D02*
G03X480840Y140449I1940J1950D01*
G01X476160Y138270D02*
G03X480760Y136474I2740J230D01*
G01X471240Y138270D02*
G03X476160I2460J1230D01*
G01X465882Y139341D02*
G03X471240Y138270I2618J-841D01*
G01X466802Y143371D02*
G03X465882Y139341I-2228J-1611D01*
G01X472012Y141671D02*
G03X466802Y143371I-2677J629D01*
G01X476440Y139730D02*
G03X472012Y141671I-2740J-230D01*
G01X480840Y140449D02*
G03X476440Y139730I-1940J-1949D01*
G01X481785Y189068D02*
G03X478115Y190132I-1285J2432D01*
X481785Y189068I1284J-2432*
G01X487981Y217700D02*
G03X489303Y218746I2285J-1530D01*
G01X485912Y217758D02*
G03X487981Y217700I1106J2518D01*
G01X481498Y214478D02*
G03X485912Y217758I2168J1692D01*
G01X481498Y217862D02*
G03Y214478I-2168J-1692D01*
G01X484773Y218687D02*
G03X481498Y217862I-1107J-2517D01*
G01X489303Y218746D02*
G03X484773Y218687I-2285J1530D01*
G01X482305Y222795D02*
G03X481790Y226705I1643J2205D01*
X482305Y222795I-1642J-2205*
G01X505750Y342500D02*
G03X505750I-2750J0D01*
G01X494750Y290875D02*
G03X494750I-2750J0D01*
G01X497750Y301500D02*
G03X497750I-2750J0D01*
G01X515113Y219900D02*
G03X515113I-2750J0D01*
G01X515050Y240000D02*
G03X515050I-2750J0D01*
G01X516750Y258000D02*
G03X516750I-2750J0D01*
G01X505250Y132806D02*
G03X505250I-2750J0D01*
G01X490250Y110000D02*
G03X490250I-2750J0D01*
G01X494722Y137862D02*
G03X492841Y141201I778J2638D01*
G01X489586Y137369D02*
G03X494722Y137862I2477J1194D01*
G01X490777Y140994D02*
G03X489586Y137369I-2477J-1194D01*
G01X492841Y141201D02*
G03X490777Y140994I-778J-2638D01*
G01X498048Y146353D02*
G03X500266Y147678I2354J-1421D01*
X498048Y146353I-2354J1422*
G01X502396Y155900D02*
G03X500604I-896J2600D01*
X502396I896J-2600*
G01X491750Y146000D02*
G03X491750I-2750J0D01*
G01X499386Y168625D02*
G03X499560Y172448I2061J1822D01*
G01X494774Y170264D02*
G03X499386Y168625I2726J362D01*
G01X497226Y173362D02*
G03X494774Y170264I-2726J-362D01*
G01X499560Y172448D02*
G03X497226Y173362I-2060J-1822D01*
G01X504250Y181500D02*
G03X504250I-2750J0D01*
G01X498241Y187928D02*
G03X497514Y192981I649J2672D01*
G01X493226Y186154D02*
G03X498241Y187928I2274J1546D01*
G01X492736Y190272D02*
G03X493226Y186154I-1549J-2272D01*
G01X497514Y192981D02*
G03X492736Y190272I-2317J-1481D01*
G01X505878Y204128D02*
G03X505878I-2750J0D01*
G01X502311Y223030D02*
G03X506282Y223170I2052J-1830D01*
X502311Y223030I-2052J1830*
G01X512270Y266520D02*
G03X512270I-2750J0D01*
G01X516853Y278610D02*
G03X516853I-2750J0D01*
G01X520634Y284163D02*
G03X520634I-2750J0D01*
G01X520990Y292876D02*
G03X521210Y296840I2010J1877D01*
X520990Y292876I-2010J-1877*
G01X528250Y334500D02*
G03X528250I-2750J0D01*
G01X521750Y303000D02*
G03X521750I-2750J0D01*
G01X522240Y331863D02*
G03X522240I-2750J0D01*
G01X531886Y374864D02*
G03X531886I-2750J0D01*
G01X515302Y294105D02*
G03X515302I-2750J0D01*
G01X494990Y222299D02*
G03X496069Y222589I1240J-2455D01*
G01X493223Y222812D02*
G03X494990Y222299I1607J2232D01*
G01X492636Y226703D02*
G03X493223Y222812I-1606J-2233D01*
G01X496069Y222589D02*
G03X492636Y226703I-1239J2455D01*
G01X498423Y239109D02*
G03X501298Y241553I2733J-302D01*
G01X496337Y240244D02*
G03X498423Y239109I2228J1612D01*
G01X495888Y239990D02*
G03X496337Y240244I-1123J2510D01*
G01X492109Y236254D02*
G03X495888Y239990I1391J2372D01*
G01X486881Y236452D02*
G03X492109Y236254I2646J748D01*
G01X486973Y238221D02*
G03X486881Y236452I-2646J-748D01*
G01X490918Y239572D02*
G03X486973Y238221I-1391J-2372D01*
G01X492377Y241136D02*
G03X490918Y239572I1123J-2510D01*
G01X492146Y241661D02*
G03X492377Y241136I2619J839D01*
G01X487017Y243645D02*
G03X492146Y241661I2583J-945D01*
G01X483446Y245180D02*
G03X487017Y243645I2554J1020D01*
G01X483854Y247920D02*
G03X483446Y245180I-2554J-1020D01*
G01X488583Y245255D02*
G03X483854Y247920I-2583J945D01*
G01X492219Y243539D02*
G03X488583Y245255I-2619J-839D01*
G01X496993Y244112D02*
G03X492219Y243539I-2228J-1612D01*
G01X501298Y241553D02*
G03X496993Y244112I-2733J303D01*
G01X508182Y278101D02*
G03X508182I-2750J0D01*
G01X512750Y305300D02*
G03X512750I-2750J0D01*
G01X518250Y336000D02*
G03X518250I-2750J0D01*
G01X506750Y302000D02*
G03X506750I-2750J0D01*
G01X504853Y318800D02*
G03X504853I-2750J0D01*
G01X507330Y329539D02*
G03X506470Y333324I1470J2324D01*
X507330Y329539I-1470J-2324*
G01X512025Y340588D02*
G03X510986Y341814I1487J2314D01*
X512025Y340588I-1486J-2314*
G01X516211Y360009D02*
G03X516565Y360684I2589J-927D01*
G01X512926Y359070D02*
G03X516211Y360010I1050J2542D01*
G01X511165Y356445D02*
G03X512926Y359070I-989J2566D01*
G01X505945Y354800D02*
G03X511165Y356445I2691J564D01*
G01X500595Y354091D02*
G03X505945Y354800I2605J882D01*
G01X500605Y355882D02*
G03X500595Y354091I-2605J-882D01*
G01X503915Y357628D02*
G03X500605Y355882I-715J-2655D01*
G01X508195Y360919D02*
G03X503915Y357628I-1819J-2063D01*
G01X511227Y361553D02*
G03X508195Y360919I-1051J-2542D01*
G01X516565Y360684D02*
G03X511227Y361553I-2589J928D01*
G01X524750Y370986D02*
G03X524750I-2750J0D01*
G01X524753Y393761D02*
G03X527747Y396365I2747J-135D01*
G01X524480Y399200D02*
G03X524753Y393761I520J-2700D01*
G01X526332Y402301D02*
G03X524480Y399200I855J-2614D01*
G01X528122Y402273D02*
G03X526332Y402301I-855J2614D01*
G01X527707Y396987D02*
G03X528122Y402273I-520J2700D01*
G01X527747Y396365D02*
G03X527707Y396987I-2747J135D01*
G01X524949Y423700D02*
G03X524949I-2750J0D01*
G01X529750Y429000D02*
G03X529750I-2750J0D01*
G01X532750Y172500D02*
G03X532750I-2750J0D01*
G01X522250Y154000D02*
G03X522250I-2750J0D01*
G01X515250Y110000D02*
G03X515250I-2750J0D01*
G01X514488Y174900D02*
G03X510512I-1988J1900D01*
X514488I1988J-1900*
G01X519741Y199551D02*
G03X516341Y203820I-1431J2349D01*
G01X516491Y195506D02*
G03X519741Y199551I914J2594D01*
G01X513365Y193572D02*
G03X516491Y195506I487J2707D01*
G01X514828Y191906D02*
G03X513365Y193572I-2623J-827D01*
G01X516629Y188308D02*
G03X514828Y191906I776J2638D01*
G01X515221Y185036D02*
G03X516629Y188308I-1221J2464D01*
G01X514279Y184764D02*
G03X515221Y185036I1221J-2464D01*
G01X511417Y188444D02*
G03X514279Y184764I2583J-944D01*
G01X512692Y193786D02*
G03X511417Y188444I-487J-2707D01*
G01X514766Y198873D02*
G03X512692Y193786I-914J-2594D01*
G01X515974Y200448D02*
G03X514766Y198873I1431J-2348D01*
G01X515897Y200580D02*
G03X515974Y200448I2413J1320D01*
G01X511977Y204437D02*
G03X515897Y200580I1951J-1937D01*
G01X515952Y204363D02*
G03X511977Y204437I-1952J1937D01*
G01X516341Y203820D02*
G03X515952Y204363I-2413J-1320D01*
G01X526517Y215767D02*
G03X526517I-2750J0D01*
G01X521469Y223080D02*
G03X522032Y223926I2531J-1074D01*
X521469Y223080I-2532J1074*
G01X525353Y237103D02*
G03X525353I-2750J0D01*
G01X523041Y251552D02*
G03X521718Y252707I1052J2541D01*
X523041Y251552I-1052J-2541*
G01X526085Y262281D02*
G03X524487Y266874I415J2719D01*
G01X525315Y262519D02*
G03X526085Y262281I-415J-2719D01*
G01X523886Y265853D02*
G03X525315Y262519I2614J-853D01*
G01X524487Y266874D02*
G03X523886Y265853I-2614J853D01*
G01X533799Y385519D02*
G03X537042Y387696I2701J-519D01*
X533799Y385519I-2701J519*
G01X530250Y110000D02*
G03X530250I-2750J0D01*
G01X532750Y152500D02*
G03X532750I-2750J0D01*
G01X536750Y168000D02*
G03X536750I-2750J0D01*
G01X535969Y183630D02*
G03X537076Y184313I1957J-1932D01*
G01X532372Y186155D02*
G03X535969Y183630I2748J91D01*
G01X535154Y188996D02*
G03X532372Y186155I-2749J-91D01*
G01X537076Y184313D02*
G03X535154Y188996I-1956J1933D01*
G01X538421Y200234D02*
G03X534546Y201017I-1559J2266D01*
X538421Y200234I1559J-2266*
G01X544633Y210078D02*
G03X544633I-2750J0D01*
G01X558250Y120500D02*
G03X558250I-2750J0D01*
G01X555250Y163000D02*
G03X555250I-2750J0D01*
G01X555343Y190795D02*
G03X555857Y194705I2157J1705D01*
X555343Y190795I-2157J-1705*
G01X561422Y217113D02*
G03X559148Y217127I-1122J2511D01*
G01X560484Y211874D02*
G03X561422Y217113I-214J2742D01*
G01X559069Y212142D02*
G03X560484Y211874I214J-2741D01*
G01X559148Y217127D02*
G03X559069Y212142I1122J-2511D01*
G01X557536Y226736D02*
G03X560334Y228547I2588J-931D01*
X557536Y226736I-2588J931*
G01X562750Y246198D02*
G03X562750I-2750J0D01*
G01X566250Y148500D02*
G03X566250I-2750J0D01*
G01X566555Y163834D02*
G03X562579I-1988J1900D01*
G01X565513Y159352D02*
G03X566555Y163834I-946J2582D01*
G01X562742Y159876D02*
G03X565513Y159352I947J-2582D01*
G01X562579Y163834D02*
G03X562742Y159876I1988J-1900D01*
G01X566250Y171500D02*
G03X566250I-2750J0D01*
G01X566063Y177874D02*
G03X566063I-2750J0D01*
G01X565250Y110000D02*
G03X565250I-2750J0D01*
G01X566250Y127510D02*
G03X566250I-2750J0D01*
G01X572216Y310966D02*
G03X572216I-2750J0D01*
G01X562750Y324500D02*
G03X562750I-2750J0D01*
G01X565597Y334494D02*
G03X566340Y338968I1907J1982D01*
G01X565590Y333468D02*
G03X565597Y334494I-2698J532D01*
G01X562342Y331306D02*
G03X565590Y333468I2698J-532D01*
G01X562431Y336711D02*
G03X562342Y331306I461J-2711D01*
G01X560962Y338424D02*
G03X562431Y336711I2638J776D01*
G01X562638Y341776D02*
G03X560962Y338424I-2638J-776D01*
G01X566340Y338968D02*
G03X562638Y341776I-2740J232D01*
G01X572270Y345646D02*
G03X572270I-2750J0D01*
G01X576144Y325387D02*
G03X574419Y327050I856J2613D01*
G01X576311Y324335D02*
G03X576144Y325387I-2748J102D01*
G01X573345Y321696D02*
G03X576311Y324335I2748J-103D01*
G01X574419Y327050D02*
G03X573345Y321696I-856J-2613D01*
G01X579250Y255500D02*
G03X579250I-2750J0D01*
G01X571085Y179525D02*
G03X570115Y184911I-754J2644D01*
G01X569314Y179614D02*
G03X571085Y179525I754J-2645D01*
G01X567726Y183052D02*
G03X569314Y179614I2605J-883D01*
G01X567330Y188537D02*
G03X567726Y183052I180J-2744D01*
G01X567334Y188756D02*
G03X567330Y188537I2745J-158D01*
G01X570256Y191343D02*
G03X567334Y188756I-2746J157D01*
G01X570259Y185854D02*
G03X570256Y191343I-180J2744D01*
G01X570115Y184911D02*
G03X570259Y185854I-2605J882D01*
G01X567529Y201214D02*
G03X568550Y204530I2550J1030D01*
G01X565502Y206205D02*
G03X567529Y201214I498J-2705D01*
G01X567781Y205595D02*
G03X565502Y206205I-498J2705D01*
G01X568550Y204530D02*
G03X567781Y205595I-2550J-1030D01*
G01X586007Y273130D02*
G03X584786Y274431I1287J2430D01*
G01X581293Y270359D02*
G03X586007Y273130I2207J1641D01*
G01X580167Y269890D02*
G03X581293Y270359I-467J2710D01*
G01X576604Y266050D02*
G03X580167Y269890I2396J1350D01*
G01X577218Y269494D02*
G03X576604Y266050I-2396J-1350D01*
G01X578533Y270110D02*
G03X577218Y269494I467J-2710D01*
G01X581907Y274241D02*
G03X578533Y270110I-2207J-1641D01*
G01X584786Y274431D02*
G03X581907Y274241I-1286J-2431D01*
G01X585825Y287854D02*
G03X587613Y287891I947J-2582D01*
X585825Y287854I-948J2581*
G01X592550Y346500D02*
G03X592550I-2750J0D01*
G01X571020Y215060D02*
G03X571020I-2750J0D01*
G01X568888Y223400D02*
G03X564912I-1988J1900D01*
X568888I1988J-1900*
G01X563912Y249930D02*
G03X565594Y251597I2588J-930D01*
G01X560423Y253470D02*
G03X563912Y249930I2583J-944D01*
G01X562599Y255246D02*
G03X560423Y253470I-2583J944D01*
G01X565594Y251597D02*
G03X562599Y255246I-2588J929D01*
G01X565062Y262953D02*
G03X567889Y265123I2689J-576D01*
G01X562450Y265652D02*
G03X565062Y262953I2750J48D01*
G01X562750Y266948D02*
G03X562450Y265652I-2750J-48D01*
G01X567889Y265123D02*
G03X562750Y266948I-2689J577D01*
G01X570296Y273500D02*
G03X570296I-2750J0D01*
G01X572250Y281500D02*
G03X572250I-2750J0D01*
G01X577215Y288680D02*
G03X577215I-2750J0D01*
G01X562750Y272969D02*
G03X562750I-2750J0D01*
G01X565250Y280969D02*
G03X565250I-2750J0D01*
G01X566687Y291425D02*
G03X565605Y292702I1457J2332D01*
X566687Y291425I-1457J-2333*
G01X570534Y299324D02*
G03X571755Y300625I2507J-1129D01*
G01X566596Y301026D02*
G03X570534Y299324I2651J729D01*
G01X565929Y300846D02*
G03X566596Y301026I-379J2723D01*
G01X562453Y296832D02*
G03X565929Y300846I2280J1537D01*
G01X559258Y300724D02*
G03X562453Y296832I742J-2648D01*
G01X561321Y305822D02*
G03X559258Y300724I-1038J-2546D01*
G01X560776Y307125D02*
G03X561321Y305822I2724J375D01*
G01X563065Y310215D02*
G03X560776Y307125I-2724J-374D01*
G01X565968Y306287D02*
G03X563065Y310215I-2468J1213D01*
G01X568201Y304298D02*
G03X565968Y306287I-2651J-729D01*
G01X571755Y300625D02*
G03X568201Y304298I-2508J1130D01*
G01X581143Y302176D02*
G03X581143I-2750J0D01*
G01X585162Y309471D02*
G03X585162I-2750J0D01*
G01X586843Y320299D02*
G03X586843I-2750J0D01*
G01X586927Y328514D02*
G03X586927I-2750J0D01*
G01X592250Y355500D02*
G03X592250I-2750J0D01*
G01X590250Y110000D02*
G03X590250I-2750J0D01*
G01X586247Y124761D02*
G03X583500Y128646I-247J2739D01*
G01X580753Y124761D02*
G03X586247I2747J-135D01*
G01X579357Y125295D02*
G03X580753Y124761I1643J2205D01*
G01X578843Y129205D02*
G03X579357Y125295I-1643J-2205D01*
G01X583500Y128646D02*
G03X578843Y129205I-2500J-1146D01*
G01X594250Y138500D02*
G03X594250I-2750J0D01*
G01Y158500D02*
G03X594250I-2750J0D01*
G01X599250Y202500D02*
G03X599250I-2750J0D01*
G01X599879Y256350D02*
G03X599879I-2750J0D01*
G01X600206Y181555D02*
G03X598646Y184935I1058J2539D01*
X600205Y181555I-1059J-2539*
G01X597990Y311224D02*
G03X599208Y312527I2510J-1124D01*
G01X597604Y316248D02*
G03X597990Y311224I-906J-2596D01*
G01X598895Y315306D02*
G03X597604Y316248I906J2597D01*
G01X599208Y312527D02*
G03X598895Y315306I-2510J1125D01*
G01X593650Y190983D02*
G03X593650I-2750J0D01*
G01X581139Y139910D02*
G03X584861Y140890I2361J-1410D01*
X581139Y139910I-2361J1410*
G01X573264Y138780D02*
G03X574869Y141007I2736J-280D01*
G01X570242Y139290D02*
G03X573264Y138780I1891J1997D01*
G01X569391Y141497D02*
G03X570242Y139290I-1891J-1997D01*
G01X574869Y141007D02*
G03X569391Y141497I-2736J280D01*
G01X580250Y155000D02*
G03X580250I-2750J0D01*
G01X585250Y164000D02*
G03X585250I-2750J0D01*
G01X582261Y176489D02*
G03X582261I-2750J0D01*
G01X587050Y190800D02*
G03X587050I-2750J0D01*
G01X591750Y237000D02*
G03X591750I-2750J0D01*
G01X579050Y224607D02*
G03X579050I-2750J0D01*
G01X580300Y249797D02*
G03X579877Y250580I2177J1680D01*
X580300Y249797I-2177J-1680*
G01X588880Y256376D02*
G03X588880I-2750J0D01*
G01X593191Y262372D02*
G03X591372Y264191I809J2628D01*
X593191Y262372I-809J-2628*
G01X591339Y291300D02*
G03X595193Y291997I2271J-1551D01*
X591339Y291300I-2270J1552*
G01X608566Y321500D02*
G03X608566I-2750J0D01*
G01X604250Y139000D02*
G03X604250I-2750J0D01*
G01X604294Y176638D02*
G03X601914Y179780I339J2729D01*
X604294Y176638I-339J-2729*
G01X605394Y280112D02*
G03X602922Y283198I256J2738D01*
G01X600108Y281470D02*
G03X605394Y280112I2558J-1010D01*
G01X602796Y283207D02*
G03X600108Y281470I-2558J1010D01*
G01X602922Y283198D02*
G03X602796Y283207I-256J-2738D01*
G01X610416Y297857D02*
G03X606921Y301354I-895J2600D01*
G01X607419Y297030D02*
G03X610416Y297857I2102J-1773D01*
G01X604226Y296563D02*
G03X607419Y297030I1274J2437D01*
G01X599258Y294204D02*
G03X604226Y296563I2465J1219D01*
G01X598991Y299215D02*
G03X599258Y294204I-991J-2565D01*
G01X600277Y302044D02*
G03X598991Y299215I1423J-2354D01*
G01X603827Y305966D02*
G03X600277Y302044I-1217J-2466D01*
G01X606061Y307751D02*
G03X603827Y305966I349J-2728D01*
G01X608726Y310139D02*
G03X606061Y307751I-2726J361D01*
G01X609149Y304773D02*
G03X608726Y310139I351J2727D01*
G01X605193Y302557D02*
G03X609149Y304773I1217J2466D01*
G01X604595Y301597D02*
G03X605193Y302557I-1985J1903D01*
G01X606921Y301354D02*
G03X604595Y301597I-1421J-2354D01*
G01X600902Y324543D02*
G03X601434Y329949I-161J2745D01*
G01X596104Y326338D02*
G03X600902Y324543I2048J-1835D01*
G01X594487Y331594D02*
G03X596104Y326338I759J-2644D01*
G01X593707Y336236D02*
G03X594487Y331594I1793J-2086D01*
G01X597056Y336418D02*
G03X593707Y336236I-1793J2086D01*
G01X598109Y333280D02*
G03X597056Y336418I-2609J870D01*
G01X601434Y329949D02*
G03X598109Y333280I-2669J660D01*
G01X610401Y358120D02*
G03X609170Y358955I870J2609D01*
G01X605847Y355103D02*
G03X610401Y358120I2453J1243D01*
G01X603276Y355037D02*
G03X605847Y355103I1224J2463D01*
G01X601924Y358463D02*
G03X603276Y355037I-1224J-2463D01*
G01X606953Y358744D02*
G03X601924Y358463I-2453J-1244D01*
G01X609170Y358955D02*
G03X606953Y358744I-870J-2609D01*
G01X622250Y131000D02*
G03X622250I-2750J0D01*
G01X626068Y298923D02*
G03X622979Y298927I-1542J2277D01*
X626068Y298923I1542J-2277*
G01X630250Y110000D02*
G03X630250I-2750J0D01*
G01X630574Y121468D02*
G03X626926Y123032I-1074J2532D01*
X630574Y121468I1074J-2532*
G01X636967Y154500D02*
G03X636967I-2750J0D01*
G01X631250Y153500D02*
G03X631250I-2750J0D01*
G01X630750Y163500D02*
G03X630750I-2750J0D01*
G01X633222Y173028D02*
G03X633222I-2750J0D01*
G01X632750Y182000D02*
G03X632750I-2750J0D01*
G01X636750Y188000D02*
G03X636750I-2750J0D01*
G01X627764Y312114D02*
G03X631123Y313399I2423J-1301D01*
X627764Y312114I-2423J1301*
G01X632250Y327000D02*
G03X632250I-2750J0D01*
G01X615307Y109243D02*
G03X615307I-2750J0D01*
G01X616250Y122230D02*
G03X616250I-2750J0D01*
G01X609550Y114800D02*
G03X609550I-2750J0D01*
G01X614050Y140900D02*
G03X614050I-2750J0D01*
G01X614327Y147723D02*
G03X614327I-2750J0D01*
G01X619250Y151000D02*
G03X619250I-2750J0D01*
G01X615394Y159318D02*
G03X617106Y159482I1106J-2518D01*
X615394Y159318I-1106J2518*
G01X614471Y167364D02*
G03X613851Y169018I2129J1741D01*
X614471Y167364I-2129J-1740*
G01X601310Y125429D02*
G03X602190Y128071I2690J571D01*
X601310Y125429I-2690J-571*
G01X615325Y172181D02*
G03X613709Y175558I1010J2558D01*
G01X610100Y172104D02*
G03X615325Y172181I2600J896D01*
G01X608392Y175601D02*
G03X610100Y172104I-892J-2601D01*
G01X609783Y178875D02*
G03X608392Y175601I1235J-2457D01*
G01X607373Y182488D02*
G03X609783Y178875I2609J-870D01*
G01X605799Y186364D02*
G03X607373Y182488I2441J-1266D01*
G01X606607Y190798D02*
G03X605799Y186365I-1955J-1934D01*
G01X611935Y192102D02*
G03X606607Y190798I-2712J-455D01*
G01X611934Y191187D02*
G03X611935Y192102I2712J454D01*
G01X607268Y189713D02*
G03X611934Y191187I1955J1934D01*
G01X607093Y187597D02*
G03X607268Y189713I-2441J1267D01*
G01X609509Y187538D02*
G03X607093Y187597I-1269J-2440D01*
G01X611941Y183548D02*
G03X609509Y187538I23J2750D01*
G01X611217Y179161D02*
G03X611941Y183548I-1235J2457D01*
G01X613639Y175585D02*
G03X611217Y179161I-2621J833D01*
G01X613709Y175558D02*
G03X613639Y175585I-1009J-2558D01*
G01X619332Y181500D02*
G03X619332I-2750J0D01*
G01X621595Y196655D02*
G03X621595I-2750J0D01*
G01X624847Y318097D02*
G03X624847I-2750J0D01*
G01X625250Y323934D02*
G03X625250I-2750J0D01*
G01X612250Y202500D02*
G03X612250I-2750J0D01*
G01X610423Y229491D02*
G03X614255Y230521I2410J-1324D01*
G01X610240Y234078D02*
G03X610423Y229491I1605J-2233D01*
G01X614105Y233412D02*
G03X610240Y234078I-1605J2233D01*
G01X614255Y230521D02*
G03X614105Y233412I-2410J1324D01*
G01X618202Y243000D02*
G03X618202I-2750J0D01*
G01X610077Y249632D02*
G03X606210Y250294I-1608J2231D01*
G01X609411Y245821D02*
G03X610077Y249632I-1593J2242D01*
G01X605859Y246133D02*
G03X609411Y245821I1593J-2242D01*
G01X606210Y250294D02*
G03X605859Y246133I1608J-2231D01*
G01X606750Y262650D02*
G03X606535Y263728I2535J1065D01*
X606750Y262650I-2535J-1065*
G01X607818Y270743D02*
G03X606491Y271828I990J2565D01*
X607818Y270743I-991J-2565*
G01X615532Y278669D02*
G03X615532I-2750J0D01*
G01X618255Y328863D02*
G03X615474Y331216I-60J2750D01*
G01X612951Y329414D02*
G03X618255Y328863I2582J-947D01*
G01X608895Y332833D02*
G03X612951Y329414I2495J-1155D01*
G01X612060Y334345D02*
G03X608895Y332833I-2495J1155D01*
G01X613972Y330731D02*
G03X612060Y334345I-2582J947D01*
G01X615474Y331216D02*
G03X613972Y330731I59J-2749D01*
G01X621528Y343691D02*
G03X621472Y345475I2572J975D01*
G01X621285Y343131D02*
G03X621528Y343691I-2385J1369D01*
G01X617615Y342069D02*
G03X621285Y343131I2385J-1369D01*
G01X616300Y343604D02*
G03X617615Y342069I2600J896D01*
G01X611100Y343604D02*
G03X616300I2600J896D01*
G01X611100Y345396D02*
G03Y343604I-2600J-896D01*
G01X616300Y345396D02*
G03X611100I-2600J-896D01*
G01X621472Y345475D02*
G03X616300Y345396I-2572J-975D01*
G01X116700Y195000D02*
X115500D01*
X110000Y201700D02*
Y200500D01*
X103300Y195000D02*
X104500D01*
X110000Y188300D02*
Y189500D01*
X116700Y175000D02*
X115500D01*
X110000Y181700D02*
Y180500D01*
X103300Y175000D02*
X104500D01*
X110000Y168300D02*
Y169500D01*
X136700Y195000D02*
X135500D01*
X130000Y201700D02*
Y200500D01*
X123300Y195000D02*
X124500D01*
X130000Y188300D02*
Y189500D01*
X136700Y175000D02*
X135500D01*
X130000Y181700D02*
Y180500D01*
X123300Y175000D02*
X124500D01*
X130000Y168300D02*
Y169500D01*
Y466200D02*
Y465000D01*
X123800Y460000D02*
X125000D01*
X130000Y453800D02*
Y455000D01*
X136200Y460000D02*
X135000D01*
X130000Y426200D02*
Y425000D01*
X123800Y420000D02*
X125000D01*
X130000Y413800D02*
Y415000D01*
X136200Y420000D02*
X135000D01*
X150000Y434200D02*
Y433000D01*
X145800Y430000D02*
X147000D01*
X150000Y425800D02*
Y427000D01*
X154200Y430000D02*
X153000D01*
X136700Y370000D02*
X135500D01*
X130000Y376700D02*
Y375500D01*
X123300Y370000D02*
X124500D01*
X130000Y363300D02*
Y364500D01*
X116700Y370000D02*
X115500D01*
X110000Y376700D02*
Y375500D01*
X103300Y370000D02*
X104500D01*
X110000Y363300D02*
Y364500D01*
X136700Y390000D02*
X135500D01*
X130000Y396700D02*
Y395500D01*
X123300Y390000D02*
X124500D01*
X130000Y383300D02*
Y384500D01*
X116700Y390000D02*
X115500D01*
X110000Y396700D02*
Y395500D01*
X103300Y390000D02*
X104500D01*
X110000Y383300D02*
Y384500D01*
X479901Y485000D02*
X478701D01*
X473780Y491121D02*
Y489921D01*
X467658Y485000D02*
X468858D01*
X473780Y478879D02*
Y480079D01*
X410000Y130800D02*
Y132000D01*
X414200Y135000D02*
X413000D01*
X410000Y139200D02*
Y138000D01*
X405800Y135000D02*
X407000D01*
X410000Y170800D02*
Y172000D01*
X414200Y175000D02*
X413000D01*
X410000Y179200D02*
Y178000D01*
X405800Y175000D02*
X407000D01*
X380000Y130800D02*
Y132000D01*
X384200Y135000D02*
X383000D01*
X380000Y139200D02*
Y138000D01*
X375800Y135000D02*
X377000D01*
X380000Y170800D02*
Y172000D01*
X384200Y175000D02*
X383000D01*
X380000Y179200D02*
Y178000D01*
X375800Y175000D02*
X377000D01*
X680000Y314200D02*
Y313000D01*
X675800Y310000D02*
X677000D01*
X680000Y305800D02*
Y307000D01*
X684200Y310000D02*
X683000D01*
X667874Y449200D02*
Y448000D01*
Y440800D02*
Y442000D01*
X672074Y445000D02*
X670874D01*
X594200Y490000D02*
X593000D01*
X590000Y494200D02*
Y493000D01*
X585800Y490000D02*
X587000D01*
X590000Y485800D02*
Y487000D01*
X664200Y490000D02*
X663000D01*
X660000Y494200D02*
Y493000D01*
X655800Y490000D02*
X657000D01*
X660000Y485800D02*
Y487000D01*
X230750Y185000D02*
X229550D01*
X228000Y187750D02*
Y186550D01*
X225250Y185000D02*
X226450D01*
X228000Y182250D02*
Y183450D01*
X191750Y222000D02*
X190550D01*
X189000Y224750D02*
Y223550D01*
X186250Y222000D02*
X187450D01*
X189000Y219250D02*
Y220450D01*
X265850Y230900D02*
X264650D01*
X263100Y233650D02*
Y232450D01*
X260350Y230900D02*
X261550D01*
X263100Y228150D02*
Y229350D01*
X265750Y245000D02*
X264550D01*
X263000Y247750D02*
Y246550D01*
X260250Y245000D02*
X261450D01*
X263000Y242250D02*
Y243450D01*
X126550Y159700D02*
X125350D01*
X123800Y162450D02*
Y161250D01*
X121050Y159700D02*
X122250D01*
X123800Y156950D02*
Y158150D01*
X135750Y150000D02*
X134550D01*
X133000Y152750D02*
Y151550D01*
X130250Y150000D02*
X131450D01*
X133000Y147250D02*
Y148450D01*
X182750Y193000D02*
X181550D01*
X180000Y195750D02*
Y194550D01*
X177250Y193000D02*
X178450D01*
X180000Y190250D02*
Y191450D01*
X126750Y137000D02*
X125550D01*
X124000Y139750D02*
Y138550D01*
X121250Y137000D02*
X122450D01*
X124000Y134250D02*
Y135450D01*
X147750Y230000D02*
X146550D01*
X145000Y232750D02*
Y231550D01*
X142250Y230000D02*
X143450D01*
X145000Y227250D02*
Y228450D01*
X214750Y215000D02*
X213550D01*
X212000Y217750D02*
Y216550D01*
X209250Y215000D02*
X210450D01*
X212000Y212250D02*
Y213450D01*
X235750Y249000D02*
X234550D01*
X233000Y251750D02*
Y250550D01*
X230250Y249000D02*
X231450D01*
X233000Y246250D02*
Y247450D01*
X234750Y265000D02*
X233550D01*
X232000Y267750D02*
Y266550D01*
X229250Y265000D02*
X230450D01*
X232000Y262250D02*
Y263450D01*
X352480Y292270D02*
X351280D01*
X349730Y295020D02*
Y293820D01*
X346980Y292270D02*
X348180D01*
X349730Y289520D02*
Y290720D01*
X234750Y275000D02*
X233550D01*
X232000Y277750D02*
Y276550D01*
X229250Y275000D02*
X230450D01*
X232000Y272250D02*
Y273450D01*
X319750Y315000D02*
X318550D01*
X317000Y317750D02*
Y316550D01*
X314250Y315000D02*
X315450D01*
X317000Y312250D02*
Y313450D01*
X318750Y296000D02*
X317550D01*
X316000Y298750D02*
Y297550D01*
X313250Y296000D02*
X314450D01*
X316000Y293250D02*
Y294450D01*
X321750Y256300D02*
X320550D01*
X319000Y259050D02*
Y257850D01*
X316250Y256300D02*
X317450D01*
X319000Y253550D02*
Y254750D01*
X333750Y260000D02*
X332550D01*
X331000Y262750D02*
Y261550D01*
X328250Y260000D02*
X329450D01*
X331000Y257250D02*
Y258450D01*
X352750Y347000D02*
X351550D01*
X350000Y349750D02*
Y348550D01*
X347250Y347000D02*
X348450D01*
X350000Y344250D02*
Y345450D01*
X283750Y320000D02*
X282550D01*
X281000Y322750D02*
Y321550D01*
X278250Y320000D02*
X279450D01*
X281000Y317250D02*
Y318450D01*
X351750Y279000D02*
X350550D01*
X349000Y281750D02*
Y280550D01*
X346250Y279000D02*
X347450D01*
X349000Y276250D02*
Y277450D01*
X337750Y281000D02*
X336550D01*
X335000Y283750D02*
Y282550D01*
X332250Y281000D02*
X333450D01*
X335000Y278250D02*
Y279450D01*
X317750Y281000D02*
X316550D01*
X315000Y283750D02*
Y282550D01*
X312250Y281000D02*
X313450D01*
X315000Y278250D02*
Y279450D01*
X166750Y298000D02*
X165550D01*
X164000Y300750D02*
Y299550D01*
X161250Y298000D02*
X162450D01*
X164000Y295250D02*
Y296450D01*
X166750Y278000D02*
X165550D01*
X164000Y280750D02*
Y279550D01*
X161250Y278000D02*
X162450D01*
X164000Y275250D02*
Y276450D01*
X141750Y276000D02*
X140550D01*
X139000Y278750D02*
Y277550D01*
X136250Y276000D02*
X137450D01*
X139000Y273250D02*
Y274450D01*
X151750Y302000D02*
X150550D01*
X149000Y304750D02*
Y303550D01*
X146250Y302000D02*
X147450D01*
X149000Y299250D02*
Y300450D01*
X217750Y415000D02*
X216550D01*
X215000Y417750D02*
Y416550D01*
X212250Y415000D02*
X213450D01*
X215000Y412250D02*
Y413450D01*
X355000Y467750D02*
Y466550D01*
X352250Y465000D02*
X353450D01*
X355000Y462250D02*
Y463450D01*
X307750Y213000D02*
X306550D01*
X305000Y215750D02*
Y214550D01*
X302250Y213000D02*
X303450D01*
X305000Y210250D02*
Y211450D01*
X167750Y418000D02*
X166550D01*
X165000Y420750D02*
Y419550D01*
X162250Y418000D02*
X163450D01*
X165000Y415250D02*
Y416450D01*
X217750Y120000D02*
X216550D01*
X215000Y122750D02*
Y121550D01*
X212250Y120000D02*
X213450D01*
X215000Y117250D02*
Y118450D01*
X280750Y150000D02*
X279550D01*
X278000Y152750D02*
Y151550D01*
X275250Y150000D02*
X276450D01*
X278000Y147250D02*
Y148450D01*
X347750Y113000D02*
X346550D01*
X345000Y115750D02*
Y114550D01*
X342250Y113000D02*
X343450D01*
X345000Y110250D02*
Y111450D01*
X308750Y122000D02*
X307550D01*
X306000Y124750D02*
Y123550D01*
X303250Y122000D02*
X304450D01*
X306000Y119250D02*
Y120450D01*
X205750Y150000D02*
X204550D01*
X203000Y152750D02*
Y151550D01*
X200250Y150000D02*
X201450D01*
X203000Y147250D02*
Y148450D01*
X228750Y122000D02*
X227550D01*
X226000Y124750D02*
Y123550D01*
X223250Y122000D02*
X224450D01*
X226000Y119250D02*
Y120450D01*
X332750Y200000D02*
X331550D01*
X330000Y202750D02*
Y201550D01*
X327250Y200000D02*
X328450D01*
X330000Y197250D02*
Y198450D01*
X220750Y325000D02*
X219550D01*
X218000Y327750D02*
Y326550D01*
X215250Y325000D02*
X216450D01*
X218000Y322250D02*
Y323450D01*
X275750Y235000D02*
X274550D01*
X273000Y237750D02*
Y236550D01*
X270250Y235000D02*
X271450D01*
X273000Y232250D02*
Y233450D01*
X327750Y170000D02*
X326550D01*
X325000Y172750D02*
Y171550D01*
X322250Y170000D02*
X323450D01*
X325000Y167250D02*
Y168450D01*
X265750Y340000D02*
X264550D01*
X263000Y342750D02*
Y341550D01*
X260250Y340000D02*
X261450D01*
X263000Y337250D02*
Y338450D01*
X351750Y360000D02*
X350550D01*
X349000Y362750D02*
Y361550D01*
X346250Y360000D02*
X347450D01*
X349000Y357250D02*
Y358450D01*
X307750Y242000D02*
X306550D01*
X305000Y244750D02*
Y243550D01*
X302250Y242000D02*
X303450D01*
X305000Y239250D02*
Y240450D01*
X140750Y290000D02*
X139550D01*
X138000Y292750D02*
Y291550D01*
X135250Y290000D02*
X136450D01*
X138000Y287250D02*
Y288450D01*
X267750Y353000D02*
X266550D01*
X265000Y355750D02*
Y354550D01*
X262250Y353000D02*
X263450D01*
X265000Y350250D02*
Y351450D01*
X247750Y353000D02*
X246550D01*
X245000Y355750D02*
Y354550D01*
X242250Y353000D02*
X243450D01*
X245000Y350250D02*
Y351450D01*
X237750Y353000D02*
X236550D01*
X235000Y355750D02*
Y354550D01*
X232250Y353000D02*
X233450D01*
X235000Y350250D02*
Y351450D01*
X217750Y353000D02*
X216550D01*
X215000Y355750D02*
Y354550D01*
X212250Y353000D02*
X213450D01*
X215000Y350250D02*
Y351450D01*
X187750Y353000D02*
X186550D01*
X185000Y355750D02*
Y354550D01*
X182250Y353000D02*
X183450D01*
X185000Y350250D02*
Y351450D01*
X237750Y410000D02*
X236550D01*
X235000Y412750D02*
Y411550D01*
X232250Y410000D02*
X233450D01*
X235000Y407250D02*
Y408450D01*
X203750Y425000D02*
X202550D01*
X201000Y427750D02*
Y426550D01*
X198250Y425000D02*
X199450D01*
X201000Y422250D02*
Y423450D01*
X167750Y363000D02*
X166550D01*
X165000Y365750D02*
Y364550D01*
X162250Y363000D02*
X163450D01*
X165000Y360250D02*
Y361450D01*
X287750Y391000D02*
X286550D01*
X285000Y393750D02*
Y392550D01*
X282250Y391000D02*
X283450D01*
X285000Y388250D02*
Y389450D01*
X196750Y440000D02*
X195550D01*
X194000Y442750D02*
Y441550D01*
X191250Y440000D02*
X192450D01*
X194000Y437250D02*
Y438450D01*
X167750Y307000D02*
X166550D01*
X165000Y309750D02*
Y308550D01*
X162250Y307000D02*
X163450D01*
X165000Y304250D02*
Y305450D01*
X164750Y265000D02*
X163550D01*
X162000Y267750D02*
Y266550D01*
X159250Y265000D02*
X160450D01*
X162000Y262250D02*
Y263450D01*
X304750Y299000D02*
X303550D01*
X302000Y301750D02*
Y300550D01*
X299250Y299000D02*
X300450D01*
X302000Y296250D02*
Y297450D01*
X350750Y160000D02*
X349550D01*
X348000Y162750D02*
Y161550D01*
X345250Y160000D02*
X346450D01*
X348000Y157250D02*
Y158450D01*
X265750Y265000D02*
X264550D01*
X263000Y267750D02*
Y266550D01*
X260250Y265000D02*
X261450D01*
X263000Y262250D02*
Y263450D01*
X265750Y285000D02*
X264550D01*
X263000Y287750D02*
Y286550D01*
X260250Y285000D02*
X261450D01*
X263000Y282250D02*
Y283450D01*
X155750Y335000D02*
X154550D01*
X153000Y337750D02*
Y336550D01*
X150250Y335000D02*
X151450D01*
X153000Y332250D02*
Y333450D01*
X350750Y480000D02*
X349550D01*
X348000Y482750D02*
Y481550D01*
X345250Y480000D02*
X346450D01*
X348000Y477250D02*
Y478450D01*
X155750Y480000D02*
X154550D01*
X153000Y482750D02*
Y481550D01*
X150250Y480000D02*
X151450D01*
X153000Y477250D02*
Y478450D01*
X350750Y450000D02*
X349550D01*
X348000Y452750D02*
Y451550D01*
X345250Y450000D02*
X346450D01*
X348000Y447250D02*
Y448450D01*
X172750Y105000D02*
X171550D01*
X170000Y107750D02*
Y106550D01*
X167250Y105000D02*
X168450D01*
X287750Y120000D02*
X286550D01*
X285000Y122750D02*
Y121550D01*
X282250Y120000D02*
X283450D01*
X285000Y117250D02*
Y118450D01*
X320750Y205000D02*
X319550D01*
X318000Y207750D02*
Y206550D01*
X315250Y205000D02*
X316450D01*
X318000Y202250D02*
Y203450D01*
X272750Y425000D02*
X271550D01*
X270000Y427750D02*
Y426550D01*
X267250Y425000D02*
X268450D01*
X270000Y422250D02*
Y423450D01*
X287750Y448000D02*
X286550D01*
X285000Y450750D02*
Y449550D01*
X282250Y448000D02*
X283450D01*
X285000Y445250D02*
Y446450D01*
X234750Y295000D02*
X233550D01*
X232000Y297750D02*
Y296550D01*
X229250Y295000D02*
X230450D01*
X232000Y292250D02*
Y293450D01*
X234750Y285000D02*
X233550D01*
X232000Y287750D02*
Y286550D01*
X229250Y285000D02*
X230450D01*
X232000Y282250D02*
Y283450D01*
X338750Y323000D02*
X337550D01*
X336000Y325750D02*
Y324550D01*
X333250Y323000D02*
X334450D01*
X336000Y320250D02*
Y321450D01*
X363750Y389000D02*
X362550D01*
X361000Y391750D02*
Y390550D01*
Y386250D02*
Y387450D01*
X365750Y424000D02*
X364550D01*
X363000Y426750D02*
Y425550D01*
X360250Y424000D02*
X361450D01*
X363000Y421250D02*
Y422450D01*
X371750Y408000D02*
X370550D01*
X369000Y410750D02*
Y409550D01*
X366250Y408000D02*
X367450D01*
X369000Y405250D02*
Y406450D01*
X373750Y393000D02*
X372550D01*
X371000Y395750D02*
Y394550D01*
X368250Y393000D02*
X369450D01*
X371000Y390250D02*
Y391450D01*
X591750Y237000D02*
X590550D01*
X589000Y239750D02*
Y238550D01*
X586250Y237000D02*
X587450D01*
X589000Y234250D02*
Y235450D01*
X516750Y258000D02*
X515550D01*
X514000Y260750D02*
Y259550D01*
X511250Y258000D02*
X512450D01*
X514000Y255250D02*
Y256450D01*
X506750Y302000D02*
X505550D01*
X504000Y304750D02*
Y303550D01*
X501250Y302000D02*
X502450D01*
X504000Y299250D02*
Y300450D01*
X521750Y303000D02*
X520550D01*
X519000Y305750D02*
Y304550D01*
X516250Y303000D02*
X517450D01*
X519000Y300250D02*
Y301450D01*
X651750Y141000D02*
X650550D01*
X649000Y143750D02*
Y142550D01*
X646250Y141000D02*
X647450D01*
X649000Y138250D02*
Y139450D01*
X648750Y195000D02*
X647550D01*
X646000Y197750D02*
Y196550D01*
X643250Y195000D02*
X644450D01*
X646000Y192250D02*
Y193450D01*
X648750Y220000D02*
X647550D01*
X646000Y222750D02*
Y221550D01*
X643250Y220000D02*
X644450D01*
X646000Y217250D02*
Y218450D01*
X439750Y198000D02*
X438550D01*
X437000Y200750D02*
Y199550D01*
X434250Y198000D02*
X435450D01*
X437000Y195250D02*
Y196450D01*
X422750Y172000D02*
X421550D01*
X420000Y174750D02*
Y173550D01*
X417250Y172000D02*
X418450D01*
X420000Y169250D02*
Y170450D01*
X369750Y279000D02*
X368550D01*
X367000Y281750D02*
Y280550D01*
X364250Y279000D02*
X365450D01*
X367000Y276250D02*
Y277450D01*
X367750Y262000D02*
X366550D01*
X365000Y264750D02*
Y263550D01*
X362250Y262000D02*
X363450D01*
X365000Y259250D02*
Y260450D01*
X391750Y342000D02*
X390550D01*
X389000Y344750D02*
Y343550D01*
X386250Y342000D02*
X387450D01*
X389000Y339250D02*
Y340450D01*
X397750Y296000D02*
X396550D01*
X395000Y298750D02*
Y297550D01*
X392250Y296000D02*
X393450D01*
X395000Y293250D02*
Y294450D01*
X419750Y311000D02*
X418550D01*
X417000Y313750D02*
Y312550D01*
X414250Y311000D02*
X415450D01*
X417000Y308250D02*
Y309450D01*
X394750Y262000D02*
X393550D01*
X392000Y264750D02*
Y263550D01*
X389250Y262000D02*
X390450D01*
X392000Y259250D02*
Y260450D01*
X480750Y404000D02*
X479550D01*
X478000Y406750D02*
Y405550D01*
X475250Y404000D02*
X476450D01*
X478000Y401250D02*
Y402450D01*
X672190Y475150D02*
X670990D01*
X669440Y477900D02*
Y476700D01*
X666690Y475150D02*
X667890D01*
X669440Y472400D02*
Y473600D01*
X468298Y225015D02*
X467098D01*
X465548Y227765D02*
Y226565D01*
X462798Y225015D02*
X463998D01*
X497580Y225044D02*
X496380D01*
X494830Y227794D02*
Y226594D01*
Y222294D02*
Y223494D01*
X540012Y224636D02*
X538812D01*
X537262Y227386D02*
Y226186D01*
Y221886D02*
Y223086D01*
X543250Y167500D02*
X542050D01*
X540500Y170250D02*
Y169050D01*
X537750Y167500D02*
X538950D01*
X540500Y164750D02*
Y165950D01*
X614050Y140900D02*
X612850D01*
X611300Y143650D02*
Y142450D01*
X608550Y140900D02*
X609750D01*
X611300Y138150D02*
Y139350D01*
X587050Y190800D02*
X585850D01*
X584300Y193550D02*
Y192350D01*
X581550Y190800D02*
X582750D01*
X584300Y188050D02*
Y189250D01*
X491187Y190750D02*
Y189550D01*
X488437Y188000D02*
X489637D01*
X491187Y185250D02*
Y186450D01*
X644029Y318925D02*
X642829D01*
X641279Y321675D02*
Y320475D01*
X638529Y318925D02*
X639729D01*
X641279Y316175D02*
Y317375D01*
X636300Y362446D02*
Y361246D01*
Y356946D02*
Y358146D01*
X598950Y299690D02*
X600150D01*
X596136Y364740D02*
Y363540D01*
X593386Y361990D02*
X594586D01*
X596136Y359240D02*
Y360440D01*
X550837Y352400D02*
X549637D01*
X548087Y355150D02*
Y353950D01*
X545337Y352400D02*
X546537D01*
X548087Y349650D02*
Y350850D01*
X500662Y149100D02*
X499462D01*
X497912Y151850D02*
Y150650D01*
X495162Y149100D02*
X496362D01*
X497912Y146350D02*
Y147550D01*
X503152Y144932D02*
X501952D01*
X500402Y147682D02*
Y146482D01*
X497652Y144932D02*
X498852D01*
X500402Y142182D02*
Y143382D01*
X482149Y187700D02*
X480949D01*
X476649D02*
X477849D01*
X479399Y184950D02*
Y186150D01*
X535750Y465000D02*
X534550D01*
X533000Y467750D02*
Y466550D01*
X530250Y465000D02*
X531450D01*
X533000Y462250D02*
Y463450D01*
X383981Y336877D02*
X382781D01*
X381231Y339627D02*
Y338427D01*
X378481Y336877D02*
X379681D01*
X376200Y296750D02*
Y295550D01*
X373450Y294000D02*
X374650D01*
X376200Y291250D02*
Y292450D01*
X686896Y263500D02*
X685696D01*
X684146Y266250D02*
Y265050D01*
X681396Y263500D02*
X682596D01*
X684146Y260750D02*
Y261950D01*
X387750Y228000D02*
X386550D01*
X385000Y230750D02*
Y229550D01*
X382250Y228000D02*
X383450D01*
X385000Y225250D02*
Y226450D01*
X377750Y365000D02*
X376550D01*
X375000Y367750D02*
Y366550D01*
X372250Y365000D02*
X373450D01*
X375000Y362250D02*
Y363450D01*
X460974Y140650D02*
X459774D01*
X458224Y143400D02*
Y142200D01*
Y137900D02*
Y139100D01*
X485450Y138424D02*
X484250D01*
X482700Y141174D02*
Y139974D01*
Y135674D02*
Y136874D01*
X445950Y465000D02*
X444750D01*
X443200Y467750D02*
Y466550D01*
X440450Y465000D02*
X441650D01*
X443200Y462250D02*
Y463450D01*
X444950Y475100D02*
X443750D01*
X442200Y477850D02*
Y476650D01*
X439450Y475100D02*
X440650D01*
X442200Y472350D02*
Y473550D01*
X505250Y132806D02*
X504050D01*
X502500Y135556D02*
Y134356D01*
X499750Y132806D02*
X500950D01*
X502500Y130056D02*
Y131256D01*
X390250Y187500D02*
X389050D01*
X387500Y190250D02*
Y189050D01*
X384750Y187500D02*
X385950D01*
X387500Y184750D02*
Y185950D01*
X495250Y477500D02*
X494050D01*
X489750D02*
X490950D01*
X492500Y474750D02*
Y475950D01*
X495250Y482500D02*
X494050D01*
X489750D02*
X490950D01*
X495250Y487500D02*
X494050D01*
X492500Y490250D02*
Y489050D01*
X489750Y487500D02*
X490950D01*
X497500Y173376D02*
Y172176D01*
Y167876D02*
Y169076D01*
X611050Y356346D02*
X609850D01*
X608300Y359096D02*
Y357896D01*
Y353596D02*
Y354796D01*
X476269Y188500D02*
X475069D01*
X473519Y191250D02*
Y190050D01*
X470769Y188500D02*
X471969D01*
X473519Y185750D02*
Y186950D01*
X658750Y312300D02*
X657550D01*
X656000Y315050D02*
Y313850D01*
X653250Y312300D02*
X654450D01*
X656000Y309550D02*
Y310750D01*
X640471Y295506D02*
X639271D01*
X637721Y298256D02*
Y297056D01*
Y292756D02*
Y293956D01*
X586927Y328514D02*
X585727D01*
X584177Y331264D02*
Y330064D01*
X581427Y328514D02*
X582627D01*
X584177Y325764D02*
Y326964D01*
X435250Y130000D02*
X434050D01*
X432500Y132750D02*
Y131550D01*
X429750Y130000D02*
X430950D01*
X432500Y127250D02*
Y128450D01*
X631850Y227300D02*
X630650D01*
X629100Y230050D02*
Y228850D01*
X626350Y227300D02*
X627550D01*
X455550Y180235D02*
X454350D01*
X452800Y182985D02*
Y181785D01*
X450050Y180235D02*
X451250D01*
X452800Y177485D02*
Y178685D01*
X631250Y247000D02*
X630050D01*
X628500Y249750D02*
Y248550D01*
X625750Y247000D02*
X626950D01*
X628500Y244250D02*
Y245450D01*
X614750Y438400D02*
X613550D01*
X612000Y441150D02*
Y439950D01*
X609250Y438400D02*
X610450D01*
X612000Y435650D02*
Y436850D01*
X614750Y421000D02*
X613550D01*
X609250D02*
X610450D01*
X612000Y418250D02*
Y419450D01*
X593298Y386902D02*
Y385702D01*
X590548Y384152D02*
X591748D01*
X571418Y384000D02*
X570218D01*
X568668Y386750D02*
Y385550D01*
X565918Y384000D02*
X567118D01*
X568668Y381250D02*
Y382450D01*
X537091Y388215D02*
X535891D01*
X534341Y390965D02*
Y389765D01*
X531591Y388215D02*
X532791D01*
X530017Y404887D02*
X528817D01*
X527267Y407637D02*
Y406437D01*
X524517Y404887D02*
X525717D01*
X524949Y423700D02*
X523749D01*
X522199Y426450D02*
Y425250D01*
X519449Y423700D02*
X520649D01*
X522199Y420950D02*
Y422150D01*
X552050Y445000D02*
X550850D01*
X549300Y447750D02*
Y446550D01*
X546550Y445000D02*
X547750D01*
X549300Y442250D02*
Y443450D01*
X562937Y445187D02*
X561737D01*
X560187Y447937D02*
Y446737D01*
X557437Y445187D02*
X558637D01*
X560187Y442437D02*
Y443637D01*
X576750Y445000D02*
X575550D01*
X574000Y447750D02*
Y446550D01*
X571250Y445000D02*
X572450D01*
X574000Y442250D02*
Y443450D01*
X588300Y447750D02*
Y446550D01*
X585550Y445000D02*
X586750D01*
X588300Y442250D02*
Y443450D01*
X607050Y447600D02*
Y446400D01*
X604300Y444850D02*
X605500D01*
X607050Y442100D02*
Y443300D01*
X462500Y412750D02*
Y411550D01*
X459750Y410000D02*
X460950D01*
X462500Y407250D02*
Y408450D01*
X480750Y415000D02*
X479550D01*
X478000Y417750D02*
Y416550D01*
X475250Y415000D02*
X476450D01*
X478000Y412250D02*
Y413450D01*
X553750Y490000D02*
X552550D01*
X551000Y492750D02*
Y491550D01*
X548250Y490000D02*
X549450D01*
X551000Y487250D02*
Y488450D01*
X640427Y110177D02*
X639227D01*
X637677Y112927D02*
Y111727D01*
X634927Y110177D02*
X636127D01*
X637677Y107427D02*
Y108627D01*
X615307Y109243D02*
X614107D01*
X612557Y111993D02*
Y110793D01*
X609807Y109243D02*
X611007D01*
X612557Y106493D02*
Y107693D01*
X565250Y110000D02*
X564050D01*
X562500Y112750D02*
Y111550D01*
X559750Y110000D02*
X560950D01*
X562500Y107250D02*
Y108450D01*
X530250Y110000D02*
X529050D01*
X527500Y112750D02*
Y111550D01*
X524750Y110000D02*
X525950D01*
X527500Y107250D02*
Y108450D01*
X490250Y110000D02*
X489050D01*
X487500Y112750D02*
Y111550D01*
X484750Y110000D02*
X485950D01*
X487500Y107250D02*
Y108450D01*
X465250Y110000D02*
X464050D01*
X462500Y112750D02*
Y111550D01*
X459750Y110000D02*
X460950D01*
X462500Y107250D02*
Y108450D01*
X440250Y110000D02*
X439050D01*
X437500Y112750D02*
Y111550D01*
X434750Y110000D02*
X435950D01*
X437500Y107250D02*
Y108450D01*
X615250Y490000D02*
X614050D01*
X612500Y492750D02*
Y491550D01*
X609750Y490000D02*
X610950D01*
X612500Y487250D02*
Y488450D01*
X626550Y447700D02*
X625350D01*
X623800Y450450D02*
Y449250D01*
X621050Y447700D02*
X622250D01*
X370250Y200000D02*
X369050D01*
X367500Y202750D02*
Y201550D01*
X364750Y200000D02*
X365950D01*
X367500Y197250D02*
Y198450D01*
X670250Y200000D02*
X669050D01*
X667500Y202750D02*
Y201550D01*
X664750Y200000D02*
X665950D01*
X667500Y197250D02*
Y198450D01*
X454354Y158750D02*
X453154D01*
X451604Y161500D02*
Y160300D01*
X448854Y158750D02*
X450054D01*
X451604Y156000D02*
Y157200D01*
X632750Y475000D02*
X631550D01*
X630000Y477750D02*
Y476550D01*
X627250Y475000D02*
X628450D01*
X630000Y472250D02*
Y473450D01*
X555750Y475000D02*
X554550D01*
X553000Y477750D02*
Y476550D01*
X550250Y475000D02*
X551450D01*
X553000Y472250D02*
Y473450D01*
X492653Y430301D02*
X491453D01*
X489903Y433051D02*
Y431851D01*
X487153Y430301D02*
X488353D01*
X489903Y427551D02*
Y428751D01*
X477750Y452000D02*
X476550D01*
X475000Y454750D02*
Y453550D01*
X472250Y452000D02*
X473450D01*
X475000Y449250D02*
Y450450D01*
X483850Y464800D02*
X482650D01*
X481100Y467550D02*
Y466350D01*
X478350Y464800D02*
X479550D01*
X481100Y462050D02*
Y463250D01*
X451700Y358250D02*
Y357050D01*
X448950Y355500D02*
X450150D01*
X451700Y352750D02*
Y353950D01*
X470575Y342679D02*
X469375D01*
X467825Y345429D02*
Y344229D01*
X465075Y342679D02*
X466275D01*
X467825Y339929D02*
Y341129D01*
X492807Y356187D02*
X491607D01*
X490057Y358937D02*
Y357737D01*
X487307Y356187D02*
X488507D01*
X490057Y353437D02*
Y354637D01*
X506376Y361606D02*
Y360406D01*
X503626Y358856D02*
X504826D01*
X516726Y361612D02*
X515526D01*
X513976Y364362D02*
Y363162D01*
X511226Y361612D02*
X512426D01*
X513976Y358862D02*
Y360062D01*
X530031Y355533D02*
X528831D01*
X527281Y358283D02*
Y357083D01*
X524531Y355533D02*
X525731D01*
X527281Y352783D02*
Y353983D01*
X532750Y172500D02*
X531550D01*
X530000Y175250D02*
Y174050D01*
X527250Y172500D02*
X528450D01*
X530000Y169750D02*
Y170950D01*
X560000Y343750D02*
Y342550D01*
X557250Y341000D02*
X558450D01*
X560000Y338250D02*
Y339450D01*
X372750Y455000D02*
X371550D01*
X370000Y457750D02*
Y456550D01*
X367250Y455000D02*
X368450D01*
X370000Y452250D02*
Y453450D01*
X570254Y336476D02*
X569054D01*
X567504Y339226D02*
Y338026D01*
Y333726D02*
Y334926D01*
X564754Y336476D02*
X565954D01*
X560283Y306026D02*
Y304826D01*
X557533Y303276D02*
X558733D01*
X570296Y273500D02*
X569096D01*
X567546Y276250D02*
Y275050D01*
X564796Y273500D02*
X565996D01*
X567546Y270750D02*
Y271950D01*
X560000Y269650D02*
Y268450D01*
X557250Y266900D02*
X558450D01*
X560000Y264150D02*
Y265350D01*
X565756Y252526D02*
X564556D01*
X563006Y255276D02*
Y254076D01*
X560256Y252526D02*
X561456D01*
X563006Y249776D02*
Y250976D01*
X427750Y452000D02*
X426550D01*
X425000Y454750D02*
Y453550D01*
X422250Y452000D02*
X423450D01*
X425000Y449250D02*
Y450450D01*
X526750Y222006D02*
X525550D01*
X524000Y224756D02*
Y223556D01*
X521250Y222006D02*
X522450D01*
X524000Y219256D02*
Y220456D01*
X507113Y221200D02*
X505913D01*
X501613D02*
X502813D01*
X504363Y218450D02*
Y219650D01*
X486698Y225000D02*
X485498D01*
X483948Y227750D02*
Y226550D01*
Y222250D02*
Y223450D01*
X450050Y237073D02*
X448850D01*
X447300Y239823D02*
Y238623D01*
X444550Y237073D02*
X445750D01*
X447300Y234323D02*
Y235523D01*
X432750Y240000D02*
X431550D01*
X430000Y242750D02*
Y241550D01*
X427250Y240000D02*
X428450D01*
X430000Y237250D02*
Y238450D01*
X432750Y269200D02*
X431550D01*
X430000Y271950D02*
Y270750D01*
X427250Y269200D02*
X428450D01*
X432750Y291800D02*
X431550D01*
X430000Y294550D02*
Y293350D01*
X427250Y291800D02*
X428450D01*
X430000Y289050D02*
Y290250D01*
X419789Y325539D02*
Y324339D01*
X417039Y322789D02*
X418239D01*
X419789Y320039D02*
Y321239D01*
X532750Y152500D02*
X531550D01*
X530000Y155250D02*
Y154050D01*
X527250Y152500D02*
X528450D01*
X530000Y149750D02*
Y150950D01*
X377350Y433300D02*
X376150D01*
X374600Y436050D02*
Y434850D01*
X371850Y433300D02*
X373050D01*
X374600Y430550D02*
Y431750D01*
X567317Y161934D02*
X566117D01*
X561817D02*
X563017D01*
X566063Y177874D02*
X564863D01*
X563313Y180624D02*
Y179424D01*
X560563Y177874D02*
X561763D01*
X563313Y175124D02*
Y176324D01*
X593650Y190983D02*
X592450D01*
X590900Y193733D02*
Y192533D01*
X588150Y190983D02*
X589350D01*
X590900Y188233D02*
Y189433D01*
X574883Y141287D02*
X573683D01*
X572133Y144037D02*
Y142837D01*
Y138537D02*
Y139737D01*
X609223Y194397D02*
Y193197D01*
X606473Y191647D02*
X607673D01*
X609223Y188897D02*
Y190097D01*
X614472Y167278D02*
X613272D01*
X611722Y170028D02*
Y168828D01*
X608972Y167278D02*
X610172D01*
X611722Y164528D02*
Y165728D01*
X614327Y147723D02*
X613127D01*
X611577Y150473D02*
Y149273D01*
X608827Y147723D02*
X610027D01*
X611577Y144973D02*
Y146173D01*
X599500Y130250D02*
Y129050D01*
X596750Y127500D02*
X597950D01*
X599500Y124750D02*
Y125950D01*
G54D36*
X473780Y485000D03*
G54D38*
X115000D03*
Y115000D03*
X400000Y485000D03*
Y115000D03*
X685000Y485000D03*
Y115000D03*
G54D46*
X123800Y159700D03*
X145000Y230000D03*
X162000Y265000D03*
X139000Y276000D03*
X164000Y278000D03*
X138000Y290000D03*
X164000Y298000D03*
X149000Y302000D03*
X165000Y307000D03*
X153000Y335000D03*
X165000Y363000D03*
Y418000D03*
X153000Y480000D03*
X170000Y105000D03*
X345000Y113000D03*
X487500Y110000D03*
X437500D03*
X462500D03*
X562500D03*
X527500D03*
X637677Y110177D03*
X612557Y109243D03*
X124000Y137000D03*
X133000Y150000D03*
X180000Y193000D03*
X226000Y122000D03*
X215000Y120000D03*
X203000Y150000D03*
X228000Y185000D03*
X278000Y150000D03*
X306000Y122000D03*
X285000Y120000D03*
X325000Y170000D03*
X387500Y187500D03*
X348000Y160000D03*
X420000Y172000D03*
X437000Y198000D03*
X452800Y180235D03*
X451604Y158750D03*
X458224Y140650D03*
X497912Y149100D03*
X491187Y188000D03*
X482700Y138424D03*
X479399Y187700D03*
X497500Y170626D03*
X473519Y188500D03*
X432500Y130000D03*
X502500Y132806D03*
X540500Y167500D03*
X530000Y172500D03*
Y152500D03*
X572133Y141287D03*
X563313Y177874D03*
X564567Y161934D03*
X500402Y144932D03*
X649000Y141000D03*
X646000Y195000D03*
X599500Y127500D03*
X609223Y191647D03*
X590900Y190983D03*
X584300Y190800D03*
X611722Y167278D03*
X611300Y140900D03*
X611577Y147723D03*
X189000Y222000D03*
X233000Y249000D03*
X232000Y275000D03*
Y265000D03*
X212000Y215000D03*
X319000Y256300D03*
X331000Y260000D03*
X263100Y230900D03*
X263000Y245000D03*
Y265000D03*
X330000Y200000D03*
X318000Y205000D03*
X305000Y242000D03*
X273000Y235000D03*
X305000Y213000D03*
X367000Y279000D03*
X365000Y262000D03*
X385000Y228000D03*
X367500Y200000D03*
X392000Y262000D03*
X349000Y279000D03*
X494830Y225044D03*
X483948Y225000D03*
X465548Y225015D03*
X430000Y269200D03*
X447300Y237073D03*
X430000Y240000D03*
X514000Y258000D03*
X504363Y221200D03*
X537262Y224636D03*
X567546Y273500D03*
X560000Y266900D03*
X563006Y252526D03*
X524000Y222006D03*
X589000Y237000D03*
X646000Y220000D03*
X628500Y247000D03*
X629100Y227300D03*
X684146Y263500D03*
X667500Y200000D03*
X232000Y295000D03*
Y285000D03*
X218000Y325000D03*
X235000Y353000D03*
X245000D03*
X185000D03*
X215000D03*
X302000Y299000D03*
X317000Y315000D03*
X316000Y296000D03*
X336000Y323000D03*
X281000Y320000D03*
X335000Y281000D03*
X315000D03*
X263000Y285000D03*
Y340000D03*
X265000Y353000D03*
X417000Y311000D03*
X395000Y296000D03*
X389000Y342000D03*
X349730Y292270D03*
X419789Y322789D03*
X381231Y336877D03*
X376200Y294000D03*
X350000Y347000D03*
X467825Y342679D03*
X490057Y356187D03*
X451700Y355500D03*
X430000Y291800D03*
X504000Y302000D03*
X519000Y303000D03*
X560000Y341000D03*
X506376Y358856D03*
X567504Y336476D03*
X560283Y303276D03*
X548087Y352400D03*
X527281Y355533D03*
X608300Y356346D03*
X641279Y318925D03*
X656000Y312300D03*
X636300Y359696D03*
X637721Y295506D03*
X601700Y299690D03*
X584177Y328514D03*
X215000Y415000D03*
X235000Y410000D03*
X201000Y425000D03*
X285000Y391000D03*
X270000Y425000D03*
X361000Y389000D03*
X363000Y424000D03*
X369000Y408000D03*
X371000Y393000D03*
X375000Y365000D03*
X374600Y433300D03*
X349000Y360000D03*
X489903Y430301D03*
X462500Y410000D03*
X478000Y404000D03*
Y415000D03*
X568668Y384000D03*
X534341Y388215D03*
X522199Y423700D03*
X527267Y404887D03*
X513976Y361612D03*
X612000Y438400D03*
Y421000D03*
X596136Y361990D03*
X593298Y384152D03*
X194000Y440000D03*
X285000Y448000D03*
X370000Y455000D03*
X348000Y450000D03*
Y480000D03*
X355000Y465000D03*
X492500Y487500D03*
Y482500D03*
Y477500D03*
X442200Y475100D03*
X443200Y465000D03*
X481100Y464800D03*
X425000Y452000D03*
X475000D03*
X574000Y445000D03*
X560187Y445187D03*
X549300Y445000D03*
X533000Y465000D03*
X551000Y490000D03*
X553000Y475000D03*
X623800Y447700D03*
X630000Y475000D03*
X612500Y490000D03*
X607050Y444850D03*
X588300Y445000D03*
X669440Y475150D03*
G54D51*
X368170Y315060D02*
X351530D01*
G74*
X0Y0D02*
M02*
