%
T1C.02F197S55
X0595Y0186
X0601Y02
X0601Y0227
X061Y022
X061Y018
X0601Y0257
X0601Y0275
T2C.033F197S55
X012Y016
X012Y015
X012Y014
X018Y016
X018Y015
X018Y014
X02Y016
X02Y015
X02Y014
X026Y014
X026Y016
X026Y015
X028Y016
X028Y015
X028Y014
X034Y016
X034Y015
X034Y014
X036Y016
X036Y015
X036Y014
X042Y016
X042Y015
X042Y014
X044Y016
X044Y015
X044Y014
X05Y016
X05Y015
X05Y014
X052Y016
X052Y015
X052Y014
X058Y014
X058Y016
X058Y015
X0622Y0121
X0618Y0186
X058Y018
X058Y017
X052Y018
X052Y017
X05Y018
X05Y017
X044Y017
X044Y018
X042Y018
X042Y017
X036Y018
X036Y017
X034Y018
X034Y017
X028Y018
X028Y017
X026Y018
X026Y017
X02Y018
X02Y017
X018Y018
X018Y017
X012Y018
X012Y017
X012Y021
X012Y02
X012Y019
X018Y021
X018Y02
X018Y019
X02Y021
X02Y02
X02Y019
X026Y021
X026Y02
X026Y019
X028Y021
X028Y02
X028Y019
X034Y021
X034Y02
X034Y019
X036Y021
X036Y02
X036Y019
X042Y021
X042Y02
X042Y019
X044Y021
X044Y02
X044Y019
X05Y021
X05Y02
X05Y019
X052Y021
X052Y02
X052Y019
X058Y021
X058Y02
X058Y019
X0618Y0216
X058Y023
X058Y022
X052Y023
X052Y022
X05Y022
X05Y023
X044Y022
X044Y023
X042Y023
X042Y022
X036Y023
X036Y022
X034Y023
X034Y022
X028Y023
X028Y022
X026Y023
X026Y022
X02Y022
X02Y023
X018Y023
X018Y022
X012Y022
X012Y023
X012Y026
X012Y025
X012Y024
X018Y026
X018Y025
X018Y024
X02Y026
X02Y025
X02Y024
X026Y026
X026Y025
X026Y024
X028Y026
X028Y025
X028Y024
X034Y026
X034Y025
X034Y024
X036Y026
X036Y025
X036Y024
X042Y026
X042Y025
X042Y024
X044Y025
X044Y024
X044Y026
X05Y026
X05Y025
X05Y024
X052Y026
X052Y025
X052Y024
X058Y025
X058Y024
X058Y026
X0618Y0242
X0618Y0257
X0618Y0273
X058Y028
X058Y027
X052Y028
X052Y027
X05Y027
X05Y028
X044Y028
X044Y027
X042Y028
X042Y027
X036Y028
X036Y027
X034Y028
X034Y027
X028Y028
X028Y027
X026Y028
X026Y027
X02Y028
X02Y027
X018Y028
X018Y027
X012Y028
X012Y027
X012Y031
X012Y03
X012Y029
X018Y031
X018Y03
X018Y029
X02Y029
X02Y031
X02Y03
X026Y031
X026Y029
X026Y03
X028Y031
X028Y03
X028Y029
X034Y031
X034Y03
X034Y029
X036Y031
X036Y03
X036Y029
X042Y031
X042Y03
X042Y029
X044Y031
X044Y03
X044Y029
X05Y029
X05Y031
X05Y03
X052Y03
X052Y029
X052Y031
X058Y029
X058Y031
X058Y03
X058Y033
X058Y032
X052Y033
X052Y032
X05Y033
X05Y032
X044Y033
X044Y032
X042Y033
X042Y032
X036Y033
X036Y032
X034Y033
X034Y032
X028Y032
X028Y033
X026Y033
X026Y032
X02Y033
X02Y032
X018Y032
X018Y033
X012Y032
X012Y033
X012Y036
X012Y035
X012Y034
X018Y035
X018Y036
X018Y034
X02Y034
X02Y035
X02Y036
X026Y036
X026Y035
X026Y034
X028Y034
X028Y036
X028Y035
X034Y036
X034Y035
X034Y034
X036Y036
X036Y035
X036Y034
X042Y036
X042Y035
X042Y034
X044Y035
X044Y034
X044Y036
X05Y034
X05Y035
X05Y036
X052Y034
X052Y036
X052Y035
X058Y036
X058Y034
X058Y035
X058Y038
X058Y037
X052Y038
X052Y037
X05Y038
X05Y037
X044Y038
X044Y037
X042Y038
X042Y037
X036Y038
X036Y037
X034Y037
X034Y038
X028Y037
X028Y038
X026Y037
X026Y038
X02Y037
X02Y038
X018Y038
X018Y037
X012Y038
X012Y037
X012Y041
X012Y04
X012Y039
X018Y041
X018Y04
X018Y039
X02Y04
X02Y039
X02Y041
X026Y04
X026Y039
X026Y041
X028Y04
X028Y039
X028Y041
X034Y041
X034Y04
X034Y039
X036Y039
X036Y041
X036Y04
X042Y039
X042Y041
X042Y04
X044Y04
X044Y041
X044Y039
X05Y039
X05Y041
X05Y04
X052Y041
X052Y04
X052Y039
X058Y039
X058Y04
X058Y041
X058Y043
X058Y042
X052Y042
X052Y043
X05Y043
X05Y042
X044Y043
X044Y042
X042Y043
X042Y042
X036Y043
X036Y042
X034Y043
X034Y042
X028Y043
X028Y042
X026Y043
X026Y042
X02Y042
X02Y043
X018Y042
X018Y043
X012Y043
X012Y042
X012Y045
X012Y044
X018Y045
X018Y044
X02Y045
X02Y044
X026Y045
X026Y044
X028Y045
X028Y044
X034Y044
X034Y045
X036Y044
X036Y045
X042Y045
X042Y044
X044Y045
X044Y044
X05Y044
X05Y045
X052Y045
X052Y044
X058Y044
X058Y045
X0595Y046
X064Y048
X063Y048
T3C.037F197S55
X014Y016
X014Y015
X014Y014
X015Y016
X015Y015
X015Y014
X016Y014
X016Y015
X016Y016
X022Y016
X022Y015
X022Y014
X023Y016
X023Y015
X023Y014
X024Y014
X024Y015
X024Y016
X03Y016
X03Y015
X03Y014
X031Y016
X031Y015
X031Y014
X032Y016
X032Y015
X032Y014
X038Y016
X038Y015
X038Y014
X039Y016
X039Y015
X039Y014
X04Y016
X04Y015
X04Y014
X046Y016
X046Y015
X046Y014
X047Y015
X047Y014
X047Y016
X048Y015
X048Y014
X048Y016
X054Y015
X054Y016
X054Y014
X055Y015
X055Y014
X055Y016
X056Y015
X056Y014
X056Y016
X0634Y0145
X0634Y0125
X0634Y0155
X0634Y0135
X0634Y0175
X0634Y0165
X056Y018
X056Y017
X055Y018
X055Y017
X054Y018
X054Y017
X048Y018
X048Y017
X047Y018
X047Y017
X046Y018
X046Y017
X04Y018
X04Y017
X039Y018
X039Y017
X038Y018
X038Y017
X032Y018
X032Y017
X031Y018
X031Y017
X03Y018
X03Y017
X024Y018
X024Y017
X023Y018
X023Y017
X022Y018
X022Y017
X016Y018
X016Y017
X015Y018
X015Y017
X014Y018
X014Y017
X014Y021
X014Y02
X014Y019
X015Y019
X015Y021
X015Y02
X016Y021
X016Y02
X016Y019
X022Y021
X022Y02
X022Y019
X023Y021
X023Y02
X023Y019
X024Y021
X024Y02
X024Y019
X03Y021
X03Y02
X03Y019
X031Y021
X031Y02
X031Y019
X032Y021
X032Y02
X032Y019
X038Y021
X038Y02
X038Y019
X039Y021
X039Y02
X039Y019
X04Y021
X04Y02
X04Y019
X046Y02
X046Y019
X046Y021
X047Y021
X047Y02
X047Y019
X048Y019
X048Y021
X048Y02
X054Y021
X054Y02
X054Y019
X055Y019
X055Y021
X055Y02
X056Y019
X056Y02
X056Y021
X056Y023
X056Y022
X055Y023
X055Y022
X054Y023
X054Y022
X048Y023
X048Y022
X047Y022
X047Y023
X046Y023
X046Y022
X04Y023
X04Y022
X039Y023
X039Y022
X038Y023
X038Y022
X032Y023
X032Y022
X031Y023
X031Y022
X03Y023
X03Y022
X024Y023
X024Y022
X023Y023
X023Y022
X022Y023
X022Y022
X016Y023
X016Y022
X015Y023
X015Y022
X014Y022
X014Y023
X014Y026
X014Y025
X014Y024
X015Y026
X015Y025
X015Y024
X016Y026
X016Y025
X016Y024
X022Y026
X022Y025
X022Y024
X023Y026
X023Y025
X023Y024
X024Y024
X024Y026
X024Y025
X03Y026
X03Y025
X03Y024
X031Y026
X031Y025
X031Y024
X032Y026
X032Y025
X032Y024
X038Y026
X038Y025
X038Y024
X039Y026
X039Y025
X039Y024
X04Y026
X04Y025
X04Y024
X046Y026
X046Y025
X046Y024
X047Y025
X047Y024
X047Y026
X048Y024
X048Y026
X048Y025
X054Y025
X054Y026
X054Y024
X055Y026
X055Y024
X055Y025
X056Y024
X056Y025
X056Y026
X056Y028
X056Y027
X055Y028
X055Y027
X054Y028
X054Y027
X048Y028
X048Y027
X047Y028
X047Y027
X046Y028
X046Y027
X04Y028
X04Y027
X039Y028
X039Y027
X038Y028
X038Y027
X032Y028
X032Y027
X031Y027
X031Y028
X03Y027
X03Y028
X024Y028
X024Y027
X023Y028
X023Y027
X022Y028
X022Y027
X016Y028
X016Y027
X015Y028
X015Y027
X014Y028
X014Y027
X014Y031
X014Y03
X014Y029
X015Y031
X015Y03
X015Y029
X016Y029
X016Y031
X016Y03
X022Y031
X022Y03
X022Y029
X023Y031
X023Y03
X023Y029
X024Y03
X024Y029
X024Y031
X03Y031
X03Y03
X03Y029
X031Y031
X031Y03
X031Y029
X032Y031
X032Y03
X032Y029
X038Y031
X038Y03
X038Y029
X039Y031
X039Y03
X039Y029
X04Y031
X04Y03
X04Y029
X046Y031
X046Y03
X046Y029
X047Y029
X047Y031
X047Y03
X048Y031
X048Y03
X048Y029
X054Y029
X054Y03
X054Y031
X055Y03
X055Y031
X055Y029
X056Y03
X056Y029
X056Y031
X056Y033
X056Y032
X055Y033
X055Y032
X054Y033
X054Y032
X048Y033
X048Y032
X047Y033
X047Y032
X046Y033
X046Y032
X04Y033
X04Y032
X039Y033
X039Y032
X038Y033
X038Y032
X032Y033
X032Y032
X031Y033
X031Y032
X03Y033
X03Y032
X024Y033
X024Y032
X023Y033
X023Y032
X022Y033
X022Y032
X016Y033
X016Y032
X015Y033
X015Y032
X014Y033
X014Y032
X014Y034
X014Y036
X014Y035
X015Y036
X015Y035
X015Y034
X016Y034
X016Y036
X016Y035
X022Y035
X022Y034
X022Y036
X023Y036
X023Y035
X023Y034
X024Y036
X024Y035
X024Y034
X03Y036
X03Y035
X03Y034
X031Y036
X031Y035
X031Y034
X032Y034
X032Y036
X032Y035
X038Y036
X038Y035
X038Y034
X039Y036
X039Y035
X039Y034
X04Y034
X04Y036
X04Y035
X046Y035
X046Y036
X046Y034
X047Y036
X047Y035
X047Y034
X048Y034
X048Y035
X048Y036
X054Y035
X054Y034
X054Y036
X055Y034
X055Y035
X055Y036
X056Y036
X056Y035
X056Y034
X056Y038
X056Y037
X055Y038
X055Y037
X054Y038
X054Y037
X048Y037
X048Y038
X047Y038
X047Y037
X046Y038
X046Y037
X04Y038
X04Y037
X039Y038
X039Y037
X038Y038
X038Y037
X032Y038
X032Y037
X031Y037
X031Y038
X03Y038
X03Y037
X024Y037
X024Y038
X023Y038
X023Y037
X022Y037
X022Y038
X016Y038
X016Y037
X015Y038
X015Y037
X014Y038
X014Y037
X014Y041
X014Y04
X014Y039
X015Y041
X015Y04
X015Y039
X016Y041
X016Y04
X016Y039
X022Y039
X022Y041
X022Y04
X023Y04
X023Y039
X023Y041
X024Y041
X024Y039
X024Y04
X03Y04
X03Y039
X03Y041
X031Y04
X031Y041
X031Y039
X032Y04
X032Y041
X032Y039
X038Y041
X038Y04
X038Y039
X039Y041
X039Y04
X039Y039
X04Y039
X04Y041
X04Y04
X046Y04
X046Y039
X046Y041
X047Y039
X047Y041
X047Y04
X048Y04
X048Y041
X048Y039
X054Y04
X054Y041
X054Y039
X055Y039
X055Y041
X055Y04
X056Y039
X056Y041
X056Y04
X056Y042
X056Y043
X055Y043
X055Y042
X054Y042
X054Y043
X048Y043
X048Y042
X047Y042
X047Y043
X046Y042
X046Y043
X04Y042
X04Y043
X039Y043
X039Y042
X038Y043
X038Y042
X032Y043
X032Y042
X031Y043
X031Y042
X03Y042
X03Y043
X024Y043
X024Y042
X023Y042
X023Y043
X022Y042
X022Y043
X016Y042
X016Y043
X015Y042
X015Y043
X014Y043
X014Y042
X014Y044
X014Y045
X015Y044
X015Y045
X016Y045
X016Y044
X022Y044
X022Y045
X023Y044
X023Y045
X024Y045
X024Y044
X03Y045
X03Y044
X031Y045
X031Y044
X032Y044
X032Y045
X038Y045
X038Y044
X039Y044
X039Y045
X04Y044
X04Y045
X046Y045
X046Y044
X047Y045
X047Y044
X048Y045
X048Y044
X054Y045
X054Y044
X055Y045
X055Y044
X056Y044
X056Y045
T4C.045F139S55
X0602Y0135
X0622Y0135
T5C.055F107S55
X061Y03015
X061Y03345
X061Y0318
X06317Y03015
X06317Y0318
X06317Y03345
X06317Y0351
X06317Y03675
X06317Y0384
X06317Y04005
X061Y0351
X061Y03675
X061Y04005
X061Y0384
X061Y04335
X061Y0417
X06106Y04496
X06317Y04335
X06317Y0417
X06317Y045
T6C.118F069S658
X06299Y0283
X06299Y04685
T7C.125F035S794
X0115Y0115
X015Y01179
X023Y01179
X031Y01179
X039Y01179
X047Y01179
X055Y01179
X06Y0115
X06Y048
X055Y04722
X047Y04722
X039Y04722
X031Y04722
X023Y04722
X015Y04722
X0115Y048
M30
