*
*
G04 PADS Layout (Build Number 2005.266.2) generated Gerber (RS-274-X) file*
G04 PC Version=2.1*
*
%IN "atlas_2.pcb"*%
*
%MOIN*%
*
%FSLAX35Y35*%
*
*
*
*
G04 PC Standard Apertures*
*
*
G04 Thermal Relief Aperture macro.*
%AMTER*
1,1,$1,0,0*
1,0,$1-$2,0,0*
21,0,$3,$4,0,0,45*
21,0,$3,$4,0,0,135*
%
*
*
G04 Annular Aperture macro.*
%AMANN*
1,1,$1,0,0*
1,0,$2,0,0*
%
*
*
G04 Odd Aperture macro.*
%AMODD*
1,1,$1,0,0*
1,0,$1-0.005,0,0*
%
*
*
G04 PC Custom Aperture Macros*
*
*
*
*
*
*
G04 PC Aperture Table*
*
%ADD011C,0.06*%
%ADD013C,0.12*%
%ADD015C,0.1*%
%ADD017C,0.118*%
%ADD019C,0.01*%
%ADD022C,0.04*%
%ADD023C,0.045*%
%ADD024C,0.11*%
%ADD026C,0.015*%
%ADD028C,0.025*%
%ADD039C,0.19*%
*
*
*
*
G04 PC Copper Outlines (0)*
G04 Layer Name atlas_2.pcb - dark (0)*
%LPD*%
*
*
G04 PC Area=Custom_Thermal*
*
G04 PC Custom Flashes*
G04 Layer Name atlas_2.pcb - flashes*
%LPD*%
*
*
G04 PC Circuitry*
G04 Layer Name atlas_2.pcb - circuitry*
%LPD*%
*
G54D11*
G01X160000Y450000D03*
Y440000D03*
Y430000D03*
Y420000D03*
Y410000D03*
Y400000D03*
Y390000D03*
Y380000D03*
Y370000D03*
Y360000D03*
Y350000D03*
Y340000D03*
Y330000D03*
Y320000D03*
Y310000D03*
Y300000D03*
Y290000D03*
Y280000D03*
Y270000D03*
Y260000D03*
Y250000D03*
Y240000D03*
Y230000D03*
Y220000D03*
Y210000D03*
Y200000D03*
Y190000D03*
Y180000D03*
Y170000D03*
Y160000D03*
Y150000D03*
Y140000D03*
X150000Y450000D03*
Y440000D03*
Y430000D03*
Y420000D03*
Y410000D03*
Y400000D03*
Y390000D03*
Y380000D03*
Y370000D03*
Y360000D03*
Y350000D03*
Y340000D03*
Y330000D03*
Y320000D03*
Y310000D03*
Y300000D03*
Y290000D03*
Y280000D03*
Y270000D03*
Y260000D03*
Y250000D03*
Y240000D03*
Y230000D03*
Y220000D03*
Y210000D03*
Y200000D03*
Y190000D03*
Y180000D03*
Y170000D03*
Y160000D03*
Y150000D03*
Y140000D03*
X140000Y450000D03*
Y440000D03*
Y430000D03*
Y420000D03*
Y410000D03*
Y400000D03*
Y390000D03*
Y380000D03*
Y370000D03*
Y360000D03*
Y350000D03*
Y340000D03*
Y330000D03*
Y320000D03*
Y310000D03*
Y300000D03*
Y290000D03*
Y280000D03*
Y270000D03*
Y260000D03*
Y250000D03*
Y240000D03*
Y230000D03*
Y220000D03*
Y210000D03*
Y200000D03*
Y190000D03*
Y180000D03*
Y170000D03*
Y160000D03*
Y150000D03*
Y140000D03*
X240000Y450000D03*
Y440000D03*
Y430000D03*
Y420000D03*
Y410000D03*
Y400000D03*
Y390000D03*
Y380000D03*
Y370000D03*
Y360000D03*
Y350000D03*
Y340000D03*
Y330000D03*
Y320000D03*
Y310000D03*
Y300000D03*
Y290000D03*
Y280000D03*
Y270000D03*
Y260000D03*
Y250000D03*
Y240000D03*
Y230000D03*
Y220000D03*
Y210000D03*
Y200000D03*
Y190000D03*
Y180000D03*
Y170000D03*
Y160000D03*
Y150000D03*
Y140000D03*
X230000Y450000D03*
Y440000D03*
Y430000D03*
Y420000D03*
Y410000D03*
Y400000D03*
Y390000D03*
Y380000D03*
Y370000D03*
Y360000D03*
Y350000D03*
Y340000D03*
Y330000D03*
Y320000D03*
Y310000D03*
Y300000D03*
Y290000D03*
Y280000D03*
Y270000D03*
Y260000D03*
Y250000D03*
Y240000D03*
Y230000D03*
Y220000D03*
Y210000D03*
Y200000D03*
Y190000D03*
Y180000D03*
Y170000D03*
Y160000D03*
Y150000D03*
Y140000D03*
X220000Y450000D03*
Y440000D03*
Y430000D03*
Y420000D03*
Y410000D03*
Y400000D03*
Y390000D03*
Y380000D03*
Y370000D03*
Y360000D03*
Y350000D03*
Y340000D03*
Y330000D03*
Y320000D03*
Y310000D03*
Y300000D03*
Y290000D03*
Y280000D03*
Y270000D03*
Y260000D03*
Y250000D03*
Y240000D03*
Y230000D03*
Y220000D03*
Y210000D03*
Y200000D03*
Y190000D03*
Y180000D03*
Y170000D03*
Y160000D03*
Y150000D03*
Y140000D03*
X200000Y450000D03*
Y440000D03*
Y430000D03*
Y420000D03*
Y410000D03*
Y400000D03*
Y390000D03*
Y380000D03*
Y370000D03*
Y360000D03*
Y350000D03*
Y340000D03*
Y330000D03*
Y320000D03*
Y310000D03*
Y300000D03*
Y290000D03*
Y280000D03*
Y270000D03*
Y260000D03*
Y250000D03*
Y240000D03*
Y230000D03*
Y220000D03*
Y210000D03*
Y200000D03*
Y190000D03*
Y180000D03*
Y170000D03*
Y160000D03*
Y150000D03*
Y140000D03*
X260000Y450000D03*
Y440000D03*
Y430000D03*
Y420000D03*
Y410000D03*
Y400000D03*
Y390000D03*
Y380000D03*
Y370000D03*
Y360000D03*
Y350000D03*
Y340000D03*
Y330000D03*
Y320000D03*
Y310000D03*
Y300000D03*
Y290000D03*
Y280000D03*
Y270000D03*
Y260000D03*
Y250000D03*
Y240000D03*
Y230000D03*
Y220000D03*
Y210000D03*
Y200000D03*
Y190000D03*
Y180000D03*
Y170000D03*
Y160000D03*
Y150000D03*
Y140000D03*
X120000Y450000D03*
Y440000D03*
Y430000D03*
Y420000D03*
Y410000D03*
Y400000D03*
Y390000D03*
Y380000D03*
Y370000D03*
Y360000D03*
Y350000D03*
Y340000D03*
Y330000D03*
Y320000D03*
Y310000D03*
Y300000D03*
Y290000D03*
Y280000D03*
Y270000D03*
Y260000D03*
Y250000D03*
Y240000D03*
Y230000D03*
Y220000D03*
Y210000D03*
Y200000D03*
Y190000D03*
Y180000D03*
Y170000D03*
Y160000D03*
Y150000D03*
Y140000D03*
X180000Y450000D03*
Y440000D03*
Y430000D03*
Y420000D03*
Y410000D03*
Y400000D03*
Y390000D03*
Y380000D03*
Y370000D03*
Y360000D03*
Y350000D03*
Y340000D03*
Y330000D03*
Y320000D03*
Y310000D03*
Y300000D03*
Y290000D03*
Y280000D03*
Y270000D03*
Y260000D03*
Y250000D03*
Y240000D03*
Y230000D03*
Y220000D03*
Y210000D03*
Y200000D03*
Y190000D03*
Y180000D03*
Y170000D03*
Y160000D03*
Y150000D03*
Y140000D03*
X320000Y450000D03*
Y440000D03*
Y430000D03*
Y420000D03*
Y410000D03*
Y400000D03*
Y390000D03*
Y380000D03*
Y370000D03*
Y360000D03*
Y350000D03*
Y340000D03*
Y330000D03*
Y320000D03*
Y310000D03*
Y300000D03*
Y290000D03*
Y280000D03*
Y270000D03*
Y260000D03*
Y250000D03*
Y240000D03*
Y230000D03*
Y220000D03*
Y210000D03*
Y200000D03*
Y190000D03*
Y180000D03*
Y170000D03*
Y160000D03*
Y150000D03*
Y140000D03*
X310000Y450000D03*
Y440000D03*
Y430000D03*
Y420000D03*
Y410000D03*
Y400000D03*
Y390000D03*
Y380000D03*
Y370000D03*
Y360000D03*
Y350000D03*
Y340000D03*
Y330000D03*
Y320000D03*
Y310000D03*
Y300000D03*
Y290000D03*
Y280000D03*
Y270000D03*
Y260000D03*
Y250000D03*
Y240000D03*
Y230000D03*
Y220000D03*
Y210000D03*
Y200000D03*
Y190000D03*
Y180000D03*
Y170000D03*
Y160000D03*
Y150000D03*
Y140000D03*
X300000Y450000D03*
Y440000D03*
Y430000D03*
Y420000D03*
Y410000D03*
Y400000D03*
Y390000D03*
Y380000D03*
Y370000D03*
Y360000D03*
Y350000D03*
Y340000D03*
Y330000D03*
Y320000D03*
Y310000D03*
Y300000D03*
Y290000D03*
Y280000D03*
Y270000D03*
Y260000D03*
Y250000D03*
Y240000D03*
Y230000D03*
Y220000D03*
Y210000D03*
Y200000D03*
Y190000D03*
Y180000D03*
Y170000D03*
Y160000D03*
Y150000D03*
Y140000D03*
X280000Y450000D03*
Y440000D03*
Y430000D03*
Y420000D03*
Y410000D03*
Y400000D03*
Y390000D03*
Y380000D03*
Y370000D03*
Y360000D03*
Y350000D03*
Y340000D03*
Y330000D03*
Y320000D03*
Y310000D03*
Y300000D03*
Y290000D03*
Y280000D03*
Y270000D03*
Y260000D03*
Y250000D03*
Y240000D03*
Y230000D03*
Y220000D03*
Y210000D03*
Y200000D03*
Y190000D03*
Y180000D03*
Y170000D03*
Y160000D03*
Y150000D03*
Y140000D03*
X340000Y450000D03*
Y440000D03*
Y430000D03*
Y420000D03*
Y410000D03*
Y400000D03*
Y390000D03*
Y380000D03*
Y370000D03*
Y360000D03*
Y350000D03*
Y340000D03*
Y330000D03*
Y320000D03*
Y310000D03*
Y300000D03*
Y290000D03*
Y280000D03*
Y270000D03*
Y260000D03*
Y250000D03*
Y240000D03*
Y230000D03*
Y220000D03*
Y210000D03*
Y200000D03*
Y190000D03*
Y180000D03*
Y170000D03*
Y160000D03*
Y150000D03*
Y140000D03*
X400000Y450000D03*
Y440000D03*
Y430000D03*
Y420000D03*
Y410000D03*
Y400000D03*
Y390000D03*
Y380000D03*
Y370000D03*
Y360000D03*
Y350000D03*
Y340000D03*
Y330000D03*
Y320000D03*
Y310000D03*
Y300000D03*
Y290000D03*
Y280000D03*
Y270000D03*
Y260000D03*
Y250000D03*
Y240000D03*
Y230000D03*
Y220000D03*
Y210000D03*
Y200000D03*
Y190000D03*
Y180000D03*
Y170000D03*
Y160000D03*
Y150000D03*
Y140000D03*
X390000Y450000D03*
Y440000D03*
Y430000D03*
Y420000D03*
Y410000D03*
Y400000D03*
Y390000D03*
Y380000D03*
Y370000D03*
Y360000D03*
Y350000D03*
Y340000D03*
Y330000D03*
Y320000D03*
Y310000D03*
Y300000D03*
Y290000D03*
Y280000D03*
Y270000D03*
Y260000D03*
Y250000D03*
Y240000D03*
Y230000D03*
Y220000D03*
Y210000D03*
Y200000D03*
Y190000D03*
Y180000D03*
Y170000D03*
Y160000D03*
Y150000D03*
Y140000D03*
X380000Y450000D03*
Y440000D03*
Y430000D03*
Y420000D03*
Y410000D03*
Y400000D03*
Y390000D03*
Y380000D03*
Y370000D03*
Y360000D03*
Y350000D03*
Y340000D03*
Y330000D03*
Y320000D03*
Y310000D03*
Y300000D03*
Y290000D03*
Y280000D03*
Y270000D03*
Y260000D03*
Y250000D03*
Y240000D03*
Y230000D03*
Y220000D03*
Y210000D03*
Y200000D03*
Y190000D03*
Y180000D03*
Y170000D03*
Y160000D03*
Y150000D03*
Y140000D03*
X360000Y450000D03*
Y440000D03*
Y430000D03*
Y420000D03*
Y410000D03*
Y400000D03*
Y390000D03*
Y380000D03*
Y370000D03*
Y360000D03*
Y350000D03*
Y340000D03*
Y330000D03*
Y320000D03*
Y310000D03*
Y300000D03*
Y290000D03*
Y280000D03*
Y270000D03*
Y260000D03*
Y250000D03*
Y240000D03*
Y230000D03*
Y220000D03*
Y210000D03*
Y200000D03*
Y190000D03*
Y180000D03*
Y170000D03*
Y160000D03*
Y150000D03*
Y140000D03*
X420000Y450000D03*
Y440000D03*
Y430000D03*
Y420000D03*
Y410000D03*
Y400000D03*
Y390000D03*
Y380000D03*
Y370000D03*
Y360000D03*
Y350000D03*
Y340000D03*
Y330000D03*
Y320000D03*
Y310000D03*
Y300000D03*
Y290000D03*
Y280000D03*
Y270000D03*
Y260000D03*
Y250000D03*
Y240000D03*
Y230000D03*
Y220000D03*
Y210000D03*
Y200000D03*
Y190000D03*
Y180000D03*
Y170000D03*
Y160000D03*
Y150000D03*
Y140000D03*
X480000Y450000D03*
Y440000D03*
Y430000D03*
Y420000D03*
Y410000D03*
Y400000D03*
Y390000D03*
Y380000D03*
Y370000D03*
Y360000D03*
Y350000D03*
Y340000D03*
Y330000D03*
Y320000D03*
Y310000D03*
Y300000D03*
Y290000D03*
Y280000D03*
Y270000D03*
Y260000D03*
Y250000D03*
Y240000D03*
Y230000D03*
Y220000D03*
Y210000D03*
Y200000D03*
Y190000D03*
Y180000D03*
Y170000D03*
Y160000D03*
Y150000D03*
Y140000D03*
X470000Y450000D03*
Y440000D03*
Y430000D03*
Y420000D03*
Y410000D03*
Y400000D03*
Y390000D03*
Y380000D03*
Y370000D03*
Y360000D03*
Y350000D03*
Y340000D03*
Y330000D03*
Y320000D03*
Y310000D03*
Y300000D03*
Y290000D03*
Y280000D03*
Y270000D03*
Y260000D03*
Y250000D03*
Y240000D03*
Y230000D03*
Y220000D03*
Y210000D03*
Y200000D03*
Y190000D03*
Y180000D03*
Y170000D03*
Y160000D03*
Y150000D03*
Y140000D03*
X460000Y450000D03*
Y440000D03*
Y430000D03*
Y420000D03*
Y410000D03*
Y400000D03*
Y390000D03*
Y380000D03*
Y370000D03*
Y360000D03*
Y350000D03*
Y340000D03*
Y330000D03*
Y320000D03*
Y310000D03*
Y300000D03*
Y290000D03*
Y280000D03*
Y270000D03*
Y260000D03*
Y250000D03*
Y240000D03*
Y230000D03*
Y220000D03*
Y210000D03*
Y200000D03*
Y190000D03*
Y180000D03*
Y170000D03*
Y160000D03*
Y150000D03*
Y140000D03*
X440000Y450000D03*
Y440000D03*
Y430000D03*
Y420000D03*
Y410000D03*
Y400000D03*
Y390000D03*
Y380000D03*
Y370000D03*
Y360000D03*
Y350000D03*
Y340000D03*
Y330000D03*
Y320000D03*
Y310000D03*
Y300000D03*
Y290000D03*
Y280000D03*
Y270000D03*
Y260000D03*
Y250000D03*
Y240000D03*
Y230000D03*
Y220000D03*
Y210000D03*
Y200000D03*
Y190000D03*
Y180000D03*
Y170000D03*
Y160000D03*
Y150000D03*
Y140000D03*
X500000Y450000D03*
Y440000D03*
Y430000D03*
Y420000D03*
Y410000D03*
Y400000D03*
Y390000D03*
Y380000D03*
Y370000D03*
Y360000D03*
Y350000D03*
Y340000D03*
Y330000D03*
Y320000D03*
Y310000D03*
Y300000D03*
Y290000D03*
Y280000D03*
Y270000D03*
Y260000D03*
Y250000D03*
Y240000D03*
Y230000D03*
Y220000D03*
Y210000D03*
Y200000D03*
Y190000D03*
Y180000D03*
Y170000D03*
Y160000D03*
Y150000D03*
Y140000D03*
X560000Y450000D03*
Y440000D03*
Y430000D03*
Y420000D03*
Y410000D03*
Y400000D03*
Y390000D03*
Y380000D03*
Y370000D03*
Y360000D03*
Y350000D03*
Y340000D03*
Y330000D03*
Y320000D03*
Y310000D03*
Y300000D03*
Y290000D03*
Y280000D03*
Y270000D03*
Y260000D03*
Y250000D03*
Y240000D03*
Y230000D03*
Y220000D03*
Y210000D03*
Y200000D03*
Y190000D03*
Y180000D03*
Y170000D03*
Y160000D03*
Y150000D03*
Y140000D03*
X550000Y450000D03*
Y440000D03*
Y430000D03*
Y420000D03*
Y410000D03*
Y400000D03*
Y390000D03*
Y380000D03*
Y370000D03*
Y360000D03*
Y350000D03*
Y340000D03*
Y330000D03*
Y320000D03*
Y310000D03*
Y300000D03*
Y290000D03*
Y280000D03*
Y270000D03*
Y260000D03*
Y250000D03*
Y240000D03*
Y230000D03*
Y220000D03*
Y210000D03*
Y200000D03*
Y190000D03*
Y180000D03*
Y170000D03*
Y160000D03*
Y150000D03*
Y140000D03*
X540000Y450000D03*
Y440000D03*
Y430000D03*
Y420000D03*
Y410000D03*
Y400000D03*
Y390000D03*
Y380000D03*
Y370000D03*
Y360000D03*
Y350000D03*
Y340000D03*
Y330000D03*
Y320000D03*
Y310000D03*
Y300000D03*
Y290000D03*
Y280000D03*
Y270000D03*
Y260000D03*
Y250000D03*
Y240000D03*
Y230000D03*
Y220000D03*
Y210000D03*
Y200000D03*
Y190000D03*
Y180000D03*
Y170000D03*
Y160000D03*
Y150000D03*
Y140000D03*
X520000Y450000D03*
Y440000D03*
Y430000D03*
Y420000D03*
Y410000D03*
Y400000D03*
Y390000D03*
Y380000D03*
Y370000D03*
Y360000D03*
Y350000D03*
Y340000D03*
Y330000D03*
Y320000D03*
Y310000D03*
Y300000D03*
Y290000D03*
Y280000D03*
Y270000D03*
Y260000D03*
Y250000D03*
Y240000D03*
Y230000D03*
Y220000D03*
Y210000D03*
Y200000D03*
Y190000D03*
Y180000D03*
Y170000D03*
Y160000D03*
Y150000D03*
Y140000D03*
X580000Y450000D03*
Y440000D03*
Y430000D03*
Y420000D03*
Y410000D03*
Y400000D03*
Y390000D03*
Y380000D03*
Y370000D03*
Y360000D03*
Y350000D03*
Y340000D03*
Y330000D03*
Y320000D03*
Y310000D03*
Y300000D03*
Y290000D03*
Y280000D03*
Y270000D03*
Y260000D03*
Y250000D03*
Y240000D03*
Y230000D03*
Y220000D03*
Y210000D03*
Y200000D03*
Y190000D03*
Y180000D03*
Y170000D03*
Y160000D03*
Y150000D03*
Y140000D03*
X634000Y175000D03*
Y165000D03*
Y155000D03*
Y145000D03*
Y135000D03*
Y125000D03*
X618000Y273000D03*
Y257000D03*
Y242000D03*
Y216000D03*
Y186000D03*
X622000Y121000D03*
X640000Y480000D03*
X630000D03*
X595000Y460000D03*
G54D13*
X150000Y470000D03*
Y120000D03*
X230000Y470000D03*
Y120000D03*
X310000Y470000D03*
Y120000D03*
X390000Y470000D03*
Y120000D03*
X470000Y470000D03*
Y120000D03*
X550000Y470000D03*
Y120000D03*
G54D15*
X610000Y301500D03*
Y318000D03*
Y334500D03*
Y351000D03*
Y367500D03*
Y384000D03*
Y400500D03*
Y417000D03*
Y433500D03*
X610600Y449600D03*
X631700Y301500D03*
Y318000D03*
Y334500D03*
Y351000D03*
Y367500D03*
Y384000D03*
Y400500D03*
Y417000D03*
Y433500D03*
Y450000D03*
G54D17*
X629900Y283000D03*
Y468500D03*
G54D19*
X590000Y180000D02*
Y184250D01*
X591750Y186000*
X595000*
X601000Y275000D02*
Y447850D01*
X602750Y449600*
X610600*
X610000Y417000D02*
X621000Y428000D01*
Y458250*
X595000Y460000D02*
X619250D01*
X621000Y458250*
G54D22*
X580000Y180000D02*
X590000D01*
X610000*
X580000Y200000D02*
X601000D01*
X641500*
X645000Y203500*
Y205000*
X610000Y220000D02*
Y282000D01*
X621000Y293000*
Y413500*
X624500Y417000*
X631700*
Y318000D02*
X641500D01*
X645000Y314500*
Y205000*
G54D23*
X595000Y186000D03*
X610000Y180000D03*
X601000Y200000D03*
Y227000D03*
X610000Y220000D03*
X601000Y257000D03*
Y275000D03*
G54D24*
X622000Y135000D03*
X602000D03*
G54D26*
X180000Y150000D02*
Y153250D01*
X181750Y155000*
X257375*
X260000Y152375*
Y150000*
X340000D02*
Y152375D01*
X342625Y155000*
X417375*
X420000Y152375*
Y150000*
X500000D02*
Y152375D01*
X502625Y155000*
X578250*
X580000Y153250*
Y150000*
X180000Y170000D02*
Y167625D01*
X182625Y165000*
X577375*
X580000Y167625*
Y170000*
X260000D02*
Y172375D01*
X262625Y175000*
X337375*
X340000Y172375*
Y170000*
X420000D02*
Y172375D01*
X422625Y175000*
X497375*
X500000Y172375*
Y170000*
X180000Y190000D02*
Y193250D01*
X181750Y195000*
X257375*
X260000Y192375*
Y190000*
X340000D02*
Y192375D01*
X342625Y195000*
X417375*
X420000Y192375*
Y190000*
X500000D02*
Y192375D01*
X502625Y195000*
X578250*
X580000Y193250*
Y190000*
X180000Y210000D02*
Y213250D01*
X181750Y215000*
X260000*
X180000Y220000D02*
Y223250D01*
X181750Y225000*
X260000*
X340000*
Y215000D02*
X260000D01*
Y210000*
Y220000D02*
Y225000D01*
X340000D02*
X420000D01*
Y215000D02*
X340000D01*
Y210000*
Y220000D02*
Y225000D01*
X420000Y215000D02*
X500000D01*
X420000Y225000D02*
X500000D01*
X420000Y210000D02*
Y215000D01*
Y220000D02*
Y225000D01*
X500000Y215000D02*
X578250D01*
X580000Y213250*
Y210000*
X500000Y225000D02*
X578250D01*
X580000Y223250*
Y220000*
X500000Y210000D02*
Y215000D01*
Y220000D02*
Y225000D01*
X180000Y230000D02*
Y233250D01*
X181750Y235000*
X260000*
X180000Y240000D02*
Y243250D01*
X181750Y245000*
X260000*
Y235000D02*
X340000D01*
X260000Y245000D02*
X340000D01*
X260000Y230000D02*
Y235000D01*
Y240000D02*
Y245000D01*
X340000Y235000D02*
X420000D01*
X340000Y245000D02*
X420000D01*
X340000Y230000D02*
Y235000D01*
Y240000D02*
Y245000D01*
X420000D02*
X500000D01*
Y235000D02*
X420000D01*
Y230000*
Y240000D02*
Y245000D01*
X500000Y235000D02*
X578250D01*
X580000Y233250*
Y230000*
X500000Y245000D02*
X578250D01*
X580000Y243250*
Y240000*
X500000Y230000D02*
Y235000D01*
Y240000D02*
Y245000D01*
X180000Y250000D02*
Y253250D01*
X181750Y255000*
X260000*
X180000Y260000D02*
Y263250D01*
X181750Y265000*
X260000*
Y255000D02*
X340000D01*
X260000Y265000D02*
X340000D01*
X260000Y250000D02*
Y255000D01*
Y260000D02*
Y265000D01*
X340000Y255000D02*
X420000D01*
X340000Y265000D02*
X420000D01*
X340000Y250000D02*
Y255000D01*
Y260000D02*
Y265000D01*
X420000Y255000D02*
X500000D01*
X420000Y265000D02*
X500000D01*
X420000Y250000D02*
Y255000D01*
Y260000D02*
Y265000D01*
X500000Y255000D02*
X578250D01*
X580000Y253250*
Y250000*
X500000Y265000D02*
X578250D01*
X580000Y263250*
Y260000*
X500000Y250000D02*
Y255000D01*
Y260000D02*
Y265000D01*
X180000Y270000D02*
Y273250D01*
X181750Y275000*
X260000*
X180000Y280000D02*
Y283250D01*
X181750Y285000*
X260000*
Y275000D02*
X340000D01*
X260000Y285000D02*
X340000D01*
X260000Y270000D02*
Y275000D01*
Y280000D02*
Y285000D01*
X340000D02*
X420000D01*
Y275000D02*
X340000D01*
Y270000*
Y280000D02*
Y285000D01*
X420000Y275000D02*
X500000D01*
X420000Y285000D02*
X500000D01*
X420000Y270000D02*
Y275000D01*
Y280000D02*
Y285000D01*
X500000D02*
X578250D01*
X580000Y283250*
Y280000*
X500000Y275000D02*
X578250D01*
X580000Y273250*
Y270000*
X500000D02*
Y275000D01*
Y280000D02*
Y285000D01*
X180000Y290000D02*
Y293250D01*
X181750Y295000*
X260000*
X180000Y300000D02*
Y303250D01*
X181750Y305000*
X260000*
X340000*
Y295000D02*
X260000D01*
Y290000*
Y300000D02*
Y305000D01*
X340000D02*
X420000D01*
Y295000D02*
X340000D01*
Y290000*
Y300000D02*
Y305000D01*
X420000D02*
X500000D01*
Y295000D02*
X420000D01*
Y290000*
Y300000D02*
Y305000D01*
X500000D02*
X578250D01*
X580000Y303250*
Y300000*
X500000Y295000D02*
X578250D01*
X580000Y293250*
Y290000*
X500000D02*
Y295000D01*
Y300000D02*
Y305000D01*
X180000Y310000D02*
Y313250D01*
X181750Y315000*
X260000*
X180000Y320000D02*
Y323250D01*
X181750Y325000*
X260000*
X340000*
Y315000D02*
X260000D01*
Y310000*
Y320000D02*
Y325000D01*
X340000Y315000D02*
X420000D01*
X340000Y325000D02*
X420000D01*
X340000Y310000D02*
Y315000D01*
Y320000D02*
Y325000D01*
X420000D02*
X500000D01*
Y315000D02*
X420000D01*
Y310000*
Y320000D02*
Y325000D01*
X500000Y315000D02*
X578250D01*
X580000Y313250*
Y310000*
X500000Y325000D02*
X578250D01*
X580000Y323250*
Y320000*
X500000Y310000D02*
Y315000D01*
Y320000D02*
Y325000D01*
X180000Y330000D02*
Y333250D01*
X181750Y335000*
X260000*
X180000Y340000D02*
Y343250D01*
X181750Y345000*
X260000*
X340000*
Y335000D02*
X260000D01*
Y330000*
Y340000D02*
Y345000D01*
X340000D02*
X420000D01*
Y335000D02*
X340000D01*
Y330000*
Y340000D02*
Y345000D01*
X420000D02*
X500000D01*
Y335000D02*
X420000D01*
Y330000*
Y340000D02*
Y345000D01*
X500000D02*
X578250D01*
X580000Y343250*
Y340000*
X500000Y335000D02*
X578250D01*
X580000Y333250*
Y330000*
X500000D02*
Y335000D01*
Y340000D02*
Y345000D01*
X180000Y350000D02*
Y353250D01*
X181750Y355000*
X260000*
X180000Y360000D02*
Y363250D01*
X181750Y365000*
X260000*
Y355000D02*
X340000D01*
X260000Y365000D02*
X340000D01*
X260000Y350000D02*
Y355000D01*
Y360000D02*
Y365000D01*
X340000Y355000D02*
X420000D01*
X340000Y365000D02*
X420000D01*
X340000Y350000D02*
Y355000D01*
Y360000D02*
Y365000D01*
X420000D02*
X500000D01*
Y355000D02*
X420000D01*
Y350000*
Y360000D02*
Y365000D01*
X500000D02*
X578250D01*
X580000Y363250*
Y360000*
X500000Y355000D02*
X578250D01*
X580000Y353250*
Y350000*
X500000D02*
Y355000D01*
Y360000D02*
Y365000D01*
X180000Y370000D02*
Y373250D01*
X181750Y375000*
X260000*
X180000Y380000D02*
Y383250D01*
X181750Y385000*
X260000*
X340000*
Y375000D02*
X260000D01*
Y370000*
Y380000D02*
Y385000D01*
X340000D02*
X420000D01*
Y375000D02*
X340000D01*
Y370000*
Y380000D02*
Y385000D01*
X420000D02*
X500000D01*
Y375000D02*
X420000D01*
Y370000*
Y380000D02*
Y385000D01*
X500000D02*
X578250D01*
X580000Y383250*
Y380000*
X500000Y375000D02*
X578250D01*
X580000Y373250*
Y370000*
X500000D02*
Y375000D01*
Y380000D02*
Y385000D01*
X180000Y390000D02*
Y393250D01*
X181750Y395000*
X260000*
X180000Y400000D02*
Y403250D01*
X181750Y405000*
X260000*
X340000*
Y395000D02*
X260000D01*
Y390000*
Y400000D02*
Y405000D01*
X340000Y395000D02*
X420000D01*
X340000Y405000D02*
X420000D01*
X340000Y390000D02*
Y395000D01*
Y400000D02*
Y405000D01*
X420000Y395000D02*
X500000D01*
X420000Y405000D02*
X500000D01*
X420000Y390000D02*
Y395000D01*
Y400000D02*
Y405000D01*
X500000Y395000D02*
X578250D01*
X580000Y393250*
Y390000*
X500000Y405000D02*
X578250D01*
X580000Y403250*
Y400000*
X500000Y390000D02*
Y395000D01*
Y400000D02*
Y405000D01*
X180000Y410000D02*
Y413250D01*
X181750Y415000*
X260000*
X180000Y420000D02*
Y423250D01*
X181750Y425000*
X260000*
X340000*
Y415000D02*
X260000D01*
Y410000*
Y420000D02*
Y425000D01*
X340000Y415000D02*
X420000D01*
X340000Y425000D02*
X420000D01*
X340000Y410000D02*
Y415000D01*
Y420000D02*
Y425000D01*
X420000D02*
X500000D01*
Y415000D02*
X420000D01*
Y410000*
Y420000D02*
Y425000D01*
X500000D02*
X578250D01*
X580000Y423250*
Y420000*
X500000Y415000D02*
X578250D01*
X580000Y413250*
Y410000*
X500000D02*
Y415000D01*
Y420000D02*
Y425000D01*
X180000Y430000D02*
Y433250D01*
X181750Y435000*
X260000*
X180000Y440000D02*
Y443250D01*
X181750Y445000*
X260000*
Y435000D02*
X340000D01*
X260000Y445000D02*
X340000D01*
X260000Y430000D02*
Y435000D01*
Y440000D02*
Y445000D01*
X340000Y440000D02*
Y445000D01*
X420000*
Y435000D02*
X340000D01*
Y430000*
X420000Y440000D02*
Y445000D01*
X500000*
Y435000D02*
X420000D01*
Y430000*
X500000Y440000D02*
Y445000D01*
X578250*
X580000Y443250*
Y440000*
X500000Y435000D02*
X578250D01*
X580000Y433250*
Y430000*
X500000D02*
Y435000D01*
G54D28*
X580000Y160000D02*
X593250D01*
X595000Y158250*
Y146750*
X596750Y145000*
X634000*
Y165000D02*
X643250D01*
X645000Y166750*
Y205000*
X610000Y180000D02*
Y156750D01*
X611750Y155000*
X634000*
G54D39*
X115000Y115000D03*
X600000D03*
X115000Y480000D03*
X600000D03*
X0Y0D02*
M02*
