%
T1C.015F095S3
X01025Y0126
X01055Y0104
X01145Y0115
X0122Y01215
X0132Y01215
X01325Y01025
X013721Y012421
X01464Y01075
X0152Y0108
X015547Y010553
X016146Y010746
X0164Y0114
X01675Y01095
X0181Y0114
X0181Y010805
X0196Y0117
X0199Y0112
X02375Y0127
X02675Y01145
X04545Y010805
X04575Y0126
X0459Y010735
X0462Y0111
X0472Y012505
X05145Y0123
X05175Y012
X05235Y012365
X0562Y01055
X054Y0133
X0534Y0128
X053033Y0137
X05275Y015735
X05225Y01575
X05195Y017429
X05165Y01655
X05105Y0174
X049467Y015867
X047911Y015989
X047572Y015722
X0473Y0154
X047292Y017152
X0468Y01765
X04646Y01515
X04638Y0177
X045835Y016118
X045676Y017626
X045102Y016398
X04475Y0161
X04475Y0152
X04415Y017242
X0438Y0165
X043239Y017633
X0428Y0165
X041997Y016303
X0418Y017602
X041607Y016507
X04005Y01635
X03975Y01665
X03945Y01705
X039Y01515
X0382Y017602
X0366Y0157
X036Y01734
X0358Y0164
X035505Y016955
X0352Y0165
X03481Y01621
X03405Y01748
X03402Y0165
X033883Y013617
X033608Y016308
X0328Y0165
X03205Y017588
X03195Y01635
X03135Y0165
X029329Y0163
X0284Y01724
X0284Y0155
X02829Y017694
X0278Y0168
X0272Y0175
X0268Y0165
X0261Y01645
X02565Y016543
X0254Y01495
X02465Y0169
X02465Y0153
X0246Y01488
X02365Y01595
X0221Y0163
X02175Y0151
X021Y01615
X02055Y01735
X018466Y01647
X01814Y01616
X0178Y01495
X01775Y0175
X0174Y01615
X01699Y0176
X01665Y017
X0166Y01495
X0159Y01495
X01432Y01609
X0122Y01365
X011Y0145
X0108Y02
X013955Y0195
X0153Y0184
X015835Y020245
X0159Y0184
X01612Y01973
X0164Y01905
X01705Y0182
X021696Y019354
X022Y01993
X02255Y01775
X0249Y01925
X02636Y018886
X0265Y01961
X0271Y02
X027488Y019
X028771Y01939
X030325Y018525
X03075Y018302
X0318Y018848
X0321Y02
X034121Y020236
X040273Y01776
X040725Y019925
X041172Y020072
X0413Y0181
X041485Y019785
X04212Y01788
X04255Y019
X042862Y020145
X043Y01935
X043013Y018473
X0439Y01908
X0439Y0182
X04395Y0195
X043982Y020135
X04472Y0188
X044791Y02015
X0455Y01865
X046183Y018617
X04683Y02003
X0473Y0185
X047506Y01925
X047926Y019326
X04855Y0183
X04855Y01945
X0495Y0199
X0535Y0196
X05275Y021715
X05225Y02045
X04795Y0219
X047713Y021123
X047578Y022172
X04725Y02165
X04685Y0206
X046715Y022491
X04574Y022599
X045049Y022466
X04415Y02179
X04396Y02235
X043101Y021125
X042316Y020721
X042Y02245
X041907Y020262
X041494Y020641
X040607Y020485
X036096Y021148
X03564Y020958
X035317Y021798
X03401Y0221
X033561Y020666
X03345Y02195
X032739Y021409
X03245Y02245
X032383Y020775
X031683Y02075
X03155Y02235
X030983Y02076
X03065Y0221
X03035Y020646
X030175Y022417
X029751Y020786
X029335Y022676
X02871Y022033
X028424Y022524
X028351Y02075
X02773Y022031
X027511Y02075
X026811Y02055
X026111Y020786
X02591Y02215
X025794Y020509
X02493Y02205
X024022Y022528
X023859Y022091
X023694Y020505
X02335Y02075
X023251Y022462
X023159Y02205
X02293Y020646
X02251Y0205
X02215Y0226
X02205Y02111
X02195Y020494
X021655Y02195
X02077Y02223
X020318Y022252
X0203Y021
X019978Y021272
X0185Y02105
X018485Y02147
X01732Y022598
X0153Y0207
X014492Y0207
X01355Y02155
X01325Y02055
X01252Y02206
X01245Y0215
X011644Y021336
X01115Y021
X01168Y0235
X013845Y024287
X014Y02515
X014405Y024451
X01447Y02303
X01465Y0248
X014686Y02394
X01555Y0236
X016357Y02415
X01735Y0242
X01765Y0233
X01765Y0251
X01855Y023
X0188Y0243
X019621Y0245
X020211Y024545
X0205Y0249
X020503Y023803
X0208Y0241
X02085Y02466
X020871Y025123
X022689Y023087
X023Y0236
X023602Y023821
X0238Y0229
X024032Y024145
X02422Y022981
X025086Y02315
X0253Y0244
X02594Y0229
X02614Y02416
X02684Y0243
X02782Y02444
X028226Y024826
X029596Y023026
X0308Y024635
X03134Y025
X0325Y023191
X032568Y024977
X033931Y024072
X03395Y02325
X034243Y022751
X0343Y025052
X034717Y023671
X037Y0247
X039895Y022926
X041195Y02505
X0427Y0242
X045427Y02288
X046672Y023091
X047013Y022837
X04935Y02285
X049835Y024255
X051Y02345
X0532Y0268
X05265Y027483
X05175Y027
X0492Y02705
X04915Y02755
X048729Y027371
X04825Y02555
X048Y027
X04745Y027
X04655Y027
X035457Y027204
X0353Y02765
X03465Y026065
X034286Y027055
X034179Y027685
X034054Y0254
X03394Y026008
X032649Y027735
X032596Y026475
X032587Y025972
X031887Y0262
X0318Y0253
X031327Y02628
X0312Y02735
X03022Y02529
X02994Y027
X029927Y02656
X029227Y026823
X029215Y026015
X028769Y026291
X028707Y025731
X0273Y025335
X02615Y0273
X025355Y026342
X024497Y025613
X023955Y02674
X023596Y026504
X02257Y02583
X02215Y02705
X02215Y02747
X020881Y026789
X020859Y027609
X02085Y02595
X020556Y0256
X02055Y02725
X020502Y026394
X01951Y027505
X0195Y02555
X0185Y0269
X0176Y02735
X0175Y0266
X01715Y027
X01655Y02675
X015Y026462
X01041Y02751
X01085Y0295
X0125Y03
X01295Y0288
X01575Y0296
X017Y0287
X02Y029495
X020432Y029472
X0205Y029
X02246Y028495
X022641Y027771
X022853Y03
X023255Y02865
X023341Y028
X02355Y028989
X02559Y028182
X02615Y030002
X027047Y028992
X027424Y028576
X027793Y029555
X028773Y0292
X029473Y02902
X030173Y029254
X0303Y02785
X03114Y02777
X031171Y02847
X032431Y028715
X03265Y02909
X03265Y02965
X03393Y028334
X034147Y029494
X0353Y02949
X035597Y02863
X03572Y02947
X0358Y03003
X036577Y0288
X0368Y02796
X03736Y0281
X0382Y02835
X03922Y028685
X0402Y02865
X04625Y0297
X048343Y029957
X04845Y0279
X05219Y028135
X05225Y03005
X0529Y0307
X052755Y0313
X0525Y03265
X0513Y0326
X04835Y0318
X0477Y0312
X046955Y03225
X04169Y032505
X04096Y0318
X04068Y03243
X0403Y0327
X04012Y032
X0397Y032115
X035865Y031039
X03586Y03045
X0353Y0303
X0353Y032058
X03395Y030895
X03395Y032155
X03395Y031735
X033588Y032695
X032625Y032075
X0326Y0314
X032534Y03082
X032454Y03035
X03092Y03178
X030074Y031232
X02965Y0316
X02955Y0323
X029185Y030735
X02885Y03255
X028553Y032253
X028278Y032572
X02815Y0318
X02788Y030972
X027837Y032081
X027298Y03255
X02701Y031488
X026986Y03207
X0269Y03105
X026512Y030631
X026146Y032092
X02589Y03175
X02575Y0325
X02565Y03075
X025446Y03219
X02407Y031388
X023906Y03213
X023906Y03255
X023486Y03213
X023451Y03059
X023346Y03255
X02215Y03155
X02215Y03075
X020871Y03114
X020731Y0317
X0196Y03195
X019544Y032586
X0179Y0323
X013Y0327
X0125Y031
X011Y0315
X01155Y03406
X013Y03355
X014Y033
X0143Y034
X014995Y0345
X0182Y034
X019203Y033703
X0195Y034
X02143Y034506
X023282Y033814
X023635Y03465
X023945Y034366
X02424Y03385
X02494Y033878
X0255Y0339
X02738Y033814
X02875Y03465
X029693Y033821
X03101Y03437
X03115Y03493
X03353Y03445
X034148Y032798
X0342Y034235
X03462Y03424
X0353Y03285
X035667Y034183
X036Y0339
X036005Y03306
X0372Y0329
X0372Y03425
X03775Y033675
X0383Y03335
X038395Y034263
X0386Y03365
X04Y0344
X04125Y0348
X04763Y0335
X04805Y0335
X0486Y03278
X0488Y03315
X051Y0329
X05212Y0335
X05225Y03495
X05275Y036215
X04785Y03585
X0392Y036955
X039061Y035819
X0387Y03625
X038059Y037305
X03621Y03616
X036Y0356
X03575Y0363
X034265Y035715
X03425Y03672
X0342Y0363
X033809Y03613
X032484Y03706
X03215Y0368
X03175Y03745
X03103Y03698
X031Y03755
X030748Y03647
X0303Y0369
X029Y03725
X0285Y03752
X028245Y03692
X02765Y035545
X0241Y03755
X02258Y036455
X02258Y035709
X0221Y0358
X02165Y03675
X02126Y03535
X0209Y0376
X019891Y03565
X01975Y0374
X019004Y03578
X017Y036505
X014995Y0365
X01025Y03955
X014995Y0385
X0165Y03787
X01775Y03925
X01869Y03953
X018976Y039222
X01975Y04015
X0198Y03959
X020927Y040077
X022Y03797
X0224Y04015
X02329Y039245
X024533Y039375
X02509Y037944
X0255Y03865
X02592Y03855
X02615Y03785
X02865Y0398
X028936Y039485
X029Y038925
X02907Y039905
X03145Y0379
X03225Y0379
X032302Y039764
X032328Y039204
X03374Y03971
X033809Y03929
X03413Y03882
X034431Y03975
X03456Y039182
X0355Y037868
X036126Y040026
X0362Y038635
X037108Y038532
X037526Y038159
X037683Y039995
X037807Y0389
X03825Y0401
X039505Y038
X04Y0389
X040244Y04
X04042Y038905
X04173Y038905
X0435Y039726
X044Y038505
X04505Y03925
X0455Y04005
X0469Y04005
X04825Y04005
X0488Y03805
X05195Y03775
X0535Y0401
X05665Y041
X0499Y0423
X04735Y04055
X046728Y040772
X04334Y04149
X0433Y040286
X043295Y04078
X043295Y04262
X041891Y04109
X04125Y0422
X0403Y04265
X03831Y04052
X03775Y04095
X036888Y04165
X036328Y041622
X03625Y04225
X03625Y040432
X03555Y04047
X035271Y04215
X03527Y04159
X034851Y04219
X034793Y04135
X033544Y042444
X0331Y0417
X032621Y041379
X03225Y04095
X0308Y041275
X02793Y041306
X026476Y0415
X025947Y042409
X02555Y0418
X02512Y04082
X023505Y042605
X0228Y0418
X02216Y041422
X02213Y04211
X02105Y04205
X0196Y04076
X01918Y04066
X014995Y04243
X014995Y0405
X0126Y04185
X013Y04425
X0153Y0428
X0168Y04395
X01763Y04425
X01805Y0443
X01867Y04425
X01909Y04425
X02055Y0442
X021126Y044614
X02185Y04295
X02285Y04372
X022851Y04435
X023271Y044255
X02405Y04305
X024336Y04425
X02474Y042883
X025094Y04425
X0277Y04485
X02855Y0451
X03145Y04285
X03165Y0448
X0319Y0437
X0325Y0448
X032707Y043093
X032716Y044
X033705Y0432
X033712Y0443
X0348Y04275
X0348Y044117
X034941Y043557
X035088Y043155
X035211Y0443
X03545Y04345
X035456Y045
X035508Y04298
X035769Y043725
X03605Y045
X036336Y044148
X03642Y044708
X036935Y044985
X03759Y04343
X037635Y045005
X03765Y04385
X03892Y045005
X03934Y044906
X039797Y044903
X040217Y045
X040777Y044995
X041797Y044233
X042077Y04464
X0433Y043706
X0433Y04435
X044Y042995
X044Y0435
X0562Y04765
X044Y045495
X043Y0459
X04245Y04555
X04115Y0468
X037489Y046095
X036929Y046121
X034495Y046963
X0335Y04528
X0325Y046856
X0322Y04715
X031936Y045995
X030527Y04586
X03015Y04685
X02915Y0456
X02905Y04616
X024234Y047745
X0239Y0465
X022848Y045502
X02251Y047346
X02163Y046995
X0215Y04555
X02041Y04645
X01971Y046392
X01825Y046515
X01735Y04715
X0173Y04535
X01655Y0489
X01705Y04915
X0192Y04775
X02095Y0489
X02215Y0482
X02255Y04805
X031965Y048808
X032013Y048248
X035Y04875
X036504Y048404
X043Y04915
X04415Y04835
T2C.033F197S55
X011Y016
X011Y018
X0455Y0275
X0455Y026
X0455Y029
X0455Y0305
X0455Y032
X0455Y0335
X0392Y0314
X0392Y0294
X0355Y047
X0365Y047
X040487Y048673
X046Y0405
X049Y0465
T3C.035F197S55
X011Y0345
X012Y0345
X012Y0375
X012Y0365
X012Y0355
X012Y0385
X012Y0425
X012Y0415
X012Y0405
X011Y0375
X011Y0425
X011Y0355
X011Y0415
X011Y0365
X011Y0405
X011Y0385
X011Y0435
X011Y0445
X012Y0435
X012Y0445
T4C.03622F197S55
X051Y0465
X051Y045516
X051787Y045516
X051787Y0465
T5C.037F197S55
X014185Y012087
X015185Y012087
X016185Y012087
X017185Y012087
X018185Y012087
X019185Y012087
X020185Y012087
X021185Y012087
X022185Y012087
X023185Y012087
X024185Y012087
X025185Y012087
X026185Y012087
X027185Y012087
X028185Y012087
X029185Y012087
X030185Y012087
X031185Y012087
X032185Y012087
X033185Y012087
X034185Y012087
X035185Y012087
X036185Y012087
X037185Y012087
X038185Y012087
X039185Y012087
X040185Y012087
X041185Y012087
X042185Y012087
X043185Y012087
X044185Y012087
X045185Y012087
X045185Y013087
X045185Y014087
X044185Y013087
X044185Y014087
X043185Y013087
X043185Y014087
X042185Y013087
X042185Y014087
X041185Y013087
X041185Y014087
X040185Y013087
X040185Y014087
X039185Y013087
X039185Y014087
X038185Y013087
X038185Y014087
X037185Y013087
X037185Y014087
X036185Y013087
X036185Y014087
X035185Y013087
X035185Y014087
X034185Y013087
X034185Y014087
X033185Y013087
X033185Y014087
X032185Y013087
X032185Y014087
X031185Y013087
X031185Y014087
X030185Y013087
X030185Y014087
X029185Y013087
X029185Y014087
X028185Y013087
X028185Y014087
X027185Y013087
X027185Y014087
X026185Y013087
X026185Y014087
X025185Y013087
X025185Y014087
X024185Y013087
X024185Y014087
X023185Y013087
X023185Y014087
X022185Y013087
X022185Y014087
X021185Y013087
X021185Y014087
X020185Y013087
X020185Y014087
X019185Y013087
X019185Y014087
X018185Y013087
X018185Y014087
X017185Y013087
X017185Y014087
X016185Y013087
X016185Y014087
X015185Y013087
X015185Y014087
X014185Y013087
X014185Y014087
X0395Y0225
X0395Y0245
X0395Y0235
X041Y0235
X041Y0225
X041Y0245
X043Y025
X044Y025
X044Y027
X044Y026
X044Y03
X044Y029
X044Y028
X043Y03
X043Y027
X043Y029
X043Y028
X043Y026
X0395Y026
X0395Y027
X043Y032
X043Y031
X043Y034
X043Y033
X044Y032
X044Y034
X044Y031
X044Y033
X0415Y0475
X0395Y0475
X031Y0475
X03Y0475
X029Y0475
X028Y0475
X027Y0475
X0115Y0485
X0125Y0485
X0145Y0485
X0155Y0485
X0175Y0485
X0185Y0485
X0205Y0485
X0215Y0485
X0235Y0485
X0245Y0485
X027Y0485
X028Y0485
X029Y0485
X03Y0485
X031Y0485
X033Y0485
X034Y0485
T6C.045F139S55
X0542Y01511
X0542Y01402
X0542Y01729
X0542Y0162
X05532Y01456
X05532Y01674
X05532Y01565
X05532Y02001
X05532Y01892
X05532Y01783
X05532Y02219
X05532Y0211
X0542Y01838
X0542Y01947
X0542Y02274
X0542Y02165
X0542Y02056
X0542Y02383
X0542Y02492
X0542Y0271
X0542Y02601
X05532Y02328
X05532Y02655
X05532Y02437
X05532Y02546
X05532Y03667
X05532Y03558
X05532Y03885
X05532Y03776
X0542Y03722
X0542Y03613
X0542Y03504
X0542Y03831
X0542Y0394
T7C.09055F066S55
X052854Y043638
X052854Y048378
T8C.11F069S658
X012185Y011087
X047185Y011087
T9C.125F035S794
X05476Y01128
X05476Y02984
X05476Y03231
X05476Y04214
M30
