*
*
G04 PADS Layout (Build Number 2005.266.2) generated Gerber (RS-274-X) file*
G04 PC Version=2.1*
*
%IN "atlas_2.pcb"*%
*
%MOIN*%
*
%FSLAX35Y35*%
*
*
*
*
G04 PC Standard Apertures*
*
*
G04 Thermal Relief Aperture macro.*
%AMTER*
1,1,$1,0,0*
1,0,$1-$2,0,0*
21,0,$3,$4,0,0,45*
21,0,$3,$4,0,0,135*
%
*
*
G04 Annular Aperture macro.*
%AMANN*
1,1,$1,0,0*
1,0,$2,0,0*
%
*
*
G04 Odd Aperture macro.*
%AMODD*
1,1,$1,0,0*
1,0,$1-0.005,0,0*
%
*
*
G04 PC Custom Aperture Macros*
*
*
*
*
*
*
G04 PC Aperture Table*
*
%ADD019C,0.01*%
*
*
*
*
G04 PC Copper Outlines (0)*
G04 Layer Name atlas_2.pcb - dark (0)*
%LPD*%
*
*
G04 PC Area=DRW54012801*
G75*
G36*
G01*
X584500Y177500D02*
X626500D01*
Y149500D01*
X584500D01*
Y177500D01*
G37*
G74*
*
*
G04 PC Copper Outlines (1)*
G04 Layer Name atlas_2.pcb - dark (1)*
%LPD*%
*
*
G04 PC Area=Custom_Thermal*
*
G04 PC Custom Flashes*
G04 Layer Name atlas_2.pcb - flashes*
%LPD*%
*
*
G04 PC Circuitry*
G04 Layer Name atlas_2.pcb - circuitry*
%LPD*%
*
G54D19*
G01X130000Y482500D02*
X170000D01*
Y107500*
X130000*
Y482500*
X165000Y455000D02*
X155000D01*
Y460000*
X135000*
Y130000*
X155000*
Y135000*
X165000*
Y455000*
X210000Y482500D02*
X250000D01*
Y107500*
X210000*
Y482500*
X245000Y455000D02*
X235000D01*
Y460000*
X215000*
Y130000*
X235000*
Y135000*
X245000*
Y455000*
X290000Y482500D02*
X330000D01*
Y107500*
X290000*
Y482500*
X325000Y455000D02*
X315000D01*
Y460000*
X295000*
Y130000*
X315000*
Y135000*
X325000*
Y455000*
X370000Y482500D02*
X410000D01*
Y107500*
X370000*
Y482500*
X405000Y455000D02*
X395000D01*
Y460000*
X375000*
Y130000*
X395000*
Y135000*
X405000*
Y455000*
X450000Y482500D02*
X490000D01*
Y107500*
X450000*
Y482500*
X485000Y455000D02*
X475000D01*
Y460000*
X455000*
Y130000*
X475000*
Y135000*
X485000*
Y455000*
X530000Y482500D02*
X570000D01*
Y107500*
X530000*
Y482500*
X565000Y455000D02*
X555000D01*
Y460000*
X535000*
Y130000*
X555000*
Y135000*
X565000*
Y455000*
X629000Y180000D02*
Y120000D01*
X639000*
Y180000*
X629000*
X639000Y170000D02*
X629000D01*
X603500Y269500D02*
X595500D01*
Y260500*
X603500*
X606500Y269500D02*
X614500D01*
Y260500*
X606500*
X603500Y254500D02*
X595500D01*
Y245500*
X603500*
X606500Y254500D02*
X614500D01*
Y245500*
X606500*
X603500Y239500D02*
X595500D01*
Y230500*
X603500*
X606500Y239500D02*
X614500D01*
Y230500*
X606500*
X603500Y197500D02*
X595500D01*
Y188500*
X603500*
X606500Y197500D02*
X614500D01*
Y188500*
X606500*
X603500Y212500D02*
X595500D01*
Y203500*
X603500*
X606500Y212500D02*
X614500D01*
Y203500*
X606500*
X628500Y269500D02*
X620500D01*
Y260500*
X628500*
X631500Y269500D02*
X639500D01*
Y260500*
X631500*
X628500Y254500D02*
X620500D01*
Y245500*
X628500*
X631500Y254500D02*
X639500D01*
Y245500*
X631500*
X628500Y239500D02*
X620500D01*
Y230500*
X628500*
X631500Y239500D02*
X639500D01*
Y230500*
X631500*
Y188500D02*
X639500D01*
Y197500*
X631500*
X628500Y188500D02*
X620500D01*
Y197500*
X628500*
X631500Y203500D02*
X639500D01*
Y212500*
X631500*
X628500Y203500D02*
X620500D01*
Y212500*
X628500*
X425500Y473500D02*
Y465500D01*
X434500*
Y473500*
X425500Y476500D02*
Y484500D01*
X434500*
Y476500*
X505500Y473500D02*
Y465500D01*
X514500*
Y473500*
X505500Y476500D02*
Y484500D01*
X514500*
Y476500*
X114500Y216500D02*
Y224500D01*
X105500*
Y216500*
X114500Y213500D02*
Y205500D01*
X105500*
Y213500*
X194500Y216500D02*
Y224500D01*
X185500*
Y216500*
X194500Y213500D02*
Y205500D01*
X185500*
Y213500*
X274500Y216500D02*
Y224500D01*
X265500*
Y216500*
X274500Y213500D02*
Y205500D01*
X265500*
Y213500*
X354500Y216500D02*
Y224500D01*
X345500*
Y216500*
X354500Y213500D02*
Y205500D01*
X345500*
Y213500*
X434500Y216500D02*
Y224500D01*
X425500*
Y216500*
X434500Y213500D02*
Y205500D01*
X425500*
Y213500*
X514500Y216500D02*
Y224500D01*
X505500*
Y216500*
X514500Y213500D02*
Y205500D01*
X505500*
Y213500*
X194500Y121500D02*
Y129500D01*
X185500*
Y121500*
X194500Y118500D02*
Y110500D01*
X185500*
Y118500*
X274500Y121500D02*
Y129500D01*
X265500*
Y121500*
X274500Y118500D02*
Y110500D01*
X265500*
Y118500*
X354500Y121500D02*
Y129500D01*
X345500*
Y121500*
X354500Y118500D02*
Y110500D01*
X345500*
Y118500*
X434500Y121500D02*
Y129500D01*
X425500*
Y121500*
X434500Y118500D02*
Y110500D01*
X425500*
Y118500*
X514500Y121500D02*
Y129500D01*
X505500*
Y121500*
X514500Y118500D02*
Y110500D01*
X505500*
Y118500*
X584500Y121500D02*
Y129500D01*
X575500*
Y121500*
X584500Y118500D02*
Y110500D01*
X575500*
Y118500*
X105500Y152500D02*
Y144500D01*
X114500*
Y152500*
X105500Y155500D02*
Y163500D01*
X114500*
Y155500*
X194500Y156500D02*
Y164500D01*
X185500*
Y156500*
X194500Y153500D02*
Y145500D01*
X185500*
Y153500*
X274500Y156500D02*
Y164500D01*
X265500*
Y156500*
X274500Y153500D02*
Y145500D01*
X265500*
Y153500*
X354500Y156500D02*
Y164500D01*
X345500*
Y156500*
X354500Y153500D02*
Y145500D01*
X345500*
Y153500*
X434500Y156500D02*
Y164500D01*
X425500*
Y156500*
X434500Y153500D02*
Y145500D01*
X425500*
Y153500*
X514500Y156500D02*
Y164500D01*
X505500*
Y156500*
X514500Y153500D02*
Y145500D01*
X505500*
Y153500*
X105500Y193500D02*
Y185500D01*
X114500*
Y193500*
X105500Y196500D02*
Y204500D01*
X114500*
Y196500*
X185500Y193500D02*
Y185500D01*
X194500*
Y193500*
X185500Y196500D02*
Y204500D01*
X194500*
Y196500*
X265500Y193500D02*
Y185500D01*
X274500*
Y193500*
X265500Y196500D02*
Y204500D01*
X274500*
Y196500*
X345500Y193500D02*
Y185500D01*
X354500*
Y193500*
X345500Y196500D02*
Y204500D01*
X354500*
Y196500*
X425500Y193500D02*
Y185500D01*
X434500*
Y193500*
X425500Y196500D02*
Y204500D01*
X434500*
Y196500*
X505500Y193500D02*
Y185500D01*
X514500*
Y193500*
X505500Y196500D02*
Y204500D01*
X514500*
Y196500*
X104500Y453500D02*
Y445500D01*
X113500*
Y453500*
X104500Y456500D02*
Y464500D01*
X113500*
Y456500*
X185500Y473500D02*
Y465500D01*
X194500*
Y473500*
X185500Y476500D02*
Y484500D01*
X194500*
Y476500*
X265500Y473500D02*
Y465500D01*
X274500*
Y473500*
X265500Y476500D02*
Y484500D01*
X274500*
Y476500*
X345500Y473500D02*
Y465500D01*
X354500*
Y473500*
X345500Y476500D02*
Y484500D01*
X354500*
Y476500*
X590500Y441500D02*
Y432500D01*
X599500*
Y441500*
X590500Y446500D02*
Y454000D01*
X592000Y455500*
X598000*
X599500Y454000*
Y446500*
X590500Y415500D02*
Y406500D01*
X599500*
Y415500*
X590500Y420500D02*
Y428000D01*
X592000Y429500*
X598000*
X599500Y428000*
Y420500*
X590500Y337500D02*
Y328500D01*
X599500*
Y337500*
X590500Y342500D02*
Y350000D01*
X592000Y351500*
X598000*
X599500Y350000*
Y342500*
X590500Y389500D02*
Y380500D01*
X599500*
Y389500*
X590500Y394500D02*
Y402000D01*
X592000Y403500*
X598000*
X599500Y402000*
Y394500*
X590500Y363500D02*
Y354500D01*
X599500*
Y363500*
X590500Y368500D02*
Y376000D01*
X592000Y377500*
X598000*
X599500Y376000*
Y368500*
X175091Y481375D02*
Y476875D01*
X174864Y476031*
X174636Y475750*
X174182Y475469*
X173727*
X173273Y475750*
X173045Y476031*
X172818Y476875*
Y477437*
X177136Y480250D02*
X177591Y480531D01*
X178273Y481375*
Y475469*
X256068Y481375D02*
Y476875D01*
X255841Y476031*
X255614Y475750*
X255159Y475469*
X254705*
X254250Y475750*
X254023Y476031*
X253795Y476875*
Y477437*
X258341Y479969D02*
Y480250D01*
X258568Y480812*
X258568D02*
X258795Y481094D01*
X259250Y481375*
X260159*
X260614Y481094*
X260841Y480812*
X260841D02*
X261068Y480250D01*
Y479687*
X261068D02*
X260841Y479125D01*
X260386Y478281*
X258114Y475469*
X261295*
X198659Y461516D02*
Y457766D01*
X198489Y457062*
X198489D02*
X198318Y456828D01*
X197977Y456594*
X197636*
X197295Y456828*
X197125Y457062*
X197125D02*
X196955Y457766D01*
Y458234*
X202409Y459875D02*
X202239Y459172D01*
X201898Y458703*
X201386Y458469*
X201216*
X200705Y458703*
X200364Y459172*
X200193Y459875*
Y460109*
X200364Y460812*
X200364D02*
X200705Y461281D01*
X201216Y461516*
X201386*
X201898Y461281*
X202239Y460812*
X202239D02*
X202409Y459875D01*
Y458703*
X202239Y457531*
X201898Y456828*
X201386Y456594*
X201045*
X200534Y456828*
X200364Y457297*
X258318Y461516D02*
Y457766D01*
X258148Y457062*
X258148D02*
X257977Y456828D01*
X257636Y456594*
X257295*
X256955Y456828*
X256784Y457062*
X256784D02*
X256614Y457766D01*
Y458234*
X259852Y460578D02*
X260193Y460812D01*
X260193D02*
X260705Y461516D01*
Y456594*
X263261Y461516D02*
X262750Y461281D01*
X262409Y460578*
X262239Y459406*
Y458703*
X262409Y457531*
X262750Y456828*
X263261Y456594*
X263602*
X264114Y456828*
X264455Y457531*
X264625Y458703*
Y459406*
X264455Y460578*
X264114Y461281*
X263602Y461516*
X263261*
X119602D02*
Y457766D01*
X119432Y457062*
X119432D02*
X119261Y456828D01*
X118920Y456594*
X118580*
X118239Y456828*
X118068Y457062*
X118068D02*
X117898Y457766D01*
Y458234*
X123523Y461516D02*
X121818Y456594D01*
X121136Y461516D02*
X123523D01*
X178602D02*
Y457766D01*
X178432Y457062*
X178432D02*
X178261Y456828D01*
X177920Y456594*
X177580*
X177239Y456828*
X177068Y457062*
X177068D02*
X176898Y457766D01*
Y458234*
X180989Y461516D02*
X180477Y461281D01*
X180307Y460812*
X180307D02*
Y460344D01*
X180477Y459875*
X180818Y459641*
X181500Y459406*
X182011Y459172*
X182352Y458703*
X182523Y458234*
Y457531*
X182352Y457062*
X182352D02*
X182182Y456828D01*
X181670Y456594*
X180989*
X180477Y456828*
X180307Y457062*
X180307D02*
X180136Y457531D01*
Y458234*
X180307Y458703*
X180648Y459172*
X181159Y459406*
X181841Y459641*
X182182Y459875*
X182352Y460344*
Y460812*
X182352D02*
X182182Y461281D01*
X181670Y461516*
X180989*
X335068Y481375D02*
Y476875D01*
X334841Y476031*
X334614Y475750*
X334159Y475469*
X333705*
X333250Y475750*
X333023Y476031*
X332795Y476875*
Y477437*
X337568Y481375D02*
X340068D01*
X338705Y479125*
X339386*
X339841Y478844*
X340068Y478562*
X340068D02*
X340295Y477719D01*
Y477156*
X340068Y476312*
X340068D02*
X339614Y475750D01*
X338932Y475469*
X338250*
X337568Y475750*
X337341Y476031*
X337114Y476594*
X278318Y461516D02*
Y457766D01*
X278148Y457062*
X278148D02*
X277977Y456828D01*
X277636Y456594*
X277295*
X276955Y456828*
X276784Y457062*
X276784D02*
X276614Y457766D01*
Y458234*
X279852Y460578D02*
X280193Y460812D01*
X280193D02*
X280705Y461516D01*
Y456594*
X282239Y460578D02*
X282580Y460812D01*
X282580D02*
X283091Y461516D01*
Y456594*
X337807Y461516D02*
Y457766D01*
X337636Y457062*
X337636D02*
X337466Y456828D01*
X337125Y456594*
X336784*
X336443Y456828*
X336273Y457062*
X336273D02*
X336102Y457766D01*
Y458234*
X339341Y460578D02*
X339682Y460812D01*
X339682D02*
X340193Y461516D01*
Y456594*
X341898Y460344D02*
Y460578D01*
X342068Y461047*
X342239Y461281*
X342580Y461516*
X343261*
X343602Y461281*
X343773Y461047*
X343943Y460578*
Y460109*
X343773Y459641*
X343432Y458937*
X343432D02*
X341727Y456594D01*
X344114*
X415955Y481375D02*
Y476875D01*
X415727Y476031*
X415500Y475750*
X415045Y475469*
X414591*
X414136Y475750*
X413909Y476031*
X413682Y476875*
Y477437*
X420273Y481375D02*
X418000Y477437D01*
X418000D02*
X421409D01*
X420273Y481375D02*
Y475469D01*
X358807Y461516D02*
Y457766D01*
X358636Y457062*
X358636D02*
X358466Y456828D01*
X358125Y456594*
X357784*
X357443Y456828*
X357273Y457062*
X357273D02*
X357102Y457766D01*
Y458234*
X360341Y460578D02*
X360682Y460812D01*
X360682D02*
X361193Y461516D01*
Y456594*
X363068Y461516D02*
X364943D01*
X363920Y459641*
X364432*
X364773Y459406*
X364943Y459172*
X365114Y458469*
Y458000*
X364943Y457297*
X364602Y456828*
X364091Y456594*
X363580*
X363068Y456828*
X362898Y457062*
X362898D02*
X362727Y457531D01*
X418750Y461516D02*
Y457766D01*
X418580Y457062*
X418580D02*
X418409Y456828D01*
X418068Y456594*
X417727*
X417386Y456828*
X417216Y457062*
X417216D02*
X417045Y457766D01*
Y458234*
X420284Y460578D02*
X420625Y460812D01*
X420625D02*
X421136Y461516D01*
Y456594*
X424375Y461516D02*
X422670Y458234D01*
X425227*
X424375Y461516D02*
Y456594D01*
X495955Y481375D02*
Y476875D01*
X495727Y476031*
X495500Y475750*
X495045Y475469*
X494591*
X494136Y475750*
X493909Y476031*
X493682Y476875*
Y477437*
X500955Y481375D02*
X498682D01*
X498455Y478844*
X498682Y479125*
X499364Y479406*
X500045*
X500727Y479125*
X501182Y478562*
X501182D02*
X501409Y477719D01*
X501182Y477156*
X500955Y476312*
X500955D02*
X500500Y475750D01*
X499818Y475469*
X499136*
X498455Y475750*
X498227Y476031*
X498000Y476594*
X438864Y461516D02*
Y457766D01*
X438693Y457062*
X438693D02*
X438523Y456828D01*
X438182Y456594*
X437841*
X437500Y456828*
X437330Y457062*
X437330D02*
X437159Y457766D01*
Y458234*
X440398Y460578D02*
X440739Y460812D01*
X440739D02*
X441250Y461516D01*
Y456594*
X445000Y461516D02*
X443295D01*
X443125Y459406*
X443295Y459641*
X443807Y459875*
X444318*
X444830Y459641*
X445170Y459172*
X445341Y458469*
X445170Y458000*
X445000Y457297*
X444659Y456828*
X444148Y456594*
X443636*
X443125Y456828*
X442955Y457062*
X442955D02*
X442784Y457531D01*
X498807Y461516D02*
Y457766D01*
X498636Y457062*
X498636D02*
X498466Y456828D01*
X498125Y456594*
X497784*
X497443Y456828*
X497273Y457062*
X497273D02*
X497102Y457766D01*
Y458234*
X500341Y460578D02*
X500682Y460812D01*
X500682D02*
X501193Y461516D01*
Y456594*
X504773Y460812D02*
X504602Y461281D01*
X504091Y461516*
X503750*
X503239Y461281*
X502898Y460578*
X502727Y459406*
Y458234*
X502898Y457297*
X503239Y456828*
X503750Y456594*
X503920*
X504432Y456828*
X504773Y457297*
X504943Y458000*
Y458234*
X504773Y458937*
X504773D02*
X504432Y459406D01*
X503920Y459641*
X503750*
X503239Y459406*
X502898Y458937*
X502898D02*
X502727Y458234D01*
X576182Y481375D02*
Y476875D01*
X575955Y476031*
X575727Y475750*
X575273Y475469*
X574818*
X574364Y475750*
X574136Y476031*
X573909Y476875*
Y477437*
X580955Y480531D02*
X580727Y481094D01*
X580045Y481375*
X579591*
X578909Y481094*
X578455Y480250*
X578227Y478844*
Y477437*
X578227D02*
X578455Y476312D01*
X578455D02*
X578909Y475750D01*
X579591Y475469*
X579818*
X580500Y475750*
X580955Y476312*
X580955D02*
X581182Y477156D01*
Y477437*
X581182D02*
X580955Y478281D01*
X580500Y478844*
X579818Y479125*
X579591*
X578909Y478844*
X578455Y478281*
X578227Y477437*
X518864Y461516D02*
Y457766D01*
X518693Y457062*
X518693D02*
X518523Y456828D01*
X518182Y456594*
X517841*
X517500Y456828*
X517330Y457062*
X517330D02*
X517159Y457766D01*
Y458234*
X520398Y460578D02*
X520739Y460812D01*
X520739D02*
X521250Y461516D01*
Y456594*
X525170Y461516D02*
X523466Y456594D01*
X522784Y461516D02*
X525170D01*
X578295D02*
Y457766D01*
X578125Y457062*
X578125D02*
X577955Y456828D01*
X577614Y456594*
X577273*
X576932Y456828*
X576761Y457062*
X576761D02*
X576591Y457766D01*
Y458234*
X579830Y460578D02*
X580170Y460812D01*
X580170D02*
X580682Y461516D01*
Y456594*
X583068Y461516D02*
X582557Y461281D01*
X582386Y460812*
X582386D02*
Y460344D01*
X582557Y459875*
X582898Y459641*
X583580Y459406*
X584091Y459172*
X584432Y458703*
X584602Y458234*
Y457531*
X584432Y457062*
X584432D02*
X584261Y456828D01*
X583750Y456594*
X583068*
X582557Y456828*
X582386Y457062*
X582386D02*
X582216Y457531D01*
Y458234*
X582386Y458703*
X582727Y459172*
X583239Y459406*
X583920Y459641*
X584261Y459875*
X584432Y460344*
Y460812*
X584432D02*
X584261Y461281D01*
X583750Y461516*
X583068*
X631358Y117812D02*
Y114062D01*
X631358D02*
X631188Y113359D01*
X631188D02*
X631017Y113125D01*
X630676Y112891*
X630335*
X629994Y113125*
X629824Y113359*
X629653Y114062*
X629653D02*
Y114531D01*
X633063Y116641D02*
Y116875D01*
X633063D02*
X633233Y117344D01*
X633403Y117578*
X633744Y117812*
X633744D02*
X634426D01*
X634426D02*
X634767Y117578D01*
X634938Y117344*
X634938D02*
X635108Y116875D01*
Y116406*
X634938Y115937*
X634938D02*
X634597Y115234D01*
X632892Y112891*
X635278*
X637835Y117812D02*
X637324Y117578D01*
X636983Y116875*
X636813Y115703*
X636813D02*
Y115000D01*
X636813D02*
X636983Y113828D01*
X637324Y113125*
X637835Y112891*
X638176*
X638688Y113125*
X638688D02*
X639028Y113828D01*
X639199Y115000*
Y115703*
X639028Y116875*
X638688Y117578*
X638688D02*
X638176Y117812D01*
X638176D02*
X637835D01*
X611807Y147516D02*
Y143766D01*
X611636Y143062*
X611636D02*
X611466Y142828D01*
X611125Y142594*
X610784*
X610443Y142828*
X610273Y143062*
X610273D02*
X610102Y143766D01*
Y144234*
X613511Y146344D02*
Y146578D01*
X613682Y147047*
X613852Y147281*
X614193Y147516*
X614875*
X615216Y147281*
X615386Y147047*
X615557Y146578*
Y146109*
X615386Y145641*
X615045Y144937*
X615045D02*
X613341Y142594D01*
X615727*
X617261Y146578D02*
X617602Y146812D01*
X617602D02*
X618114Y147516D01*
Y142594*
X588273Y267812D02*
Y262891D01*
Y267812D02*
X589807D01*
X589807D02*
X590318Y267578D01*
X590489Y267344*
X590659Y266875*
Y266406*
X590489Y265937*
X590489D02*
X590318Y265703D01*
X589807Y265469*
X588273*
X589466D02*
X590659Y262891D01*
X592193Y266875D02*
X592534Y267109D01*
X593045Y267812*
X593045D02*
Y262891D01*
X587506Y251812D02*
Y246891D01*
Y251812D02*
X589040D01*
X589040D02*
X589551Y251578D01*
X589722Y251344*
X589892Y250875*
Y250406*
X589722Y249937*
X589722D02*
X589551Y249703D01*
X589040Y249469*
X587506*
X588699D02*
X589892Y246891D01*
X591597Y250641D02*
Y250875D01*
X591767Y251344*
X591937Y251578*
X591937D02*
X592278Y251812D01*
X592278D02*
X592960D01*
X592960D02*
X593301Y251578D01*
X593472Y251344*
X593642Y250875*
Y250406*
X593472Y249937*
X593472D02*
X593131Y249234D01*
X591426Y246891*
X593812*
X587506Y236812D02*
Y231891D01*
Y236812D02*
X589040D01*
X589040D02*
X589551Y236578D01*
X589722Y236344*
X589892Y235875*
Y235406*
X589722Y234937*
X589722D02*
X589551Y234703D01*
X589040Y234469*
X587506*
X588699D02*
X589892Y231891D01*
X591767Y236812D02*
X593642D01*
X593642D02*
X592619Y234937D01*
X592619D02*
X593131D01*
X593131D02*
X593472Y234703D01*
X593642Y234469*
X593812Y233766*
X593812D02*
Y233297D01*
X593812D02*
X593642Y232594D01*
X593301Y232125*
X592790Y231891*
X592278*
X591767Y232125*
X591597Y232359*
X591426Y232828*
X587420Y194812D02*
Y189891D01*
Y194812D02*
X588955D01*
X588955D02*
X589466Y194578D01*
X589636Y194344*
X589807Y193875*
Y193406*
X589636Y192937*
X589636D02*
X589466Y192703D01*
X588955Y192469*
X587420*
X588614D02*
X589807Y189891D01*
X593045Y194812D02*
X591341Y191531D01*
X593898*
X593045Y194812D02*
Y189891D01*
X587420Y210812D02*
Y205891D01*
Y210812D02*
X588955D01*
X588955D02*
X589466Y210578D01*
X589636Y210344*
X589807Y209875*
Y209406*
X589636Y208937*
X589636D02*
X589466Y208703D01*
X588955Y208469*
X587420*
X588614D02*
X589807Y205891D01*
X593557Y210812D02*
X591852D01*
X591852D02*
X591682Y208703D01*
X591852Y208937*
X591852D02*
X592364Y209172D01*
X592875*
X593386Y208937*
X593386D02*
X593727Y208469D01*
X593898Y207766*
X593727Y207297*
X593557Y206594*
X593216Y206125*
X592705Y205891*
X592193*
X591682Y206125*
X591511Y206359*
X591341Y206828*
X641273Y267812D02*
Y262891D01*
Y267812D02*
X642466D01*
X642466D02*
X642977Y267578D01*
X643318Y267109*
X643489Y266641*
X643659Y265937*
X643659D02*
Y264766D01*
X643489Y264062*
X643489D02*
X643318Y263594D01*
X642977Y263125*
X642466Y262891*
X641273*
X645193Y266875D02*
X645534Y267109D01*
X646045Y267812*
X646045D02*
Y262891D01*
X641506Y251812D02*
Y246891D01*
Y251812D02*
X642699D01*
X642699D02*
X643210Y251578D01*
X643551Y251109*
X643722Y250641*
X643892Y249937*
X643892D02*
Y248766D01*
X643722Y248062*
X643722D02*
X643551Y247594D01*
X643210Y247125*
X642699Y246891*
X641506*
X645597Y250641D02*
Y250875D01*
X645767Y251344*
X645937Y251578*
X645937D02*
X646278Y251812D01*
X646278D02*
X646960D01*
X646960D02*
X647301Y251578D01*
X647472Y251344*
X647642Y250875*
Y250406*
X647472Y249937*
X647472D02*
X647131Y249234D01*
X645426Y246891*
X647812*
X641506Y237812D02*
Y232891D01*
Y237812D02*
X642699D01*
X642699D02*
X643210Y237578D01*
X643551Y237109*
X643722Y236641*
X643892Y235937*
X643892D02*
Y234766D01*
X643722Y234062*
X643722D02*
X643551Y233594D01*
X643210Y233125*
X642699Y232891*
X641506*
X645767Y237812D02*
X647642D01*
X647642D02*
X646619Y235937D01*
X646619D02*
X647131D01*
X647131D02*
X647472Y235703D01*
X647642Y235469*
X647812Y234766*
X647812D02*
Y234297D01*
X647812D02*
X647642Y233594D01*
X647301Y233125*
X646790Y232891*
X646278*
X645767Y233125*
X645597Y233359*
X645426Y233828*
X641420Y195813D02*
Y190891D01*
Y195813D02*
X642614D01*
X642614D02*
X643125Y195578D01*
X643466Y195109*
X643636Y194641*
X643807Y193938*
X643807D02*
Y192766D01*
X643636Y192063*
X643636D02*
X643466Y191594D01*
X643125Y191125*
X642614Y190891*
X641420*
X647045Y195813D02*
X645341Y192531D01*
X647898*
X647045Y195813D02*
Y190891D01*
X641420Y210813D02*
Y205891D01*
Y210813D02*
X642614D01*
X642614D02*
X643125Y210578D01*
X643466Y210109*
X643636Y209641*
X643807Y208938*
X643807D02*
Y207766D01*
X643636Y207063*
X643636D02*
X643466Y206594D01*
X643125Y206125*
X642614Y205891*
X641420*
X647557Y210813D02*
X645852D01*
X645852D02*
X645682Y208703D01*
X645852Y208938*
X645852D02*
X646364Y209172D01*
X646875*
X647386Y208938*
X647386D02*
X647727Y208469D01*
X647898Y207766*
X647727Y207297*
X647557Y206594*
X647216Y206125*
X646705Y205891*
X646193*
X645682Y206125*
X645511Y206359*
X645341Y206828*
X610773Y274250D02*
Y270313D01*
X609818Y274250D02*
X611727D01*
X612955Y273500D02*
X613227Y273688D01*
X613227D02*
X613636Y274250D01*
Y270313*
X610159Y259250D02*
Y255313D01*
X609205Y259250D02*
X611114D01*
X612477Y258313D02*
Y258500D01*
X612614Y258875*
X612750Y259063*
X612750D02*
X613023Y259250D01*
X613568*
X613841Y259063*
X613841D02*
X613977Y258875D01*
X614114Y258500*
Y258125*
X613977Y257750*
X613705Y257188*
X613705D02*
X612341Y255313D01*
X612341D02*
X614250D01*
X610159Y244250D02*
Y240313D01*
X609205Y244250D02*
X611114D01*
X612614D02*
X614114D01*
X613295Y242750*
X613705*
X613977Y242563*
X613977D02*
X614114Y242375D01*
X614250Y241813*
X614250D02*
Y241438D01*
X614250D02*
X614114Y240875D01*
X613841Y240500*
X613432Y240313*
X613432D02*
X613023D01*
X613023D02*
X612614Y240500D01*
X612477Y240688*
X612477D02*
X612341Y241063D01*
X623091Y218250D02*
Y214313D01*
X622136Y218250D02*
X624045D01*
X627045D02*
X625682D01*
X625545Y216563*
X625545D02*
X625682Y216750D01*
X626091Y216938*
X626091D02*
X626500D01*
X626500D02*
X626909Y216750D01*
X627182Y216375*
X627318Y215813*
X627318D02*
X627182Y215438D01*
X627182D02*
X627045Y214875D01*
X626773Y214500*
X626364Y214313*
X626364D02*
X625955D01*
X625955D02*
X625545Y214500D01*
X625409Y214688*
X625409D02*
X625273Y215063D01*
X623091Y187250D02*
Y183313D01*
X622136Y187250D02*
X624045D01*
X626636D02*
X625273Y184625D01*
X627318*
X626636Y187250D02*
Y183313D01*
X613227Y123250D02*
Y119313D01*
X612273Y123250D02*
X614182D01*
X617045Y122688D02*
X616909Y123063D01*
X616909D02*
X616500Y123250D01*
X616227*
X615818Y123063*
X615818D02*
X615545Y122500D01*
X615409Y121563*
X615409D02*
Y120625D01*
X615545Y119875*
X615818Y119500*
X616227Y119313*
X616227D02*
X616364D01*
X616364D02*
X616773Y119500D01*
X617045Y119875*
X617182Y120438*
X617182D02*
Y120625D01*
X617045Y121188*
X617045D02*
X616773Y121563D01*
X616773D02*
X616364Y121750D01*
X616227*
X615818Y121563*
X615818D02*
X615545Y121188D01*
X615545D02*
X615409Y120625D01*
X428733Y489182D02*
X428597Y489557D01*
X428324Y489932*
X428051Y490119*
X427506*
X427233Y489932*
X426960Y489557*
X426824Y489182*
X426687Y488619*
X426687D02*
Y487682D01*
X426687D02*
X426824Y487119D01*
X426960Y486744*
X427233Y486369*
X427506Y486182*
X428051*
X428324Y486369*
X428597Y486744*
X428733Y487119*
X429960Y489369D02*
X430233Y489557D01*
X430642Y490119*
Y486182*
X432687Y490119D02*
X432278Y489932D01*
X432006Y489369*
X431869Y488432*
Y487869*
X432006Y486932*
X432278Y486369*
X432687Y486182*
X432687D02*
X432960D01*
X433369Y486369*
X433642Y486932*
X433778Y487869*
Y488432*
X433642Y489369*
X433369Y489932*
X432960Y490119*
X432687*
X508733Y488795D02*
X508597Y489170D01*
X508324Y489545*
X508051Y489733*
X507506*
X507233Y489545*
X506960Y489170*
X506824Y488795*
X506687Y488233*
X506687D02*
Y487295D01*
X506687D02*
X506824Y486733D01*
X506960Y486358*
X507233Y485983*
X507506Y485795*
X508051*
X508324Y485983*
X508597Y486358*
X508733Y486733*
X509960Y488983D02*
X510233Y489170D01*
X510642Y489733*
Y485795*
X511869Y488983D02*
X512142Y489170D01*
X512551Y489733*
Y485795*
X102687Y218227D02*
X102312Y218091D01*
X102312D02*
X101937Y217818D01*
X101937D02*
X101750Y217545D01*
Y217000*
X101937Y216727*
X101937D02*
X102312Y216455D01*
X102312D02*
X102687Y216318D01*
X102687D02*
X103250Y216182D01*
X104187*
X104187D02*
X104750Y216318D01*
X105125Y216455*
X105500Y216727*
X105687Y217000*
X105687D02*
Y217545D01*
X105687D02*
X105500Y217818D01*
X105125Y218091*
X104750Y218227*
X102500Y219455D02*
X102312Y219727D01*
X102312D02*
X101750Y220136D01*
X105687*
X102687Y221500D02*
X102500D01*
X102125Y221636*
X101937Y221773*
X101937D02*
X101750Y222045D01*
Y222591*
X101937Y222864*
X101937D02*
X102125Y223000D01*
X102500Y223136*
X102875*
X103250Y223000*
X103812Y222727*
X103812D02*
X105687Y221364D01*
X105687D02*
Y223273D01*
X189312Y227864D02*
X188937Y227727D01*
X188937D02*
X188562Y227455D01*
X188562D02*
X188375Y227182D01*
Y226636*
X188562Y226364*
X188562D02*
X188937Y226091D01*
X188937D02*
X189312Y225955D01*
X189312D02*
X189875Y225818D01*
X190812*
X190812D02*
X191375Y225955D01*
X191750Y226091*
X192125Y226364*
X192312Y226636*
X192312D02*
Y227182D01*
X192312D02*
X192125Y227455D01*
X191750Y227727*
X191375Y227864*
X189125Y229091D02*
X188937Y229364D01*
X188937D02*
X188375Y229773D01*
X192312*
X188375Y231273D02*
Y232773D01*
X189875Y231955*
Y232364*
X190062Y232636*
X190062D02*
X190250Y232773D01*
X190812Y232909*
X190812D02*
X191187D01*
X191187D02*
X191750Y232773D01*
X192125Y232500*
X192312Y232091*
X192312D02*
Y231682D01*
X192312D02*
X192125Y231273D01*
X191937Y231136*
X191937D02*
X191562Y231000D01*
X268312Y227932D02*
X267937Y227795D01*
X267937D02*
X267562Y227523D01*
X267562D02*
X267375Y227250D01*
Y226705*
X267562Y226432*
X267562D02*
X267937Y226159D01*
X267937D02*
X268312Y226023D01*
X268312D02*
X268875Y225886D01*
X269812*
X269812D02*
X270375Y226023D01*
X270750Y226159*
X271125Y226432*
X271312Y226705*
X271312D02*
Y227250D01*
X271312D02*
X271125Y227523D01*
X270750Y227795*
X270375Y227932*
X268125Y229159D02*
X267937Y229432D01*
X267937D02*
X267375Y229841D01*
X271312*
X267375Y232432D02*
X270000Y231068D01*
Y233114*
X267375Y232432D02*
X271312D01*
X348312Y227932D02*
X347937Y227795D01*
X347937D02*
X347562Y227523D01*
X347562D02*
X347375Y227250D01*
Y226705*
X347562Y226432*
X347562D02*
X347937Y226159D01*
X347937D02*
X348312Y226023D01*
X348312D02*
X348875Y225886D01*
X349812*
X349812D02*
X350375Y226023D01*
X350750Y226159*
X351125Y226432*
X351312Y226705*
X351312D02*
Y227250D01*
X351312D02*
X351125Y227523D01*
X350750Y227795*
X350375Y227932*
X348125Y229159D02*
X347937Y229432D01*
X347937D02*
X347375Y229841D01*
X351312*
X347375Y232841D02*
Y231477D01*
X349062Y231341*
X349062D02*
X348875Y231477D01*
X348687Y231886*
X348687D02*
Y232295D01*
X348687D02*
X348875Y232705D01*
X349250Y232977*
X349812Y233114*
X349812D02*
X350187Y232977D01*
X350187D02*
X350750Y232841D01*
X351125Y232568*
X351312Y232159*
X351312D02*
Y231750D01*
X351312D02*
X351125Y231341D01*
X350937Y231205*
X350937D02*
X350562Y231068D01*
X429312Y227795D02*
X428937Y227659D01*
X428937D02*
X428562Y227386D01*
X428562D02*
X428375Y227114D01*
Y226568*
X428562Y226295*
X428562D02*
X428937Y226023D01*
X428937D02*
X429312Y225886D01*
X429312D02*
X429875Y225750D01*
X430812*
X430812D02*
X431375Y225886D01*
X431750Y226023*
X432125Y226295*
X432312Y226568*
X432312D02*
Y227114D01*
X432312D02*
X432125Y227386D01*
X431750Y227659*
X431375Y227795*
X429125Y229023D02*
X428937Y229295D01*
X428937D02*
X428375Y229705D01*
X432312*
X428937Y232568D02*
X428562Y232432D01*
X428562D02*
X428375Y232023D01*
Y231750*
X428562Y231341*
X428562D02*
X429125Y231068D01*
X430062Y230932*
X430062D02*
X431000D01*
X431750Y231068*
X432125Y231341*
X432312Y231750*
X432312D02*
Y231886D01*
X432312D02*
X432125Y232295D01*
X431750Y232568*
X431187Y232705*
X431187D02*
X431000D01*
X430437Y232568*
X430437D02*
X430062Y232295D01*
X430062D02*
X429875Y231886D01*
Y231750*
X430062Y231341*
X430062D02*
X430437Y231068D01*
X430437D02*
X431000Y230932D01*
X508312Y227864D02*
X507937Y227727D01*
X507937D02*
X507562Y227455D01*
X507562D02*
X507375Y227182D01*
Y226636*
X507562Y226364*
X507562D02*
X507937Y226091D01*
X507937D02*
X508312Y225955D01*
X508312D02*
X508875Y225818D01*
X509812*
X509812D02*
X510375Y225955D01*
X510750Y226091*
X511125Y226364*
X511312Y226636*
X511312D02*
Y227182D01*
X511312D02*
X511125Y227455D01*
X510750Y227727*
X510375Y227864*
X508125Y229091D02*
X507937Y229364D01*
X507937D02*
X507375Y229773D01*
X511312*
X507375Y232909D02*
X511312Y231545D01*
X507375Y231000D02*
Y232909D01*
X197313Y118864D02*
X196938Y118727D01*
X196938D02*
X196563Y118455D01*
X196563D02*
X196375Y118182D01*
Y117636*
X196563Y117364*
X196563D02*
X196938Y117091D01*
X196938D02*
X197313Y116955D01*
X197313D02*
X197875Y116818D01*
X198813*
X198813D02*
X199375Y116955D01*
X199750Y117091*
X200125Y117364*
X200313Y117636*
X200313D02*
Y118182D01*
X200313D02*
X200125Y118455D01*
X199750Y118727*
X199375Y118864*
X197125Y120091D02*
X196938Y120364D01*
X196938D02*
X196375Y120773D01*
X200313*
X196375Y122682D02*
X196563Y122273D01*
X196563D02*
X196938Y122136D01*
X196938D02*
X197313D01*
X197313D02*
X197688Y122273D01*
X197688D02*
X197875Y122545D01*
X198063Y123091*
X198063D02*
X198250Y123500D01*
X198625Y123773*
X199000Y123909*
X199563*
X199563D02*
X199938Y123773D01*
X199938D02*
X200125Y123636D01*
X200313Y123227*
X200313D02*
Y122682D01*
X200313D02*
X200125Y122273D01*
X199938Y122136*
X199938D02*
X199563Y122000D01*
X199563D02*
X199000D01*
X198625Y122136*
X198250Y122409*
X198063Y122818*
X198063D02*
X197875Y123364D01*
X197688Y123636*
X197688D02*
X197313Y123773D01*
X197313D02*
X196938D01*
X196938D02*
X196563Y123636D01*
X196563D02*
X196375Y123227D01*
Y122682*
X278313Y118795D02*
X277938Y118659D01*
X277938D02*
X277563Y118386D01*
X277563D02*
X277375Y118114D01*
Y117568*
X277563Y117295*
X277563D02*
X277938Y117023D01*
X277938D02*
X278313Y116886D01*
X278313D02*
X278875Y116750D01*
X279813*
X279813D02*
X280375Y116886D01*
X280750Y117023*
X281125Y117295*
X281313Y117568*
X281313D02*
Y118114D01*
X281313D02*
X281125Y118386D01*
X280750Y118659*
X280375Y118795*
X278125Y120023D02*
X277938Y120295D01*
X277938D02*
X277375Y120705D01*
X281313*
X278688Y123705D02*
X279250Y123568D01*
X279625Y123295*
X279813Y122886*
X279813D02*
Y122750D01*
X279813D02*
X279625Y122341D01*
X279250Y122068*
X278688Y121932*
X278688D02*
X278500D01*
X277938Y122068*
X277938D02*
X277563Y122341D01*
X277563D02*
X277375Y122750D01*
Y122886*
X277563Y123295*
X277563D02*
X277938Y123568D01*
X277938D02*
X278688Y123705D01*
X278688D02*
X279625D01*
X280563Y123568*
X280563D02*
X281125Y123295D01*
X281313Y122886*
X281313D02*
Y122614D01*
X281313D02*
X281125Y122205D01*
X280750Y122068*
X357313Y118477D02*
X356938Y118341D01*
X356938D02*
X356563Y118068D01*
X356563D02*
X356375Y117795D01*
Y117250*
X356563Y116977*
X356563D02*
X356938Y116705D01*
X356938D02*
X357313Y116568D01*
X357313D02*
X357875Y116432D01*
X358813*
X358813D02*
X359375Y116568D01*
X359750Y116705*
X360125Y116977*
X360313Y117250*
X360313D02*
Y117795D01*
X360313D02*
X360125Y118068D01*
X359750Y118341*
X359375Y118477*
X357313Y119841D02*
X357125D01*
X356750Y119977*
X356563Y120114*
X356563D02*
X356375Y120386D01*
Y120932*
X356563Y121205*
X356563D02*
X356750Y121341D01*
X357125Y121477*
X357500*
X357875Y121341*
X358438Y121068*
X358438D02*
X360313Y119705D01*
X360313D02*
Y121614D01*
X356375Y123659D02*
X356563Y123250D01*
X356563D02*
X357125Y122977D01*
X358063Y122841*
X358063D02*
X358625D01*
X359563Y122977*
X359563D02*
X360125Y123250D01*
X360313Y123659*
X360313D02*
Y123932D01*
X360313D02*
X360125Y124341D01*
X359563Y124614*
X359563D02*
X358625Y124750D01*
X358063*
X358063D02*
X357125Y124614D01*
X356563Y124341*
X356563D02*
X356375Y123932D01*
Y123659*
X437313Y118864D02*
X436938Y118727D01*
X436938D02*
X436563Y118455D01*
X436563D02*
X436375Y118182D01*
Y117636*
X436563Y117364*
X436563D02*
X436938Y117091D01*
X436938D02*
X437313Y116955D01*
X437313D02*
X437875Y116818D01*
X438813*
X438813D02*
X439375Y116955D01*
X439750Y117091*
X440125Y117364*
X440313Y117636*
X440313D02*
Y118182D01*
X440313D02*
X440125Y118455D01*
X439750Y118727*
X439375Y118864*
X437313Y120227D02*
X437125D01*
X436750Y120364*
X436563Y120500*
X436563D02*
X436375Y120773D01*
Y121318*
X436563Y121591*
X436563D02*
X436750Y121727D01*
X437125Y121864*
X437500*
X437875Y121727*
X438438Y121455*
X438438D02*
X440313Y120091D01*
X440313D02*
Y122000D01*
X437125Y123227D02*
X436938Y123500D01*
X436938D02*
X436375Y123909D01*
X440313*
X517313Y117477D02*
X516938Y117341D01*
X516938D02*
X516563Y117068D01*
X516563D02*
X516375Y116795D01*
Y116250*
X516563Y115977*
X516563D02*
X516938Y115705D01*
X516938D02*
X517313Y115568D01*
X517313D02*
X517875Y115432D01*
X518813*
X518813D02*
X519375Y115568D01*
X519750Y115705*
X520125Y115977*
X520313Y116250*
X520313D02*
Y116795D01*
X520313D02*
X520125Y117068D01*
X519750Y117341*
X519375Y117477*
X517313Y118841D02*
X517125D01*
X516750Y118977*
X516563Y119114*
X516563D02*
X516375Y119386D01*
Y119932*
X516563Y120205*
X516563D02*
X516750Y120341D01*
X517125Y120477*
X517500*
X517875Y120341*
X518438Y120068*
X518438D02*
X520313Y118705D01*
X520313D02*
Y120614D01*
X517313Y121977D02*
X517125D01*
X516750Y122114*
X516563Y122250*
X516563D02*
X516375Y122523D01*
Y123068*
X516563Y123341*
X516563D02*
X516750Y123477D01*
X517125Y123614*
X517500*
X517875Y123477*
X518438Y123205*
X518438D02*
X520313Y121841D01*
X520313D02*
Y123750D01*
X587312Y126477D02*
X586937Y126341D01*
X586937D02*
X586562Y126068D01*
X586562D02*
X586375Y125795D01*
Y125250*
X586562Y124977*
X586562D02*
X586937Y124705D01*
X586937D02*
X587312Y124568D01*
X587312D02*
X587875Y124432D01*
X588812*
X588812D02*
X589375Y124568D01*
X589750Y124705*
X590125Y124977*
X590312Y125250*
X590312D02*
Y125795D01*
X590312D02*
X590125Y126068D01*
X589750Y126341*
X589375Y126477*
X587312Y127841D02*
X587125D01*
X586750Y127977*
X586562Y128114*
X586562D02*
X586375Y128386D01*
Y128932*
X586562Y129205*
X586562D02*
X586750Y129341D01*
X587125Y129477*
X587500*
X587875Y129341*
X588437Y129068*
X588437D02*
X590312Y127705D01*
X590312D02*
Y129614D01*
X586375Y131114D02*
Y132614D01*
X587875Y131795*
Y132205*
X588062Y132477*
X588062D02*
X588250Y132614D01*
X588812Y132750*
X588812D02*
X589187D01*
X589187D02*
X589750Y132614D01*
X590125Y132341*
X590312Y131932*
X590312D02*
Y131523D01*
X590312D02*
X590125Y131114D01*
X589937Y130977*
X589937D02*
X589562Y130841D01*
X107733Y141500D02*
X107597Y141875D01*
X107324Y142250*
X107051Y142437*
X107051D02*
X106506D01*
X106506D02*
X106233Y142250D01*
X105960Y141875*
X105824Y141500*
X105688Y140937*
X105688D02*
Y140000D01*
X105688D02*
X105824Y139437D01*
X105824D02*
X105960Y139062D01*
X105960D02*
X106233Y138687D01*
X106233D02*
X106506Y138500D01*
X107051*
X107324Y138687*
X107324D02*
X107597Y139062D01*
X107597D02*
X107733Y139437D01*
X109097Y141500D02*
Y141687D01*
X109097D02*
X109233Y142062D01*
X109233D02*
X109369Y142250D01*
X109642Y142437*
X109642D02*
X110188D01*
X110188D02*
X110460Y142250D01*
X110597Y142062*
X110597D02*
X110733Y141687D01*
X110733D02*
Y141312D01*
X110733D02*
X110597Y140937D01*
X110597D02*
X110324Y140375D01*
X108960Y138500*
X110869*
X113460Y142437D02*
X112097Y139812D01*
X112097D02*
X114142D01*
X113460Y142437D02*
Y138500D01*
X189313Y137545D02*
X188938Y137409D01*
X188938D02*
X188563Y137136D01*
X188563D02*
X188375Y136864D01*
Y136318*
X188563Y136045*
X188563D02*
X188938Y135773D01*
X188938D02*
X189313Y135636D01*
X189313D02*
X189875Y135500D01*
X190813*
X190813D02*
X191375Y135636D01*
X191750Y135773*
X192125Y136045*
X192313Y136318*
X192313D02*
Y136864D01*
X192313D02*
X192125Y137136D01*
X191750Y137409*
X191375Y137545*
X189313Y138909D02*
X189125D01*
X188750Y139045*
X188563Y139182*
X188563D02*
X188375Y139455D01*
Y140000*
X188563Y140273*
X188563D02*
X188750Y140409D01*
X189125Y140545*
X189500*
X189875Y140409*
X190438Y140136*
X190438D02*
X192313Y138773D01*
X192313D02*
Y140682D01*
X188375Y143682D02*
Y142318D01*
X190063Y142182*
X190063D02*
X189875Y142318D01*
X189688Y142727*
X189688D02*
Y143136D01*
X189688D02*
X189875Y143545D01*
X190250Y143818*
X190813Y143955*
X190813D02*
X191188Y143818D01*
X191188D02*
X191750Y143682D01*
X192125Y143409*
X192313Y143000*
X192313D02*
Y142591D01*
X192313D02*
X192125Y142182D01*
X191938Y142045*
X191938D02*
X191563Y141909D01*
X268313Y137409D02*
X267938Y137273D01*
X267938D02*
X267563Y137000D01*
X267563D02*
X267375Y136727D01*
Y136182*
X267563Y135909*
X267563D02*
X267938Y135636D01*
X267938D02*
X268313Y135500D01*
X268313D02*
X268875Y135364D01*
X269813*
X269813D02*
X270375Y135500D01*
X270750Y135636*
X271125Y135909*
X271313Y136182*
X271313D02*
Y136727D01*
X271313D02*
X271125Y137000D01*
X270750Y137273*
X270375Y137409*
X268313Y138773D02*
X268125D01*
X267750Y138909*
X267563Y139045*
X267563D02*
X267375Y139318D01*
Y139864*
X267563Y140136*
X267563D02*
X267750Y140273D01*
X268125Y140409*
X268500*
X268875Y140273*
X269438Y140000*
X269438D02*
X271313Y138636D01*
X271313D02*
Y140545D01*
X267938Y143409D02*
X267563Y143273D01*
X267563D02*
X267375Y142864D01*
Y142591*
X267563Y142182*
X267563D02*
X268125Y141909D01*
X269063Y141773*
X269063D02*
X270000D01*
X270750Y141909*
X271125Y142182*
X271313Y142591*
X271313D02*
Y142727D01*
X271313D02*
X271125Y143136D01*
X270750Y143409*
X270188Y143545*
X270188D02*
X270000D01*
X269438Y143409*
X269438D02*
X269063Y143136D01*
X269063D02*
X268875Y142727D01*
Y142591*
X269063Y142182*
X269063D02*
X269438Y141909D01*
X269438D02*
X270000Y141773D01*
X349313Y136477D02*
X348938Y136341D01*
X348938D02*
X348563Y136068D01*
X348563D02*
X348375Y135795D01*
Y135250*
X348563Y134977*
X348563D02*
X348938Y134705D01*
X348938D02*
X349313Y134568D01*
X349313D02*
X349875Y134432D01*
X350813*
X350813D02*
X351375Y134568D01*
X351750Y134705*
X352125Y134977*
X352313Y135250*
X352313D02*
Y135795D01*
X352313D02*
X352125Y136068D01*
X351750Y136341*
X351375Y136477*
X349313Y137841D02*
X349125D01*
X348750Y137977*
X348563Y138114*
X348563D02*
X348375Y138386D01*
Y138932*
X348563Y139205*
X348563D02*
X348750Y139341D01*
X349125Y139477*
X349500*
X349875Y139341*
X350438Y139068*
X350438D02*
X352313Y137705D01*
X352313D02*
Y139614D01*
X348375Y142750D02*
X352313Y141386D01*
X348375Y140841D02*
Y142750D01*
X429313Y137477D02*
X428938Y137341D01*
X428938D02*
X428563Y137068D01*
X428563D02*
X428375Y136795D01*
Y136250*
X428563Y135977*
X428563D02*
X428938Y135705D01*
X428938D02*
X429313Y135568D01*
X429313D02*
X429875Y135432D01*
X430813*
X430813D02*
X431375Y135568D01*
X431750Y135705*
X432125Y135977*
X432313Y136250*
X432313D02*
Y136795D01*
X432313D02*
X432125Y137068D01*
X431750Y137341*
X431375Y137477*
X429313Y138841D02*
X429125D01*
X428750Y138977*
X428563Y139114*
X428563D02*
X428375Y139386D01*
Y139932*
X428563Y140205*
X428563D02*
X428750Y140341D01*
X429125Y140477*
X429500*
X429875Y140341*
X430438Y140068*
X430438D02*
X432313Y138705D01*
X432313D02*
Y140614D01*
X428375Y142523D02*
X428563Y142114D01*
X428563D02*
X428938Y141977D01*
X428938D02*
X429313D01*
X429313D02*
X429688Y142114D01*
X429688D02*
X429875Y142386D01*
X430063Y142932*
X430063D02*
X430250Y143341D01*
X430625Y143614*
X431000Y143750*
X431563*
X431563D02*
X431938Y143614D01*
X431938D02*
X432125Y143477D01*
X432313Y143068*
X432313D02*
Y142523D01*
X432313D02*
X432125Y142114D01*
X431938Y141977*
X431938D02*
X431563Y141841D01*
X431563D02*
X431000D01*
X430625Y141977*
X430250Y142250*
X430063Y142659*
X430063D02*
X429875Y143205D01*
X429688Y143477*
X429688D02*
X429313Y143614D01*
X429313D02*
X428938D01*
X428938D02*
X428563Y143477D01*
X428563D02*
X428375Y143068D01*
Y142523*
X508313Y137409D02*
X507938Y137273D01*
X507938D02*
X507563Y137000D01*
X507563D02*
X507375Y136727D01*
Y136182*
X507563Y135909*
X507563D02*
X507938Y135636D01*
X507938D02*
X508313Y135500D01*
X508313D02*
X508875Y135364D01*
X509813*
X509813D02*
X510375Y135500D01*
X510750Y135636*
X511125Y135909*
X511313Y136182*
X511313D02*
Y136727D01*
X511313D02*
X511125Y137000D01*
X510750Y137273*
X510375Y137409*
X508313Y138773D02*
X508125D01*
X507750Y138909*
X507563Y139045*
X507563D02*
X507375Y139318D01*
Y139864*
X507563Y140136*
X507563D02*
X507750Y140273D01*
X508125Y140409*
X508500*
X508875Y140273*
X509438Y140000*
X509438D02*
X511313Y138636D01*
X511313D02*
Y140545D01*
X508688Y143545D02*
X509250Y143409D01*
X509625Y143136*
X509813Y142727*
X509813D02*
Y142591D01*
X509813D02*
X509625Y142182D01*
X509250Y141909*
X508688Y141773*
X508688D02*
X508500D01*
X507938Y141909*
X507938D02*
X507563Y142182D01*
X507563D02*
X507375Y142591D01*
Y142727*
X507563Y143136*
X507563D02*
X507938Y143409D01*
X507938D02*
X508688Y143545D01*
X508688D02*
X509625D01*
X510563Y143409*
X510563D02*
X511125Y143136D01*
X511313Y142727*
X511313D02*
Y142455D01*
X511313D02*
X511125Y142045D01*
X510750Y141909*
X102688Y187614D02*
X102313Y187477D01*
X102313D02*
X101938Y187205D01*
X101938D02*
X101750Y186932D01*
Y186386*
X101938Y186114*
X101938D02*
X102313Y185841D01*
X102313D02*
X102688Y185705D01*
X102688D02*
X103250Y185568D01*
X104188*
X104188D02*
X104750Y185705D01*
X105125Y185841*
X105500Y186114*
X105688Y186386*
X105688D02*
Y186932D01*
X105688D02*
X105500Y187205D01*
X105125Y187477*
X104750Y187614*
X101750Y189114D02*
Y190614D01*
X103250Y189795*
Y190205*
X103438Y190477*
X103438D02*
X103625Y190614D01*
X104188Y190750*
X104188D02*
X104563D01*
X104563D02*
X105125Y190614D01*
X105500Y190341*
X105688Y189932*
X105688D02*
Y189523D01*
X105688D02*
X105500Y189114D01*
X105313Y188977*
X105313D02*
X104938Y188841D01*
X101750Y192795D02*
X101938Y192386D01*
X101938D02*
X102500Y192114D01*
X103438Y191977*
X103438D02*
X104000D01*
X104938Y192114*
X104938D02*
X105500Y192386D01*
X105688Y192795*
X105688D02*
Y193068D01*
X105688D02*
X105500Y193477D01*
X104938Y193750*
X104938D02*
X104000Y193886D01*
X103438*
X103438D02*
X102500Y193750D01*
X101938Y193477*
X101938D02*
X101750Y193068D01*
Y192795*
X191687Y175227D02*
X191312Y175091D01*
X191312D02*
X190937Y174818D01*
X190937D02*
X190750Y174545D01*
Y174000*
X190937Y173727*
X190937D02*
X191312Y173455D01*
X191312D02*
X191687Y173318D01*
X191687D02*
X192250Y173182D01*
X193187*
X193187D02*
X193750Y173318D01*
X194125Y173455*
X194500Y173727*
X194687Y174000*
X194687D02*
Y174545D01*
X194687D02*
X194500Y174818D01*
X194125Y175091*
X193750Y175227*
X190750Y176727D02*
Y178227D01*
X192250Y177409*
Y177818*
X192437Y178091*
X192437D02*
X192625Y178227D01*
X193187Y178364*
X193187D02*
X193562D01*
X193562D02*
X194125Y178227D01*
X194500Y177955*
X194687Y177545*
X194687D02*
Y177136D01*
X194687D02*
X194500Y176727D01*
X194312Y176591*
X194312D02*
X193937Y176455D01*
X191500Y179591D02*
X191312Y179864D01*
X191312D02*
X190750Y180273D01*
X194687*
X270687Y173614D02*
X270312Y173477D01*
X270312D02*
X269937Y173205D01*
X269937D02*
X269750Y172932D01*
Y172386*
X269937Y172114*
X269937D02*
X270312Y171841D01*
X270312D02*
X270687Y171705D01*
X270687D02*
X271250Y171568D01*
X272187*
X272187D02*
X272750Y171705D01*
X273125Y171841*
X273500Y172114*
X273687Y172386*
X273687D02*
Y172932D01*
X273687D02*
X273500Y173205D01*
X273125Y173477*
X272750Y173614*
X269750Y175114D02*
Y176614D01*
X271250Y175795*
Y176205*
X271437Y176477*
X271437D02*
X271625Y176614D01*
X272187Y176750*
X272187D02*
X272562D01*
X272562D02*
X273125Y176614D01*
X273500Y176341*
X273687Y175932*
X273687D02*
Y175523D01*
X273687D02*
X273500Y175114D01*
X273312Y174977*
X273312D02*
X272937Y174841D01*
X270687Y178114D02*
X270500D01*
X270125Y178250*
X269937Y178386*
X269937D02*
X269750Y178659D01*
Y179205*
X269937Y179477*
X269937D02*
X270125Y179614D01*
X270500Y179750*
X270875*
X271250Y179614*
X271812Y179341*
X271812D02*
X273687Y177977D01*
X273687D02*
Y179886D01*
X351687Y174614D02*
X351312Y174477D01*
X351312D02*
X350937Y174205D01*
X350937D02*
X350750Y173932D01*
Y173386*
X350937Y173114*
X350937D02*
X351312Y172841D01*
X351312D02*
X351687Y172705D01*
X351687D02*
X352250Y172568D01*
X353187*
X353187D02*
X353750Y172705D01*
X354125Y172841*
X354500Y173114*
X354687Y173386*
X354687D02*
Y173932D01*
X354687D02*
X354500Y174205D01*
X354125Y174477*
X353750Y174614*
X350750Y176114D02*
Y177614D01*
X352250Y176795*
Y177205*
X352437Y177477*
X352437D02*
X352625Y177614D01*
X353187Y177750*
X353187D02*
X353562D01*
X353562D02*
X354125Y177614D01*
X354500Y177341*
X354687Y176932*
X354687D02*
Y176523D01*
X354687D02*
X354500Y176114D01*
X354312Y175977*
X354312D02*
X353937Y175841D01*
X350750Y179250D02*
Y180750D01*
X352250Y179932*
Y180341*
X352437Y180614*
X352437D02*
X352625Y180750D01*
X353187Y180886*
X353187D02*
X353562D01*
X353562D02*
X354125Y180750D01*
X354500Y180477*
X354687Y180068*
X354687D02*
Y179659D01*
X354687D02*
X354500Y179250D01*
X354312Y179114*
X354312D02*
X353937Y178977D01*
X430687Y174545D02*
X430312Y174409D01*
X430312D02*
X429937Y174136D01*
X429937D02*
X429750Y173864D01*
Y173318*
X429937Y173045*
X429937D02*
X430312Y172773D01*
X430312D02*
X430687Y172636D01*
X430687D02*
X431250Y172500D01*
X432187*
X432187D02*
X432750Y172636D01*
X433125Y172773*
X433500Y173045*
X433687Y173318*
X433687D02*
Y173864D01*
X433687D02*
X433500Y174136D01*
X433125Y174409*
X432750Y174545*
X429750Y176045D02*
Y177545D01*
X431250Y176727*
Y177136*
X431437Y177409*
X431437D02*
X431625Y177545D01*
X432187Y177682*
X432187D02*
X432562D01*
X432562D02*
X433125Y177545D01*
X433500Y177273*
X433687Y176864*
X433687D02*
Y176455D01*
X433687D02*
X433500Y176045D01*
X433312Y175909*
X433312D02*
X432937Y175773D01*
X429750Y180273D02*
X432375Y178909D01*
Y180955*
X429750Y180273D02*
X433687D01*
X510687Y174545D02*
X510312Y174409D01*
X510312D02*
X509937Y174136D01*
X509937D02*
X509750Y173864D01*
Y173318*
X509937Y173045*
X509937D02*
X510312Y172773D01*
X510312D02*
X510687Y172636D01*
X510687D02*
X511250Y172500D01*
X512187*
X512187D02*
X512750Y172636D01*
X513125Y172773*
X513500Y173045*
X513687Y173318*
X513687D02*
Y173864D01*
X513687D02*
X513500Y174136D01*
X513125Y174409*
X512750Y174545*
X509750Y176045D02*
Y177545D01*
X511250Y176727*
Y177136*
X511437Y177409*
X511437D02*
X511625Y177545D01*
X512187Y177682*
X512187D02*
X512562D01*
X512562D02*
X513125Y177545D01*
X513500Y177273*
X513687Y176864*
X513687D02*
Y176455D01*
X513687D02*
X513500Y176045D01*
X513312Y175909*
X513312D02*
X512937Y175773D01*
X509750Y180682D02*
Y179318D01*
X511437Y179182*
X511437D02*
X511250Y179318D01*
X511062Y179727*
X511062D02*
Y180136D01*
X511062D02*
X511250Y180545D01*
X511625Y180818*
X512187Y180955*
X512187D02*
X512562Y180818D01*
X512562D02*
X513125Y180682D01*
X513500Y180409*
X513687Y180000*
X513687D02*
Y179591D01*
X513687D02*
X513500Y179182D01*
X513312Y179045*
X513312D02*
X512937Y178909D01*
X108733Y443205D02*
X108597Y443580D01*
X108324Y443955*
X108051Y444142*
X107506*
X107233Y443955*
X106960Y443580*
X106824Y443205*
X106688Y442642*
X106688D02*
Y441705D01*
X106688D02*
X106824Y441142D01*
X106960Y440767*
X107233Y440392*
X107506Y440205*
X108051*
X108324Y440392*
X108597Y440767*
X108733Y441142*
X111597Y443580D02*
X111460Y443955D01*
X111051Y444142*
X110778*
X110369Y443955*
X110097Y443392*
X109960Y442455*
Y441517*
X110097Y440767*
X110369Y440392*
X110778Y440205*
X110915*
X111324Y440392*
X111597Y440767*
X111733Y441330*
Y441517*
X111597Y442080*
X111324Y442455*
X110915Y442642*
X110778*
X110369Y442455*
X110097Y442080*
X109960Y441517*
X189733Y489136D02*
X189597Y489511D01*
X189324Y489886*
X189051Y490074*
X188506*
X188233Y489886*
X187960Y489511*
X187824Y489136*
X187687Y488574*
X187687D02*
Y487636D01*
X187687D02*
X187824Y487074D01*
X187960Y486699*
X188233Y486324*
X188506Y486136*
X189051*
X189324Y486324*
X189597Y486699*
X189733Y487074*
X192869Y490074D02*
X191506Y486136D01*
X190960Y490074D02*
X192869D01*
X269733Y489136D02*
X269597Y489511D01*
X269324Y489886*
X269051Y490074*
X268506*
X268233Y489886*
X267960Y489511*
X267824Y489136*
X267687Y488574*
X267687D02*
Y487636D01*
X267687D02*
X267824Y487074D01*
X267960Y486699*
X268233Y486324*
X268506Y486136*
X269051*
X269324Y486324*
X269597Y486699*
X269733Y487074*
X271642Y490074D02*
X271233Y489886D01*
X271097Y489511*
Y489136*
X271233Y488761*
X271506Y488574*
X272051Y488386*
X272460Y488199*
X272733Y487824*
X272869Y487449*
Y486886*
X272733Y486511*
X272597Y486324*
X272187Y486136*
X272187D02*
X271642D01*
X271233Y486324*
X271097Y486511*
X270960Y486886*
Y487449*
X271097Y487824*
X271369Y488199*
X271778Y488386*
X272324Y488574*
X272597Y488761*
X272733Y489136*
Y489511*
X272597Y489886*
X272187Y490074*
X272187D02*
X271642D01*
X349733Y489205D02*
X349597Y489580D01*
X349324Y489955*
X349051Y490142*
X348506*
X348233Y489955*
X347960Y489580*
X347824Y489205*
X347687Y488642*
X347687D02*
Y487705D01*
X347687D02*
X347824Y487142D01*
X347960Y486767*
X348233Y486392*
X348506Y486205*
X349051*
X349324Y486392*
X349597Y486767*
X349733Y487142*
X352733Y488830D02*
X352597Y488267D01*
X352324Y487892*
X351915Y487705*
X351778*
X351369Y487892*
X351097Y488267*
X350960Y488830*
Y489017*
X351097Y489580*
X351369Y489955*
X351778Y490142*
X351915*
X352324Y489955*
X352597Y489580*
X352733Y488830*
Y487892*
X352597Y486955*
X352324Y486392*
X351915Y486205*
X351642*
X351233Y486392*
X351097Y486767*
X587733Y444750D02*
X587597Y445125D01*
X587324Y445500*
X587051Y445687*
X587051D02*
X586506D01*
X586506D02*
X586233Y445500D01*
X585960Y445125*
X585824Y444750*
X585687Y444187*
X585687D02*
Y443250D01*
X585687D02*
X585824Y442687D01*
X585824D02*
X585960Y442312D01*
X585960D02*
X586233Y441937D01*
X586233D02*
X586506Y441750D01*
X587051*
X587324Y441937*
X587324D02*
X587597Y442312D01*
X587597D02*
X587733Y442687D01*
X588960Y444937D02*
X589233Y445125D01*
X589642Y445687*
X589642D02*
Y441750D01*
X586733Y419136D02*
X586597Y419511D01*
X586324Y419886*
X586051Y420074*
X585506*
X585233Y419886*
X584960Y419511*
X584824Y419136*
X584687Y418574*
X584687D02*
Y417636D01*
X584687D02*
X584824Y417074D01*
X584960Y416699*
X585233Y416324*
X585506Y416136*
X586051*
X586324Y416324*
X586597Y416699*
X586733Y417074*
X588097Y419136D02*
Y419324D01*
X588233Y419699*
X588369Y419886*
X588642Y420074*
X589187*
X589187D02*
X589460Y419886D01*
X589597Y419699*
X589733Y419324*
Y418949*
X589597Y418574*
X589324Y418011*
X587960Y416136*
X589869*
X586733Y341136D02*
X586597Y341511D01*
X586324Y341886*
X586051Y342074*
X585506*
X585233Y341886*
X584960Y341511*
X584824Y341136*
X584687Y340574*
X584687D02*
Y339636D01*
X584687D02*
X584824Y339074D01*
X584960Y338699*
X585233Y338324*
X585506Y338136*
X586051*
X586324Y338324*
X586597Y338699*
X586733Y339074*
X588233Y342074D02*
X589733D01*
X588915Y340574*
X589324*
X589597Y340386*
X589733Y340199*
X589869Y339636*
Y339261*
X589733Y338699*
X589460Y338324*
X589051Y338136*
X588642*
X588233Y338324*
X588097Y338511*
X587960Y338886*
X586733Y393068D02*
X586597Y393443D01*
X586324Y393818*
X586051Y394006*
X585506*
X585233Y393818*
X584960Y393443*
X584824Y393068*
X584687Y392506*
X584687D02*
Y391568D01*
X584687D02*
X584824Y391006D01*
X584960Y390631*
X585233Y390256*
X585506Y390068*
X586051*
X586324Y390256*
X586597Y390631*
X586733Y391006*
X589324Y394006D02*
X587960Y391381D01*
X590006*
X589324Y394006D02*
Y390068D01*
X586733Y367068D02*
X586597Y367443D01*
X586324Y367818*
X586051Y368006*
X585506*
X585233Y367818*
X584960Y367443*
X584824Y367068*
X584687Y366506*
X584687D02*
Y365568D01*
X584687D02*
X584824Y365006D01*
X584960Y364631*
X585233Y364256*
X585506Y364068*
X586051*
X586324Y364256*
X586597Y364631*
X586733Y365006*
X589733Y368006D02*
X588369D01*
X588233Y366318*
X588369Y366506*
X588778Y366693*
X589187*
X589187D02*
X589597Y366506D01*
X589869Y366131*
X590006Y365568*
X589869Y365193*
X589733Y364631*
X589460Y364256*
X589051Y364068*
X588642*
X588233Y364256*
X588097Y364443*
X587960Y364818*
X638159Y487250D02*
Y483313D01*
X637205Y487250D02*
X639114D01*
X642250D02*
X640886Y483313D01*
X640341Y487250D02*
X642250D01*
X628159D02*
Y483313D01*
X627205Y487250D02*
X629114D01*
X631023D02*
X630614Y487063D01*
X630614D02*
X630477Y486688D01*
X630477D02*
Y486313D01*
X630477D02*
X630614Y485938D01*
X630614D02*
X630886Y485750D01*
X631432Y485563*
X631432D02*
X631841Y485375D01*
X632114Y485000*
X632250Y484625*
Y484063*
X632250D02*
X632114Y483688D01*
X632114D02*
X631977Y483500D01*
X631568Y483313*
X631568D02*
X631023D01*
X631023D02*
X630614Y483500D01*
X630477Y483688*
X630477D02*
X630341Y484063D01*
X630341D02*
Y484625D01*
X630477Y485000*
X630750Y485375*
X631159Y485563*
X631159D02*
X631705Y485750D01*
X631977Y485938*
X631977D02*
X632114Y486313D01*
X632114D02*
Y486688D01*
X632114D02*
X631977Y487063D01*
X631977D02*
X631568Y487250D01*
X631023*
X588227Y467250D02*
Y463313D01*
X587273Y467250D02*
X589182D01*
X592182Y465938D02*
X592045Y465375D01*
X591773Y465000*
X591364Y464813*
X591364D02*
X591227D01*
X591227D02*
X590818Y465000D01*
X590545Y465375*
X590409Y465938*
X590409D02*
Y466125D01*
X590545Y466688*
X590545D02*
X590818Y467063D01*
X590818D02*
X591227Y467250D01*
X591364*
X591773Y467063*
X591773D02*
X592045Y466688D01*
X592045D02*
X592182Y465938D01*
X592182D02*
Y465000D01*
X592045Y464063*
X592045D02*
X591773Y463500D01*
X591364Y463313*
X591364D02*
X591091D01*
X591091D02*
X590682Y463500D01*
X590545Y463875*
X603443Y291812D02*
Y288062D01*
X603443D02*
X603273Y287359D01*
X603102Y287125*
X602761Y286891*
X602420*
X602080Y287125*
X601909Y287359*
X601739Y288062*
X601739D02*
Y288531D01*
X604977Y290875D02*
X605318Y291109D01*
X605830Y291812*
X605830D02*
Y286891D01*
X609580Y290172D02*
X609409Y289469D01*
X609068Y289000*
X608557Y288766*
X608386*
X607875Y289000*
X607534Y289469*
X607364Y290172*
Y290406*
X607534Y291109*
X607875Y291578*
X608386Y291812*
X608386D02*
X608557D01*
X608557D02*
X609068Y291578D01*
X609409Y291109*
X609580Y290172*
Y289000*
X609409Y287828*
X609068Y287125*
X608557Y286891*
X608216*
X607705Y287125*
X607534Y287594*
X624227Y274375D02*
Y271000D01*
X623000Y272687D02*
X625455D01*
X626682Y274187D02*
X626955Y274375D01*
X627364Y274937*
X627364D02*
Y271000D01*
X628727Y274000D02*
Y274187D01*
X628727D02*
X628864Y274562D01*
X628864D02*
X629000Y274750D01*
X629273Y274937*
X629273D02*
X629818D01*
X629818D02*
X630091Y274750D01*
X630227Y274562*
X630227D02*
X630364Y274187D01*
X630364D02*
Y273812D01*
X630364D02*
X630227Y273437D01*
X630227D02*
X629955Y272875D01*
X628591Y271000*
X630500*
X631727Y274937D02*
X632818Y271000D01*
X633909Y274937D02*
X632818Y271000D01*
X624227Y258375D02*
Y255000D01*
X623000Y256687D02*
X625455D01*
X628455Y258937D02*
X627091D01*
X627091D02*
X626955Y257250D01*
X627091Y257437*
X627091D02*
X627500Y257625D01*
X627909*
X628318Y257437*
X628318D02*
X628591Y257062D01*
X628591D02*
X628727Y256500D01*
X628591Y256125*
X628455Y255562*
X628455D02*
X628182Y255187D01*
X628182D02*
X627773Y255000D01*
X627364*
X626955Y255187*
X626955D02*
X626818Y255375D01*
X626682Y255750*
X629955Y258937D02*
X631045Y255000D01*
X632136Y258937D02*
X631045Y255000D01*
X624227Y243375D02*
Y240000D01*
X623000Y241687D02*
X625455D01*
X626955Y243937D02*
X628455D01*
X628455D02*
X627636Y242437D01*
X627636D02*
X628045D01*
X628045D02*
X628318Y242250D01*
X628455Y242062*
X628455D02*
X628591Y241500D01*
Y241125*
X628455Y240562*
X628455D02*
X628182Y240187D01*
X628182D02*
X627773Y240000D01*
X627364*
X626955Y240187*
X626955D02*
X626818Y240375D01*
X626682Y240750*
X629955Y240375D02*
X629818Y240187D01*
X629818D02*
X629955Y240000D01*
X630091Y240187*
X630091D02*
X629955Y240375D01*
X631591Y243937D02*
X633091D01*
X633091D02*
X632273Y242437D01*
X632273D02*
X632682D01*
X632682D02*
X632955Y242250D01*
X633091Y242062*
X633091D02*
X633227Y241500D01*
Y241125*
X633091Y240562*
X633091D02*
X632818Y240187D01*
X632818D02*
X632409Y240000D01*
X632000*
X631591Y240187*
X631591D02*
X631455Y240375D01*
X631318Y240750*
X634455Y243937D02*
X635545Y240000D01*
X636636Y243937D02*
X635545Y240000D01*
X629000Y184687D02*
X631455D01*
X634455Y186937D02*
X633091D01*
X633091D02*
X632955Y185250D01*
X633091Y185437*
X633091D02*
X633500Y185625D01*
X633909*
X634318Y185437*
X634318D02*
X634591Y185062D01*
X634591D02*
X634727Y184500D01*
X634591Y184125*
X634455Y183562*
X634455D02*
X634182Y183187D01*
X634182D02*
X633773Y183000D01*
X633364*
X632955Y183187*
X632955D02*
X632818Y183375D01*
X632682Y183750*
X635955Y186937D02*
X637045Y183000D01*
X638136Y186937D02*
X637045Y183000D01*
X630000Y216687D02*
X632455D01*
X633682Y218187D02*
X633955Y218375D01*
X634364Y218937*
X634364D02*
Y215000D01*
X635727Y218000D02*
Y218187D01*
X635727D02*
X635864Y218562D01*
X635864D02*
X636000Y218750D01*
X636273Y218937*
X636273D02*
X636818D01*
X636818D02*
X637091Y218750D01*
X637227Y218562*
X637227D02*
X637364Y218187D01*
X637364D02*
Y217812D01*
X637364D02*
X637227Y217437D01*
X637227D02*
X636955Y216875D01*
X635591Y215000*
X637500*
X638727Y218937D02*
X639818Y215000D01*
X640909Y218937D02*
X639818Y215000D01*
X627000Y492281D02*
Y489000D01*
Y492281D02*
X628023D01*
X628364Y492125*
X628477Y491969*
X628591Y491656*
Y491187*
X628591D02*
X628477Y490875D01*
X628364Y490719*
X628023Y490562*
X628023D02*
X627000D01*
X629614Y492281D02*
X630182Y489000D01*
X630750Y492281D02*
X630182Y489000D01*
X630750Y492281D02*
X631318Y489000D01*
X631886Y492281D02*
X631318Y489000D01*
X632909Y492281D02*
Y489000D01*
Y492281D02*
X633932D01*
X634273Y492125*
X634386Y491969*
X634500Y491656*
Y491344*
X634386Y491031*
X634273Y490875*
X633932Y490719*
X632909*
X633705D02*
X634500Y489000D01*
X635523Y488375D02*
X637909D01*
X639273Y492281D02*
X639045Y492125D01*
X638818Y491812*
X638818D02*
X638705Y491500D01*
X638591Y491031*
Y490250*
X638705Y489781*
X638818Y489469*
X639045Y489156*
X639273Y489000*
X639727*
X639955Y489156*
X640182Y489469*
X640295Y489781*
X640409Y490250*
Y491031*
X640295Y491500*
X640182Y491812*
X640182D02*
X639955Y492125D01*
X639727Y492281*
X639273*
X641432D02*
Y489000D01*
Y492281D02*
X643023Y489000D01*
Y492281D02*
Y489000D01*
X588227Y352375D02*
Y349000D01*
X587000Y350687D02*
X589455D01*
X588227Y379375D02*
Y376000D01*
X587000Y377687D02*
X589455D01*
X588227Y403375D02*
Y400000D01*
X587000Y401687D02*
X589455D01*
X588227Y430375D02*
Y427000D01*
X587000Y428687D02*
X589455D01*
X588227Y457375D02*
Y454000D01*
X587000Y455687D02*
X589455D01*
X618091Y266937D02*
X617000Y263000D01*
X618091Y266937D02*
X619182Y263000D01*
X617409Y264312D02*
X618773D01*
X618091Y251937D02*
X617000Y248000D01*
X618091Y251937D02*
X619182Y248000D01*
X617409Y249312D02*
X618773D01*
X618091Y237937D02*
X617000Y234000D01*
X618091Y237937D02*
X619182Y234000D01*
X617409Y235312D02*
X618773D01*
X642091Y202937D02*
X641000Y199000D01*
X642091Y202937D02*
X643182Y199000D01*
X641409Y200312D02*
X642773D01*
X642023Y136812D02*
Y134000D01*
X641000Y135406D02*
X643045D01*
X645545Y137281D02*
X644409D01*
X644295Y135875*
X644409Y136031*
X644750Y136187*
X644750D02*
X645091D01*
X645091D02*
X645432Y136031D01*
X645659Y135719*
X645773Y135250*
X645659Y134937*
X645659D02*
X645545Y134469D01*
X645318Y134156*
X644977Y134000*
X644636*
X644295Y134156*
X644182Y134312*
X644182D02*
X644068Y134625D01*
X641682Y127281D02*
X641341Y127125D01*
X641114Y126656*
X641000Y125875*
Y125406*
X641114Y124625*
X641341Y124156*
X641682Y124000*
X641909*
X642250Y124156*
X642477Y124625*
X642591Y125406*
Y125875*
X642477Y126656*
X642250Y127125*
X641909Y127281*
X641682*
X643614D02*
X644523Y124000D01*
X645432Y127281D02*
X644523Y124000D01*
X641023Y146812D02*
Y144000D01*
X640000Y145406D02*
X642045D01*
X643295Y147281D02*
X644545D01*
X643864Y146031*
X644205*
X644432Y145875*
X644545Y145719*
X644659Y145250*
Y144937*
X644659D02*
X644545Y144469D01*
X644318Y144156*
X643977Y144000*
X643636*
X643295Y144156*
X643182Y144312*
X643182D02*
X643068Y144625D01*
X645795Y144312D02*
X645682Y144156D01*
X645795Y144000*
X645909Y144156*
X645795Y144312*
X647159Y147281D02*
X648409D01*
X647727Y146031*
X648068*
X648295Y145875*
X648409Y145719*
X648523Y145250*
Y144937*
X648523D02*
X648409Y144469D01*
X648182Y144156*
X647841Y144000*
X647500*
X647159Y144156*
X647045Y144312*
X647045D02*
X646932Y144625D01*
X642000Y154406D02*
X644045D01*
X646545Y156281D02*
X645409D01*
X645295Y154875*
X645409Y155031*
X645750Y155187*
X645750D02*
X646091D01*
X646091D02*
X646432Y155031D01*
X646659Y154719*
X646773Y154250*
X646659Y153937*
X646659D02*
X646545Y153469D01*
X646318Y153156*
X645977Y153000*
X645636*
X645295Y153156*
X645182Y153312*
X645182D02*
X645068Y153625D01*
X641000Y164406D02*
X643045D01*
X644068Y165656D02*
X644295Y165812D01*
X644295D02*
X644636Y166281D01*
Y163000*
X645773Y165500D02*
Y165656D01*
X645886Y165969*
X646000Y166125*
X646227Y166281*
X646682*
X646909Y166125*
X647023Y165969*
X647136Y165656*
Y165344*
X647023Y165031*
X646795Y164562*
X646795D02*
X645659Y163000D01*
X647250*
X642023Y175812D02*
Y173000D01*
X641000Y174406D02*
X643045D01*
X644068Y175656D02*
X644295Y175812D01*
X644295D02*
X644636Y176281D01*
Y173000*
X645773Y175500D02*
Y175656D01*
X645886Y175969*
X646000Y176125*
X646227Y176281*
X646682*
X646909Y176125*
X647023Y175969*
X647136Y175656*
Y175344*
X647023Y175031*
X646795Y174562*
X646795D02*
X645659Y173000D01*
X647250*
X584500Y177500D02*
X626500D01*
Y149500*
X584500*
Y177500*
X602000Y458000D02*
X639000D01*
Y293000*
X602000*
Y458000*
X639000Y385000D02*
X644000D01*
Y368000*
X639000*
Y385000*
X0Y0D02*
M02*
