*
*
G04 PADS Layout (Build Number 2005.266.2) generated Gerber (RS-274-X) file*
G04 PC Version=2.1*
*
%IN "rx_REVA_10312006_routed"*%
*
%MOIN*%
*
%FSLAX35Y35*%
*
*
*
*
G04 PC Standard Apertures*
*
*
G04 Thermal Relief Aperture macro.*
%AMTER*
1,1,$1,0,0*
1,0,$1-$2,0,0*
21,0,$3,$4,0,0,45*
21,0,$3,$4,0,0,135*
%
*
*
G04 Annular Aperture macro.*
%AMANN*
1,1,$1,0,0*
1,0,$2,0,0*
%
*
*
G04 Odd Aperture macro.*
%AMODD*
1,1,$1,0,0*
1,0,$1-0.005,0,0*
%
*
*
G04 PC Custom Aperture Macros*
*
*
*
*
*
*
G04 PC Aperture Table*
*
%ADD010C,0.01*%
%ADD013C,0.06*%
%ADD022C,0.12055*%
%ADD036C,0.006*%
%ADD038C,0.03*%
%ADD043C,0.026*%
%ADD045C,0.01575*%
*
*
*
*
G04 PC Copper Outlines (0)*
G04 Layer Name rx_REVA_10312006_routed - dark (0)*
%LPD*%
*
*
G04 PC Area=ANP002531*
G75*
G36*
G01*
X445707Y353423D02*
Y371200D01*
X445506D01*
Y416230D01*
X401387D01*
G02*
X399613I-887J-2230D01*
G01*
X390561D01*
G02*
X386439I-2061J-1230D01*
G01*
X366309D01*
Y254374D01*
G02*
Y249626I350J-2374D01*
G01*
Y248817D01*
G02*
X367122Y247298I-1568J-1817D01*
X366760Y245702I2019J-1298D01*
X366309Y245183I-2019J1298D01*
G01*
Y237246D01*
G02*
Y232754I-1309J-2246D01*
G01*
Y230958D01*
G02*
X367465Y230580I-1309J-5958D01*
X370580Y227465I2535J-580D01*
Y222535I-5580J-2465D01*
X367465Y219420I-580J-2535D01*
X366309Y219042I-2465J5580D01*
G01*
Y217246D01*
G02*
Y212754I-1309J-2246D01*
G01*
Y206599D01*
G02*
X368157Y202736I-53J-2399D01*
X368894Y201172I-1657J-1736D01*
G01*
X384445D01*
G02*
X387555I1555J1828D01*
G01*
X407418D01*
G02*
X408582I582J2328D01*
G01*
X414491D01*
G02*
X418446I1977J1360D01*
G01*
X420653D01*
G02*
X425442I2394J-159D01*
G01*
X445707D01*
Y261894D01*
G02*
Y263028I2332J567D01*
G01*
Y307613D01*
G02*
X442298Y307608I-1707J1687D01*
X440882Y306718I-1665J1079D01*
Y302781I-249J-1968D01*
X438664Y300563I-249J-1968D01*
X436945Y298844I-1968J250D01*
Y294907I-249J-1969D01*
X438664Y293188I-249J-1969D01*
X440882Y290970I1969J-250D01*
Y287033I-249J-1969D01*
Y283096I-249J-1969D01*
Y279159I-249J-1969D01*
Y275222I-249J-1969D01*
Y271285I-249J-1969D01*
X438664Y269067I-249J-1969D01*
X434727I-1968J249D01*
X430790I-1968J249D01*
X428647Y267340I-1968J249D01*
X427805Y267612I-1147J-2108D01*
X426853Y269067I1017J1704D01*
X422916I-1968J249D01*
X418979I-1968J249D01*
X415042I-1968J249D01*
X412824Y271285I-1968J249D01*
X411105Y273004I250J1968D01*
X407168I-1969J249D01*
X405449Y271285I-1969J249D01*
X403231Y269067I-250J-1969D01*
X399294I-1969J249D01*
X395357I-1969J249D01*
X391420I-1969J249D01*
X387483I-1969J249D01*
X383546I-1969J249D01*
X381328Y271285I-1969J249D01*
Y275222I249J1968D01*
Y279159I249J1968D01*
Y283096I249J1968D01*
Y287033I249J1968D01*
Y290970I249J1968D01*
Y294907I249J1968D01*
X383546Y297125I249J1968D01*
X385265Y298844I1968J-250D01*
Y302781I249J1969D01*
X383546Y304500I249J1969D01*
X381328Y306718I-1969J250D01*
Y310655I249J1969D01*
Y314592I249J1969D01*
Y318529I249J1969D01*
Y322466I249J1969D01*
Y326403I249J1969D01*
X383546Y328621I249J1969D01*
X387483I1968J-249D01*
X391420I1968J-249D01*
X395357I1968J-249D01*
X399294I1968J-249D01*
X403231I1968J-249D01*
X407168I1968J-249D01*
X409386Y326403I1968J-249D01*
X411105Y324684I-250J-1968D01*
X415042I1969J-249D01*
X416761Y326403I1969J-249D01*
X418979Y328621I250J1969D01*
X422916I1969J-249D01*
X426853I1969J-249D01*
X430790I1969J-249D01*
X434727I1969J-249D01*
X436957Y330339I1969J-249D01*
X435699Y331819I1043J2161D01*
X437576Y334862I-424J2362D01*
X437612Y330132I424J-2362D01*
X438664Y328621I-916J-1760D01*
X440882Y326403I1969J-249D01*
Y322466I-249J-1968D01*
Y318529I-249J-1968D01*
Y314592I-249J-1968D01*
X442100Y313959I-249J-1968D01*
X445707Y316074I2400J41D01*
G01*
Y348669D01*
G02*
Y353423I1054J2377D01*
G37*
G74*
*
*
G04 PC Area=ANP003443*
G75*
G36*
G01*
X632500Y278123D02*
Y288147D01*
Y288155D01*
Y334948D01*
X559657D01*
G02*
X555343I-2157J1052D01*
G01*
X536245D01*
G02*
X531755I-2245J-848D01*
G01*
X495330D01*
G02*
X491670I-1830J1552D01*
G01*
X491130D01*
G02*
X487470I-1830J1552D01*
G01*
X455388D01*
Y189901D01*
X419398D01*
G02*
X414602I-2398J99D01*
G01*
X371163D01*
G02*
X368837I-1163J2099D01*
G01*
X366653D01*
Y184240D01*
G02*
Y180760I-1653J-1740D01*
G01*
Y112191D01*
G02*
Y107809I3347J-2191D01*
G01*
Y105920D01*
X391777D01*
G02*
X408223I8223J9080D01*
G01*
X632500D01*
Y106877D01*
G02*
Y113123I-2500J3123D01*
G01*
Y116877D01*
G02*
Y123123I-2500J3123D01*
G01*
Y136623D01*
G02*
Y138553I-2414J965D01*
G01*
Y241877D01*
G02*
Y248123I2500J3123D01*
G01*
Y251877D01*
G02*
Y258123I2500J3123D01*
G01*
Y261877D01*
G02*
Y268123I2500J3123D01*
G01*
Y271877D01*
G02*
Y278123I2500J3123D01*
G37*
G74*
*
*
G04 PC Area=ANP002569*
G75*
G36*
G01*
X383546Y324684D02*
G02*
X385265Y326403I1968J-249D01*
X383546Y328122I249J1969D01*
X381827Y326403I-1969J250D01*
X383546Y324684I-250J-1968D01*
G37*
G74*
*
*
G04 PC Area=ANP002570*
G75*
G36*
G01*
X383546Y320747D02*
G02*
X385265Y322466I1968J-249D01*
X383546Y324185I249J1969D01*
X381827Y322466I-1969J250D01*
X383546Y320747I-250J-1968D01*
G37*
G74*
*
*
G04 PC Area=ANP002571*
G75*
G36*
G01*
X383546Y316810D02*
G02*
X385265Y318529I1968J-249D01*
X383546Y320248I249J1969D01*
X381827Y318529I-1969J250D01*
X383546Y316810I-250J-1968D01*
G37*
G74*
*
*
G04 PC Area=ANP002572*
G75*
G36*
G01*
X383546Y312873D02*
G02*
X385265Y314592I1968J-249D01*
X383546Y316311I249J1969D01*
X381827Y314592I-1969J250D01*
X383546Y312873I-250J-1968D01*
G37*
G74*
*
*
G04 PC Area=ANP002573*
G75*
G36*
G01*
X383546Y308936D02*
G02*
X385265Y310655I1968J-249D01*
X383546Y312374I249J1969D01*
X381827Y310655I-1969J250D01*
X383546Y308936I-250J-1968D01*
G37*
G74*
*
*
G04 PC Area=ANP002574*
G75*
G36*
G01*
X383546Y304999D02*
G02*
X385265Y306718I1968J-249D01*
X383546Y308437I249J1969D01*
X381827Y306718I-1969J250D01*
X383546Y304999I-250J-1968D01*
G37*
G74*
*
*
G04 PC Area=ANP002575*
G75*
G36*
G01*
X383546Y293188D02*
G02*
X385265Y294907I1968J-250D01*
X383546Y296626I249J1968D01*
X381827Y294907I-1969J249D01*
X383546Y293188I-250J-1969D01*
G37*
G74*
*
*
G04 PC Area=ANP002576*
G75*
G36*
G01*
X383546Y289251D02*
G02*
X385265Y290970I1968J-250D01*
X383546Y292689I249J1968D01*
X381827Y290970I-1969J249D01*
X383546Y289251I-250J-1969D01*
G37*
G74*
*
*
G04 PC Area=ANP002577*
G75*
G36*
G01*
X383546Y285314D02*
G02*
X385265Y287033I1968J-250D01*
X383546Y288752I249J1968D01*
X381827Y287033I-1969J249D01*
X383546Y285314I-250J-1969D01*
G37*
G74*
*
*
G04 PC Area=ANP002578*
G75*
G36*
G01*
X383546Y281377D02*
G02*
X385265Y283096I1968J-250D01*
X383546Y284815I249J1968D01*
X381827Y283096I-1969J249D01*
X383546Y281377I-250J-1969D01*
G37*
G74*
*
*
G04 PC Area=ANP002579*
G75*
G36*
G01*
X383546Y277440D02*
G02*
X385265Y279159I1968J-250D01*
X383546Y280878I249J1968D01*
X381827Y279159I-1969J249D01*
X383546Y277440I-250J-1969D01*
G37*
G74*
*
*
G04 PC Area=ANP002580*
G75*
G36*
G01*
X383546Y273503D02*
G02*
X385265Y275222I1968J-250D01*
X383546Y276941I249J1968D01*
X381827Y275222I-1969J249D01*
X383546Y273503I-250J-1969D01*
G37*
G74*
*
*
G04 PC Area=ANP002581*
G75*
G36*
G01*
X383546Y269566D02*
G02*
X385265Y271285I1968J-250D01*
X383546Y273004I249J1968D01*
X381827Y271285I-1969J249D01*
X383546Y269566I-250J-1969D01*
G37*
G74*
*
*
G04 PC Area=ANP002582*
G75*
G36*
G01*
X387483Y324684D02*
G02*
X389202Y326403I1968J-249D01*
X387483Y328122I249J1969D01*
X385764Y326403I-1969J250D01*
X387483Y324684I-250J-1968D01*
G37*
G74*
*
*
G04 PC Area=ANP002583*
G75*
G36*
G01*
X387483Y320747D02*
G02*
X389202Y322466I1968J-249D01*
X387483Y324185I249J1969D01*
X385764Y322466I-1969J250D01*
X387483Y320747I-250J-1968D01*
G37*
G74*
*
*
G04 PC Area=ANP002584*
G75*
G36*
G01*
X387483Y316810D02*
G02*
X389202Y318529I1968J-249D01*
X387483Y320248I249J1969D01*
X385764Y318529I-1969J250D01*
X387483Y316810I-250J-1968D01*
G37*
G74*
*
*
G04 PC Area=ANP002585*
G75*
G36*
G01*
X387483Y312873D02*
G02*
X389202Y314592I1968J-249D01*
X387483Y316311I249J1969D01*
X385764Y314592I-1969J250D01*
X387483Y312873I-250J-1968D01*
G37*
G74*
*
*
G04 PC Area=ANP002586*
G75*
G36*
G01*
X387483Y308936D02*
G02*
X389202Y310655I1968J-249D01*
X387483Y312374I249J1969D01*
X385764Y310655I-1969J250D01*
X387483Y308936I-250J-1968D01*
G37*
G74*
*
*
G04 PC Area=ANP002587*
G75*
G36*
G01*
X387483Y304999D02*
G02*
X389202Y306718I1968J-249D01*
X387483Y308437I249J1969D01*
X385764Y306718I-1969J250D01*
X387483Y304999I-250J-1968D01*
G37*
G74*
*
*
G04 PC Area=ANP002588*
G75*
G36*
G01*
X387483Y301062D02*
G02*
X389202Y302781I1968J-249D01*
X387483Y304500I249J1969D01*
X385764Y302781I-1969J250D01*
X387483Y301062I-250J-1968D01*
G37*
G74*
*
*
G04 PC Area=ANP002589*
G75*
G36*
G01*
X387483Y297125D02*
G02*
X389202Y298844I1968J-250D01*
X387483Y300563I249J1969D01*
X385764Y298844I-1969J250D01*
X387483Y297125I-250J-1969D01*
G37*
G74*
*
*
G04 PC Area=ANP002590*
G75*
G36*
G01*
X387483Y293188D02*
G02*
X389202Y294907I1968J-250D01*
X387483Y296626I249J1968D01*
X385764Y294907I-1969J249D01*
X387483Y293188I-250J-1969D01*
G37*
G74*
*
*
G04 PC Area=ANP002591*
G75*
G36*
G01*
X387483Y289251D02*
G02*
X389202Y290970I1968J-250D01*
X387483Y292689I249J1968D01*
X385764Y290970I-1969J249D01*
X387483Y289251I-250J-1969D01*
G37*
G74*
*
*
G04 PC Area=ANP002592*
G75*
G36*
G01*
X387483Y285314D02*
G02*
X389202Y287033I1968J-250D01*
X387483Y288752I249J1968D01*
X385764Y287033I-1969J249D01*
X387483Y285314I-250J-1969D01*
G37*
G74*
*
*
G04 PC Area=ANP002593*
G75*
G36*
G01*
X387483Y281377D02*
G02*
X389202Y283096I1968J-250D01*
X387483Y284815I249J1968D01*
X385764Y283096I-1969J249D01*
X387483Y281377I-250J-1969D01*
G37*
G74*
*
*
G04 PC Area=ANP002594*
G75*
G36*
G01*
X387483Y277440D02*
G02*
X389202Y279159I1968J-250D01*
X387483Y280878I249J1968D01*
X385764Y279159I-1969J249D01*
X387483Y277440I-250J-1969D01*
G37*
G74*
*
*
G04 PC Area=ANP002595*
G75*
G36*
G01*
X387483Y273503D02*
G02*
X389202Y275222I1968J-250D01*
X387483Y276941I249J1968D01*
X385764Y275222I-1969J249D01*
X387483Y273503I-250J-1969D01*
G37*
G74*
*
*
G04 PC Area=ANP002596*
G75*
G36*
G01*
X387483Y269566D02*
G02*
X389202Y271285I1968J-250D01*
X387483Y273004I249J1968D01*
X385764Y271285I-1969J249D01*
X387483Y269566I-250J-1969D01*
G37*
G74*
*
*
G04 PC Area=ANP002597*
G75*
G36*
G01*
X391420Y324684D02*
G02*
X393139Y326403I1968J-249D01*
X391420Y328122I249J1969D01*
X389701Y326403I-1969J250D01*
X391420Y324684I-250J-1968D01*
G37*
G74*
*
*
G04 PC Area=ANP002598*
G75*
G36*
G01*
X391420Y320747D02*
G02*
X393139Y322466I1968J-249D01*
X391420Y324185I249J1969D01*
X389701Y322466I-1969J250D01*
X391420Y320747I-250J-1968D01*
G37*
G74*
*
*
G04 PC Area=ANP002599*
G75*
G36*
G01*
X391420Y316810D02*
G02*
X393139Y318529I1968J-249D01*
X391420Y320248I249J1969D01*
X389701Y318529I-1969J250D01*
X391420Y316810I-250J-1968D01*
G37*
G74*
*
*
G04 PC Area=ANP002600*
G75*
G36*
G01*
X391420Y312873D02*
G02*
X393139Y314592I1968J-249D01*
X391420Y316311I249J1969D01*
X389701Y314592I-1969J250D01*
X391420Y312873I-250J-1968D01*
G37*
G74*
*
*
G04 PC Area=ANP002601*
G75*
G36*
G01*
X391420Y308936D02*
G02*
X393139Y310655I1968J-249D01*
X391420Y312374I249J1969D01*
X389701Y310655I-1969J250D01*
X391420Y308936I-250J-1968D01*
G37*
G74*
*
*
G04 PC Area=ANP002602*
G75*
G36*
G01*
X391420Y304999D02*
G02*
X393139Y306718I1968J-249D01*
X391420Y308437I249J1969D01*
X389701Y306718I-1969J250D01*
X391420Y304999I-250J-1968D01*
G37*
G74*
*
*
G04 PC Area=ANP002603*
G75*
G36*
G01*
X391420Y301062D02*
G02*
X393139Y302781I1968J-249D01*
X391420Y304500I249J1969D01*
X389701Y302781I-1969J250D01*
X391420Y301062I-250J-1968D01*
G37*
G74*
*
*
G04 PC Area=ANP002604*
G75*
G36*
G01*
X391420Y297125D02*
G02*
X393139Y298844I1968J-250D01*
X391420Y300563I249J1969D01*
X389701Y298844I-1969J250D01*
X391420Y297125I-250J-1969D01*
G37*
G74*
*
*
G04 PC Area=ANP002605*
G75*
G36*
G01*
X391420Y293188D02*
G02*
X393139Y294907I1968J-250D01*
X391420Y296626I249J1968D01*
X389701Y294907I-1969J249D01*
X391420Y293188I-250J-1969D01*
G37*
G74*
*
*
G04 PC Area=ANP002606*
G75*
G36*
G01*
X391420Y289251D02*
G02*
X393139Y290970I1968J-250D01*
X391420Y292689I249J1968D01*
X389701Y290970I-1969J249D01*
X391420Y289251I-250J-1969D01*
G37*
G74*
*
*
G04 PC Area=ANP002607*
G75*
G36*
G01*
X391420Y285314D02*
G02*
X393139Y287033I1968J-250D01*
X391420Y288752I249J1968D01*
X389701Y287033I-1969J249D01*
X391420Y285314I-250J-1969D01*
G37*
G74*
*
*
G04 PC Area=ANP002608*
G75*
G36*
G01*
X391420Y281377D02*
G02*
X393139Y283096I1968J-250D01*
X391420Y284815I249J1968D01*
X389701Y283096I-1969J249D01*
X391420Y281377I-250J-1969D01*
G37*
G74*
*
*
G04 PC Area=ANP002609*
G75*
G36*
G01*
X391420Y277440D02*
G02*
X393139Y279159I1968J-250D01*
X391420Y280878I249J1968D01*
X389701Y279159I-1969J249D01*
X391420Y277440I-250J-1969D01*
G37*
G74*
*
*
G04 PC Area=ANP002610*
G75*
G36*
G01*
X391420Y273503D02*
G02*
X393139Y275222I1968J-250D01*
X391420Y276941I249J1968D01*
X389701Y275222I-1969J249D01*
X391420Y273503I-250J-1969D01*
G37*
G74*
*
*
G04 PC Area=ANP002611*
G75*
G36*
G01*
X391420Y269566D02*
G02*
X393139Y271285I1968J-250D01*
X391420Y273004I249J1968D01*
X389701Y271285I-1969J249D01*
X391420Y269566I-250J-1969D01*
G37*
G74*
*
*
G04 PC Area=ANP002612*
G75*
G36*
G01*
X395357Y324684D02*
G02*
X397076Y326403I1968J-249D01*
X395357Y328122I249J1969D01*
X393638Y326403I-1969J250D01*
X395357Y324684I-250J-1968D01*
G37*
G74*
*
*
G04 PC Area=ANP002613*
G75*
G36*
G01*
X395357Y320747D02*
G02*
X397076Y322466I1968J-249D01*
X395357Y324185I249J1969D01*
X393638Y322466I-1969J250D01*
X395357Y320747I-250J-1968D01*
G37*
G74*
*
*
G04 PC Area=ANP002614*
G75*
G36*
G01*
X395357Y316810D02*
G02*
X397076Y318529I1968J-249D01*
X395357Y320248I249J1969D01*
X393638Y318529I-1969J250D01*
X395357Y316810I-250J-1968D01*
G37*
G74*
*
*
G04 PC Area=ANP002615*
G75*
G36*
G01*
X395357Y312873D02*
G02*
X397076Y314592I1968J-249D01*
X395357Y316311I249J1969D01*
X393638Y314592I-1969J250D01*
X395357Y312873I-250J-1968D01*
G37*
G74*
*
*
G04 PC Area=ANP002616*
G75*
G36*
G01*
X395357Y308936D02*
G02*
X397076Y310655I1968J-249D01*
X395357Y312374I249J1969D01*
X393638Y310655I-1969J250D01*
X395357Y308936I-250J-1968D01*
G37*
G74*
*
*
G04 PC Area=ANP002617*
G75*
G36*
G01*
X395357Y304999D02*
G02*
X397076Y306718I1968J-249D01*
X395357Y308437I249J1969D01*
X393638Y306718I-1969J250D01*
X395357Y304999I-250J-1968D01*
G37*
G74*
*
*
G04 PC Area=ANP002618*
G75*
G36*
G01*
X395357Y301062D02*
G02*
X397076Y302781I1968J-249D01*
X395357Y304500I249J1969D01*
X393638Y302781I-1969J250D01*
X395357Y301062I-250J-1968D01*
G37*
G74*
*
*
G04 PC Area=ANP002619*
G75*
G36*
G01*
X395357Y297125D02*
G02*
X397076Y298844I1968J-250D01*
X395357Y300563I249J1969D01*
X393638Y298844I-1969J250D01*
X395357Y297125I-250J-1969D01*
G37*
G74*
*
*
G04 PC Area=ANP002620*
G75*
G36*
G01*
X395357Y293188D02*
G02*
X397076Y294907I1968J-250D01*
X395357Y296626I249J1968D01*
X393638Y294907I-1969J249D01*
X395357Y293188I-250J-1969D01*
G37*
G74*
*
*
G04 PC Area=ANP002621*
G75*
G36*
G01*
X395357Y289251D02*
G02*
X397076Y290970I1968J-250D01*
X395357Y292689I249J1968D01*
X393638Y290970I-1969J249D01*
X395357Y289251I-250J-1969D01*
G37*
G74*
*
*
G04 PC Area=ANP002622*
G75*
G36*
G01*
X395357Y285314D02*
G02*
X397076Y287033I1968J-250D01*
X395357Y288752I249J1968D01*
X393638Y287033I-1969J249D01*
X395357Y285314I-250J-1969D01*
G37*
G74*
*
*
G04 PC Area=ANP002623*
G75*
G36*
G01*
X395357Y281377D02*
G02*
X397076Y283096I1968J-250D01*
X395357Y284815I249J1968D01*
X393638Y283096I-1969J249D01*
X395357Y281377I-250J-1969D01*
G37*
G74*
*
*
G04 PC Area=ANP002624*
G75*
G36*
G01*
X395357Y277440D02*
G02*
X397076Y279159I1968J-250D01*
X395357Y280878I249J1968D01*
X393638Y279159I-1969J249D01*
X395357Y277440I-250J-1969D01*
G37*
G74*
*
*
G04 PC Area=ANP002625*
G75*
G36*
G01*
X395357Y273503D02*
G02*
X397076Y275222I1968J-250D01*
X395357Y276941I249J1968D01*
X393638Y275222I-1969J249D01*
X395357Y273503I-250J-1969D01*
G37*
G74*
*
*
G04 PC Area=ANP002626*
G75*
G36*
G01*
X395357Y269566D02*
G02*
X397076Y271285I1968J-250D01*
X395357Y273004I249J1968D01*
X393638Y271285I-1969J249D01*
X395357Y269566I-250J-1969D01*
G37*
G74*
*
*
G04 PC Area=ANP002627*
G75*
G36*
G01*
X399294Y324684D02*
G02*
X401013Y326403I1968J-249D01*
X399294Y328122I249J1969D01*
X397575Y326403I-1969J250D01*
X399294Y324684I-250J-1968D01*
G37*
G74*
*
*
G04 PC Area=ANP002628*
G75*
G36*
G01*
X399294Y320747D02*
G02*
X401013Y322466I1968J-249D01*
X399294Y324185I249J1969D01*
X397575Y322466I-1969J250D01*
X399294Y320747I-250J-1968D01*
G37*
G74*
*
*
G04 PC Area=ANP002629*
G75*
G36*
G01*
X399294Y316810D02*
G02*
X401013Y318529I1968J-249D01*
X399294Y320248I249J1969D01*
X397575Y318529I-1969J250D01*
X399294Y316810I-250J-1968D01*
G37*
G74*
*
*
G04 PC Area=ANP002630*
G75*
G36*
G01*
X399294Y312873D02*
G02*
X401013Y314592I1968J-249D01*
X399294Y316311I249J1969D01*
X397575Y314592I-1969J250D01*
X399294Y312873I-250J-1968D01*
G37*
G74*
*
*
G04 PC Area=ANP002631*
G75*
G36*
G01*
X399294Y308936D02*
G02*
X401013Y310655I1968J-249D01*
X399294Y312374I249J1969D01*
X397575Y310655I-1969J250D01*
X399294Y308936I-250J-1968D01*
G37*
G74*
*
*
G04 PC Area=ANP002645*
G75*
G36*
G01*
X399294Y273503D02*
G02*
X401013Y275222I1968J-250D01*
X399294Y276941I249J1968D01*
X397575Y275222I-1969J249D01*
X399294Y273503I-250J-1969D01*
G37*
G74*
*
*
G04 PC Area=ANP002644*
G75*
G36*
G01*
X399294Y277440D02*
G02*
X401013Y279159I1968J-250D01*
X399294Y280878I249J1968D01*
X397575Y279159I-1969J249D01*
X399294Y277440I-250J-1969D01*
G37*
G74*
*
*
G04 PC Area=ANP002643*
G75*
G36*
G01*
X399294Y281377D02*
G02*
X401013Y283096I1968J-250D01*
X399294Y284815I249J1968D01*
X397575Y283096I-1969J249D01*
X399294Y281377I-250J-1969D01*
G37*
G74*
*
*
G04 PC Area=ANP002646*
G75*
G36*
G01*
X399294Y269566D02*
G02*
X401013Y271285I1968J-250D01*
X399294Y273004I249J1968D01*
X397575Y271285I-1969J249D01*
X399294Y269566I-250J-1969D01*
G37*
G74*
*
*
G04 PC Area=ANP002642*
G75*
G36*
G01*
X399294Y285314D02*
G02*
X401013Y287033I1968J-250D01*
X399294Y288752I249J1968D01*
X397575Y287033I-1969J249D01*
X399294Y285314I-250J-1969D01*
G37*
G74*
*
*
G04 PC Area=ANP002637*
G75*
G36*
G01*
X404950Y302781D02*
G02*
Y306718I249J1969D01*
X403231Y308437I249J1969D01*
X399294I-1969J250D01*
X397575Y306718I-1969J250D01*
Y302781I-250J-1968D01*
Y298844I-250J-1968D01*
Y294907I-250J-1969D01*
Y290970I-250J-1969D01*
X399294Y289251I-250J-1969D01*
X403231I1968J-250D01*
X404950Y290970I1968J-250D01*
Y294907I249J1968D01*
Y298844I249J1968D01*
Y302781I249J1969D01*
G37*
G74*
*
*
G04 PC Area=ANP002634*
G75*
G36*
G01*
X403231Y316810D02*
G02*
X404950Y318529I1968J-249D01*
X403231Y320248I249J1969D01*
X401512Y318529I-1969J250D01*
X403231Y316810I-250J-1968D01*
G37*
G74*
*
*
G04 PC Area=ANP002633*
G75*
G36*
G01*
X403231Y320747D02*
G02*
X404950Y322466I1968J-249D01*
X403231Y324185I249J1969D01*
X401512Y322466I-1969J250D01*
X403231Y320747I-250J-1968D01*
G37*
G74*
*
*
G04 PC Area=ANP002632*
G75*
G36*
G01*
X403231Y324684D02*
G02*
X404950Y326403I1968J-249D01*
X403231Y328122I249J1969D01*
X401512Y326403I-1969J250D01*
X403231Y324684I-250J-1968D01*
G37*
G74*
*
*
G04 PC Area=ANP002635*
G75*
G36*
G01*
X403231Y312873D02*
G02*
X404950Y314592I1968J-249D01*
X403231Y316311I249J1969D01*
X401512Y314592I-1969J250D01*
X403231Y312873I-250J-1968D01*
G37*
G74*
*
*
G04 PC Area=ANP002636*
G75*
G36*
G01*
X403231Y308936D02*
G02*
X404950Y310655I1968J-249D01*
X403231Y312374I249J1969D01*
X401512Y310655I-1969J250D01*
X403231Y308936I-250J-1968D01*
G37*
G74*
*
*
G04 PC Area=ANP002647*
G75*
G36*
G01*
X403231Y285314D02*
G02*
X404950Y287033I1968J-250D01*
X403231Y288752I249J1968D01*
X401512Y287033I-1969J249D01*
X403231Y285314I-250J-1969D01*
G37*
G74*
*
*
G04 PC Area=ANP002648*
G75*
G36*
G01*
X403231Y281377D02*
G02*
X404950Y283096I1968J-250D01*
X403231Y284815I249J1968D01*
X401512Y283096I-1969J249D01*
X403231Y281377I-250J-1969D01*
G37*
G74*
*
*
G04 PC Area=ANP002649*
G75*
G36*
G01*
X403231Y277440D02*
G02*
X404950Y279159I1968J-250D01*
X403231Y280878I249J1968D01*
X401512Y279159I-1969J249D01*
X403231Y277440I-250J-1969D01*
G37*
G74*
*
*
G04 PC Area=ANP002650*
G75*
G36*
G01*
X403231Y273503D02*
G02*
X404950Y275222I1968J-250D01*
X403231Y276941I249J1968D01*
X401512Y275222I-1969J249D01*
X403231Y273503I-250J-1969D01*
G37*
G74*
*
*
G04 PC Area=ANP002651*
G75*
G36*
G01*
X403231Y269566D02*
G02*
X404950Y271285I1968J-250D01*
X403231Y273004I249J1968D01*
X401512Y271285I-1969J249D01*
X403231Y269566I-250J-1969D01*
G37*
G74*
*
*
G04 PC Area=ANP002652*
G75*
G36*
G01*
X407168Y324684D02*
G02*
X408887Y326403I1968J-249D01*
X407168Y328122I249J1969D01*
X405449Y326403I-1969J250D01*
X407168Y324684I-250J-1968D01*
G37*
G74*
*
*
G04 PC Area=ANP002653*
G75*
G36*
G01*
X407168Y320747D02*
G02*
X408887Y322466I1968J-249D01*
X407168Y324185I249J1969D01*
X405449Y322466I-1969J250D01*
X407168Y320747I-250J-1968D01*
G37*
G74*
*
*
G04 PC Area=ANP002654*
G75*
G36*
G01*
X407168Y316810D02*
G02*
X408887Y318529I1968J-249D01*
X407168Y320248I249J1969D01*
X405449Y318529I-1969J250D01*
X407168Y316810I-250J-1968D01*
G37*
G74*
*
*
G04 PC Area=ANP002655*
G75*
G36*
G01*
X407168Y312873D02*
G02*
X408887Y314592I1968J-249D01*
X407168Y316311I249J1969D01*
X405449Y314592I-1969J250D01*
X407168Y312873I-250J-1968D01*
G37*
G74*
*
*
G04 PC Area=ANP002656*
G75*
G36*
G01*
X407168Y308936D02*
G02*
X408887Y310655I1968J-249D01*
X407168Y312374I249J1969D01*
X405449Y310655I-1969J250D01*
X407168Y308936I-250J-1968D01*
G37*
G74*
*
*
G04 PC Area=ANP002657*
G75*
G36*
G01*
X407168Y304999D02*
G02*
X408887Y306718I1968J-249D01*
X407168Y308437I249J1969D01*
X405449Y306718I-1969J250D01*
X407168Y304999I-250J-1968D01*
G37*
G74*
*
*
G04 PC Area=ANP002658*
G75*
G36*
G01*
X407168Y301062D02*
G02*
X408887Y302781I1968J-249D01*
X407168Y304500I249J1969D01*
X405449Y302781I-1969J250D01*
X407168Y301062I-250J-1968D01*
G37*
G74*
*
*
G04 PC Area=ANP002659*
G75*
G36*
G01*
X407168Y297125D02*
G02*
X408887Y298844I1968J-250D01*
X407168Y300563I249J1969D01*
X405449Y298844I-1969J250D01*
X407168Y297125I-250J-1969D01*
G37*
G74*
*
*
G04 PC Area=ANP002660*
G75*
G36*
G01*
X407168Y293188D02*
G02*
X408887Y294907I1968J-250D01*
X407168Y296626I249J1968D01*
X405449Y294907I-1969J249D01*
X407168Y293188I-250J-1969D01*
G37*
G74*
*
*
G04 PC Area=ANP002661*
G75*
G36*
G01*
X407168Y289251D02*
G02*
X408887Y290970I1968J-250D01*
X407168Y292689I249J1968D01*
X405449Y290970I-1969J249D01*
X407168Y289251I-250J-1969D01*
G37*
G74*
*
*
G04 PC Area=ANP002662*
G75*
G36*
G01*
X407168Y285314D02*
G02*
X408887Y287033I1968J-250D01*
X407168Y288752I249J1968D01*
X405449Y287033I-1969J249D01*
X407168Y285314I-250J-1969D01*
G37*
G74*
*
*
G04 PC Area=ANP002663*
G75*
G36*
G01*
X407168Y281377D02*
G02*
X408887Y283096I1968J-250D01*
X407168Y284815I249J1968D01*
X405449Y283096I-1969J249D01*
X407168Y281377I-250J-1969D01*
G37*
G74*
*
*
G04 PC Area=ANP002664*
G75*
G36*
G01*
X407168Y277440D02*
G02*
X408887Y279159I1968J-250D01*
X407168Y280878I249J1968D01*
X405449Y279159I-1969J249D01*
X407168Y277440I-250J-1969D01*
G37*
G74*
*
*
G04 PC Area=ANP002665*
G75*
G36*
G01*
X407168Y273503D02*
G02*
X408887Y275222I1968J-250D01*
X407168Y276941I249J1968D01*
X405449Y275222I-1969J249D01*
X407168Y273503I-250J-1969D01*
G37*
G74*
*
*
G04 PC Area=ANP002678*
G75*
G36*
G01*
X411105Y273503D02*
G02*
X412824Y275222I1969J-250D01*
X411105Y276941I250J1968D01*
X409386Y275222I-1969J249D01*
X411105Y273503I-250J-1969D01*
G37*
G74*
*
*
G04 PC Area=ANP002677*
G75*
G36*
G01*
X411105Y277440D02*
G02*
X412824Y279159I1969J-250D01*
X411105Y280878I250J1968D01*
X409386Y279159I-1969J249D01*
X411105Y277440I-250J-1969D01*
G37*
G74*
*
*
G04 PC Area=ANP002676*
G75*
G36*
G01*
X411105Y281377D02*
G02*
X412824Y283096I1969J-250D01*
X411105Y284815I250J1968D01*
X409386Y283096I-1969J249D01*
X411105Y281377I-250J-1969D01*
G37*
G74*
*
*
G04 PC Area=ANP002675*
G75*
G36*
G01*
X411105Y285314D02*
G02*
X412824Y287033I1969J-250D01*
X411105Y288752I250J1968D01*
X409386Y287033I-1969J249D01*
X411105Y285314I-250J-1969D01*
G37*
G74*
*
*
G04 PC Area=ANP002674*
G75*
G36*
G01*
X411105Y289251D02*
G02*
X412824Y290970I1969J-250D01*
X411105Y292689I250J1968D01*
X409386Y290970I-1969J249D01*
X411105Y289251I-250J-1969D01*
G37*
G74*
*
*
G04 PC Area=ANP002673*
G75*
G36*
G01*
X411105Y293188D02*
G02*
X412824Y294907I1969J-250D01*
X411105Y296626I250J1968D01*
X409386Y294907I-1969J249D01*
X411105Y293188I-250J-1969D01*
G37*
G74*
*
*
G04 PC Area=ANP002672*
G75*
G36*
G01*
X411105Y297125D02*
G02*
X412824Y298844I1969J-250D01*
X411105Y300563I250J1969D01*
X409386Y298844I-1969J250D01*
X411105Y297125I-250J-1969D01*
G37*
G74*
*
*
G04 PC Area=ANP002666*
G75*
G36*
G01*
X411105Y320747D02*
G02*
X412824Y322466I1969J-249D01*
X411105Y324185I250J1969D01*
X409386Y322466I-1969J250D01*
X411105Y320747I-250J-1968D01*
G37*
G74*
*
*
G04 PC Area=ANP002670*
G75*
G36*
G01*
X411105Y304999D02*
G02*
X412824Y306718I1969J-249D01*
X411105Y308437I250J1969D01*
X409386Y306718I-1969J250D01*
X411105Y304999I-250J-1968D01*
G37*
G74*
*
*
G04 PC Area=ANP002669*
G75*
G36*
G01*
X411105Y308936D02*
G02*
X412824Y310655I1969J-249D01*
X411105Y312374I250J1969D01*
X409386Y310655I-1969J250D01*
X411105Y308936I-250J-1968D01*
G37*
G74*
*
*
G04 PC Area=ANP002668*
G75*
G36*
G01*
X411105Y312873D02*
G02*
X412824Y314592I1969J-249D01*
X411105Y316311I250J1969D01*
X409386Y314592I-1969J250D01*
X411105Y312873I-250J-1968D01*
G37*
G74*
*
*
G04 PC Area=ANP002667*
G75*
G36*
G01*
X411105Y316810D02*
G02*
X412824Y318529I1969J-249D01*
X411105Y320248I250J1969D01*
X409386Y318529I-1969J250D01*
X411105Y316810I-250J-1968D01*
G37*
G74*
*
*
G04 PC Area=ANP002671*
G75*
G36*
G01*
X411105Y301062D02*
G02*
X412824Y302781I1969J-249D01*
X411105Y304500I250J1969D01*
X409386Y302781I-1969J250D01*
X411105Y301062I-250J-1968D01*
G37*
G74*
*
*
G04 PC Area=ANP002679*
G75*
G36*
G01*
X415042Y320747D02*
G02*
X416761Y322466I1969J-249D01*
X415042Y324185I250J1969D01*
X413323Y322466I-1968J250D01*
X415042Y320747I-249J-1968D01*
G37*
G74*
*
*
G04 PC Area=ANP002680*
G75*
G36*
G01*
X415042Y316810D02*
G02*
X416761Y318529I1969J-249D01*
X415042Y320248I250J1969D01*
X413323Y318529I-1968J250D01*
X415042Y316810I-249J-1968D01*
G37*
G74*
*
*
G04 PC Area=ANP002681*
G75*
G36*
G01*
X415042Y312873D02*
G02*
X416761Y314592I1969J-249D01*
X415042Y316311I250J1969D01*
X413323Y314592I-1968J250D01*
X415042Y312873I-249J-1968D01*
G37*
G74*
*
*
G04 PC Area=ANP002682*
G75*
G36*
G01*
X415042Y308936D02*
G02*
X416761Y310655I1969J-249D01*
X415042Y312374I250J1969D01*
X413323Y310655I-1968J250D01*
X415042Y308936I-249J-1968D01*
G37*
G74*
*
*
G04 PC Area=ANP002683*
G75*
G36*
G01*
X415042Y304999D02*
G02*
X416761Y306718I1969J-249D01*
X415042Y308437I250J1969D01*
X413323Y306718I-1968J250D01*
X415042Y304999I-249J-1968D01*
G37*
G74*
*
*
G04 PC Area=ANP002684*
G75*
G36*
G01*
X415042Y301062D02*
G02*
X416761Y302781I1969J-249D01*
X415042Y304500I250J1969D01*
X413323Y302781I-1968J250D01*
X415042Y301062I-249J-1968D01*
G37*
G74*
*
*
G04 PC Area=ANP002685*
G75*
G36*
G01*
X415042Y297125D02*
G02*
X416761Y298844I1969J-250D01*
X415042Y300563I250J1969D01*
X413323Y298844I-1968J250D01*
X415042Y297125I-249J-1969D01*
G37*
G74*
*
*
G04 PC Area=ANP002686*
G75*
G36*
G01*
X415042Y293188D02*
G02*
X416761Y294907I1969J-250D01*
X415042Y296626I250J1968D01*
X413323Y294907I-1968J249D01*
X415042Y293188I-249J-1969D01*
G37*
G74*
*
*
G04 PC Area=ANP002687*
G75*
G36*
G01*
X415042Y289251D02*
G02*
X416761Y290970I1969J-250D01*
X415042Y292689I250J1968D01*
X413323Y290970I-1968J249D01*
X415042Y289251I-249J-1969D01*
G37*
G74*
*
*
G04 PC Area=ANP002688*
G75*
G36*
G01*
X415042Y285314D02*
G02*
X416761Y287033I1969J-250D01*
X415042Y288752I250J1968D01*
X413323Y287033I-1968J249D01*
X415042Y285314I-249J-1969D01*
G37*
G74*
*
*
G04 PC Area=ANP002689*
G75*
G36*
G01*
X415042Y281377D02*
G02*
X416761Y283096I1969J-250D01*
X415042Y284815I250J1968D01*
X413323Y283096I-1968J249D01*
X415042Y281377I-249J-1969D01*
G37*
G74*
*
*
G04 PC Area=ANP002690*
G75*
G36*
G01*
X415042Y277440D02*
G02*
X416761Y279159I1969J-250D01*
X415042Y280878I250J1968D01*
X413323Y279159I-1968J249D01*
X415042Y277440I-249J-1969D01*
G37*
G74*
*
*
G04 PC Area=ANP002691*
G75*
G36*
G01*
X415042Y273503D02*
G02*
X416761Y275222I1969J-250D01*
X415042Y276941I250J1968D01*
X413323Y275222I-1968J249D01*
X415042Y273503I-249J-1969D01*
G37*
G74*
*
*
G04 PC Area=ANP002692*
G75*
G36*
G01*
X415042Y269566D02*
G02*
X416761Y271285I1969J-250D01*
X415042Y273004I250J1968D01*
X413323Y271285I-1968J249D01*
X415042Y269566I-249J-1969D01*
G37*
G74*
*
*
G04 PC Area=ANP002693*
G75*
G36*
G01*
X418979Y324684D02*
G02*
X420698Y326403I1969J-249D01*
X418979Y328122I250J1969D01*
X417260Y326403I-1968J250D01*
X418979Y324684I-249J-1968D01*
G37*
G74*
*
*
G04 PC Area=ANP002694*
G75*
G36*
G01*
X418979Y320747D02*
G02*
X420698Y322466I1969J-249D01*
X418979Y324185I250J1969D01*
X417260Y322466I-1968J250D01*
X418979Y320747I-249J-1968D01*
G37*
G74*
*
*
G04 PC Area=ANP002695*
G75*
G36*
G01*
X418979Y316810D02*
G02*
X420698Y318529I1969J-249D01*
X418979Y320248I250J1969D01*
X417260Y318529I-1968J250D01*
X418979Y316810I-249J-1968D01*
G37*
G74*
*
*
G04 PC Area=ANP002696*
G75*
G36*
G01*
X418979Y312873D02*
G02*
X420698Y314592I1969J-249D01*
X418979Y316311I250J1969D01*
X417260Y314592I-1968J250D01*
X418979Y312873I-249J-1968D01*
G37*
G74*
*
*
G04 PC Area=ANP002697*
G75*
G36*
G01*
X418979Y308936D02*
G02*
X420698Y310655I1969J-249D01*
X418979Y312374I250J1969D01*
X417260Y310655I-1968J250D01*
X418979Y308936I-249J-1968D01*
G37*
G74*
*
*
G04 PC Area=ANP002712*
G75*
G36*
G01*
X418979Y269566D02*
G02*
X420698Y271285I1969J-250D01*
X418979Y273004I250J1968D01*
X417260Y271285I-1968J249D01*
X418979Y269566I-249J-1969D01*
G37*
G74*
*
*
G04 PC Area=ANP002711*
G75*
G36*
G01*
X418979Y273503D02*
G02*
X420698Y275222I1969J-250D01*
X418979Y276941I250J1968D01*
X417260Y275222I-1968J249D01*
X418979Y273503I-249J-1969D01*
G37*
G74*
*
*
G04 PC Area=ANP002710*
G75*
G36*
G01*
X418979Y277440D02*
G02*
X420698Y279159I1969J-250D01*
X418979Y280878I250J1968D01*
X417260Y279159I-1968J249D01*
X418979Y277440I-249J-1969D01*
G37*
G74*
*
*
G04 PC Area=ANP002709*
G75*
G36*
G01*
X418979Y281377D02*
G02*
X420698Y283096I1969J-250D01*
X418979Y284815I250J1968D01*
X417260Y283096I-1968J249D01*
X418979Y281377I-249J-1969D01*
G37*
G74*
*
*
G04 PC Area=ANP002708*
G75*
G36*
G01*
X418979Y285314D02*
G02*
X420698Y287033I1969J-250D01*
X418979Y288752I250J1968D01*
X417260Y287033I-1968J249D01*
X418979Y285314I-249J-1969D01*
G37*
G74*
*
*
G04 PC Area=ANP002703*
G75*
G36*
G01*
X424635Y302781D02*
G02*
Y306718I250J1969D01*
X422916Y308437I250J1969D01*
X418979I-1968J250D01*
X417260Y306718I-1968J250D01*
Y302781I-249J-1968D01*
Y298844I-249J-1968D01*
Y294907I-249J-1969D01*
Y290970I-249J-1969D01*
X418979Y289251I-249J-1969D01*
X422916I1969J-250D01*
X424635Y290970I1969J-250D01*
Y294907I250J1968D01*
Y298844I250J1968D01*
Y302781I250J1969D01*
G37*
G74*
*
*
G04 PC Area=ANP002702*
G75*
G36*
G01*
X422916Y308936D02*
G02*
X424635Y310655I1969J-249D01*
X422916Y312374I250J1969D01*
X421197Y310655I-1968J250D01*
X422916Y308936I-249J-1968D01*
G37*
G74*
*
*
G04 PC Area=ANP002701*
G75*
G36*
G01*
X422916Y312873D02*
G02*
X424635Y314592I1969J-249D01*
X422916Y316311I250J1969D01*
X421197Y314592I-1968J250D01*
X422916Y312873I-249J-1968D01*
G37*
G74*
*
*
G04 PC Area=ANP002700*
G75*
G36*
G01*
X422916Y316810D02*
G02*
X424635Y318529I1969J-249D01*
X422916Y320248I250J1969D01*
X421197Y318529I-1968J250D01*
X422916Y316810I-249J-1968D01*
G37*
G74*
*
*
G04 PC Area=ANP002699*
G75*
G36*
G01*
X422916Y320747D02*
G02*
X424635Y322466I1969J-249D01*
X422916Y324185I250J1969D01*
X421197Y322466I-1968J250D01*
X422916Y320747I-249J-1968D01*
G37*
G74*
*
*
G04 PC Area=ANP002698*
G75*
G36*
G01*
X422916Y324684D02*
G02*
X424635Y326403I1969J-249D01*
X422916Y328122I250J1969D01*
X421197Y326403I-1968J250D01*
X422916Y324684I-249J-1968D01*
G37*
G74*
*
*
G04 PC Area=ANP002713*
G75*
G36*
G01*
X422916Y285314D02*
G02*
X424635Y287033I1969J-250D01*
X422916Y288752I250J1968D01*
X421197Y287033I-1968J249D01*
X422916Y285314I-249J-1969D01*
G37*
G74*
*
*
G04 PC Area=ANP002714*
G75*
G36*
G01*
X422916Y281377D02*
G02*
X424635Y283096I1969J-250D01*
X422916Y284815I250J1968D01*
X421197Y283096I-1968J249D01*
X422916Y281377I-249J-1969D01*
G37*
G74*
*
*
G04 PC Area=ANP002715*
G75*
G36*
G01*
X422916Y277440D02*
G02*
X424635Y279159I1969J-250D01*
X422916Y280878I250J1968D01*
X421197Y279159I-1968J249D01*
X422916Y277440I-249J-1969D01*
G37*
G74*
*
*
G04 PC Area=ANP002716*
G75*
G36*
G01*
X422916Y273503D02*
G02*
X424635Y275222I1969J-250D01*
X422916Y276941I250J1968D01*
X421197Y275222I-1968J249D01*
X422916Y273503I-249J-1969D01*
G37*
G74*
*
*
G04 PC Area=ANP002717*
G75*
G36*
G01*
X422916Y269566D02*
G02*
X424635Y271285I1969J-250D01*
X422916Y273004I250J1968D01*
X421197Y271285I-1968J249D01*
X422916Y269566I-249J-1969D01*
G37*
G74*
*
*
G04 PC Area=ANP002718*
G75*
G36*
G01*
X426853Y324684D02*
G02*
X428572Y326403I1969J-249D01*
X426853Y328122I250J1969D01*
X425134Y326403I-1968J250D01*
X426853Y324684I-249J-1968D01*
G37*
G74*
*
*
G04 PC Area=ANP002719*
G75*
G36*
G01*
X426853Y320747D02*
G02*
X428572Y322466I1969J-249D01*
X426853Y324185I250J1969D01*
X425134Y322466I-1968J250D01*
X426853Y320747I-249J-1968D01*
G37*
G74*
*
*
G04 PC Area=ANP002720*
G75*
G36*
G01*
X426853Y316810D02*
G02*
X428572Y318529I1969J-249D01*
X426853Y320248I250J1969D01*
X425134Y318529I-1968J250D01*
X426853Y316810I-249J-1968D01*
G37*
G74*
*
*
G04 PC Area=ANP002721*
G75*
G36*
G01*
X426853Y312873D02*
G02*
X428572Y314592I1969J-249D01*
X426853Y316311I250J1969D01*
X425134Y314592I-1968J250D01*
X426853Y312873I-249J-1968D01*
G37*
G74*
*
*
G04 PC Area=ANP002722*
G75*
G36*
G01*
X426853Y308936D02*
G02*
X428572Y310655I1969J-249D01*
X426853Y312374I250J1969D01*
X425134Y310655I-1968J250D01*
X426853Y308936I-249J-1968D01*
G37*
G74*
*
*
G04 PC Area=ANP002723*
G75*
G36*
G01*
X426853Y304999D02*
G02*
X428572Y306718I1969J-249D01*
X426853Y308437I250J1969D01*
X425134Y306718I-1968J250D01*
X426853Y304999I-249J-1968D01*
G37*
G74*
*
*
G04 PC Area=ANP002724*
G75*
G36*
G01*
X426853Y301062D02*
G02*
X428572Y302781I1969J-249D01*
X426853Y304500I250J1969D01*
X425134Y302781I-1968J250D01*
X426853Y301062I-249J-1968D01*
G37*
G74*
*
*
G04 PC Area=ANP002725*
G75*
G36*
G01*
X426853Y297125D02*
G02*
X428572Y298844I1969J-250D01*
X426853Y300563I250J1969D01*
X425134Y298844I-1968J250D01*
X426853Y297125I-249J-1969D01*
G37*
G74*
*
*
G04 PC Area=ANP002726*
G75*
G36*
G01*
X426853Y293188D02*
G02*
X428572Y294907I1969J-250D01*
X426853Y296626I250J1968D01*
X425134Y294907I-1968J249D01*
X426853Y293188I-249J-1969D01*
G37*
G74*
*
*
G04 PC Area=ANP002727*
G75*
G36*
G01*
X426853Y289251D02*
G02*
X428572Y290970I1969J-250D01*
X426853Y292689I250J1968D01*
X425134Y290970I-1968J249D01*
X426853Y289251I-249J-1969D01*
G37*
G74*
*
*
G04 PC Area=ANP002728*
G75*
G36*
G01*
X426853Y285314D02*
G02*
X428572Y287033I1969J-250D01*
X426853Y288752I250J1968D01*
X425134Y287033I-1968J249D01*
X426853Y285314I-249J-1969D01*
G37*
G74*
*
*
G04 PC Area=ANP002729*
G75*
G36*
G01*
X426853Y281377D02*
G02*
X428572Y283096I1969J-250D01*
X426853Y284815I250J1968D01*
X425134Y283096I-1968J249D01*
X426853Y281377I-249J-1969D01*
G37*
G74*
*
*
G04 PC Area=ANP002730*
G75*
G36*
G01*
X426853Y277440D02*
G02*
X428572Y279159I1969J-250D01*
X426853Y280878I250J1968D01*
X425134Y279159I-1968J249D01*
X426853Y277440I-249J-1969D01*
G37*
G74*
*
*
G04 PC Area=ANP002731*
G75*
G36*
G01*
X426853Y273503D02*
G02*
X428572Y275222I1969J-250D01*
X426853Y276941I250J1968D01*
X425134Y275222I-1968J249D01*
X426853Y273503I-249J-1969D01*
G37*
G74*
*
*
G04 PC Area=ANP002732*
G75*
G36*
G01*
X426853Y269566D02*
G02*
X428572Y271285I1969J-250D01*
X426853Y273004I250J1968D01*
X425134Y271285I-1968J249D01*
X426853Y269566I-249J-1969D01*
G37*
G74*
*
*
G04 PC Area=ANP002733*
G75*
G36*
G01*
X430790Y324684D02*
G02*
X432509Y326403I1969J-249D01*
X430790Y328122I250J1969D01*
X429071Y326403I-1968J250D01*
X430790Y324684I-249J-1968D01*
G37*
G74*
*
*
G04 PC Area=ANP002734*
G75*
G36*
G01*
X430790Y320747D02*
G02*
X432509Y322466I1969J-249D01*
X430790Y324185I250J1969D01*
X429071Y322466I-1968J250D01*
X430790Y320747I-249J-1968D01*
G37*
G74*
*
*
G04 PC Area=ANP002735*
G75*
G36*
G01*
X430790Y316810D02*
G02*
X432509Y318529I1969J-249D01*
X430790Y320248I250J1969D01*
X429071Y318529I-1968J250D01*
X430790Y316810I-249J-1968D01*
G37*
G74*
*
*
G04 PC Area=ANP002736*
G75*
G36*
G01*
X430790Y312873D02*
G02*
X432509Y314592I1969J-249D01*
X430790Y316311I250J1969D01*
X429071Y314592I-1968J250D01*
X430790Y312873I-249J-1968D01*
G37*
G74*
*
*
G04 PC Area=ANP002737*
G75*
G36*
G01*
X430790Y308936D02*
G02*
X432509Y310655I1969J-249D01*
X430790Y312374I250J1969D01*
X429071Y310655I-1968J250D01*
X430790Y308936I-249J-1968D01*
G37*
G74*
*
*
G04 PC Area=ANP002738*
G75*
G36*
G01*
X430790Y304999D02*
G02*
X432509Y306718I1969J-249D01*
X430790Y308437I250J1969D01*
X429071Y306718I-1968J250D01*
X430790Y304999I-249J-1968D01*
G37*
G74*
*
*
G04 PC Area=ANP002739*
G75*
G36*
G01*
X430790Y301062D02*
G02*
X432509Y302781I1969J-249D01*
X430790Y304500I250J1969D01*
X429071Y302781I-1968J250D01*
X430790Y301062I-249J-1968D01*
G37*
G74*
*
*
G04 PC Area=ANP002740*
G75*
G36*
G01*
X430790Y297125D02*
G02*
X432509Y298844I1969J-250D01*
X430790Y300563I250J1969D01*
X429071Y298844I-1968J250D01*
X430790Y297125I-249J-1969D01*
G37*
G74*
*
*
G04 PC Area=ANP002741*
G75*
G36*
G01*
X430790Y293188D02*
G02*
X432509Y294907I1969J-250D01*
X430790Y296626I250J1968D01*
X429071Y294907I-1968J249D01*
X430790Y293188I-249J-1969D01*
G37*
G74*
*
*
G04 PC Area=ANP002742*
G75*
G36*
G01*
X430790Y289251D02*
G02*
X432509Y290970I1969J-250D01*
X430790Y292689I250J1968D01*
X429071Y290970I-1968J249D01*
X430790Y289251I-249J-1969D01*
G37*
G74*
*
*
G04 PC Area=ANP002743*
G75*
G36*
G01*
X430790Y285314D02*
G02*
X432509Y287033I1969J-250D01*
X430790Y288752I250J1968D01*
X429071Y287033I-1968J249D01*
X430790Y285314I-249J-1969D01*
G37*
G74*
*
*
G04 PC Area=ANP002744*
G75*
G36*
G01*
X430790Y281377D02*
G02*
X432509Y283096I1969J-250D01*
X430790Y284815I250J1968D01*
X429071Y283096I-1968J249D01*
X430790Y281377I-249J-1969D01*
G37*
G74*
*
*
G04 PC Area=ANP002745*
G75*
G36*
G01*
X430790Y277440D02*
G02*
X432509Y279159I1969J-250D01*
X430790Y280878I250J1968D01*
X429071Y279159I-1968J249D01*
X430790Y277440I-249J-1969D01*
G37*
G74*
*
*
G04 PC Area=ANP002746*
G75*
G36*
G01*
X430790Y273503D02*
G02*
X432509Y275222I1969J-250D01*
X430790Y276941I250J1968D01*
X429071Y275222I-1968J249D01*
X430790Y273503I-249J-1969D01*
G37*
G74*
*
*
G04 PC Area=ANP002747*
G75*
G36*
G01*
X430790Y269566D02*
G02*
X432509Y271285I1969J-250D01*
X430790Y273004I250J1968D01*
X429071Y271285I-1968J249D01*
X430790Y269566I-249J-1969D01*
G37*
G74*
*
*
G04 PC Area=ANP002748*
G75*
G36*
G01*
X434727Y324684D02*
G02*
X436446Y326403I1969J-249D01*
X434727Y328122I250J1969D01*
X433008Y326403I-1968J250D01*
X434727Y324684I-249J-1968D01*
G37*
G74*
*
*
G04 PC Area=ANP002749*
G75*
G36*
G01*
X434727Y320747D02*
G02*
X436446Y322466I1969J-249D01*
X434727Y324185I250J1969D01*
X433008Y322466I-1968J250D01*
X434727Y320747I-249J-1968D01*
G37*
G74*
*
*
G04 PC Area=ANP002750*
G75*
G36*
G01*
X434727Y316810D02*
G02*
X436446Y318529I1969J-249D01*
X434727Y320248I250J1969D01*
X433008Y318529I-1968J250D01*
X434727Y316810I-249J-1968D01*
G37*
G74*
*
*
G04 PC Area=ANP002751*
G75*
G36*
G01*
X434727Y312873D02*
G02*
X436446Y314592I1969J-249D01*
X434727Y316311I250J1969D01*
X433008Y314592I-1968J250D01*
X434727Y312873I-249J-1968D01*
G37*
G74*
*
*
G04 PC Area=ANP002752*
G75*
G36*
G01*
X434727Y308936D02*
G02*
X436446Y310655I1969J-249D01*
X434727Y312374I250J1969D01*
X433008Y310655I-1968J250D01*
X434727Y308936I-249J-1968D01*
G37*
G74*
*
*
G04 PC Area=ANP002753*
G75*
G36*
G01*
X434727Y304999D02*
G02*
X436446Y306718I1969J-249D01*
X434727Y308437I250J1969D01*
X433008Y306718I-1968J250D01*
X434727Y304999I-249J-1968D01*
G37*
G74*
*
*
G04 PC Area=ANP002754*
G75*
G36*
G01*
X434727Y301062D02*
G02*
X436446Y302781I1969J-249D01*
X434727Y304500I250J1969D01*
X433008Y302781I-1968J250D01*
X434727Y301062I-249J-1968D01*
G37*
G74*
*
*
G04 PC Area=ANP002755*
G75*
G36*
G01*
X434727Y297125D02*
G02*
X436446Y298844I1969J-250D01*
X434727Y300563I250J1969D01*
X433008Y298844I-1968J250D01*
X434727Y297125I-249J-1969D01*
G37*
G74*
*
*
G04 PC Area=ANP002756*
G75*
G36*
G01*
X434727Y293188D02*
G02*
X436446Y294907I1969J-250D01*
X434727Y296626I250J1968D01*
X433008Y294907I-1968J249D01*
X434727Y293188I-249J-1969D01*
G37*
G74*
*
*
G04 PC Area=ANP002757*
G75*
G36*
G01*
X434727Y289251D02*
G02*
X436446Y290970I1969J-250D01*
X434727Y292689I250J1968D01*
X433008Y290970I-1968J249D01*
X434727Y289251I-249J-1969D01*
G37*
G74*
*
*
G04 PC Area=ANP002758*
G75*
G36*
G01*
X434727Y285314D02*
G02*
X436446Y287033I1969J-250D01*
X434727Y288752I250J1968D01*
X433008Y287033I-1968J249D01*
X434727Y285314I-249J-1969D01*
G37*
G74*
*
*
G04 PC Area=ANP002759*
G75*
G36*
G01*
X434727Y281377D02*
G02*
X436446Y283096I1969J-250D01*
X434727Y284815I250J1968D01*
X433008Y283096I-1968J249D01*
X434727Y281377I-249J-1969D01*
G37*
G74*
*
*
G04 PC Area=ANP002760*
G75*
G36*
G01*
X434727Y277440D02*
G02*
X436446Y279159I1969J-250D01*
X434727Y280878I250J1968D01*
X433008Y279159I-1968J249D01*
X434727Y277440I-249J-1969D01*
G37*
G74*
*
*
G04 PC Area=ANP002761*
G75*
G36*
G01*
X434727Y273503D02*
G02*
X436446Y275222I1969J-250D01*
X434727Y276941I250J1968D01*
X433008Y275222I-1968J249D01*
X434727Y273503I-249J-1969D01*
G37*
G74*
*
*
G04 PC Area=ANP002762*
G75*
G36*
G01*
X434727Y269566D02*
G02*
X436446Y271285I1969J-250D01*
X434727Y273004I250J1968D01*
X433008Y271285I-1968J249D01*
X434727Y269566I-249J-1969D01*
G37*
G74*
*
*
G04 PC Area=ANP002763*
G75*
G36*
G01*
X438664Y324684D02*
G02*
X440383Y326403I1969J-249D01*
X438664Y328122I250J1969D01*
X436945Y326403I-1968J250D01*
X438664Y324684I-249J-1968D01*
G37*
G74*
*
*
G04 PC Area=ANP002764*
G75*
G36*
G01*
X438664Y320747D02*
G02*
X440383Y322466I1969J-249D01*
X438664Y324185I250J1969D01*
X436945Y322466I-1968J250D01*
X438664Y320747I-249J-1968D01*
G37*
G74*
*
*
G04 PC Area=ANP002765*
G75*
G36*
G01*
X438664Y316810D02*
G02*
X440383Y318529I1969J-249D01*
X438664Y320248I250J1969D01*
X436945Y318529I-1968J250D01*
X438664Y316810I-249J-1968D01*
G37*
G74*
*
*
G04 PC Area=ANP002766*
G75*
G36*
G01*
X438664Y312873D02*
G02*
X440383Y314592I1969J-249D01*
X438664Y316311I250J1969D01*
X436945Y314592I-1968J250D01*
X438664Y312873I-249J-1968D01*
G37*
G74*
*
*
G04 PC Area=ANP002767*
G75*
G36*
G01*
X438664Y308936D02*
G02*
X440383Y310655I1969J-249D01*
X438664Y312374I250J1969D01*
X436945Y310655I-1968J250D01*
X438664Y308936I-249J-1968D01*
G37*
G74*
*
*
G04 PC Area=ANP002768*
G75*
G36*
G01*
X438664Y304999D02*
G02*
X440383Y306718I1969J-249D01*
X438664Y308437I250J1969D01*
X436945Y306718I-1968J250D01*
X438664Y304999I-249J-1968D01*
G37*
G74*
*
*
G04 PC Area=ANP002769*
G75*
G36*
G01*
X438664Y301062D02*
G02*
X440383Y302781I1969J-249D01*
X438664Y304500I250J1969D01*
X436945Y302781I-1968J250D01*
X438664Y301062I-249J-1968D01*
G37*
G74*
*
*
G04 PC Area=ANP002776*
G75*
G36*
G01*
X438664Y269566D02*
G02*
X440383Y271285I1969J-250D01*
X438664Y273004I250J1968D01*
X436945Y271285I-1968J249D01*
X438664Y269566I-249J-1969D01*
G37*
G74*
*
*
G04 PC Area=ANP002771*
G75*
G36*
G01*
X438664Y289251D02*
G02*
X440383Y290970I1969J-250D01*
X438664Y292689I250J1968D01*
X436945Y290970I-1968J249D01*
X438664Y289251I-249J-1969D01*
G37*
G74*
*
*
G04 PC Area=ANP002772*
G75*
G36*
G01*
X438664Y285314D02*
G02*
X440383Y287033I1969J-250D01*
X438664Y288752I250J1968D01*
X436945Y287033I-1968J249D01*
X438664Y285314I-249J-1969D01*
G37*
G74*
*
*
G04 PC Area=ANP002773*
G75*
G36*
G01*
X438664Y281377D02*
G02*
X440383Y283096I1969J-250D01*
X438664Y284815I250J1968D01*
X436945Y283096I-1968J249D01*
X438664Y281377I-249J-1969D01*
G37*
G74*
*
*
G04 PC Area=ANP002774*
G75*
G36*
G01*
X438664Y277440D02*
G02*
X440383Y279159I1969J-250D01*
X438664Y280878I250J1968D01*
X436945Y279159I-1968J249D01*
X438664Y277440I-249J-1969D01*
G37*
G74*
*
*
G04 PC Area=ANP002775*
G75*
G36*
G01*
X438664Y273503D02*
G02*
X440383Y275222I1969J-250D01*
X438664Y276941I250J1968D01*
X436945Y275222I-1968J249D01*
X438664Y273503I-249J-1969D01*
G37*
G74*
*
*
G04 PC Area=ANP002770*
G75*
G36*
G01*
X441811Y310283D02*
G02*
X443834Y311694I2189J-983D01*
X442614Y312516I666J2306D01*
X440882Y310655I-1981J108D01*
X441811Y310283I-249J-1968D01*
G37*
G74*
*
*
G04 PC Area=ANP002777*
G75*
G36*
G01*
X445707Y310987D02*
Y311926D01*
G02*
X444666Y311606I-1207J2074D01*
X445707Y310987I-666J-2306D01*
G37*
G74*
*
*
G04 PC Void Outlines (0)*
G04 Layer Name rx_REVA_10312006_routed - clear (0)*
%LPC*%
*
*
G04 PC Area=ANP002531*
G75*
G36*
G01*
X443000Y331100D02*
G03*
X443000I0J2400D01*
G37*
G74*
*
G75*
G36*
G01*
X440500Y339600D02*
G03*
X440500I0J2400D01*
G37*
G74*
*
G75*
G36*
G01*
X430028Y352968D02*
G03*
X430028I-0J2600D01*
G37*
G74*
*
G75*
G36*
G01*
X420000Y400900D02*
G03*
X420000I0J4100D01*
G37*
G74*
*
G75*
G36*
G01*
X412000Y363400D02*
G03*
X412000I0J2600D01*
G37*
G74*
*
G75*
G36*
G01*
X408000Y400900D02*
G03*
X408000I0J4100D01*
G37*
G74*
*
G75*
G36*
G01*
X395000Y343100D02*
G03*
X395000I0J2400D01*
G37*
G74*
*
G75*
G36*
G01*
X389500Y363600D02*
G03*
X389500I0J2400D01*
G37*
G74*
*
G75*
G36*
G01*
X383780Y348879D02*
G03*
X383780I-0J2400D01*
G37*
G74*
*
G75*
G36*
G01*
X383000Y376000D02*
G03*
X383000I0J4000D01*
G37*
G74*
*
G75*
G36*
G01*
Y396000D02*
G03*
X383000I0J4000D01*
G37*
G74*
*
G75*
G36*
G01*
X371500Y254600D02*
G03*
X371500I0J2400D01*
G37*
G74*
*
G75*
G36*
G01*
Y287100D02*
G03*
X371500I0J2400D01*
G37*
G74*
*
G75*
G36*
G01*
Y361600D02*
G03*
X371500I0J2400D01*
G37*
G74*
*
G75*
G36*
G01*
X405500Y222100D02*
G03*
X405500I0J2400D01*
G37*
G74*
*
G75*
G36*
G01*
X398000Y206100D02*
G03*
X398000I0J2400D01*
G37*
G74*
*
G75*
G36*
G01*
Y217600D02*
G03*
X398000I0J2400D01*
G37*
G74*
*
G75*
G36*
G01*
X397000Y249600D02*
G03*
X397000I0J2400D01*
G37*
G74*
*
G75*
G36*
G01*
X387114Y229257D02*
G02*
X388886Y226680I2386J-257D01*
X387114Y229257I-2386J257D01*
G37*
G74*
*
G75*
G36*
G01*
X385140Y236062D02*
G02*
X388097Y234175I2360J438D01*
X385140Y236062I-2360J-438D01*
G37*
G74*
*
G75*
G36*
G01*
X384211Y243400D02*
G02*
X387789I1789J1600D01*
X384211I-1789J-1600D01*
G37*
G74*
*
G75*
G36*
G01*
X380195Y201925D02*
G03*
X380195I-0J2400D01*
G37*
G74*
*
G75*
G36*
G01*
X375000Y212400D02*
G03*
X375000I0J2600D01*
G37*
G74*
*
G75*
G36*
G01*
Y222400D02*
G03*
X375000I0J2600D01*
G37*
G74*
*
G75*
G36*
G01*
Y232400D02*
G03*
X375000I0J2600D01*
G37*
G74*
*
G75*
G36*
G01*
X379857Y248013D02*
G02*
X382753Y246149I2352J474D01*
X378040Y245236I-2353J-474D01*
X373815Y247492I-2040J1264D01*
X374685Y248508I-1315J2008D01*
X378360Y246939I1315J-2008D01*
X379857Y248013I2040J-1264D01*
G37*
G74*
*
G75*
G36*
G01*
X381500Y252600D02*
G03*
X381500I0J2400D01*
G37*
G74*
*
G75*
G36*
G01*
X415078Y258178D02*
G03*
X415078I0J2400D01*
G37*
G74*
*
*
G04 PC Area=ANP003443*
G75*
G36*
G01*
X620000Y106000D02*
G03*
X620000I0J4000D01*
G37*
G74*
*
G75*
G36*
G01*
Y116000D02*
G03*
X620000I0J4000D01*
G37*
G74*
*
G75*
G36*
G01*
X625000Y146000D02*
G03*
X625000I0J4000D01*
G37*
G74*
*
G75*
G36*
G01*
Y156000D02*
G03*
X625000I0J4000D01*
G37*
G74*
*
G75*
G36*
G01*
Y166000D02*
G03*
X625000I0J4000D01*
G37*
G74*
*
G75*
G36*
G01*
Y197100D02*
G03*
X625000I0J2400D01*
G37*
G74*
*
G75*
G36*
G01*
Y225100D02*
G03*
X625000I0J2400D01*
G37*
G74*
*
G75*
G36*
G01*
Y230600D02*
G03*
X625000I0J2400D01*
G37*
G74*
*
G75*
G36*
G01*
X627117Y245869D02*
G02*
X627398Y241102I383J-2369D01*
X625102Y243398I-2398J-102D01*
X625383Y244631I2398J102D01*
X627117Y245869I-383J2369D01*
G37*
G74*
*
G75*
G36*
G01*
X626500Y262600D02*
G03*
X626500I0J2400D01*
G37*
G74*
*
G75*
G36*
G01*
X626838Y273043D02*
G02*
X627162Y270457I2162J-1043D01*
X623104Y272972I-2162J1043D01*
X626665Y273228I1665J1728D01*
X626838Y273043I-1665J-1728D01*
G37*
G74*
*
G75*
G36*
G01*
X625000Y284600D02*
G03*
X625000I0J2400D01*
G37*
G74*
*
G75*
G36*
G01*
X624165Y308750D02*
G02*
X625835I835J2250D01*
X624165I-835J-2250D01*
G37*
G74*
*
G75*
G36*
G01*
X616899Y200300D02*
G03*
X616899I0J2400D01*
G37*
G74*
*
G75*
G36*
G01*
X610000Y106000D02*
G03*
X610000I0J4000D01*
G37*
G74*
*
G75*
G36*
G01*
Y116000D02*
G03*
X610000I0J4000D01*
G37*
G74*
*
G75*
G36*
G01*
Y146000D02*
G03*
X610000I0J4000D01*
G37*
G74*
*
G75*
G36*
G01*
Y156000D02*
G03*
X610000I0J4000D01*
G37*
G74*
*
G75*
G36*
G01*
Y166000D02*
G03*
X610000I0J4000D01*
G37*
G74*
*
G75*
G36*
G01*
X608500Y174100D02*
G03*
X608500I0J2400D01*
G37*
G74*
*
G75*
G36*
G01*
X612041Y219300D02*
G02*
X613959I959J2200D01*
X612041I-959J-2200D01*
G37*
G74*
*
G75*
G36*
G01*
X600000Y106000D02*
G03*
X600000I0J4000D01*
G37*
G74*
*
G75*
G36*
G01*
Y116000D02*
G03*
X600000I0J4000D01*
G37*
G74*
*
G75*
G36*
G01*
X602191Y135110D02*
G03*
X602191I0J2600D01*
G37*
G74*
*
G75*
G36*
G01*
X600500Y196327D02*
G02*
Y193673I2000J-1327D01*
Y196327I-2000J1327D01*
G37*
G74*
*
G75*
G36*
G01*
X606893Y209493D02*
G03*
X606893I0J2400D01*
G37*
G74*
*
G75*
G36*
G01*
X607000Y227100D02*
G03*
X607000I0J2400D01*
G37*
G74*
*
G75*
G36*
G01*
X610615Y237228D02*
G02*
X612599Y235134I2385J272D01*
X609104Y232866I-1099J-2134D01*
X610615Y237228I133J2397D01*
G37*
G74*
*
G75*
G36*
G01*
X613000Y240900D02*
G03*
X613000I0J2400D01*
G37*
G74*
*
G75*
G36*
G01*
X611873Y251000D02*
G02*
X611327Y247500I1327J-2000D01*
X611873Y251000I-1327J2000D01*
G37*
G74*
*
G75*
G36*
G01*
X613000Y268100D02*
G03*
X613000I0J2400D01*
G37*
G74*
*
G75*
G36*
G01*
X612599Y280866D02*
G02*
X611901Y280634I401J-2366D01*
X609361Y284088I-401J2366D01*
X612639Y285112I1139J2112D01*
X612599Y280866I-1139J-2112D01*
G37*
G74*
*
G75*
G36*
G01*
X613000Y292100D02*
G03*
X613000I0J2400D01*
G37*
G74*
*
G75*
G36*
G01*
Y305600D02*
G03*
X613000I0J2400D01*
G37*
G74*
*
G75*
G36*
G01*
Y316600D02*
G03*
X613000I0J2400D01*
G37*
G74*
*
G75*
G36*
G01*
X612500Y321600D02*
G03*
X612500I0J2400D01*
G37*
G74*
*
G75*
G36*
G01*
X605000Y278100D02*
G03*
X605000I0J2400D01*
G37*
G74*
*
G75*
G36*
G01*
X590000Y106000D02*
G03*
X590000I0J4000D01*
G37*
G74*
*
G75*
G36*
G01*
Y116000D02*
G03*
X590000I0J4000D01*
G37*
G74*
*
G75*
G36*
G01*
X596000Y211100D02*
G03*
X596000I0J2400D01*
G37*
G74*
*
G75*
G36*
G01*
X598500Y222600D02*
G03*
X598500I0J2400D01*
G37*
G74*
*
G75*
G36*
G01*
X580000Y106000D02*
G03*
X580000I0J4000D01*
G37*
G74*
*
G75*
G36*
G01*
Y116000D02*
G03*
X580000I0J4000D01*
G37*
G74*
*
G75*
G36*
G01*
X570000Y106000D02*
G03*
X570000I0J4000D01*
G37*
G74*
*
G75*
G36*
G01*
Y116000D02*
G03*
X570000I0J4000D01*
G37*
G74*
*
G75*
G36*
G01*
X571500Y180600D02*
G03*
X571500I0J2400D01*
G37*
G74*
*
G75*
G36*
G01*
X576498Y195324D02*
G02*
X576629Y192496I2002J-1324D01*
X572511Y193615I-2347J-501D01*
X576498Y195324I1589J1798D01*
G37*
G74*
*
G75*
G36*
G01*
X586750Y208642D02*
G02*
Y205358I1750J-1642D01*
X582675Y206403I-1750J1642D01*
X584562Y209360I-438J2360D01*
X586750Y208642I438J-2360D01*
G37*
G74*
*
G75*
G36*
G01*
X590828Y221417D02*
G02*
X589783Y219972I1283J-2028D01*
X590828Y221417I-1283J2028D01*
G37*
G74*
*
G75*
G36*
G01*
X593832Y269026D02*
G02*
X597394Y268774I1894J1474D01*
X593832Y269026I-1894J-1474D01*
G37*
G74*
*
G75*
G36*
G01*
X602764Y285627D02*
G02*
X603236Y284873I2236J873D01*
X601692Y281702I-2236J-873D01*
X599308Y282298I-1692J-1702D01*
X602764Y285627I1692J1702D01*
G37*
G74*
*
G75*
G36*
G01*
X605162Y330042D02*
G02*
X606296Y325834I1538J-1842D01*
X602913Y326602I-2059J-1234D01*
X601450Y327167I87J2398D01*
X601350Y330743I-1650J1743D01*
X605162Y330042I1650J-1743D01*
G37*
G74*
*
G75*
G36*
G01*
X592500Y322600D02*
G03*
X592500I0J2400D01*
G37*
G74*
*
G75*
G36*
G01*
X585500Y258100D02*
G03*
X585500I0J2400D01*
G37*
G74*
*
G75*
G36*
G01*
X582500Y298100D02*
G03*
X582500I0J2400D01*
G37*
G74*
*
G75*
G36*
G01*
X585000Y310100D02*
G03*
X585000I0J2400D01*
G37*
G74*
*
G75*
G36*
G01*
X560000Y106000D02*
G03*
X560000I0J4000D01*
G37*
G74*
*
G75*
G36*
G01*
Y116000D02*
G03*
X560000I0J4000D01*
G37*
G74*
*
G75*
G36*
G01*
X563472Y157563D02*
G03*
X563472I0J2601D01*
G37*
G74*
*
G75*
G36*
G01*
X565348Y188105D02*
G02*
X568461Y187384I1961J1385D01*
X565348Y188105I-1961J-1384D01*
G37*
G74*
*
G75*
G36*
G01*
X562373Y196969D02*
G02*
X562827Y193444I1827J-1556D01*
X562373Y196969I-1827J1556D01*
G37*
G74*
*
G75*
G36*
G01*
X571168Y208550D02*
G02*
Y205450I1832J-1550D01*
X567197Y205910I-1832J1550D01*
X562588Y207211I-2261J803D01*
X561328Y207583I23J2400D01*
X556857Y205920I-2328J-583D01*
X556743Y207817I-2257J817D01*
X560283Y209028I2257J-817D01*
X564959Y209113I2328J583D01*
X567074Y207803I-23J-2400D01*
X571168Y208550I2262J-803D01*
G37*
G74*
*
G75*
G36*
G01*
X577000Y213600D02*
G03*
X577000I0J2400D01*
G37*
G74*
*
G75*
G36*
G01*
X579500Y322600D02*
G03*
X579500I0J2400D01*
G37*
G74*
*
G75*
G36*
G01*
X574500Y235600D02*
G03*
X574500I0J2400D01*
G37*
G74*
*
G75*
G36*
G01*
X567000Y211100D02*
G03*
X567000I0J2400D01*
G37*
G74*
*
G75*
G36*
G01*
X571298Y265381D02*
G02*
X569702Y265019I-298J-2381D01*
X571298Y265381I298J2381D01*
G37*
G74*
*
G75*
G36*
G01*
X571500Y280600D02*
G03*
X571500I0J2400D01*
G37*
G74*
*
G75*
G36*
G01*
X574253Y292636D02*
G03*
X574253I-0J2400D01*
G37*
G74*
*
G75*
G36*
G01*
X569000Y290800D02*
G03*
X569000I0J2400D01*
G37*
G74*
*
G75*
G36*
G01*
X570974Y301842D02*
G02*
X569565Y300920I526J-2342D01*
X567161Y301767I-526J2341D01*
X567378Y304994I-1661J1733D01*
X570974Y301842I1661J-1733D01*
G37*
G74*
*
G75*
G36*
G01*
X571000Y310600D02*
G03*
X571000I0J2400D01*
G37*
G74*
*
G75*
G36*
G01*
X569597Y327325D02*
G02*
X566640Y325438I-597J-2325D01*
X569597Y327325I597J2325D01*
G37*
G74*
*
G75*
G36*
G01*
X554500Y254600D02*
G03*
X554500I0J2400D01*
G37*
G74*
*
G75*
G36*
G01*
X558000Y303600D02*
G03*
X558000I0J2400D01*
G37*
G74*
*
G75*
G36*
G01*
X557000Y310500D02*
G03*
X557000I0J2400D01*
G37*
G74*
*
G75*
G36*
G01*
X559000Y322600D02*
G03*
X559000I0J2400D01*
G37*
G74*
*
G75*
G36*
G01*
X540000Y106000D02*
G03*
X540000I0J4000D01*
G37*
G74*
*
G75*
G36*
G01*
Y116000D02*
G03*
X540000I0J4000D01*
G37*
G74*
*
G75*
G36*
G01*
Y192600D02*
G03*
X540000I0J2400D01*
G37*
G74*
*
G75*
G36*
G01*
X547000Y208327D02*
G02*
Y205673I2000J-1327D01*
X543267Y205339I-2000J1327D01*
X543032Y208374I-1968J1374D01*
X547000Y208327I1968J-1374D01*
G37*
G74*
*
G75*
G36*
G01*
X550334Y260766D02*
G03*
X550334I0J2400D01*
G37*
G74*
*
G75*
G36*
G01*
X545500Y210600D02*
G03*
X545500I0J2400D01*
G37*
G74*
*
G75*
G36*
G01*
X547349Y265700D02*
G03*
X547349I-0J2400D01*
G37*
G74*
*
G75*
G36*
G01*
X552000Y304600D02*
G03*
X552000I0J2400D01*
G37*
G74*
*
G75*
G36*
G01*
X553500Y324100D02*
G03*
X553500I0J2400D01*
G37*
G74*
*
G75*
G36*
G01*
X547500Y311873D02*
G02*
X545295Y307706I-1500J-1873D01*
X544205Y308407I-1795J-1593D01*
X543701Y309313I1795J1593D01*
X543190Y313852I-988J2187D01*
X547500Y311873I2310J-652D01*
G37*
G74*
*
G75*
G36*
G01*
X547000Y322600D02*
G03*
X547000I0J2400D01*
G37*
G74*
*
G75*
G36*
G01*
X550109Y329325D02*
G03*
X550109I-0J2400D01*
G37*
G74*
*
G75*
G36*
G01*
X530000Y106000D02*
G03*
X530000I0J4000D01*
G37*
G74*
*
G75*
G36*
G01*
Y116000D02*
G03*
X530000I0J4000D01*
G37*
G74*
*
G75*
G36*
G01*
X520000Y106000D02*
G03*
X520000I0J4000D01*
G37*
G74*
*
G75*
G36*
G01*
Y116000D02*
G03*
X520000I0J4000D01*
G37*
G74*
*
G75*
G36*
G01*
X523173Y196500D02*
G02*
X522627Y193000I1327J-2000D01*
X523173Y196500I-1327J2000D01*
G37*
G74*
*
G75*
G36*
G01*
X535896Y209134D02*
G02*
X533373Y206520I-133J-2397D01*
X528814Y205798I-2383J290D01*
X526065Y209042I-2224J902D01*
X525122Y210092I1235J2058D01*
X520881Y209702I-2222J908D01*
X518524Y207600I-2381J298D01*
X514600Y205211I-2324J-600D01*
Y208789I-1600J1789D01*
X516176Y209400I1600J-1789D01*
X520519Y211298I2324J600D01*
X525078Y212008I2381J-298D01*
X527825Y208758I2222J-908D01*
X528766Y207712I-1235J-2058D01*
X531109Y209207I2224J-902D01*
X535896Y209134I2391J-207D01*
G37*
G74*
*
G75*
G36*
G01*
X534500Y234100D02*
G03*
X534500I0J2400D01*
G37*
G74*
*
G75*
G36*
G01*
X536419Y303713D02*
G03*
X536419I0J2400D01*
G37*
G74*
*
G75*
G36*
G01*
X528301Y274251D02*
G03*
X528301I-0J2400D01*
G37*
G74*
*
G75*
G36*
G01*
X533719Y313059D02*
G02*
X535125Y309820I2194J-972D01*
X531804Y308673I-2194J972D01*
X530627Y310119I-2304J-673D01*
X533719Y313059I2304J673D01*
G37*
G74*
*
G75*
G36*
G01*
X538708Y329060D02*
G02*
X535826Y325593I-808J-2260D01*
X535574Y326207I-2326J-593D01*
X535692Y327740I2326J593D01*
X538708Y329060I808J2260D01*
G37*
G74*
*
G75*
G36*
G01*
X520000Y240600D02*
G03*
X520000I0J2400D01*
G37*
G74*
*
G75*
G36*
G01*
X508000Y193100D02*
G03*
X508000I0J2400D01*
G37*
G74*
*
G75*
G36*
G01*
X505487Y214137D02*
G02*
X508356Y214020I1513J1863D01*
X505487Y214137I-1513J-1863D01*
G37*
G74*
*
G75*
G36*
G01*
X509000Y222600D02*
G03*
X509000I0J2400D01*
G37*
G74*
*
G75*
G36*
G01*
X513095Y231499D02*
G02*
X509264Y228705I-1695J-1699D01*
X509136Y230595I-2264J795D01*
X509527Y231301I2264J-795D01*
X513095Y231499I1696J1699D01*
G37*
G74*
*
G75*
G36*
G01*
X509322Y242106D02*
G02*
X508278Y239468I1278J-2031D01*
X507499Y243848I-1278J2032D01*
X508863Y243014I1862J1513D01*
X509322Y242106I-1863J-1514D01*
G37*
G74*
*
G75*
G36*
G01*
X507000Y248600D02*
G03*
X507000I0J2400D01*
G37*
G74*
*
G75*
G36*
G01*
Y260600D02*
G03*
X507000I0J2400D01*
G37*
G74*
*
G75*
G36*
G01*
X517200Y267961D02*
G02*
X517400Y267001I2400J-0D01*
G01*
Y267000D01*
G02*
X512838Y265957I-2400J0D01*
X512662Y267541I-2338J542D01*
X517200Y267959I2338J-541D01*
G01*
Y267961D01*
G37*
G74*
*
G75*
G36*
G01*
X521500Y306228D02*
G03*
X521500I0J2400D01*
G37*
G74*
*
G75*
G36*
G01*
X523000Y328600D02*
G03*
X523000I0J2400D01*
G37*
G74*
*
G75*
G36*
G01*
X514301Y275344D02*
G03*
X514301I-0J2400D01*
G37*
G74*
*
G75*
G36*
G01*
X516998Y309646D02*
G03*
X516998I0J2400D01*
G37*
G74*
*
G75*
G36*
G01*
X517500Y322600D02*
G03*
X517500I0J2400D01*
G37*
G74*
*
G75*
G36*
G01*
X508539Y269698D02*
G03*
X508539I-0J2401D01*
G37*
G74*
*
G75*
G36*
G01*
X508874Y293000D02*
G02*
X509069Y288883I1326J-2000D01*
X506041Y292300I-2069J1217D01*
X508874Y293000I959J2200D01*
G37*
G74*
*
G75*
G36*
G01*
X506692Y301688D02*
G02*
X508243Y301312I1308J2012D01*
X506692Y301688I-1308J-2012D01*
G37*
G74*
*
G75*
G36*
G01*
X507500Y321600D02*
G03*
X507500I0J2400D01*
G37*
G74*
*
G75*
G36*
G01*
X500000Y106000D02*
G03*
X500000I0J4000D01*
G37*
G74*
*
G75*
G36*
G01*
X501513Y123703D02*
G02*
X499235Y123926I-1513J-3703D01*
X501513Y123703I1367J2212D01*
G37*
G74*
*
G75*
G36*
G01*
X501457Y314400D02*
G03*
X501457I-0J2400D01*
G37*
G74*
*
G75*
G36*
G01*
X490000Y106000D02*
G03*
X490000I0J4000D01*
G37*
G74*
*
G75*
G36*
G01*
Y116000D02*
G03*
X490000I0J4000D01*
G37*
G74*
*
G75*
G36*
G01*
X495000Y209100D02*
G03*
X495000I0J2400D01*
G37*
G74*
*
G75*
G36*
G01*
X493500Y215600D02*
G03*
X493500I0J2400D01*
G37*
G74*
*
G75*
G36*
G01*
X480000Y106000D02*
G03*
X480000I0J4000D01*
G37*
G74*
*
G75*
G36*
G01*
Y116000D02*
G03*
X480000I0J4000D01*
G37*
G74*
*
G75*
G36*
G01*
X484826Y127558D02*
G03*
X484826I0J2600D01*
G37*
G74*
*
G75*
G36*
G01*
X489000Y221600D02*
G03*
X489000I0J2400D01*
G37*
G74*
*
G75*
G36*
G01*
X493867Y232396D02*
G02*
X491633Y229604I133J-2396D01*
X493867Y232396I-133J2396D01*
G37*
G74*
*
G75*
G36*
G01*
X495000Y235100D02*
G03*
X495000I0J2400D01*
G37*
G74*
*
G75*
G36*
G01*
X492083Y251828D02*
G02*
X493528Y250783I2028J1283D01*
X492083Y251828I-2028J-1283D01*
G37*
G74*
*
G75*
G36*
G01*
X495000Y285100D02*
G03*
X495000I0J2400D01*
G37*
G74*
*
G75*
G36*
G01*
X494000Y307600D02*
G03*
X494000I0J2400D01*
G37*
G74*
*
G75*
G36*
G01*
X497000Y318600D02*
G03*
X497000I0J2400D01*
G37*
G74*
*
G75*
G36*
G01*
X484500Y307100D02*
G03*
X484500I0J2400D01*
G37*
G74*
*
G75*
G36*
G01*
X479500Y177100D02*
G03*
X479500I0J2400D01*
G37*
G74*
*
G75*
G36*
G01*
X470000Y106000D02*
G03*
X470000I0J4000D01*
G37*
G74*
*
G75*
G36*
G01*
Y116000D02*
G03*
X470000I0J4000D01*
G37*
G74*
*
G75*
G36*
G01*
Y136000D02*
G03*
X470000I0J4000D01*
G37*
G74*
*
G75*
G36*
G01*
X460000Y106000D02*
G03*
X460000I0J4000D01*
G37*
G74*
*
G75*
G36*
G01*
Y116000D02*
G03*
X460000I0J4000D01*
G37*
G74*
*
G75*
G36*
G01*
X450000Y106000D02*
G03*
X450000I0J4000D01*
G37*
G74*
*
G75*
G36*
G01*
Y116000D02*
G03*
X450000I0J4000D01*
G37*
G74*
*
G75*
G36*
G01*
Y136000D02*
G03*
X450000I0J4000D01*
G37*
G74*
*
G75*
G36*
G01*
X468505Y157127D02*
G02*
Y152873I1495J-2127D01*
X461495I-3505J2127D01*
X458505I-1495J2127D01*
X451495I-3505J2127D01*
Y157127I-1495J2127D01*
X458505I3505J-2127D01*
X461495I1495J-2127D01*
X468505I3505J-2127D01*
G37*
G74*
*
G75*
G36*
G01*
X472500Y170100D02*
G03*
X472500I0J2400D01*
G37*
G74*
*
G75*
G36*
G01*
X472000Y179100D02*
G03*
X472000I0J2400D01*
G37*
G74*
*
G75*
G36*
G01*
X472389Y235489D02*
G03*
X472389I-0J2400D01*
G37*
G74*
*
G75*
G36*
G01*
X477000Y245100D02*
G03*
X477000I0J2400D01*
G37*
G74*
*
G75*
G36*
G01*
X467430Y248331D02*
G02*
X470367Y246397I2367J398D01*
X467430Y248331I-2367J-397D01*
G37*
G74*
*
G75*
G36*
G01*
X456500Y173100D02*
G03*
X456500I0J2400D01*
G37*
G74*
*
G75*
G36*
G01*
X460500Y178100D02*
G03*
X460500I0J2400D01*
G37*
G74*
*
G75*
G36*
G01*
X457700Y185600D02*
G03*
X457700I0J2400D01*
G37*
G74*
*
G75*
G36*
G01*
X448500Y177600D02*
G03*
X448500I0J2400D01*
G37*
G74*
*
G75*
G36*
G01*
X440000Y106000D02*
G03*
X440000I0J4000D01*
G37*
G74*
*
G75*
G36*
G01*
Y116000D02*
G03*
X440000I0J4000D01*
G37*
G74*
*
G75*
G36*
G01*
X430000Y106000D02*
G03*
X430000I0J4000D01*
G37*
G74*
*
G75*
G36*
G01*
Y116000D02*
G03*
X430000I0J4000D01*
G37*
G74*
*
G75*
G36*
G01*
X435500Y149100D02*
G03*
X435500I0J2400D01*
G37*
G74*
*
G75*
G36*
G01*
Y163600D02*
G03*
X435500I0J2400D01*
G37*
G74*
*
G75*
G36*
G01*
X434000Y175100D02*
G03*
X434000I0J2400D01*
G37*
G74*
*
G75*
G36*
G01*
X421060Y112819D02*
G03*
X421060I-0J2600D01*
G37*
G74*
*
G75*
G36*
G01*
X423833Y182623D02*
G02*
X424410Y181905I2283J1245D01*
X423833Y182623I-2282J-1245D01*
G37*
G74*
*
G75*
G36*
G01*
X414564Y140998D02*
G03*
X414564I-0J2600D01*
G37*
G74*
*
G75*
G36*
G01*
X417000Y178100D02*
G03*
X417000I0J2400D01*
G37*
G74*
*
G75*
G36*
G01*
X403486Y159821D02*
G03*
X403486I0J2400D01*
G37*
G74*
*
G75*
G36*
G01*
X390500Y137600D02*
G03*
X390500I0J2400D01*
G37*
G74*
*
G75*
G36*
G01*
X394594Y145401D02*
G03*
X394594I0J2400D01*
G37*
G74*
*
G75*
G36*
G01*
X397507Y178841D02*
G03*
X397507I-0J2600D01*
G37*
G74*
*
G75*
G36*
G01*
X383000Y163100D02*
G03*
X383000I0J2400D01*
G37*
G74*
*
G75*
G36*
G01*
X383100Y172600D02*
G03*
X383100I0J2400D01*
G37*
G74*
*
G75*
G36*
G01*
X377731Y107402D02*
G03*
X377731I-0J2600D01*
G37*
G74*
*
G75*
G36*
G01*
X376500Y133100D02*
G03*
X376500I0J2400D01*
G37*
G74*
*
G75*
G36*
G01*
X380000Y183100D02*
G03*
X380000I0J2400D01*
G37*
G74*
*
G75*
G36*
G01*
X510000Y106000D02*
G03*
X510000I0J4000D01*
G37*
G74*
*
G75*
G36*
G01*
Y116000D02*
G03*
X510000I0J4000D01*
G37*
G74*
*
G75*
G36*
G01*
X514400Y192600D02*
G03*
X514400I0J2400D01*
G37*
G74*
*
G75*
G36*
G01*
X550000Y106000D02*
G03*
X550000I0J4000D01*
G37*
G74*
*
G75*
G36*
G01*
Y116000D02*
G03*
X550000I0J4000D01*
G37*
G74*
*
G75*
G36*
G01*
X555500Y187100D02*
G03*
X555500I0J2400D01*
G37*
G74*
*
G75*
G36*
G01*
X564000Y284100D02*
G03*
X564000I0J2400D01*
G37*
G74*
*
G75*
G36*
G01*
X562500Y295600D02*
G03*
X562500I0J2400D01*
G37*
G74*
*
G75*
G36*
G01*
X605000Y245600D02*
G03*
X605000I0J2400D01*
G37*
G74*
*
G75*
G36*
G01*
X600000Y205600D02*
G03*
X600000I0J2400D01*
G37*
G74*
*
G75*
G36*
G01*
X604015Y260851D02*
G02*
X606485Y259849I1985J1349D01*
X604015Y260851I-1985J-1349D01*
G37*
G74*
*
*
G04 PC Copper Outlines (1)*
G04 Layer Name rx_REVA_10312006_routed - dark (1)*
%LPD*%
*
*
G04 PC Area=ANP003441*
G75*
G36*
G01*
X508131Y292217D02*
G02*
X508326Y292500I2069J-1217D01*
X507959Y292300I-1326J2000D01*
X508131Y292217I-959J-2200D01*
G37*
G74*
*
*
G04 PC Area=ANP003442*
G75*
G36*
G01*
X611634Y235396D02*
G02*
X611901Y235366I-134J-2396D01*
X611622Y235535I1099J2134D01*
X611634Y235396I-2385J-272D01*
G37*
G74*
*
*
G04 PC Copper Outlines (2)*
G04 Layer Name rx_REVA_10312006_routed - dark (2)*
%LPD*%
*
*
G04 PC Area=Custom_Thermal*
*
G04 PC Custom Flashes*
G04 Layer Name rx_REVA_10312006_routed - flashes*
%LPD*%
*
*
G04 PC Circuitry*
G04 Layer Name rx_REVA_10312006_routed - circuitry*
%LPD*%
*
G54D10*
G01X445400Y333500D02*
G75*
G03X445400I-2400J0D01*
G01X442900Y342000D02*
G03X442900I-2400J0D01*
G01X432628Y355568D02*
G03X432628I-2600J0D01*
G01X424100Y405000D02*
G03X424100I-4100J0D01*
G01X414600Y366000D02*
G03X414600I-2600J0D01*
G01X412100Y405000D02*
G03X412100I-4100J0D01*
G01X397400Y345500D02*
G03X397400I-2400J0D01*
G01X391900Y366000D02*
G03X391900I-2400J0D01*
G01X386180Y351279D02*
G03X386180I-2400J0D01*
G01X387000Y380000D02*
G03X387000I-4000J0D01*
G01Y400000D02*
G03X387000I-4000J0D01*
G01X373900Y257000D02*
G03X373900I-2400J0D01*
G01Y289500D02*
G03X373900I-2400J0D01*
G01Y364000D02*
G03X373900I-2400J0D01*
G01X407900Y224500D02*
G03X407900I-2400J0D01*
G01X400400Y208500D02*
G03X400400I-2400J0D01*
G01Y220000D02*
G03X400400I-2400J0D01*
G01X399400Y252000D02*
G03X399400I-2400J0D01*
G01X382595Y204325D02*
G03X382595I-2400J0D01*
G01X377600Y215000D02*
G03X377600I-2600J0D01*
G01Y225000D02*
G03X377600I-2600J0D01*
G01Y235000D02*
G03X377600I-2600J0D01*
G01X383900Y255000D02*
G03X383900I-2400J0D01*
G01X417478Y260578D02*
G03X417478I-2400J0D01*
G01X624000Y110000D02*
G03X624000I-4000J0D01*
G01Y120000D02*
G03X624000I-4000J0D01*
G01X629000Y150000D02*
G03X629000I-4000J0D01*
G01Y160000D02*
G03X629000I-4000J0D01*
G01Y170000D02*
G03X629000I-4000J0D01*
G01X627400Y199500D02*
G03X627400I-2400J0D01*
G01Y227500D02*
G03X627400I-2400J0D01*
G01Y233000D02*
G03X627400I-2400J0D01*
G01X628900Y265000D02*
G03X628900I-2400J0D01*
G01X627400Y287000D02*
G03X627400I-2400J0D01*
G01X619299Y202700D02*
G03X619299I-2400J0D01*
G01X614000Y110000D02*
G03X614000I-4000J0D01*
G01Y120000D02*
G03X614000I-4000J0D01*
G01Y150000D02*
G03X614000I-4000J0D01*
G01Y160000D02*
G03X614000I-4000J0D01*
G01Y170000D02*
G03X614000I-4000J0D01*
G01X610900Y176500D02*
G03X610900I-2400J0D01*
G01X604000Y110000D02*
G03X604000I-4000J0D01*
G01Y120000D02*
G03X604000I-4000J0D01*
G01X604791Y137710D02*
G03X604791I-2600J0D01*
G01X609293Y211893D02*
G03X609293I-2400J0D01*
G01X609400Y229500D02*
G03X609400I-2400J0D01*
G01X615400Y243300D02*
G03X615400I-2400J0D01*
G01Y270500D02*
G03X615400I-2400J0D01*
G01Y294500D02*
G03X615400I-2400J0D01*
G01Y308000D02*
G03X615400I-2400J0D01*
G01Y319000D02*
G03X615400I-2400J0D01*
G01X614900Y324000D02*
G03X614900I-2400J0D01*
G01X607400Y280500D02*
G03X607400I-2400J0D01*
G01X594000Y110000D02*
G03X594000I-4000J0D01*
G01Y120000D02*
G03X594000I-4000J0D01*
G01X598400Y213500D02*
G03X598400I-2400J0D01*
G01X600900Y225000D02*
G03X600900I-2400J0D01*
G01X584000Y110000D02*
G03X584000I-4000J0D01*
G01Y120000D02*
G03X584000I-4000J0D01*
G01X574000Y110000D02*
G03X574000I-4000J0D01*
G01Y120000D02*
G03X574000I-4000J0D01*
G01X573900Y183000D02*
G03X573900I-2400J0D01*
G01X594900Y325000D02*
G03X594900I-2400J0D01*
G01X587900Y260500D02*
G03X587900I-2400J0D01*
G01X584900Y300500D02*
G03X584900I-2400J0D01*
G01X587400Y312500D02*
G03X587400I-2400J0D01*
G01X564000Y110000D02*
G03X564000I-4000J0D01*
G01Y120000D02*
G03X564000I-4000J0D01*
G01X566072Y160164D02*
G03X566072I-2600J0D01*
G01X579400Y216000D02*
G03X579400I-2400J0D01*
G01X581900Y325000D02*
G03X581900I-2400J0D01*
G01X576900Y238000D02*
G03X576900I-2400J0D01*
G01X569400Y213500D02*
G03X569400I-2400J0D01*
G01X573900Y283000D02*
G03X573900I-2400J0D01*
G01X576653Y295036D02*
G03X576653I-2400J0D01*
G01X571400Y293200D02*
G03X571400I-2400J0D01*
G01X573400Y313000D02*
G03X573400I-2400J0D01*
G01X556900Y257000D02*
G03X556900I-2400J0D01*
G01X560400Y306000D02*
G03X560400I-2400J0D01*
G01X559400Y312900D02*
G03X559400I-2400J0D01*
G01X561400Y325000D02*
G03X561400I-2400J0D01*
G01X544000Y110000D02*
G03X544000I-4000J0D01*
G01Y120000D02*
G03X544000I-4000J0D01*
G01X542400Y195000D02*
G03X542400I-2400J0D01*
G01X552734Y263166D02*
G03X552734I-2400J0D01*
G01X547900Y213000D02*
G03X547900I-2400J0D01*
G01X549749Y268100D02*
G03X549749I-2400J0D01*
G01X554400Y307000D02*
G03X554400I-2400J0D01*
G01X555900Y326500D02*
G03X555900I-2400J0D01*
G01X549400Y325000D02*
G03X549400I-2400J0D01*
G01X552509Y331725D02*
G03X552509I-2400J0D01*
G01X534000Y110000D02*
G03X534000I-4000J0D01*
G01Y120000D02*
G03X534000I-4000J0D01*
G01X524000Y110000D02*
G03X524000I-4000J0D01*
G01Y120000D02*
G03X524000I-4000J0D01*
G01X536900Y236500D02*
G03X536900I-2400J0D01*
G01X538819Y306113D02*
G03X538819I-2400J0D01*
G01X530701Y276651D02*
G03X530701I-2400J0D01*
G01X522400Y243000D02*
G03X522400I-2400J0D01*
G01X510400Y195500D02*
G03X510400I-2400J0D01*
G01X511400Y225000D02*
G03X511400I-2400J0D01*
G01X509400Y251000D02*
G03X509400I-2400J0D01*
G01Y263000D02*
G03X509400I-2400J0D01*
G01X523900Y308628D02*
G03X523900I-2400J0D01*
G01X525400Y331000D02*
G03X525400I-2400J0D01*
G01X516701Y277744D02*
G03X516701I-2400J0D01*
G01X519398Y312046D02*
G03X519398I-2400J0D01*
G01X519900Y325000D02*
G03X519900I-2400J0D01*
G01X510939Y272099D02*
G03X510939I-2400J0D01*
G01X509900Y324000D02*
G03X509900I-2400J0D01*
G01X504000Y110000D02*
G03X504000I-4000J0D01*
G01X503857Y316800D02*
G03X503857I-2400J0D01*
G01X494000Y110000D02*
G03X494000I-4000J0D01*
G01Y120000D02*
G03X494000I-4000J0D01*
G01X497400Y211500D02*
G03X497400I-2400J0D01*
G01X495900Y218000D02*
G03X495900I-2400J0D01*
G01X484000Y110000D02*
G03X484000I-4000J0D01*
G01Y120000D02*
G03X484000I-4000J0D01*
G01X487426Y130158D02*
G03X487426I-2600J0D01*
G01X491400Y224000D02*
G03X491400I-2400J0D01*
G01X497400Y237500D02*
G03X497400I-2400J0D01*
G01Y287500D02*
G03X497400I-2400J0D01*
G01X496400Y310000D02*
G03X496400I-2400J0D01*
G01X499400Y321000D02*
G03X499400I-2400J0D01*
G01X486900Y309500D02*
G03X486900I-2400J0D01*
G01X481900Y179500D02*
G03X481900I-2400J0D01*
G01X474000Y110000D02*
G03X474000I-4000J0D01*
G01Y120000D02*
G03X474000I-4000J0D01*
G01Y140000D02*
G03X474000I-4000J0D01*
G01X464000Y110000D02*
G03X464000I-4000J0D01*
G01Y120000D02*
G03X464000I-4000J0D01*
G01X454000Y110000D02*
G03X454000I-4000J0D01*
G01Y120000D02*
G03X454000I-4000J0D01*
G01Y140000D02*
G03X454000I-4000J0D01*
G01X474900Y172500D02*
G03X474900I-2400J0D01*
G01X474400Y181500D02*
G03X474400I-2400J0D01*
G01X474789Y237889D02*
G03X474789I-2400J0D01*
G01X479400Y247500D02*
G03X479400I-2400J0D01*
G01X458900Y175500D02*
G03X458900I-2400J0D01*
G01X462900Y180500D02*
G03X462900I-2400J0D01*
G01X460100Y188000D02*
G03X460100I-2400J0D01*
G01X450900Y180000D02*
G03X450900I-2400J0D01*
G01X444000Y110000D02*
G03X444000I-4000J0D01*
G01Y120000D02*
G03X444000I-4000J0D01*
G01X434000Y110000D02*
G03X434000I-4000J0D01*
G01Y120000D02*
G03X434000I-4000J0D01*
G01X437900Y151500D02*
G03X437900I-2400J0D01*
G01Y166000D02*
G03X437900I-2400J0D01*
G01X436400Y177500D02*
G03X436400I-2400J0D01*
G01X423660Y115419D02*
G03X423660I-2600J0D01*
G01X417164Y143598D02*
G03X417164I-2600J0D01*
G01X419400Y180500D02*
G03X419400I-2400J0D01*
G01X405886Y162221D02*
G03X405886I-2400J0D01*
G01X392900Y140000D02*
G03X392900I-2400J0D01*
G01X396994Y147801D02*
G03X396994I-2400J0D01*
G01X400107Y181441D02*
G03X400107I-2600J0D01*
G01X385400Y165500D02*
G03X385400I-2400J0D01*
G01X385500Y175000D02*
G03X385500I-2400J0D01*
G01X380331Y110002D02*
G03X380331I-2600J0D01*
G01X378900Y135500D02*
G03X378900I-2400J0D01*
G01X382400Y185500D02*
G03X382400I-2400J0D01*
G01X514000Y110000D02*
G03X514000I-4000J0D01*
G01Y120000D02*
G03X514000I-4000J0D01*
G01X516800Y195000D02*
G03X516800I-2400J0D01*
G01X554000Y110000D02*
G03X554000I-4000J0D01*
G01Y120000D02*
G03X554000I-4000J0D01*
G01X557900Y189500D02*
G03X557900I-2400J0D01*
G01X566400Y286500D02*
G03X566400I-2400J0D01*
G01X564900Y298000D02*
G03X564900I-2400J0D01*
G01X607400Y248000D02*
G03X607400I-2400J0D01*
G01X602400Y208000D02*
G03X602400I-2400J0D01*
G01X445707Y310987D02*
Y311926D01*
X444666Y311606D02*
G03X445707Y311926I-166J2394D01*
G01Y310987D02*
G03X444666Y311606I-1707J-1687D01*
G01X440383Y271285D02*
G03X438664Y269566I250J-1969D01*
G01Y273004D02*
G03X440383Y271285I1969J249D01*
G01X436945D02*
G03X438664Y273004I-249J1968D01*
G01Y269566D02*
G03X436945Y271285I-1968J-250D01*
G01X440383Y275222D02*
G03X438664Y273503I250J-1969D01*
G01Y276941D02*
G03X440383Y275222I1969J249D01*
G01X436945D02*
G03X438664Y276941I-249J1968D01*
G01Y273503D02*
G03X436945Y275222I-1968J-250D01*
G01X440383Y279159D02*
G03X438664Y277440I250J-1969D01*
G01Y280878D02*
G03X440383Y279159I1969J249D01*
G01X436945D02*
G03X438664Y280878I-249J1968D01*
G01Y277440D02*
G03X436945Y279159I-1968J-250D01*
G01X440383Y283096D02*
G03X438664Y281377I250J-1969D01*
G01Y284815D02*
G03X440383Y283096I1969J249D01*
G01X436945D02*
G03X438664Y284815I-249J1968D01*
G01Y281377D02*
G03X436945Y283096I-1968J-250D01*
G01X440383Y287033D02*
G03X438664Y285314I250J-1969D01*
G01Y288752D02*
G03X440383Y287033I1969J249D01*
G01X436945D02*
G03X438664Y288752I-249J1968D01*
G01Y285314D02*
G03X436945Y287033I-1968J-250D01*
G01X440383Y290970D02*
G03X438664Y289251I250J-1969D01*
G01Y292689D02*
G03X440383Y290970I1969J249D01*
G01X436945D02*
G03X438664Y292689I-249J1968D01*
G01Y289251D02*
G03X436945Y290970I-1968J-250D01*
G01X443834Y311694D02*
G03X441811Y310283I166J-2394D01*
G01X442614Y312516D02*
G03X443834Y311694I1886J1484D01*
G01X440882Y310655D02*
G03X442614Y312516I-249J1969D01*
G01X441811Y310283D02*
G03X440882Y310655I-1178J-1596D01*
G01X440383Y302781D02*
G03X438664Y301062I250J-1968D01*
G01Y304500D02*
G03X440383Y302781I1969J250D01*
G01X436945D02*
G03X438664Y304500I-249J1969D01*
G01Y301062D02*
G03X436945Y302781I-1968J-249D01*
G01X440383Y306718D02*
G03X438664Y304999I250J-1968D01*
G01Y308437D02*
G03X440383Y306718I1969J250D01*
G01X436945D02*
G03X438664Y308437I-249J1969D01*
G01Y304999D02*
G03X436945Y306718I-1968J-249D01*
G01X440383Y310655D02*
G03X438664Y308936I250J-1968D01*
G01Y312374D02*
G03X440383Y310655I1969J250D01*
G01X436945D02*
G03X438664Y312374I-249J1969D01*
G01Y308936D02*
G03X436945Y310655I-1968J-249D01*
G01X440383Y314592D02*
G03X438664Y312873I250J-1968D01*
G01Y316311D02*
G03X440383Y314592I1969J250D01*
G01X436945D02*
G03X438664Y316311I-249J1969D01*
G01Y312873D02*
G03X436945Y314592I-1968J-249D01*
G01X440383Y318529D02*
G03X438664Y316810I250J-1968D01*
G01Y320248D02*
G03X440383Y318529I1969J250D01*
G01X436945D02*
G03X438664Y320248I-249J1969D01*
G01Y316810D02*
G03X436945Y318529I-1968J-249D01*
G01X440383Y322466D02*
G03X438664Y320747I250J-1968D01*
G01Y324185D02*
G03X440383Y322466I1969J250D01*
G01X436945D02*
G03X438664Y324185I-249J1969D01*
G01Y320747D02*
G03X436945Y322466I-1968J-249D01*
G01X440383Y326403D02*
G03X438664Y324684I250J-1968D01*
G01Y328122D02*
G03X440383Y326403I1969J250D01*
G01X436945D02*
G03X438664Y328122I-249J1969D01*
G01Y324684D02*
G03X436945Y326403I-1968J-249D01*
G01X436446Y271285D02*
G03X434727Y269566I250J-1969D01*
G01Y273004D02*
G03X436446Y271285I1969J249D01*
G01X433008D02*
G03X434727Y273004I-249J1968D01*
G01Y269566D02*
G03X433008Y271285I-1968J-250D01*
G01X436446Y275222D02*
G03X434727Y273503I250J-1969D01*
G01Y276941D02*
G03X436446Y275222I1969J249D01*
G01X433008D02*
G03X434727Y276941I-249J1968D01*
G01Y273503D02*
G03X433008Y275222I-1968J-250D01*
G01X436446Y279159D02*
G03X434727Y277440I250J-1969D01*
G01Y280878D02*
G03X436446Y279159I1969J249D01*
G01X433008D02*
G03X434727Y280878I-249J1968D01*
G01Y277440D02*
G03X433008Y279159I-1968J-250D01*
G01X436446Y283096D02*
G03X434727Y281377I250J-1969D01*
G01Y284815D02*
G03X436446Y283096I1969J249D01*
G01X433008D02*
G03X434727Y284815I-249J1968D01*
G01Y281377D02*
G03X433008Y283096I-1968J-250D01*
G01X436446Y287033D02*
G03X434727Y285314I250J-1969D01*
G01Y288752D02*
G03X436446Y287033I1969J249D01*
G01X433008D02*
G03X434727Y288752I-249J1968D01*
G01Y285314D02*
G03X433008Y287033I-1968J-250D01*
G01X436446Y290970D02*
G03X434727Y289251I250J-1969D01*
G01Y292689D02*
G03X436446Y290970I1969J249D01*
G01X433008D02*
G03X434727Y292689I-249J1968D01*
G01Y289251D02*
G03X433008Y290970I-1968J-250D01*
G01X436446Y294907D02*
G03X434727Y293188I250J-1969D01*
G01Y296626D02*
G03X436446Y294907I1969J249D01*
G01X433008D02*
G03X434727Y296626I-249J1968D01*
G01Y293188D02*
G03X433008Y294907I-1968J-250D01*
G01X436446Y298844D02*
G03X434727Y297125I250J-1969D01*
G01Y300563D02*
G03X436446Y298844I1969J250D01*
G01X433008D02*
G03X434727Y300563I-249J1969D01*
G01Y297125D02*
G03X433008Y298844I-1968J-250D01*
G01X436446Y302781D02*
G03X434727Y301062I250J-1968D01*
G01Y304500D02*
G03X436446Y302781I1969J250D01*
G01X433008D02*
G03X434727Y304500I-249J1969D01*
G01Y301062D02*
G03X433008Y302781I-1968J-249D01*
G01X436446Y306718D02*
G03X434727Y304999I250J-1968D01*
G01Y308437D02*
G03X436446Y306718I1969J250D01*
G01X433008D02*
G03X434727Y308437I-249J1969D01*
G01Y304999D02*
G03X433008Y306718I-1968J-249D01*
G01X436446Y310655D02*
G03X434727Y308936I250J-1968D01*
G01Y312374D02*
G03X436446Y310655I1969J250D01*
G01X433008D02*
G03X434727Y312374I-249J1969D01*
G01Y308936D02*
G03X433008Y310655I-1968J-249D01*
G01X436446Y314592D02*
G03X434727Y312873I250J-1968D01*
G01Y316311D02*
G03X436446Y314592I1969J250D01*
G01X433008D02*
G03X434727Y316311I-249J1969D01*
G01Y312873D02*
G03X433008Y314592I-1968J-249D01*
G01X436446Y318529D02*
G03X434727Y316810I250J-1968D01*
G01Y320248D02*
G03X436446Y318529I1969J250D01*
G01X433008D02*
G03X434727Y320248I-249J1969D01*
G01Y316810D02*
G03X433008Y318529I-1968J-249D01*
G01X436446Y322466D02*
G03X434727Y320747I250J-1968D01*
G01Y324185D02*
G03X436446Y322466I1969J250D01*
G01X433008D02*
G03X434727Y324185I-249J1969D01*
G01Y320747D02*
G03X433008Y322466I-1968J-249D01*
G01X436446Y326403D02*
G03X434727Y324684I250J-1968D01*
G01Y328122D02*
G03X436446Y326403I1969J250D01*
G01X433008D02*
G03X434727Y328122I-249J1969D01*
G01Y324684D02*
G03X433008Y326403I-1968J-249D01*
G01X432509Y271285D02*
G03X430790Y269566I250J-1969D01*
G01Y273004D02*
G03X432509Y271285I1969J249D01*
G01X429071D02*
G03X430790Y273004I-249J1968D01*
G01Y269566D02*
G03X429071Y271285I-1968J-250D01*
G01X432509Y275222D02*
G03X430790Y273503I250J-1969D01*
G01Y276941D02*
G03X432509Y275222I1969J249D01*
G01X429071D02*
G03X430790Y276941I-249J1968D01*
G01Y273503D02*
G03X429071Y275222I-1968J-250D01*
G01X432509Y279159D02*
G03X430790Y277440I250J-1969D01*
G01Y280878D02*
G03X432509Y279159I1969J249D01*
G01X429071D02*
G03X430790Y280878I-249J1968D01*
G01Y277440D02*
G03X429071Y279159I-1968J-250D01*
G01X432509Y283096D02*
G03X430790Y281377I250J-1969D01*
G01Y284815D02*
G03X432509Y283096I1969J249D01*
G01X429071D02*
G03X430790Y284815I-249J1968D01*
G01Y281377D02*
G03X429071Y283096I-1968J-250D01*
G01X432509Y287033D02*
G03X430790Y285314I250J-1969D01*
G01Y288752D02*
G03X432509Y287033I1969J249D01*
G01X429071D02*
G03X430790Y288752I-249J1968D01*
G01Y285314D02*
G03X429071Y287033I-1968J-250D01*
G01X432509Y290970D02*
G03X430790Y289251I250J-1969D01*
G01Y292689D02*
G03X432509Y290970I1969J249D01*
G01X429071D02*
G03X430790Y292689I-249J1968D01*
G01Y289251D02*
G03X429071Y290970I-1968J-250D01*
G01X432509Y294907D02*
G03X430790Y293188I250J-1969D01*
G01Y296626D02*
G03X432509Y294907I1969J249D01*
G01X429071D02*
G03X430790Y296626I-249J1968D01*
G01Y293188D02*
G03X429071Y294907I-1968J-250D01*
G01X432509Y298844D02*
G03X430790Y297125I250J-1969D01*
G01Y300563D02*
G03X432509Y298844I1969J250D01*
G01X429071D02*
G03X430790Y300563I-249J1969D01*
G01Y297125D02*
G03X429071Y298844I-1968J-250D01*
G01X432509Y302781D02*
G03X430790Y301062I250J-1968D01*
G01Y304500D02*
G03X432509Y302781I1969J250D01*
G01X429071D02*
G03X430790Y304500I-249J1969D01*
G01Y301062D02*
G03X429071Y302781I-1968J-249D01*
G01X432509Y306718D02*
G03X430790Y304999I250J-1968D01*
G01Y308437D02*
G03X432509Y306718I1969J250D01*
G01X429071D02*
G03X430790Y308437I-249J1969D01*
G01Y304999D02*
G03X429071Y306718I-1968J-249D01*
G01X432509Y310655D02*
G03X430790Y308936I250J-1968D01*
G01Y312374D02*
G03X432509Y310655I1969J250D01*
G01X429071D02*
G03X430790Y312374I-249J1969D01*
G01Y308936D02*
G03X429071Y310655I-1968J-249D01*
G01X432509Y314592D02*
G03X430790Y312873I250J-1968D01*
G01Y316311D02*
G03X432509Y314592I1969J250D01*
G01X429071D02*
G03X430790Y316311I-249J1969D01*
G01Y312873D02*
G03X429071Y314592I-1968J-249D01*
G01X432509Y318529D02*
G03X430790Y316810I250J-1968D01*
G01Y320248D02*
G03X432509Y318529I1969J250D01*
G01X429071D02*
G03X430790Y320248I-249J1969D01*
G01Y316810D02*
G03X429071Y318529I-1968J-249D01*
G01X432509Y322466D02*
G03X430790Y320747I250J-1968D01*
G01Y324185D02*
G03X432509Y322466I1969J250D01*
G01X429071D02*
G03X430790Y324185I-249J1969D01*
G01Y320747D02*
G03X429071Y322466I-1968J-249D01*
G01X432509Y326403D02*
G03X430790Y324684I250J-1968D01*
G01Y328122D02*
G03X432509Y326403I1969J250D01*
G01X429071D02*
G03X430790Y328122I-249J1969D01*
G01Y324684D02*
G03X429071Y326403I-1968J-249D01*
G01X428572Y271285D02*
G03X426853Y269566I250J-1969D01*
G01Y273004D02*
G03X428572Y271285I1969J249D01*
G01X425134D02*
G03X426853Y273004I-249J1968D01*
G01Y269566D02*
G03X425134Y271285I-1968J-250D01*
G01X428572Y275222D02*
G03X426853Y273503I250J-1969D01*
G01Y276941D02*
G03X428572Y275222I1969J249D01*
G01X425134D02*
G03X426853Y276941I-249J1968D01*
G01Y273503D02*
G03X425134Y275222I-1968J-250D01*
G01X428572Y279159D02*
G03X426853Y277440I250J-1969D01*
G01Y280878D02*
G03X428572Y279159I1969J249D01*
G01X425134D02*
G03X426853Y280878I-249J1968D01*
G01Y277440D02*
G03X425134Y279159I-1968J-250D01*
G01X428572Y283096D02*
G03X426853Y281377I250J-1969D01*
G01Y284815D02*
G03X428572Y283096I1969J249D01*
G01X425134D02*
G03X426853Y284815I-249J1968D01*
G01Y281377D02*
G03X425134Y283096I-1968J-250D01*
G01X428572Y287033D02*
G03X426853Y285314I250J-1969D01*
G01Y288752D02*
G03X428572Y287033I1969J249D01*
G01X425134D02*
G03X426853Y288752I-249J1968D01*
G01Y285314D02*
G03X425134Y287033I-1968J-250D01*
G01X428572Y290970D02*
G03X426853Y289251I250J-1969D01*
G01Y292689D02*
G03X428572Y290970I1969J249D01*
G01X425134D02*
G03X426853Y292689I-249J1968D01*
G01Y289251D02*
G03X425134Y290970I-1968J-250D01*
G01X428572Y294907D02*
G03X426853Y293188I250J-1969D01*
G01Y296626D02*
G03X428572Y294907I1969J249D01*
G01X425134D02*
G03X426853Y296626I-249J1968D01*
G01Y293188D02*
G03X425134Y294907I-1968J-250D01*
G01X428572Y298844D02*
G03X426853Y297125I250J-1969D01*
G01Y300563D02*
G03X428572Y298844I1969J250D01*
G01X425134D02*
G03X426853Y300563I-249J1969D01*
G01Y297125D02*
G03X425134Y298844I-1968J-250D01*
G01X428572Y302781D02*
G03X426853Y301062I250J-1968D01*
G01Y304500D02*
G03X428572Y302781I1969J250D01*
G01X425134D02*
G03X426853Y304500I-249J1969D01*
G01Y301062D02*
G03X425134Y302781I-1968J-249D01*
G01X428572Y306718D02*
G03X426853Y304999I250J-1968D01*
G01Y308437D02*
G03X428572Y306718I1969J250D01*
G01X425134D02*
G03X426853Y308437I-249J1969D01*
G01Y304999D02*
G03X425134Y306718I-1968J-249D01*
G01X428572Y310655D02*
G03X426853Y308936I250J-1968D01*
G01Y312374D02*
G03X428572Y310655I1969J250D01*
G01X425134D02*
G03X426853Y312374I-249J1969D01*
G01Y308936D02*
G03X425134Y310655I-1968J-249D01*
G01X428572Y314592D02*
G03X426853Y312873I250J-1968D01*
G01Y316311D02*
G03X428572Y314592I1969J250D01*
G01X425134D02*
G03X426853Y316311I-249J1969D01*
G01Y312873D02*
G03X425134Y314592I-1968J-249D01*
G01X428572Y318529D02*
G03X426853Y316810I250J-1968D01*
G01Y320248D02*
G03X428572Y318529I1969J250D01*
G01X425134D02*
G03X426853Y320248I-249J1969D01*
G01Y316810D02*
G03X425134Y318529I-1968J-249D01*
G01X428572Y322466D02*
G03X426853Y320747I250J-1968D01*
G01Y324185D02*
G03X428572Y322466I1969J250D01*
G01X425134D02*
G03X426853Y324185I-249J1969D01*
G01Y320747D02*
G03X425134Y322466I-1968J-249D01*
G01X428572Y326403D02*
G03X426853Y324684I250J-1968D01*
G01Y328122D02*
G03X428572Y326403I1969J250D01*
G01X425134D02*
G03X426853Y328122I-249J1969D01*
G01Y324684D02*
G03X425134Y326403I-1968J-249D01*
G01X424635Y271285D02*
G03X422916Y269566I250J-1969D01*
G01Y273004D02*
G03X424635Y271285I1969J249D01*
G01X421197D02*
G03X422916Y273004I-249J1968D01*
G01Y269566D02*
G03X421197Y271285I-1968J-250D01*
G01X424635Y275222D02*
G03X422916Y273503I250J-1969D01*
G01Y276941D02*
G03X424635Y275222I1969J249D01*
G01X421197D02*
G03X422916Y276941I-249J1968D01*
G01Y273503D02*
G03X421197Y275222I-1968J-250D01*
G01X424635Y279159D02*
G03X422916Y277440I250J-1969D01*
G01Y280878D02*
G03X424635Y279159I1969J249D01*
G01X421197D02*
G03X422916Y280878I-249J1968D01*
G01Y277440D02*
G03X421197Y279159I-1968J-250D01*
G01X424635Y283096D02*
G03X422916Y281377I250J-1969D01*
G01Y284815D02*
G03X424635Y283096I1969J249D01*
G01X421197D02*
G03X422916Y284815I-249J1968D01*
G01Y281377D02*
G03X421197Y283096I-1968J-250D01*
G01X424635Y287033D02*
G03X422916Y285314I250J-1969D01*
G01Y288752D02*
G03X424635Y287033I1969J249D01*
G01X421197D02*
G03X422916Y288752I-249J1968D01*
G01Y285314D02*
G03X421197Y287033I-1968J-250D01*
G01X420698Y271285D02*
G03X418979Y269566I250J-1969D01*
G01Y273004D02*
G03X420698Y271285I1969J249D01*
G01X417260D02*
G03X418979Y273004I-249J1968D01*
G01Y269566D02*
G03X417260Y271285I-1968J-250D01*
G01X420698Y275222D02*
G03X418979Y273503I250J-1969D01*
G01Y276941D02*
G03X420698Y275222I1969J249D01*
G01X417260D02*
G03X418979Y276941I-249J1968D01*
G01Y273503D02*
G03X417260Y275222I-1968J-250D01*
G01X420698Y279159D02*
G03X418979Y277440I250J-1969D01*
G01Y280878D02*
G03X420698Y279159I1969J249D01*
G01X417260D02*
G03X418979Y280878I-249J1968D01*
G01Y277440D02*
G03X417260Y279159I-1968J-250D01*
G01X420698Y283096D02*
G03X418979Y281377I250J-1969D01*
G01Y284815D02*
G03X420698Y283096I1969J249D01*
G01X417260D02*
G03X418979Y284815I-249J1968D01*
G01Y281377D02*
G03X417260Y283096I-1968J-250D01*
G01X420698Y287033D02*
G03X418979Y285314I250J-1969D01*
G01Y288752D02*
G03X420698Y287033I1969J249D01*
G01X417260D02*
G03X418979Y288752I-249J1968D01*
G01Y285314D02*
G03X417260Y287033I-1968J-250D01*
G01X424635Y306718D02*
G03Y302781I250J-1968D01*
G01X422916Y308437D02*
G03X424635Y306718I1969J250D01*
G01X418979Y308437D02*
G03X422916I1969J250D01*
G01X417260Y306718D02*
G03X418979Y308437I-249J1969D01*
G01X417260Y302781D02*
G03Y306718I-249J1969D01*
G01Y298844D02*
G03Y302781I-249J1969D01*
G01Y294907D02*
G03Y298844I-249J1968D01*
G01Y290970D02*
G03Y294907I-249J1968D01*
G01X418979Y289251D02*
G03X417260Y290970I-1968J-250D01*
G01X422916Y289251D02*
G03X418979I-1968J-250D01*
G01X424635Y290970D02*
G03X422916Y289251I250J-1969D01*
G01X424635Y294907D02*
G03Y290970I250J-1969D01*
G01Y298844D02*
G03Y294907I250J-1969D01*
G01Y302781D02*
G03Y298844I250J-1968D01*
G01Y310655D02*
G03X422916Y308936I250J-1968D01*
G01Y312374D02*
G03X424635Y310655I1969J250D01*
G01X421197D02*
G03X422916Y312374I-249J1969D01*
G01Y308936D02*
G03X421197Y310655I-1968J-249D01*
G01X424635Y314592D02*
G03X422916Y312873I250J-1968D01*
G01Y316311D02*
G03X424635Y314592I1969J250D01*
G01X421197D02*
G03X422916Y316311I-249J1969D01*
G01Y312873D02*
G03X421197Y314592I-1968J-249D01*
G01X424635Y318529D02*
G03X422916Y316810I250J-1968D01*
G01Y320248D02*
G03X424635Y318529I1969J250D01*
G01X421197D02*
G03X422916Y320248I-249J1969D01*
G01Y316810D02*
G03X421197Y318529I-1968J-249D01*
G01X424635Y322466D02*
G03X422916Y320747I250J-1968D01*
G01Y324185D02*
G03X424635Y322466I1969J250D01*
G01X421197D02*
G03X422916Y324185I-249J1969D01*
G01Y320747D02*
G03X421197Y322466I-1968J-249D01*
G01X424635Y326403D02*
G03X422916Y324684I250J-1968D01*
G01Y328122D02*
G03X424635Y326403I1969J250D01*
G01X421197D02*
G03X422916Y328122I-249J1969D01*
G01Y324684D02*
G03X421197Y326403I-1968J-249D01*
G01X420698Y310655D02*
G03X418979Y308936I250J-1968D01*
G01Y312374D02*
G03X420698Y310655I1969J250D01*
G01X417260D02*
G03X418979Y312374I-249J1969D01*
G01Y308936D02*
G03X417260Y310655I-1968J-249D01*
G01X420698Y314592D02*
G03X418979Y312873I250J-1968D01*
G01Y316311D02*
G03X420698Y314592I1969J250D01*
G01X417260D02*
G03X418979Y316311I-249J1969D01*
G01Y312873D02*
G03X417260Y314592I-1968J-249D01*
G01X420698Y318529D02*
G03X418979Y316810I250J-1968D01*
G01Y320248D02*
G03X420698Y318529I1969J250D01*
G01X417260D02*
G03X418979Y320248I-249J1969D01*
G01Y316810D02*
G03X417260Y318529I-1968J-249D01*
G01X420698Y322466D02*
G03X418979Y320747I250J-1968D01*
G01Y324185D02*
G03X420698Y322466I1969J250D01*
G01X417260D02*
G03X418979Y324185I-249J1969D01*
G01Y320747D02*
G03X417260Y322466I-1968J-249D01*
G01X420698Y326403D02*
G03X418979Y324684I250J-1968D01*
G01Y328122D02*
G03X420698Y326403I1969J250D01*
G01X417260D02*
G03X418979Y328122I-249J1969D01*
G01Y324684D02*
G03X417260Y326403I-1968J-249D01*
G01X416761Y271285D02*
G03X415042Y269566I250J-1969D01*
G01Y273004D02*
G03X416761Y271285I1969J249D01*
G01X413323D02*
G03X415042Y273004I-249J1968D01*
G01Y269566D02*
G03X413323Y271285I-1968J-250D01*
G01X416761Y275222D02*
G03X415042Y273503I250J-1969D01*
G01Y276941D02*
G03X416761Y275222I1969J249D01*
G01X413323D02*
G03X415042Y276941I-249J1968D01*
G01Y273503D02*
G03X413323Y275222I-1968J-250D01*
G01X416761Y279159D02*
G03X415042Y277440I250J-1969D01*
G01Y280878D02*
G03X416761Y279159I1969J249D01*
G01X413323D02*
G03X415042Y280878I-249J1968D01*
G01Y277440D02*
G03X413323Y279159I-1968J-250D01*
G01X416761Y283096D02*
G03X415042Y281377I250J-1969D01*
G01Y284815D02*
G03X416761Y283096I1969J249D01*
G01X413323D02*
G03X415042Y284815I-249J1968D01*
G01Y281377D02*
G03X413323Y283096I-1968J-250D01*
G01X416761Y287033D02*
G03X415042Y285314I250J-1969D01*
G01Y288752D02*
G03X416761Y287033I1969J249D01*
G01X413323D02*
G03X415042Y288752I-249J1968D01*
G01Y285314D02*
G03X413323Y287033I-1968J-250D01*
G01X416761Y290970D02*
G03X415042Y289251I250J-1969D01*
G01Y292689D02*
G03X416761Y290970I1969J249D01*
G01X413323D02*
G03X415042Y292689I-249J1968D01*
G01Y289251D02*
G03X413323Y290970I-1968J-250D01*
G01X416761Y294907D02*
G03X415042Y293188I250J-1969D01*
G01Y296626D02*
G03X416761Y294907I1969J249D01*
G01X413323D02*
G03X415042Y296626I-249J1968D01*
G01Y293188D02*
G03X413323Y294907I-1968J-250D01*
G01X416761Y298844D02*
G03X415042Y297125I250J-1969D01*
G01Y300563D02*
G03X416761Y298844I1969J250D01*
G01X413323D02*
G03X415042Y300563I-249J1969D01*
G01Y297125D02*
G03X413323Y298844I-1968J-250D01*
G01X416761Y302781D02*
G03X415042Y301062I250J-1968D01*
G01Y304500D02*
G03X416761Y302781I1969J250D01*
G01X413323D02*
G03X415042Y304500I-249J1969D01*
G01Y301062D02*
G03X413323Y302781I-1968J-249D01*
G01X416761Y306718D02*
G03X415042Y304999I250J-1968D01*
G01Y308437D02*
G03X416761Y306718I1969J250D01*
G01X413323D02*
G03X415042Y308437I-249J1969D01*
G01Y304999D02*
G03X413323Y306718I-1968J-249D01*
G01X416761Y310655D02*
G03X415042Y308936I250J-1968D01*
G01Y312374D02*
G03X416761Y310655I1969J250D01*
G01X413323D02*
G03X415042Y312374I-249J1969D01*
G01Y308936D02*
G03X413323Y310655I-1968J-249D01*
G01X416761Y314592D02*
G03X415042Y312873I250J-1968D01*
G01Y316311D02*
G03X416761Y314592I1969J250D01*
G01X413323D02*
G03X415042Y316311I-249J1969D01*
G01Y312873D02*
G03X413323Y314592I-1968J-249D01*
G01X416761Y318529D02*
G03X415042Y316810I250J-1968D01*
G01Y320248D02*
G03X416761Y318529I1969J250D01*
G01X413323D02*
G03X415042Y320248I-249J1969D01*
G01Y316810D02*
G03X413323Y318529I-1968J-249D01*
G01X416761Y322466D02*
G03X415042Y320747I250J-1968D01*
G01Y324185D02*
G03X416761Y322466I1969J250D01*
G01X413323D02*
G03X415042Y324185I-249J1969D01*
G01Y320747D02*
G03X413323Y322466I-1968J-249D01*
G01X412824Y275222D02*
G03X411105Y273503I250J-1969D01*
G01Y276941D02*
G03X412824Y275222I1969J249D01*
G01X409386D02*
G03X411105Y276941I-250J1968D01*
G01Y273503D02*
G03X409386Y275222I-1969J-250D01*
G01X412824Y279159D02*
G03X411105Y277440I250J-1969D01*
G01Y280878D02*
G03X412824Y279159I1969J249D01*
G01X409386D02*
G03X411105Y280878I-250J1968D01*
G01Y277440D02*
G03X409386Y279159I-1969J-250D01*
G01X412824Y283096D02*
G03X411105Y281377I250J-1969D01*
G01Y284815D02*
G03X412824Y283096I1969J249D01*
G01X409386D02*
G03X411105Y284815I-250J1968D01*
G01Y281377D02*
G03X409386Y283096I-1969J-250D01*
G01X412824Y287033D02*
G03X411105Y285314I250J-1969D01*
G01Y288752D02*
G03X412824Y287033I1969J249D01*
G01X409386D02*
G03X411105Y288752I-250J1968D01*
G01Y285314D02*
G03X409386Y287033I-1969J-250D01*
G01X412824Y290970D02*
G03X411105Y289251I250J-1969D01*
G01Y292689D02*
G03X412824Y290970I1969J249D01*
G01X409386D02*
G03X411105Y292689I-250J1968D01*
G01Y289251D02*
G03X409386Y290970I-1969J-250D01*
G01X412824Y294907D02*
G03X411105Y293188I250J-1969D01*
G01Y296626D02*
G03X412824Y294907I1969J249D01*
G01X409386D02*
G03X411105Y296626I-250J1968D01*
G01Y293188D02*
G03X409386Y294907I-1969J-250D01*
G01X412824Y298844D02*
G03X411105Y297125I250J-1969D01*
G01Y300563D02*
G03X412824Y298844I1969J250D01*
G01X409386D02*
G03X411105Y300563I-250J1969D01*
G01Y297125D02*
G03X409386Y298844I-1969J-250D01*
G01X412824Y302781D02*
G03X411105Y301062I250J-1968D01*
G01Y304500D02*
G03X412824Y302781I1969J250D01*
G01X409386D02*
G03X411105Y304500I-250J1969D01*
G01Y301062D02*
G03X409386Y302781I-1969J-249D01*
G01X412824Y306718D02*
G03X411105Y304999I250J-1968D01*
G01Y308437D02*
G03X412824Y306718I1969J250D01*
G01X409386D02*
G03X411105Y308437I-250J1969D01*
G01Y304999D02*
G03X409386Y306718I-1969J-249D01*
G01X412824Y310655D02*
G03X411105Y308936I250J-1968D01*
G01Y312374D02*
G03X412824Y310655I1969J250D01*
G01X409386D02*
G03X411105Y312374I-250J1969D01*
G01Y308936D02*
G03X409386Y310655I-1969J-249D01*
G01X412824Y314592D02*
G03X411105Y312873I250J-1968D01*
G01Y316311D02*
G03X412824Y314592I1969J250D01*
G01X409386D02*
G03X411105Y316311I-250J1969D01*
G01Y312873D02*
G03X409386Y314592I-1969J-249D01*
G01X412824Y318529D02*
G03X411105Y316810I250J-1968D01*
G01Y320248D02*
G03X412824Y318529I1969J250D01*
G01X409386D02*
G03X411105Y320248I-250J1969D01*
G01Y316810D02*
G03X409386Y318529I-1969J-249D01*
G01X412824Y322466D02*
G03X411105Y320747I250J-1968D01*
G01Y324185D02*
G03X412824Y322466I1969J250D01*
G01X409386D02*
G03X411105Y324185I-250J1969D01*
G01Y320747D02*
G03X409386Y322466I-1969J-249D01*
G01X408887Y275222D02*
G03X407168Y273503I249J-1969D01*
G01Y276941D02*
G03X408887Y275222I1968J249D01*
G01X405449D02*
G03X407168Y276941I-250J1968D01*
G01Y273503D02*
G03X405449Y275222I-1969J-250D01*
G01X408887Y279159D02*
G03X407168Y277440I249J-1969D01*
G01Y280878D02*
G03X408887Y279159I1968J249D01*
G01X405449D02*
G03X407168Y280878I-250J1968D01*
G01Y277440D02*
G03X405449Y279159I-1969J-250D01*
G01X408887Y283096D02*
G03X407168Y281377I249J-1969D01*
G01Y284815D02*
G03X408887Y283096I1968J249D01*
G01X405449D02*
G03X407168Y284815I-250J1968D01*
G01Y281377D02*
G03X405449Y283096I-1969J-250D01*
G01X408887Y287033D02*
G03X407168Y285314I249J-1969D01*
G01Y288752D02*
G03X408887Y287033I1968J249D01*
G01X405449D02*
G03X407168Y288752I-250J1968D01*
G01Y285314D02*
G03X405449Y287033I-1969J-250D01*
G01X408887Y290970D02*
G03X407168Y289251I249J-1969D01*
G01Y292689D02*
G03X408887Y290970I1968J249D01*
G01X405449D02*
G03X407168Y292689I-250J1968D01*
G01Y289251D02*
G03X405449Y290970I-1969J-250D01*
G01X408887Y294907D02*
G03X407168Y293188I249J-1969D01*
G01Y296626D02*
G03X408887Y294907I1968J249D01*
G01X405449D02*
G03X407168Y296626I-250J1968D01*
G01Y293188D02*
G03X405449Y294907I-1969J-250D01*
G01X408887Y298844D02*
G03X407168Y297125I249J-1969D01*
G01Y300563D02*
G03X408887Y298844I1968J250D01*
G01X405449D02*
G03X407168Y300563I-250J1969D01*
G01Y297125D02*
G03X405449Y298844I-1969J-250D01*
G01X408887Y302781D02*
G03X407168Y301062I249J-1968D01*
G01Y304500D02*
G03X408887Y302781I1968J250D01*
G01X405449D02*
G03X407168Y304500I-250J1969D01*
G01Y301062D02*
G03X405449Y302781I-1969J-249D01*
G01X408887Y306718D02*
G03X407168Y304999I249J-1968D01*
G01Y308437D02*
G03X408887Y306718I1968J250D01*
G01X405449D02*
G03X407168Y308437I-250J1969D01*
G01Y304999D02*
G03X405449Y306718I-1969J-249D01*
G01X408887Y310655D02*
G03X407168Y308936I249J-1968D01*
G01Y312374D02*
G03X408887Y310655I1968J250D01*
G01X405449D02*
G03X407168Y312374I-250J1969D01*
G01Y308936D02*
G03X405449Y310655I-1969J-249D01*
G01X408887Y314592D02*
G03X407168Y312873I249J-1968D01*
G01Y316311D02*
G03X408887Y314592I1968J250D01*
G01X405449D02*
G03X407168Y316311I-250J1969D01*
G01Y312873D02*
G03X405449Y314592I-1969J-249D01*
G01X408887Y318529D02*
G03X407168Y316810I249J-1968D01*
G01Y320248D02*
G03X408887Y318529I1968J250D01*
G01X405449D02*
G03X407168Y320248I-250J1969D01*
G01Y316810D02*
G03X405449Y318529I-1969J-249D01*
G01X408887Y322466D02*
G03X407168Y320747I249J-1968D01*
G01Y324185D02*
G03X408887Y322466I1968J250D01*
G01X405449D02*
G03X407168Y324185I-250J1969D01*
G01Y320747D02*
G03X405449Y322466I-1969J-249D01*
G01X408887Y326403D02*
G03X407168Y324684I249J-1968D01*
G01Y328122D02*
G03X408887Y326403I1968J250D01*
G01X405449D02*
G03X407168Y328122I-250J1969D01*
G01Y324684D02*
G03X405449Y326403I-1969J-249D01*
G01X404950Y271285D02*
G03X403231Y269566I249J-1969D01*
G01Y273004D02*
G03X404950Y271285I1968J249D01*
G01X401512D02*
G03X403231Y273004I-250J1968D01*
G01Y269566D02*
G03X401512Y271285I-1969J-250D01*
G01X404950Y275222D02*
G03X403231Y273503I249J-1969D01*
G01Y276941D02*
G03X404950Y275222I1968J249D01*
G01X401512D02*
G03X403231Y276941I-250J1968D01*
G01Y273503D02*
G03X401512Y275222I-1969J-250D01*
G01X404950Y279159D02*
G03X403231Y277440I249J-1969D01*
G01Y280878D02*
G03X404950Y279159I1968J249D01*
G01X401512D02*
G03X403231Y280878I-250J1968D01*
G01Y277440D02*
G03X401512Y279159I-1969J-250D01*
G01X404950Y283096D02*
G03X403231Y281377I249J-1969D01*
G01Y284815D02*
G03X404950Y283096I1968J249D01*
G01X401512D02*
G03X403231Y284815I-250J1968D01*
G01Y281377D02*
G03X401512Y283096I-1969J-250D01*
G01X404950Y287033D02*
G03X403231Y285314I249J-1969D01*
G01Y288752D02*
G03X404950Y287033I1968J249D01*
G01X401512D02*
G03X403231Y288752I-250J1968D01*
G01Y285314D02*
G03X401512Y287033I-1969J-250D01*
G01X401013Y271285D02*
G03X399294Y269566I249J-1969D01*
G01Y273004D02*
G03X401013Y271285I1968J249D01*
G01X397575D02*
G03X399294Y273004I-250J1968D01*
G01Y269566D02*
G03X397575Y271285I-1969J-250D01*
G01X401013Y275222D02*
G03X399294Y273503I249J-1969D01*
G01Y276941D02*
G03X401013Y275222I1968J249D01*
G01X397575D02*
G03X399294Y276941I-250J1968D01*
G01Y273503D02*
G03X397575Y275222I-1969J-250D01*
G01X401013Y279159D02*
G03X399294Y277440I249J-1969D01*
G01Y280878D02*
G03X401013Y279159I1968J249D01*
G01X397575D02*
G03X399294Y280878I-250J1968D01*
G01Y277440D02*
G03X397575Y279159I-1969J-250D01*
G01X401013Y283096D02*
G03X399294Y281377I249J-1969D01*
G01Y284815D02*
G03X401013Y283096I1968J249D01*
G01X397575D02*
G03X399294Y284815I-250J1968D01*
G01Y281377D02*
G03X397575Y283096I-1969J-250D01*
G01X401013Y287033D02*
G03X399294Y285314I249J-1969D01*
G01Y288752D02*
G03X401013Y287033I1968J249D01*
G01X397575D02*
G03X399294Y288752I-250J1968D01*
G01Y285314D02*
G03X397575Y287033I-1969J-250D01*
G01X404950Y306718D02*
G03Y302781I249J-1968D01*
G01X403231Y308437D02*
G03X404950Y306718I1968J250D01*
G01X399294Y308437D02*
G03X403231I1968J250D01*
G01X397575Y306718D02*
G03X399294Y308437I-250J1969D01*
G01X397575Y302781D02*
G03Y306718I-250J1969D01*
G01Y298844D02*
G03Y302781I-250J1969D01*
G01Y294907D02*
G03Y298844I-250J1968D01*
G01Y290970D02*
G03Y294907I-250J1968D01*
G01X399294Y289251D02*
G03X397575Y290970I-1969J-250D01*
G01X403231Y289251D02*
G03X399294I-1969J-250D01*
G01X404950Y290970D02*
G03X403231Y289251I249J-1969D01*
G01X404950Y294907D02*
G03Y290970I249J-1969D01*
G01Y298844D02*
G03Y294907I249J-1969D01*
G01Y302781D02*
G03Y298844I249J-1968D01*
G01Y310655D02*
G03X403231Y308936I249J-1968D01*
G01Y312374D02*
G03X404950Y310655I1968J250D01*
G01X401512D02*
G03X403231Y312374I-250J1969D01*
G01Y308936D02*
G03X401512Y310655I-1969J-249D01*
G01X404950Y314592D02*
G03X403231Y312873I249J-1968D01*
G01Y316311D02*
G03X404950Y314592I1968J250D01*
G01X401512D02*
G03X403231Y316311I-250J1969D01*
G01Y312873D02*
G03X401512Y314592I-1969J-249D01*
G01X404950Y318529D02*
G03X403231Y316810I249J-1968D01*
G01Y320248D02*
G03X404950Y318529I1968J250D01*
G01X401512D02*
G03X403231Y320248I-250J1969D01*
G01Y316810D02*
G03X401512Y318529I-1969J-249D01*
G01X404950Y322466D02*
G03X403231Y320747I249J-1968D01*
G01Y324185D02*
G03X404950Y322466I1968J250D01*
G01X401512D02*
G03X403231Y324185I-250J1969D01*
G01Y320747D02*
G03X401512Y322466I-1969J-249D01*
G01X404950Y326403D02*
G03X403231Y324684I249J-1968D01*
G01Y328122D02*
G03X404950Y326403I1968J250D01*
G01X401512D02*
G03X403231Y328122I-250J1969D01*
G01Y324684D02*
G03X401512Y326403I-1969J-249D01*
G01X401013Y310655D02*
G03X399294Y308936I249J-1968D01*
G01Y312374D02*
G03X401013Y310655I1968J250D01*
G01X397575D02*
G03X399294Y312374I-250J1969D01*
G01Y308936D02*
G03X397575Y310655I-1969J-249D01*
G01X401013Y314592D02*
G03X399294Y312873I249J-1968D01*
G01Y316311D02*
G03X401013Y314592I1968J250D01*
G01X397575D02*
G03X399294Y316311I-250J1969D01*
G01Y312873D02*
G03X397575Y314592I-1969J-249D01*
G01X401013Y318529D02*
G03X399294Y316810I249J-1968D01*
G01Y320248D02*
G03X401013Y318529I1968J250D01*
G01X397575D02*
G03X399294Y320248I-250J1969D01*
G01Y316810D02*
G03X397575Y318529I-1969J-249D01*
G01X401013Y322466D02*
G03X399294Y320747I249J-1968D01*
G01Y324185D02*
G03X401013Y322466I1968J250D01*
G01X397575D02*
G03X399294Y324185I-250J1969D01*
G01Y320747D02*
G03X397575Y322466I-1969J-249D01*
G01X401013Y326403D02*
G03X399294Y324684I249J-1968D01*
G01Y328122D02*
G03X401013Y326403I1968J250D01*
G01X397575D02*
G03X399294Y328122I-250J1969D01*
G01Y324684D02*
G03X397575Y326403I-1969J-249D01*
G01X397076Y271285D02*
G03X395357Y269566I249J-1969D01*
G01Y273004D02*
G03X397076Y271285I1968J249D01*
G01X393638D02*
G03X395357Y273004I-250J1968D01*
G01Y269566D02*
G03X393638Y271285I-1969J-250D01*
G01X397076Y275222D02*
G03X395357Y273503I249J-1969D01*
G01Y276941D02*
G03X397076Y275222I1968J249D01*
G01X393638D02*
G03X395357Y276941I-250J1968D01*
G01Y273503D02*
G03X393638Y275222I-1969J-250D01*
G01X397076Y279159D02*
G03X395357Y277440I249J-1969D01*
G01Y280878D02*
G03X397076Y279159I1968J249D01*
G01X393638D02*
G03X395357Y280878I-250J1968D01*
G01Y277440D02*
G03X393638Y279159I-1969J-250D01*
G01X397076Y283096D02*
G03X395357Y281377I249J-1969D01*
G01Y284815D02*
G03X397076Y283096I1968J249D01*
G01X393638D02*
G03X395357Y284815I-250J1968D01*
G01Y281377D02*
G03X393638Y283096I-1969J-250D01*
G01X397076Y287033D02*
G03X395357Y285314I249J-1969D01*
G01Y288752D02*
G03X397076Y287033I1968J249D01*
G01X393638D02*
G03X395357Y288752I-250J1968D01*
G01Y285314D02*
G03X393638Y287033I-1969J-250D01*
G01X397076Y290970D02*
G03X395357Y289251I249J-1969D01*
G01Y292689D02*
G03X397076Y290970I1968J249D01*
G01X393638D02*
G03X395357Y292689I-250J1968D01*
G01Y289251D02*
G03X393638Y290970I-1969J-250D01*
G01X397076Y294907D02*
G03X395357Y293188I249J-1969D01*
G01Y296626D02*
G03X397076Y294907I1968J249D01*
G01X393638D02*
G03X395357Y296626I-250J1968D01*
G01Y293188D02*
G03X393638Y294907I-1969J-250D01*
G01X397076Y298844D02*
G03X395357Y297125I249J-1969D01*
G01Y300563D02*
G03X397076Y298844I1968J250D01*
G01X393638D02*
G03X395357Y300563I-250J1969D01*
G01Y297125D02*
G03X393638Y298844I-1969J-250D01*
G01X397076Y302781D02*
G03X395357Y301062I249J-1968D01*
G01Y304500D02*
G03X397076Y302781I1968J250D01*
G01X393638D02*
G03X395357Y304500I-250J1969D01*
G01Y301062D02*
G03X393638Y302781I-1969J-249D01*
G01X397076Y306718D02*
G03X395357Y304999I249J-1968D01*
G01Y308437D02*
G03X397076Y306718I1968J250D01*
G01X393638D02*
G03X395357Y308437I-250J1969D01*
G01Y304999D02*
G03X393638Y306718I-1969J-249D01*
G01X397076Y310655D02*
G03X395357Y308936I249J-1968D01*
G01Y312374D02*
G03X397076Y310655I1968J250D01*
G01X393638D02*
G03X395357Y312374I-250J1969D01*
G01Y308936D02*
G03X393638Y310655I-1969J-249D01*
G01X397076Y314592D02*
G03X395357Y312873I249J-1968D01*
G01Y316311D02*
G03X397076Y314592I1968J250D01*
G01X393638D02*
G03X395357Y316311I-250J1969D01*
G01Y312873D02*
G03X393638Y314592I-1969J-249D01*
G01X397076Y318529D02*
G03X395357Y316810I249J-1968D01*
G01Y320248D02*
G03X397076Y318529I1968J250D01*
G01X393638D02*
G03X395357Y320248I-250J1969D01*
G01Y316810D02*
G03X393638Y318529I-1969J-249D01*
G01X397076Y322466D02*
G03X395357Y320747I249J-1968D01*
G01Y324185D02*
G03X397076Y322466I1968J250D01*
G01X393638D02*
G03X395357Y324185I-250J1969D01*
G01Y320747D02*
G03X393638Y322466I-1969J-249D01*
G01X397076Y326403D02*
G03X395357Y324684I249J-1968D01*
G01Y328122D02*
G03X397076Y326403I1968J250D01*
G01X393638D02*
G03X395357Y328122I-250J1969D01*
G01Y324684D02*
G03X393638Y326403I-1969J-249D01*
G01X393139Y271285D02*
G03X391420Y269566I249J-1969D01*
G01Y273004D02*
G03X393139Y271285I1968J249D01*
G01X389701D02*
G03X391420Y273004I-250J1968D01*
G01Y269566D02*
G03X389701Y271285I-1969J-250D01*
G01X393139Y275222D02*
G03X391420Y273503I249J-1969D01*
G01Y276941D02*
G03X393139Y275222I1968J249D01*
G01X389701D02*
G03X391420Y276941I-250J1968D01*
G01Y273503D02*
G03X389701Y275222I-1969J-250D01*
G01X393139Y279159D02*
G03X391420Y277440I249J-1969D01*
G01Y280878D02*
G03X393139Y279159I1968J249D01*
G01X389701D02*
G03X391420Y280878I-250J1968D01*
G01Y277440D02*
G03X389701Y279159I-1969J-250D01*
G01X393139Y283096D02*
G03X391420Y281377I249J-1969D01*
G01Y284815D02*
G03X393139Y283096I1968J249D01*
G01X389701D02*
G03X391420Y284815I-250J1968D01*
G01Y281377D02*
G03X389701Y283096I-1969J-250D01*
G01X393139Y287033D02*
G03X391420Y285314I249J-1969D01*
G01Y288752D02*
G03X393139Y287033I1968J249D01*
G01X389701D02*
G03X391420Y288752I-250J1968D01*
G01Y285314D02*
G03X389701Y287033I-1969J-250D01*
G01X393139Y290970D02*
G03X391420Y289251I249J-1969D01*
G01Y292689D02*
G03X393139Y290970I1968J249D01*
G01X389701D02*
G03X391420Y292689I-250J1968D01*
G01Y289251D02*
G03X389701Y290970I-1969J-250D01*
G01X393139Y294907D02*
G03X391420Y293188I249J-1969D01*
G01Y296626D02*
G03X393139Y294907I1968J249D01*
G01X389701D02*
G03X391420Y296626I-250J1968D01*
G01Y293188D02*
G03X389701Y294907I-1969J-250D01*
G01X393139Y298844D02*
G03X391420Y297125I249J-1969D01*
G01Y300563D02*
G03X393139Y298844I1968J250D01*
G01X389701D02*
G03X391420Y300563I-250J1969D01*
G01Y297125D02*
G03X389701Y298844I-1969J-250D01*
G01X393139Y302781D02*
G03X391420Y301062I249J-1968D01*
G01Y304500D02*
G03X393139Y302781I1968J250D01*
G01X389701D02*
G03X391420Y304500I-250J1969D01*
G01Y301062D02*
G03X389701Y302781I-1969J-249D01*
G01X393139Y306718D02*
G03X391420Y304999I249J-1968D01*
G01Y308437D02*
G03X393139Y306718I1968J250D01*
G01X389701D02*
G03X391420Y308437I-250J1969D01*
G01Y304999D02*
G03X389701Y306718I-1969J-249D01*
G01X393139Y310655D02*
G03X391420Y308936I249J-1968D01*
G01Y312374D02*
G03X393139Y310655I1968J250D01*
G01X389701D02*
G03X391420Y312374I-250J1969D01*
G01Y308936D02*
G03X389701Y310655I-1969J-249D01*
G01X393139Y314592D02*
G03X391420Y312873I249J-1968D01*
G01Y316311D02*
G03X393139Y314592I1968J250D01*
G01X389701D02*
G03X391420Y316311I-250J1969D01*
G01Y312873D02*
G03X389701Y314592I-1969J-249D01*
G01X393139Y318529D02*
G03X391420Y316810I249J-1968D01*
G01Y320248D02*
G03X393139Y318529I1968J250D01*
G01X389701D02*
G03X391420Y320248I-250J1969D01*
G01Y316810D02*
G03X389701Y318529I-1969J-249D01*
G01X393139Y322466D02*
G03X391420Y320747I249J-1968D01*
G01Y324185D02*
G03X393139Y322466I1968J250D01*
G01X389701D02*
G03X391420Y324185I-250J1969D01*
G01Y320747D02*
G03X389701Y322466I-1969J-249D01*
G01X393139Y326403D02*
G03X391420Y324684I249J-1968D01*
G01Y328122D02*
G03X393139Y326403I1968J250D01*
G01X389701D02*
G03X391420Y328122I-250J1969D01*
G01Y324684D02*
G03X389701Y326403I-1969J-249D01*
G01X389202Y271285D02*
G03X387483Y269566I249J-1969D01*
G01Y273004D02*
G03X389202Y271285I1968J249D01*
G01X385764D02*
G03X387483Y273004I-250J1968D01*
G01Y269566D02*
G03X385764Y271285I-1969J-250D01*
G01X389202Y275222D02*
G03X387483Y273503I249J-1969D01*
G01Y276941D02*
G03X389202Y275222I1968J249D01*
G01X385764D02*
G03X387483Y276941I-250J1968D01*
G01Y273503D02*
G03X385764Y275222I-1969J-250D01*
G01X389202Y279159D02*
G03X387483Y277440I249J-1969D01*
G01Y280878D02*
G03X389202Y279159I1968J249D01*
G01X385764D02*
G03X387483Y280878I-250J1968D01*
G01Y277440D02*
G03X385764Y279159I-1969J-250D01*
G01X389202Y283096D02*
G03X387483Y281377I249J-1969D01*
G01Y284815D02*
G03X389202Y283096I1968J249D01*
G01X385764D02*
G03X387483Y284815I-250J1968D01*
G01Y281377D02*
G03X385764Y283096I-1969J-250D01*
G01X389202Y287033D02*
G03X387483Y285314I249J-1969D01*
G01Y288752D02*
G03X389202Y287033I1968J249D01*
G01X385764D02*
G03X387483Y288752I-250J1968D01*
G01Y285314D02*
G03X385764Y287033I-1969J-250D01*
G01X389202Y290970D02*
G03X387483Y289251I249J-1969D01*
G01Y292689D02*
G03X389202Y290970I1968J249D01*
G01X385764D02*
G03X387483Y292689I-250J1968D01*
G01Y289251D02*
G03X385764Y290970I-1969J-250D01*
G01X389202Y294907D02*
G03X387483Y293188I249J-1969D01*
G01Y296626D02*
G03X389202Y294907I1968J249D01*
G01X385764D02*
G03X387483Y296626I-250J1968D01*
G01Y293188D02*
G03X385764Y294907I-1969J-250D01*
G01X389202Y298844D02*
G03X387483Y297125I249J-1969D01*
G01Y300563D02*
G03X389202Y298844I1968J250D01*
G01X385764D02*
G03X387483Y300563I-250J1969D01*
G01Y297125D02*
G03X385764Y298844I-1969J-250D01*
G01X389202Y302781D02*
G03X387483Y301062I249J-1968D01*
G01Y304500D02*
G03X389202Y302781I1968J250D01*
G01X385764D02*
G03X387483Y304500I-250J1969D01*
G01Y301062D02*
G03X385764Y302781I-1969J-249D01*
G01X389202Y306718D02*
G03X387483Y304999I249J-1968D01*
G01Y308437D02*
G03X389202Y306718I1968J250D01*
G01X385764D02*
G03X387483Y308437I-250J1969D01*
G01Y304999D02*
G03X385764Y306718I-1969J-249D01*
G01X389202Y310655D02*
G03X387483Y308936I249J-1968D01*
G01Y312374D02*
G03X389202Y310655I1968J250D01*
G01X385764D02*
G03X387483Y312374I-250J1969D01*
G01Y308936D02*
G03X385764Y310655I-1969J-249D01*
G01X389202Y314592D02*
G03X387483Y312873I249J-1968D01*
G01Y316311D02*
G03X389202Y314592I1968J250D01*
G01X385764D02*
G03X387483Y316311I-250J1969D01*
G01Y312873D02*
G03X385764Y314592I-1969J-249D01*
G01X389202Y318529D02*
G03X387483Y316810I249J-1968D01*
G01Y320248D02*
G03X389202Y318529I1968J250D01*
G01X385764D02*
G03X387483Y320248I-250J1969D01*
G01Y316810D02*
G03X385764Y318529I-1969J-249D01*
G01X389202Y322466D02*
G03X387483Y320747I249J-1968D01*
G01Y324185D02*
G03X389202Y322466I1968J250D01*
G01X385764D02*
G03X387483Y324185I-250J1969D01*
G01Y320747D02*
G03X385764Y322466I-1969J-249D01*
G01X389202Y326403D02*
G03X387483Y324684I249J-1968D01*
G01Y328122D02*
G03X389202Y326403I1968J250D01*
G01X385764D02*
G03X387483Y328122I-250J1969D01*
G01Y324684D02*
G03X385764Y326403I-1969J-249D01*
G01X385265Y271285D02*
G03X383546Y269566I249J-1969D01*
G01Y273004D02*
G03X385265Y271285I1968J249D01*
G01X381827D02*
G03X383546Y273004I-250J1968D01*
G01Y269566D02*
G03X381827Y271285I-1969J-250D01*
G01X385265Y275222D02*
G03X383546Y273503I249J-1969D01*
G01Y276941D02*
G03X385265Y275222I1968J249D01*
G01X381827D02*
G03X383546Y276941I-250J1968D01*
G01Y273503D02*
G03X381827Y275222I-1969J-250D01*
G01X385265Y279159D02*
G03X383546Y277440I249J-1969D01*
G01Y280878D02*
G03X385265Y279159I1968J249D01*
G01X381827D02*
G03X383546Y280878I-250J1968D01*
G01Y277440D02*
G03X381827Y279159I-1969J-250D01*
G01X385265Y283096D02*
G03X383546Y281377I249J-1969D01*
G01Y284815D02*
G03X385265Y283096I1968J249D01*
G01X381827D02*
G03X383546Y284815I-250J1968D01*
G01Y281377D02*
G03X381827Y283096I-1969J-250D01*
G01X385265Y287033D02*
G03X383546Y285314I249J-1969D01*
G01Y288752D02*
G03X385265Y287033I1968J249D01*
G01X381827D02*
G03X383546Y288752I-250J1968D01*
G01Y285314D02*
G03X381827Y287033I-1969J-250D01*
G01X385265Y290970D02*
G03X383546Y289251I249J-1969D01*
G01Y292689D02*
G03X385265Y290970I1968J249D01*
G01X381827D02*
G03X383546Y292689I-250J1968D01*
G01Y289251D02*
G03X381827Y290970I-1969J-250D01*
G01X385265Y294907D02*
G03X383546Y293188I249J-1969D01*
G01Y296626D02*
G03X385265Y294907I1968J249D01*
G01X381827D02*
G03X383546Y296626I-250J1968D01*
G01Y293188D02*
G03X381827Y294907I-1969J-250D01*
G01X385265Y306718D02*
G03X383546Y304999I249J-1968D01*
G01Y308437D02*
G03X385265Y306718I1968J250D01*
G01X381827D02*
G03X383546Y308437I-250J1969D01*
G01Y304999D02*
G03X381827Y306718I-1969J-249D01*
G01X385265Y310655D02*
G03X383546Y308936I249J-1968D01*
G01Y312374D02*
G03X385265Y310655I1968J250D01*
G01X381827D02*
G03X383546Y312374I-250J1969D01*
G01Y308936D02*
G03X381827Y310655I-1969J-249D01*
G01X385265Y314592D02*
G03X383546Y312873I249J-1968D01*
G01Y316311D02*
G03X385265Y314592I1968J250D01*
G01X381827D02*
G03X383546Y316311I-250J1969D01*
G01Y312873D02*
G03X381827Y314592I-1969J-249D01*
G01X385265Y318529D02*
G03X383546Y316810I249J-1968D01*
G01Y320248D02*
G03X385265Y318529I1968J250D01*
G01X381827D02*
G03X383546Y320248I-250J1969D01*
G01Y316810D02*
G03X381827Y318529I-1969J-249D01*
G01X385265Y322466D02*
G03X383546Y320747I249J-1968D01*
G01Y324185D02*
G03X385265Y322466I1968J250D01*
G01X381827D02*
G03X383546Y324185I-250J1969D01*
G01Y320747D02*
G03X381827Y322466I-1969J-249D01*
G01X385265Y326403D02*
G03X383546Y324684I249J-1968D01*
G01Y328122D02*
G03X385265Y326403I1968J250D01*
G01X381827D02*
G03X383546Y328122I-250J1969D01*
G01Y324684D02*
G03X381827Y326403I-1969J-249D01*
G01X445707Y353423D02*
Y371200D01*
X445506*
Y416230*
X401387*
X399613D02*
G03X401387I887J-2230D01*
G01X399613D02*
X390561D01*
X386439D02*
G03X390561I2061J-1230D01*
G01X386439D02*
X366309D01*
Y254374*
Y249626D02*
G03Y254374I350J2374D01*
G01Y249626D02*
Y248817D01*
X367122Y247298D02*
G03X366309Y248817I-2381J-298D01*
G01X366760Y245702D02*
G03X367122Y247298I2381J298D01*
G01X366309Y245183D02*
G03X366760Y245702I-1568J1817D01*
G01X366309Y245183D02*
Y237246D01*
Y232754D02*
G03Y237246I-1309J2246D01*
G01Y232754D02*
Y230958D01*
X367465Y230580D02*
G03X366309Y230958I-2465J-5580D01*
G01X370580Y227465D02*
G03X367465Y230580I-580J2535D01*
G01X370580Y222535D02*
G03Y227465I-5580J2465D01*
G01X367465Y219420D02*
G03X370580Y222535I2535J580D01*
G01X366309Y219042D02*
G03X367465Y219420I-1309J5958D01*
G01X366309Y219042D02*
Y217246D01*
Y212754D02*
G03Y217246I-1309J2246D01*
G01Y212754D02*
Y206599D01*
X368157Y202736D02*
G03X366309Y206599I-1901J1464D01*
G01X368894Y201172D02*
G03X368157Y202736I-2394J-172D01*
G01X368894Y201172D02*
X384445D01*
X387555D02*
G03X384445I-1555J1828D01*
G01X387555D02*
X407418D01*
X408582D02*
G03X407418I-582J2328D01*
G01X408582D02*
X414491D01*
X418446D02*
G03X414491I-1978J1360D01*
G01X418446D02*
X420653D01*
X425442D02*
G03X420653I-2395J-159D01*
G01X425442D02*
X445707D01*
Y261894*
Y263028D02*
G03Y261894I2332J-567D01*
G01Y263028D02*
Y307613D01*
X442298Y307608D02*
G03X445707Y307613I1702J1692D01*
G01X440882Y306718D02*
G03X442298Y307608I-249J1969D01*
G01X440882Y302781D02*
G03Y306718I-249J1969D01*
G01X438664Y300563D02*
G03X440882Y302781I1969J250D01*
G01X436945Y298844D02*
G03X438664Y300563I-249J1969D01*
G01X436945Y294907D02*
G03Y298844I-249J1968D01*
G01X438664Y293188D02*
G03X436945Y294907I-1968J-250D01*
G01X440882Y290970D02*
G03X438664Y293188I-249J1968D01*
G01X440882Y287033D02*
G03Y290970I-249J1968D01*
G01Y283096D02*
G03Y287033I-249J1968D01*
G01Y279159D02*
G03Y283096I-249J1968D01*
G01Y275222D02*
G03Y279159I-249J1968D01*
G01Y271285D02*
G03Y275222I-249J1968D01*
G01X438664Y269067D02*
G03X440882Y271285I1969J249D01*
G01X434727Y269067D02*
G03X438664I1969J249D01*
G01X430790D02*
G03X434727I1969J249D01*
G01X428647Y267340D02*
G03X430790Y269067I175J1976D01*
G01X427805Y267612D02*
G03X428647Y267340I-305J-2380D01*
G01X426853Y269067D02*
G03X427805Y267612I1969J249D01*
G01X422916Y269067D02*
G03X426853I1969J249D01*
G01X418979D02*
G03X422916I1969J249D01*
G01X415042D02*
G03X418979I1969J249D01*
G01X412824Y271285D02*
G03X415042Y269067I250J-1969D01*
G01X411105Y273004D02*
G03X412824Y271285I1969J249D01*
G01X407168Y273004D02*
G03X411105I1968J249D01*
G01X405449Y271285D02*
G03X407168Y273004I-250J1968D01*
G01X403231Y269067D02*
G03X405449Y271285I1968J249D01*
G01X399294Y269067D02*
G03X403231I1968J249D01*
G01X395357D02*
G03X399294I1968J249D01*
G01X391420D02*
G03X395357I1968J249D01*
G01X387483D02*
G03X391420I1968J249D01*
G01X383546D02*
G03X387483I1968J249D01*
G01X381328Y271285D02*
G03X383546Y269067I249J-1969D01*
G01X381328Y275222D02*
G03Y271285I249J-1969D01*
G01Y279159D02*
G03Y275222I249J-1969D01*
G01Y283096D02*
G03Y279159I249J-1969D01*
G01Y287033D02*
G03Y283096I249J-1969D01*
G01Y290970D02*
G03Y287033I249J-1969D01*
G01Y294907D02*
G03Y290970I249J-1969D01*
G01X383546Y297125D02*
G03X381328Y294907I-1969J-250D01*
G01X385265Y298844D02*
G03X383546Y297125I249J-1969D01*
G01X385265Y302781D02*
G03Y298844I249J-1968D01*
G01X383546Y304500D02*
G03X385265Y302781I1968J250D01*
G01X381328Y306718D02*
G03X383546Y304500I249J-1968D01*
G01X381328Y310655D02*
G03Y306718I249J-1968D01*
G01Y314592D02*
G03Y310655I249J-1968D01*
G01Y318529D02*
G03Y314592I249J-1968D01*
G01Y322466D02*
G03Y318529I249J-1968D01*
G01Y326403D02*
G03Y322466I249J-1968D01*
G01X383546Y328621D02*
G03X381328Y326403I-1969J-249D01*
G01X387483Y328621D02*
G03X383546I-1969J-249D01*
G01X391420D02*
G03X387483I-1969J-249D01*
G01X395357D02*
G03X391420I-1969J-249D01*
G01X399294D02*
G03X395357I-1969J-249D01*
G01X403231D02*
G03X399294I-1969J-249D01*
G01X407168D02*
G03X403231I-1969J-249D01*
G01X409386Y326403D02*
G03X407168Y328621I-250J1969D01*
G01X411105Y324684D02*
G03X409386Y326403I-1969J-249D01*
G01X415042Y324684D02*
G03X411105I-1968J-249D01*
G01X416761Y326403D02*
G03X415042Y324684I250J-1968D01*
G01X418979Y328621D02*
G03X416761Y326403I-1968J-249D01*
G01X422916Y328621D02*
G03X418979I-1968J-249D01*
G01X426853D02*
G03X422916I-1968J-249D01*
G01X430790D02*
G03X426853I-1968J-249D01*
G01X434727D02*
G03X430790I-1968J-249D01*
G01X436957Y330339D02*
G03X434727Y328621I-261J-1967D01*
G01X435699Y331819D02*
G03X436957Y330339I2301J681D01*
G01X437576Y334862D02*
G03X435699Y331819I-2301J-681D01*
G01X437612Y330132D02*
G03X437576Y334862I388J2368D01*
G01X438664Y328621D02*
G03X437612Y330132I-1968J-249D01*
G01X440882Y326403D02*
G03X438664Y328621I-249J1969D01*
G01X440882Y322466D02*
G03Y326403I-249J1969D01*
G01Y318529D02*
G03Y322466I-249J1969D01*
G01Y314592D02*
G03Y318529I-249J1969D01*
G01X442100Y313959D02*
G03X440882Y314592I-1467J-1335D01*
G01X445707Y316074D02*
G03X442100Y313959I-1207J-2074D01*
G01X445707Y316074D02*
Y348669D01*
Y353423D02*
G03Y348669I1054J-2377D01*
G01X632500Y278123D02*
Y288147D01*
Y288155D02*
G03Y288147I1400J-0D01*
G01Y288155D02*
Y334948D01*
X559657*
X555343D02*
G03X559657I2157J1052D01*
G01X555343D02*
X536245D01*
X531755D02*
G03X536245I2245J-848D01*
G01X531755D02*
X495330D01*
X491670D02*
G03X495330I1830J1552D01*
G01X491670D02*
X491130D01*
X487470D02*
G03X491130I1830J1552D01*
G01X487470D02*
X455388D01*
Y189901*
X419398*
X414602D02*
G03X419398I2398J99D01*
G01X414602D02*
X371163D01*
X368837D02*
G03X371163I1163J2099D01*
G01X368837D02*
X366653D01*
Y184240*
Y180760D02*
G03Y184240I-1653J1740D01*
G01Y180760D02*
Y112191D01*
Y107809D02*
G03Y112191I3347J2191D01*
G01Y107809D02*
Y105920D01*
X391777*
X408223D02*
G03X391777I-8223J9080D01*
G01X408223D02*
X632500D01*
Y106877*
Y113123D02*
G03Y106877I-2500J-3123D01*
G01Y113123D02*
Y116877D01*
Y123123D02*
G03Y116877I-2500J-3123D01*
G01Y123123D02*
Y136623D01*
Y138553D02*
G03Y136623I-2414J-965D01*
G01Y138553D02*
Y241877D01*
Y248123D02*
G03Y241877I2500J-3123D01*
G01Y248123D02*
Y251877D01*
Y258123D02*
G03Y251877I2500J-3123D01*
G01Y258123D02*
Y261877D01*
Y268123D02*
G03Y261877I2500J-3123D01*
G01Y268123D02*
Y271877D01*
Y278123D02*
G03Y271877I2500J-3123D01*
G01X611901Y235366D02*
G03X611634Y235396I-401J-2366D01*
G01X611622Y235535D02*
G03X611901Y235366I1378J1965D01*
G01X611634Y235396D02*
G03X611622Y235535I-2397J-133D01*
G01X508326Y292500D02*
G03X508131Y292217I1874J-1500D01*
G01X507959Y292300D02*
G03X508326Y292500I-959J2200D01*
G01X508131Y292217D02*
G03X507959Y292300I-1131J-2117D01*
G01X445400Y333500D02*
G03X445400I-2400J0D01*
G01X442900Y342000D02*
G03X442900I-2400J0D01*
G01X432628Y355568D02*
G03X432628I-2600J0D01*
G01X424100Y405000D02*
G03X424100I-4100J0D01*
G01X414600Y366000D02*
G03X414600I-2600J0D01*
G01X412100Y405000D02*
G03X412100I-4100J0D01*
G01X397400Y345500D02*
G03X397400I-2400J0D01*
G01X391900Y366000D02*
G03X391900I-2400J0D01*
G01X386180Y351279D02*
G03X386180I-2400J0D01*
G01X387000Y380000D02*
G03X387000I-4000J0D01*
G01Y400000D02*
G03X387000I-4000J0D01*
G01X373900Y257000D02*
G03X373900I-2400J0D01*
G01Y289500D02*
G03X373900I-2400J0D01*
G01Y364000D02*
G03X373900I-2400J0D01*
G01X407900Y224500D02*
G03X407900I-2400J0D01*
G01X400400Y208500D02*
G03X400400I-2400J0D01*
G01Y220000D02*
G03X400400I-2400J0D01*
G01X399400Y252000D02*
G03X399400I-2400J0D01*
G01X388886Y226680D02*
G03X387114Y229257I614J2320D01*
X388886Y226680I-614J-2320*
G01X388097Y234175D02*
G03X385140Y236062I-597J2325D01*
X388097Y234175I597J-2325*
G01X387789Y243400D02*
G03X384211I-1789J1600D01*
X387789I1789J-1600*
G01X382595Y204325D02*
G03X382595I-2400J0D01*
G01X377600Y215000D02*
G03X377600I-2600J0D01*
G01Y225000D02*
G03X377600I-2600J0D01*
G01Y235000D02*
G03X377600I-2600J0D01*
G01X382753Y246149D02*
G03X379857Y248013I-544J2338D01*
G01X378040Y245236D02*
G03X382753Y246149I2360J439D01*
G01X373815Y247492D02*
G03X378040Y245236I2185J-992D01*
G01X374685Y248508D02*
G03X373815Y247492I-2185J992D01*
G01X378360Y246939D02*
G03X374685Y248508I-2360J-439D01*
G01X379857Y248013D02*
G03X378360Y246939I543J-2338D01*
G01X383900Y255000D02*
G03X383900I-2400J0D01*
G01X417478Y260578D02*
G03X417478I-2400J0D01*
G01X624000Y110000D02*
G03X624000I-4000J0D01*
G01Y120000D02*
G03X624000I-4000J0D01*
G01X629000Y150000D02*
G03X629000I-4000J0D01*
G01Y160000D02*
G03X629000I-4000J0D01*
G01Y170000D02*
G03X629000I-4000J0D01*
G01X627400Y199500D02*
G03X627400I-2400J0D01*
G01Y227500D02*
G03X627400I-2400J0D01*
G01Y233000D02*
G03X627400I-2400J0D01*
G01X627398Y241102D02*
G03X627117Y245869I102J2398D01*
G01X625102Y243398D02*
G03X627398Y241102I-102J-2398D01*
G01X625383Y244631D02*
G03X625102Y243398I2117J-1131D01*
G01X627117Y245869D02*
G03X625383Y244631I-2117J1131D01*
G01X628900Y265000D02*
G03X628900I-2400J0D01*
G01X627162Y270457D02*
G03X626838Y273043I1838J1543D01*
G01X623104Y272972D02*
G03X627162Y270457I1896J-1472D01*
G01X626665Y273228D02*
G03X623104Y272972I-1896J1472D01*
G01X626838Y273043D02*
G03X626665Y273228I-1838J-1543D01*
G01X627400Y287000D02*
G03X627400I-2400J0D01*
G01X625835Y308750D02*
G03X624165I-835J2250D01*
X625835I835J-2250*
G01X619299Y202700D02*
G03X619299I-2400J0D01*
G01X614000Y110000D02*
G03X614000I-4000J0D01*
G01Y120000D02*
G03X614000I-4000J0D01*
G01Y150000D02*
G03X614000I-4000J0D01*
G01Y160000D02*
G03X614000I-4000J0D01*
G01Y170000D02*
G03X614000I-4000J0D01*
G01X610900Y176500D02*
G03X610900I-2400J0D01*
G01X613959Y219300D02*
G03X612041I-959J2200D01*
X613959I959J-2200*
G01X604000Y110000D02*
G03X604000I-4000J0D01*
G01Y120000D02*
G03X604000I-4000J0D01*
G01X604791Y137710D02*
G03X604791I-2600J0D01*
G01X600500Y193673D02*
G03Y196327I2000J1327D01*
Y193673I-2000J-1327*
G01X609293Y211893D02*
G03X609293I-2400J0D01*
G01X609400Y229500D02*
G03X609400I-2400J0D01*
G01X612599Y235134D02*
G03X610615Y237228I401J2366D01*
G01X609104Y232866D02*
G03X612599Y235134I2396J134D01*
G01X610615Y237228D02*
G03X609104Y232866I-1378J-1965D01*
G01X615400Y243300D02*
G03X615400I-2400J0D01*
G01X611327Y247500D02*
G03X611873Y251000I1873J1500D01*
X611327Y247500I-1873J-1500*
G01X615400Y270500D02*
G03X615400I-2400J0D01*
G01X611901Y280634D02*
G03X612599Y280866I1099J-2134D01*
G01X609361Y284088D02*
G03X611901Y280634I2139J-1088D01*
G01X612639Y285112D02*
G03X609361Y284088I-2139J1088D01*
G01X612599Y280866D02*
G03X612639Y285112I-1099J2134D01*
G01X615400Y294500D02*
G03X615400I-2400J0D01*
G01Y308000D02*
G03X615400I-2400J0D01*
G01Y319000D02*
G03X615400I-2400J0D01*
G01X614900Y324000D02*
G03X614900I-2400J0D01*
G01X607400Y280500D02*
G03X607400I-2400J0D01*
G01X594000Y110000D02*
G03X594000I-4000J0D01*
G01Y120000D02*
G03X594000I-4000J0D01*
G01X598400Y213500D02*
G03X598400I-2400J0D01*
G01X600900Y225000D02*
G03X600900I-2400J0D01*
G01X584000Y110000D02*
G03X584000I-4000J0D01*
G01Y120000D02*
G03X584000I-4000J0D01*
G01X574000Y110000D02*
G03X574000I-4000J0D01*
G01Y120000D02*
G03X574000I-4000J0D01*
G01X573900Y183000D02*
G03X573900I-2400J0D01*
G01X576629Y192496D02*
G03X576498Y195324I1871J1504D01*
G01X572511Y193615D02*
G03X576629Y192496I1771J-1620D01*
G01X576498Y195324D02*
G03X572511Y193615I-2398J89D01*
G01X586750Y205358D02*
G03Y208642I1750J1642D01*
G01X582675Y206403D02*
G03X586750Y205358I2325J597D01*
G01X584562Y209360D02*
G03X582675Y206403I-2325J-597D01*
G01X586750Y208642D02*
G03X584562Y209360I-1750J-1642D01*
G01X589783Y219972D02*
G03X590828Y221417I2328J-583D01*
X589783Y219972I-2328J583*
G01X597394Y268774D02*
G03X593832Y269026I-1668J1726D01*
X597394Y268774I1668J-1726*
G01X603236Y284873D02*
G03X602764Y285627I1764J1627D01*
G01X601692Y281702D02*
G03X603236Y284873I-692J2298D01*
G01X599308Y282298D02*
G03X601692Y281702I692J-2298D01*
G01X602764Y285627D02*
G03X599308Y282298I-1764J-1627D01*
G01X606296Y325834D02*
G03X605162Y330042I404J2366D01*
G01X602913Y326602D02*
G03X606296Y325834I1324J-2002D01*
G01X601450Y327167D02*
G03X602913Y326602I1550J1833D01*
G01X601350Y330743D02*
G03X601450Y327167I-1550J-1833D01*
G01X605162Y330042D02*
G03X601350Y330743I-2162J-1042D01*
G01X594900Y325000D02*
G03X594900I-2400J0D01*
G01X587900Y260500D02*
G03X587900I-2400J0D01*
G01X584900Y300500D02*
G03X584900I-2400J0D01*
G01X587400Y312500D02*
G03X587400I-2400J0D01*
G01X564000Y110000D02*
G03X564000I-4000J0D01*
G01Y120000D02*
G03X564000I-4000J0D01*
G01X566072Y160164D02*
G03X566072I-2600J0D01*
G01X568461Y187384D02*
G03X565348Y188105I-1152J2106D01*
X568461Y187384I1152J-2105*
G01X562827Y193444D02*
G03X562373Y196969I1373J1969D01*
X562827Y193444I-1373J-1969*
G01X571168Y205450D02*
G03Y208550I1832J1550D01*
G01X567197Y205910D02*
G03X571168Y205450I2139J1090D01*
G01X562588Y207211D02*
G03X567197Y205910I2348J-498D01*
G01X561328Y207583D02*
G03X562588Y207211I1283J2028D01*
G01X556857Y205920D02*
G03X561328Y207583I2143J1080D01*
G01X556743Y207817D02*
G03X556857Y205920I-2143J-1080D01*
G01X560283Y209028D02*
G03X556743Y207817I-1283J-2028D01*
G01X564959Y209113D02*
G03X560283Y209028I-2348J498D01*
G01X567074Y207803D02*
G03X564959Y209113I-2138J-1090D01*
G01X571168Y208550D02*
G03X567074Y207803I-1832J-1550D01*
G01X579400Y216000D02*
G03X579400I-2400J0D01*
G01X581900Y325000D02*
G03X581900I-2400J0D01*
G01X576900Y238000D02*
G03X576900I-2400J0D01*
G01X569400Y213500D02*
G03X569400I-2400J0D01*
G01X569702Y265019D02*
G03X571298Y265381I1298J-2019D01*
X569702Y265019I-1298J2019*
G01X573900Y283000D02*
G03X573900I-2400J0D01*
G01X576653Y295036D02*
G03X576653I-2400J0D01*
G01X571400Y293200D02*
G03X571400I-2400J0D01*
G01X569565Y300920D02*
G03X570974Y301842I1935J-1420D01*
G01X567161Y301767D02*
G03X569565Y300920I1878J1494D01*
G01X567378Y304994D02*
G03X567161Y301767I-1878J-1494D01*
G01X570974Y301842D02*
G03X567378Y304994I-1935J1419D01*
G01X573400Y313000D02*
G03X573400I-2400J0D01*
G01X566640Y325438D02*
G03X569597Y327325I2360J-438D01*
X566640Y325438I-2360J438*
G01X556900Y257000D02*
G03X556900I-2400J0D01*
G01X560400Y306000D02*
G03X560400I-2400J0D01*
G01X559400Y312900D02*
G03X559400I-2400J0D01*
G01X561400Y325000D02*
G03X561400I-2400J0D01*
G01X544000Y110000D02*
G03X544000I-4000J0D01*
G01Y120000D02*
G03X544000I-4000J0D01*
G01X542400Y195000D02*
G03X542400I-2400J0D01*
G01X547000Y205673D02*
G03Y208327I2000J1327D01*
G01X543267Y205339D02*
G03X547000Y205673I1733J1661D01*
G01X543032Y208374D02*
G03X543267Y205339I-1733J-1661D01*
G01X547000Y208327D02*
G03X543032Y208374I-2000J-1327D01*
G01X552734Y263166D02*
G03X552734I-2400J0D01*
G01X547900Y213000D02*
G03X547900I-2400J0D01*
G01X549749Y268100D02*
G03X549749I-2400J0D01*
G01X554400Y307000D02*
G03X554400I-2400J0D01*
G01X555900Y326500D02*
G03X555900I-2400J0D01*
G01X545295Y307706D02*
G03X547500Y311873I705J2294D01*
G01X544205Y308407D02*
G03X545295Y307706I-705J-2294D01*
G01X543701Y309313D02*
G03X544205Y308407I2299J687D01*
G01X543190Y313852D02*
G03X543701Y309313I-477J-2352D01*
G01X547500Y311873D02*
G03X543190Y313852I-2000J1327D01*
G01X549400Y325000D02*
G03X549400I-2400J0D01*
G01X552509Y331725D02*
G03X552509I-2400J0D01*
G01X534000Y110000D02*
G03X534000I-4000J0D01*
G01Y120000D02*
G03X534000I-4000J0D01*
G01X524000Y110000D02*
G03X524000I-4000J0D01*
G01Y120000D02*
G03X524000I-4000J0D01*
G01X522627Y193000D02*
G03X523173Y196500I1873J1500D01*
X522627Y193000I-1873J-1500*
G01X533373Y206520D02*
G03X535896Y209134I2390J217D01*
G01X528814Y205798D02*
G03X533373Y206520I2176J1012D01*
G01X526065Y209042D02*
G03X528814Y205798I525J-2342D01*
G01X525122Y210092D02*
G03X526065Y209042I2178J1008D01*
G01X520881Y209702D02*
G03X525122Y210092I2019J1298D01*
G01X518524Y207600D02*
G03X520881Y209702I-24J2400D01*
G01X514600Y205211D02*
G03X518524Y207600I1600J1789D01*
G01X514600Y208789D02*
G03Y205211I-1600J-1789D01*
G01X516176Y209400D02*
G03X514600Y208789I24J-2400D01*
G01X520519Y211298D02*
G03X516176Y209400I-2019J-1298D01*
G01X525078Y212008D02*
G03X520519Y211298I-2178J-1008D01*
G01X527825Y208758D02*
G03X525078Y212008I-525J2342D01*
G01X528766Y207712D02*
G03X527825Y208758I-2176J-1012D01*
G01X531109Y209207D02*
G03X528766Y207712I-119J-2397D01*
G01X535896Y209134D02*
G03X531109Y209207I-2396J-134D01*
G01X536900Y236500D02*
G03X536900I-2400J0D01*
G01X538819Y306113D02*
G03X538819I-2400J0D01*
G01X530701Y276651D02*
G03X530701I-2400J0D01*
G01X535125Y309820D02*
G03X533719Y313059I788J2267D01*
G01X531804Y308673D02*
G03X535125Y309820I1127J2119D01*
G01X530627Y310119D02*
G03X531804Y308673I-1127J-2119D01*
G01X533719Y313059D02*
G03X530627Y310119I-788J-2267D01*
G01X535826Y325593D02*
G03X538708Y329060I2074J1207D01*
G01X535574Y326207D02*
G03X535826Y325593I-2074J-1207D01*
G01X535692Y327740D02*
G03X535574Y326207I2208J-940D01*
G01X538708Y329060D02*
G03X535692Y327740I-2208J940D01*
G01X522400Y243000D02*
G03X522400I-2400J0D01*
G01X510400Y195500D02*
G03X510400I-2400J0D01*
G01X508356Y214020D02*
G03X505487Y214137I-1356J1980D01*
X508356Y214020I1356J-1980*
G01X511400Y225000D02*
G03X511400I-2400J0D01*
G01X509264Y228705D02*
G03X513095Y231499I2136J1095D01*
G01X509136Y230595D02*
G03X509264Y228705I-2136J-1095D01*
G01X509527Y231301D02*
G03X509136Y230595I1873J-1501D01*
G01X513095Y231499D02*
G03X509527Y231301I-1872J1501D01*
G01X508278Y239468D02*
G03X509322Y242106I2322J607D01*
G01X507499Y243848D02*
G03X508278Y239468I-499J-2348D01*
G01X508863Y243014D02*
G03X507499Y243848I498J2347D01*
G01X509322Y242106D02*
G03X508863Y243014I-2322J-606D01*
G01X509400Y251000D02*
G03X509400I-2400J0D01*
G01Y263000D02*
G03X509400I-2400J0D01*
G01X517400Y267001D02*
G03X517200Y267961I2200J960D01*
G01X517400Y267001D02*
Y267000D01*
X512838Y265957D02*
G03X517400Y267000I2162J1043D01*
G01X512662Y267541D02*
G03X512838Y265957I-2162J-1042D01*
G01X517200Y267959D02*
G03X512662Y267541I-2200J-959D01*
G01X517200Y267959D02*
Y267961D01*
X523900Y308628D02*
G03X523900I-2400J0D01*
G01X525400Y331000D02*
G03X525400I-2400J0D01*
G01X516701Y277744D02*
G03X516701I-2400J0D01*
G01X519398Y312046D02*
G03X519398I-2400J0D01*
G01X519900Y325000D02*
G03X519900I-2400J0D01*
G01X510939Y272099D02*
G03X510939I-2400J0D01*
G01X509069Y288883D02*
G03X508874Y293000I1131J2117D01*
G01X506041Y292300D02*
G03X509069Y288883I959J-2200D01*
G01X508874Y293000D02*
G03X506041Y292300I-1874J1500D01*
G01X508243Y301312D02*
G03X506692Y301688I-243J2388D01*
X508243Y301312I243J-2388*
G01X509900Y324000D02*
G03X509900I-2400J0D01*
G01X504000Y110000D02*
G03X504000I-4000J0D01*
G01X499235Y123926D02*
G03X501513Y123703I765J-3926D01*
X499235Y123926I-911J2435*
G01X503857Y316800D02*
G03X503857I-2400J0D01*
G01X494000Y110000D02*
G03X494000I-4000J0D01*
G01Y120000D02*
G03X494000I-4000J0D01*
G01X497400Y211500D02*
G03X497400I-2400J0D01*
G01X495900Y218000D02*
G03X495900I-2400J0D01*
G01X484000Y110000D02*
G03X484000I-4000J0D01*
G01Y120000D02*
G03X484000I-4000J0D01*
G01X487426Y130158D02*
G03X487426I-2600J0D01*
G01X491400Y224000D02*
G03X491400I-2400J0D01*
G01X491633Y229604D02*
G03X493867Y232396I2367J396D01*
X491633Y229604I-2367J-396*
G01X497400Y237500D02*
G03X497400I-2400J0D01*
G01X493528Y250783D02*
G03X492083Y251828I583J2328D01*
X493528Y250783I-583J-2328*
G01X497400Y287500D02*
G03X497400I-2400J0D01*
G01X496400Y310000D02*
G03X496400I-2400J0D01*
G01X499400Y321000D02*
G03X499400I-2400J0D01*
G01X486900Y309500D02*
G03X486900I-2400J0D01*
G01X481900Y179500D02*
G03X481900I-2400J0D01*
G01X474000Y110000D02*
G03X474000I-4000J0D01*
G01Y120000D02*
G03X474000I-4000J0D01*
G01Y140000D02*
G03X474000I-4000J0D01*
G01X464000Y110000D02*
G03X464000I-4000J0D01*
G01Y120000D02*
G03X464000I-4000J0D01*
G01X454000Y110000D02*
G03X454000I-4000J0D01*
G01Y120000D02*
G03X454000I-4000J0D01*
G01Y140000D02*
G03X454000I-4000J0D01*
G01X468505Y152873D02*
G03Y157127I1495J2127D01*
G01X461495Y152873D02*
G03X468505I3505J2127D01*
G01X458505D02*
G03X461495I1495J2127D01*
G01X451495D02*
G03X458505I3505J2127D01*
G01X451495Y157127D02*
G03Y152873I-1495J-2127D01*
G01X458505Y157127D02*
G03X451495I-3505J-2127D01*
G01X461495D02*
G03X458505I-1495J-2127D01*
G01X468505D02*
G03X461495I-3505J-2127D01*
G01X474900Y172500D02*
G03X474900I-2400J0D01*
G01X474400Y181500D02*
G03X474400I-2400J0D01*
G01X474789Y237889D02*
G03X474789I-2400J0D01*
G01X479400Y247500D02*
G03X479400I-2400J0D01*
G01X470367Y246397D02*
G03X467430Y248331I-570J2332D01*
X470367Y246397I570J-2331*
G01X458900Y175500D02*
G03X458900I-2400J0D01*
G01X462900Y180500D02*
G03X462900I-2400J0D01*
G01X460100Y188000D02*
G03X460100I-2400J0D01*
G01X450900Y180000D02*
G03X450900I-2400J0D01*
G01X444000Y110000D02*
G03X444000I-4000J0D01*
G01Y120000D02*
G03X444000I-4000J0D01*
G01X434000Y110000D02*
G03X434000I-4000J0D01*
G01Y120000D02*
G03X434000I-4000J0D01*
G01X437900Y151500D02*
G03X437900I-2400J0D01*
G01Y166000D02*
G03X437900I-2400J0D01*
G01X436400Y177500D02*
G03X436400I-2400J0D01*
G01X423660Y115419D02*
G03X423660I-2600J0D01*
G01X424410Y181905D02*
G03X423833Y182623I1706J1963D01*
X424410Y181905I-1705J-1963*
G01X417164Y143598D02*
G03X417164I-2600J0D01*
G01X419400Y180500D02*
G03X419400I-2400J0D01*
G01X405886Y162221D02*
G03X405886I-2400J0D01*
G01X392900Y140000D02*
G03X392900I-2400J0D01*
G01X396994Y147801D02*
G03X396994I-2400J0D01*
G01X400107Y181441D02*
G03X400107I-2600J0D01*
G01X385400Y165500D02*
G03X385400I-2400J0D01*
G01X385500Y175000D02*
G03X385500I-2400J0D01*
G01X380331Y110002D02*
G03X380331I-2600J0D01*
G01X378900Y135500D02*
G03X378900I-2400J0D01*
G01X382400Y185500D02*
G03X382400I-2400J0D01*
G01X514000Y110000D02*
G03X514000I-4000J0D01*
G01Y120000D02*
G03X514000I-4000J0D01*
G01X516800Y195000D02*
G03X516800I-2400J0D01*
G01X554000Y110000D02*
G03X554000I-4000J0D01*
G01Y120000D02*
G03X554000I-4000J0D01*
G01X557900Y189500D02*
G03X557900I-2400J0D01*
G01X566400Y286500D02*
G03X566400I-2400J0D01*
G01X564900Y298000D02*
G03X564900I-2400J0D01*
G01X607400Y248000D02*
G03X607400I-2400J0D01*
G01X602400Y208000D02*
G03X602400I-2400J0D01*
G01X606485Y259849D02*
G03X604015Y260851I-485J2351D01*
X606485Y259849I485J-2351*
G01X383000Y404000D02*
Y403000D01*
X379000Y400000D02*
X380000D01*
X383000Y396000D02*
Y397000D01*
X387000Y400000D02*
X386000D01*
X383000Y384000D02*
Y383000D01*
X379000Y380000D02*
X380000D01*
X383000Y376000D02*
Y377000D01*
X387000Y380000D02*
X386000D01*
X470000Y144000D02*
Y143000D01*
X466000Y140000D02*
X467000D01*
X470000Y136000D02*
Y137000D01*
X474000Y140000D02*
X473000D01*
X450000Y144000D02*
Y143000D01*
X446000Y140000D02*
X447000D01*
X450000Y136000D02*
Y137000D01*
X454000Y140000D02*
X453000D01*
X373900Y364000D02*
X372800D01*
X371500Y366400D02*
Y365300D01*
X369100Y364000D02*
X370200D01*
X371500Y361600D02*
Y362700D01*
X400400Y208500D02*
X399300D01*
X398000Y210900D02*
Y209800D01*
X395600Y208500D02*
X396700D01*
X398000Y206100D02*
Y207200D01*
X400400Y220000D02*
X399300D01*
X398000Y222400D02*
Y221300D01*
X395600Y220000D02*
X396700D01*
X398000Y217600D02*
Y218700D01*
X450000Y157600D02*
Y156500D01*
X447400Y155000D02*
X448500D01*
X450000Y152400D02*
Y153500D01*
X615400Y319000D02*
X614300D01*
X613000Y321400D02*
Y320300D01*
X610600Y319000D02*
X611700D01*
X613000Y316600D02*
Y317700D01*
X571400Y325000D02*
X570300D01*
X566600D02*
X567700D01*
X569000Y322600D02*
Y323700D01*
X509243Y212157D02*
X508143D01*
X504443D02*
X505543D01*
X506843Y209757D02*
Y210857D01*
X561000Y197400D02*
Y196300D01*
X558600Y195000D02*
X559700D01*
X561000Y192600D02*
Y193700D01*
X552509Y331725D02*
X551409D01*
X550109Y334125D02*
Y333025D01*
X547709Y331725D02*
X548809D01*
X550109Y329325D02*
Y330425D01*
X455000Y159100D02*
Y158000D01*
Y150900D02*
Y152000D01*
X465000Y159100D02*
Y158000D01*
Y150900D02*
Y152000D01*
X472600Y155000D02*
X471500D01*
X470000Y157600D02*
Y156500D01*
Y152400D02*
Y153500D01*
X557900Y189500D02*
X556800D01*
X555500Y191900D02*
Y190800D01*
X553100Y189500D02*
X554200D01*
X555500Y187100D02*
Y188200D01*
X615400Y308000D02*
X614300D01*
X613000Y310400D02*
Y309300D01*
X610600Y308000D02*
X611700D01*
X613000Y305600D02*
Y306700D01*
X510400Y195500D02*
X509300D01*
X508000Y197900D02*
Y196800D01*
X505600Y195500D02*
X506700D01*
X508000Y193100D02*
Y194200D01*
X460000Y157600D02*
Y156500D01*
Y152400D02*
Y153500D01*
X538163Y206737D02*
X537063D01*
X535763Y204337D02*
Y205437D01*
G54D13*
X587000Y472000D03*
X567000D03*
X535000Y460000D03*
X680000Y350000D03*
X383000Y400000D03*
Y380000D03*
X450000Y140000D03*
X470000D03*
X640000Y120000D03*
X350000Y445000D03*
Y435000D03*
Y400000D03*
Y330000D03*
Y310000D03*
X465000Y155000D03*
X455000D03*
G54D22*
X678543Y416378D03*
Y463780D03*
G54D36*
X640000Y120000D02*
X647700Y127700D01*
Y187550*
X645381Y189869*
Y284910*
X645381D02*
X635100Y295191D01*
Y356398*
X632461Y359037*
Y407651*
X623911Y416200*
X636500Y142500D02*
Y147044D01*
X635800Y147744*
Y209300*
X637250Y210750*
Y234206*
X639000Y235956*
Y241000*
X642500Y147000D02*
Y192750D01*
X641763Y193487*
Y239237*
X341000Y172500D02*
Y202653D01*
X339100Y204553*
X365000Y182500D02*
Y188933D01*
X361939Y191994*
X335000Y196000D02*
Y420000D01*
X350000Y435000*
X365589Y198800D02*
X371241D01*
X371341Y198900*
X379200*
X365589Y198800D02*
X363978Y200411D01*
Y212123*
X357600Y218501*
X361939Y191994D02*
Y199751D01*
X362700Y200512*
X362700D02*
Y211199D01*
X356400Y217499*
X360500Y203125D02*
X352600Y211025D01*
Y262491*
X353900Y263791*
Y301908*
X350000Y305808*
Y310000*
X383100Y195000D02*
X379200Y198900D01*
X339100Y204553D02*
Y259661D01*
X345000Y265561*
Y320808*
X350000Y325808*
Y330000*
X358600Y222499D02*
Y227501D01*
X357600Y228501*
Y218501D02*
Y221499D01*
X358600Y222499*
X356400Y217499D02*
Y222501D01*
X357400Y223501*
Y226499*
X356400Y227499*
X649000Y218000D02*
Y233294D01*
X652200Y236494*
X358600Y232499D02*
Y247216D01*
X357558Y248258*
Y433250*
X350000Y440808*
Y445000*
X357600Y228501D02*
Y231499D01*
X358600Y232499*
X356400Y227499D02*
Y232501D01*
X357400Y233501*
Y240146*
X355616Y241931*
Y389131*
X350000Y394747*
Y400000*
X652200Y236494D02*
Y286282D01*
X636300Y302182*
Y367763*
X634880Y369183*
Y406928*
X624408Y417400*
X641000Y243500D02*
Y281055D01*
X633900Y288155*
Y345714*
X630730Y348884*
Y390520*
X624300Y396950*
Y402050*
X624700Y402450*
Y412300*
X623000Y414000*
X662000Y232500D02*
Y285282D01*
X645100Y302182*
Y400011*
X626511Y418600*
X638500Y317500D02*
Y378825D01*
X637300Y380025*
X489300Y336500D02*
X493050Y340250D01*
X559361*
X612263Y393151*
Y396263*
X680000Y350000D02*
Y363200D01*
X650700Y392500*
X637300Y380025D02*
Y395956D01*
X639300Y397956*
Y402700*
X586851Y400537D02*
X611649D01*
X617500Y406389*
Y411611*
X622089Y416200*
X623911*
X586851Y400537D02*
X542077Y445312D01*
Y445345*
X538844Y448579*
X532085*
Y448626*
X610000Y417000D02*
X613301D01*
X614901Y418600*
X626511*
X611000Y411900D02*
X616500Y417400D01*
X624408*
X678543Y416378D02*
Y463780D01*
X573000Y443500D02*
Y453900D01*
X567000Y459900*
Y472000*
X591111Y442889D02*
Y454539D01*
X587000Y458650*
Y472000*
X552345Y445600D02*
X549400D01*
X535000Y460000*
G54D38*
X450000Y155000D03*
X460000D03*
X470000D03*
X532085Y448626D03*
G54D43*
X636500Y142500D03*
X642500Y147000D03*
X341000Y172500D03*
X365000Y182500D03*
X335000Y196000D03*
X360500Y203125D03*
X383100Y195000D03*
X508000Y195500D03*
X555500Y189500D03*
X561000Y195000D03*
X398000Y208500D03*
Y220000D03*
X506843Y212157D03*
X535763Y206737D03*
X649000Y218000D03*
X639000Y241000D03*
X641000Y243500D03*
X641763Y239237D03*
X662000Y232500D03*
X613000Y319000D03*
Y308000D03*
X638500Y317500D03*
X489300Y336500D03*
X550109Y331725D03*
X569000Y325000D03*
X371500Y364000D03*
X612263Y396263D03*
X639300Y402700D03*
X650700Y392500D03*
X610000Y417000D03*
X611000Y411900D03*
X623000Y414000D03*
X573000Y443500D03*
X591111Y442889D03*
X552345Y445600D03*
G54D45*
X413074Y328372D03*
X401262Y304750D03*
X420948D03*
X381577Y300813D03*
X401262D03*
X420948D03*
X401262Y296875D03*
X420948D03*
X440633D03*
X401262Y292938D03*
X420948D03*
X409136Y269316D03*
G74*
X0Y0D02*
M02*
