%
T1C.008F0S0
X03485Y0194
X0348Y02425
X035Y02455
X039Y0428
X0389Y0415
X0373Y0369
X0409Y03285
X03825Y03275
X038625Y032375
X03975Y03125
X03935Y03125
X04055Y03085
X040892Y03045
X04015Y03045
X03945Y0304
X03985Y0304
X0409Y03005
X04015Y03005
X03815Y03005
X0405Y02965
X0401Y02965
X03776Y029645
X03825Y0296
X0378Y0293
X03895Y02925
X0405Y02925
X0409Y0289
X040202Y028848
X03975Y0285
X0402Y0284
X0398Y02805
X03905Y02805
X03941Y02804
X0401Y0277
X0398Y02765
X03904Y02765
X0394Y02765
X03865Y02765
X03855Y0273
X039792Y027258
X039395Y027255
X03825Y02725
X03935Y0269
X0409Y0269
X03975Y0269
X038202Y026848
X038Y02535
X03745Y02485
X03985Y0238
X03885Y0228
X03855Y0226
X03955Y0224
X03984Y022
X0388Y0217
X03615Y02045
X0389Y01995
X03765Y0191
X03835Y0165
X0397Y016
X04165Y018
X04165Y019
X04205Y01965
X0418Y0209
X04345Y0212
X04285Y0235
X0416Y0245
X04275Y02475
X0416Y02675
X0414Y02725
X0418Y02725
X04295Y02725
X041001Y02725
X041Y02765
X0418Y02765
X041395Y02802
X041Y02805
X041Y02845
X0414Y02845
X04335Y0288
X0417Y0289
X0413Y0289
X04295Y0292
X0413Y02925
X04295Y0296
X04255Y0296
X04335Y0296
X0417Y02965
X0421Y02965
X0425Y03005
X04285Y03005
X0421Y03005
X0417Y03005
X04325Y03005
X0413Y03005
X043Y0304
X0421Y03045
X0417Y03045
X0413Y03045
X0421Y03085
X0413Y03085
X0417Y03085
X0418Y03195
X04255Y03275
X04102Y03313
X04255Y0346
X04265Y0364
X0437Y04095
X04385Y0346
X0454Y03375
X044203Y03285
X0437Y03245
X044185Y03165
X04415Y0312
X04535Y03095
X043756Y0308
X044111Y030789
X04365Y03045
X044203Y030203
X0456Y02995
X044203Y029803
X044213Y029413
X04535Y0292
X0451Y0292
X044203Y029053
X04365Y0273
X04425Y02705
X04525Y0268
X04445Y0259
X04415Y02355
X04475Y0212
X0438Y01825
X044Y01805
X044Y0161
X044Y0156
X05065Y0212
X05065Y0224
X0494Y0225
X0509Y0227
X0477Y0228
X0462Y0228
X05065Y02295
X04935Y0231
X04955Y02375
X0494Y0249
X05065Y0255
X05065Y02625
X04725Y02655
X0495Y02715
X04875Y02735
X0495Y02739
X04906Y02742
X0495Y02799
X04675Y0287
X04805Y0287
X0494Y02895
X05065Y02901
X050914Y029036
X05065Y02949
X05065Y02985
X05065Y0319
X04785Y0322
X04715Y0324
X046Y0332
X0508Y0404
X04875Y04405
X04875Y04455
X04875Y04505
X0528Y04365
X05125Y0428
X0528Y0427
X0528Y0404
X0525Y0404
X0528Y0395
X05335Y0379
X05185Y0364
X051276Y033474
X05347Y0331
X05311Y0331
X0517Y03305
X0518Y03245
X05144Y03245
X053Y03245
X05228Y03245
X0514Y03135
X05334Y03135
X05325Y0267
X0514Y026512
X0515Y02445
X0514Y0235
X05175Y02125
X05262Y02091
X05185Y02085
X052Y02065
X0517Y02065
X052604Y020636
X05331Y01955
X05275Y01955
X051Y01955
X0524Y0194
X0556Y019
X0543Y01925
X0549Y01955
X05586Y01955
X05355Y01955
X0545Y02065
X0553Y020711
X0558Y02075
X0551Y02085
X0543Y0212
X05415Y02585
X0548Y027
X05565Y0273
X0549Y0274
X05555Y0304
X05579Y030435
X0545Y030451
X054741Y03056
X0547Y0308
X05425Y03105
X0537Y03135
X05375Y03245
X0545Y03245
X0559Y03245
X0549Y0325
X05475Y0327
X0537Y03275
X05535Y0329
X054Y033
X05395Y03325
X05405Y03655
X05475Y037
X05385Y03815
X05575Y0383
X05365Y03875
X05405Y0427
X0537Y04295
X053845Y043145
X05435Y04315
X05455Y04345
X054Y0436
X05375Y0439
X05475Y0442
X054824Y0445
X054264Y0446
X0562Y0446
X058Y0446
X05624Y040043
X057Y0394
X05775Y0394
X05686Y0385
X05614Y0385
X057321Y0385
X0565Y0384
X057136Y038314
X05672Y03828
X05755Y038
X0569Y03245
X05714Y03245
X05805Y03245
X05615Y0307
X0568Y0305
X05765Y02975
X0564Y02965
X05745Y02915
X05835Y02897
X0562Y02881
X0573Y0287
X05705Y02825
X0582Y028
X05825Y027607
X05835Y027
X0571Y02685
X05665Y0218
X0567Y02105
X0569Y02065
X0573Y02065
X05845Y01955
X0561Y01955
X0578Y01955
X0578Y01931
X0566Y01895
X0579Y0186
X05885Y01955
X05985Y01955
X06025Y01955
X06049Y01955
X05865Y02065
X0594Y0209
X0597Y0212
X06041Y02145
X05905Y02195
X0596Y02385
X05895Y02645
X0598Y02735
X0587Y0282
X059404Y028564
X05935Y02885
X05995Y0295
X05955Y0296
X05995Y02974
X06005Y03
X06037Y03017
X05895Y03099
X058697Y031246
X05955Y03135
X059Y03135
X05925Y03245
X058652Y038348
X05935Y0385
X06097Y0402
X06095Y0446
X06071Y0446
X05916Y0446
X0594Y0446
X0613Y04385
X06245Y0419
X0623Y0417
X0624Y04105
X0622Y04085
X0613Y04059
X0613Y04035
X0623Y0403
X0617Y03885
X06285Y0388
X0623Y0357
X06175Y03305
X06305Y033
X06125Y0319
X06135Y0308
X0629Y02905
X06135Y02785
X06135Y0271
X06245Y02705
X06245Y0248
X06135Y0248
X06135Y02435
X063062Y023962
X06135Y0238
X06245Y02375
X062589Y02355
X0627Y0226
X06135Y02215
X06135Y02175
X0634Y0216
X06125Y01855
X06255Y0184
X0631Y01665
X0651Y01325
X0643Y0149
X06385Y01515
X0643Y0185
X06498Y01903
X0651Y01925
X0639Y02105
X065Y0213
X0643Y02153
X06425Y0218
X0639Y02255
X0644Y0235
X0647Y0242
X065Y03585
X0647Y0368
X064Y04285
X06615Y04025
X0686Y0396
X06785Y037
X06915Y037
X0661Y03455
X0661Y03355
X0661Y0325
X0661Y03155
X0661Y02805
X0665Y0251
X0689Y02375
X06626Y0223
X0689Y01775
X066136Y017036
T2C.01F095S3
X0155Y0112
X0155Y0129
X0133Y0134
X0159Y0144
X0156Y0157
X0145Y0245
X013Y0245
X0158Y0288
X0158Y0296
X011Y03
X013818Y030715
X01381Y031283
X013825Y031836
X0133Y0338
X0153Y034
X011Y03455
X0155Y035
X013Y036
X011Y03605
X0136Y0362
X0152Y0363
X011Y03755
X011Y03905
X011Y0408
X0155Y044
X019Y046
X0166Y0457
X0189Y0454
X0172Y0442
X0185Y044
X016Y0415
X0175Y0415
X0205Y0415
X019Y0415
X0185Y039
X016Y039
X0205Y0335
X019Y0335
X017Y0335
X017732Y031011
X02079Y031
X019Y03
X0205Y03
X0205Y0285
X018396Y027498
X0165Y0245
X02Y0245
X018Y0245
X0175Y0175
X0195Y0157
X0177Y0157
X019206Y014202
X0179Y0124
X0215Y0129
X0215Y0144
X0232Y015
X023Y0157
X025Y022
X0245Y023
X023Y0245
X0225Y026
X0235Y026
X0245Y0296
X0235Y03
X0225Y031
X0248Y0316
X0235Y032
X025Y0325
X022Y0335
X0235Y0335
X025Y0335
X0235Y035
X022Y0415
X0235Y0415
X025Y0415
X0235Y044
X0235Y0445
X0254Y0455
X0275Y046
X0284Y0445
X0266Y0442
X0266Y0414
X0281Y0407
X026Y037
X026Y035
X028Y035
X0265Y0335
X028Y0335
X027Y0325
X0275Y0304
X0275Y0285
X027Y0245
X0265Y0205
X0265Y0195
X0261Y0157
X0281Y0157
X0271Y0148
X026Y0143
X0274Y0143
X0265Y0129
X0298Y0126
X0299Y0139
X0306Y0139
X0295Y0195
X0287Y0212
X0305Y022
X0287Y0238
X0295Y0255
X03Y026
X0285Y026
X0285Y027
X0305Y0325
X029Y0325
X03Y0335
X03Y0415
X029Y044
X0332Y04805
X0332Y04655
X031Y044
X033Y044
X0333Y042
X0315Y0415
X0334Y03805
X0334Y03655
X032Y0335
X031Y0335
X032635Y022491
X0315Y02
X033399Y017478
X0311Y0149
X033Y0139
X0316Y0139
X0323Y0139
X0354Y011
X0348Y012
X0348Y0127
X0348Y0134
X0338Y0139
X0352Y0149
X0345Y017
X035Y018
X03525Y0189
X0345Y0198
X0345Y0205
X0355Y0215
X0343Y0232
X0355Y0235
X0343Y0244
X034139Y025836
X034Y0335
X04085Y047
X0369Y0408
X0367Y037
X038378Y035128
X03775Y03295
X037156Y025344
X037783Y023728
X040098Y023306
X0409Y0231
X03945Y02115
X038647Y020093
X03831Y0195
X03935Y01925
X038Y01855
X0365Y01805
X03831Y0175
X0363Y017
X0361Y0142
X0376Y0135
X04485Y018
X042612Y018387
X0418Y0216
X0412Y0243
X0439Y0333
X043492Y033558
X044Y03405
X044722Y041458
X044739Y043157
X04555Y0438
X044996Y044787
X044698Y045799
X043505Y045799
X045008Y047139
X044723Y048971
X0476Y0494
X0463Y04855
X048284Y046835
X048015Y045302
X048268Y044294
X048021Y043671
X048498Y042839
X0476Y03045
X0477Y024719
X04725Y0243
X047082Y022429
X0475Y0181
X046593Y017515
X048327Y017009
X047337Y016712
X046Y0155
X051136Y014996
X049816Y015001
X0518Y017005
X053146Y017012
X049651Y017017
X05213Y0195
X05128Y019541
X05315Y02087
X0495Y02135
X051362Y023
X05115Y02325
X0531Y02395
X0507Y0251
X0494Y0253
X05084Y02701
X05068Y03037
X04951Y03141
X05234Y0331
X04985Y0333
X05146Y03595
X05085Y03715
X0511Y0375
X05135Y03775
X05147Y03873
X05085Y03875
X0523Y0409
X0487Y0457
X050623Y048942
X049233Y048955
X055305Y048897
X054134Y047208
X0556Y04555
X054544Y04456
X0541Y0441
X053825Y042475
X05385Y04085
X054146Y040693
X05537Y03944
X0551Y0383
X05575Y03455
X055611Y031236
X055126Y02978
X055108Y02613
X05565Y0261
X0554Y0259
X0544Y02555
X053992Y019508
X055304Y017018
X056713Y017017
X059961Y017041
X0569Y0195
X05642Y019541
X0574Y019541
X056494Y020671
X058792Y022258
X06Y0225
X060924Y023526
X058Y0239
X0605Y0248
X06075Y02555
X05843Y029946
X059195Y031149
X06015Y03275
X058Y033
X05615Y0342
X060287Y038276
X06095Y03945
X056497Y039473
X056Y03975
X0572Y040167
X060259Y040195
X0607Y0415
X056Y0442
X05865Y0445
X059Y0467
X060159Y048913
X05985Y04955
X064444Y048489
X065791Y048489
X061243Y0472
X0634Y0464
X06365Y0438
X06227Y0413
X06393Y04027
X06265Y04005
X06395Y03925
X06507Y03925
X06271Y038276
X062594Y034753
X06285Y03415
X064192Y033916
X06385Y03175
X0625Y03065
X064182Y028206
X06584Y026455
X064187Y024916
X062517Y02432
X06415Y02395
X0625Y02327
X062477Y022773
X061751Y020209
X0625Y01995
X064705Y019642
X06455Y0158
X0648Y0145
X064558Y013993
X0626Y0136
X06782Y01475
X06894Y01625
X066999Y020482
X06665Y0225
X069124Y022989
X067407Y023009
X067297Y040557
T3C.033F197S55
X0144Y0112
X0166Y0112
X0204Y0112
X0226Y0112
X035Y0445
X035Y0435
X035Y041
X035Y04
X035Y034
X035Y033
X035Y032
X034Y032
X035Y031
X034Y031
X035Y03
X034Y03
X0254Y0112
X0277Y0112
X045Y014
X0383Y038
X0383Y04
X0383Y0439
X0383Y0459
X046Y042
X047Y042
X048Y042
X049Y042
X048Y0405
X047Y0405
X049Y0405
X046Y0405
X047Y014
X0525Y046
X055Y046
X0535Y046
X0577Y0487
X0647Y0468
X0635Y0275
X0635Y0265
X0635Y0255
X0635Y0245
T4C.035F197S55
X046Y037
X047Y037
X048Y037
X047Y038
X046Y038
X048Y038
X049Y038
X05Y038
X05Y037
X049Y037
X068Y0255
X068Y0265
X068Y0275
X068Y0285
X068Y0295
X068Y031
X068Y032
X068Y033
X068Y034
X068Y035
X069Y035
X069Y034
X069Y033
X069Y032
X069Y031
X069Y0295
X069Y0285
X069Y0275
X069Y0265
X069Y0255
T5C.03622F197S55
X066Y043516
X066787Y043516
X066Y0445
X066787Y0445
T6C.037F197S55
X011Y018
X013Y02
X011Y0215
X013Y022
X012Y0225
X011Y023
X013Y0235
X011Y0245
X011Y0255
X011Y027
X0133Y0283
X011Y0285
X011Y0315
X011Y033
X013Y0375
X013Y039
X013Y0405
X013Y0415
X011Y0425
X0125Y0425
X011Y0445
X011Y047
X0135Y049
X015Y049
X0165Y049
X018Y049
X0155Y0475
X0165Y0465
X014Y0425
X017Y0425
X0155Y0425
X0145Y0415
X0142Y038
X0172Y0362
X018Y035
X0165Y032
X0165Y0305
X0176Y0279
X0161Y0279
X016Y0235
X0145Y0235
X0145Y022
X016Y022
X016Y0205
X016Y019
X0205Y0185
X0225Y019
X0205Y02
X0225Y0205
X0198Y0231
X0215Y0245
X0225Y03
X019Y032
X0225Y032
X0225Y0355
X0215Y0355
X0188Y0361
X02Y0425
X0185Y0425
X0215Y0425
X023Y0425
X0215Y0445
X0215Y0455
X0195Y049
X0225Y049
X021Y049
X024Y049
X0255Y049
X027Y049
X0235Y046
X026Y046
X026Y0425
X0245Y0425
X0273Y0393
X0252Y0361
X027Y036
X0235Y031
X0255Y0245
X026Y0215
X025Y0205
X029Y0175
X0305Y0205
X0295Y021
X0295Y0225
X0295Y024
X0295Y027
X0295Y036
X0295Y0375
X0295Y039
X03Y0425
X0285Y0425
X029Y0455
X03Y0465
X029Y0475
X0285Y049
X03Y049
X0315Y049
X033Y049
X035Y049
X031Y0475
X031Y0455
X035Y0455
X0315Y0425
X035Y0425
X033Y0425
X034Y039
X031Y039
X031Y0375
X031Y036
X034Y0355
X0315Y021
X036Y011
X037Y011
X043Y011
X045Y011
X044Y011
X044Y012
X043Y012
X045Y012
X042108Y043655
X047Y012
X048Y012
X046Y012
X049Y012
X05Y012
X048Y011
X049Y011
X05Y011
X047Y011
X046Y011
X052Y011
X051Y011
X053Y011
X054Y011
X055Y011
X053Y012
X052Y012
X055Y012
X051Y012
X054Y012
X051483Y0472
X0567Y0472
X0587Y0472
X057Y012
X056Y012
X058Y012
X059Y012
X06Y012
X057Y011
X06Y011
X059Y011
X056Y011
X058Y011
X062Y011
X063Y011
X061Y011
X065Y011
X064Y011
X063Y012
X062Y012
X064Y012
X065Y012
X061Y012
X0625Y015
X061Y015
X0625Y016
X061Y016
X061Y017
X0625Y017
X0625Y049
X0615Y049
X066Y012
X066Y011
T7C.045F139S55
X052Y049
X05356Y049
T8C.046F139S55
X013Y018
X013Y045
T9C.067F089S55
X012Y017
X014Y017
X014Y019
X012Y019
X012Y044
X014Y044
X012Y046
X014Y046
T10C.075F081S55
X0258Y0293
T11C.09055F066S55
X067854Y041638
X067854Y046378
T12C.144F035S9
X0115Y0115
X0115Y0485
X04Y0485
X04Y0115
X0685Y0115
X0685Y0485
M30
