*
*
G04 PADS Layout (Build Number 2005.266.2) generated Gerber (RS-274-X) file*
G04 PC Version=2.1*
*
%IN "QS1R_11102006_routed.pc"*%
*
%MOIN*%
*
%FSLAX35Y35*%
*
*
*
*
G04 PC Standard Apertures*
*
*
G04 Thermal Relief Aperture macro.*
%AMTER*
1,1,$1,0,0*
1,0,$1-$2,0,0*
21,0,$3,$4,0,0,45*
21,0,$3,$4,0,0,135*
%
*
*
G04 Annular Aperture macro.*
%AMANN*
1,1,$1,0,0*
1,0,$2,0,0*
%
*
*
G04 Odd Aperture macro.*
%AMODD*
1,1,$1,0,0*
1,0,$1-0.005,0,0*
%
*
*
G04 PC Custom Aperture Macros*
*
*
*
*
*
*
G04 PC Aperture Table*
*
%ADD010C,0.01*%
%ADD013C,0.06*%
%ADD014C,0.008*%
%ADD022C,0.12055*%
%ADD029C,0.11*%
%ADD033C,0.225*%
%ADD036C,0.006*%
%ADD037C,0.02*%
%ADD038C,0.03*%
%ADD040C,0.018*%
%ADD043C,0.026*%
%ADD075C,0.022*%
*
*
*
*
G04 PC Copper Outlines (0)*
G04 Layer Name QS1R_11102006_routed.pc - dark (0)*
%LPD*%
*
*
G04 PC Area=ANP002753*
G75*
G36*
G01*
X354400Y451800D02*
Y494300D01*
X122973D01*
G02*
X112859Y472938I-7973J-9300D01*
X109476Y474066I-2859J-2938D01*
X105300Y477518I5524J10934D01*
G01*
Y122482D01*
G02*
X123522Y106200I9700J-7482D01*
G01*
X354400D01*
Y107431D01*
G02*
Y112569I-400J2569D01*
G01*
Y148000D01*
G02*
Y150000I-2400J1000D01*
G01*
Y159600D01*
X325300D01*
Y222533D01*
G02*
Y227289I1051J2378D01*
G01*
Y451800D01*
X347437D01*
G02*
X352563I2563J3200D01*
G01*
X354400D01*
G37*
G74*
*
*
G04 PC Area=ANP001555*
G75*
G36*
G01*
X632500Y330009D02*
Y334948D01*
X514747D01*
G02*
X510768I-1990J-205D01*
G01*
X499902D01*
G02*
X497098I-1402J-1948D01*
G01*
X455388D01*
Y310160D01*
G02*
Y308840I-1888J-660D01*
G01*
Y301404D01*
G02*
Y297596I612J-1904D01*
G01*
Y292660D01*
G02*
Y291340I-1888J-660D01*
G01*
Y189901D01*
X418498D01*
G02*
X414502I-1998J99D01*
G01*
X378171D01*
G02*
X374829I-1671J1099D01*
G01*
X366653D01*
Y182240D01*
G02*
Y178760I-1653J-1740D01*
G01*
Y112191D01*
G02*
Y107809I3347J-2191D01*
G01*
Y105920D01*
X391777D01*
G02*
X408223I8223J9080D01*
G01*
X632500D01*
Y106877D01*
G02*
Y113123I-2500J3123D01*
G01*
Y116877D01*
G02*
Y123123I-2500J3123D01*
G01*
Y165177D01*
G02*
Y167823I-1500J1323D01*
G01*
Y214677D01*
G02*
Y217323I1500J1323D01*
G01*
Y238936D01*
G02*
Y240306I-1879J685D01*
G01*
Y241877D01*
G02*
Y248123I2500J3123D01*
G01*
Y251877D01*
G02*
Y258123I2500J3123D01*
G01*
Y261877D01*
G02*
Y268123I2500J3123D01*
G01*
Y271877D01*
G02*
Y278123I2500J3123D01*
G01*
Y329991D01*
G02*
Y330009I-2000J9D01*
G37*
G74*
*
*
G04 PC Area=ANP002661*
G75*
G36*
G01*
X451800Y473344D02*
Y494700D01*
X407482D01*
G02*
X392518I-7482J-9700D01*
G01*
X367300D01*
Y409694D01*
G02*
Y406306I1700J-1694D01*
G01*
Y372381D01*
G02*
Y367619I-300J-2381D01*
G01*
Y278221D01*
X385061Y260461D01*
G02*
X385500Y259400I-1061J-1061D01*
G01*
Y251200D01*
G02*
X385061Y250139I-1500J0D01*
G01*
X373500Y238579D01*
Y201600D01*
X384166D01*
G02*
X388775I2304J-670D01*
G01*
X451800D01*
Y266126D01*
G02*
Y269874I700J1874D01*
G01*
Y290167D01*
G02*
Y293833I-800J1833D01*
G01*
Y308446D01*
G02*
Y310554I1700J1054D01*
G01*
Y446030D01*
G02*
Y449707I-1839J1839D01*
G01*
Y469440D01*
G02*
Y473344I-1717J1952D01*
G37*
G74*
*
*
G04 PC Void Outlines (0)*
G04 Layer Name QS1R_11102006_routed.pc - clear (0)*
%LPC*%
*
*
G04 PC Area=ANP002753*
G75*
G36*
G01*
X348000Y117400D02*
G03*
X348000I0J2600D01*
G37*
G74*
*
G75*
G36*
G01*
Y124400D02*
G03*
X348000I0J2600D01*
G37*
G74*
*
G75*
G36*
G01*
Y131400D02*
G03*
X348000I0J2600D01*
G37*
G74*
*
G75*
G36*
G01*
X338000Y136400D02*
G03*
X338000I0J2600D01*
G37*
G74*
*
G75*
G36*
G01*
X330000D02*
G03*
X330000I0J2600D01*
G37*
G74*
*
G75*
G36*
G01*
X323000D02*
G03*
X323000I0J2600D01*
G37*
G74*
*
G75*
G36*
G01*
X350000Y485900D02*
G03*
X350000I0J4100D01*
G37*
G74*
*
G75*
G36*
G01*
X332000Y463100D02*
G03*
X332000I0J2400D01*
G37*
G74*
*
G75*
G36*
G01*
Y478100D02*
G03*
X332000I0J2400D01*
G37*
G74*
*
G75*
G36*
G01*
X330000Y485900D02*
G03*
X330000I0J4100D01*
G37*
G74*
*
G75*
G36*
G01*
X316000Y136400D02*
G03*
X316000I0J2600D01*
G37*
G74*
*
G75*
G36*
G01*
X306000D02*
G03*
X306000I0J2600D01*
G37*
G74*
*
G75*
G36*
G01*
X311000Y146400D02*
G03*
X311000I0J2600D01*
G37*
G74*
*
G75*
G36*
G01*
X315000Y197400D02*
G03*
X315000I0J2600D01*
G37*
G74*
*
G75*
G36*
G01*
Y205900D02*
G03*
X315000I0J4100D01*
G37*
G74*
*
G75*
G36*
G01*
X320000Y332400D02*
G03*
X320000I0J2600D01*
G37*
G74*
*
G75*
G36*
G01*
X298000Y123400D02*
G03*
X298000I0J2600D01*
G37*
G74*
*
G75*
G36*
G01*
X299000Y136400D02*
G03*
X299000I0J2600D01*
G37*
G74*
*
G75*
G36*
G01*
X305000Y200900D02*
G03*
X305000I0J4100D01*
G37*
G74*
*
G75*
G36*
G01*
Y217400D02*
G03*
X305000I0J2600D01*
G37*
G74*
*
G75*
G36*
G01*
X290000Y170900D02*
G03*
X290000I0J4100D01*
G37*
G74*
*
G75*
G36*
G01*
X295000Y192400D02*
G03*
X295000I0J2600D01*
G37*
G74*
*
G75*
G36*
G01*
Y205900D02*
G03*
X295000I0J4100D01*
G37*
G74*
*
G75*
G36*
G01*
Y220900D02*
G03*
X295000I0J4100D01*
G37*
G74*
*
G75*
G36*
G01*
Y235900D02*
G03*
X295000I0J4100D01*
G37*
G74*
*
G75*
G36*
G01*
Y252400D02*
G03*
X295000I0J2600D01*
G37*
G74*
*
G75*
G36*
G01*
X300000Y257400D02*
G03*
X300000I0J2600D01*
G37*
G74*
*
G75*
G36*
G01*
X305000Y322400D02*
G03*
X305000I0J2600D01*
G37*
G74*
*
G75*
G36*
G01*
X310000Y332400D02*
G03*
X310000I0J2600D01*
G37*
G74*
*
G75*
G36*
G01*
Y355900D02*
G03*
X310000I0J4100D01*
G37*
G74*
*
G75*
G36*
G01*
Y370900D02*
G03*
X310000I0J4100D01*
G37*
G74*
*
G75*
G36*
G01*
Y385900D02*
G03*
X310000I0J4100D01*
G37*
G74*
*
G75*
G36*
G01*
X315000Y412400D02*
G03*
X315000I0J2600D01*
G37*
G74*
*
G75*
G36*
G01*
Y420900D02*
G03*
X315000I0J4100D01*
G37*
G74*
*
G75*
G36*
G01*
X310000Y437400D02*
G03*
X310000I0J2600D01*
G37*
G74*
*
G75*
G36*
G01*
Y450900D02*
G03*
X310000I0J4100D01*
G37*
G74*
*
G75*
G36*
G01*
Y470900D02*
G03*
X310000I0J4100D01*
G37*
G74*
*
G75*
G36*
G01*
X315000Y485900D02*
G03*
X315000I0J4100D01*
G37*
G74*
*
G75*
G36*
G01*
X295000Y265900D02*
G03*
X295000I0J4100D01*
G37*
G74*
*
G75*
G36*
G01*
X300000Y332400D02*
G03*
X300000I0J2600D01*
G37*
G74*
*
G75*
G36*
G01*
X287000Y209600D02*
G03*
X287000I0J2400D01*
G37*
G74*
*
G75*
G36*
G01*
Y235600D02*
G03*
X287000I0J2400D01*
G37*
G74*
*
G75*
G36*
G01*
X277000Y108000D02*
G03*
X277000I0J4000D01*
G37*
G74*
*
G75*
G36*
G01*
X281000Y154400D02*
G03*
X281000I0J2600D01*
G37*
G74*
*
G75*
G36*
G01*
X285000Y257400D02*
G03*
X285000I0J2600D01*
G37*
G74*
*
G75*
G36*
G01*
Y267400D02*
G03*
X285000I0J2600D01*
G37*
G74*
*
G75*
G36*
G01*
X290000Y322400D02*
G03*
X290000I0J2600D01*
G37*
G74*
*
G75*
G36*
G01*
X295000Y355900D02*
G03*
X295000I0J4100D01*
G37*
G74*
*
G75*
G36*
G01*
Y370900D02*
G03*
X295000I0J4100D01*
G37*
G74*
*
G75*
G36*
G01*
Y385900D02*
G03*
X295000I0J4100D01*
G37*
G74*
*
G75*
G36*
G01*
X300000Y412400D02*
G03*
X300000I0J2600D01*
G37*
G74*
*
G75*
G36*
G01*
Y420900D02*
G03*
X300000I0J4100D01*
G37*
G74*
*
G75*
G36*
G01*
Y460900D02*
G03*
X300000I0J4100D01*
G37*
G74*
*
G75*
G36*
G01*
Y485900D02*
G03*
X300000I0J4100D01*
G37*
G74*
*
G75*
G36*
G01*
X274000Y140400D02*
G03*
X274000I0J2600D01*
G37*
G74*
*
G75*
G36*
G01*
X271000Y145400D02*
G03*
X271000I0J2600D01*
G37*
G74*
*
G75*
G36*
G01*
X265000Y126400D02*
G03*
X265000I0J2600D01*
G37*
G74*
*
G75*
G36*
G01*
X254000Y108000D02*
G03*
X254000I0J4000D01*
G37*
G74*
*
G75*
G36*
G01*
X260000Y140400D02*
G03*
X260000I0J2600D01*
G37*
G74*
*
G75*
G36*
G01*
X261000Y154400D02*
G03*
X261000I0J2600D01*
G37*
G74*
*
G75*
G36*
G01*
X265000Y192400D02*
G03*
X265000I0J2600D01*
G37*
G74*
*
G75*
G36*
G01*
Y202400D02*
G03*
X265000I0J2600D01*
G37*
G74*
*
G75*
G36*
G01*
X270000Y242400D02*
G03*
X270000I0J2600D01*
G37*
G74*
*
G75*
G36*
G01*
X275000Y282400D02*
G03*
X275000I0J2600D01*
G37*
G74*
*
G75*
G36*
G01*
Y301400D02*
G03*
X275000I0J2600D01*
G37*
G74*
*
G75*
G36*
G01*
X280000Y332400D02*
G03*
X280000I0J2600D01*
G37*
G74*
*
G75*
G36*
G01*
Y347400D02*
G03*
X280000I0J2600D01*
G37*
G74*
*
G75*
G36*
G01*
X281000Y404400D02*
G03*
X281000I0J2600D01*
G37*
G74*
*
G75*
G36*
G01*
X285000Y420900D02*
G03*
X285000I0J4100D01*
G37*
G74*
*
G75*
G36*
G01*
X290000Y437400D02*
G03*
X290000I0J2600D01*
G37*
G74*
*
G75*
G36*
G01*
X284000Y442400D02*
G03*
X284000I0J2600D01*
G37*
G74*
*
G75*
G36*
G01*
X290000Y450900D02*
G03*
X290000I0J4100D01*
G37*
G74*
*
G75*
G36*
G01*
Y470900D02*
G03*
X290000I0J4100D01*
G37*
G74*
*
G75*
G36*
G01*
X285000Y485900D02*
G03*
X285000I0J4100D01*
G37*
G74*
*
G75*
G36*
G01*
X270000Y322400D02*
G03*
X270000I0J2600D01*
G37*
G74*
*
G75*
G36*
G01*
X260000Y210900D02*
G03*
X260000I0J4100D01*
G37*
G74*
*
G75*
G36*
G01*
X265000Y332400D02*
G03*
X265000I0J2600D01*
G37*
G74*
*
G75*
G36*
G01*
X270000Y355900D02*
G03*
X270000I0J4100D01*
G37*
G74*
*
G75*
G36*
G01*
X273000Y388900D02*
G03*
X273000I0J4100D01*
G37*
G74*
*
G75*
G36*
G01*
X275000Y457400D02*
G03*
X275000I0J2600D01*
G37*
G74*
*
G75*
G36*
G01*
X266000Y411400D02*
G03*
X266000I0J2600D01*
G37*
G74*
*
G75*
G36*
G01*
X250000Y200900D02*
G03*
X250000I0J4100D01*
G37*
G74*
*
G75*
G36*
G01*
Y217400D02*
G03*
X250000I0J2600D01*
G37*
G74*
*
G75*
G36*
G01*
X255000Y240900D02*
G03*
X255000I0J4100D01*
G37*
G74*
*
G75*
G36*
G01*
X260000Y347400D02*
G03*
X260000I0J2600D01*
G37*
G74*
*
G75*
G36*
G01*
Y367400D02*
G03*
X260000I0J2600D01*
G37*
G74*
*
G75*
G36*
G01*
X245000Y227400D02*
G03*
X245000I0J2600D01*
G37*
G74*
*
G75*
G36*
G01*
Y293400D02*
G03*
X245000I0J2600D01*
G37*
G74*
*
G75*
G36*
G01*
X248000Y313400D02*
G03*
X248000I0J2600D01*
G37*
G74*
*
G75*
G36*
G01*
X250000Y322400D02*
G03*
X250000I0J2600D01*
G37*
G74*
*
G75*
G36*
G01*
Y332400D02*
G03*
X250000I0J2600D01*
G37*
G74*
*
G75*
G36*
G01*
X252000Y356900D02*
G03*
X252000I0J4100D01*
G37*
G74*
*
G75*
G36*
G01*
X260000Y420900D02*
G03*
X260000I0J4100D01*
G37*
G74*
*
G75*
G36*
G01*
X266000Y439400D02*
G03*
X266000I0J2600D01*
G37*
G74*
*
G75*
G36*
G01*
X270000Y485900D02*
G03*
X270000I0J4100D01*
G37*
G74*
*
G75*
G36*
G01*
X250000Y412400D02*
G03*
X250000I0J2600D01*
G37*
G74*
*
G75*
G36*
G01*
X254000Y452400D02*
G03*
X254000I0J2600D01*
G37*
G74*
*
G75*
G36*
G01*
X260000Y455900D02*
G03*
X260000I0J4100D01*
G37*
G74*
*
G75*
G36*
G01*
X255000Y485900D02*
G03*
X255000I0J4100D01*
G37*
G74*
*
G75*
G36*
G01*
X245000Y420900D02*
G03*
X245000I0J4100D01*
G37*
G74*
*
G75*
G36*
G01*
X226000Y108000D02*
G03*
X226000I0J4000D01*
G37*
G74*
*
G75*
G36*
G01*
X232000Y147400D02*
G03*
X232000I0J2600D01*
G37*
G74*
*
G75*
G36*
G01*
X230000Y154400D02*
G03*
X230000I0J2600D01*
G37*
G74*
*
G75*
G36*
G01*
X225000Y185900D02*
G03*
X225000I0J4100D01*
G37*
G74*
*
G75*
G36*
G01*
Y200900D02*
G03*
X225000I0J4100D01*
G37*
G74*
*
G75*
G36*
G01*
X230000Y242400D02*
G03*
X230000I0J2600D01*
G37*
G74*
*
G75*
G36*
G01*
X235000Y257400D02*
G03*
X235000I0J2600D01*
G37*
G74*
*
G75*
G36*
G01*
Y297400D02*
G03*
X235000I0J2600D01*
G37*
G74*
*
G75*
G36*
G01*
Y305900D02*
G03*
X235000I0J4100D01*
G37*
G74*
*
G75*
G36*
G01*
Y317400D02*
G03*
X235000I0J2600D01*
G37*
G74*
*
G75*
G36*
G01*
Y332400D02*
G03*
X235000I0J2600D01*
G37*
G74*
*
G75*
G36*
G01*
Y347400D02*
G03*
X235000I0J2600D01*
G37*
G74*
*
G75*
G36*
G01*
Y412400D02*
G03*
X235000I0J2600D01*
G37*
G74*
*
G75*
G36*
G01*
X225000Y257400D02*
G03*
X225000I0J2600D01*
G37*
G74*
*
G75*
G36*
G01*
Y295900D02*
G03*
X225000I0J4100D01*
G37*
G74*
*
G75*
G36*
G01*
Y307400D02*
G03*
X225000I0J2600D01*
G37*
G74*
*
G75*
G36*
G01*
Y315900D02*
G03*
X225000I0J4100D01*
G37*
G74*
*
G75*
G36*
G01*
X215000Y126400D02*
G03*
X215000I0J2600D01*
G37*
G74*
*
G75*
G36*
G01*
Y141400D02*
G03*
X215000I0J2600D01*
G37*
G74*
*
G75*
G36*
G01*
Y240900D02*
G03*
X215000I0J4100D01*
G37*
G74*
*
G75*
G36*
G01*
X220000Y332400D02*
G03*
X220000I0J2600D01*
G37*
G74*
*
G75*
G36*
G01*
X225000Y350900D02*
G03*
X225000I0J4100D01*
G37*
G74*
*
G75*
G36*
G01*
X230000Y420900D02*
G03*
X230000I0J4100D01*
G37*
G74*
*
G75*
G36*
G01*
X234286Y442500D02*
G02*
X235714I714J2500D01*
X234286I-714J-2500D01*
G37*
G74*
*
G75*
G36*
G01*
X235000Y455900D02*
G03*
X235000I0J4100D01*
G37*
G74*
*
G75*
G36*
G01*
X240000Y485900D02*
G03*
X240000I0J4100D01*
G37*
G74*
*
G75*
G36*
G01*
X215000Y350900D02*
G03*
X215000I0J4100D01*
G37*
G74*
*
G75*
G36*
G01*
X220000Y412400D02*
G03*
X220000I0J2600D01*
G37*
G74*
*
G75*
G36*
G01*
X225000Y485900D02*
G03*
X225000I0J4100D01*
G37*
G74*
*
G75*
G36*
G01*
X215000Y420900D02*
G03*
X215000I0J4100D01*
G37*
G74*
*
G75*
G36*
G01*
Y440900D02*
G03*
X215000I0J4100D01*
G37*
G74*
*
G75*
G36*
G01*
Y450900D02*
G03*
X215000I0J4100D01*
G37*
G74*
*
G75*
G36*
G01*
X204000Y108000D02*
G03*
X204000I0J4000D01*
G37*
G74*
*
G75*
G36*
G01*
X205000Y180900D02*
G03*
X205000I0J4100D01*
G37*
G74*
*
G75*
G36*
G01*
Y195900D02*
G03*
X205000I0J4100D01*
G37*
G74*
*
G75*
G36*
G01*
X192056Y139419D02*
G03*
X192056I0J2600D01*
G37*
G74*
*
G75*
G36*
G01*
X195000Y154400D02*
G03*
X195000I0J2600D01*
G37*
G74*
*
G75*
G36*
G01*
X198000Y226900D02*
G03*
X198000I0J4100D01*
G37*
G74*
*
G75*
G36*
G01*
X200000Y242400D02*
G03*
X200000I0J2600D01*
G37*
G74*
*
G75*
G36*
G01*
X205000Y282400D02*
G03*
X205000I0J2600D01*
G37*
G74*
*
G75*
G36*
G01*
Y297400D02*
G03*
X205000I0J2600D01*
G37*
G74*
*
G75*
G36*
G01*
X207900Y307400D02*
G03*
X207900I0J2600D01*
G37*
G74*
*
G75*
G36*
G01*
X205000Y332400D02*
G03*
X205000I0J2600D01*
G37*
G74*
*
G75*
G36*
G01*
Y412400D02*
G03*
X205000I0J2600D01*
G37*
G74*
*
G75*
G36*
G01*
X210000Y485900D02*
G03*
X210000I0J4100D01*
G37*
G74*
*
G75*
G36*
G01*
X200000Y420900D02*
G03*
X200000I0J4100D01*
G37*
G74*
*
G75*
G36*
G01*
X190000Y297400D02*
G03*
X190000I0J2600D01*
G37*
G74*
*
G75*
G36*
G01*
X179000Y121400D02*
G03*
X179000I0J2600D01*
G37*
G74*
*
G75*
G36*
G01*
X177000Y154400D02*
G03*
X177000I0J2600D01*
G37*
G74*
*
G75*
G36*
G01*
X175000Y172400D02*
G03*
X175000I0J2600D01*
G37*
G74*
*
G75*
G36*
G01*
X180000Y242400D02*
G03*
X180000I0J2600D01*
G37*
G74*
*
G75*
G36*
G01*
X183957Y272376D02*
G03*
X183957I0J2600D01*
G37*
G74*
*
G75*
G36*
G01*
X190000Y315900D02*
G03*
X190000I0J4100D01*
G37*
G74*
*
G75*
G36*
G01*
Y332400D02*
G03*
X190000I0J2600D01*
G37*
G74*
*
G75*
G36*
G01*
X176000Y274900D02*
G03*
X176000I0J4100D01*
G37*
G74*
*
G75*
G36*
G01*
X177323Y307510D02*
G03*
X177323I0J2600D01*
G37*
G74*
*
G75*
G36*
G01*
X180000Y345900D02*
G03*
X180000I0J4100D01*
G37*
G74*
*
G75*
G36*
G01*
X188000Y356900D02*
G03*
X188000I0J4100D01*
G37*
G74*
*
G75*
G36*
G01*
X185000Y387400D02*
G03*
X185000I0J2600D01*
G37*
G74*
*
G75*
G36*
G01*
X190000Y412400D02*
G03*
X190000I0J2600D01*
G37*
G74*
*
G75*
G36*
G01*
X185000Y420900D02*
G03*
X185000I0J4100D01*
G37*
G74*
*
G75*
G36*
G01*
Y437400D02*
G03*
X185000I0J2600D01*
G37*
G74*
*
G75*
G36*
G01*
X189000Y451400D02*
G03*
X189000I0J2600D01*
G37*
G74*
*
G75*
G36*
G01*
X190000Y457400D02*
G03*
X190000I0J2600D01*
G37*
G74*
*
G75*
G36*
G01*
X195000Y485900D02*
G03*
X195000I0J4100D01*
G37*
G74*
*
G75*
G36*
G01*
X166000Y108000D02*
G03*
X166000I0J4000D01*
G37*
G74*
*
G75*
G36*
G01*
X155000Y109400D02*
G03*
X155000I0J2600D01*
G37*
G74*
*
G75*
G36*
G01*
Y126400D02*
G03*
X155000I0J2600D01*
G37*
G74*
*
G75*
G36*
G01*
X159000Y141400D02*
G03*
X159000I0J2600D01*
G37*
G74*
*
G75*
G36*
G01*
X156000Y154400D02*
G03*
X156000I0J2600D01*
G37*
G74*
*
G75*
G36*
G01*
X160000Y185900D02*
G03*
X160000I0J4100D01*
G37*
G74*
*
G75*
G36*
G01*
Y200900D02*
G03*
X160000I0J4100D01*
G37*
G74*
*
G75*
G36*
G01*
Y215900D02*
G03*
X160000I0J4100D01*
G37*
G74*
*
G75*
G36*
G01*
Y230900D02*
G03*
X160000I0J4100D01*
G37*
G74*
*
G75*
G36*
G01*
X165000Y242400D02*
G03*
X165000I0J2600D01*
G37*
G74*
*
G75*
G36*
G01*
X161000Y274900D02*
G03*
X161000I0J4100D01*
G37*
G74*
*
G75*
G36*
G01*
X165000Y300900D02*
G03*
X165000I0J4100D01*
G37*
G74*
*
G75*
G36*
G01*
Y315900D02*
G03*
X165000I0J4100D01*
G37*
G74*
*
G75*
G36*
G01*
X170000Y332400D02*
G03*
X170000I0J2600D01*
G37*
G74*
*
G75*
G36*
G01*
X172000Y357900D02*
G03*
X172000I0J4100D01*
G37*
G74*
*
G75*
G36*
G01*
X175000Y412400D02*
G03*
X175000I0J2600D01*
G37*
G74*
*
G75*
G36*
G01*
X180000Y485900D02*
G03*
X180000I0J4100D01*
G37*
G74*
*
G75*
G36*
G01*
X170000Y420900D02*
G03*
X170000I0J4100D01*
G37*
G74*
*
G75*
G36*
G01*
X172000Y439400D02*
G03*
X172000I0J2600D01*
G37*
G74*
*
G75*
G36*
G01*
X166000Y454400D02*
G03*
X166000I0J2600D01*
G37*
G74*
*
G75*
G36*
G01*
X158000Y285400D02*
G03*
X158000I0J2600D01*
G37*
G74*
*
G75*
G36*
G01*
Y293400D02*
G03*
X158000I0J2600D01*
G37*
G74*
*
G75*
G36*
G01*
X153000Y337400D02*
G03*
X153000I0J2600D01*
G37*
G74*
*
G75*
G36*
G01*
X155000Y347400D02*
G03*
X155000I0J2600D01*
G37*
G74*
*
G75*
G36*
G01*
X160000Y387400D02*
G03*
X160000I0J2600D01*
G37*
G74*
*
G75*
G36*
G01*
Y412400D02*
G03*
X160000I0J2600D01*
G37*
G74*
*
G75*
G36*
G01*
X165000Y460900D02*
G03*
X165000I0J4100D01*
G37*
G74*
*
G75*
G36*
G01*
Y485900D02*
G03*
X165000I0J4100D01*
G37*
G74*
*
G75*
G36*
G01*
X152000Y360400D02*
G03*
X152000I0J2600D01*
G37*
G74*
*
G75*
G36*
G01*
X155000Y420900D02*
G03*
X155000I0J4100D01*
G37*
G74*
*
G75*
G36*
G01*
Y437400D02*
G03*
X155000I0J2600D01*
G37*
G74*
*
G75*
G36*
G01*
Y470900D02*
G03*
X155000I0J4100D01*
G37*
G74*
*
G75*
G36*
G01*
X144000Y108000D02*
G03*
X144000I0J4000D01*
G37*
G74*
*
G75*
G36*
G01*
X133000Y131400D02*
G03*
X133000I0J2600D01*
G37*
G74*
*
G75*
G36*
G01*
X140000Y163500D02*
G03*
X140000I0J6500D01*
G37*
G74*
*
G75*
G36*
G01*
X120000D02*
G03*
X120000I0J6500D01*
G37*
G74*
*
G75*
G36*
G01*
X130000Y175250D02*
G03*
X130000I0J4750D01*
G37*
G74*
*
G75*
G36*
G01*
X140000Y183500D02*
G03*
X140000I0J6500D01*
G37*
G74*
*
G75*
G36*
G01*
X145000Y215900D02*
G03*
X145000I0J4100D01*
G37*
G74*
*
G75*
G36*
G01*
Y230900D02*
G03*
X145000I0J4100D01*
G37*
G74*
*
G75*
G36*
G01*
Y242400D02*
G03*
X145000I0J2600D01*
G37*
G74*
*
G75*
G36*
G01*
X110000Y175900D02*
G03*
X110000I0J4100D01*
G37*
G74*
*
G75*
G36*
G01*
X120000Y183500D02*
G03*
X120000I0J6500D01*
G37*
G74*
*
G75*
G36*
G01*
X130000Y195900D02*
G03*
X130000I0J4100D01*
G37*
G74*
*
G75*
G36*
G01*
Y215900D02*
G03*
X130000I0J4100D01*
G37*
G74*
*
G75*
G36*
G01*
Y230900D02*
G03*
X130000I0J4100D01*
G37*
G74*
*
G75*
G36*
G01*
Y242400D02*
G03*
X130000I0J2600D01*
G37*
G74*
*
G75*
G36*
G01*
X133000Y278900D02*
G03*
X133000I0J4100D01*
G37*
G74*
*
G75*
G36*
G01*
X138177Y304549D02*
G03*
X138177I0J2600D01*
G37*
G74*
*
G75*
G36*
G01*
X138101Y310234D02*
G03*
X138101I-0J2600D01*
G37*
G74*
*
G75*
G36*
G01*
X138254Y315765D02*
G03*
X138254I0J2600D01*
G37*
G74*
*
G75*
G36*
G01*
X133000Y335400D02*
G03*
X133000I0J2600D01*
G37*
G74*
*
G75*
G36*
G01*
X136000Y359400D02*
G03*
X136000I0J2600D01*
G37*
G74*
*
G75*
G36*
G01*
X142000Y375900D02*
G03*
X142000I0J4100D01*
G37*
G74*
*
G75*
G36*
G01*
X145000Y410900D02*
G03*
X145000I0J4100D01*
G37*
G74*
*
G75*
G36*
G01*
X140000Y420900D02*
G03*
X140000I0J4100D01*
G37*
G74*
*
G75*
G36*
G01*
X130000Y357400D02*
G03*
X130000I0J2600D01*
G37*
G74*
*
G75*
G36*
G01*
Y370900D02*
G03*
X130000I0J4100D01*
G37*
G74*
*
G75*
G36*
G01*
Y385900D02*
G03*
X130000I0J4100D01*
G37*
G74*
*
G75*
G36*
G01*
Y400900D02*
G03*
X130000I0J4100D01*
G37*
G74*
*
G75*
G36*
G01*
Y410900D02*
G03*
X130000I0J4100D01*
G37*
G74*
*
G75*
G36*
G01*
X140000Y433500D02*
G03*
X140000I0J6500D01*
G37*
G74*
*
G75*
G36*
G01*
X120000Y220900D02*
G03*
X120000I0J4100D01*
G37*
G74*
*
G75*
G36*
G01*
X125000Y420900D02*
G03*
X125000I0J4100D01*
G37*
G74*
*
G75*
G36*
G01*
X110000Y210900D02*
G03*
X110000I0J4100D01*
G37*
G74*
*
G75*
G36*
G01*
Y225900D02*
G03*
X110000I0J4100D01*
G37*
G74*
*
G75*
G36*
G01*
Y240900D02*
G03*
X110000I0J4100D01*
G37*
G74*
*
G75*
G36*
G01*
Y250900D02*
G03*
X110000I0J4100D01*
G37*
G74*
*
G75*
G36*
G01*
Y265900D02*
G03*
X110000I0J4100D01*
G37*
G74*
*
G75*
G36*
G01*
Y280900D02*
G03*
X110000I0J4100D01*
G37*
G74*
*
G75*
G36*
G01*
Y297400D02*
G03*
X110000I0J2600D01*
G37*
G74*
*
G75*
G36*
G01*
Y310900D02*
G03*
X110000I0J4100D01*
G37*
G74*
*
G75*
G36*
G01*
Y325900D02*
G03*
X110000I0J4100D01*
G37*
G74*
*
G75*
G36*
G01*
Y343100D02*
G03*
X110000I0J2400D01*
G37*
G74*
*
G75*
G36*
G01*
Y358100D02*
G03*
X110000I0J2400D01*
G37*
G74*
*
G75*
G36*
G01*
Y373100D02*
G03*
X110000I0J2400D01*
G37*
G74*
*
G75*
G36*
G01*
Y388100D02*
G03*
X110000I0J2400D01*
G37*
G74*
*
G75*
G36*
G01*
Y405600D02*
G03*
X110000I0J2400D01*
G37*
G74*
*
G75*
G36*
G01*
Y420900D02*
G03*
X110000I0J4100D01*
G37*
G74*
*
G75*
G36*
G01*
X120000Y433500D02*
G03*
X120000I0J6500D01*
G37*
G74*
*
G75*
G36*
G01*
X130000Y445250D02*
G03*
X130000I0J4750D01*
G37*
G74*
*
G75*
G36*
G01*
X140000Y453500D02*
G03*
X140000I0J6500D01*
G37*
G74*
*
G75*
G36*
G01*
X150000Y485900D02*
G03*
X150000I0J4100D01*
G37*
G74*
*
G75*
G36*
G01*
X135000D02*
G03*
X135000I0J4100D01*
G37*
G74*
*
G75*
G36*
G01*
X110000Y440900D02*
G03*
X110000I0J4100D01*
G37*
G74*
*
G75*
G36*
G01*
X120000Y453500D02*
G03*
X120000I0J6500D01*
G37*
G74*
*
*
G04 PC Area=ANP001555*
G75*
G36*
G01*
X620000Y106000D02*
G03*
X620000I0J4000D01*
G37*
G74*
*
G75*
G36*
G01*
Y116000D02*
G03*
X620000I0J4000D01*
G37*
G74*
*
G75*
G36*
G01*
X626000Y133600D02*
G03*
X626000I0J2400D01*
G37*
G74*
*
G75*
G36*
G01*
X625000Y146000D02*
G03*
X625000I0J4000D01*
G37*
G74*
*
G75*
G36*
G01*
Y156000D02*
G03*
X625000I0J4000D01*
G37*
G74*
*
G75*
G36*
G01*
Y166000D02*
G03*
X625000I0J4000D01*
G37*
G74*
*
G75*
G36*
G01*
X625500Y182000D02*
G03*
X625500I0J2000D01*
G37*
G74*
*
G75*
G36*
G01*
X625000Y197100D02*
G03*
X625000I0J2400D01*
G37*
G74*
*
G75*
G36*
G01*
X627156Y227994D02*
G02*
X625107Y225354I-156J-1994D01*
X627156Y227994I-337J2376D01*
G37*
G74*
*
G75*
G36*
G01*
X626498Y237407D02*
G02*
X627083Y233892I-604J-1907D01*
X623993Y234879I-2083J-1192D01*
X623896Y235593I1901J621D01*
X626498Y237407I604J1907D01*
G37*
G74*
*
G75*
G36*
G01*
X625172Y240801D02*
G03*
X625172I-0J2400D01*
G37*
G74*
*
G75*
G36*
G01*
X629000Y288500D02*
G03*
X629000I0J2000D01*
G37*
G74*
*
G75*
G36*
G01*
X624500Y246000D02*
G03*
X624500I0J2000D01*
G37*
G74*
*
G75*
G36*
G01*
Y268500D02*
G03*
X624500I0J2000D01*
G37*
G74*
*
G75*
G36*
G01*
X625000Y304100D02*
G03*
X625000I0J2400D01*
G37*
G74*
*
G75*
G36*
G01*
X617511Y199688D02*
G03*
X617511I-0J2400D01*
G37*
G74*
*
G75*
G36*
G01*
X610000Y106000D02*
G03*
X610000I0J4000D01*
G37*
G74*
*
G75*
G36*
G01*
Y116000D02*
G03*
X610000I0J4000D01*
G37*
G74*
*
G75*
G36*
G01*
Y146000D02*
G03*
X610000I0J4000D01*
G37*
G74*
*
G75*
G36*
G01*
Y156000D02*
G03*
X610000I0J4000D01*
G37*
G74*
*
G75*
G36*
G01*
Y166000D02*
G03*
X610000I0J4000D01*
G37*
G74*
*
G75*
G36*
G01*
X613491Y219500D02*
G02*
X613509I9J2000D01*
X613491I-9J-2000D01*
G37*
G74*
*
G75*
G36*
G01*
X600000Y106000D02*
G03*
X600000I0J4000D01*
G37*
G74*
*
G75*
G36*
G01*
Y116000D02*
G03*
X600000I0J4000D01*
G37*
G74*
*
G75*
G36*
G01*
X599613Y167809D02*
G03*
X599613I-0J2600D01*
G37*
G74*
*
G75*
G36*
G01*
X603700Y197100D02*
G02*
Y193900I1200J-1600D01*
X600500Y195491I-1200J1600D01*
Y195509I-2000J9D01*
X603700Y197100I2000J-9D01*
G37*
G74*
*
G75*
G36*
G01*
X609237Y232863D02*
G03*
X609237I0J2400D01*
G37*
G74*
*
G75*
G36*
G01*
X613500Y236000D02*
G03*
X613500I0J2000D01*
G37*
G74*
*
G75*
G36*
G01*
Y241500D02*
G03*
X613500I0J2000D01*
G37*
G74*
*
G75*
G36*
G01*
Y246000D02*
G03*
X613500I0J2000D01*
G37*
G74*
*
G75*
G36*
G01*
Y269000D02*
G03*
X613500I0J2000D01*
G37*
G74*
*
G75*
G36*
G01*
Y276500D02*
G03*
X613500I0J2000D01*
G37*
G74*
*
G75*
G36*
G01*
X604100Y212500D02*
G03*
X604100I0J2000D01*
G37*
G74*
*
G75*
G36*
G01*
X605000Y245600D02*
G03*
X605000I0J2400D01*
G37*
G74*
*
G75*
G36*
G01*
X607500Y253100D02*
G03*
X607500I0J2400D01*
G37*
G74*
*
G75*
G36*
G01*
X590000Y106000D02*
G03*
X590000I0J4000D01*
G37*
G74*
*
G75*
G36*
G01*
Y116000D02*
G03*
X590000I0J4000D01*
G37*
G74*
*
G75*
G36*
G01*
X594000Y207000D02*
G03*
X594000I0J2000D01*
G37*
G74*
*
G75*
G36*
G01*
X597000Y210000D02*
G03*
X597000I0J2000D01*
G37*
G74*
*
G75*
G36*
G01*
X600000Y222600D02*
G03*
X600000I0J2400D01*
G37*
G74*
*
G75*
G36*
G01*
X596000Y236500D02*
G03*
X596000I0J2000D01*
G37*
G74*
*
G75*
G36*
G01*
X598000Y271500D02*
G03*
X598000I0J2000D01*
G37*
G74*
*
G75*
G36*
G01*
X601699Y301600D02*
G02*
X602498Y300097I1998J97D01*
X601340Y298185I-1998J-97D01*
X601100Y296200I-1840J-785D01*
X597900I-1600J-1200D01*
X598660Y299215I1600J1200D01*
X601699Y301600I1840J785D01*
G37*
G74*
*
G75*
G36*
G01*
X601500Y325100D02*
G03*
X601500I0J2400D01*
G37*
G74*
*
G75*
G36*
G01*
X579000Y184000D02*
G03*
X579000I0J2000D01*
G37*
G74*
*
G75*
G36*
G01*
X576200Y196372D02*
G02*
X579600Y194300I1800J-872D01*
X576400I-1600J-1200D01*
X576240Y194551I1600J1200D01*
X576200Y196372I-2240J862D01*
G37*
G74*
*
G75*
G36*
G01*
X580000Y236600D02*
G03*
X580000I0J2400D01*
G37*
G74*
*
G75*
G36*
G01*
X583500Y268000D02*
G03*
X583500I0J2000D01*
G37*
G74*
*
G75*
G36*
G01*
X587000Y280000D02*
G03*
X587000I0J2000D01*
G37*
G74*
*
G75*
G36*
G01*
X593509Y313309D02*
G02*
X594313Y311890I1991J191D01*
X591358Y309161I-2366J-403D01*
X587615Y310567I-1858J739D01*
X588096Y314113I-646J1893D01*
X591962Y313887I1904J-613D01*
X593509Y313309I-15J-2400D01*
G37*
G74*
*
G75*
G36*
G01*
X592500Y322500D02*
G03*
X592500I0J2000D01*
G37*
G74*
*
G75*
G36*
G01*
X567127Y167567D02*
G03*
X567127I0J2600D01*
G37*
G74*
*
G75*
G36*
G01*
X560000Y106000D02*
G03*
X560000I0J4000D01*
G37*
G74*
*
G75*
G36*
G01*
Y116000D02*
G03*
X560000I0J4000D01*
G37*
G74*
*
G75*
G36*
G01*
X566000Y187500D02*
G03*
X566000I0J2000D01*
G37*
G74*
*
G75*
G36*
G01*
X569000Y192600D02*
G03*
X569000I0J2400D01*
G37*
G74*
*
G75*
G36*
G01*
X564200Y193013D02*
G03*
X564200I0J2400D01*
G37*
G74*
*
G75*
G36*
G01*
X571000Y206509D02*
G02*
Y206491I2000J-9D01*
X567140Y205764I-2000J9D01*
X565685Y208993I-2204J949D01*
X566446Y208578I1315J1507D01*
X567227Y207426I-1510J-1865D01*
X571000Y206509I1773J-926D01*
G37*
G74*
*
G75*
G36*
G01*
Y266500D02*
G03*
X571000I0J2000D01*
G37*
G74*
*
G75*
G36*
G01*
X566500Y216000D02*
G03*
X566500I0J2000D01*
G37*
G74*
*
G75*
G36*
G01*
X570500Y280500D02*
G03*
X570500I0J2000D01*
G37*
G74*
*
G75*
G36*
G01*
X573000Y285000D02*
G03*
X573000I0J2000D01*
G37*
G74*
*
G75*
G36*
G01*
X574500Y289500D02*
G03*
X574500I0J2000D01*
G37*
G74*
*
G75*
G36*
G01*
X576500Y295500D02*
G03*
X576500I0J2000D01*
G37*
G74*
*
G75*
G36*
G01*
X580500Y322500D02*
G03*
X580500I0J2000D01*
G37*
G74*
*
G75*
G36*
G01*
X580000Y327600D02*
G03*
X580000I0J2400D01*
G37*
G74*
*
G75*
G36*
G01*
X558600Y193500D02*
G03*
X558600I0J2000D01*
G37*
G74*
*
G75*
G36*
G01*
X558000Y205500D02*
G03*
X558000I0J2000D01*
G37*
G74*
*
G75*
G36*
G01*
X562000Y286100D02*
G03*
X562000I0J2000D01*
G37*
G74*
*
G75*
G36*
G01*
X564000Y294500D02*
G03*
X564000I0J2000D01*
G37*
G74*
*
G75*
G36*
G01*
X568000Y303000D02*
G03*
X568000I0J2000D01*
G37*
G74*
*
G75*
G36*
G01*
X571400Y322500D02*
G03*
X571400I0J2000D01*
G37*
G74*
*
G75*
G36*
G01*
X550000Y106000D02*
G03*
X550000I0J4000D01*
G37*
G74*
*
G75*
G36*
G01*
Y116000D02*
G03*
X550000I0J4000D01*
G37*
G74*
*
G75*
G36*
G01*
X553040Y167581D02*
G03*
X553040I-0J2600D01*
G37*
G74*
*
G75*
G36*
G01*
X549000Y193500D02*
G03*
X549000I0J2000D01*
G37*
G74*
*
G75*
G36*
G01*
X552907Y209104D02*
G02*
X551093Y206502I93J-1998D01*
X552907Y209104I-93J1998D01*
G37*
G74*
*
G75*
G36*
G01*
X554133Y261396D02*
G02*
X556367Y258604I2367J-396D01*
X551600Y258959I-2367J396D01*
X553479Y261343I-521J2343D01*
X554133Y261396I521J-2343D01*
G37*
G74*
*
G75*
G36*
G01*
X556500Y271000D02*
G03*
X556500I0J2000D01*
G37*
G74*
*
G75*
G36*
G01*
X540000Y106000D02*
G03*
X540000I0J4000D01*
G37*
G74*
*
G75*
G36*
G01*
Y116000D02*
G03*
X540000I0J4000D01*
G37*
G74*
*
G75*
G36*
G01*
X542203Y194335D02*
G02*
X541054Y192962I797J-1835D01*
X542203Y194335I-1132J2116D01*
G37*
G74*
*
G75*
G36*
G01*
X545000Y204500D02*
G03*
X545000I0J2000D01*
G37*
G74*
*
G75*
G36*
G01*
X543000Y210000D02*
G03*
X543000I0J2000D01*
G37*
G74*
*
G75*
G36*
G01*
X543380Y257819D02*
G02*
X541831Y256528I620J-2319D01*
X543380Y257819I-331J1972D01*
G37*
G74*
*
G75*
G36*
G01*
X548000Y268000D02*
G03*
X548000I0J2000D01*
G37*
G74*
*
G75*
G36*
G01*
X549000Y272000D02*
G03*
X549000I0J2000D01*
G37*
G74*
*
G75*
G36*
G01*
X551261Y295399D02*
G03*
X551261I0J2400D01*
G37*
G74*
*
G75*
G36*
G01*
X556472Y305748D02*
G02*
X556928Y302599I1428J-1401D01*
X556472Y305748I-1428J1401D01*
G37*
G74*
*
G75*
G36*
G01*
X561500Y305000D02*
G03*
X561500I0J2000D01*
G37*
G74*
*
G75*
G36*
G01*
X556113Y309961D02*
G03*
X556113I-0J2400D01*
G37*
G74*
*
G75*
G36*
G01*
X559000Y322500D02*
G03*
X559000I0J2000D01*
G37*
G74*
*
G75*
G36*
G01*
X553500Y327000D02*
G03*
X553500I0J2000D01*
G37*
G74*
*
G75*
G36*
G01*
X548768Y307065D02*
G02*
X546821Y303688I-1361J-1465D01*
X545586Y306427I-1821J827D01*
X545639Y306535I1821J-827D01*
X548768Y307065I1361J1465D01*
G37*
G74*
*
G75*
G36*
G01*
X549499Y326937D02*
G02*
X547001Y325063I-499J-1937D01*
X549499Y326937I499J1937D01*
G37*
G74*
*
G75*
G36*
G01*
X542500Y308500D02*
G03*
X542500I0J2000D01*
G37*
G74*
*
G75*
G36*
G01*
X530000Y106000D02*
G03*
X530000I0J4000D01*
G37*
G74*
*
G75*
G36*
G01*
Y116000D02*
G03*
X530000I0J4000D01*
G37*
G74*
*
G75*
G36*
G01*
X531462Y167515D02*
G03*
X531462I0J2600D01*
G37*
G74*
*
G75*
G36*
G01*
X533100Y193500D02*
G03*
X533100I0J2000D01*
G37*
G74*
*
G75*
G36*
G01*
X520000Y106000D02*
G03*
X520000I0J4000D01*
G37*
G74*
*
G75*
G36*
G01*
Y116000D02*
G03*
X520000I0J4000D01*
G37*
G74*
*
G75*
G36*
G01*
X518002Y167449D02*
G03*
X518002I-0J2600D01*
G37*
G74*
*
G75*
G36*
G01*
X525509Y195313D02*
G02*
X525991Y194187I1991J187D01*
X522364Y192849I-1991J-187D01*
X523509Y195939I-1064J2151D01*
X525509Y195313I491J-1939D01*
G37*
G74*
*
G75*
G36*
G01*
X531500Y206300D02*
G03*
X531500I0J2400D01*
G37*
G74*
*
G75*
G36*
G01*
X531000Y237100D02*
G03*
X531000I0J2400D01*
G37*
G74*
*
G75*
G36*
G01*
X532500Y265000D02*
G03*
X532500I0J2000D01*
G37*
G74*
*
G75*
G36*
G01*
X535200Y314372D02*
G02*
Y312628I1800J-872D01*
Y314372I-1800J872D01*
G37*
G74*
*
G75*
G36*
G01*
X538531Y326214D02*
G02*
X535969Y325786I-1031J-1714D01*
X538531Y326214I1031J1714D01*
G37*
G74*
*
G75*
G36*
G01*
X539500Y330500D02*
G03*
X539500I0J2000D01*
G37*
G74*
*
G75*
G36*
G01*
X524671Y207810D02*
G02*
X527573Y207646I1529J1290D01*
X524671Y207810I-1529J-1290D01*
G37*
G74*
*
G75*
G36*
G01*
X530000Y322500D02*
G03*
X530000I0J2000D01*
G37*
G74*
*
G75*
G36*
G01*
X532900Y331872D02*
G02*
Y330128I1800J-872D01*
Y331872I-1800J872D01*
G37*
G74*
*
G75*
G36*
G01*
X510000Y106000D02*
G03*
X510000I0J4000D01*
G37*
G74*
*
G75*
G36*
G01*
Y116000D02*
G03*
X510000I0J4000D01*
G37*
G74*
*
G75*
G36*
G01*
X511362Y147355D02*
G03*
X511362I0J2601D01*
G37*
G74*
*
G75*
G36*
G01*
X512800Y193013D02*
G03*
X512800I0J2400D01*
G37*
G74*
*
G75*
G36*
G01*
X520499Y208437D02*
G02*
X518500Y205177I-499J-1937D01*
X516501Y208437I-1500J1323D01*
X520499I1999J63D01*
G37*
G74*
*
G75*
G36*
G01*
X522800Y322500D02*
G03*
X522800I0J2000D01*
G37*
G74*
*
G75*
G36*
G01*
X523400Y328600D02*
G03*
X523400I0J2400D01*
G37*
G74*
*
G75*
G36*
G01*
X517500Y210500D02*
G03*
X517500I0J2000D01*
G37*
G74*
*
G75*
G36*
G01*
X513897Y232384D02*
G02*
X511225Y230116I-274J-2384D01*
X512006Y234846I275J2384D01*
X513846Y233006I1994J154D01*
X513897Y232384I-2346J-506D01*
G37*
G74*
*
G75*
G36*
G01*
X515000Y242500D02*
G03*
X515000I0J2000D01*
G37*
G74*
*
G75*
G36*
G01*
X514000Y263119D02*
G03*
X514000I0J2000D01*
G37*
G74*
*
G75*
G36*
G01*
Y311500D02*
G03*
X514000I0J2000D01*
G37*
G74*
*
G75*
G36*
G01*
X516200Y325372D02*
G02*
Y323628I1800J-872D01*
Y325372I-1800J872D01*
G37*
G74*
*
G75*
G36*
G01*
X517000Y328500D02*
G03*
X517000I0J2000D01*
G37*
G74*
*
G75*
G36*
G01*
X507594Y253325D02*
G02*
X505852Y253108I-594J-2325D01*
X507594Y253325I648J1892D01*
G37*
G74*
*
G75*
G36*
G01*
X506500Y260500D02*
G03*
X506500I0J2000D01*
G37*
G74*
*
G75*
G36*
G01*
X508404Y267700D02*
G03*
X508404I-0J2400D01*
G37*
G74*
*
G75*
G36*
G01*
X507678Y291716D02*
G02*
X507966Y288740I1466J-1360D01*
X507678Y291716I-1466J1360D01*
G37*
G74*
*
G75*
G36*
G01*
X505628Y296700D02*
G02*
X507372I872J1800D01*
X505628I-872J-1800D01*
G37*
G74*
*
G75*
G36*
G01*
X506800Y301300D02*
G03*
X506800I0J2400D01*
G37*
G74*
*
G75*
G36*
G01*
X506500Y317000D02*
G03*
X506500I0J2000D01*
G37*
G74*
*
G75*
G36*
G01*
X500000Y106000D02*
G03*
X500000I0J4000D01*
G37*
G74*
*
G75*
G36*
G01*
Y116000D02*
G03*
X500000I0J4000D01*
G37*
G74*
*
G75*
G36*
G01*
X498165Y147411D02*
G03*
X498165I-0J2600D01*
G37*
G74*
*
G75*
G36*
G01*
X490000Y106000D02*
G03*
X490000I0J4000D01*
G37*
G74*
*
G75*
G36*
G01*
Y116000D02*
G03*
X490000I0J4000D01*
G37*
G74*
*
G75*
G36*
G01*
X496508Y167567D02*
G03*
X496508I-0J2600D01*
G37*
G74*
*
G75*
G36*
G01*
X495000Y211100D02*
G03*
X495000I0J2400D01*
G37*
G74*
*
G75*
G36*
G01*
X494000Y223000D02*
G03*
X494000I0J2000D01*
G37*
G74*
*
G75*
G36*
G01*
X493500Y229000D02*
G03*
X493500I0J2000D01*
G37*
G74*
*
G75*
G36*
G01*
X495500Y235500D02*
G03*
X495500I0J2000D01*
G37*
G74*
*
G75*
G36*
G01*
X493088Y250780D02*
G02*
X494912I912J2220D01*
X493088I-912J-1780D01*
G37*
G74*
*
G75*
G36*
G01*
X493400Y272700D02*
G02*
X496600I1600J1200D01*
X493400I-1600J-1200D01*
G37*
G74*
*
G75*
G36*
G01*
X495000Y277900D02*
G03*
X495000I0J2000D01*
G37*
G74*
*
G75*
G36*
G01*
X490604Y272196D02*
G03*
X490604I0J2000D01*
G37*
G74*
*
G75*
G36*
G01*
X494000Y287500D02*
G03*
X494000I0J2000D01*
G37*
G74*
*
G75*
G36*
G01*
X495100Y311700D02*
G03*
X495100I0J2400D01*
G37*
G74*
*
G75*
G36*
G01*
X480000Y106000D02*
G03*
X480000I0J4000D01*
G37*
G74*
*
G75*
G36*
G01*
Y116000D02*
G03*
X480000I0J4000D01*
G37*
G74*
*
G75*
G36*
G01*
X483275Y167487D02*
G03*
X483275I-0J2600D01*
G37*
G74*
*
G75*
G36*
G01*
X470000Y106000D02*
G03*
X470000I0J4000D01*
G37*
G74*
*
G75*
G36*
G01*
Y116000D02*
G03*
X470000I0J4000D01*
G37*
G74*
*
G75*
G36*
G01*
Y136000D02*
G03*
X470000I0J4000D01*
G37*
G74*
*
G75*
G36*
G01*
X473374Y164523D02*
G03*
X473374I-0J2600D01*
G37*
G74*
*
G75*
G36*
G01*
X475000Y178600D02*
G03*
X475000I0J2400D01*
G37*
G74*
*
G75*
G36*
G01*
X460000Y106000D02*
G03*
X460000I0J4000D01*
G37*
G74*
*
G75*
G36*
G01*
Y116000D02*
G03*
X460000I0J4000D01*
G37*
G74*
*
G75*
G36*
G01*
X465925Y172547D02*
G03*
X465925I0J2600D01*
G37*
G74*
*
G75*
G36*
G01*
X470816Y221691D02*
G03*
X470816I0J2600D01*
G37*
G74*
*
G75*
G36*
G01*
X472500Y240600D02*
G03*
X472500I0J2400D01*
G37*
G74*
*
G75*
G36*
G01*
X477000Y244788D02*
G03*
X477000I0J2400D01*
G37*
G74*
*
G75*
G36*
G01*
X472500Y263500D02*
G03*
X472500I0J2000D01*
G37*
G74*
*
G75*
G36*
G01*
X476000Y302100D02*
G03*
X476000I0J2400D01*
G37*
G74*
*
G75*
G36*
G01*
X478500Y320000D02*
G03*
X478500I0J2000D01*
G37*
G74*
*
G75*
G36*
G01*
X467500Y285000D02*
G03*
X467500I0J2000D01*
G37*
G74*
*
G75*
G36*
G01*
X471500Y322000D02*
G03*
X471500I0J2000D01*
G37*
G74*
*
G75*
G36*
G01*
X460000Y152400D02*
G03*
X460000I0J2600D01*
G37*
G74*
*
G75*
G36*
G01*
X462000Y226000D02*
G03*
X462000I0J2000D01*
G37*
G74*
*
G75*
G36*
G01*
X450000Y106000D02*
G03*
X450000I0J4000D01*
G37*
G74*
*
G75*
G36*
G01*
Y116000D02*
G03*
X450000I0J4000D01*
G37*
G74*
*
G75*
G36*
G01*
Y136000D02*
G03*
X450000I0J4000D01*
G37*
G74*
*
G75*
G36*
G01*
X448500Y177600D02*
G03*
X448500I0J2400D01*
G37*
G74*
*
G75*
G36*
G01*
X440000Y106000D02*
G03*
X440000I0J4000D01*
G37*
G74*
*
G75*
G36*
G01*
Y116000D02*
G03*
X440000I0J4000D01*
G37*
G74*
*
G75*
G36*
G01*
Y154000D02*
G03*
X440000I0J2000D01*
G37*
G74*
*
G75*
G36*
G01*
Y159000D02*
G03*
X440000I0J2000D01*
G37*
G74*
*
G75*
G36*
G01*
Y182500D02*
G02*
X438000Y180500I0J-2000D01*
X440000Y182500I0J2000D01*
G37*
G74*
*
G75*
G36*
G01*
X430000Y106000D02*
G03*
X430000I0J4000D01*
G37*
G74*
*
G75*
G36*
G01*
Y116000D02*
G03*
X430000I0J4000D01*
G37*
G74*
*
G75*
G36*
G01*
X426116Y181268D02*
G03*
X426116I-0J2600D01*
G37*
G74*
*
G75*
G36*
G01*
X416500Y178000D02*
G03*
X416500I0J2000D01*
G37*
G74*
*
G75*
G36*
G01*
X397000Y158000D02*
G03*
X397000I0J2000D01*
G37*
G74*
*
G75*
G36*
G01*
X383500Y163000D02*
G03*
X383500I0J2000D01*
G37*
G74*
*
G75*
G36*
G01*
X383100Y172600D02*
G03*
X383100I0J2400D01*
G37*
G74*
*
G75*
G36*
G01*
X376000Y132600D02*
G03*
X376000I0J2400D01*
G37*
G74*
*
G75*
G36*
G01*
X380000Y183100D02*
G03*
X380000I0J2400D01*
G37*
G74*
*
G75*
G36*
G01*
X508411Y228911D02*
G02*
X508083Y225223I589J-1911D01*
X507417Y225777I-1583J-1223D01*
X507089Y227589I1583J1223D01*
X508411Y228911I-589J1911D01*
G37*
G74*
*
G75*
G36*
G01*
X570000Y106000D02*
G03*
X570000I0J4000D01*
G37*
G74*
*
G75*
G36*
G01*
Y116000D02*
G03*
X570000I0J4000D01*
G37*
G74*
*
G75*
G36*
G01*
X582525Y278070D02*
G02*
X581975Y278000I-25J-2000D01*
X582525Y278070I25J2000D01*
G37*
G74*
*
G75*
G36*
G01*
X583500Y287700D02*
G03*
X583500I0J2000D01*
G37*
G74*
*
G75*
G36*
G01*
X584300Y297057D02*
G03*
X584300I0J2400D01*
G37*
G74*
*
G75*
G36*
G01*
X589500Y262500D02*
G03*
X589500I0J2000D01*
G37*
G74*
*
G75*
G36*
G01*
X580000Y106000D02*
G03*
X580000I0J4000D01*
G37*
G74*
*
G75*
G36*
G01*
Y116000D02*
G03*
X580000I0J4000D01*
G37*
G74*
*
G75*
G36*
G01*
X586500Y195509D02*
G02*
Y195491I2000J-9D01*
Y195509I-2000J9D01*
G37*
G74*
*
G75*
G36*
G01*
Y204500D02*
G03*
X586500I0J2000D01*
G37*
G74*
*
G75*
G36*
G01*
X590038Y221446D02*
G02*
X588665Y220297I462J-1946D01*
X590038Y221446I-743J2281D01*
G37*
G74*
*
G75*
G36*
G01*
X595116Y287322D02*
G02*
X592421Y286816I-1078J-1684D01*
X595116Y287322I1079J1684D01*
G37*
G74*
*
G75*
G36*
G01*
X595500Y294000D02*
G03*
X595500I0J2000D01*
G37*
G74*
*
*
G04 PC Area=ANP002661*
G75*
G36*
G01*
X447500Y210000D02*
G03*
X447500I0J2000D01*
G37*
G74*
*
G75*
G36*
G01*
X441500Y233500D02*
G03*
X441500I0J2000D01*
G37*
G74*
*
G75*
G36*
G01*
X444500Y257000D02*
G03*
X444500I0J2000D01*
G37*
G74*
*
G75*
G36*
G01*
X447219Y411981D02*
G03*
X447219I0J2600D01*
G37*
G74*
*
G75*
G36*
G01*
X447394Y428973D02*
G03*
X447394I0J2600D01*
G37*
G74*
*
G75*
G36*
G01*
X442500Y268500D02*
G03*
X442500I0J2000D01*
G37*
G74*
*
G75*
G36*
G01*
X446979Y455391D02*
G03*
X446979I0J2600D01*
G37*
G74*
*
G75*
G36*
G01*
X447226Y487107D02*
G03*
X447226I0J2600D01*
G37*
G74*
*
G75*
G36*
G01*
X441210Y292354D02*
G02*
X442950Y292306I920J1776D01*
X441210Y292354I-920J-1776D01*
G37*
G74*
*
G75*
G36*
G01*
X442030Y300030D02*
G03*
X442030I0J2000D01*
G37*
G74*
*
G75*
G36*
G01*
X436500Y271000D02*
G03*
X436500I0J2000D01*
G37*
G74*
*
G75*
G36*
G01*
X428500Y233000D02*
G03*
X428500I0J2000D01*
G37*
G74*
*
G75*
G36*
G01*
X427500Y245500D02*
G03*
X427500I0J2000D01*
G37*
G74*
*
G75*
G36*
G01*
X429500Y270500D02*
G03*
X429500I0J2000D01*
G37*
G74*
*
G75*
G36*
G01*
X433500Y286000D02*
G03*
X433500I0J2000D01*
G37*
G74*
*
G75*
G36*
G01*
X431500Y296009D02*
G02*
Y295991I2000J-9D01*
X429509Y294000I-2000J9D01*
X429491I-9J-2000D01*
X427500Y295991I9J2000D01*
Y296009I-2000J9D01*
X431500I2000J-9D01*
G37*
G74*
*
G75*
G36*
G01*
X430500Y300509D02*
G02*
Y300491I2000J-9D01*
X426750Y299532I-2000J9D01*
Y301468I-1750J968D01*
X428687Y302491I1750J-968D01*
X429813Y302009I1313J1509D01*
X430500Y300509I-1313J-1509D01*
G37*
G74*
*
G75*
G36*
G01*
X439363Y308856D02*
G02*
X439305Y307032I1750J-969D01*
X437805Y306016I-1750J968D01*
X436250Y306484I-1305J-1516D01*
X439363Y308856I1305J1516D01*
G37*
G74*
*
G75*
G36*
G01*
X441500Y310000D02*
G03*
X441500I0J2000D01*
G37*
G74*
*
G75*
G36*
G01*
X441846Y314500D02*
G03*
X441846I-0J2000D01*
G37*
G74*
*
G75*
G36*
G01*
X442030Y326500D02*
G03*
X442030I0J2000D01*
G37*
G74*
*
G75*
G36*
G01*
X437000Y322500D02*
G03*
X437000I0J2000D01*
G37*
G74*
*
G75*
G36*
G01*
X439000Y330600D02*
G03*
X439000I0J2400D01*
G37*
G74*
*
G75*
G36*
G01*
X440000Y338100D02*
G03*
X440000I0J2400D01*
G37*
G74*
*
G75*
G36*
G01*
X434922Y333178D02*
G03*
X434922I-0J2400D01*
G37*
G74*
*
G75*
G36*
G01*
X438500Y344000D02*
G03*
X438500I0J2000D01*
G37*
G74*
*
G75*
G36*
G01*
X437000Y407500D02*
G03*
X437000I0J2000D01*
G37*
G74*
*
G75*
G36*
G01*
X435047Y455393D02*
G03*
X435047I-0J2601D01*
G37*
G74*
*
G75*
G36*
G01*
X425500Y325500D02*
G03*
X425500I0J2000D01*
G37*
G74*
*
G75*
G36*
G01*
X418000Y207000D02*
G03*
X418000I0J2000D01*
G37*
G74*
*
G75*
G36*
G01*
Y213600D02*
G03*
X418000I0J2400D01*
G37*
G74*
*
G75*
G36*
G01*
X409000Y228400D02*
G03*
X409000I0J2600D01*
G37*
G74*
*
G75*
G36*
G01*
X412000Y240600D02*
G03*
X412000I0J2400D01*
G37*
G74*
*
G75*
G36*
G01*
X416000Y243000D02*
G03*
X416000I0J2000D01*
G37*
G74*
*
G75*
G36*
G01*
Y265500D02*
G03*
X416000I0J2000D01*
G37*
G74*
*
G75*
G36*
G01*
X417991Y274500D02*
G02*
X418009I9J2000D01*
X416000Y272491I-9J-2000D01*
X412003Y272400I-2000J9D01*
X409994Y274500I-1998J100D01*
X409991Y278500I6J2000D01*
Y282500I9J2000D01*
X412000Y284509I9J2000D01*
Y284491I2000J-9D01*
X410009Y282500I-2000J9D01*
X411995Y280644I-9J-2000D01*
X411950Y280056I1950J-444D01*
X410009Y278500I-1950J444D01*
X410011Y274500I-9J-2000D01*
X412002Y272600I-6J-2000D01*
X416000Y272509I1998J-100D01*
X417991Y274500I2000J-9D01*
G37*
G74*
*
G75*
G36*
G01*
X415000Y289009D02*
G02*
Y288991I2000J-9D01*
X411000I-2000J9D01*
Y289009I-2000J9D01*
X412032Y290750I2000J-9D01*
X413968I968J1750D01*
X415000Y289009I-968J-1750D01*
G37*
G74*
*
G75*
G36*
G01*
X419000Y308509D02*
G02*
Y308491I2000J-9D01*
X417009Y306500I-2000J9D01*
Y302500I-9J-2000D01*
Y298500I-9J-2000D01*
X416991I-9J-2000D01*
X415000Y300491I9J2000D01*
X411000I-2000J9D01*
Y300509I-2000J9D01*
X412991Y302500I2000J-9D01*
Y306500I9J2000D01*
X415000Y308509I9J2000D01*
X419000I2000J-9D01*
G37*
G74*
*
G75*
G36*
G01*
X418000Y317500D02*
G03*
X418000I0J2000D01*
G37*
G74*
*
G75*
G36*
G01*
X421083Y432453D02*
G03*
X421083I0J4100D01*
G37*
G74*
*
G75*
G36*
G01*
X408922Y302500D02*
G03*
X408922I0J2000D01*
G37*
G74*
*
G75*
G36*
G01*
X405500Y306500D02*
G03*
X405500I0J2000D01*
G37*
G74*
*
G75*
G36*
G01*
X409000Y326500D02*
G03*
X409000I0J2000D01*
G37*
G74*
*
G75*
G36*
G01*
X408500Y467600D02*
G03*
X408500I0J2400D01*
G37*
G74*
*
G75*
G36*
G01*
X397500Y283000D02*
G03*
X397500I0J2000D01*
G37*
G74*
*
G75*
G36*
G01*
X396500Y304009D02*
G02*
Y303991I2000J-9D01*
Y304009I-2000J9D01*
G37*
G74*
*
G75*
G36*
G01*
X389500Y290500D02*
G03*
X389500I0J2000D01*
G37*
G74*
*
G75*
G36*
G01*
X395500Y312509D02*
G02*
Y312491I2000J-9D01*
Y312509I-2000J9D01*
G37*
G74*
*
G75*
G36*
G01*
X382500Y294000D02*
G03*
X382500I0J2000D01*
G37*
G74*
*
G75*
G36*
G01*
X386245Y321754D02*
G03*
X386245I0J2001D01*
G37*
G74*
*
G75*
G36*
G01*
X382500Y325500D02*
G03*
X382500I0J2000D01*
G37*
G74*
*
G75*
G36*
G01*
X383780Y348879D02*
G03*
X383780I-0J2400D01*
G37*
G74*
*
G75*
G36*
G01*
X378784Y294840D02*
G02*
X376815Y294611I-784J-1840D01*
X378784Y294840I784J1841D01*
G37*
G74*
*
G75*
G36*
G01*
X377500Y327100D02*
G03*
X377500I0J2400D01*
G37*
G74*
*
G75*
G36*
G01*
X383000Y376000D02*
G03*
X383000I0J4000D01*
G37*
G74*
*
G75*
G36*
G01*
Y396000D02*
G03*
X383000I0J4000D01*
G37*
G74*
*
G75*
G36*
G01*
X389000Y413000D02*
G03*
X389000I0J2000D01*
G37*
G74*
*
G75*
G36*
G01*
X390000Y426000D02*
G03*
X390000I0J2000D01*
G37*
G74*
*
G75*
G36*
G01*
X383000Y435000D02*
G03*
X383000I0J4000D01*
G37*
G74*
*
G75*
G36*
G01*
Y455000D02*
G03*
X383000I0J4000D01*
G37*
G74*
*
G75*
G36*
G01*
X373000Y367000D02*
G03*
X373000I0J2000D01*
G37*
G74*
*
G75*
G36*
G01*
X388000Y215000D02*
G03*
X388000I0J2000D01*
G37*
G74*
*
G75*
G36*
G01*
X386520Y227721D02*
G02*
X387480Y226279I1980J279D01*
X386520Y227721I-1980J-279D01*
G37*
G74*
*
G75*
G36*
G01*
X377828Y234681D02*
G03*
X377828I0J2600D01*
G37*
G74*
*
G75*
G36*
G01*
X382018Y266482D02*
G03*
X382018I-0J2000D01*
G37*
G74*
*
G75*
G36*
G01*
X400978Y230461D02*
G03*
X400978I-0J2600D01*
G37*
G74*
*
G75*
G36*
G01*
X394500Y209100D02*
G03*
X394500I0J2400D01*
G37*
G74*
*
G75*
G36*
G01*
X395500Y222000D02*
G03*
X395500I0J2000D01*
G37*
G74*
*
G75*
G36*
G01*
X398500Y236000D02*
G03*
X398500I0J2000D01*
G37*
G74*
*
G75*
G36*
G01*
X399286Y278031D02*
G02*
X399714Y275469I1714J-1031D01*
X398351Y274531I-1714J1031D01*
X398575Y270687I-428J-1954D01*
X395500Y268991I-1075J-1687D01*
X392837Y270887I-2000J9D01*
X393671Y274527I1116J1660D01*
X392200Y275628I329J1973D01*
X388450Y276055I-1800J872D01*
X386797Y274522I-1950J445D01*
X384214Y271469I-1297J-1522D01*
X383786Y274031I-1714J1031D01*
X385203Y274978I1714J-1031D01*
X388450Y276945I1297J1522D01*
X392200Y277372I1950J-445D01*
X393608Y278461I1800J-872D01*
X392276Y279580I492J1939D01*
X392324Y281320I-1776J920D01*
X396039Y280892I1776J-920D01*
X398009Y278500I1961J-392D01*
X399286Y278031I-9J-2000D01*
G37*
G74*
*
G75*
G36*
G01*
X402000Y282000D02*
G03*
X402000I0J2000D01*
G37*
G74*
*
G75*
G36*
G01*
X402018Y286482D02*
G03*
X402018I-0J2000D01*
G37*
G74*
*
G75*
G36*
G01*
X404991Y294500D02*
G02*
X405009I9J2000D01*
X404991I-9J-2000D01*
G37*
G74*
*
*
G04 PC Copper Outlines (1)*
G04 Layer Name QS1R_11102006_routed.pc - dark (1)*
%LPD*%
*
*
G04 PC Area=ANP002657*
G75*
G36*
G01*
X395936Y272806D02*
G02*
X397572Y274546I1987J-229D01*
X396000Y276491I428J1954D01*
X394282Y274520I-2000J9D01*
X395936Y272806I-329J-1973D01*
G37*
G74*
*
*
G04 PC Area=ANP002656*
G75*
G36*
G01*
X396000Y276509D02*
G02*
X397991Y278500I2000J-9D01*
X396061Y280008I9J2000D01*
X394492Y278439I-1961J392D01*
X396000Y276509I-492J-1939D01*
G37*
G74*
*
*
G04 PC Area=ANP002658*
G75*
G36*
G01*
X395500Y269009D02*
G02*
X396848Y270891I2000J-9D01*
X395940Y272318I1075J1686D01*
X394615Y270660I-1987J229D01*
X395500Y269009I-1115J-1660D01*
G37*
G74*
*
*
G04 PC Area=ANP002659*
G75*
G36*
G01*
X415000Y304509D02*
G02*
X416991Y306500I2000J-9D01*
X415000Y308491I9J2000D01*
X413009Y306500I-2000J9D01*
X415000Y304509I-9J-2000D01*
G37*
G74*
*
*
G04 PC Area=ANP002660*
G75*
G36*
G01*
X415000Y300509D02*
G02*
X416991Y302500I2000J-9D01*
X415000Y304491I9J2000D01*
X413009Y302500I-2000J9D01*
X415000Y300509I-9J-2000D01*
G37*
G74*
*
*
G04 PC Copper Outlines (2)*
G04 Layer Name QS1R_11102006_routed.pc - dark (2)*
%LPD*%
*
*
G04 PC Area=Custom_Thermal*
*
G04 PC Custom Flashes*
G04 Layer Name QS1R_11102006_routed.pc - flashes*
%LPD*%
*
*
G04 PC Circuitry*
G04 Layer Name QS1R_11102006_routed.pc - circuitry*
%LPD*%
*
G54D10*
G01X624000Y110000D02*
G75*
G03X624000I-4000J0D01*
G01Y120000D02*
G03X624000I-4000J0D01*
G01X628400Y136000D02*
G03X628400I-2400J0D01*
G01X629000Y150000D02*
G03X629000I-4000J0D01*
G01Y160000D02*
G03X629000I-4000J0D01*
G01Y170000D02*
G03X629000I-4000J0D01*
G01X627500Y184000D02*
G03X627500I-2000J0D01*
G01X627400Y199500D02*
G03X627400I-2400J0D01*
G01X627572Y243201D02*
G03X627572I-2400J0D01*
G01X631000Y290500D02*
G03X631000I-2000J0D01*
G01X626500Y248000D02*
G03X626500I-2000J0D01*
G01Y270500D02*
G03X626500I-2000J0D01*
G01X627400Y306500D02*
G03X627400I-2400J0D01*
G01X619911Y202088D02*
G03X619911I-2400J0D01*
G01X614000Y110000D02*
G03X614000I-4000J0D01*
G01Y120000D02*
G03X614000I-4000J0D01*
G01Y150000D02*
G03X614000I-4000J0D01*
G01Y160000D02*
G03X614000I-4000J0D01*
G01Y170000D02*
G03X614000I-4000J0D01*
G01X604000Y110000D02*
G03X604000I-4000J0D01*
G01Y120000D02*
G03X604000I-4000J0D01*
G01X602213Y170409D02*
G03X602213I-2600J0D01*
G01X611637Y235263D02*
G03X611637I-2400J0D01*
G01X615500Y238000D02*
G03X615500I-2000J0D01*
G01Y243500D02*
G03X615500I-2000J0D01*
G01Y248000D02*
G03X615500I-2000J0D01*
G01Y271000D02*
G03X615500I-2000J0D01*
G01Y278500D02*
G03X615500I-2000J0D01*
G01X606100Y214500D02*
G03X606100I-2000J0D01*
G01X607400Y248000D02*
G03X607400I-2400J0D01*
G01X609900Y255500D02*
G03X609900I-2400J0D01*
G01X594000Y110000D02*
G03X594000I-4000J0D01*
G01Y120000D02*
G03X594000I-4000J0D01*
G01X596000Y209000D02*
G03X596000I-2000J0D01*
G01X599000Y212000D02*
G03X599000I-2000J0D01*
G01X602400Y225000D02*
G03X602400I-2400J0D01*
G01X598000Y238500D02*
G03X598000I-2000J0D01*
G01X600000Y273500D02*
G03X600000I-2000J0D01*
G01X603900Y327500D02*
G03X603900I-2400J0D01*
G01X581000Y186000D02*
G03X581000I-2000J0D01*
G01X582400Y239000D02*
G03X582400I-2400J0D01*
G01X585500Y270000D02*
G03X585500I-2000J0D01*
G01X589000Y282000D02*
G03X589000I-2000J0D01*
G01X594500Y324500D02*
G03X594500I-2000J0D01*
G01X569727Y170167D02*
G03X569727I-2600J0D01*
G01X564000Y110000D02*
G03X564000I-4000J0D01*
G01Y120000D02*
G03X564000I-4000J0D01*
G01X568000Y189500D02*
G03X568000I-2000J0D01*
G01X571400Y195000D02*
G03X571400I-2400J0D01*
G01X566600Y195413D02*
G03X566600I-2400J0D01*
G01X573000Y268500D02*
G03X573000I-2000J0D01*
G01X568500Y218000D02*
G03X568500I-2000J0D01*
G01X572500Y282500D02*
G03X572500I-2000J0D01*
G01X575000Y287000D02*
G03X575000I-2000J0D01*
G01X576500Y291500D02*
G03X576500I-2000J0D01*
G01X578500Y297500D02*
G03X578500I-2000J0D01*
G01X582500Y324500D02*
G03X582500I-2000J0D01*
G01X582400Y330000D02*
G03X582400I-2400J0D01*
G01X560600Y195500D02*
G03X560600I-2000J0D01*
G01X560000Y207500D02*
G03X560000I-2000J0D01*
G01X564000Y288100D02*
G03X564000I-2000J0D01*
G01X566000Y296500D02*
G03X566000I-2000J0D01*
G01X570000Y305000D02*
G03X570000I-2000J0D01*
G01X573400Y324500D02*
G03X573400I-2000J0D01*
G01X554000Y110000D02*
G03X554000I-4000J0D01*
G01Y120000D02*
G03X554000I-4000J0D01*
G01X555640Y170181D02*
G03X555640I-2600J0D01*
G01X551000Y195500D02*
G03X551000I-2000J0D01*
G01X558500Y273000D02*
G03X558500I-2000J0D01*
G01X544000Y110000D02*
G03X544000I-4000J0D01*
G01Y120000D02*
G03X544000I-4000J0D01*
G01X547000Y206500D02*
G03X547000I-2000J0D01*
G01X545000Y212000D02*
G03X545000I-2000J0D01*
G01X550000Y270000D02*
G03X550000I-2000J0D01*
G01X551000Y274000D02*
G03X551000I-2000J0D01*
G01X553662Y297799D02*
G03X553662I-2401J0D01*
G01X563500Y307000D02*
G03X563500I-2000J0D01*
G01X558513Y312361D02*
G03X558513I-2400J0D01*
G01X561000Y324500D02*
G03X561000I-2000J0D01*
G01X555500Y329000D02*
G03X555500I-2000J0D01*
G01X544500Y310500D02*
G03X544500I-2000J0D01*
G01X534000Y110000D02*
G03X534000I-4000J0D01*
G01Y120000D02*
G03X534000I-4000J0D01*
G01X534062Y170115D02*
G03X534062I-2600J0D01*
G01X535100Y195500D02*
G03X535100I-2000J0D01*
G01X524000Y110000D02*
G03X524000I-4000J0D01*
G01Y120000D02*
G03X524000I-4000J0D01*
G01X520602Y170049D02*
G03X520602I-2600J0D01*
G01X533900Y208700D02*
G03X533900I-2400J0D01*
G01X533400Y239500D02*
G03X533400I-2400J0D01*
G01X534500Y267000D02*
G03X534500I-2000J0D01*
G01X541500Y332500D02*
G03X541500I-2000J0D01*
G01X532000Y324500D02*
G03X532000I-2000J0D01*
G01X514000Y110000D02*
G03X514000I-4000J0D01*
G01Y120000D02*
G03X514000I-4000J0D01*
G01X513962Y149956D02*
G03X513962I-2600J0D01*
G01X515200Y195413D02*
G03X515200I-2400J0D01*
G01X524800Y324500D02*
G03X524800I-2000J0D01*
G01X525800Y331000D02*
G03X525800I-2400J0D01*
G01X519500Y212500D02*
G03X519500I-2000J0D01*
G01X517000Y244500D02*
G03X517000I-2000J0D01*
G01X516000Y265119D02*
G03X516000I-2000J0D01*
G01Y313500D02*
G03X516000I-2000J0D01*
G01X519000Y330500D02*
G03X519000I-2000J0D01*
G01X508500Y262500D02*
G03X508500I-2000J0D01*
G01X510804Y270100D02*
G03X510804I-2400J0D01*
G01X509200Y303700D02*
G03X509200I-2400J0D01*
G01X508500Y319000D02*
G03X508500I-2000J0D01*
G01X504000Y110000D02*
G03X504000I-4000J0D01*
G01Y120000D02*
G03X504000I-4000J0D01*
G01X500765Y150011D02*
G03X500765I-2600J0D01*
G01X494000Y110000D02*
G03X494000I-4000J0D01*
G01Y120000D02*
G03X494000I-4000J0D01*
G01X499108Y170167D02*
G03X499108I-2600J0D01*
G01X497400Y213500D02*
G03X497400I-2400J0D01*
G01X496000Y225000D02*
G03X496000I-2000J0D01*
G01X495500Y231000D02*
G03X495500I-2000J0D01*
G01X497500Y237500D02*
G03X497500I-2000J0D01*
G01X497000Y279900D02*
G03X497000I-2000J0D01*
G01X492604Y274196D02*
G03X492604I-2000J0D01*
G01X496000Y289500D02*
G03X496000I-2000J0D01*
G01X497500Y314100D02*
G03X497500I-2400J0D01*
G01X484000Y110000D02*
G03X484000I-4000J0D01*
G01Y120000D02*
G03X484000I-4000J0D01*
G01X485875Y170087D02*
G03X485875I-2600J0D01*
G01X474000Y110000D02*
G03X474000I-4000J0D01*
G01Y120000D02*
G03X474000I-4000J0D01*
G01Y140000D02*
G03X474000I-4000J0D01*
G01X475974Y167123D02*
G03X475974I-2600J0D01*
G01X477400Y181000D02*
G03X477400I-2400J0D01*
G01X464000Y110000D02*
G03X464000I-4000J0D01*
G01Y120000D02*
G03X464000I-4000J0D01*
G01X468525Y175147D02*
G03X468525I-2600J0D01*
G01X473417Y224291D02*
G03X473417I-2601J0D01*
G01X474900Y243000D02*
G03X474900I-2400J0D01*
G01X479400Y247188D02*
G03X479400I-2400J0D01*
G01X474500Y265500D02*
G03X474500I-2000J0D01*
G01X478400Y304500D02*
G03X478400I-2400J0D01*
G01X480500Y322000D02*
G03X480500I-2000J0D01*
G01X469500Y287000D02*
G03X469500I-2000J0D01*
G01X473500Y324000D02*
G03X473500I-2000J0D01*
G01X462600Y155000D02*
G03X462600I-2600J0D01*
G01X464000Y228000D02*
G03X464000I-2000J0D01*
G01X454000Y110000D02*
G03X454000I-4000J0D01*
G01Y120000D02*
G03X454000I-4000J0D01*
G01Y140000D02*
G03X454000I-4000J0D01*
G01X450900Y180000D02*
G03X450900I-2400J0D01*
G01X444000Y110000D02*
G03X444000I-4000J0D01*
G01Y120000D02*
G03X444000I-4000J0D01*
G01X442000Y156000D02*
G03X442000I-2000J0D01*
G01Y161000D02*
G03X442000I-2000J0D01*
G01X434000Y110000D02*
G03X434000I-4000J0D01*
G01Y120000D02*
G03X434000I-4000J0D01*
G01X428716Y183868D02*
G03X428716I-2600J0D01*
G01X418500Y180000D02*
G03X418500I-2000J0D01*
G01X399000Y160000D02*
G03X399000I-2000J0D01*
G01X385500Y165000D02*
G03X385500I-2000J0D01*
G01Y175000D02*
G03X385500I-2400J0D01*
G01X378400Y135000D02*
G03X378400I-2400J0D01*
G01X382400Y185500D02*
G03X382400I-2400J0D01*
G01X574000Y110000D02*
G03X574000I-4000J0D01*
G01Y120000D02*
G03X574000I-4000J0D01*
G01X585500Y289700D02*
G03X585500I-2000J0D01*
G01X586700Y299457D02*
G03X586700I-2400J0D01*
G01X591500Y264500D02*
G03X591500I-2000J0D01*
G01X584000Y110000D02*
G03X584000I-4000J0D01*
G01Y120000D02*
G03X584000I-4000J0D01*
G01X588500Y206500D02*
G03X588500I-2000J0D01*
G01X597500Y296000D02*
G03X597500I-2000J0D01*
G01X449500Y212000D02*
G03X449500I-2000J0D01*
G01X443500Y235500D02*
G03X443500I-2000J0D01*
G01X446500Y259000D02*
G03X446500I-2000J0D01*
G01X449819Y414581D02*
G03X449819I-2600J0D01*
G01X449994Y431573D02*
G03X449994I-2600J0D01*
G01X444500Y270500D02*
G03X444500I-2000J0D01*
G01X449579Y457991D02*
G03X449579I-2600J0D01*
G01X449826Y489707D02*
G03X449826I-2600J0D01*
G01X444030Y302030D02*
G03X444030I-2000J0D01*
G01X438500Y273000D02*
G03X438500I-2000J0D01*
G01X430500Y235000D02*
G03X430500I-2000J0D01*
G01X429500Y247500D02*
G03X429500I-2000J0D01*
G01X431500Y272500D02*
G03X431500I-2000J0D01*
G01X435500Y288000D02*
G03X435500I-2000J0D01*
G01X443500Y312000D02*
G03X443500I-2000J0D01*
G01X443846Y316500D02*
G03X443846I-2000J0D01*
G01X444030Y328500D02*
G03X444030I-2000J0D01*
G01X439000Y324500D02*
G03X439000I-2000J0D01*
G01X441400Y333000D02*
G03X441400I-2400J0D01*
G01X442400Y340500D02*
G03X442400I-2400J0D01*
G01X437322Y335578D02*
G03X437322I-2400J0D01*
G01X440500Y346000D02*
G03X440500I-2000J0D01*
G01X439000Y409500D02*
G03X439000I-2000J0D01*
G01X437647Y457994D02*
G03X437647I-2600J0D01*
G01X427500Y327500D02*
G03X427500I-2000J0D01*
G01X420000Y209000D02*
G03X420000I-2000J0D01*
G01X420400Y216000D02*
G03X420400I-2400J0D01*
G01X411600Y231000D02*
G03X411600I-2600J0D01*
G01X414400Y243000D02*
G03X414400I-2400J0D01*
G01X418000Y245000D02*
G03X418000I-2000J0D01*
G01Y267500D02*
G03X418000I-2000J0D01*
G01X420000Y319500D02*
G03X420000I-2000J0D01*
G01X425183Y436553D02*
G03X425183I-4100J0D01*
G01X410922Y304500D02*
G03X410922I-2000J0D01*
G01X407500Y308500D02*
G03X407500I-2000J0D01*
G01X411000Y328500D02*
G03X411000I-2000J0D01*
G01X410900Y470000D02*
G03X410900I-2400J0D01*
G01X399500Y285000D02*
G03X399500I-2000J0D01*
G01X391500Y292500D02*
G03X391500I-2000J0D01*
G01X384500Y296000D02*
G03X384500I-2000J0D01*
G01X388246Y323755D02*
G03X388246I-2001J0D01*
G01X384500Y327500D02*
G03X384500I-2000J0D01*
G01X386180Y351279D02*
G03X386180I-2400J0D01*
G01X379900Y329500D02*
G03X379900I-2400J0D01*
G01X387000Y380000D02*
G03X387000I-4000J0D01*
G01Y400000D02*
G03X387000I-4000J0D01*
G01X391000Y415000D02*
G03X391000I-2000J0D01*
G01X392000Y428000D02*
G03X392000I-2000J0D01*
G01X387000Y439000D02*
G03X387000I-4000J0D01*
G01Y459000D02*
G03X387000I-4000J0D01*
G01X375000Y369000D02*
G03X375000I-2000J0D01*
G01X390000Y217000D02*
G03X390000I-2000J0D01*
G01X380428Y237281D02*
G03X380428I-2600J0D01*
G01X384018Y268482D02*
G03X384018I-2000J0D01*
G01X403578Y233061D02*
G03X403578I-2600J0D01*
G01X396900Y211500D02*
G03X396900I-2400J0D01*
G01X397500Y224000D02*
G03X397500I-2000J0D01*
G01X400500Y238000D02*
G03X400500I-2000J0D01*
G01X404000Y284000D02*
G03X404000I-2000J0D01*
G01X404018Y288482D02*
G03X404018I-2000J0D01*
G01X350600Y120000D02*
G03X350600I-2600J0D01*
G01Y127000D02*
G03X350600I-2600J0D01*
G01Y134000D02*
G03X350600I-2600J0D01*
G01X340600Y139000D02*
G03X340600I-2600J0D01*
G01X332600D02*
G03X332600I-2600J0D01*
G01X325600D02*
G03X325600I-2600J0D01*
G01X354100Y490000D02*
G03X354100I-4100J0D01*
G01X334400Y465500D02*
G03X334400I-2400J0D01*
G01Y480500D02*
G03X334400I-2400J0D01*
G01X334100Y490000D02*
G03X334100I-4100J0D01*
G01X318600Y139000D02*
G03X318600I-2600J0D01*
G01X308600D02*
G03X308600I-2600J0D01*
G01X313600Y149000D02*
G03X313600I-2600J0D01*
G01X317600Y200000D02*
G03X317600I-2600J0D01*
G01X319100Y210000D02*
G03X319100I-4100J0D01*
G01X322600Y335000D02*
G03X322600I-2600J0D01*
G01X300600Y126000D02*
G03X300600I-2600J0D01*
G01X301600Y139000D02*
G03X301600I-2600J0D01*
G01X309100Y205000D02*
G03X309100I-4100J0D01*
G01X307600Y220000D02*
G03X307600I-2600J0D01*
G01X294100Y175000D02*
G03X294100I-4100J0D01*
G01X297600Y195000D02*
G03X297600I-2600J0D01*
G01X299100Y210000D02*
G03X299100I-4100J0D01*
G01Y225000D02*
G03X299100I-4100J0D01*
G01Y240000D02*
G03X299100I-4100J0D01*
G01X297600Y255000D02*
G03X297600I-2600J0D01*
G01X302600Y260000D02*
G03X302600I-2600J0D01*
G01X307600Y325000D02*
G03X307600I-2600J0D01*
G01X312600Y335000D02*
G03X312600I-2600J0D01*
G01X314100Y360000D02*
G03X314100I-4100J0D01*
G01Y375000D02*
G03X314100I-4100J0D01*
G01Y390000D02*
G03X314100I-4100J0D01*
G01X317600Y415000D02*
G03X317600I-2600J0D01*
G01X319100Y425000D02*
G03X319100I-4100J0D01*
G01X312600Y440000D02*
G03X312600I-2600J0D01*
G01X314100Y455000D02*
G03X314100I-4100J0D01*
G01Y475000D02*
G03X314100I-4100J0D01*
G01X319100Y490000D02*
G03X319100I-4100J0D01*
G01X299100Y270000D02*
G03X299100I-4100J0D01*
G01X302600Y335000D02*
G03X302600I-2600J0D01*
G01X289400Y212000D02*
G03X289400I-2400J0D01*
G01Y238000D02*
G03X289400I-2400J0D01*
G01X281000Y112000D02*
G03X281000I-4000J0D01*
G01X283600Y157000D02*
G03X283600I-2600J0D01*
G01X287600Y260000D02*
G03X287600I-2600J0D01*
G01Y270000D02*
G03X287600I-2600J0D01*
G01X292600Y325000D02*
G03X292600I-2600J0D01*
G01X299100Y360000D02*
G03X299100I-4100J0D01*
G01Y375000D02*
G03X299100I-4100J0D01*
G01Y390000D02*
G03X299100I-4100J0D01*
G01X302600Y415000D02*
G03X302600I-2600J0D01*
G01X304100Y425000D02*
G03X304100I-4100J0D01*
G01Y465000D02*
G03X304100I-4100J0D01*
G01Y490000D02*
G03X304100I-4100J0D01*
G01X276600Y143000D02*
G03X276600I-2600J0D01*
G01X273600Y148000D02*
G03X273600I-2600J0D01*
G01X267600Y129000D02*
G03X267600I-2600J0D01*
G01X258000Y112000D02*
G03X258000I-4000J0D01*
G01X262600Y143000D02*
G03X262600I-2600J0D01*
G01X263600Y157000D02*
G03X263600I-2600J0D01*
G01X267600Y195000D02*
G03X267600I-2600J0D01*
G01Y205000D02*
G03X267600I-2600J0D01*
G01X272600Y245000D02*
G03X272600I-2600J0D01*
G01X277600Y285000D02*
G03X277600I-2600J0D01*
G01Y304000D02*
G03X277600I-2600J0D01*
G01X282600Y335000D02*
G03X282600I-2600J0D01*
G01Y350000D02*
G03X282600I-2600J0D01*
G01X283600Y407000D02*
G03X283600I-2600J0D01*
G01X289100Y425000D02*
G03X289100I-4100J0D01*
G01X292600Y440000D02*
G03X292600I-2600J0D01*
G01X286600Y445000D02*
G03X286600I-2600J0D01*
G01X294100Y455000D02*
G03X294100I-4100J0D01*
G01Y475000D02*
G03X294100I-4100J0D01*
G01X289100Y490000D02*
G03X289100I-4100J0D01*
G01X272600Y325000D02*
G03X272600I-2600J0D01*
G01X264100Y215000D02*
G03X264100I-4100J0D01*
G01X267600Y335000D02*
G03X267600I-2600J0D01*
G01X274100Y360000D02*
G03X274100I-4100J0D01*
G01X277100Y393000D02*
G03X277100I-4100J0D01*
G01X277600Y460000D02*
G03X277600I-2600J0D01*
G01X268600Y414000D02*
G03X268600I-2600J0D01*
G01X254100Y205000D02*
G03X254100I-4100J0D01*
G01X252600Y220000D02*
G03X252600I-2600J0D01*
G01X259100Y245000D02*
G03X259100I-4100J0D01*
G01X262600Y350000D02*
G03X262600I-2600J0D01*
G01Y370000D02*
G03X262600I-2600J0D01*
G01X247600Y230000D02*
G03X247600I-2600J0D01*
G01Y296000D02*
G03X247600I-2600J0D01*
G01X250600Y316000D02*
G03X250600I-2600J0D01*
G01X252600Y325000D02*
G03X252600I-2600J0D01*
G01Y335000D02*
G03X252600I-2600J0D01*
G01X256100Y361000D02*
G03X256100I-4100J0D01*
G01X264100Y425000D02*
G03X264100I-4100J0D01*
G01X268600Y442000D02*
G03X268600I-2600J0D01*
G01X274100Y490000D02*
G03X274100I-4100J0D01*
G01X252600Y415000D02*
G03X252600I-2600J0D01*
G01X256600Y455000D02*
G03X256600I-2600J0D01*
G01X264100Y460000D02*
G03X264100I-4100J0D01*
G01X259100Y490000D02*
G03X259100I-4100J0D01*
G01X249100Y425000D02*
G03X249100I-4100J0D01*
G01X230000Y112000D02*
G03X230000I-4000J0D01*
G01X234600Y150000D02*
G03X234600I-2600J0D01*
G01X232600Y157000D02*
G03X232600I-2600J0D01*
G01X229100Y190000D02*
G03X229100I-4100J0D01*
G01Y205000D02*
G03X229100I-4100J0D01*
G01X232600Y245000D02*
G03X232600I-2600J0D01*
G01X237600Y260000D02*
G03X237600I-2600J0D01*
G01Y300000D02*
G03X237600I-2600J0D01*
G01X239100Y310000D02*
G03X239100I-4100J0D01*
G01X237600Y320000D02*
G03X237600I-2600J0D01*
G01Y335000D02*
G03X237600I-2600J0D01*
G01Y350000D02*
G03X237600I-2600J0D01*
G01Y415000D02*
G03X237600I-2600J0D01*
G01X227600Y260000D02*
G03X227600I-2600J0D01*
G01X229100Y300000D02*
G03X229100I-4100J0D01*
G01X227600Y310000D02*
G03X227600I-2600J0D01*
G01X229100Y320000D02*
G03X229100I-4100J0D01*
G01X217600Y129000D02*
G03X217600I-2600J0D01*
G01Y144000D02*
G03X217600I-2600J0D01*
G01X219100Y245000D02*
G03X219100I-4100J0D01*
G01X222600Y335000D02*
G03X222600I-2600J0D01*
G01X229100Y355000D02*
G03X229100I-4100J0D01*
G01X234100Y425000D02*
G03X234100I-4100J0D01*
G01X239100Y460000D02*
G03X239100I-4100J0D01*
G01X244100Y490000D02*
G03X244100I-4100J0D01*
G01X219100Y355000D02*
G03X219100I-4100J0D01*
G01X222600Y415000D02*
G03X222600I-2600J0D01*
G01X229100Y490000D02*
G03X229100I-4100J0D01*
G01X219100Y425000D02*
G03X219100I-4100J0D01*
G01Y445000D02*
G03X219100I-4100J0D01*
G01Y455000D02*
G03X219100I-4100J0D01*
G01X208000Y112000D02*
G03X208000I-4000J0D01*
G01X209100Y185000D02*
G03X209100I-4100J0D01*
G01Y200000D02*
G03X209100I-4100J0D01*
G01X194656Y142019D02*
G03X194656I-2600J0D01*
G01X197600Y157000D02*
G03X197600I-2600J0D01*
G01X202100Y231000D02*
G03X202100I-4100J0D01*
G01X202600Y245000D02*
G03X202600I-2600J0D01*
G01X207600Y285000D02*
G03X207600I-2600J0D01*
G01Y300000D02*
G03X207600I-2600J0D01*
G01X210500Y310000D02*
G03X210500I-2600J0D01*
G01X207600Y335000D02*
G03X207600I-2600J0D01*
G01Y415000D02*
G03X207600I-2600J0D01*
G01X214100Y490000D02*
G03X214100I-4100J0D01*
G01X204100Y425000D02*
G03X204100I-4100J0D01*
G01X192600Y300000D02*
G03X192600I-2600J0D01*
G01X181600Y124000D02*
G03X181600I-2600J0D01*
G01X179600Y157000D02*
G03X179600I-2600J0D01*
G01X177600Y175000D02*
G03X177600I-2600J0D01*
G01X182600Y245000D02*
G03X182600I-2600J0D01*
G01X186557Y274976D02*
G03X186557I-2600J0D01*
G01X194100Y320000D02*
G03X194100I-4100J0D01*
G01X192600Y335000D02*
G03X192600I-2600J0D01*
G01X180100Y279000D02*
G03X180100I-4100J0D01*
G01X179923Y310110D02*
G03X179923I-2600J0D01*
G01X184100Y350000D02*
G03X184100I-4100J0D01*
G01X192100Y361000D02*
G03X192100I-4100J0D01*
G01X187600Y390000D02*
G03X187600I-2600J0D01*
G01X192600Y415000D02*
G03X192600I-2600J0D01*
G01X189100Y425000D02*
G03X189100I-4100J0D01*
G01X187600Y440000D02*
G03X187600I-2600J0D01*
G01X191600Y454000D02*
G03X191600I-2600J0D01*
G01X192600Y460000D02*
G03X192600I-2600J0D01*
G01X199100Y490000D02*
G03X199100I-4100J0D01*
G01X170000Y112000D02*
G03X170000I-4000J0D01*
G01X157600D02*
G03X157600I-2600J0D01*
G01Y129000D02*
G03X157600I-2600J0D01*
G01X161600Y144000D02*
G03X161600I-2600J0D01*
G01X158600Y157000D02*
G03X158600I-2600J0D01*
G01X164100Y190000D02*
G03X164100I-4100J0D01*
G01Y205000D02*
G03X164100I-4100J0D01*
G01Y220000D02*
G03X164100I-4100J0D01*
G01Y235000D02*
G03X164100I-4100J0D01*
G01X167600Y245000D02*
G03X167600I-2600J0D01*
G01X165100Y279000D02*
G03X165100I-4100J0D01*
G01X169100Y305000D02*
G03X169100I-4100J0D01*
G01Y320000D02*
G03X169100I-4100J0D01*
G01X172600Y335000D02*
G03X172600I-2600J0D01*
G01X176100Y362000D02*
G03X176100I-4100J0D01*
G01X177600Y415000D02*
G03X177600I-2600J0D01*
G01X184100Y490000D02*
G03X184100I-4100J0D01*
G01X174100Y425000D02*
G03X174100I-4100J0D01*
G01X174600Y442000D02*
G03X174600I-2600J0D01*
G01X168600Y457000D02*
G03X168600I-2600J0D01*
G01X160600Y288000D02*
G03X160600I-2600J0D01*
G01Y296000D02*
G03X160600I-2600J0D01*
G01X155600Y340000D02*
G03X155600I-2600J0D01*
G01X157600Y350000D02*
G03X157600I-2600J0D01*
G01X162600Y390000D02*
G03X162600I-2600J0D01*
G01Y415000D02*
G03X162600I-2600J0D01*
G01X169100Y465000D02*
G03X169100I-4100J0D01*
G01Y490000D02*
G03X169100I-4100J0D01*
G01X154600Y363000D02*
G03X154600I-2600J0D01*
G01X159100Y425000D02*
G03X159100I-4100J0D01*
G01X157600Y440000D02*
G03X157600I-2600J0D01*
G01X159100Y475000D02*
G03X159100I-4100J0D01*
G01X148000Y112000D02*
G03X148000I-4000J0D01*
G01X135600Y134000D02*
G03X135600I-2600J0D01*
G01X146500Y170000D02*
G03X146500I-6500J0D01*
G01X126500D02*
G03X126500I-6500J0D01*
G01X134750Y180000D02*
G03X134750I-4750J0D01*
G01X146500Y190000D02*
G03X146500I-6500J0D01*
G01X149100Y220000D02*
G03X149100I-4100J0D01*
G01Y235000D02*
G03X149100I-4100J0D01*
G01X147600Y245000D02*
G03X147600I-2600J0D01*
G01X114100Y180000D02*
G03X114100I-4100J0D01*
G01X126500Y190000D02*
G03X126500I-6500J0D01*
G01X134100Y200000D02*
G03X134100I-4100J0D01*
G01Y220000D02*
G03X134100I-4100J0D01*
G01Y235000D02*
G03X134100I-4100J0D01*
G01X132600Y245000D02*
G03X132600I-2600J0D01*
G01X137100Y283000D02*
G03X137100I-4100J0D01*
G01X140777Y307149D02*
G03X140777I-2600J0D01*
G01X140701Y312834D02*
G03X140701I-2600J0D01*
G01X140854Y318365D02*
G03X140854I-2600J0D01*
G01X135600Y338000D02*
G03X135600I-2600J0D01*
G01X138600Y362000D02*
G03X138600I-2600J0D01*
G01X146100Y380000D02*
G03X146100I-4100J0D01*
G01X149100Y415000D02*
G03X149100I-4100J0D01*
G01X144100Y425000D02*
G03X144100I-4100J0D01*
G01X132600Y360000D02*
G03X132600I-2600J0D01*
G01X134100Y375000D02*
G03X134100I-4100J0D01*
G01Y390000D02*
G03X134100I-4100J0D01*
G01Y405000D02*
G03X134100I-4100J0D01*
G01Y415000D02*
G03X134100I-4100J0D01*
G01X146500Y440000D02*
G03X146500I-6500J0D01*
G01X124100Y225000D02*
G03X124100I-4100J0D01*
G01X129100Y425000D02*
G03X129100I-4100J0D01*
G01X114100Y215000D02*
G03X114100I-4100J0D01*
G01Y230000D02*
G03X114100I-4100J0D01*
G01Y245000D02*
G03X114100I-4100J0D01*
G01Y255000D02*
G03X114100I-4100J0D01*
G01Y270000D02*
G03X114100I-4100J0D01*
G01Y285000D02*
G03X114100I-4100J0D01*
G01X112600Y300000D02*
G03X112600I-2600J0D01*
G01X114100Y315000D02*
G03X114100I-4100J0D01*
G01Y330000D02*
G03X114100I-4100J0D01*
G01X112400Y345500D02*
G03X112400I-2400J0D01*
G01Y360500D02*
G03X112400I-2400J0D01*
G01Y375500D02*
G03X112400I-2400J0D01*
G01Y390500D02*
G03X112400I-2400J0D01*
G01Y408000D02*
G03X112400I-2400J0D01*
G01X114100Y425000D02*
G03X114100I-4100J0D01*
G01X126500Y440000D02*
G03X126500I-6500J0D01*
G01X134750Y450000D02*
G03X134750I-4750J0D01*
G01X146500Y460000D02*
G03X146500I-6500J0D01*
G01X154100Y490000D02*
G03X154100I-4100J0D01*
G01X139100D02*
G03X139100I-4100J0D01*
G01X114100Y445000D02*
G03X114100I-4100J0D01*
G01X126500Y460000D02*
G03X126500I-6500J0D01*
G01X632500Y330009D02*
Y334948D01*
X514747*
X510768D02*
G03X514747I1989J-205D01*
G01X510768D02*
X499902D01*
X497098D02*
G03X499902I1402J-1948D01*
G01X497098D02*
X455388D01*
Y310160*
Y308840D02*
G03Y310160I-1888J660D01*
G01Y308840D02*
Y301404D01*
Y297596D02*
G03Y301404I612J1904D01*
G01Y297596D02*
Y292660D01*
Y291340D02*
G03Y292660I-1888J660D01*
G01Y291340D02*
Y189901D01*
X418498*
X414502D02*
G03X418498I1998J99D01*
G01X414502D02*
X378171D01*
X374829D02*
G03X378171I1671J1099D01*
G01X374829D02*
X366653D01*
Y182240*
Y178760D02*
G03Y182240I-1653J1740D01*
G01Y178760D02*
Y112191D01*
Y107809D02*
G03Y112191I3347J2191D01*
G01Y107809D02*
Y105920D01*
X391777*
X408223D02*
G03X391777I-8223J9080D01*
G01X408223D02*
X632500D01*
Y106877*
Y113123D02*
G03Y106877I-2500J-3123D01*
G01Y113123D02*
Y116877D01*
Y123123D02*
G03Y116877I-2500J-3123D01*
G01Y123123D02*
Y165177D01*
Y167823D02*
G03Y165177I-1500J-1323D01*
G01Y167823D02*
Y214677D01*
Y217323D02*
G03Y214677I1500J-1323D01*
G01Y217323D02*
Y238936D01*
Y240306D02*
G03Y238936I-1879J-685D01*
G01Y240306D02*
Y241877D01*
Y248123D02*
G03Y241877I2500J-3123D01*
G01Y248123D02*
Y251877D01*
Y258123D02*
G03Y251877I2500J-3123D01*
G01Y258123D02*
Y261877D01*
Y268123D02*
G03Y261877I2500J-3123D01*
G01Y268123D02*
Y271877D01*
Y278123D02*
G03Y271877I2500J-3123D01*
G01Y278123D02*
Y329991D01*
Y330009D02*
G03Y329991I-2000J-9D01*
G01X451800Y473344D02*
Y494700D01*
X407482*
X392518D02*
G03X407482I7482J-9700D01*
G01X392518D02*
X367300D01*
Y409694*
Y406306D02*
G03Y409694I1700J1694D01*
G01Y406306D02*
Y372381D01*
Y367619D02*
G03Y372381I-300J2381D01*
G01Y367619D02*
Y278221D01*
X385061Y260461*
X385500Y259400D02*
G03X385061Y260461I-1500J0D01*
G01X385500Y259400D02*
Y251200D01*
X385061Y250139D02*
G03X385500Y251200I-1061J1061D01*
G01X385061Y250139D02*
X373500Y238579D01*
Y201600*
X384166*
X388775D02*
G03X384166I-2305J-670D01*
G01X388775D02*
X451800D01*
Y266126*
Y269874D02*
G03Y266126I700J-1874D01*
G01Y269874D02*
Y290167D01*
Y293833D02*
G03Y290167I-800J-1833D01*
G01Y293833D02*
Y308446D01*
Y310554D02*
G03Y308446I1700J-1054D01*
G01Y310554D02*
Y446030D01*
Y449707D02*
G03Y446030I-1839J-1838D01*
G01Y449707D02*
Y469440D01*
Y473344D02*
G03Y469440I-1717J-1952D01*
G01X416991Y302500D02*
G03X415000Y300509I9J-2000D01*
G01Y304491D02*
G03X416991Y302500I2000J9D01*
G01X413009D02*
G03X415000Y304491I-9J2000D01*
G01Y300509D02*
G03X413009Y302500I-2000J-9D01*
G01X416991Y306500D02*
G03X415000Y304509I9J-2000D01*
G01Y308491D02*
G03X416991Y306500I2000J9D01*
G01X413009D02*
G03X415000Y308491I-9J2000D01*
G01Y304509D02*
G03X413009Y306500I-2000J-9D01*
G01X396848Y270891D02*
G03X395500Y269009I652J-1891D01*
G01X395940Y272318D02*
G03X396848Y270891I1983J259D01*
G01X394615Y270660D02*
G03X395940Y272318I-662J1887D01*
G01X395500Y269009D02*
G03X394615Y270660I-2000J-9D01*
G01X397572Y274546D02*
G03X395936Y272806I351J-1969D01*
G01X396000Y276491D02*
G03X397572Y274546I2000J9D01*
G01X394282Y274520D02*
G03X396000Y276491I-282J1980D01*
G01X395936Y272806D02*
G03X394282Y274520I-1983J-259D01*
G01X397991Y278500D02*
G03X396000Y276509I9J-2000D01*
G01X396061Y280008D02*
G03X397991Y278500I1939J492D01*
G01X394492Y278439D02*
G03X396061Y280008I-392J1961D01*
G01X396000Y276509D02*
G03X394492Y278439I-2000J-9D01*
G01X354400Y451800D02*
Y494300D01*
X122973*
X112859Y472938D02*
G03X122973Y494300I2141J12062D01*
G01X109476Y474066D02*
G03X112859Y472938I524J-4066D01*
G01X105300Y477518D02*
G03X109476Y474066I9700J7482D01*
G01X105300Y477518D02*
Y122482D01*
X123522Y106200D02*
G03X105300Y122482I-8522J8800D01*
G01X123522Y106200D02*
X354400D01*
Y107431*
Y112569D02*
G03Y107431I-400J-2569D01*
G01Y112569D02*
Y148000D01*
Y150000D02*
G03Y148000I-2400J-1000D01*
G01Y150000D02*
Y159600D01*
X325300*
Y222533*
Y227289D02*
G03Y222533I1051J-2378D01*
G01Y227289D02*
Y451800D01*
X347437*
X352563D02*
G03X347437I-2563J3200D01*
G01X352563D02*
X354400D01*
X624000Y110000D02*
G03X624000I-4000J0D01*
G01Y120000D02*
G03X624000I-4000J0D01*
G01X628400Y136000D02*
G03X628400I-2400J0D01*
G01X629000Y150000D02*
G03X629000I-4000J0D01*
G01Y160000D02*
G03X629000I-4000J0D01*
G01Y170000D02*
G03X629000I-4000J0D01*
G01X627500Y184000D02*
G03X627500I-2000J0D01*
G01X627400Y199500D02*
G03X627400I-2400J0D01*
G01X625107Y225354D02*
G03X627156Y227994I1893J646D01*
X625107Y225354I-2386J-264*
G01X627083Y233892D02*
G03X626498Y237407I-1189J1608D01*
G01X623993Y234879D02*
G03X627083Y233892I1007J-2179D01*
G01X623896Y235593D02*
G03X623993Y234879I1998J-93D01*
G01X626498Y237407D02*
G03X623896Y235593I-1998J93D01*
G01X627572Y243201D02*
G03X627572I-2400J0D01*
G01X631000Y290500D02*
G03X631000I-2000J0D01*
G01X626500Y248000D02*
G03X626500I-2000J0D01*
G01Y270500D02*
G03X626500I-2000J0D01*
G01X627400Y306500D02*
G03X627400I-2400J0D01*
G01X619911Y202088D02*
G03X619911I-2400J0D01*
G01X614000Y110000D02*
G03X614000I-4000J0D01*
G01Y120000D02*
G03X614000I-4000J0D01*
G01Y150000D02*
G03X614000I-4000J0D01*
G01Y160000D02*
G03X614000I-4000J0D01*
G01Y170000D02*
G03X614000I-4000J0D01*
G01X613509Y219500D02*
G03X613491I-9J2000D01*
X613509I9J-2000*
G01X604000Y110000D02*
G03X604000I-4000J0D01*
G01Y120000D02*
G03X604000I-4000J0D01*
G01X602213Y170409D02*
G03X602213I-2600J0D01*
G01X603700Y193900D02*
G03Y197100I1200J1600D01*
G01X600500Y195491D02*
G03X603700Y193900I2000J9D01*
G01X600500Y195509D02*
G03Y195491I-2000J-9D01*
G01X603700Y197100D02*
G03X600500Y195509I-1200J-1600D01*
G01X611637Y235263D02*
G03X611637I-2400J0D01*
G01X615500Y238000D02*
G03X615500I-2000J0D01*
G01Y243500D02*
G03X615500I-2000J0D01*
G01Y248000D02*
G03X615500I-2000J0D01*
G01Y271000D02*
G03X615500I-2000J0D01*
G01Y278500D02*
G03X615500I-2000J0D01*
G01X606100Y214500D02*
G03X606100I-2000J0D01*
G01X607400Y248000D02*
G03X607400I-2400J0D01*
G01X609900Y255500D02*
G03X609900I-2400J0D01*
G01X594000Y110000D02*
G03X594000I-4000J0D01*
G01Y120000D02*
G03X594000I-4000J0D01*
G01X596000Y209000D02*
G03X596000I-2000J0D01*
G01X599000Y212000D02*
G03X599000I-2000J0D01*
G01X602400Y225000D02*
G03X602400I-2400J0D01*
G01X598000Y238500D02*
G03X598000I-2000J0D01*
G01X600000Y273500D02*
G03X600000I-2000J0D01*
G01X602498Y300097D02*
G03X601699Y301601I1199J1600D01*
G01X601340Y298185D02*
G03X602498Y300097I-840J1815D01*
G01X601100Y296200D02*
G03X601340Y298185I-1600J1200D01*
G01X597900Y296200D02*
G03X601100I1600J-1200D01*
G01X598660Y299215D02*
G03X597900Y296200I840J-1815D01*
G01X601699Y301600D02*
G03X598660Y299215I-1199J-1600D01*
G01X603900Y327500D02*
G03X603900I-2400J0D01*
G01X581000Y186000D02*
G03X581000I-2000J0D01*
G01X579600Y194300D02*
G03X576200Y196372I-1600J1200D01*
G01X576400Y194300D02*
G03X579600I1600J-1200D01*
G01X576240Y194551D02*
G03X576400Y194300I1760J949D01*
G01X576200Y196372D02*
G03X576240Y194551I-2200J-959D01*
G01X582400Y239000D02*
G03X582400I-2400J0D01*
G01X585500Y270000D02*
G03X585500I-2000J0D01*
G01X589000Y282000D02*
G03X589000I-2000J0D01*
G01X594313Y311890D02*
G03X593509Y313309I1187J1610D01*
G01X591358Y309161D02*
G03X594313Y311890I589J2326D01*
G01X587615Y310567D02*
G03X591358Y309161I1885J-667D01*
G01X588096Y314113D02*
G03X587615Y310567I-1127J-1653D01*
G01X591962Y313887D02*
G03X588096Y314113I-1962J-387D01*
G01X593509Y313309D02*
G03X591962Y313887I-1562J-1822D01*
G01X594500Y324500D02*
G03X594500I-2000J0D01*
G01X569727Y170167D02*
G03X569727I-2600J0D01*
G01X564000Y110000D02*
G03X564000I-4000J0D01*
G01Y120000D02*
G03X564000I-4000J0D01*
G01X568000Y189500D02*
G03X568000I-2000J0D01*
G01X571400Y195000D02*
G03X571400I-2400J0D01*
G01X566600Y195413D02*
G03X566600I-2400J0D01*
G01X571000Y206491D02*
G03Y206509I2000J9D01*
G01X567140Y205764D02*
G03X571000Y206491I1860J736D01*
G01X565685Y208993D02*
G03X567140Y205764I-749J-2280D01*
G01X566446Y208578D02*
G03X565685Y208993I554J1922D01*
G01X567227Y207426D02*
G03X566446Y208578I-2291J-713D01*
G01X571000Y206509D02*
G03X567227Y207426I-2000J-9D01*
G01X573000Y268500D02*
G03X573000I-2000J0D01*
G01X568500Y218000D02*
G03X568500I-2000J0D01*
G01X572500Y282500D02*
G03X572500I-2000J0D01*
G01X575000Y287000D02*
G03X575000I-2000J0D01*
G01X576500Y291500D02*
G03X576500I-2000J0D01*
G01X578500Y297500D02*
G03X578500I-2000J0D01*
G01X582500Y324500D02*
G03X582500I-2000J0D01*
G01X582400Y330000D02*
G03X582400I-2400J0D01*
G01X560600Y195500D02*
G03X560600I-2000J0D01*
G01X560000Y207500D02*
G03X560000I-2000J0D01*
G01X564000Y288100D02*
G03X564000I-2000J0D01*
G01X566000Y296500D02*
G03X566000I-2000J0D01*
G01X570000Y305000D02*
G03X570000I-2000J0D01*
G01X573400Y324500D02*
G03X573400I-2000J0D01*
G01X554000Y110000D02*
G03X554000I-4000J0D01*
G01Y120000D02*
G03X554000I-4000J0D01*
G01X555640Y170181D02*
G03X555640I-2600J0D01*
G01X551000Y195500D02*
G03X551000I-2000J0D01*
G01X551093Y206502D02*
G03X552907Y209104I1907J604D01*
X551093Y206502I-1907J-604*
G01X556367Y258604D02*
G03X554133Y261396I133J2396D01*
G01X551600Y258959D02*
G03X556367Y258604I2400J41D01*
G01X553479Y261343D02*
G03X551600Y258959I-2400J-41D01*
G01X554133Y261396D02*
G03X553479Y261343I-133J-2396D01*
G01X558500Y273000D02*
G03X558500I-2000J0D01*
G01X544000Y110000D02*
G03X544000I-4000J0D01*
G01Y120000D02*
G03X544000I-4000J0D01*
G01X541054Y192962D02*
G03X542203Y194335I1946J-462D01*
X541054Y192962I-2281J743*
G01X547000Y206500D02*
G03X547000I-2000J0D01*
G01X545000Y212000D02*
G03X545000I-2000J0D01*
G01X541831Y256528D02*
G03X543380Y257819I2169J-1028D01*
X541831Y256528I-1880J681*
G01X550000Y270000D02*
G03X550000I-2000J0D01*
G01X551000Y274000D02*
G03X551000I-2000J0D01*
G01X553662Y297799D02*
G03X553662I-2401J0D01*
G01X556928Y302599D02*
G03X556472Y305748I972J1748D01*
X556928Y302599I-972J-1748*
G01X563500Y307000D02*
G03X563500I-2000J0D01*
G01X558513Y312361D02*
G03X558513I-2400J0D01*
G01X561000Y324500D02*
G03X561000I-2000J0D01*
G01X555500Y329000D02*
G03X555500I-2000J0D01*
G01X546821Y303688D02*
G03X548768Y307065I586J1912D01*
G01X545586Y306427D02*
G03X546821Y303688I-586J-1912D01*
G01X545639Y306535D02*
G03X545586Y306427I1768J-935D01*
G01X548768Y307065D02*
G03X545639Y306535I-1768J935D01*
G01X547001Y325063D02*
G03X549499Y326937I1999J-63D01*
X547001Y325063I-1999J63*
G01X544500Y310500D02*
G03X544500I-2000J0D01*
G01X534000Y110000D02*
G03X534000I-4000J0D01*
G01Y120000D02*
G03X534000I-4000J0D01*
G01X534062Y170115D02*
G03X534062I-2600J0D01*
G01X535100Y195500D02*
G03X535100I-2000J0D01*
G01X524000Y110000D02*
G03X524000I-4000J0D01*
G01Y120000D02*
G03X524000I-4000J0D01*
G01X520602Y170049D02*
G03X520602I-2600J0D01*
G01X525991Y194187D02*
G03X525509Y195313I1509J1313D01*
G01X522364Y192849D02*
G03X525991Y194187I1636J1151D01*
G01X523509Y195939D02*
G03X522364Y192849I-2209J-939D01*
G01X525509Y195313D02*
G03X523509Y195939I-1509J-1313D01*
G01X533900Y208700D02*
G03X533900I-2400J0D01*
G01X533400Y239500D02*
G03X533400I-2400J0D01*
G01X534500Y267000D02*
G03X534500I-2000J0D01*
G01X535200Y312628D02*
G03Y314372I1800J872D01*
Y312628I-1800J-872*
G01X535969Y325786D02*
G03X538531Y326214I1531J-1286D01*
X535969Y325786I-1531J1286*
G01X541500Y332500D02*
G03X541500I-2000J0D01*
G01X527573Y207646D02*
G03X524671Y207810I-1373J1454D01*
X527573Y207646I1373J-1454*
G01X532000Y324500D02*
G03X532000I-2000J0D01*
G01X532900Y330128D02*
G03Y331872I1800J872D01*
Y330128I-1800J-872*
G01X514000Y110000D02*
G03X514000I-4000J0D01*
G01Y120000D02*
G03X514000I-4000J0D01*
G01X513962Y149956D02*
G03X513962I-2600J0D01*
G01X515200Y195413D02*
G03X515200I-2400J0D01*
G01X518500Y205177D02*
G03X520499Y208437I1500J1323D01*
G01X516501D02*
G03X518500Y205177I499J-1937D01*
G01X520499Y208437D02*
G03X516501I-1999J63D01*
G01X524800Y324500D02*
G03X524800I-2000J0D01*
G01X525800Y331000D02*
G03X525800I-2400J0D01*
G01X519500Y212500D02*
G03X519500I-2000J0D01*
G01X511225Y230116D02*
G03X513897Y232384I2398J-116D01*
G01X512006Y234846D02*
G03X511225Y230116I-506J-2346D01*
G01X513846Y233006D02*
G03X512006Y234846I154J1994D01*
G01X513897Y232384D02*
G03X513846Y233006I-2397J116D01*
G01X517000Y244500D02*
G03X517000I-2000J0D01*
G01X516000Y265119D02*
G03X516000I-2000J0D01*
G01Y313500D02*
G03X516000I-2000J0D01*
G01X516200Y323628D02*
G03Y325372I1800J872D01*
Y323628I-1800J-872*
G01X519000Y330500D02*
G03X519000I-2000J0D01*
G01X505852Y253108D02*
G03X507594Y253325I1148J-2108D01*
X505852Y253108I-1094J1675*
G01X508500Y262500D02*
G03X508500I-2000J0D01*
G01X510804Y270100D02*
G03X510804I-2400J0D01*
G01X507966Y288740D02*
G03X507678Y291716I1178J1616D01*
X507966Y288740I-1178J-1616*
G01X507372Y296700D02*
G03X505628I-872J1800D01*
X507372I872J-1800*
G01X509200Y303700D02*
G03X509200I-2400J0D01*
G01X508500Y319000D02*
G03X508500I-2000J0D01*
G01X504000Y110000D02*
G03X504000I-4000J0D01*
G01Y120000D02*
G03X504000I-4000J0D01*
G01X500765Y150011D02*
G03X500765I-2600J0D01*
G01X494000Y110000D02*
G03X494000I-4000J0D01*
G01Y120000D02*
G03X494000I-4000J0D01*
G01X499108Y170167D02*
G03X499108I-2600J0D01*
G01X497400Y213500D02*
G03X497400I-2400J0D01*
G01X496000Y225000D02*
G03X496000I-2000J0D01*
G01X495500Y231000D02*
G03X495500I-2000J0D01*
G01X497500Y237500D02*
G03X497500I-2000J0D01*
G01X494912Y250780D02*
G03X493088I-912J2220D01*
X494912I912J-1780*
G01X496600Y272700D02*
G03X493400I-1600J1200D01*
X496600I1600J-1200*
G01X497000Y279900D02*
G03X497000I-2000J0D01*
G01X492604Y274196D02*
G03X492604I-2000J0D01*
G01X496000Y289500D02*
G03X496000I-2000J0D01*
G01X497500Y314100D02*
G03X497500I-2400J0D01*
G01X484000Y110000D02*
G03X484000I-4000J0D01*
G01Y120000D02*
G03X484000I-4000J0D01*
G01X485875Y170087D02*
G03X485875I-2600J0D01*
G01X474000Y110000D02*
G03X474000I-4000J0D01*
G01Y120000D02*
G03X474000I-4000J0D01*
G01Y140000D02*
G03X474000I-4000J0D01*
G01X475974Y167123D02*
G03X475974I-2600J0D01*
G01X477400Y181000D02*
G03X477400I-2400J0D01*
G01X464000Y110000D02*
G03X464000I-4000J0D01*
G01Y120000D02*
G03X464000I-4000J0D01*
G01X468525Y175147D02*
G03X468525I-2600J0D01*
G01X473417Y224291D02*
G03X473417I-2601J0D01*
G01X474900Y243000D02*
G03X474900I-2400J0D01*
G01X479400Y247188D02*
G03X479400I-2400J0D01*
G01X474500Y265500D02*
G03X474500I-2000J0D01*
G01X478400Y304500D02*
G03X478400I-2400J0D01*
G01X480500Y322000D02*
G03X480500I-2000J0D01*
G01X469500Y287000D02*
G03X469500I-2000J0D01*
G01X473500Y324000D02*
G03X473500I-2000J0D01*
G01X462600Y155000D02*
G03X462600I-2600J0D01*
G01X464000Y228000D02*
G03X464000I-2000J0D01*
G01X454000Y110000D02*
G03X454000I-4000J0D01*
G01Y120000D02*
G03X454000I-4000J0D01*
G01Y140000D02*
G03X454000I-4000J0D01*
G01X450900Y180000D02*
G03X450900I-2400J0D01*
G01X444000Y110000D02*
G03X444000I-4000J0D01*
G01Y120000D02*
G03X444000I-4000J0D01*
G01X442000Y156000D02*
G03X442000I-2000J0D01*
G01Y161000D02*
G03X442000I-2000J0D01*
G01X438000Y180500D02*
G03X440000Y182500I2000J0D01*
X438000Y180500I-2000J0*
G01X434000Y110000D02*
G03X434000I-4000J0D01*
G01Y120000D02*
G03X434000I-4000J0D01*
G01X428716Y183868D02*
G03X428716I-2600J0D01*
G01X418500Y180000D02*
G03X418500I-2000J0D01*
G01X399000Y160000D02*
G03X399000I-2000J0D01*
G01X385500Y165000D02*
G03X385500I-2000J0D01*
G01Y175000D02*
G03X385500I-2400J0D01*
G01X378400Y135000D02*
G03X378400I-2400J0D01*
G01X382400Y185500D02*
G03X382400I-2400J0D01*
G01X508083Y225223D02*
G03X508411Y228911I917J1777D01*
G01X507417Y225777D02*
G03X508083Y225223I-917J-1777D01*
G01X507089Y227589D02*
G03X507417Y225777I1911J-589D01*
G01X508411Y228911D02*
G03X507089Y227589I-1911J589D01*
G01X574000Y110000D02*
G03X574000I-4000J0D01*
G01Y120000D02*
G03X574000I-4000J0D01*
G01X581975Y278000D02*
G03X582525Y278070I525J-1930D01*
X581975Y278000I-525J1930*
G01X585500Y289700D02*
G03X585500I-2000J0D01*
G01X586700Y299457D02*
G03X586700I-2400J0D01*
G01X591500Y264500D02*
G03X591500I-2000J0D01*
G01X584000Y110000D02*
G03X584000I-4000J0D01*
G01Y120000D02*
G03X584000I-4000J0D01*
G01X586500Y195491D02*
G03Y195509I2000J9D01*
Y195491I-2000J-9*
G01X588500Y206500D02*
G03X588500I-2000J0D01*
G01X588665Y220297D02*
G03X590038Y221446I1835J-797D01*
X588665Y220297I-2116J1132*
G01X592421Y286816D02*
G03X595116Y287322I1617J-1178D01*
X592421Y286816I-1616J1178*
G01X597500Y296000D02*
G03X597500I-2000J0D01*
G01X449500Y212000D02*
G03X449500I-2000J0D01*
G01X443500Y235500D02*
G03X443500I-2000J0D01*
G01X446500Y259000D02*
G03X446500I-2000J0D01*
G01X449819Y414581D02*
G03X449819I-2600J0D01*
G01X449994Y431573D02*
G03X449994I-2600J0D01*
G01X444500Y270500D02*
G03X444500I-2000J0D01*
G01X449579Y457991D02*
G03X449579I-2600J0D01*
G01X449826Y489707D02*
G03X449826I-2600J0D01*
G01X442950Y292306D02*
G03X441210Y292354I-820J1824D01*
X442950Y292306I820J-1824*
G01X444030Y302030D02*
G03X444030I-2000J0D01*
G01X438500Y273000D02*
G03X438500I-2000J0D01*
G01X430500Y235000D02*
G03X430500I-2000J0D01*
G01X429500Y247500D02*
G03X429500I-2000J0D01*
G01X431500Y272500D02*
G03X431500I-2000J0D01*
G01X435500Y288000D02*
G03X435500I-2000J0D01*
G01X431500Y295991D02*
G03Y296009I2000J9D01*
G01X429509Y294000D02*
G03X431500Y295991I-9J2000D01*
G01X429491Y294000D02*
G03X429509I9J-2000D01*
G01X427500Y295991D02*
G03X429491Y294000I2000J9D01*
G01X427500Y296009D02*
G03Y295991I-2000J-9D01*
G01X431500Y296009D02*
G03X427500I-2000J-9D01*
G01X430500Y300491D02*
G03Y300509I2000J9D01*
G01X426750Y299532D02*
G03X430500Y300491I1750J968D01*
G01X426750Y301468D02*
G03Y299532I-1750J-968D01*
G01X428687Y302491D02*
G03X426750Y301468I-187J-1991D01*
G01X429813Y302009D02*
G03X428687Y302491I187J1991D01*
G01X430500Y300509D02*
G03X429813Y302009I-2000J-9D01*
G01X439305Y307032D02*
G03X439363Y308856I1808J855D01*
G01X437805Y306016D02*
G03X439305Y307032I-250J1984D01*
G01X436250Y306484D02*
G03X437805Y306016I250J-1984D01*
G01X439363Y308856D02*
G03X436250Y306484I-1808J-856D01*
G01X443500Y312000D02*
G03X443500I-2000J0D01*
G01X443846Y316500D02*
G03X443846I-2000J0D01*
G01X444030Y328500D02*
G03X444030I-2000J0D01*
G01X439000Y324500D02*
G03X439000I-2000J0D01*
G01X441400Y333000D02*
G03X441400I-2400J0D01*
G01X442400Y340500D02*
G03X442400I-2400J0D01*
G01X437322Y335578D02*
G03X437322I-2400J0D01*
G01X440500Y346000D02*
G03X440500I-2000J0D01*
G01X439000Y409500D02*
G03X439000I-2000J0D01*
G01X437647Y457994D02*
G03X437647I-2600J0D01*
G01X427500Y327500D02*
G03X427500I-2000J0D01*
G01X420000Y209000D02*
G03X420000I-2000J0D01*
G01X420400Y216000D02*
G03X420400I-2400J0D01*
G01X411600Y231000D02*
G03X411600I-2600J0D01*
G01X414400Y243000D02*
G03X414400I-2400J0D01*
G01X418000Y245000D02*
G03X418000I-2000J0D01*
G01Y267500D02*
G03X418000I-2000J0D01*
G01X418009Y274500D02*
G03X417991I-9J2000D01*
G01X416000Y272491D02*
G03X418009Y274500I2000J9D01*
G01X412003Y272400D02*
G03X416000Y272491I1997J100D01*
G01X409994Y274500D02*
G03X412002Y272400I11J-2000D01*
G01X409991Y278500D02*
G03X409994Y274500I9J-2000D01*
G01X409991Y282500D02*
G03Y278500I9J-2000D01*
G01X412000Y284509D02*
G03X409991Y282500I-2000J-9D01*
G01X412000Y284491D02*
G03Y284509I2000J9D01*
G01X410009Y282500D02*
G03X412000Y284491I-9J2000D01*
G01X411995Y280644D02*
G03X410009Y282500I-1995J-144D01*
G01X411950Y280056D02*
G03X411995Y280644I1995J144D01*
G01X410009Y278500D02*
G03X411950Y280056I-9J2000D01*
G01X410011Y274500D02*
G03X410009Y278500I-11J2000D01*
G01X412002Y272600D02*
G03X410011Y274500I-1997J-100D01*
G01X416000Y272509D02*
G03X412003Y272600I-2000J-9D01*
G01X417991Y274500D02*
G03X416000Y272509I9J-2000D01*
G01X415000Y288991D02*
G03Y289009I2000J9D01*
G01X411000Y288991D02*
G03X415000I2000J9D01*
G01X411000Y289009D02*
G03Y288991I-2000J-9D01*
G01X412032Y290750D02*
G03X411000Y289009I968J-1750D01*
G01X413968Y290750D02*
G03X412032I-968J1750D01*
G01X415000Y289009D02*
G03X413968Y290750I-2000J-9D01*
G01X419000Y308491D02*
G03Y308509I2000J9D01*
G01X417009Y306500D02*
G03X419000Y308491I-9J2000D01*
G01X417009Y302500D02*
G03Y306500I-9J2000D01*
G01Y298500D02*
G03Y302500I-9J2000D01*
G01X416991Y298500D02*
G03X417009I9J-2000D01*
G01X415000Y300491D02*
G03X416991Y298500I2000J9D01*
G01X411000Y300491D02*
G03X415000I2000J9D01*
G01X411000Y300509D02*
G03Y300491I-2000J-9D01*
G01X412991Y302500D02*
G03X411000Y300509I9J-2000D01*
G01X412991Y306500D02*
G03Y302500I9J-2000D01*
G01X415000Y308509D02*
G03X412991Y306500I-2000J-9D01*
G01X419000Y308509D02*
G03X415000I-2000J-9D01*
G01X420000Y319500D02*
G03X420000I-2000J0D01*
G01X425183Y436553D02*
G03X425183I-4100J0D01*
G01X410922Y304500D02*
G03X410922I-2000J0D01*
G01X407500Y308500D02*
G03X407500I-2000J0D01*
G01X411000Y328500D02*
G03X411000I-2000J0D01*
G01X410900Y470000D02*
G03X410900I-2400J0D01*
G01X399500Y285000D02*
G03X399500I-2000J0D01*
G01X396500Y303991D02*
G03Y304009I2000J9D01*
Y303991I-2000J-9*
G01X391500Y292500D02*
G03X391500I-2000J0D01*
G01X395500Y312491D02*
G03Y312509I2000J9D01*
Y312491I-2000J-9*
G01X384500Y296000D02*
G03X384500I-2000J0D01*
G01X388246Y323755D02*
G03X388246I-2001J0D01*
G01X384500Y327500D02*
G03X384500I-2000J0D01*
G01X386180Y351279D02*
G03X386180I-2400J0D01*
G01X376815Y294611D02*
G03X378784Y294840I1185J-1611D01*
X376815Y294611I-1185J1612*
G01X379900Y329500D02*
G03X379900I-2400J0D01*
G01X387000Y380000D02*
G03X387000I-4000J0D01*
G01Y400000D02*
G03X387000I-4000J0D01*
G01X391000Y415000D02*
G03X391000I-2000J0D01*
G01X392000Y428000D02*
G03X392000I-2000J0D01*
G01X387000Y439000D02*
G03X387000I-4000J0D01*
G01Y459000D02*
G03X387000I-4000J0D01*
G01X375000Y369000D02*
G03X375000I-2000J0D01*
G01X390000Y217000D02*
G03X390000I-2000J0D01*
G01X387480Y226279D02*
G03X386520Y227721I1020J1721D01*
X387480Y226279I-1020J-1721*
G01X380428Y237281D02*
G03X380428I-2600J0D01*
G01X384018Y268482D02*
G03X384018I-2000J0D01*
G01X403578Y233061D02*
G03X403578I-2600J0D01*
G01X396900Y211500D02*
G03X396900I-2400J0D01*
G01X397500Y224000D02*
G03X397500I-2000J0D01*
G01X400500Y238000D02*
G03X400500I-2000J0D01*
G01X399714Y275469D02*
G03X399286Y278031I1286J1531D01*
G01X398351Y274531D02*
G03X399714Y275469I-351J1969D01*
G01X398575Y270687D02*
G03X398351Y274531I-652J1890D01*
G01X395500Y268991D02*
G03X398575Y270687I2000J9D01*
G01X392837Y270887D02*
G03X395500Y268991I663J-1887D01*
G01X393671Y274527D02*
G03X392837Y270887I282J-1980D01*
G01X392200Y275628D02*
G03X393671Y274527I1800J872D01*
G01X388450Y276055D02*
G03X392200Y275628I1950J445D01*
G01X386797Y274522D02*
G03X388450Y276055I-297J1978D01*
G01X384214Y271469D02*
G03X386797Y274522I1286J1531D01*
G01X383786Y274031D02*
G03X384214Y271469I-1286J-1531D01*
G01X385203Y274978D02*
G03X383786Y274031I297J-1978D01*
G01X388450Y276945D02*
G03X385203Y274978I-1950J-445D01*
G01X392200Y277372D02*
G03X388450Y276945I-1800J-872D01*
G01X393608Y278461D02*
G03X392200Y277372I392J-1961D01*
G01X392276Y279580D02*
G03X393608Y278461I1824J820D01*
G01X392324Y281320D02*
G03X392276Y279580I-1824J-820D01*
G01X396039Y280892D02*
G03X392324Y281320I-1939J-492D01*
G01X398009Y278500D02*
G03X396039Y280892I-9J2000D01*
G01X399286Y278031D02*
G03X398009Y278500I-1286J-1531D01*
G01X404000Y284000D02*
G03X404000I-2000J0D01*
G01X404018Y288482D02*
G03X404018I-2000J0D01*
G01X405009Y294500D02*
G03X404991I-9J2000D01*
X405009I9J-2000*
G01X350600Y120000D02*
G03X350600I-2600J0D01*
G01Y127000D02*
G03X350600I-2600J0D01*
G01Y134000D02*
G03X350600I-2600J0D01*
G01X340600Y139000D02*
G03X340600I-2600J0D01*
G01X332600D02*
G03X332600I-2600J0D01*
G01X325600D02*
G03X325600I-2600J0D01*
G01X354100Y490000D02*
G03X354100I-4100J0D01*
G01X334400Y465500D02*
G03X334400I-2400J0D01*
G01Y480500D02*
G03X334400I-2400J0D01*
G01X334100Y490000D02*
G03X334100I-4100J0D01*
G01X318600Y139000D02*
G03X318600I-2600J0D01*
G01X308600D02*
G03X308600I-2600J0D01*
G01X313600Y149000D02*
G03X313600I-2600J0D01*
G01X317600Y200000D02*
G03X317600I-2600J0D01*
G01X319100Y210000D02*
G03X319100I-4100J0D01*
G01X322600Y335000D02*
G03X322600I-2600J0D01*
G01X300600Y126000D02*
G03X300600I-2600J0D01*
G01X301600Y139000D02*
G03X301600I-2600J0D01*
G01X309100Y205000D02*
G03X309100I-4100J0D01*
G01X307600Y220000D02*
G03X307600I-2600J0D01*
G01X294100Y175000D02*
G03X294100I-4100J0D01*
G01X297600Y195000D02*
G03X297600I-2600J0D01*
G01X299100Y210000D02*
G03X299100I-4100J0D01*
G01Y225000D02*
G03X299100I-4100J0D01*
G01Y240000D02*
G03X299100I-4100J0D01*
G01X297600Y255000D02*
G03X297600I-2600J0D01*
G01X302600Y260000D02*
G03X302600I-2600J0D01*
G01X307600Y325000D02*
G03X307600I-2600J0D01*
G01X312600Y335000D02*
G03X312600I-2600J0D01*
G01X314100Y360000D02*
G03X314100I-4100J0D01*
G01Y375000D02*
G03X314100I-4100J0D01*
G01Y390000D02*
G03X314100I-4100J0D01*
G01X317600Y415000D02*
G03X317600I-2600J0D01*
G01X319100Y425000D02*
G03X319100I-4100J0D01*
G01X312600Y440000D02*
G03X312600I-2600J0D01*
G01X314100Y455000D02*
G03X314100I-4100J0D01*
G01Y475000D02*
G03X314100I-4100J0D01*
G01X319100Y490000D02*
G03X319100I-4100J0D01*
G01X299100Y270000D02*
G03X299100I-4100J0D01*
G01X302600Y335000D02*
G03X302600I-2600J0D01*
G01X289400Y212000D02*
G03X289400I-2400J0D01*
G01Y238000D02*
G03X289400I-2400J0D01*
G01X281000Y112000D02*
G03X281000I-4000J0D01*
G01X283600Y157000D02*
G03X283600I-2600J0D01*
G01X287600Y260000D02*
G03X287600I-2600J0D01*
G01Y270000D02*
G03X287600I-2600J0D01*
G01X292600Y325000D02*
G03X292600I-2600J0D01*
G01X299100Y360000D02*
G03X299100I-4100J0D01*
G01Y375000D02*
G03X299100I-4100J0D01*
G01Y390000D02*
G03X299100I-4100J0D01*
G01X302600Y415000D02*
G03X302600I-2600J0D01*
G01X304100Y425000D02*
G03X304100I-4100J0D01*
G01Y465000D02*
G03X304100I-4100J0D01*
G01Y490000D02*
G03X304100I-4100J0D01*
G01X276600Y143000D02*
G03X276600I-2600J0D01*
G01X273600Y148000D02*
G03X273600I-2600J0D01*
G01X267600Y129000D02*
G03X267600I-2600J0D01*
G01X258000Y112000D02*
G03X258000I-4000J0D01*
G01X262600Y143000D02*
G03X262600I-2600J0D01*
G01X263600Y157000D02*
G03X263600I-2600J0D01*
G01X267600Y195000D02*
G03X267600I-2600J0D01*
G01Y205000D02*
G03X267600I-2600J0D01*
G01X272600Y245000D02*
G03X272600I-2600J0D01*
G01X277600Y285000D02*
G03X277600I-2600J0D01*
G01Y304000D02*
G03X277600I-2600J0D01*
G01X282600Y335000D02*
G03X282600I-2600J0D01*
G01Y350000D02*
G03X282600I-2600J0D01*
G01X283600Y407000D02*
G03X283600I-2600J0D01*
G01X289100Y425000D02*
G03X289100I-4100J0D01*
G01X292600Y440000D02*
G03X292600I-2600J0D01*
G01X286600Y445000D02*
G03X286600I-2600J0D01*
G01X294100Y455000D02*
G03X294100I-4100J0D01*
G01Y475000D02*
G03X294100I-4100J0D01*
G01X289100Y490000D02*
G03X289100I-4100J0D01*
G01X272600Y325000D02*
G03X272600I-2600J0D01*
G01X264100Y215000D02*
G03X264100I-4100J0D01*
G01X267600Y335000D02*
G03X267600I-2600J0D01*
G01X274100Y360000D02*
G03X274100I-4100J0D01*
G01X277100Y393000D02*
G03X277100I-4100J0D01*
G01X277600Y460000D02*
G03X277600I-2600J0D01*
G01X268600Y414000D02*
G03X268600I-2600J0D01*
G01X254100Y205000D02*
G03X254100I-4100J0D01*
G01X252600Y220000D02*
G03X252600I-2600J0D01*
G01X259100Y245000D02*
G03X259100I-4100J0D01*
G01X262600Y350000D02*
G03X262600I-2600J0D01*
G01Y370000D02*
G03X262600I-2600J0D01*
G01X247600Y230000D02*
G03X247600I-2600J0D01*
G01Y296000D02*
G03X247600I-2600J0D01*
G01X250600Y316000D02*
G03X250600I-2600J0D01*
G01X252600Y325000D02*
G03X252600I-2600J0D01*
G01Y335000D02*
G03X252600I-2600J0D01*
G01X256100Y361000D02*
G03X256100I-4100J0D01*
G01X264100Y425000D02*
G03X264100I-4100J0D01*
G01X268600Y442000D02*
G03X268600I-2600J0D01*
G01X274100Y490000D02*
G03X274100I-4100J0D01*
G01X252600Y415000D02*
G03X252600I-2600J0D01*
G01X256600Y455000D02*
G03X256600I-2600J0D01*
G01X264100Y460000D02*
G03X264100I-4100J0D01*
G01X259100Y490000D02*
G03X259100I-4100J0D01*
G01X249100Y425000D02*
G03X249100I-4100J0D01*
G01X230000Y112000D02*
G03X230000I-4000J0D01*
G01X234600Y150000D02*
G03X234600I-2600J0D01*
G01X232600Y157000D02*
G03X232600I-2600J0D01*
G01X229100Y190000D02*
G03X229100I-4100J0D01*
G01Y205000D02*
G03X229100I-4100J0D01*
G01X232600Y245000D02*
G03X232600I-2600J0D01*
G01X237600Y260000D02*
G03X237600I-2600J0D01*
G01Y300000D02*
G03X237600I-2600J0D01*
G01X239100Y310000D02*
G03X239100I-4100J0D01*
G01X237600Y320000D02*
G03X237600I-2600J0D01*
G01Y335000D02*
G03X237600I-2600J0D01*
G01Y350000D02*
G03X237600I-2600J0D01*
G01Y415000D02*
G03X237600I-2600J0D01*
G01X227600Y260000D02*
G03X227600I-2600J0D01*
G01X229100Y300000D02*
G03X229100I-4100J0D01*
G01X227600Y310000D02*
G03X227600I-2600J0D01*
G01X229100Y320000D02*
G03X229100I-4100J0D01*
G01X217600Y129000D02*
G03X217600I-2600J0D01*
G01Y144000D02*
G03X217600I-2600J0D01*
G01X219100Y245000D02*
G03X219100I-4100J0D01*
G01X222600Y335000D02*
G03X222600I-2600J0D01*
G01X229100Y355000D02*
G03X229100I-4100J0D01*
G01X234100Y425000D02*
G03X234100I-4100J0D01*
G01X235714Y442500D02*
G03X234286I-714J2500D01*
X235714I714J-2500*
G01X239100Y460000D02*
G03X239100I-4100J0D01*
G01X244100Y490000D02*
G03X244100I-4100J0D01*
G01X219100Y355000D02*
G03X219100I-4100J0D01*
G01X222600Y415000D02*
G03X222600I-2600J0D01*
G01X229100Y490000D02*
G03X229100I-4100J0D01*
G01X219100Y425000D02*
G03X219100I-4100J0D01*
G01Y445000D02*
G03X219100I-4100J0D01*
G01Y455000D02*
G03X219100I-4100J0D01*
G01X208000Y112000D02*
G03X208000I-4000J0D01*
G01X209100Y185000D02*
G03X209100I-4100J0D01*
G01Y200000D02*
G03X209100I-4100J0D01*
G01X194656Y142019D02*
G03X194656I-2600J0D01*
G01X197600Y157000D02*
G03X197600I-2600J0D01*
G01X202100Y231000D02*
G03X202100I-4100J0D01*
G01X202600Y245000D02*
G03X202600I-2600J0D01*
G01X207600Y285000D02*
G03X207600I-2600J0D01*
G01Y300000D02*
G03X207600I-2600J0D01*
G01X210500Y310000D02*
G03X210500I-2600J0D01*
G01X207600Y335000D02*
G03X207600I-2600J0D01*
G01Y415000D02*
G03X207600I-2600J0D01*
G01X214100Y490000D02*
G03X214100I-4100J0D01*
G01X204100Y425000D02*
G03X204100I-4100J0D01*
G01X192600Y300000D02*
G03X192600I-2600J0D01*
G01X181600Y124000D02*
G03X181600I-2600J0D01*
G01X179600Y157000D02*
G03X179600I-2600J0D01*
G01X177600Y175000D02*
G03X177600I-2600J0D01*
G01X182600Y245000D02*
G03X182600I-2600J0D01*
G01X186557Y274976D02*
G03X186557I-2600J0D01*
G01X194100Y320000D02*
G03X194100I-4100J0D01*
G01X192600Y335000D02*
G03X192600I-2600J0D01*
G01X180100Y279000D02*
G03X180100I-4100J0D01*
G01X179923Y310110D02*
G03X179923I-2600J0D01*
G01X184100Y350000D02*
G03X184100I-4100J0D01*
G01X192100Y361000D02*
G03X192100I-4100J0D01*
G01X187600Y390000D02*
G03X187600I-2600J0D01*
G01X192600Y415000D02*
G03X192600I-2600J0D01*
G01X189100Y425000D02*
G03X189100I-4100J0D01*
G01X187600Y440000D02*
G03X187600I-2600J0D01*
G01X191600Y454000D02*
G03X191600I-2600J0D01*
G01X192600Y460000D02*
G03X192600I-2600J0D01*
G01X199100Y490000D02*
G03X199100I-4100J0D01*
G01X170000Y112000D02*
G03X170000I-4000J0D01*
G01X157600D02*
G03X157600I-2600J0D01*
G01Y129000D02*
G03X157600I-2600J0D01*
G01X161600Y144000D02*
G03X161600I-2600J0D01*
G01X158600Y157000D02*
G03X158600I-2600J0D01*
G01X164100Y190000D02*
G03X164100I-4100J0D01*
G01Y205000D02*
G03X164100I-4100J0D01*
G01Y220000D02*
G03X164100I-4100J0D01*
G01Y235000D02*
G03X164100I-4100J0D01*
G01X167600Y245000D02*
G03X167600I-2600J0D01*
G01X165100Y279000D02*
G03X165100I-4100J0D01*
G01X169100Y305000D02*
G03X169100I-4100J0D01*
G01Y320000D02*
G03X169100I-4100J0D01*
G01X172600Y335000D02*
G03X172600I-2600J0D01*
G01X176100Y362000D02*
G03X176100I-4100J0D01*
G01X177600Y415000D02*
G03X177600I-2600J0D01*
G01X184100Y490000D02*
G03X184100I-4100J0D01*
G01X174100Y425000D02*
G03X174100I-4100J0D01*
G01X174600Y442000D02*
G03X174600I-2600J0D01*
G01X168600Y457000D02*
G03X168600I-2600J0D01*
G01X160600Y288000D02*
G03X160600I-2600J0D01*
G01Y296000D02*
G03X160600I-2600J0D01*
G01X155600Y340000D02*
G03X155600I-2600J0D01*
G01X157600Y350000D02*
G03X157600I-2600J0D01*
G01X162600Y390000D02*
G03X162600I-2600J0D01*
G01Y415000D02*
G03X162600I-2600J0D01*
G01X169100Y465000D02*
G03X169100I-4100J0D01*
G01Y490000D02*
G03X169100I-4100J0D01*
G01X154600Y363000D02*
G03X154600I-2600J0D01*
G01X159100Y425000D02*
G03X159100I-4100J0D01*
G01X157600Y440000D02*
G03X157600I-2600J0D01*
G01X159100Y475000D02*
G03X159100I-4100J0D01*
G01X148000Y112000D02*
G03X148000I-4000J0D01*
G01X135600Y134000D02*
G03X135600I-2600J0D01*
G01X146500Y170000D02*
G03X146500I-6500J0D01*
G01X126500D02*
G03X126500I-6500J0D01*
G01X134750Y180000D02*
G03X134750I-4750J0D01*
G01X146500Y190000D02*
G03X146500I-6500J0D01*
G01X149100Y220000D02*
G03X149100I-4100J0D01*
G01Y235000D02*
G03X149100I-4100J0D01*
G01X147600Y245000D02*
G03X147600I-2600J0D01*
G01X114100Y180000D02*
G03X114100I-4100J0D01*
G01X126500Y190000D02*
G03X126500I-6500J0D01*
G01X134100Y200000D02*
G03X134100I-4100J0D01*
G01Y220000D02*
G03X134100I-4100J0D01*
G01Y235000D02*
G03X134100I-4100J0D01*
G01X132600Y245000D02*
G03X132600I-2600J0D01*
G01X137100Y283000D02*
G03X137100I-4100J0D01*
G01X140777Y307149D02*
G03X140777I-2600J0D01*
G01X140701Y312834D02*
G03X140701I-2600J0D01*
G01X140854Y318365D02*
G03X140854I-2600J0D01*
G01X135600Y338000D02*
G03X135600I-2600J0D01*
G01X138600Y362000D02*
G03X138600I-2600J0D01*
G01X146100Y380000D02*
G03X146100I-4100J0D01*
G01X149100Y415000D02*
G03X149100I-4100J0D01*
G01X144100Y425000D02*
G03X144100I-4100J0D01*
G01X132600Y360000D02*
G03X132600I-2600J0D01*
G01X134100Y375000D02*
G03X134100I-4100J0D01*
G01Y390000D02*
G03X134100I-4100J0D01*
G01Y405000D02*
G03X134100I-4100J0D01*
G01Y415000D02*
G03X134100I-4100J0D01*
G01X146500Y440000D02*
G03X146500I-6500J0D01*
G01X124100Y225000D02*
G03X124100I-4100J0D01*
G01X129100Y425000D02*
G03X129100I-4100J0D01*
G01X114100Y215000D02*
G03X114100I-4100J0D01*
G01Y230000D02*
G03X114100I-4100J0D01*
G01Y245000D02*
G03X114100I-4100J0D01*
G01Y255000D02*
G03X114100I-4100J0D01*
G01Y270000D02*
G03X114100I-4100J0D01*
G01Y285000D02*
G03X114100I-4100J0D01*
G01X112600Y300000D02*
G03X112600I-2600J0D01*
G01X114100Y315000D02*
G03X114100I-4100J0D01*
G01Y330000D02*
G03X114100I-4100J0D01*
G01X112400Y345500D02*
G03X112400I-2400J0D01*
G01Y360500D02*
G03X112400I-2400J0D01*
G01Y375500D02*
G03X112400I-2400J0D01*
G01Y390500D02*
G03X112400I-2400J0D01*
G01Y408000D02*
G03X112400I-2400J0D01*
G01X114100Y425000D02*
G03X114100I-4100J0D01*
G01X126500Y440000D02*
G03X126500I-6500J0D01*
G01X134750Y450000D02*
G03X134750I-4750J0D01*
G01X146500Y460000D02*
G03X146500I-6500J0D01*
G01X154100Y490000D02*
G03X154100I-4100J0D01*
G01X139100D02*
G03X139100I-4100J0D01*
G01X114100Y445000D02*
G03X114100I-4100J0D01*
G01X126500Y460000D02*
G03X126500I-6500J0D01*
G01X450000Y144000D02*
Y143000D01*
X446000Y140000D02*
X447000D01*
X450000Y136000D02*
Y137000D01*
X454000Y140000D02*
X453000D01*
X470000Y144000D02*
Y143000D01*
X466000Y140000D02*
X467000D01*
X470000Y136000D02*
Y137000D01*
X474000Y140000D02*
X473000D01*
X383000Y384000D02*
Y383000D01*
X379000Y380000D02*
X380000D01*
X383000Y376000D02*
Y377000D01*
X387000Y380000D02*
X386000D01*
X383000Y404000D02*
Y403000D01*
X379000Y400000D02*
X380000D01*
X383000Y396000D02*
Y397000D01*
X387000Y400000D02*
X386000D01*
X127250Y485000D02*
X126250D01*
X115000Y472750D02*
Y473750D01*
X126500Y440000D02*
X125500D01*
X120000Y446500D02*
Y445500D01*
X113500Y440000D02*
X114500D01*
X120000Y433500D02*
Y434500D01*
X127250Y115000D02*
X126250D01*
X115000Y127250D02*
Y126250D01*
X146500Y440000D02*
X145500D01*
X140000Y446500D02*
Y445500D01*
X133500Y440000D02*
X134500D01*
X140000Y433500D02*
Y434500D01*
X146500Y460000D02*
X145500D01*
X140000Y466500D02*
Y465500D01*
X133500Y460000D02*
X134500D01*
X140000Y453500D02*
Y454500D01*
X126500Y460000D02*
X125500D01*
X120000Y466500D02*
Y465500D01*
X113500Y460000D02*
X114500D01*
X120000Y453500D02*
Y454500D01*
X146500Y170000D02*
X145500D01*
X140000Y176500D02*
Y175500D01*
X133500Y170000D02*
X134500D01*
X140000Y163500D02*
Y164500D01*
X126500Y170000D02*
X125500D01*
X120000Y176500D02*
Y175500D01*
X113500Y170000D02*
X114500D01*
X120000Y163500D02*
Y164500D01*
X146500Y190000D02*
X145500D01*
X140000Y196500D02*
Y195500D01*
X133500Y190000D02*
X134500D01*
X140000Y183500D02*
Y184500D01*
X126500Y190000D02*
X125500D01*
X120000Y196500D02*
Y195500D01*
X113500Y190000D02*
X114500D01*
X120000Y183500D02*
Y184500D01*
X500765Y150011D02*
X499665D01*
X498165Y152611D02*
Y151511D01*
X495565Y150011D02*
X496665D01*
X498165Y147411D02*
Y148511D01*
X462600Y155000D02*
X461500D01*
X460000Y157600D02*
Y156500D01*
X457400Y155000D02*
X458500D01*
X460000Y152400D02*
Y153500D01*
X411600Y231000D02*
X410500D01*
X409000Y233600D02*
Y232500D01*
X406400Y231000D02*
X407500D01*
X409000Y228400D02*
Y229500D01*
X403578Y233061D02*
X402478D01*
X400978Y235661D02*
Y234561D01*
X398378Y233061D02*
X399478D01*
X400978Y230461D02*
Y231561D01*
X294100Y175000D02*
X293000D01*
X290000Y179100D02*
Y178000D01*
X285900Y175000D02*
X287000D01*
X290000Y170900D02*
Y172000D01*
X229100Y190000D02*
X228000D01*
X225000Y194100D02*
Y193000D01*
X220900Y190000D02*
X222000D01*
X225000Y185900D02*
Y187000D01*
X234600Y150000D02*
X233500D01*
X232000Y152600D02*
Y151500D01*
X229400Y150000D02*
X230500D01*
X232000Y147400D02*
Y148500D01*
X262600Y143000D02*
X261500D01*
X260000Y145600D02*
Y144500D01*
X257400Y143000D02*
X258500D01*
X260000Y140400D02*
Y141500D01*
X352000Y151600D02*
Y150500D01*
X349400Y149000D02*
X350500D01*
X352000Y146400D02*
Y147500D01*
X134100Y200000D02*
X133000D01*
X130000Y204100D02*
Y203000D01*
X125900Y200000D02*
X127000D01*
X130000Y195900D02*
Y197000D01*
X317600Y200000D02*
X316500D01*
X315000Y202600D02*
Y201500D01*
X312400Y200000D02*
X313500D01*
X315000Y197400D02*
Y198500D01*
X319100Y210000D02*
X318000D01*
X315000Y214100D02*
Y213000D01*
X310900Y210000D02*
X312000D01*
X315000Y205900D02*
Y207000D01*
X309100Y205000D02*
X308000D01*
X305000Y209100D02*
Y208000D01*
X300900Y205000D02*
X302000D01*
X305000Y200900D02*
Y202000D01*
X307600Y220000D02*
X306500D01*
X305000Y222600D02*
Y221500D01*
X302400Y220000D02*
X303500D01*
X305000Y217400D02*
Y218500D01*
X297600Y195000D02*
X296500D01*
X295000Y197600D02*
Y196500D01*
X292400Y195000D02*
X293500D01*
X295000Y192400D02*
Y193500D01*
X299100Y210000D02*
X298000D01*
X295000Y214100D02*
Y213000D01*
X290900Y210000D02*
X292000D01*
X295000Y205900D02*
Y207000D01*
X299100Y225000D02*
X298000D01*
X295000Y229100D02*
Y228000D01*
X290900Y225000D02*
X292000D01*
X295000Y220900D02*
Y222000D01*
X299100Y240000D02*
X298000D01*
X295000Y244100D02*
Y243000D01*
X290900Y240000D02*
X292000D01*
X295000Y235900D02*
Y237000D01*
X297600Y255000D02*
X296500D01*
X295000Y257600D02*
Y256500D01*
X292400Y255000D02*
X293500D01*
X295000Y252400D02*
Y253500D01*
X229100Y205000D02*
X228000D01*
X225000Y209100D02*
Y208000D01*
X220900Y205000D02*
X222000D01*
X225000Y200900D02*
Y202000D01*
X209100Y185000D02*
X208000D01*
X205000Y189100D02*
Y188000D01*
X200900Y185000D02*
X202000D01*
X205000Y180900D02*
Y182000D01*
X209100Y200000D02*
X208000D01*
X205000Y204100D02*
Y203000D01*
X200900Y200000D02*
X202000D01*
X205000Y195900D02*
Y197000D01*
X267600Y195000D02*
X266500D01*
X265000Y197600D02*
Y196500D01*
X262400Y195000D02*
X263500D01*
X265000Y192400D02*
Y193500D01*
X254100Y205000D02*
X253000D01*
X250000Y209100D02*
Y208000D01*
X245900Y205000D02*
X247000D01*
X250000Y200900D02*
Y202000D01*
X264100Y215000D02*
X263000D01*
X260000Y219100D02*
Y218000D01*
X255900Y215000D02*
X257000D01*
X260000Y210900D02*
Y212000D01*
X267600Y205000D02*
X266500D01*
X265000Y207600D02*
Y206500D01*
X262400Y205000D02*
X263500D01*
X265000Y202400D02*
Y203500D01*
X252600Y220000D02*
X251500D01*
X250000Y222600D02*
Y221500D01*
X247400Y220000D02*
X248500D01*
X250000Y217400D02*
Y218500D01*
X272600Y245000D02*
X271500D01*
X270000Y247600D02*
Y246500D01*
X267400Y245000D02*
X268500D01*
X270000Y242400D02*
Y243500D01*
X259100Y245000D02*
X258000D01*
X255000Y249100D02*
Y248000D01*
X250900Y245000D02*
X252000D01*
X255000Y240900D02*
Y242000D01*
X232600Y245000D02*
X231500D01*
X230000Y247600D02*
Y246500D01*
X227400Y245000D02*
X228500D01*
X230000Y242400D02*
Y243500D01*
X219100Y245000D02*
X218000D01*
X215000Y249100D02*
Y248000D01*
X210900Y245000D02*
X212000D01*
X215000Y240900D02*
Y242000D01*
X202600Y245000D02*
X201500D01*
X200000Y247600D02*
Y246500D01*
X197400Y245000D02*
X198500D01*
X200000Y242400D02*
Y243500D01*
X124100Y225000D02*
X123000D01*
X120000Y229100D02*
Y228000D01*
X115900Y225000D02*
X117000D01*
X120000Y220900D02*
Y222000D01*
X134100Y220000D02*
X133000D01*
X130000Y224100D02*
Y223000D01*
X125900Y220000D02*
X127000D01*
X130000Y215900D02*
Y217000D01*
X134100Y235000D02*
X133000D01*
X130000Y239100D02*
Y238000D01*
X125900Y235000D02*
X127000D01*
X130000Y230900D02*
Y232000D01*
X149100Y220000D02*
X148000D01*
X145000Y224100D02*
Y223000D01*
X140900Y220000D02*
X142000D01*
X145000Y215900D02*
Y217000D01*
X149100Y235000D02*
X148000D01*
X145000Y239100D02*
Y238000D01*
X140900Y235000D02*
X142000D01*
X145000Y230900D02*
Y232000D01*
X164100Y235000D02*
X163000D01*
X160000Y239100D02*
Y238000D01*
X155900Y235000D02*
X157000D01*
X160000Y230900D02*
Y232000D01*
X164100Y220000D02*
X163000D01*
X160000Y224100D02*
Y223000D01*
X155900Y220000D02*
X157000D01*
X160000Y215900D02*
Y217000D01*
X164100Y205000D02*
X163000D01*
X160000Y209100D02*
Y208000D01*
X155900Y205000D02*
X157000D01*
X160000Y200900D02*
Y202000D01*
X164100Y190000D02*
X163000D01*
X160000Y194100D02*
Y193000D01*
X155900Y190000D02*
X157000D01*
X160000Y185900D02*
Y187000D01*
X177600Y175000D02*
X176500D01*
X175000Y177600D02*
Y176500D01*
X172400Y175000D02*
X173500D01*
X175000Y172400D02*
Y173500D01*
X114100Y180000D02*
X113000D01*
X110000Y184100D02*
Y183000D01*
X105900Y180000D02*
X107000D01*
X110000Y175900D02*
Y177000D01*
X147600Y245000D02*
X146500D01*
X145000Y247600D02*
Y246500D01*
X142400Y245000D02*
X143500D01*
X145000Y242400D02*
Y243500D01*
X182600Y245000D02*
X181500D01*
X180000Y247600D02*
Y246500D01*
X177400Y245000D02*
X178500D01*
X180000Y242400D02*
Y243500D01*
X167600Y245000D02*
X166500D01*
X165000Y247600D02*
Y246500D01*
X162400Y245000D02*
X163500D01*
X165000Y242400D02*
Y243500D01*
X132600Y245000D02*
X131500D01*
X130000Y247600D02*
Y246500D01*
X127400Y245000D02*
X128500D01*
X130000Y242400D02*
Y243500D01*
X114100Y215000D02*
X113000D01*
X110000Y219100D02*
Y218000D01*
X105900Y215000D02*
X107000D01*
X110000Y210900D02*
Y212000D01*
X114100Y230000D02*
X113000D01*
X110000Y234100D02*
Y233000D01*
X105900Y230000D02*
X107000D01*
X110000Y225900D02*
Y227000D01*
X114100Y245000D02*
X113000D01*
X110000Y249100D02*
Y248000D01*
X105900Y245000D02*
X107000D01*
X110000Y240900D02*
Y242000D01*
X252600Y325000D02*
X251500D01*
X250000Y327600D02*
Y326500D01*
X247400Y325000D02*
X248500D01*
X250000Y322400D02*
Y323500D01*
X272600Y325000D02*
X271500D01*
X270000Y327600D02*
Y326500D01*
X267400Y325000D02*
X268500D01*
X270000Y322400D02*
Y323500D01*
X292600Y325000D02*
X291500D01*
X290000Y327600D02*
Y326500D01*
X287400Y325000D02*
X288500D01*
X290000Y322400D02*
Y323500D01*
X307600Y325000D02*
X306500D01*
X305000Y327600D02*
Y326500D01*
X302400Y325000D02*
X303500D01*
X305000Y322400D02*
Y323500D01*
X322600Y335000D02*
X321500D01*
X320000Y337600D02*
Y336500D01*
X317400Y335000D02*
X318500D01*
X320000Y332400D02*
Y333500D01*
X312600Y335000D02*
X311500D01*
X310000Y337600D02*
Y336500D01*
X307400Y335000D02*
X308500D01*
X310000Y332400D02*
Y333500D01*
X302600Y335000D02*
X301500D01*
X300000Y337600D02*
Y336500D01*
X297400Y335000D02*
X298500D01*
X300000Y332400D02*
Y333500D01*
X282600Y335000D02*
X281500D01*
X280000Y337600D02*
Y336500D01*
X277400Y335000D02*
X278500D01*
X280000Y332400D02*
Y333500D01*
X267600Y335000D02*
X266500D01*
X265000Y337600D02*
Y336500D01*
X262400Y335000D02*
X263500D01*
X265000Y332400D02*
Y333500D01*
X252600Y335000D02*
X251500D01*
X250000Y337600D02*
Y336500D01*
X247400Y335000D02*
X248500D01*
X250000Y332400D02*
Y333500D01*
X237600Y335000D02*
X236500D01*
X235000Y337600D02*
Y336500D01*
X232400Y335000D02*
X233500D01*
X235000Y332400D02*
Y333500D01*
X222600Y335000D02*
X221500D01*
X220000Y337600D02*
Y336500D01*
X217400Y335000D02*
X218500D01*
X220000Y332400D02*
Y333500D01*
X207600Y335000D02*
X206500D01*
X205000Y337600D02*
Y336500D01*
X202400Y335000D02*
X203500D01*
X205000Y332400D02*
Y333500D01*
X192600Y335000D02*
X191500D01*
X190000Y337600D02*
Y336500D01*
X187400Y335000D02*
X188500D01*
X190000Y332400D02*
Y333500D01*
X172600Y335000D02*
X171500D01*
X170000Y337600D02*
Y336500D01*
X167400Y335000D02*
X168500D01*
X170000Y332400D02*
Y333500D01*
X227600Y310000D02*
X226500D01*
X225000Y312600D02*
Y311500D01*
X222400Y310000D02*
X223500D01*
X225000Y307400D02*
Y308500D01*
X229100Y320000D02*
X228000D01*
X225000Y324100D02*
Y323000D01*
X220900Y320000D02*
X222000D01*
X225000Y315900D02*
Y317000D01*
X237600Y320000D02*
X236500D01*
X235000Y322600D02*
Y321500D01*
X232400Y320000D02*
X233500D01*
X235000Y317400D02*
Y318500D01*
X239100Y310000D02*
X238000D01*
X235000Y314100D02*
Y313000D01*
X230900Y310000D02*
X232000D01*
X235000Y305900D02*
Y307000D01*
X237600Y300000D02*
X236500D01*
X235000Y302600D02*
Y301500D01*
X232400Y300000D02*
X233500D01*
X235000Y297400D02*
Y298500D01*
X229100Y300000D02*
X228000D01*
X225000Y304100D02*
Y303000D01*
X220900Y300000D02*
X222000D01*
X225000Y295900D02*
Y297000D01*
X207600Y300000D02*
X206500D01*
X205000Y302600D02*
Y301500D01*
X202400Y300000D02*
X203500D01*
X205000Y297400D02*
Y298500D01*
X192600Y300000D02*
X191500D01*
X190000Y302600D02*
Y301500D01*
X187400Y300000D02*
X188500D01*
X190000Y297400D02*
Y298500D01*
X194100Y320000D02*
X193000D01*
X190000Y324100D02*
Y323000D01*
X185900Y320000D02*
X187000D01*
X190000Y315900D02*
Y317000D01*
X169100Y305000D02*
X168000D01*
X165000Y309100D02*
Y308000D01*
X160900Y305000D02*
X162000D01*
X165000Y300900D02*
Y302000D01*
X169100Y320000D02*
X168000D01*
X165000Y324100D02*
Y323000D01*
X160900Y320000D02*
X162000D01*
X165000Y315900D02*
Y317000D01*
X207600Y285000D02*
X206500D01*
X205000Y287600D02*
Y286500D01*
X202400Y285000D02*
X203500D01*
X205000Y282400D02*
Y283500D01*
X237600Y260000D02*
X236500D01*
X235000Y262600D02*
Y261500D01*
X232400Y260000D02*
X233500D01*
X235000Y257400D02*
Y258500D01*
X227600Y260000D02*
X226500D01*
X225000Y262600D02*
Y261500D01*
X222400Y260000D02*
X223500D01*
X225000Y257400D02*
Y258500D01*
X287600Y270000D02*
X286500D01*
X285000Y272600D02*
Y271500D01*
X282400Y270000D02*
X283500D01*
X285000Y267400D02*
Y268500D01*
X299100Y270000D02*
X298000D01*
X295000Y274100D02*
Y273000D01*
X290900Y270000D02*
X292000D01*
X295000Y265900D02*
Y267000D01*
X302600Y260000D02*
X301500D01*
X300000Y262600D02*
Y261500D01*
X297400Y260000D02*
X298500D01*
X300000Y257400D02*
Y258500D01*
X287600Y260000D02*
X286500D01*
X285000Y262600D02*
Y261500D01*
X282400Y260000D02*
X283500D01*
X285000Y257400D02*
Y258500D01*
X114100Y255000D02*
X113000D01*
X110000Y259100D02*
Y258000D01*
X105900Y255000D02*
X107000D01*
X110000Y250900D02*
Y252000D01*
X114100Y270000D02*
X113000D01*
X110000Y274100D02*
Y273000D01*
X105900Y270000D02*
X107000D01*
X110000Y265900D02*
Y267000D01*
X114100Y285000D02*
X113000D01*
X110000Y289100D02*
Y288000D01*
X105900Y285000D02*
X107000D01*
X110000Y280900D02*
Y282000D01*
X112600Y300000D02*
X111500D01*
X110000Y302600D02*
Y301500D01*
X107400Y300000D02*
X108500D01*
X110000Y297400D02*
Y298500D01*
X114100Y315000D02*
X113000D01*
X110000Y319100D02*
Y318000D01*
X105900Y315000D02*
X107000D01*
X110000Y310900D02*
Y312000D01*
X114100Y330000D02*
X113000D01*
X110000Y334100D02*
Y333000D01*
X105900Y330000D02*
X107000D01*
X110000Y325900D02*
Y327000D01*
X262600Y350000D02*
X261500D01*
X260000Y352600D02*
Y351500D01*
X257400Y350000D02*
X258500D01*
X260000Y347400D02*
Y348500D01*
X237600Y350000D02*
X236500D01*
X235000Y352600D02*
Y351500D01*
X232400Y350000D02*
X233500D01*
X235000Y347400D02*
Y348500D01*
X157600Y350000D02*
X156500D01*
X155000Y352600D02*
Y351500D01*
X152400Y350000D02*
X153500D01*
X155000Y347400D02*
Y348500D01*
X184100Y350000D02*
X183000D01*
X180000Y354100D02*
Y353000D01*
X175900Y350000D02*
X177000D01*
X180000Y345900D02*
Y347000D01*
X162600Y390000D02*
X161500D01*
X160000Y392600D02*
Y391500D01*
X157400Y390000D02*
X158500D01*
X160000Y387400D02*
Y388500D01*
X187600Y390000D02*
X186500D01*
X185000Y392600D02*
Y391500D01*
X182400Y390000D02*
X183500D01*
X185000Y387400D02*
Y388500D01*
X282600Y350000D02*
X281500D01*
X280000Y352600D02*
Y351500D01*
X277400Y350000D02*
X278500D01*
X280000Y347400D02*
Y348500D01*
X262600Y370000D02*
X261500D01*
X260000Y372600D02*
Y371500D01*
X257400Y370000D02*
X258500D01*
X260000Y367400D02*
Y368500D01*
X274100Y360000D02*
X273000D01*
X270000Y364100D02*
Y363000D01*
X265900Y360000D02*
X267000D01*
X270000Y355900D02*
Y357000D01*
X314100Y390000D02*
X313000D01*
X310000Y394100D02*
Y393000D01*
X305900Y390000D02*
X307000D01*
X310000Y385900D02*
Y387000D01*
X314100Y375000D02*
X313000D01*
X310000Y379100D02*
Y378000D01*
X305900Y375000D02*
X307000D01*
X310000Y370900D02*
Y372000D01*
X314100Y360000D02*
X313000D01*
X310000Y364100D02*
Y363000D01*
X305900Y360000D02*
X307000D01*
X310000Y355900D02*
Y357000D01*
X299100Y360000D02*
X298000D01*
X295000Y364100D02*
Y363000D01*
X290900Y360000D02*
X292000D01*
X295000Y355900D02*
Y357000D01*
X299100Y375000D02*
X298000D01*
X295000Y379100D02*
Y378000D01*
X290900Y375000D02*
X292000D01*
X295000Y370900D02*
Y372000D01*
X299100Y390000D02*
X298000D01*
X295000Y394100D02*
Y393000D01*
X290900Y390000D02*
X292000D01*
X295000Y385900D02*
Y387000D01*
X132600Y360000D02*
X131500D01*
X130000Y362600D02*
Y361500D01*
X127400Y360000D02*
X128500D01*
X130000Y357400D02*
Y358500D01*
X134100Y375000D02*
X133000D01*
X130000Y379100D02*
Y378000D01*
X125900Y375000D02*
X127000D01*
X130000Y370900D02*
Y372000D01*
X134100Y390000D02*
X133000D01*
X130000Y394100D02*
Y393000D01*
X125900Y390000D02*
X127000D01*
X130000Y385900D02*
Y387000D01*
X134100Y405000D02*
X133000D01*
X130000Y409100D02*
Y408000D01*
X125900Y405000D02*
X127000D01*
X130000Y400900D02*
Y402000D01*
X317600Y415000D02*
X316500D01*
X315000Y417600D02*
Y416500D01*
X312400Y415000D02*
X313500D01*
X315000Y412400D02*
Y413500D01*
X302600Y415000D02*
X301500D01*
X300000Y417600D02*
Y416500D01*
X297400Y415000D02*
X298500D01*
X300000Y412400D02*
Y413500D01*
X252600Y415000D02*
X251500D01*
X250000Y417600D02*
Y416500D01*
X247400Y415000D02*
X248500D01*
X250000Y412400D02*
Y413500D01*
X237600Y415000D02*
X236500D01*
X235000Y417600D02*
Y416500D01*
X232400Y415000D02*
X233500D01*
X235000Y412400D02*
Y413500D01*
X222600Y415000D02*
X221500D01*
X220000Y417600D02*
Y416500D01*
X217400Y415000D02*
X218500D01*
X220000Y412400D02*
Y413500D01*
X207600Y415000D02*
X206500D01*
X205000Y417600D02*
Y416500D01*
X202400Y415000D02*
X203500D01*
X205000Y412400D02*
Y413500D01*
X192600Y415000D02*
X191500D01*
X190000Y417600D02*
Y416500D01*
X187400Y415000D02*
X188500D01*
X190000Y412400D02*
Y413500D01*
X177600Y415000D02*
X176500D01*
X175000Y417600D02*
Y416500D01*
X172400Y415000D02*
X173500D01*
X175000Y412400D02*
Y413500D01*
X162600Y415000D02*
X161500D01*
X160000Y417600D02*
Y416500D01*
X157400Y415000D02*
X158500D01*
X160000Y412400D02*
Y413500D01*
X149100Y415000D02*
X148000D01*
X145000Y419100D02*
Y418000D01*
X140900Y415000D02*
X142000D01*
X145000Y410900D02*
Y412000D01*
X134100Y415000D02*
X133000D01*
X130000Y419100D02*
Y418000D01*
X125900Y415000D02*
X127000D01*
X130000Y410900D02*
Y412000D01*
X312600Y440000D02*
X311500D01*
X310000Y442600D02*
Y441500D01*
X307400Y440000D02*
X308500D01*
X310000Y437400D02*
Y438500D01*
X292600Y440000D02*
X291500D01*
X290000Y442600D02*
Y441500D01*
X287400Y440000D02*
X288500D01*
X290000Y437400D02*
Y438500D01*
X157600Y440000D02*
X156500D01*
X155000Y442600D02*
Y441500D01*
X152400Y440000D02*
X153500D01*
X155000Y437400D02*
Y438500D01*
X294100Y455000D02*
X293000D01*
X290000Y459100D02*
Y458000D01*
X285900Y455000D02*
X287000D01*
X290000Y450900D02*
Y452000D01*
X314100Y475000D02*
X313000D01*
X310000Y479100D02*
Y478000D01*
X305900Y475000D02*
X307000D01*
X310000Y470900D02*
Y472000D01*
X314100Y455000D02*
X313000D01*
X310000Y459100D02*
Y458000D01*
X305900Y455000D02*
X307000D01*
X310000Y450900D02*
Y452000D01*
X304100Y465000D02*
X303000D01*
X300000Y469100D02*
Y468000D01*
X295900Y465000D02*
X297000D01*
X300000Y460900D02*
Y462000D01*
X294100Y475000D02*
X293000D01*
X290000Y479100D02*
Y478000D01*
X285900Y475000D02*
X287000D01*
X290000Y470900D02*
Y472000D01*
X169100Y465000D02*
X168000D01*
X165000Y469100D02*
Y468000D01*
X160900Y465000D02*
X162000D01*
X165000Y460900D02*
Y462000D01*
X159100Y475000D02*
X158000D01*
X155000Y479100D02*
Y478000D01*
X150900Y475000D02*
X152000D01*
X155000Y470900D02*
Y472000D01*
X319100Y425000D02*
X318000D01*
X315000Y429100D02*
Y428000D01*
X310900Y425000D02*
X312000D01*
X315000Y420900D02*
Y422000D01*
X304100Y425000D02*
X303000D01*
X300000Y429100D02*
Y428000D01*
X295900Y425000D02*
X297000D01*
X300000Y420900D02*
Y422000D01*
X289100Y425000D02*
X288000D01*
X285000Y429100D02*
Y428000D01*
X280900Y425000D02*
X282000D01*
X285000Y420900D02*
Y422000D01*
X264100Y425000D02*
X263000D01*
X260000Y429100D02*
Y428000D01*
X255900Y425000D02*
X257000D01*
X260000Y420900D02*
Y422000D01*
X249100Y425000D02*
X248000D01*
X245000Y429100D02*
Y428000D01*
X240900Y425000D02*
X242000D01*
X245000Y420900D02*
Y422000D01*
X234100Y425000D02*
X233000D01*
X230000Y429100D02*
Y428000D01*
X225900Y425000D02*
X227000D01*
X230000Y420900D02*
Y422000D01*
X219100Y425000D02*
X218000D01*
X215000Y429100D02*
Y428000D01*
X210900Y425000D02*
X212000D01*
X215000Y420900D02*
Y422000D01*
X204100Y425000D02*
X203000D01*
X200000Y429100D02*
Y428000D01*
X195900Y425000D02*
X197000D01*
X200000Y420900D02*
Y422000D01*
X189100Y425000D02*
X188000D01*
X185000Y429100D02*
Y428000D01*
X180900Y425000D02*
X182000D01*
X185000Y420900D02*
Y422000D01*
X174100Y425000D02*
X173000D01*
X170000Y429100D02*
Y428000D01*
X165900Y425000D02*
X167000D01*
X170000Y420900D02*
Y422000D01*
X159100Y425000D02*
X158000D01*
X155000Y429100D02*
Y428000D01*
X150900Y425000D02*
X152000D01*
X155000Y420900D02*
Y422000D01*
X144100Y425000D02*
X143000D01*
X140000Y429100D02*
Y428000D01*
X135900Y425000D02*
X137000D01*
X140000Y420900D02*
Y422000D01*
X129100Y425000D02*
X128000D01*
X125000Y429100D02*
Y428000D01*
X120900Y425000D02*
X122000D01*
X125000Y420900D02*
Y422000D01*
X114100Y445000D02*
X113000D01*
X110000Y449100D02*
Y448000D01*
X105900Y445000D02*
X107000D01*
X110000Y440900D02*
Y442000D01*
X334100Y490000D02*
X333000D01*
X330000Y494100D02*
Y493000D01*
X325900Y490000D02*
X327000D01*
X330000Y485900D02*
Y487000D01*
X319100Y490000D02*
X318000D01*
X315000Y494100D02*
Y493000D01*
X310900Y490000D02*
X312000D01*
X315000Y485900D02*
Y487000D01*
X304100Y490000D02*
X303000D01*
X300000Y494100D02*
Y493000D01*
X295900Y490000D02*
X297000D01*
X300000Y485900D02*
Y487000D01*
X289100Y490000D02*
X288000D01*
X285000Y494100D02*
Y493000D01*
X280900Y490000D02*
X282000D01*
X285000Y485900D02*
Y487000D01*
X274100Y490000D02*
X273000D01*
X270000Y494100D02*
Y493000D01*
X265900Y490000D02*
X267000D01*
X270000Y485900D02*
Y487000D01*
X259100Y490000D02*
X258000D01*
X255000Y494100D02*
Y493000D01*
X250900Y490000D02*
X252000D01*
X255000Y485900D02*
Y487000D01*
X244100Y490000D02*
X243000D01*
X240000Y494100D02*
Y493000D01*
X235900Y490000D02*
X237000D01*
X240000Y485900D02*
Y487000D01*
X229100Y490000D02*
X228000D01*
X225000Y494100D02*
Y493000D01*
X220900Y490000D02*
X222000D01*
X225000Y485900D02*
Y487000D01*
X214100Y490000D02*
X213000D01*
X210000Y494100D02*
Y493000D01*
X205900Y490000D02*
X207000D01*
X210000Y485900D02*
Y487000D01*
X199100Y490000D02*
X198000D01*
X195000Y494100D02*
Y493000D01*
X190900Y490000D02*
X192000D01*
X195000Y485900D02*
Y487000D01*
X184100Y490000D02*
X183000D01*
X180000Y494100D02*
Y493000D01*
X175900Y490000D02*
X177000D01*
X180000Y485900D02*
Y487000D01*
X169100Y490000D02*
X168000D01*
X165000Y494100D02*
Y493000D01*
X160900Y490000D02*
X162000D01*
X165000Y485900D02*
Y487000D01*
X154100Y490000D02*
X153000D01*
X150000Y494100D02*
Y493000D01*
X145900Y490000D02*
X147000D01*
X150000Y485900D02*
Y487000D01*
X187600Y440000D02*
X186500D01*
X185000Y442600D02*
Y441500D01*
X182400Y440000D02*
X183500D01*
X185000Y437400D02*
Y438500D01*
X237600Y445000D02*
X236500D01*
X235000Y447600D02*
Y446500D01*
X232400Y445000D02*
X233500D01*
X219100D02*
X218000D01*
X215000Y449100D02*
Y448000D01*
X210900Y445000D02*
X212000D01*
X215000Y440900D02*
Y442000D01*
X239100Y460000D02*
X238000D01*
X235000Y464100D02*
Y463000D01*
X230900Y460000D02*
X232000D01*
X235000Y455900D02*
Y457000D01*
X219100Y455000D02*
X218000D01*
X215000Y459100D02*
Y458000D01*
X210900Y455000D02*
X212000D01*
X215000Y450900D02*
Y452000D01*
X192600Y460000D02*
X191500D01*
X190000Y462600D02*
Y461500D01*
X187400Y460000D02*
X188500D01*
X190000Y457400D02*
Y458500D01*
X264100Y460000D02*
X263000D01*
X260000Y464100D02*
Y463000D01*
X255900Y460000D02*
X257000D01*
X260000Y455900D02*
Y457000D01*
X354100Y455000D02*
X353000D01*
X350000Y459100D02*
Y458000D01*
X345900Y455000D02*
X347000D01*
X354100Y490000D02*
X353000D01*
X350000Y494100D02*
Y493000D01*
X345900Y490000D02*
X347000D01*
X350000Y485900D02*
Y487000D01*
X114100Y425000D02*
X113000D01*
X110000Y429100D02*
Y428000D01*
X105900Y425000D02*
X107000D01*
X110000Y420900D02*
Y422000D01*
X277600Y285000D02*
X276500D01*
X275000Y287600D02*
Y286500D01*
X272400Y285000D02*
X273500D01*
X275000Y282400D02*
Y283500D01*
X114100Y470000D02*
X113000D01*
X105900D02*
X107000D01*
X110000Y465900D02*
Y467000D01*
X140701Y312834D02*
X139601D01*
X138101Y315434D02*
Y314334D01*
X135501Y312834D02*
X136601D01*
X138101Y310234D02*
Y311334D01*
X140854Y318365D02*
X139754D01*
X138254Y320965D02*
Y319865D01*
X135654Y318365D02*
X136754D01*
X138254Y315765D02*
Y316865D01*
X313600Y149000D02*
X312500D01*
X311000Y151600D02*
Y150500D01*
X308400Y149000D02*
X309500D01*
X311000Y146400D02*
Y147500D01*
X300600Y126000D02*
X299500D01*
X298000Y128600D02*
Y127500D01*
X295400Y126000D02*
X296500D01*
X298000Y123400D02*
Y124500D01*
X276600Y143000D02*
X275500D01*
X274000Y145600D02*
Y144500D01*
X271400Y143000D02*
X272500D01*
X274000Y140400D02*
Y141500D01*
X139100Y490000D02*
X138000D01*
X135000Y494100D02*
Y493000D01*
X130900Y490000D02*
X132000D01*
X135000Y485900D02*
Y487000D01*
X135600Y134000D02*
X134500D01*
X133000Y136600D02*
Y135500D01*
X130400Y134000D02*
X131500D01*
X133000Y131400D02*
Y132500D01*
X181600Y124000D02*
X180500D01*
X179000Y126600D02*
Y125500D01*
X176400Y124000D02*
X177500D01*
X179000Y121400D02*
Y122500D01*
X161600Y144000D02*
X160500D01*
X159000Y146600D02*
Y145500D01*
X156400Y144000D02*
X157500D01*
X159000Y141400D02*
Y142500D01*
X229100Y355000D02*
X228000D01*
X225000Y359100D02*
Y358000D01*
X220900Y355000D02*
X222000D01*
X225000Y350900D02*
Y352000D01*
X219100Y355000D02*
X218000D01*
X215000Y359100D02*
Y358000D01*
X210900Y355000D02*
X212000D01*
X215000Y350900D02*
Y352000D01*
X256100Y361000D02*
X255000D01*
X252000Y365100D02*
Y364000D01*
X247900Y361000D02*
X249000D01*
X252000Y356900D02*
Y358000D01*
X192100Y361000D02*
X191000D01*
X188000Y365100D02*
Y364000D01*
X183900Y361000D02*
X185000D01*
X188000Y356900D02*
Y358000D01*
X256600Y455000D02*
X255500D01*
X254000Y457600D02*
Y456500D01*
X251400Y455000D02*
X252500D01*
X254000Y452400D02*
Y453500D01*
X146100Y380000D02*
X145000D01*
X142000Y384100D02*
Y383000D01*
X137900Y380000D02*
X139000D01*
X142000Y375900D02*
Y377000D01*
X176100Y362000D02*
X175000D01*
X172000Y366100D02*
Y365000D01*
X167900Y362000D02*
X169000D01*
X172000Y357900D02*
Y359000D01*
X277100Y393000D02*
X276000D01*
X273000Y397100D02*
Y396000D01*
X268900Y393000D02*
X270000D01*
X273000Y388900D02*
Y390000D01*
X237600Y440000D02*
X236500D01*
X232400D02*
X233500D01*
X235000Y437400D02*
Y438500D01*
X191600Y454000D02*
X190500D01*
X189000Y456600D02*
Y455500D01*
X186400Y454000D02*
X187500D01*
X189000Y451400D02*
Y452500D01*
X137100Y283000D02*
X136000D01*
X133000Y287100D02*
Y286000D01*
X128900Y283000D02*
X130000D01*
X133000Y278900D02*
Y280000D01*
X180100Y279000D02*
X179000D01*
X176000Y283100D02*
Y282000D01*
X171900Y279000D02*
X173000D01*
X176000Y274900D02*
Y276000D01*
X277600Y460000D02*
X276500D01*
X275000Y462600D02*
Y461500D01*
X272400Y460000D02*
X273500D01*
X275000Y457400D02*
Y458500D01*
X165100Y279000D02*
X164000D01*
X161000Y283100D02*
Y282000D01*
X156900Y279000D02*
X158000D01*
X161000Y274900D02*
Y276000D01*
X140777Y307149D02*
X139677D01*
X138177Y309749D02*
Y308649D01*
X135577Y307149D02*
X136677D01*
X138177Y304549D02*
Y305649D01*
G54D13*
X587000Y472000D03*
X567000D03*
X680000Y350000D03*
X383000Y400000D03*
Y380000D03*
X450000Y140000D03*
X470000D03*
X350000Y445000D03*
Y435000D03*
Y400000D03*
Y330000D03*
X340000Y320000D03*
X110000Y180000D03*
X205000Y185000D03*
X290000Y175000D03*
X130000Y200000D03*
X160000Y205000D03*
Y190000D03*
X205000Y200000D03*
X225000Y190000D03*
Y205000D03*
X250000D03*
X305000D03*
X120000Y225000D03*
X110000Y215000D03*
X130000Y220000D03*
X145000D03*
X160000D03*
X260000Y215000D03*
X295000Y210000D03*
Y225000D03*
X315000Y210000D03*
X110000Y230000D03*
Y245000D03*
X130000Y235000D03*
X145000D03*
X160000D03*
X215000Y245000D03*
X255000D03*
X295000Y240000D03*
X110000Y255000D03*
Y270000D03*
Y285000D03*
X133000Y283000D03*
X161000Y279000D03*
X176000D03*
X295000Y270000D03*
X165000Y305000D03*
X225000Y300000D03*
X110000Y315000D03*
X165000Y320000D03*
X190000D03*
X225000D03*
X235000Y310000D03*
X110000Y330000D03*
X180000Y350000D03*
X188000Y361000D03*
X172000Y362000D03*
X225000Y355000D03*
X215000D03*
X252000Y361000D03*
X270000Y360000D03*
X295000D03*
X310000D03*
X130000Y375000D03*
X142000Y380000D03*
X295000Y375000D03*
X310000D03*
X130000Y390000D03*
Y405000D03*
X273000Y393000D03*
X295000Y390000D03*
X310000D03*
X125000Y425000D03*
X110000D03*
X145000Y415000D03*
X130000D03*
X140000Y425000D03*
X155000D03*
X185000D03*
X170000D03*
X200000D03*
X215000D03*
X245000D03*
X230000D03*
X260000D03*
X285000D03*
X300000D03*
X315000D03*
X110000Y445000D03*
X215000D03*
X165000Y465000D03*
X215000Y455000D03*
X235000Y460000D03*
X260000D03*
X290000Y455000D03*
X300000Y465000D03*
X310000Y455000D03*
X350000D03*
X110000Y470000D03*
X155000Y475000D03*
X290000D03*
X310000D03*
X135000Y490000D03*
X165000D03*
X150000D03*
X180000D03*
X195000D03*
X225000D03*
X210000D03*
X240000D03*
X255000D03*
X285000D03*
X270000D03*
X300000D03*
X315000D03*
X330000D03*
X350000D03*
G54D14*
X383100Y195000D02*
X375200D01*
Y195200*
X372000Y198400*
Y239200*
X384000Y251200*
Y259400*
X361200Y282200*
Y433800*
X350000Y445000*
X680000Y350000D02*
Y363200D01*
X650700Y392500*
X586500Y445000D02*
X581075Y450425D01*
G54D22*
X678543Y416378D03*
Y463780D03*
G54D29*
X120000Y190000D03*
X140000D03*
X120000Y170000D03*
X140000D03*
X120000Y460000D03*
X140000D03*
X120000Y440000D03*
X140000D03*
X258000Y293000D03*
G54D33*
X115000Y115000D03*
Y485000D03*
G54D36*
X648000Y145000D02*
Y171500D01*
X647000Y172500*
Y189359*
X643963Y192396*
Y198746*
X647000Y201782*
Y242000*
X643000Y149000D02*
Y166627D01*
X641000Y168627*
Y214000*
X640700Y214300*
X362800Y176494D02*
Y192833D01*
X363300Y193333*
X363000Y170000D02*
Y176294D01*
X362800Y176494*
X365000Y180500D02*
Y233365D01*
X358094Y240272*
Y362714*
X350000Y370808*
Y400000*
X348500Y194000D02*
Y222174D01*
X345800Y224874*
Y247958*
X343628Y250130*
X363300Y193333D02*
Y233365D01*
X355088Y241578*
X355088D02*
Y320720D01*
X355088D02*
X350000Y325808D01*
Y330000*
X352500Y189000D02*
Y271698D01*
X346100Y278098*
X640700Y214300D02*
Y221700D01*
X641500Y222500*
Y239500*
X639000Y225500D02*
Y295202D01*
X635000Y299202*
Y405000*
X623000Y417000*
X662600Y223000D02*
Y252177D01*
X662800Y252377*
X343628Y250130D02*
Y276798D01*
X343900Y277069*
X662800Y252377D02*
Y300950D01*
X644950Y318800*
Y400161*
X633798Y411314*
X346100Y278098D02*
Y426908D01*
X350000Y430808*
Y435000*
X343900Y277069D02*
Y311908D01*
X340000Y315808*
Y320000*
X638500Y317500D02*
Y355044D01*
X637300Y356244*
Y395956*
X639300Y397956*
Y402700*
X627098Y382761D02*
X602872D01*
X633798Y411314D02*
X632186D01*
X624500Y419000*
X591600Y446000D02*
X587000Y450600D01*
Y472000*
X581075Y450425D02*
X580950Y450550D01*
Y464250*
X573200Y472000*
X567000*
G54D37*
X678543Y416378D02*
Y463780D01*
G54D38*
X179000Y124000D03*
X298000Y126000D03*
X133000Y134000D03*
X159000Y144000D03*
X260000Y143000D03*
X274000D03*
X232000Y150000D03*
X311000Y149000D03*
X352000D03*
X460000Y155000D03*
X498165Y150011D03*
X175000Y175000D03*
X265000Y195000D03*
Y205000D03*
X295000Y195000D03*
X315000Y200000D03*
X250000Y220000D03*
X305000D03*
X145000Y245000D03*
X130000D03*
X165000D03*
X180000D03*
X200000D03*
X230000D03*
X270000D03*
X400978Y233061D03*
X409000Y231000D03*
X225000Y260000D03*
X235000D03*
X285000D03*
X295000Y255000D03*
X300000Y260000D03*
X205000Y285000D03*
X285000Y270000D03*
X275000Y285000D03*
X110000Y300000D03*
X138177Y307149D03*
X205000Y300000D03*
X190000D03*
X235000D03*
X138254Y318365D03*
X138101Y312834D03*
X225000Y310000D03*
X235000Y320000D03*
X250000Y325000D03*
X270000D03*
X290000D03*
X305000D03*
X170000Y335000D03*
X205000D03*
X190000D03*
X220000D03*
X235000D03*
X265000D03*
X250000D03*
X280000D03*
X300000D03*
X320000D03*
X310000D03*
X130000Y360000D03*
X155000Y350000D03*
X235000D03*
X260000D03*
X280000D03*
X260000Y370000D03*
X602872Y382761D03*
X627098D03*
X160000Y390000D03*
X185000D03*
X160000Y415000D03*
X175000D03*
X205000D03*
X190000D03*
X220000D03*
X235000D03*
X250000D03*
X300000D03*
X315000D03*
X155000Y440000D03*
X185000D03*
X235000Y445000D03*
Y440000D03*
X290000D03*
X310000D03*
X189000Y454000D03*
X190000Y460000D03*
X254000Y455000D03*
X275000Y460000D03*
G54D40*
X643000Y149000D03*
X348500Y194000D03*
X639000Y225500D03*
X662600Y223000D03*
X647000Y242000D03*
X624500Y419000D03*
X623000Y417000D03*
X591600Y446000D03*
G54D43*
X648000Y145000D03*
X363000Y170000D03*
X365000Y180500D03*
X352500Y189000D03*
X383100Y195000D03*
X641500Y239500D03*
X638500Y317500D03*
X367000Y370000D03*
X639300Y402700D03*
X650700Y392500D03*
X586500Y445000D03*
G54D75*
X612500Y185500D03*
X510000Y195500D03*
X535500D03*
X561000D03*
X556000Y190000D03*
X398400Y220000D03*
X434500Y212000D03*
X477000Y228000D03*
X506500Y212000D03*
X409000Y269000D03*
X480500Y287000D03*
X487500Y273500D03*
X381500Y300500D03*
X401500D03*
Y304500D03*
X401000Y296500D03*
X421000D03*
Y300500D03*
Y304500D03*
X442030Y298030D03*
X613500Y308000D03*
X545000Y324500D03*
X569000D03*
X612500Y319000D03*
X425500Y346000D03*
X410202Y331298D03*
X460000Y332000D03*
X540000Y330000D03*
X617500Y330500D03*
X426500Y364000D03*
G74*
X0Y0D02*
M02*
