*
*
G04 PADS Layout (Build Number 2005.266.2) generated Gerber (RS-274-X) file*
G04 PC Version=2.1*
*
%IN "QS1R_11102006_routed.pc"*%
*
%MOIN*%
*
%FSLAX35Y35*%
*
*
*
*
G04 PC Standard Apertures*
*
*
G04 Thermal Relief Aperture macro.*
%AMTER*
1,1,$1,0,0*
1,0,$1-$2,0,0*
21,0,$3,$4,0,0,45*
21,0,$3,$4,0,0,135*
%
*
*
G04 Annular Aperture macro.*
%AMANN*
1,1,$1,0,0*
1,0,$2,0,0*
%
*
*
G04 Odd Aperture macro.*
%AMODD*
1,1,$1,0,0*
1,0,$1-0.005,0,0*
%
*
*
G04 PC Custom Aperture Macros*
*
*
*
*
*
*
G04 PC Aperture Table*
*
%ADD010C,0.01*%
%ADD012R,0.06X0.06*%
%ADD013C,0.06*%
%ADD022C,0.12055*%
%ADD028C,0.075*%
%ADD029C,0.11*%
%ADD032C,0.067*%
%ADD033C,0.225*%
%ADD036C,0.006*%
%ADD037C,0.02*%
%ADD038C,0.03*%
%ADD040C,0.018*%
%ADD041C,0.012*%
%ADD043C,0.026*%
%ADD044C,0.1*%
*
*
*
*
G04 PC Copper Outlines (0)*
G04 Layer Name QS1R_11102006_routed.pc - dark (0)*
%LPD*%
*
*
G04 PC Area=ANP003468*
G75*
G36*
G01*
X355900Y407287D02*
Y494200D01*
G03*
X355400Y494700I-500J0D01*
G01*
X351876D01*
G03*
X351672Y493743I0J-500D01*
G02*
X348328I-1672J-3743D01*
G03*
X348124Y494700I-204J457D01*
G01*
X331876D01*
G03*
X331672Y493743I0J-500D01*
G02*
X328328I-1672J-3743D01*
G03*
X328124Y494700I-204J457D01*
G01*
X316876D01*
G03*
X316672Y493743I0J-500D01*
G02*
X313328I-1672J-3743D01*
G03*
X313124Y494700I-204J457D01*
G01*
X301876D01*
G03*
X301672Y493743I0J-500D01*
G02*
X298328I-1672J-3743D01*
G03*
X298124Y494700I-204J457D01*
G01*
X286876D01*
G03*
X286672Y493743I0J-500D01*
G02*
X283328I-1672J-3743D01*
G03*
X283124Y494700I-204J457D01*
G01*
X271876D01*
G03*
X271672Y493743I0J-500D01*
G02*
X268328I-1672J-3743D01*
G03*
X268124Y494700I-204J457D01*
G01*
X256876D01*
G03*
X256672Y493743I0J-500D01*
G02*
X253328I-1672J-3743D01*
G03*
X253124Y494700I-204J457D01*
G01*
X241876D01*
G03*
X241672Y493743I0J-500D01*
G02*
X238328I-1672J-3743D01*
G03*
X238124Y494700I-204J457D01*
G01*
X226876D01*
G03*
X226672Y493743I0J-500D01*
G02*
X223328I-1672J-3743D01*
G03*
X223124Y494700I-204J457D01*
G01*
X211876D01*
G03*
X211672Y493743I0J-500D01*
G02*
X208328I-1672J-3743D01*
G03*
X208124Y494700I-204J457D01*
G01*
X196876D01*
G03*
X196672Y493743I0J-500D01*
G02*
X193328I-1672J-3743D01*
G03*
X193124Y494700I-204J457D01*
G01*
X181876D01*
G03*
X181672Y493743I0J-500D01*
G02*
X178328I-1672J-3743D01*
G03*
X178124Y494700I-204J457D01*
G01*
X166876D01*
G03*
X166672Y493743I0J-500D01*
G02*
X163328I-1672J-3743D01*
G03*
X163124Y494700I-204J457D01*
G01*
X151876D01*
G03*
X151672Y493743I0J-500D01*
G02*
X148328I-1672J-3743D01*
G03*
X148124Y494700I-204J457D01*
G01*
X136876D01*
G03*
X136672Y493743I0J-500D01*
G02*
X133328I-1672J-3743D01*
G03*
X133124Y494700I-204J457D01*
G01*
X123827D01*
G03*
X123481Y493839I0J-500D01*
G02*
X114029Y472789I-8481J-8839D01*
G03*
X113556Y472041I-40J-499D01*
G02*
X108380Y473766I-3556J-2041D01*
G03*
X108450Y474648I-198J460D01*
G02*
X105584Y477164I6550J10352D01*
G03*
X104700Y476844I-384J-320D01*
G01*
Y160600D01*
G03*
X105200Y160100I500J0D01*
G01*
X181857D01*
G03*
X182357Y160600I0J500D01*
G01*
Y242518D01*
G03*
X181558Y242918I-500J0D01*
G02*
Y247082I-1558J2082D01*
G03*
X182357Y247482I299J400D01*
G01*
Y272695D01*
G03*
X182196Y273063I-500J0D01*
G02*
X185719I1761J1913D01*
G03*
X185557Y272695I338J-368D01*
G01*
Y160600D01*
G03*
X186057Y160100I500J0D01*
G01*
X211900D01*
G03*
X212400Y160600I-0J500D01*
G01*
Y205216D01*
G03*
X212254Y205569I-500J-0D01*
G01*
X210569Y207254D01*
G03*
X210216Y207400I-353J-354D01*
G01*
X201500D01*
G02*
X199662Y208162I0J2600D01*
G01*
X196162Y211662D01*
G02*
X195400Y213500I1838J1838D01*
G01*
Y227601D01*
G03*
X195237Y227971I-500J0D01*
G02*
X200763I2763J3029D01*
G03*
X200600Y227601I337J-370D01*
G01*
Y214784D01*
G03*
X200746Y214431I500J0D01*
G01*
X202431Y212746D01*
G03*
X202784Y212600I353J354D01*
G01*
X211500D01*
G02*
X213338Y211838I0J-2600D01*
G01*
X216838Y208338D01*
G02*
X217600Y206500I-1838J-1838D01*
G01*
Y160600D01*
G03*
X218100Y160100I500J0D01*
G01*
X267900D01*
G03*
X268400Y160600I-0J500D01*
G01*
Y193904D01*
G03*
X267432Y194081I-500J0D01*
G02*
Y195919I-2432J919D01*
G03*
X268400Y196096I468J177D01*
G01*
Y203904D01*
G03*
X267432Y204081I-500J0D01*
G02*
Y205919I-2432J919D01*
G03*
X268400Y206096I468J177D01*
G01*
Y225216D01*
G03*
X268254Y225569I-500J-0D01*
G01*
X266569Y227254D01*
G03*
X266216Y227400I-353J-354D01*
G01*
X245000D01*
G02*
X242819Y231416I0J2600D01*
G03*
X242900Y231688I-419J272D01*
G01*
Y294312D01*
G03*
X242819Y294584I-500J-0D01*
G02*
X247181I2181J1416D01*
G03*
X247100Y294312I419J-272D01*
G01*
Y233100D01*
G03*
X247600Y232600I500J0D01*
G01*
X267500D01*
G02*
X269338Y231838I0J-2600D01*
G01*
X272838Y228338D01*
G02*
X273600Y226500I-1838J-1838D01*
G01*
Y160600D01*
G03*
X274100Y160100I500J0D01*
G01*
X355400D01*
G03*
X355900Y160600I0J500D01*
G01*
Y188989D01*
Y189000D01*
Y189011D01*
Y196513D01*
G03*
X355754Y196867I-500J-0D01*
G01*
X355510Y197110D01*
G02*
X355100Y198100I990J990D01*
G01*
Y209009D01*
G02*
X355510Y209999I1400J-0D01*
G01*
X355754Y210242D01*
G03*
X355900Y210596I-354J354D01*
G01*
Y211926D01*
G03*
X355335Y212422I-500J-0D01*
G02*
Y217578I-335J2578D01*
G03*
X355900Y218074I65J496D01*
G01*
Y231926D01*
G03*
X355335Y232422I-500J-0D01*
G02*
X354293Y237502I-335J2578D01*
G03*
X354511Y238337I-135J481D01*
G01*
X352957Y239891D01*
G02*
X352547Y240881I990J990D01*
G01*
Y244065D01*
G03*
X351637Y244352I-500J-0D01*
G02*
X350353Y243531I-1637J1148D01*
G03*
X349953Y242931I88J-492D01*
G02*
X346015Y242254I-1953J-431D01*
G03*
X345113Y242484I-496J-61D01*
G02*
X344761Y242087I-2113J1516D01*
G03*
X344600Y241720I339J-367D01*
G01*
Y234280D01*
G03*
X344761Y233913I500J0D01*
G02*
X341239I-1761J-1913D01*
G03*
X341400Y234280I-339J367D01*
G01*
Y241720D01*
G03*
X341239Y242087I-500J-0D01*
G02*
X345598Y244102I1761J1913D01*
G03*
X346478Y243798I500J20D01*
G02*
X347647Y244469I1522J-1298D01*
G03*
X348047Y245069I-88J492D01*
G02*
X351637Y246648I1953J431D01*
G03*
X352547Y246935I410J287D01*
G01*
Y295992D01*
G03*
X351819Y296438I-500J0D01*
G02*
X346417Y301778I-1819J3562D01*
G03*
X345969Y302500I-448J222D01*
G01*
X344687D01*
G03*
X344333Y302354I0J-500D01*
G01*
X343874Y301894D01*
G03*
X343758Y301370I354J-353D01*
G02*
X336462Y298133I-3758J-1370D01*
G03*
X336020Y298400I-442J-233D01*
G01*
X279000D01*
G02*
X277869Y298869I0J1600D01*
G01*
X275481Y301256D01*
G03*
X275107Y301402I-353J-353D01*
G02*
X277598Y303893I-107J2598D01*
G03*
X277744Y303519I499J-21D01*
G01*
X279516Y301746D01*
G03*
X279870Y301600I354J354D01*
G01*
X336020D01*
G03*
X336462Y301867I0J500D01*
G02*
X341370Y303758I3538J-1867D01*
G03*
X341894Y303874I171J470D01*
G01*
X342667Y304646D01*
G03*
Y305354I-354J354D01*
G01*
X341894Y306126D01*
G03*
X341370Y306242I-353J-354D01*
G02*
X336941Y312578I-1370J3758D01*
G03*
X336559Y313400I-382J322D01*
G01*
X255000D01*
G02*
X253869Y313869I0J1600D01*
G01*
X253484Y314254D01*
G03*
X253130Y314400I-354J-354D01*
G01*
X250280D01*
G03*
X249913Y314239I0J-500D01*
G02*
Y317761I-1913J1761D01*
G03*
X250280Y317600I367J339D01*
G01*
X254000D01*
G02*
X255131Y317131I0J-1600D01*
G01*
X255516Y316746D01*
G03*
X255870Y316600I354J354D01*
G01*
X336559D01*
G03*
X336941Y317422I0J500D01*
G02*
X343059I3059J2578D01*
G03*
X343441Y316600I382J-322D01*
G01*
X344130D01*
G03*
X344484Y316746I0J500D01*
G01*
X346054Y318317D01*
G03*
X346178Y318818I-353J354D01*
G02*
X348818Y316178I3822J1182D01*
G03*
X348317Y316054I-147J-477D01*
G01*
X346131Y313869D01*
G02*
X345000Y313400I-1131J1131D01*
G01*
X343441D01*
G03*
X343059Y312578I-0J-500D01*
G02*
X343758Y308630I-3059J-2578D01*
G03*
X343874Y308106I470J-171D01*
G01*
X344833Y307146D01*
G03*
X345187Y307000I354J354D01*
G01*
X346258D01*
G03*
X346674Y307778I0J500D01*
G02*
X352783Y307127I3326J2222D01*
G03*
X352778Y306415I348J-359D01*
G01*
X354271Y304921D01*
G03*
X355125Y305275I354J354D01*
G01*
Y328496D01*
G03*
X354978Y328850I-500J0D01*
G01*
X354687Y329141D01*
G03*
X353852Y328922I-353J-354D01*
G02*
X346511Y328044I-3852J1078D01*
G03*
X346074Y328300I-437J-244D01*
G01*
X306331D01*
G03*
X306116Y327348I-0J-500D01*
G02*
X303884I-1116J-2348D01*
G03*
X303669Y328300I-215J452D01*
G01*
X291331D01*
G03*
X291116Y327348I-0J-500D01*
G02*
X288884I-1116J-2348D01*
G03*
X288669Y328300I-215J452D01*
G01*
X271331D01*
G03*
X271116Y327348I-0J-500D01*
G02*
X268884I-1116J-2348D01*
G03*
X268669Y328300I-215J452D01*
G01*
X251331D01*
G03*
X251116Y327348I-0J-500D01*
G02*
X248884I-1116J-2348D01*
G03*
X248669Y328300I-215J452D01*
G01*
X160911D01*
G03*
X160558Y328154I0J-500D01*
G01*
X159846Y327442D01*
G03*
X159700Y327089I354J-353D01*
G01*
Y298184D01*
G03*
X159845Y297832I500J0D01*
G02*
X156155I-1845J-1832D01*
G03*
X156300Y298184I-355J352D01*
G01*
Y327800D01*
G03*
X155800Y328300I-500J-0D01*
G01*
X140000D01*
G02*
X138798Y328798I0J1700D01*
G01*
X132059Y335537D01*
G03*
X131914Y335638I-353J-354D01*
G02*
X130883Y339510I1086J2362D01*
G03*
X130476Y340300I-407J290D01*
G01*
X130011D01*
G03*
X129658Y340154I0J-500D01*
G01*
X128846Y339342D01*
G03*
X128700Y338989I354J-353D01*
G01*
Y291011D01*
G03*
X128846Y290658I500J0D01*
G01*
X129658Y289846D01*
G03*
X130011Y289700I353J354D01*
G01*
X155816D01*
G03*
X156168Y289845I-0J500D01*
G02*
Y286155I1832J-1845D01*
G03*
X155816Y286300I-352J-355D01*
G01*
X136650D01*
G03*
X136253Y285496I-0J-500D01*
G02*
X129747I-3253J-2496D01*
G03*
X129350Y286300I-397J304D01*
G01*
X129100D01*
G02*
X127898Y286798I0J1700D01*
G01*
X125798Y288898D01*
G02*
X125300Y290100I1202J1202D01*
G01*
Y339900D01*
G02*
X125798Y341102I1700J0D01*
G01*
X127898Y343202D01*
G02*
X129100Y343700I1202J-1202D01*
G01*
X135789D01*
G03*
X136142Y344554I-0J500D01*
G01*
X134798Y345898D01*
G02*
X134300Y347100I1202J1202D01*
G01*
Y359816D01*
G03*
X134155Y360168I-500J-0D01*
G02*
X137845I1845J1832D01*
G03*
X137700Y359816I355J-352D01*
G01*
Y348011D01*
G03*
X137846Y347658I500J0D01*
G01*
X138658Y346846D01*
G03*
X139011Y346700I353J354D01*
G01*
X153669D01*
G03*
X153884Y347652I0J500D01*
G02*
X156116I1116J2348D01*
G03*
X156331Y346700I215J-452D01*
G01*
X176350D01*
G03*
X176747Y347504I0J500D01*
G02*
X183253I3253J2496D01*
G03*
X183650Y346700I397J-304D01*
G01*
X233669D01*
G03*
X233884Y347652I0J500D01*
G02*
X236116I1116J2348D01*
G03*
X236331Y346700I215J-452D01*
G01*
X258669D01*
G03*
X258884Y347652I0J500D01*
G02*
X261116I1116J2348D01*
G03*
X261331Y346700I215J-452D01*
G01*
X278669D01*
G03*
X278884Y347652I0J500D01*
G02*
X281116I1116J2348D01*
G03*
X281331Y346700I215J-452D01*
G01*
X284989D01*
G03*
X285342Y346846I-0J500D01*
G01*
X286154Y347658D01*
G03*
X286300Y348011I-354J353D01*
G01*
Y399089D01*
G03*
X286154Y399442I-500J-0D01*
G01*
X281342Y404254D01*
G03*
X280991Y404400I-353J-354D01*
G02*
X283600Y407009I9J2600D01*
G03*
X283746Y406658I500J2D01*
G01*
X288558Y401846D01*
G03*
X288911Y401700I353J354D01*
G01*
X346074D01*
G03*
X346511Y401956I0J500D01*
G02*
Y398044I3489J-1956D01*
G03*
X346074Y398300I-437J-244D01*
G01*
X290200D01*
G03*
X289700Y397800I0J-500D01*
G01*
Y347100D01*
G02*
X289202Y345898I-1700J0D01*
G01*
X287102Y343798D01*
G02*
X285900Y343300I-1202J1202D01*
G01*
X154331D01*
G03*
X154116Y342348I-0J-500D01*
G02*
X154832Y341845I-1116J-2348D01*
G03*
X155184Y341700I352J355D01*
G01*
X346074D01*
G03*
X346511Y341956I0J500D01*
G02*
X352079Y336583I3489J-1956D01*
G03*
X351986Y335802I260J-427D01*
G01*
X355046Y332741D01*
G03*
X355900Y333095I354J354D01*
G01*
Y401913D01*
G03*
X355754Y402267I-500J-0D01*
G01*
X351894Y406126D01*
G03*
X351370Y406242I-353J-354D01*
G02*
X346511Y408044I-1370J3758D01*
G03*
X346074Y408300I-437J-244D01*
G01*
X293000D01*
G02*
X291798Y408798I0J1700D01*
G01*
X288442Y412154D01*
G03*
X288089Y412300I-353J-354D01*
G01*
X268184D01*
G03*
X267832Y412155I0J-500D01*
G02*
X266009Y411400I-1832J1845D01*
G03*
X265658Y411254I2J-500D01*
G01*
X262805Y408401D01*
G02*
X261603Y407903I-1202J1202D01*
G01*
X156734D01*
G03*
X156381Y407757I0J-500D01*
G01*
X153846Y405222D01*
G03*
X153700Y404869I354J-353D01*
G01*
Y365184D01*
G03*
X153845Y364832I500J0D01*
G02*
X150155I-1845J-1832D01*
G03*
X150300Y365184I-355J352D01*
G01*
Y405780D01*
G02*
X150798Y406982I1700J0D01*
G01*
X154621Y410805D01*
G02*
X155823Y411303I1202J-1202D01*
G01*
X260692D01*
G03*
X261046Y411450I-0J500D01*
G01*
X263254Y413658D01*
G03*
X263400Y414009I-354J353D01*
G02*
X267832Y415845I2600J-9D01*
G03*
X268184Y415700I352J355D01*
G01*
X289000D01*
G02*
X290202Y415202I0J-1700D01*
G01*
X293558Y411846D01*
G03*
X293911Y411700I353J354D01*
G01*
X298669D01*
G03*
X298884Y412652I0J500D01*
G02*
X301116I1116J2348D01*
G03*
X301331Y411700I215J-452D01*
G01*
X313669D01*
G03*
X313884Y412652I0J500D01*
G02*
X316116I1116J2348D01*
G03*
X316331Y411700I215J-452D01*
G01*
X346074D01*
G03*
X346511Y411956I0J500D01*
G02*
X353758Y408630I3489J-1956D01*
G03*
X353874Y408106I470J-171D01*
G01*
X355046Y406933D01*
G03*
X355900Y407287I354J354D01*
G37*
G74*
*
*
G04 PC Area=ANP003817*
G75*
G36*
G01*
X168884Y337348D02*
G03*
X168669Y338300I-215J452D01*
G01*
X155184D01*
G03*
X154832Y338155I0J-500D01*
G02*
X150638Y338914I-1832J1845D01*
G03*
X150537Y339059I-455J-208D01*
G01*
X149442Y340154D01*
G03*
X149089Y340300I-353J-354D01*
G01*
X135524D01*
G03*
X135117Y339510I-0J-500D01*
G02*
X135497Y337274I-2117J-1510D01*
G03*
X135623Y336781I480J-139D01*
G01*
X140558Y331846D01*
G03*
X140911Y331700I353J354D01*
G01*
X160000D01*
X168669D01*
G03*
X168884Y332652I0J500D01*
G02*
Y337348I1116J2348D01*
G37*
G74*
*
*
G04 PC Area=ANP003422*
G75*
G36*
G01*
X172000Y105800D02*
Y136900D01*
G03*
X171500Y137400I-500J0D01*
G01*
X138800D01*
G03*
X138300Y136900I0J-500D01*
G01*
Y105800D01*
G03*
X138800Y105300I500J0D01*
G01*
X171500D01*
G03*
X172000Y105800I0J500D01*
G37*
G74*
*
*
G04 PC Area=ANP003819*
G75*
G36*
G01*
X188884Y337348D02*
G03*
X188669Y338300I-215J452D01*
G01*
X171331D01*
G03*
X171116Y337348I-0J-500D01*
G02*
Y332652I-1116J-2348D01*
G03*
X171331Y331700I215J-452D01*
G01*
X188669D01*
G03*
X188884Y332652I0J500D01*
G02*
Y337348I1116J2348D01*
G37*
G74*
*
*
G04 PC Area=ANP003431*
G75*
G36*
G01*
X244500Y105900D02*
Y136800D01*
G03*
X244000Y137300I-500J0D01*
G01*
X175800D01*
G03*
X175300Y136800I0J-500D01*
G01*
Y105900D01*
G03*
X175800Y105400I500J0D01*
G01*
X244000D01*
G03*
X244500Y105900I0J500D01*
G37*
G74*
*
*
G04 PC Area=ANP003822*
G75*
G36*
G01*
X203884Y337348D02*
G03*
X203669Y338300I-215J452D01*
G01*
X191331D01*
G03*
X191116Y337348I-0J-500D01*
G02*
Y332652I-1116J-2348D01*
G03*
X191331Y331700I215J-452D01*
G01*
X203669D01*
G03*
X203884Y332652I0J500D01*
G02*
Y337348I1116J2348D01*
G37*
G74*
*
*
G04 PC Area=ANP003825*
G75*
G36*
G01*
X218884Y337348D02*
G03*
X218669Y338300I-215J452D01*
G01*
X206331D01*
G03*
X206116Y337348I-0J-500D01*
G02*
Y332652I-1116J-2348D01*
G03*
X206331Y331700I215J-452D01*
G01*
X218669D01*
G03*
X218884Y332652I0J500D01*
G02*
Y337348I1116J2348D01*
G37*
G74*
*
*
G04 PC Area=ANP003828*
G75*
G36*
G01*
X233884Y337348D02*
G03*
X233669Y338300I-215J452D01*
G01*
X221331D01*
G03*
X221116Y337348I-0J-500D01*
G02*
Y332652I-1116J-2348D01*
G03*
X221331Y331700I215J-452D01*
G01*
X233669D01*
G03*
X233884Y332652I0J500D01*
G02*
Y337348I1116J2348D01*
G37*
G74*
*
*
G04 PC Area=ANP003831*
G75*
G36*
G01*
X248884Y337348D02*
G03*
X248669Y338300I-215J452D01*
G01*
X236331D01*
G03*
X236116Y337348I-0J-500D01*
G02*
Y332652I-1116J-2348D01*
G03*
X236331Y331700I215J-452D01*
G01*
X248669D01*
G03*
X248884Y332652I0J500D01*
G02*
Y337348I1116J2348D01*
G37*
G74*
*
*
G04 PC Area=ANP003439*
G75*
G36*
G01*
X293700Y106100D02*
Y136900D01*
G03*
X293200Y137400I-500J0D01*
G01*
X248000D01*
G03*
X247500Y136900I0J-500D01*
G01*
Y106100D01*
G03*
X248000Y105600I500J0D01*
G01*
X293200D01*
G03*
X293700Y106100I0J500D01*
G37*
G74*
*
*
G04 PC Area=ANP003834*
G75*
G36*
G01*
X263884Y337348D02*
G03*
X263669Y338300I-215J452D01*
G01*
X251331D01*
G03*
X251116Y337348I-0J-500D01*
G02*
Y332652I-1116J-2348D01*
G03*
X251331Y331700I215J-452D01*
G01*
X263669D01*
G03*
X263884Y332652I0J500D01*
G02*
Y337348I1116J2348D01*
G37*
G74*
*
*
G04 PC Area=ANP003837*
G75*
G36*
G01*
X278884Y337348D02*
G03*
X278669Y338300I-215J452D01*
G01*
X266331D01*
G03*
X266116Y337348I-0J-500D01*
G02*
Y332652I-1116J-2348D01*
G03*
X266331Y331700I215J-452D01*
G01*
X278669D01*
G03*
X278884Y332652I0J500D01*
G02*
Y337348I1116J2348D01*
G37*
G74*
*
*
G04 PC Area=ANP003840*
G75*
G36*
G01*
X298884Y337348D02*
G03*
X298669Y338300I-215J452D01*
G01*
X281331D01*
G03*
X281116Y337348I-0J-500D01*
G02*
Y332652I-1116J-2348D01*
G03*
X281331Y331700I215J-452D01*
G01*
X298669D01*
G03*
X298884Y332652I0J500D01*
G02*
Y337348I1116J2348D01*
G37*
G74*
*
*
G04 PC Area=ANP003843*
G75*
G36*
G01*
X308884Y337348D02*
G03*
X308669Y338300I-215J452D01*
G01*
X301331D01*
G03*
X301116Y337348I-0J-500D01*
G02*
Y332652I-1116J-2348D01*
G03*
X301331Y331700I215J-452D01*
G01*
X308669D01*
G03*
X308884Y332652I0J500D01*
G02*
Y337348I1116J2348D01*
G37*
G74*
*
*
G04 PC Area=ANP003846*
G75*
G36*
G01*
X318884Y337348D02*
G03*
X318669Y338300I-215J452D01*
G01*
X311331D01*
G03*
X311116Y337348I-0J-500D01*
G02*
Y332652I-1116J-2348D01*
G03*
X311331Y331700I215J-452D01*
G01*
X318669D01*
G03*
X318884Y332652I0J500D01*
G02*
Y337348I1116J2348D01*
G37*
G74*
*
*
G04 PC Area=ANP003849*
G75*
G36*
G01*
X338884Y337348D02*
G03*
X338669Y338300I-215J452D01*
G01*
X321331D01*
G03*
X321116Y337348I-0J-500D01*
G02*
Y332652I-1116J-2348D01*
G03*
X321331Y331700I215J-452D01*
G01*
X338669D01*
G03*
X338884Y332652I0J500D01*
G02*
Y337348I1116J2348D01*
G37*
G74*
*
*
G04 PC Area=ANP003852*
G75*
G36*
G01*
X348922Y333852D02*
G03*
X349141Y334687I-135J482D01*
G01*
X349010Y334818D01*
G02*
X348600Y335808I990J990D01*
G01*
Y335921D01*
G03*
X348311Y336374I-500J-0D01*
G02*
X346511Y338044I1689J3626D01*
G03*
X346074Y338300I-437J-244D01*
G01*
X341331D01*
G03*
X341116Y337348I-0J-500D01*
G02*
Y332652I-1116J-2348D01*
G03*
X341331Y331700I215J-452D01*
G01*
X346074D01*
G03*
X346511Y331956I0J500D01*
G02*
X348922Y333852I3489J-1956D01*
G37*
G74*
*
*
G04 PC Area=ANP003446*
G75*
G36*
G01*
X420700Y441067D02*
Y468800D01*
G03*
X420200Y469300I-500J0D01*
G01*
X411140D01*
G03*
X410685Y469007I0J-500D01*
G02*
X406315I-2185J993D01*
G03*
X405860Y469300I-455J-207D01*
G01*
X359600D01*
G03*
X359100Y468800I0J-500D01*
G01*
Y417000D01*
G03*
X359600Y416500I500J0D01*
G01*
X387500D01*
G03*
X387800Y416600I-0J500D01*
G02*
X390200I1200J-1600D01*
G03*
X390500Y416500I300J400D01*
G01*
X420200D01*
G03*
X420700Y417000I0J500D01*
G01*
Y432038D01*
G03*
X420296Y432529I-500J0D01*
G02*
Y440576I787J4024D01*
G03*
X420700Y441067I-96J491D01*
G37*
G74*
*
*
G04 PC Area=ANP003452*
G75*
G36*
G01*
X420700Y370000D02*
Y412600D01*
G03*
X420200Y413100I-500J0D01*
G01*
X389700D01*
G03*
X389560Y413080I0J-500D01*
G02*
X388440I-560J1920D01*
G03*
X388300Y413100I-140J-480D01*
G01*
X360000D01*
G03*
X359500Y412600I0J-500D01*
G01*
Y370000D01*
G03*
X360000Y369500I500J0D01*
G01*
X364100D01*
G03*
X364600Y370000I-0J500D01*
G02*
X369400I2400J0D01*
G03*
X369900Y369500I500J0D01*
G01*
X370709D01*
G03*
X371167Y369800I-0J500D01*
G02*
X374833I1833J-800D01*
G03*
X375291Y369500I458J200D01*
G01*
X420200D01*
G03*
X420700Y370000I0J500D01*
G37*
G74*
*
*
G04 PC Void Outlines (0)*
G04 Layer Name QS1R_11102006_routed.pc - clear (0)*
%LPC*%
*
*
G04 PC Area=ANP003468*
G75*
G36*
G01*
X345000Y167400D02*
G03*
X345000I0J2600D01*
G37*
G74*
*
G75*
G36*
G01*
X350000Y177400D02*
G03*
X350000I0J2600D01*
G37*
G74*
*
G75*
G36*
G01*
X354900Y189000D02*
Y188991D01*
G02*
Y189009I-2400J9D01*
G01*
Y189000D01*
G37*
G74*
*
G75*
G36*
G01*
X340000Y350900D02*
G03*
X340000I0J4100D01*
G37*
G74*
*
G75*
G36*
G01*
X334000Y363100D02*
G03*
X334000I0J2400D01*
G37*
G74*
*
G75*
G36*
G01*
Y378100D02*
G03*
X334000I0J2400D01*
G37*
G74*
*
G75*
G36*
G01*
X340000Y385900D02*
G03*
X340000I0J4100D01*
G37*
G74*
*
G75*
G36*
G01*
X310000Y355900D02*
G03*
X310000I0J4100D01*
G37*
G74*
*
G75*
G36*
G01*
Y370900D02*
G03*
X310000I0J4100D01*
G37*
G74*
*
G75*
G36*
G01*
Y385900D02*
G03*
X310000I0J4100D01*
G37*
G74*
*
G75*
G36*
G01*
X295000Y355900D02*
G03*
X295000I0J4100D01*
G37*
G74*
*
G75*
G36*
G01*
Y370900D02*
G03*
X295000I0J4100D01*
G37*
G74*
*
G75*
G36*
G01*
Y385900D02*
G03*
X295000I0J4100D01*
G37*
G74*
*
G75*
G36*
G01*
X270000Y355900D02*
G03*
X270000I0J4100D01*
G37*
G74*
*
G75*
G36*
G01*
X273000Y388900D02*
G03*
X273000I0J4100D01*
G37*
G74*
*
G75*
G36*
G01*
X260000Y367400D02*
G03*
X260000I0J2600D01*
G37*
G74*
*
G75*
G36*
G01*
X252000Y356900D02*
G03*
X252000I0J4100D01*
G37*
G74*
*
G75*
G36*
G01*
X225000Y350900D02*
G03*
X225000I0J4100D01*
G37*
G74*
*
G75*
G36*
G01*
X215000D02*
G03*
X215000I0J4100D01*
G37*
G74*
*
G75*
G36*
G01*
X188000Y356900D02*
G03*
X188000I0J4100D01*
G37*
G74*
*
G75*
G36*
G01*
X185000Y387400D02*
G03*
X185000I0J2600D01*
G37*
G74*
*
G75*
G36*
G01*
X172000Y357900D02*
G03*
X172000I0J4100D01*
G37*
G74*
*
G75*
G36*
G01*
X160000Y387400D02*
G03*
X160000I0J2600D01*
G37*
G74*
*
G75*
G36*
G01*
X350000Y420900D02*
G03*
X350000I0J4100D01*
G37*
G74*
*
G75*
G36*
G01*
X333825Y422254D02*
G02*
X330623Y420332I-825J-2254D01*
G03*
X330114Y420902I-495J70D01*
G02*
X333563Y422971I-114J4098D01*
G03*
X333825Y422254I434J-248D01*
G37*
G74*
*
G75*
G36*
G01*
X315000Y420900D02*
G03*
X315000I0J4100D01*
G37*
G74*
*
G75*
G36*
G01*
X300000D02*
G03*
X300000I0J4100D01*
G37*
G74*
*
G75*
G36*
G01*
X285000D02*
G03*
X285000I0J4100D01*
G37*
G74*
*
G75*
G36*
G01*
X260000D02*
G03*
X260000I0J4100D01*
G37*
G74*
*
G75*
G36*
G01*
X250000Y412400D02*
G03*
X250000I0J2600D01*
G37*
G74*
*
G75*
G36*
G01*
X245000Y420900D02*
G03*
X245000I0J4100D01*
G37*
G74*
*
G75*
G36*
G01*
X235000Y412400D02*
G03*
X235000I0J2600D01*
G37*
G74*
*
G75*
G36*
G01*
X230000Y420900D02*
G03*
X230000I0J4100D01*
G37*
G74*
*
G75*
G36*
G01*
X220000Y412400D02*
G03*
X220000I0J2600D01*
G37*
G74*
*
G75*
G36*
G01*
X215000Y420900D02*
G03*
X215000I0J4100D01*
G37*
G74*
*
G75*
G36*
G01*
X205000Y412400D02*
G03*
X205000I0J2600D01*
G37*
G74*
*
G75*
G36*
G01*
X200000Y420900D02*
G03*
X200000I0J4100D01*
G37*
G74*
*
G75*
G36*
G01*
X190000Y412400D02*
G03*
X190000I0J2600D01*
G37*
G74*
*
G75*
G36*
G01*
X185000Y420900D02*
G03*
X185000I0J4100D01*
G37*
G74*
*
G75*
G36*
G01*
X175000Y412400D02*
G03*
X175000I0J2600D01*
G37*
G74*
*
G75*
G36*
G01*
X170000Y420900D02*
G03*
X170000I0J4100D01*
G37*
G74*
*
G75*
G36*
G01*
X346511Y446956D02*
G02*
Y443044I3489J-1956D01*
G03*
X346074Y443300I-437J-244D01*
G01*
X331331D01*
G03*
X331116Y442348I-0J-500D01*
G02*
Y437652I-1116J-2348D01*
G03*
X331331Y436700I215J-452D01*
G01*
X346074D01*
G03*
X346511Y436956I0J500D01*
G02*
Y433044I3489J-1956D01*
G03*
X346074Y433300I-437J-244D01*
G01*
X267750D01*
X167750D01*
G02*
X166548Y433798I0J1700D01*
G01*
X164798Y435548D01*
G02*
X164300Y436750I1202J1202D01*
G01*
Y454816D01*
G03*
X164155Y455168I-500J-0D01*
G02*
X167845I1845J1832D01*
G03*
X167700Y454816I355J-352D01*
G01*
Y437661D01*
G03*
X167846Y437308I500J0D01*
G01*
X168308Y436846D01*
G03*
X168661Y436700I353J354D01*
G01*
X183669D01*
G03*
X183884Y437652I0J500D01*
G02*
X186116I1116J2348D01*
G03*
X186331Y436700I215J-452D01*
G01*
X233669D01*
G03*
X233884Y437652I0J500D01*
G02*
X233463Y442097I1116J2348D01*
G03*
Y442903I-296J403D01*
G02*
X233884Y447348I1537J2097D01*
G03*
X233669Y448300I-215J452D01*
G01*
X218650D01*
G03*
X218253Y447496I-0J-500D01*
G02*
X211747I-3253J-2496D01*
G03*
X211350Y448300I-397J304D01*
G01*
X180911D01*
G03*
X180558Y448154I0J-500D01*
G01*
X174746Y442342D01*
G03*
X174600Y441991I354J-353D01*
G02*
X171991Y444600I-2600J9D01*
G03*
X172342Y444746I-2J500D01*
G01*
X178798Y451202D01*
G02*
X180000Y451700I1202J-1202D01*
G01*
X186476D01*
G03*
X186883Y452490I0J500D01*
G02*
X188923Y456599I2117J1510D01*
G03*
X189084Y457567I-15J500D01*
G02*
X190077Y457401I916J2433D01*
G03*
X189916Y456433I15J-500D01*
G02*
X191117Y452490I-916J-2433D01*
G03*
X191524Y451700I407J-290D01*
G01*
X211350D01*
G03*
X211747Y452504I0J500D01*
G02*
X218253I3253J2496D01*
G03*
X218650Y451700I397J-304D01*
G01*
X252669D01*
G03*
X252884Y452652I0J500D01*
G02*
X255116I1116J2348D01*
G03*
X255331Y451700I215J-452D01*
G01*
X282250D01*
G02*
X283452Y451202I0J-1700D01*
G01*
X285202Y449452D01*
G02*
X285700Y448250I-1202J-1202D01*
G01*
Y447200D01*
G03*
X286200Y446700I500J0D01*
G01*
X346074D01*
G03*
X346511Y446956I0J500D01*
G37*
G74*
*
G75*
G36*
G01*
X350000Y450900D02*
G03*
X350000I0J4100D01*
G37*
G74*
*
G75*
G36*
G01*
X332000Y463100D02*
G03*
X332000I0J2400D01*
G37*
G74*
*
G75*
G36*
G01*
Y478100D02*
G03*
X332000I0J2400D01*
G37*
G74*
*
G75*
G36*
G01*
X310000Y450900D02*
G03*
X310000I0J4100D01*
G37*
G74*
*
G75*
G36*
G01*
Y470900D02*
G03*
X310000I0J4100D01*
G37*
G74*
*
G75*
G36*
G01*
X300000Y460900D02*
G03*
X300000I0J4100D01*
G37*
G74*
*
G75*
G36*
G01*
X290000Y450900D02*
G03*
X290000I0J4100D01*
G37*
G74*
*
G75*
G36*
G01*
Y470900D02*
G03*
X290000I0J4100D01*
G37*
G74*
*
G75*
G36*
G01*
X275000Y457400D02*
G03*
X275000I0J2600D01*
G37*
G74*
*
G75*
G36*
G01*
X260000Y455900D02*
G03*
X260000I0J4100D01*
G37*
G74*
*
G75*
G36*
G01*
X235000D02*
G03*
X235000I0J4100D01*
G37*
G74*
*
G75*
G36*
G01*
X160000Y412400D02*
G03*
X160000I0J2600D01*
G37*
G74*
*
G75*
G36*
G01*
X165000Y460900D02*
G03*
X165000I0J4100D01*
G37*
G74*
*
G75*
G36*
G01*
X155000Y420900D02*
G03*
X155000I0J4100D01*
G37*
G74*
*
G75*
G36*
G01*
Y437400D02*
G03*
X155000I0J2600D01*
G37*
G74*
*
G75*
G36*
G01*
Y470900D02*
G03*
X155000I0J4100D01*
G37*
G74*
*
G75*
G36*
G01*
X142000Y375900D02*
G03*
X142000I0J4100D01*
G37*
G74*
*
G75*
G36*
G01*
X145000Y410900D02*
G03*
X145000I0J4100D01*
G37*
G74*
*
G75*
G36*
G01*
X140000Y420900D02*
G03*
X140000I0J4100D01*
G37*
G74*
*
G75*
G36*
G01*
X130000Y357400D02*
G03*
X130000I0J2600D01*
G37*
G74*
*
G75*
G36*
G01*
Y370900D02*
G03*
X130000I0J4100D01*
G37*
G74*
*
G75*
G36*
G01*
Y385900D02*
G03*
X130000I0J4100D01*
G37*
G74*
*
G75*
G36*
G01*
Y400900D02*
G03*
X130000I0J4100D01*
G37*
G74*
*
G75*
G36*
G01*
Y410900D02*
G03*
X130000I0J4100D01*
G37*
G74*
*
G75*
G36*
G01*
X140000Y433500D02*
G03*
X140000I0J6500D01*
G37*
G74*
*
G75*
G36*
G01*
X120000Y220900D02*
G03*
X120000I0J4100D01*
G37*
G74*
*
G75*
G36*
G01*
X125000Y420900D02*
G03*
X125000I0J4100D01*
G37*
G74*
*
G75*
G36*
G01*
X110000Y210900D02*
G03*
X110000I0J4100D01*
G37*
G74*
*
G75*
G36*
G01*
Y225900D02*
G03*
X110000I0J4100D01*
G37*
G74*
*
G75*
G36*
G01*
Y240900D02*
G03*
X110000I0J4100D01*
G37*
G74*
*
G75*
G36*
G01*
Y250900D02*
G03*
X110000I0J4100D01*
G37*
G74*
*
G75*
G36*
G01*
Y265900D02*
G03*
X110000I0J4100D01*
G37*
G74*
*
G75*
G36*
G01*
Y280900D02*
G03*
X110000I0J4100D01*
G37*
G74*
*
G75*
G36*
G01*
Y297400D02*
G03*
X110000I0J2600D01*
G37*
G74*
*
G75*
G36*
G01*
Y310900D02*
G03*
X110000I0J4100D01*
G37*
G74*
*
G75*
G36*
G01*
Y325900D02*
G03*
X110000I0J4100D01*
G37*
G74*
*
G75*
G36*
G01*
Y343100D02*
G03*
X110000I0J2400D01*
G37*
G74*
*
G75*
G36*
G01*
Y358100D02*
G03*
X110000I0J2400D01*
G37*
G74*
*
G75*
G36*
G01*
Y373100D02*
G03*
X110000I0J2400D01*
G37*
G74*
*
G75*
G36*
G01*
Y388100D02*
G03*
X110000I0J2400D01*
G37*
G74*
*
G75*
G36*
G01*
Y405600D02*
G03*
X110000I0J2400D01*
G37*
G74*
*
G75*
G36*
G01*
Y420900D02*
G03*
X110000I0J4100D01*
G37*
G74*
*
G75*
G36*
G01*
X114950Y444093D02*
G02*
X113696Y441584I5050J-4093D01*
G03*
X112862Y442064I-485J122D01*
G02*
X114066Y444472I-2862J2936D01*
G03*
X114950Y444093I496J-65D01*
G37*
G74*
*
G75*
G36*
G01*
X130000Y445250D02*
G03*
X130000I0J4750D01*
G37*
G74*
*
G75*
G36*
G01*
X140000Y453500D02*
G03*
X140000I0J6500D01*
G37*
G74*
*
G75*
G36*
G01*
X120000D02*
G03*
X120000I0J6500D01*
G37*
G74*
*
G75*
G36*
G01*
X225000Y185900D02*
G03*
X225000I0J4100D01*
G37*
G74*
*
G75*
G36*
G01*
Y200900D02*
G03*
X225000I0J4100D01*
G37*
G74*
*
G75*
G36*
G01*
X230000Y242400D02*
G03*
X230000I0J2600D01*
G37*
G74*
*
G75*
G36*
G01*
X235000Y257400D02*
G03*
X235000I0J2600D01*
G37*
G74*
*
G75*
G36*
G01*
Y297400D02*
G03*
X235000I0J2600D01*
G37*
G74*
*
G75*
G36*
G01*
Y305900D02*
G03*
X235000I0J4100D01*
G37*
G74*
*
G75*
G36*
G01*
Y317400D02*
G03*
X235000I0J2600D01*
G37*
G74*
*
G75*
G36*
G01*
X225000Y257400D02*
G03*
X225000I0J2600D01*
G37*
G74*
*
G75*
G36*
G01*
Y295900D02*
G03*
X225000I0J4100D01*
G37*
G74*
*
G75*
G36*
G01*
Y307400D02*
G03*
X225000I0J2600D01*
G37*
G74*
*
G75*
G36*
G01*
Y315900D02*
G03*
X225000I0J4100D01*
G37*
G74*
*
G75*
G36*
G01*
X205000Y180900D02*
G03*
X205000I0J4100D01*
G37*
G74*
*
G75*
G36*
G01*
Y195900D02*
G03*
X205000I0J4100D01*
G37*
G74*
*
G75*
G36*
G01*
X215000Y240900D02*
G03*
X215000I0J4100D01*
G37*
G74*
*
G75*
G36*
G01*
X200000Y242400D02*
G03*
X200000I0J2600D01*
G37*
G74*
*
G75*
G36*
G01*
X205000Y282400D02*
G03*
X205000I0J2600D01*
G37*
G74*
*
G75*
G36*
G01*
Y297400D02*
G03*
X205000I0J2600D01*
G37*
G74*
*
G75*
G36*
G01*
X207900Y307400D02*
G03*
X207900I0J2600D01*
G37*
G74*
*
G75*
G36*
G01*
X190000Y297400D02*
G03*
X190000I0J2600D01*
G37*
G74*
*
G75*
G36*
G01*
Y315900D02*
G03*
X190000I0J4100D01*
G37*
G74*
*
G75*
G36*
G01*
X175000Y172400D02*
G03*
X175000I0J2600D01*
G37*
G74*
*
G75*
G36*
G01*
X176000Y274900D02*
G03*
X176000I0J4100D01*
G37*
G74*
*
G75*
G36*
G01*
X177323Y307510D02*
G03*
X177323I0J2600D01*
G37*
G74*
*
G75*
G36*
G01*
X160000Y185900D02*
G03*
X160000I0J4100D01*
G37*
G74*
*
G75*
G36*
G01*
Y200900D02*
G03*
X160000I0J4100D01*
G37*
G74*
*
G75*
G36*
G01*
Y215900D02*
G03*
X160000I0J4100D01*
G37*
G74*
*
G75*
G36*
G01*
Y230900D02*
G03*
X160000I0J4100D01*
G37*
G74*
*
G75*
G36*
G01*
X165000Y242400D02*
G03*
X165000I0J2600D01*
G37*
G74*
*
G75*
G36*
G01*
X161000Y274900D02*
G03*
X161000I0J4100D01*
G37*
G74*
*
G75*
G36*
G01*
X165000Y300900D02*
G03*
X165000I0J4100D01*
G37*
G74*
*
G75*
G36*
G01*
Y315900D02*
G03*
X165000I0J4100D01*
G37*
G74*
*
G75*
G36*
G01*
X140000Y163500D02*
G03*
X140000I0J6500D01*
G37*
G74*
*
G75*
G36*
G01*
X120000D02*
G03*
X120000I0J6500D01*
G37*
G74*
*
G75*
G36*
G01*
X130000Y175250D02*
G03*
X130000I0J4750D01*
G37*
G74*
*
G75*
G36*
G01*
X140000Y183500D02*
G03*
X140000I0J6500D01*
G37*
G74*
*
G75*
G36*
G01*
X145000Y215900D02*
G03*
X145000I0J4100D01*
G37*
G74*
*
G75*
G36*
G01*
Y230900D02*
G03*
X145000I0J4100D01*
G37*
G74*
*
G75*
G36*
G01*
Y242400D02*
G03*
X145000I0J2600D01*
G37*
G74*
*
G75*
G36*
G01*
X110000Y175900D02*
G03*
X110000I0J4100D01*
G37*
G74*
*
G75*
G36*
G01*
X120000Y183500D02*
G03*
X120000I0J6500D01*
G37*
G74*
*
G75*
G36*
G01*
X130000Y195900D02*
G03*
X130000I0J4100D01*
G37*
G74*
*
G75*
G36*
G01*
Y215900D02*
G03*
X130000I0J4100D01*
G37*
G74*
*
G75*
G36*
G01*
Y230900D02*
G03*
X130000I0J4100D01*
G37*
G74*
*
G75*
G36*
G01*
Y242400D02*
G03*
X130000I0J2600D01*
G37*
G74*
*
G75*
G36*
G01*
X137017Y316078D02*
G02*
X139363Y316013I1237J2287D01*
G03*
X139338Y315121I213J-452D01*
G02*
X139170Y310464I-1237J-2287D01*
G03*
X139183Y309547I206J-456D01*
G02*
X137108Y309519I-1006J-2398D01*
G03*
X137095Y310436I-206J456D01*
G02*
X136992Y315186I1006J2398D01*
G03*
X137017Y316078I-213J452D01*
G37*
G74*
*
G75*
G36*
G01*
X255000Y240900D02*
G03*
X255000I0J4100D01*
G37*
G74*
*
G75*
G36*
G01*
X258000Y286900D02*
G03*
X258000I0J6100D01*
G37*
G74*
*
G75*
G36*
G01*
X341390Y255763D02*
G03*
X341390I0J2600D01*
G37*
G74*
*
G75*
G36*
G01*
X333987Y172183D02*
G03*
X333987I0J2600D01*
G37*
G74*
*
G75*
G36*
G01*
X326351Y222311D02*
G03*
X326351I0J2600D01*
G37*
G74*
*
G75*
G36*
G01*
X315000Y197400D02*
G03*
X315000I0J2600D01*
G37*
G74*
*
G75*
G36*
G01*
Y205900D02*
G03*
X315000I0J4100D01*
G37*
G74*
*
G75*
G36*
G01*
X305000Y200900D02*
G03*
X305000I0J4100D01*
G37*
G74*
*
G75*
G36*
G01*
Y217400D02*
G03*
X305000I0J2600D01*
G37*
G74*
*
G75*
G36*
G01*
X290000Y170900D02*
G03*
X290000I0J4100D01*
G37*
G74*
*
G75*
G36*
G01*
X295000Y192400D02*
G03*
X295000I0J2600D01*
G37*
G74*
*
G75*
G36*
G01*
Y205900D02*
G03*
X295000I0J4100D01*
G37*
G74*
*
G75*
G36*
G01*
Y220900D02*
G03*
X295000I0J4100D01*
G37*
G74*
*
G75*
G36*
G01*
Y235900D02*
G03*
X295000I0J4100D01*
G37*
G74*
*
G75*
G36*
G01*
Y252400D02*
G03*
X295000I0J2600D01*
G37*
G74*
*
G75*
G36*
G01*
X300000Y257400D02*
G03*
X300000I0J2600D01*
G37*
G74*
*
G75*
G36*
G01*
X295000Y265900D02*
G03*
X295000I0J4100D01*
G37*
G74*
*
G75*
G36*
G01*
X287000Y209600D02*
G03*
X287000I0J2400D01*
G37*
G74*
*
G75*
G36*
G01*
Y235600D02*
G03*
X287000I0J2400D01*
G37*
G74*
*
G75*
G36*
G01*
X285000Y257400D02*
G03*
X285000I0J2600D01*
G37*
G74*
*
G75*
G36*
G01*
Y267400D02*
G03*
X285000I0J2600D01*
G37*
G74*
*
G75*
G36*
G01*
X260000Y210900D02*
G03*
X260000I0J4100D01*
G37*
G74*
*
G75*
G36*
G01*
X250000Y200900D02*
G03*
X250000I0J4100D01*
G37*
G74*
*
G75*
G36*
G01*
Y217400D02*
G03*
X250000I0J2600D01*
G37*
G74*
*
G75*
G36*
G01*
X270000Y242400D02*
G03*
X270000I0J2600D01*
G37*
G74*
*
G75*
G36*
G01*
X275000Y282400D02*
G03*
X275000I0J2600D01*
G37*
G74*
*
G75*
G36*
G01*
X347794Y195871D02*
G02*
X346739Y194948I706J-1871D01*
G03*
X346089Y195639I-440J237D01*
G02*
X343239Y199913I-1089J2361D01*
G03*
X343400Y200280I-339J367D01*
G01*
Y202720D01*
G03*
X343239Y203087I-500J-0D01*
G02*
X346761I1761J1913D01*
G03*
X346600Y202720I339J-367D01*
G01*
Y200280D01*
G03*
X346761Y199913I500J0D01*
G02*
X347195Y196607I-1761J-1913D01*
G03*
X347794Y195871I423J-268D01*
G37*
G74*
*
*
G04 PC Area=ANP003422*
G75*
G36*
G01*
X166000Y108000D02*
G03*
X166000I0J4000D01*
G37*
G74*
*
G75*
G36*
G01*
X155000Y109400D02*
G03*
X155000I0J2600D01*
G37*
G74*
*
G75*
G36*
G01*
Y126400D02*
G03*
X155000I0J2600D01*
G37*
G74*
*
G75*
G36*
G01*
X144000Y108000D02*
G03*
X144000I0J4000D01*
G37*
G74*
*
*
G04 PC Area=ANP003431*
G75*
G36*
G01*
X226000Y108000D02*
G03*
X226000I0J4000D01*
G37*
G74*
*
G75*
G36*
G01*
X215000Y126400D02*
G03*
X215000I0J2600D01*
G37*
G74*
*
G75*
G36*
G01*
X204000Y108000D02*
G03*
X204000I0J4000D01*
G37*
G74*
*
G75*
G36*
G01*
X179000Y121400D02*
G03*
X179000I0J2600D01*
G37*
G74*
*
*
G04 PC Area=ANP003439*
G75*
G36*
G01*
X277000Y108000D02*
G03*
X277000I0J4000D01*
G37*
G74*
*
G75*
G36*
G01*
X265000Y126400D02*
G03*
X265000I0J2600D01*
G37*
G74*
*
G75*
G36*
G01*
X254000Y108000D02*
G03*
X254000I0J4000D01*
G37*
G74*
*
*
G04 PC Area=ANP003446*
G75*
G36*
G01*
X390000Y426000D02*
G03*
X390000I0J2000D01*
G37*
G74*
*
G75*
G36*
G01*
X383000Y435000D02*
G03*
X383000I0J4000D01*
G37*
G74*
*
G75*
G36*
G01*
Y455000D02*
G03*
X383000I0J4000D01*
G37*
G74*
*
*
G04 PC Area=ANP003452*
G75*
G36*
G01*
X383000Y376000D02*
G03*
X383000I0J4000D01*
G37*
G74*
*
G75*
G36*
G01*
Y396000D02*
G03*
X383000I0J4000D01*
G37*
G74*
*
G75*
G36*
G01*
X369000Y405600D02*
G03*
X369000I0J2400D01*
G37*
G74*
*
*
G04 PC Copper Outlines (1)*
G04 Layer Name QS1R_11102006_routed.pc - dark (1)*
%LPD*%
*
*
G04 PC Area=ANP003458*
G75*
G36*
G01*
X288884Y442348D02*
G03*
X288669Y443300I-215J452D01*
G01*
X286184D01*
G03*
X285832Y443155I0J-500D01*
G02*
X282155Y446832I-1832J1845D01*
G03*
X282300Y447184I-355J352D01*
G01*
Y447339D01*
G03*
X282154Y447692I-500J-0D01*
G01*
X281692Y448154D01*
G03*
X281339Y448300I-353J-354D01*
G01*
X236331D01*
G03*
X236116Y447348I-0J-500D01*
G02*
X236537Y442903I-1116J-2348D01*
G03*
Y442097I296J-403D01*
G02*
X236116Y437652I-1537J-2097D01*
G03*
X236331Y436700I215J-452D01*
G01*
X263800D01*
G03*
X264300Y437200I-0J500D01*
G01*
Y439816D01*
G03*
X264155Y440168I-500J-0D01*
G02*
X267845I1845J1832D01*
G03*
X267700Y439816I355J-352D01*
G01*
Y437661D01*
G03*
X267846Y437308I500J0D01*
G01*
X268308Y436846D01*
G03*
X268661Y436700I353J354D01*
G01*
X288669D01*
G03*
X288884Y437652I0J500D01*
G02*
Y442348I1116J2348D01*
G37*
G74*
*
*
G04 PC Area=ANP003462*
G75*
G36*
G01*
X308884Y442348D02*
G03*
X308669Y443300I-215J452D01*
G01*
X291331D01*
G03*
X291116Y442348I-0J-500D01*
G02*
Y437652I-1116J-2348D01*
G03*
X291331Y436700I215J-452D01*
G01*
X308669D01*
G03*
X308884Y437652I0J500D01*
G02*
Y442348I1116J2348D01*
G37*
G74*
*
*
G04 PC Area=ANP003465*
G75*
G36*
G01*
X328884Y442348D02*
G03*
X328669Y443300I-215J452D01*
G01*
X311331D01*
G03*
X311116Y442348I-0J-500D01*
G02*
Y437652I-1116J-2348D01*
G03*
X311331Y436700I215J-452D01*
G01*
X328669D01*
G03*
X328884Y437652I0J500D01*
G02*
Y442348I1116J2348D01*
G37*
G74*
*
*
G04 PC Copper Outlines (2)*
G04 Layer Name QS1R_11102006_routed.pc - dark (2)*
%LPD*%
*
*
G04 PC Area=Custom_Thermal*
*
G04 PC Custom Flashes*
G04 Layer Name QS1R_11102006_routed.pc - flashes*
%LPD*%
*
*
G04 PC Circuitry*
G04 Layer Name QS1R_11102006_routed.pc - circuitry*
%LPD*%
*
G54D10*
G01X192056Y142019D02*
Y142077D01*
X185707*
X183957Y143827*
Y274976*
X345000Y198000D02*
Y205000D01*
X343000Y232000D02*
Y244000D01*
X340000Y300000D02*
X279000D01*
X275000Y304000*
X255000Y315000D02*
X345000D01*
X350000Y320000*
X255000Y315000D02*
X254000Y316000D01*
X248000*
X170000Y112000D02*
G75*
G03X170000I-4000J0D01*
G01X157600D02*
G03X157600I-2600J0D01*
G01Y129000D02*
G03X157600I-2600J0D01*
G01X148000Y112000D02*
G03X148000I-4000J0D01*
G01X230000D02*
G03X230000I-4000J0D01*
G01X217600Y129000D02*
G03X217600I-2600J0D01*
G01X208000Y112000D02*
G03X208000I-4000J0D01*
G01X181600Y124000D02*
G03X181600I-2600J0D01*
G01X281000Y112000D02*
G03X281000I-4000J0D01*
G01X267600Y129000D02*
G03X267600I-2600J0D01*
G01X258000Y112000D02*
G03X258000I-4000J0D01*
G01X392000Y428000D02*
G03X392000I-2000J0D01*
G01X387000Y439000D02*
G03X387000I-4000J0D01*
G01Y459000D02*
G03X387000I-4000J0D01*
G01Y380000D02*
G03X387000I-4000J0D01*
G01Y400000D02*
G03X387000I-4000J0D01*
G01X371400Y408000D02*
G03X371400I-2400J0D01*
G01X347600Y170000D02*
G03X347600I-2600J0D01*
G01X352600Y180000D02*
G03X352600I-2600J0D01*
G01X344100Y355000D02*
G03X344100I-4100J0D01*
G01X336400Y365500D02*
G03X336400I-2400J0D01*
G01Y380500D02*
G03X336400I-2400J0D01*
G01X344100Y390000D02*
G03X344100I-4100J0D01*
G01X314100Y360000D02*
G03X314100I-4100J0D01*
G01Y375000D02*
G03X314100I-4100J0D01*
G01Y390000D02*
G03X314100I-4100J0D01*
G01X299100Y360000D02*
G03X299100I-4100J0D01*
G01Y375000D02*
G03X299100I-4100J0D01*
G01Y390000D02*
G03X299100I-4100J0D01*
G01X274100Y360000D02*
G03X274100I-4100J0D01*
G01X277100Y393000D02*
G03X277100I-4100J0D01*
G01X262600Y370000D02*
G03X262600I-2600J0D01*
G01X256100Y361000D02*
G03X256100I-4100J0D01*
G01X229100Y355000D02*
G03X229100I-4100J0D01*
G01X219100D02*
G03X219100I-4100J0D01*
G01X192100Y361000D02*
G03X192100I-4100J0D01*
G01X187600Y390000D02*
G03X187600I-2600J0D01*
G01X176100Y362000D02*
G03X176100I-4100J0D01*
G01X162600Y390000D02*
G03X162600I-2600J0D01*
G01X354100Y425000D02*
G03X354100I-4100J0D01*
G01X319100D02*
G03X319100I-4100J0D01*
G01X304100D02*
G03X304100I-4100J0D01*
G01X289100D02*
G03X289100I-4100J0D01*
G01X264100D02*
G03X264100I-4100J0D01*
G01X252600Y415000D02*
G03X252600I-2600J0D01*
G01X249100Y425000D02*
G03X249100I-4100J0D01*
G01X237600Y415000D02*
G03X237600I-2600J0D01*
G01X234100Y425000D02*
G03X234100I-4100J0D01*
G01X222600Y415000D02*
G03X222600I-2600J0D01*
G01X219100Y425000D02*
G03X219100I-4100J0D01*
G01X207600Y415000D02*
G03X207600I-2600J0D01*
G01X204100Y425000D02*
G03X204100I-4100J0D01*
G01X192600Y415000D02*
G03X192600I-2600J0D01*
G01X189100Y425000D02*
G03X189100I-4100J0D01*
G01X177600Y415000D02*
G03X177600I-2600J0D01*
G01X174100Y425000D02*
G03X174100I-4100J0D01*
G01X354100Y455000D02*
G03X354100I-4100J0D01*
G01X334400Y465500D02*
G03X334400I-2400J0D01*
G01Y480500D02*
G03X334400I-2400J0D01*
G01X314100Y455000D02*
G03X314100I-4100J0D01*
G01Y475000D02*
G03X314100I-4100J0D01*
G01X304100Y465000D02*
G03X304100I-4100J0D01*
G01X294100Y455000D02*
G03X294100I-4100J0D01*
G01Y475000D02*
G03X294100I-4100J0D01*
G01X277600Y460000D02*
G03X277600I-2600J0D01*
G01X264100D02*
G03X264100I-4100J0D01*
G01X239100D02*
G03X239100I-4100J0D01*
G01X162600Y415000D02*
G03X162600I-2600J0D01*
G01X169100Y465000D02*
G03X169100I-4100J0D01*
G01X159100Y425000D02*
G03X159100I-4100J0D01*
G01X157600Y440000D02*
G03X157600I-2600J0D01*
G01X159100Y475000D02*
G03X159100I-4100J0D01*
G01X146100Y380000D02*
G03X146100I-4100J0D01*
G01X149100Y415000D02*
G03X149100I-4100J0D01*
G01X144100Y425000D02*
G03X144100I-4100J0D01*
G01X132600Y360000D02*
G03X132600I-2600J0D01*
G01X134100Y375000D02*
G03X134100I-4100J0D01*
G01Y390000D02*
G03X134100I-4100J0D01*
G01Y405000D02*
G03X134100I-4100J0D01*
G01Y415000D02*
G03X134100I-4100J0D01*
G01X146500Y440000D02*
G03X146500I-6500J0D01*
G01X124100Y225000D02*
G03X124100I-4100J0D01*
G01X129100Y425000D02*
G03X129100I-4100J0D01*
G01X114100Y215000D02*
G03X114100I-4100J0D01*
G01Y230000D02*
G03X114100I-4100J0D01*
G01Y245000D02*
G03X114100I-4100J0D01*
G01Y255000D02*
G03X114100I-4100J0D01*
G01Y270000D02*
G03X114100I-4100J0D01*
G01Y285000D02*
G03X114100I-4100J0D01*
G01X112600Y300000D02*
G03X112600I-2600J0D01*
G01X114100Y315000D02*
G03X114100I-4100J0D01*
G01Y330000D02*
G03X114100I-4100J0D01*
G01X112400Y345500D02*
G03X112400I-2400J0D01*
G01Y360500D02*
G03X112400I-2400J0D01*
G01Y375500D02*
G03X112400I-2400J0D01*
G01Y390500D02*
G03X112400I-2400J0D01*
G01Y408000D02*
G03X112400I-2400J0D01*
G01X114100Y425000D02*
G03X114100I-4100J0D01*
G01X134750Y450000D02*
G03X134750I-4750J0D01*
G01X146500Y460000D02*
G03X146500I-6500J0D01*
G01X126500D02*
G03X126500I-6500J0D01*
G01X229100Y190000D02*
G03X229100I-4100J0D01*
G01Y205000D02*
G03X229100I-4100J0D01*
G01X232600Y245000D02*
G03X232600I-2600J0D01*
G01X237600Y260000D02*
G03X237600I-2600J0D01*
G01Y300000D02*
G03X237600I-2600J0D01*
G01X239100Y310000D02*
G03X239100I-4100J0D01*
G01X237600Y320000D02*
G03X237600I-2600J0D01*
G01X227600Y260000D02*
G03X227600I-2600J0D01*
G01X229100Y300000D02*
G03X229100I-4100J0D01*
G01X227600Y310000D02*
G03X227600I-2600J0D01*
G01X229100Y320000D02*
G03X229100I-4100J0D01*
G01X209100Y185000D02*
G03X209100I-4100J0D01*
G01Y200000D02*
G03X209100I-4100J0D01*
G01X219100Y245000D02*
G03X219100I-4100J0D01*
G01X202600D02*
G03X202600I-2600J0D01*
G01X207600Y285000D02*
G03X207600I-2600J0D01*
G01Y300000D02*
G03X207600I-2600J0D01*
G01X210500Y310000D02*
G03X210500I-2600J0D01*
G01X192600Y300000D02*
G03X192600I-2600J0D01*
G01X194100Y320000D02*
G03X194100I-4100J0D01*
G01X177600Y175000D02*
G03X177600I-2600J0D01*
G01X180100Y279000D02*
G03X180100I-4100J0D01*
G01X179923Y310110D02*
G03X179923I-2600J0D01*
G01X164100Y190000D02*
G03X164100I-4100J0D01*
G01Y205000D02*
G03X164100I-4100J0D01*
G01Y220000D02*
G03X164100I-4100J0D01*
G01Y235000D02*
G03X164100I-4100J0D01*
G01X167600Y245000D02*
G03X167600I-2600J0D01*
G01X165100Y279000D02*
G03X165100I-4100J0D01*
G01X169100Y305000D02*
G03X169100I-4100J0D01*
G01Y320000D02*
G03X169100I-4100J0D01*
G01X146500Y170000D02*
G03X146500I-6500J0D01*
G01X126500D02*
G03X126500I-6500J0D01*
G01X134750Y180000D02*
G03X134750I-4750J0D01*
G01X146500Y190000D02*
G03X146500I-6500J0D01*
G01X149100Y220000D02*
G03X149100I-4100J0D01*
G01Y235000D02*
G03X149100I-4100J0D01*
G01X147600Y245000D02*
G03X147600I-2600J0D01*
G01X114100Y180000D02*
G03X114100I-4100J0D01*
G01X126500Y190000D02*
G03X126500I-6500J0D01*
G01X134100Y200000D02*
G03X134100I-4100J0D01*
G01Y220000D02*
G03X134100I-4100J0D01*
G01Y235000D02*
G03X134100I-4100J0D01*
G01X132600Y245000D02*
G03X132600I-2600J0D01*
G01X259100D02*
G03X259100I-4100J0D01*
G01X264100Y293000D02*
G03X264100I-6100J0D01*
G01X343990Y258363D02*
G03X343990I-2600J0D01*
G01X336587Y174783D02*
G03X336587I-2600J0D01*
G01X328951Y224911D02*
G03X328951I-2600J0D01*
G01X317600Y200000D02*
G03X317600I-2600J0D01*
G01X319100Y210000D02*
G03X319100I-4100J0D01*
G01X309100Y205000D02*
G03X309100I-4100J0D01*
G01X307600Y220000D02*
G03X307600I-2600J0D01*
G01X294100Y175000D02*
G03X294100I-4100J0D01*
G01X297600Y195000D02*
G03X297600I-2600J0D01*
G01X299100Y210000D02*
G03X299100I-4100J0D01*
G01Y225000D02*
G03X299100I-4100J0D01*
G01Y240000D02*
G03X299100I-4100J0D01*
G01X297600Y255000D02*
G03X297600I-2600J0D01*
G01X302600Y260000D02*
G03X302600I-2600J0D01*
G01X299100Y270000D02*
G03X299100I-4100J0D01*
G01X289400Y212000D02*
G03X289400I-2400J0D01*
G01Y238000D02*
G03X289400I-2400J0D01*
G01X287600Y260000D02*
G03X287600I-2600J0D01*
G01Y270000D02*
G03X287600I-2600J0D01*
G01X264100Y215000D02*
G03X264100I-4100J0D01*
G01X254100Y205000D02*
G03X254100I-4100J0D01*
G01X252600Y220000D02*
G03X252600I-2600J0D01*
G01X272600Y245000D02*
G03X272600I-2600J0D01*
G01X277600Y285000D02*
G03X277600I-2600J0D01*
G01X172000Y105800D02*
Y136900D01*
G03X171500Y137400I-500J0*
G01X138800*
G03X138300Y136900I0J-500*
G01Y105800*
G03X138800Y105300I500J0*
G01X171500*
G03X172000Y105800I0J500*
G01X244500Y105900D02*
Y136800D01*
G03X244000Y137300I-500J0*
G01X175800*
G03X175300Y136800I0J-500*
G01Y105900*
G03X175800Y105400I500J0*
G01X244000*
G03X244500Y105900I0J500*
G01X293700Y106100D02*
Y136900D01*
G03X293200Y137400I-500J0*
G01X248000*
G03X247500Y136900I0J-500*
G01Y106100*
G03X248000Y105600I500J0*
G01X293200*
G03X293700Y106100I0J500*
G01X420700Y441067D02*
Y468800D01*
G03X420200Y469300I-500J0*
G01X411140*
G03X410685Y469007I0J-500*
G01X406315D02*
G03X410685I2185J993D01*
G01X406315D02*
G03X405860Y469300I-455J-207D01*
G01X359600*
G03X359100Y468800I0J-500*
G01Y417000*
G03X359600Y416500I500J0*
G01X387500*
G03X387800Y416600I-0J500*
G01X390200D02*
G03X387800I-1200J-1600D01*
G01X390200D02*
G03X390500Y416500I300J400D01*
G01X420200*
G03X420700Y417000I0J500*
G01Y432038*
G03X420296Y432529I-500J0*
G01Y440576D02*
G03Y432529I787J-4023D01*
G01Y440576D02*
G03X420700Y441067I-96J491D01*
G01Y370000D02*
Y412600D01*
G03X420200Y413100I-500J0*
G01X389700*
G03X389560Y413080I0J-500*
G01X388440D02*
G03X389560I560J1920D01*
G01X388440D02*
G03X388300Y413100I-140J-480D01*
G01X360000*
G03X359500Y412600I0J-500*
G01Y370000*
G03X360000Y369500I500J0*
G01X364100*
G03X364600Y370000I-0J500*
G01X369400D02*
G03X364600I-2400J0D01*
G01X369400D02*
G03X369900Y369500I500J0D01*
G01X370709*
G03X371167Y369800I-0J500*
G01X374833D02*
G03X371167I-1833J-800D01*
G01X374833D02*
G03X375291Y369500I458J200D01*
G01X420200*
G03X420700Y370000I0J500*
G01X348922Y333852D02*
G03X349141Y334687I-135J482D01*
G01X349010Y334818*
X348600Y335808D02*
G03X349010Y334818I1400J-0D01*
G01X348600Y335808D02*
Y335921D01*
G03X348311Y336374I-500J-0*
G01X346511Y338044D02*
G03X348311Y336374I3489J1956D01*
G01X346511Y338044D02*
G03X346074Y338300I-437J-244D01*
G01X341331*
G03X341116Y337348I-0J-500*
G01Y332652D02*
G03Y337348I-1116J2348D01*
G01Y332652D02*
G03X341331Y331700I215J-452D01*
G01X346074*
G03X346511Y331956I0J500*
G01X348922Y333852D02*
G03X346511Y331956I1078J-3852D01*
G01X338884Y337348D02*
G03X338669Y338300I-215J452D01*
G01X321331*
G03X321116Y337348I-0J-500*
G01Y332652D02*
G03Y337348I-1116J2348D01*
G01Y332652D02*
G03X321331Y331700I215J-452D01*
G01X338669*
G03X338884Y332652I0J500*
G01Y337348D02*
G03Y332652I1116J-2348D01*
G01X318884Y337348D02*
G03X318669Y338300I-215J452D01*
G01X311331*
G03X311116Y337348I-0J-500*
G01Y332652D02*
G03Y337348I-1116J2348D01*
G01Y332652D02*
G03X311331Y331700I215J-452D01*
G01X318669*
G03X318884Y332652I0J500*
G01Y337348D02*
G03Y332652I1116J-2348D01*
G01X308884Y337348D02*
G03X308669Y338300I-215J452D01*
G01X301331*
G03X301116Y337348I-0J-500*
G01Y332652D02*
G03Y337348I-1116J2348D01*
G01Y332652D02*
G03X301331Y331700I215J-452D01*
G01X308669*
G03X308884Y332652I0J500*
G01Y337348D02*
G03Y332652I1116J-2348D01*
G01X298884Y337348D02*
G03X298669Y338300I-215J452D01*
G01X281331*
G03X281116Y337348I-0J-500*
G01Y332652D02*
G03Y337348I-1116J2348D01*
G01Y332652D02*
G03X281331Y331700I215J-452D01*
G01X298669*
G03X298884Y332652I0J500*
G01Y337348D02*
G03Y332652I1116J-2348D01*
G01X278884Y337348D02*
G03X278669Y338300I-215J452D01*
G01X266331*
G03X266116Y337348I-0J-500*
G01Y332652D02*
G03Y337348I-1116J2348D01*
G01Y332652D02*
G03X266331Y331700I215J-452D01*
G01X278669*
G03X278884Y332652I0J500*
G01Y337348D02*
G03Y332652I1116J-2348D01*
G01X263884Y337348D02*
G03X263669Y338300I-215J452D01*
G01X251331*
G03X251116Y337348I-0J-500*
G01Y332652D02*
G03Y337348I-1116J2348D01*
G01Y332652D02*
G03X251331Y331700I215J-452D01*
G01X263669*
G03X263884Y332652I0J500*
G01Y337348D02*
G03Y332652I1116J-2348D01*
G01X248884Y337348D02*
G03X248669Y338300I-215J452D01*
G01X236331*
G03X236116Y337348I-0J-500*
G01Y332652D02*
G03Y337348I-1116J2348D01*
G01Y332652D02*
G03X236331Y331700I215J-452D01*
G01X248669*
G03X248884Y332652I0J500*
G01Y337348D02*
G03Y332652I1116J-2348D01*
G01X233884Y337348D02*
G03X233669Y338300I-215J452D01*
G01X221331*
G03X221116Y337348I-0J-500*
G01Y332652D02*
G03Y337348I-1116J2348D01*
G01Y332652D02*
G03X221331Y331700I215J-452D01*
G01X233669*
G03X233884Y332652I0J500*
G01Y337348D02*
G03Y332652I1116J-2348D01*
G01X218884Y337348D02*
G03X218669Y338300I-215J452D01*
G01X206331*
G03X206116Y337348I-0J-500*
G01Y332652D02*
G03Y337348I-1116J2348D01*
G01Y332652D02*
G03X206331Y331700I215J-452D01*
G01X218669*
G03X218884Y332652I0J500*
G01Y337348D02*
G03Y332652I1116J-2348D01*
G01X203884Y337348D02*
G03X203669Y338300I-215J452D01*
G01X191331*
G03X191116Y337348I-0J-500*
G01Y332652D02*
G03Y337348I-1116J2348D01*
G01Y332652D02*
G03X191331Y331700I215J-452D01*
G01X203669*
G03X203884Y332652I0J500*
G01Y337348D02*
G03Y332652I1116J-2348D01*
G01X188884Y337348D02*
G03X188669Y338300I-215J452D01*
G01X171331*
G03X171116Y337348I-0J-500*
G01Y332652D02*
G03Y337348I-1116J2348D01*
G01Y332652D02*
G03X171331Y331700I215J-452D01*
G01X188669*
G03X188884Y332652I0J500*
G01Y337348D02*
G03Y332652I1116J-2348D01*
G01X168884Y337348D02*
G03X168669Y338300I-215J452D01*
G01X155184*
G03X154832Y338155I0J-500*
G01X150638Y338914D02*
G03X154832Y338155I2362J1086D01*
G01X150638Y338914D02*
G03X150537Y339059I-455J-208D01*
G01X149442Y340154*
G03X149089Y340300I-353J-354*
G01X135524*
G03X135117Y339510I-0J-500*
G01X135497Y337274D02*
G03X135117Y339510I-2497J726D01*
G01X135497Y337274D02*
G03X135623Y336781I480J-139D01*
G01X140558Y331846*
G03X140911Y331700I353J354*
G01X160000*
X168669*
G03X168884Y332652I0J500*
G01Y337348D02*
G03Y332652I1116J-2348D01*
G01X355900Y407287D02*
Y494200D01*
G03X355400Y494700I-500J0*
G01X351876*
G03X351672Y493743I0J-500*
G01X348328D02*
G03X351672I1672J-3743D01*
G01X348328D02*
G03X348124Y494700I-204J457D01*
G01X331876*
G03X331672Y493743I0J-500*
G01X328328D02*
G03X331672I1672J-3743D01*
G01X328328D02*
G03X328124Y494700I-204J457D01*
G01X316876*
G03X316672Y493743I0J-500*
G01X313328D02*
G03X316672I1672J-3743D01*
G01X313328D02*
G03X313124Y494700I-204J457D01*
G01X301876*
G03X301672Y493743I0J-500*
G01X298328D02*
G03X301672I1672J-3743D01*
G01X298328D02*
G03X298124Y494700I-204J457D01*
G01X286876*
G03X286672Y493743I0J-500*
G01X283328D02*
G03X286672I1672J-3743D01*
G01X283328D02*
G03X283124Y494700I-204J457D01*
G01X271876*
G03X271672Y493743I0J-500*
G01X268328D02*
G03X271672I1672J-3743D01*
G01X268328D02*
G03X268124Y494700I-204J457D01*
G01X256876*
G03X256672Y493743I0J-500*
G01X253328D02*
G03X256672I1672J-3743D01*
G01X253328D02*
G03X253124Y494700I-204J457D01*
G01X241876*
G03X241672Y493743I0J-500*
G01X238328D02*
G03X241672I1672J-3743D01*
G01X238328D02*
G03X238124Y494700I-204J457D01*
G01X226876*
G03X226672Y493743I0J-500*
G01X223328D02*
G03X226672I1672J-3743D01*
G01X223328D02*
G03X223124Y494700I-204J457D01*
G01X211876*
G03X211672Y493743I0J-500*
G01X208328D02*
G03X211672I1672J-3743D01*
G01X208328D02*
G03X208124Y494700I-204J457D01*
G01X196876*
G03X196672Y493743I0J-500*
G01X193328D02*
G03X196672I1672J-3743D01*
G01X193328D02*
G03X193124Y494700I-204J457D01*
G01X181876*
G03X181672Y493743I0J-500*
G01X178328D02*
G03X181672I1672J-3743D01*
G01X178328D02*
G03X178124Y494700I-204J457D01*
G01X166876*
G03X166672Y493743I0J-500*
G01X163328D02*
G03X166672I1672J-3743D01*
G01X163328D02*
G03X163124Y494700I-204J457D01*
G01X151876*
G03X151672Y493743I0J-500*
G01X148328D02*
G03X151672I1672J-3743D01*
G01X148328D02*
G03X148124Y494700I-204J457D01*
G01X136876*
G03X136672Y493743I0J-500*
G01X133328D02*
G03X136672I1672J-3743D01*
G01X133328D02*
G03X133124Y494700I-204J457D01*
G01X123827*
G03X123481Y493839I0J-500*
G01X114029Y472789D02*
G03X123481Y493839I971J12211D01*
G01X114029Y472789D02*
G03X113556Y472041I-40J-499D01*
G01X108380Y473766D02*
G03X113556Y472041I1620J-3766D01*
G01X108380Y473766D02*
G03X108450Y474648I-198J460D01*
G01X105584Y477164D02*
G03X108450Y474648I9416J7836D01*
G01X105584Y477164D02*
G03X104700Y476844I-384J-320D01*
G01Y160600*
G03X105200Y160100I500J0*
G01X181857*
G03X182357Y160600I0J500*
G01Y242518*
G03X181558Y242918I-500J0*
G01Y247082D02*
G03Y242918I-1558J-2082D01*
G01Y247082D02*
G03X182357Y247482I299J400D01*
G01Y272695*
G03X182196Y273063I-500J0*
G01X185719D02*
G03X182196I-1762J1913D01*
G01X185719D02*
G03X185557Y272695I338J-368D01*
G01Y160600*
G03X186057Y160100I500J0*
G01X211900*
G03X212400Y160600I-0J500*
G01Y205216*
G03X212254Y205569I-500J-0*
G01X210569Y207254*
G03X210216Y207400I-353J-354*
G01X201500*
X199662Y208162D02*
G03X201500Y207400I1838J1838D01*
G01X199662Y208162D02*
X196162Y211662D01*
X195400Y213500D02*
G03X196162Y211662I2600J0D01*
G01X195400Y213500D02*
Y227601D01*
G03X195237Y227971I-500J0*
G01X200763D02*
G03X195237I-2763J3029D01*
G01X200763D02*
G03X200600Y227601I337J-370D01*
G01Y214784*
G03X200746Y214431I500J0*
G01X202431Y212746*
G03X202784Y212600I353J354*
G01X211500*
X213338Y211838D02*
G03X211500Y212600I-1838J-1838D01*
G01X213338Y211838D02*
X216838Y208338D01*
X217600Y206500D02*
G03X216838Y208338I-2600J0D01*
G01X217600Y206500D02*
Y160600D01*
G03X218100Y160100I500J0*
G01X267900*
G03X268400Y160600I-0J500*
G01Y193904*
G03X267432Y194081I-500J0*
G01Y195919D02*
G03Y194081I-2432J-919D01*
G01Y195919D02*
G03X268400Y196096I468J177D01*
G01Y203904*
G03X267432Y204081I-500J0*
G01Y205919D02*
G03Y204081I-2432J-919D01*
G01Y205919D02*
G03X268400Y206096I468J177D01*
G01Y225216*
G03X268254Y225569I-500J-0*
G01X266569Y227254*
G03X266216Y227400I-353J-354*
G01X245000*
X242819Y231416D02*
G03X245000Y227400I2181J-1416D01*
G01X242819Y231416D02*
G03X242900Y231688I-419J272D01*
G01Y294312*
G03X242819Y294584I-500J-0*
G01X247181D02*
G03X242819I-2181J1416D01*
G01X247181D02*
G03X247100Y294312I419J-272D01*
G01Y233100*
G03X247600Y232600I500J0*
G01X267500*
X269338Y231838D02*
G03X267500Y232600I-1838J-1838D01*
G01X269338Y231838D02*
X272838Y228338D01*
X273600Y226500D02*
G03X272838Y228338I-2600J0D01*
G01X273600Y226500D02*
Y160600D01*
G03X274100Y160100I500J0*
G01X355400*
G03X355900Y160600I0J500*
G01Y188989*
G03Y189000I-500J-0*
Y189011I-500J11*
G01Y196513*
G03X355754Y196867I-500J-0*
G01X355510Y197110*
X355100Y198100D02*
G03X355510Y197110I1400J0D01*
G01X355100Y198100D02*
Y209009D01*
X355510Y209999D02*
G03X355100Y209009I990J-990D01*
G01X355510Y209999D02*
X355754Y210242D01*
G03X355900Y210596I-354J354*
G01Y211926*
G03X355335Y212422I-500J-0*
G01Y217578D02*
G03Y212422I-335J-2578D01*
G01Y217578D02*
G03X355900Y218074I65J496D01*
G01Y231926*
G03X355335Y232422I-500J-0*
G01X354293Y237502D02*
G03X355335Y232422I707J-2502D01*
G01X354293Y237502D02*
G03X354511Y238337I-135J481D01*
G01X352957Y239891*
X352547Y240881D02*
G03X352957Y239891I1400J0D01*
G01X352547Y240881D02*
Y244065D01*
G03X351637Y244352I-500J-0*
G01X350353Y243531D02*
G03X351637Y244352I-353J1969D01*
G01X350353Y243531D02*
G03X349953Y242931I88J-492D01*
G01X346015Y242254D02*
G03X349953Y242931I1985J246D01*
G01X346015Y242254D02*
G03X345113Y242484I-496J-61D01*
G01X344761Y242087D02*
G03X345113Y242484I-1761J1913D01*
G01X344761Y242087D02*
G03X344600Y241720I339J-367D01*
G01Y234280*
G03X344761Y233913I500J0*
G01X341239D02*
G03X344761I1761J-1913D01*
G01X341239D02*
G03X341400Y234280I-339J367D01*
G01Y241720*
G03X341239Y242087I-500J-0*
G01X345598Y244102D02*
G03X341239Y242087I-2598J-102D01*
G01X345598Y244102D02*
G03X346478Y243798I500J20D01*
G01X347647Y244469D02*
G03X346478Y243798I353J-1969D01*
G01X347647Y244469D02*
G03X348047Y245069I-88J492D01*
G01X351637Y246648D02*
G03X348047Y245069I-1637J-1148D01*
G01X351637Y246648D02*
G03X352547Y246935I410J287D01*
G01Y295992*
G03X351819Y296438I-500J0*
G01X346417Y301778D02*
G03X351819Y296438I3583J-1778D01*
G01X346417Y301778D02*
G03X345969Y302500I-448J222D01*
G01X344687*
G03X344333Y302354I0J-500*
G01X343874Y301894*
G03X343758Y301370I354J-353*
G01X336462Y298133D02*
G03X343758Y301370I3538J1867D01*
G01X336462Y298133D02*
G03X336020Y298400I-442J-233D01*
G01X279000*
X277869Y298869D02*
G03X279000Y298400I1131J1131D01*
G01X277869Y298869D02*
X275481Y301256D01*
G03X275107Y301402I-353J-353*
G01X277598Y303893D02*
G03X275107Y301402I-2598J107D01*
G01X277598Y303893D02*
G03X277744Y303519I499J-21D01*
G01X279516Y301746*
G03X279870Y301600I354J354*
G01X336020*
G03X336462Y301867I0J500*
G01X341370Y303758D02*
G03X336462Y301867I-1370J-3758D01*
G01X341370Y303758D02*
G03X341894Y303874I171J470D01*
G01X342667Y304646*
G03Y305354I-354J354*
G01X341894Y306126*
G03X341370Y306242I-353J-354*
G01X336941Y312578D02*
G03X341370Y306242I3059J-2578D01*
G01X336941Y312578D02*
G03X336559Y313400I-382J322D01*
G01X255000*
X253869Y313869D02*
G03X255000Y313400I1131J1131D01*
G01X253869Y313869D02*
X253484Y314254D01*
G03X253130Y314400I-354J-354*
G01X250280*
G03X249913Y314239I0J-500*
G01Y317761D02*
G03Y314239I-1913J-1761D01*
G01Y317761D02*
G03X250280Y317600I367J339D01*
G01X254000*
X255131Y317131D02*
G03X254000Y317600I-1131J-1131D01*
G01X255131Y317131D02*
X255516Y316746D01*
G03X255870Y316600I354J354*
G01X336559*
G03X336941Y317422I0J500*
G01X343059D02*
G03X336941I-3059J2578D01*
G01X343059D02*
G03X343441Y316600I382J-322D01*
G01X344130*
G03X344484Y316746I0J500*
G01X346054Y318317*
G03X346178Y318818I-353J354*
G01X348818Y316178D02*
G03X346178Y318818I1182J3822D01*
G01X348818Y316178D02*
G03X348317Y316054I-147J-477D01*
G01X346131Y313869*
X345000Y313400D02*
G03X346131Y313869I0J1600D01*
G01X345000Y313400D02*
X343441D01*
G03X343059Y312578I-0J-500*
G01X343758Y308630D02*
G03X343059Y312578I-3758J1370D01*
G01X343758Y308630D02*
G03X343874Y308106I470J-171D01*
G01X344833Y307146*
G03X345187Y307000I354J354*
G01X346258*
G03X346674Y307778I0J500*
G01X352783Y307127D02*
G03X346674Y307778I-2783J2873D01*
G01X352783Y307127D02*
G03X352778Y306415I348J-359D01*
G01X354271Y304921*
G03X355125Y305275I354J354*
G01Y328496*
G03X354978Y328850I-500J0*
G01X354687Y329141*
G03X353852Y328922I-353J-354*
G01X346511Y328044D02*
G03X353852Y328922I3489J1956D01*
G01X346511Y328044D02*
G03X346074Y328300I-437J-244D01*
G01X306331*
G03X306116Y327348I-0J-500*
G01X303884D02*
G03X306116I1116J-2348D01*
G01X303884D02*
G03X303669Y328300I-215J452D01*
G01X291331*
G03X291116Y327348I-0J-500*
G01X288884D02*
G03X291116I1116J-2348D01*
G01X288884D02*
G03X288669Y328300I-215J452D01*
G01X271331*
G03X271116Y327348I-0J-500*
G01X268884D02*
G03X271116I1116J-2348D01*
G01X268884D02*
G03X268669Y328300I-215J452D01*
G01X251331*
G03X251116Y327348I-0J-500*
G01X248884D02*
G03X251116I1116J-2348D01*
G01X248884D02*
G03X248669Y328300I-215J452D01*
G01X160911*
G03X160558Y328154I0J-500*
G01X159846Y327442*
G03X159700Y327089I354J-353*
G01Y298184*
G03X159845Y297832I500J0*
G01X156155D02*
G03X159845I1845J-1832D01*
G01X156155D02*
G03X156300Y298184I-355J352D01*
G01Y327800*
G03X155800Y328300I-500J-0*
G01X140000*
X138798Y328798D02*
G03X140000Y328300I1202J1202D01*
G01X138798Y328798D02*
X132059Y335537D01*
G03X131914Y335638I-353J-354*
G01X130883Y339510D02*
G03X131914Y335638I2117J-1510D01*
G01X130883Y339510D02*
G03X130476Y340300I-407J290D01*
G01X130011*
G03X129658Y340154I0J-500*
G01X128846Y339342*
G03X128700Y338989I354J-353*
G01Y291011*
G03X128846Y290658I500J0*
G01X129658Y289846*
G03X130011Y289700I353J354*
G01X155816*
G03X156168Y289845I-0J500*
G01Y286155D02*
G03Y289845I1832J1845D01*
G01Y286155D02*
G03X155816Y286300I-352J-355D01*
G01X136650*
G03X136253Y285496I-0J-500*
G01X129747D02*
G03X136253I3253J-2496D01*
G01X129747D02*
G03X129350Y286300I-397J304D01*
G01X129100*
X127898Y286798D02*
G03X129100Y286300I1202J1202D01*
G01X127898Y286798D02*
X125798Y288898D01*
X125300Y290100D02*
G03X125798Y288898I1700J0D01*
G01X125300Y290100D02*
Y339900D01*
X125798Y341102D02*
G03X125300Y339900I1202J-1202D01*
G01X125798Y341102D02*
X127898Y343202D01*
X129100Y343700D02*
G03X127898Y343202I0J-1700D01*
G01X129100Y343700D02*
X135789D01*
G03X136142Y344554I-0J500*
G01X134798Y345898*
X134300Y347100D02*
G03X134798Y345898I1700J0D01*
G01X134300Y347100D02*
Y359816D01*
G03X134155Y360168I-500J-0*
G01X137845D02*
G03X134155I-1845J1832D01*
G01X137845D02*
G03X137700Y359816I355J-352D01*
G01Y348011*
G03X137846Y347658I500J0*
G01X138658Y346846*
G03X139011Y346700I353J354*
G01X153669*
G03X153884Y347652I0J500*
G01X156116D02*
G03X153884I-1116J2348D01*
G01X156116D02*
G03X156331Y346700I215J-452D01*
G01X176350*
G03X176747Y347504I0J500*
G01X183253D02*
G03X176747I-3253J2496D01*
G01X183253D02*
G03X183650Y346700I397J-304D01*
G01X233669*
G03X233884Y347652I0J500*
G01X236116D02*
G03X233884I-1116J2348D01*
G01X236116D02*
G03X236331Y346700I215J-452D01*
G01X258669*
G03X258884Y347652I0J500*
G01X261116D02*
G03X258884I-1116J2348D01*
G01X261116D02*
G03X261331Y346700I215J-452D01*
G01X278669*
G03X278884Y347652I0J500*
G01X281116D02*
G03X278884I-1116J2348D01*
G01X281116D02*
G03X281331Y346700I215J-452D01*
G01X284989*
G03X285342Y346846I-0J500*
G01X286154Y347658*
G03X286300Y348011I-354J353*
G01Y399089*
G03X286154Y399442I-500J-0*
G01X281342Y404254*
G03X280991Y404400I-353J-354*
G01X283600Y407009D02*
G03X280991Y404400I-2600J-9D01*
G01X283600Y407009D02*
G03X283746Y406658I500J2D01*
G01X288558Y401846*
G03X288911Y401700I353J354*
G01X346074*
G03X346511Y401956I0J500*
G01Y398044D02*
G03Y401956I3489J1956D01*
G01Y398044D02*
G03X346074Y398300I-437J-244D01*
G01X290200*
G03X289700Y397800I0J-500*
G01Y347100*
X289202Y345898D02*
G03X289700Y347100I-1202J1202D01*
G01X289202Y345898D02*
X287102Y343798D01*
X285900Y343300D02*
G03X287102Y343798I0J1700D01*
G01X285900Y343300D02*
X154331D01*
G03X154116Y342348I-0J-500*
G01X154832Y341845D02*
G03X154116Y342348I-1832J-1845D01*
G01X154832Y341845D02*
G03X155184Y341700I352J355D01*
G01X346074*
G03X346511Y341956I0J500*
G01X352079Y336583D02*
G03X346511Y341956I-2079J3417D01*
G01X352079Y336583D02*
G03X351986Y335802I260J-427D01*
G01X355046Y332741*
G03X355900Y333095I354J354*
G01Y401913*
G03X355754Y402267I-500J-0*
G01X351894Y406126*
G03X351370Y406242I-353J-354*
G01X346511Y408044D02*
G03X351370Y406242I3489J1956D01*
G01X346511Y408044D02*
G03X346074Y408300I-437J-244D01*
G01X293000*
X291798Y408798D02*
G03X293000Y408300I1202J1202D01*
G01X291798Y408798D02*
X288442Y412154D01*
G03X288089Y412300I-353J-354*
G01X268184*
G03X267832Y412155I0J-500*
G01X266009Y411400D02*
G03X267832Y412155I-9J2600D01*
G01X266009Y411400D02*
G03X265658Y411254I2J-500D01*
G01X262805Y408401*
X261603Y407903D02*
G03X262805Y408401I0J1700D01*
G01X261603Y407903D02*
X156734D01*
G03X156381Y407757I0J-500*
G01X153846Y405222*
G03X153700Y404869I354J-353*
G01Y365184*
G03X153845Y364832I500J0*
G01X150155D02*
G03X153845I1845J-1832D01*
G01X150155D02*
G03X150300Y365184I-355J352D01*
G01Y405780*
X150798Y406982D02*
G03X150300Y405780I1202J-1202D01*
G01X150798Y406982D02*
X154621Y410805D01*
X155823Y411303D02*
G03X154621Y410805I0J-1700D01*
G01X155823Y411303D02*
X260692D01*
G03X261045Y411450I-0J500*
G01X261046D02*
X263254Y413658D01*
G03X263400Y414009I-354J353*
G01X267832Y415845D02*
G03X263400Y414009I-1832J-1845D01*
G01X267832Y415845D02*
G03X268184Y415700I352J355D01*
G01X289000*
X290202Y415202D02*
G03X289000Y415700I-1202J-1202D01*
G01X290202Y415202D02*
X293558Y411846D01*
G03X293911Y411700I353J354*
G01X298669*
G03X298884Y412652I0J500*
G01X301116D02*
G03X298884I-1116J2348D01*
G01X301116D02*
G03X301331Y411700I215J-452D01*
G01X313669*
G03X313884Y412652I0J500*
G01X316116D02*
G03X313884I-1116J2348D01*
G01X316116D02*
G03X316331Y411700I215J-452D01*
G01X346074*
G03X346511Y411956I0J500*
G01X353758Y408630D02*
G03X346511Y411956I-3758J1370D01*
G01X353758Y408630D02*
G03X353874Y408106I470J-171D01*
G01X355046Y406933*
G03X355900Y407287I354J354*
G01X328884Y442348D02*
G03X328669Y443300I-215J452D01*
G01X311331*
G03X311116Y442348I-0J-500*
G01Y437652D02*
G03Y442348I-1116J2348D01*
G01Y437652D02*
G03X311331Y436700I215J-452D01*
G01X328669*
G03X328884Y437652I0J500*
G01Y442348D02*
G03Y437652I1116J-2348D01*
G01X308884Y442348D02*
G03X308669Y443300I-215J452D01*
G01X291331*
G03X291116Y442348I-0J-500*
G01Y437652D02*
G03Y442348I-1116J2348D01*
G01Y437652D02*
G03X291331Y436700I215J-452D01*
G01X308669*
G03X308884Y437652I0J500*
G01Y442348D02*
G03Y437652I1116J-2348D01*
G01X288884Y442348D02*
G03X288669Y443300I-215J452D01*
G01X286184*
G03X285832Y443155I0J-500*
G01X282155Y446832D02*
G03X285832Y443155I1845J-1832D01*
G01X282155Y446832D02*
G03X282300Y447184I-355J352D01*
G01Y447339*
G03X282154Y447692I-500J-0*
G01X281692Y448154*
G03X281339Y448300I-353J-354*
G01X236331*
G03X236116Y447348I-0J-500*
G01X236537Y442903D02*
G03X236116Y447348I-1537J2097D01*
G01X236537Y442903D02*
G03Y442097I296J-403D01*
G01X236116Y437652D02*
G03X236537Y442097I-1116J2348D01*
G01X236116Y437652D02*
G03X236331Y436700I215J-452D01*
G01X263800*
G03X264300Y437200I-0J500*
G01Y439816*
G03X264155Y440168I-500J-0*
G01X267845D02*
G03X264155I-1845J1832D01*
G01X267845D02*
G03X267700Y439816I355J-352D01*
G01Y437661*
G03X267846Y437308I500J0*
G01X268308Y436846*
G03X268661Y436700I353J354*
G01X288669*
G03X288884Y437652I0J500*
G01Y442348D02*
G03Y437652I1116J-2348D01*
G01X170000Y112000D02*
G03X170000I-4000J0D01*
G01X157600D02*
G03X157600I-2600J0D01*
G01Y129000D02*
G03X157600I-2600J0D01*
G01X148000Y112000D02*
G03X148000I-4000J0D01*
G01X230000D02*
G03X230000I-4000J0D01*
G01X217600Y129000D02*
G03X217600I-2600J0D01*
G01X208000Y112000D02*
G03X208000I-4000J0D01*
G01X181600Y124000D02*
G03X181600I-2600J0D01*
G01X281000Y112000D02*
G03X281000I-4000J0D01*
G01X267600Y129000D02*
G03X267600I-2600J0D01*
G01X258000Y112000D02*
G03X258000I-4000J0D01*
G01X392000Y428000D02*
G03X392000I-2000J0D01*
G01X387000Y439000D02*
G03X387000I-4000J0D01*
G01Y459000D02*
G03X387000I-4000J0D01*
G01Y380000D02*
G03X387000I-4000J0D01*
G01Y400000D02*
G03X387000I-4000J0D01*
G01X371400Y408000D02*
G03X371400I-2400J0D01*
G01X347600Y170000D02*
G03X347600I-2600J0D01*
G01X352600Y180000D02*
G03X352600I-2600J0D01*
G01X354900Y189000D02*
G03Y188991I500J-11D01*
G01Y189009D02*
G03Y188991I-2400J-9D01*
G01Y189009D02*
G03Y189000I500J2D01*
G01X344100Y355000D02*
G03X344100I-4100J0D01*
G01X336400Y365500D02*
G03X336400I-2400J0D01*
G01Y380500D02*
G03X336400I-2400J0D01*
G01X344100Y390000D02*
G03X344100I-4100J0D01*
G01X314100Y360000D02*
G03X314100I-4100J0D01*
G01Y375000D02*
G03X314100I-4100J0D01*
G01Y390000D02*
G03X314100I-4100J0D01*
G01X299100Y360000D02*
G03X299100I-4100J0D01*
G01Y375000D02*
G03X299100I-4100J0D01*
G01Y390000D02*
G03X299100I-4100J0D01*
G01X274100Y360000D02*
G03X274100I-4100J0D01*
G01X277100Y393000D02*
G03X277100I-4100J0D01*
G01X262600Y370000D02*
G03X262600I-2600J0D01*
G01X256100Y361000D02*
G03X256100I-4100J0D01*
G01X229100Y355000D02*
G03X229100I-4100J0D01*
G01X219100D02*
G03X219100I-4100J0D01*
G01X192100Y361000D02*
G03X192100I-4100J0D01*
G01X187600Y390000D02*
G03X187600I-2600J0D01*
G01X176100Y362000D02*
G03X176100I-4100J0D01*
G01X162600Y390000D02*
G03X162600I-2600J0D01*
G01X354100Y425000D02*
G03X354100I-4100J0D01*
G01X330623Y420332D02*
G03X333825Y422254I2377J-332D01*
G01X330623Y420332D02*
G03X330114Y420902I-495J70D01*
G01X333563Y422971D02*
G03X330114Y420902I-3563J2029D01*
G01X333563Y422971D02*
G03X333825Y422254I434J-248D01*
G01X319100Y425000D02*
G03X319100I-4100J0D01*
G01X304100D02*
G03X304100I-4100J0D01*
G01X289100D02*
G03X289100I-4100J0D01*
G01X264100D02*
G03X264100I-4100J0D01*
G01X252600Y415000D02*
G03X252600I-2600J0D01*
G01X249100Y425000D02*
G03X249100I-4100J0D01*
G01X237600Y415000D02*
G03X237600I-2600J0D01*
G01X234100Y425000D02*
G03X234100I-4100J0D01*
G01X222600Y415000D02*
G03X222600I-2600J0D01*
G01X219100Y425000D02*
G03X219100I-4100J0D01*
G01X207600Y415000D02*
G03X207600I-2600J0D01*
G01X204100Y425000D02*
G03X204100I-4100J0D01*
G01X192600Y415000D02*
G03X192600I-2600J0D01*
G01X189100Y425000D02*
G03X189100I-4100J0D01*
G01X177600Y415000D02*
G03X177600I-2600J0D01*
G01X174100Y425000D02*
G03X174100I-4100J0D01*
G01X346511Y443044D02*
G03Y446956I3489J1956D01*
G01Y443044D02*
G03X346074Y443300I-437J-244D01*
G01X331331*
G03X331116Y442348I-0J-500*
G01Y437652D02*
G03Y442348I-1116J2348D01*
G01Y437652D02*
G03X331331Y436700I215J-452D01*
G01X346074*
G03X346511Y436956I0J500*
G01Y433044D02*
G03Y436956I3489J1956D01*
G01Y433044D02*
G03X346074Y433300I-437J-244D01*
G01X267750*
X167750*
X166548Y433798D02*
G03X167750Y433300I1202J1202D01*
G01X166548Y433798D02*
X164798Y435548D01*
X164300Y436750D02*
G03X164798Y435548I1700J0D01*
G01X164300Y436750D02*
Y454816D01*
G03X164155Y455168I-500J-0*
G01X167845D02*
G03X164155I-1845J1832D01*
G01X167845D02*
G03X167700Y454816I355J-352D01*
G01Y437661*
G03X167846Y437308I500J0*
G01X168308Y436846*
G03X168661Y436700I353J354*
G01X183669*
G03X183884Y437652I0J500*
G01X186116D02*
G03X183884I-1116J2348D01*
G01X186116D02*
G03X186331Y436700I215J-452D01*
G01X233669*
G03X233884Y437652I0J500*
G01X233463Y442097D02*
G03X233884Y437652I1537J-2097D01*
G01X233463Y442097D02*
G03Y442903I-296J403D01*
G01X233884Y447348D02*
G03X233463Y442903I1116J-2348D01*
G01X233884Y447348D02*
G03X233669Y448300I-215J452D01*
G01X218650*
G03X218253Y447496I-0J-500*
G01X211747D02*
G03X218253I3253J-2496D01*
G01X211747D02*
G03X211350Y448300I-397J304D01*
G01X180911*
G03X180558Y448154I0J-500*
G01X174746Y442342*
G03X174600Y441991I354J-353*
G01X171991Y444600D02*
G03X174600Y441991I9J-2600D01*
G01X171991Y444600D02*
G03X172342Y444746I-2J500D01*
G01X178798Y451202*
X180000Y451700D02*
G03X178798Y451202I0J-1700D01*
G01X180000Y451700D02*
X186476D01*
G03X186883Y452490I0J500*
G01X188923Y456599D02*
G03X186883Y452490I77J-2599D01*
G01X188923Y456599D02*
G03X189084Y457567I-15J500D01*
G01X190077Y457401D02*
G03X189084Y457567I-77J2599D01*
G01X190077Y457401D02*
G03X189916Y456433I15J-500D01*
G01X191117Y452490D02*
G03X189916Y456433I-2117J1510D01*
G01X191117Y452490D02*
G03X191524Y451700I407J-290D01*
G01X211350*
G03X211747Y452504I0J500*
G01X218253D02*
G03X211747I-3253J2496D01*
G01X218253D02*
G03X218650Y451700I397J-304D01*
G01X252669*
G03X252884Y452652I0J500*
G01X255116D02*
G03X252884I-1116J2348D01*
G01X255116D02*
G03X255331Y451700I215J-452D01*
G01X282250*
X283452Y451202D02*
G03X282250Y451700I-1202J-1202D01*
G01X283452Y451202D02*
X285202Y449452D01*
X285700Y448250D02*
G03X285202Y449452I-1700J0D01*
G01X285700Y448250D02*
Y447200D01*
G03X286200Y446700I500J0*
G01X346074*
G03X346511Y446956I0J500*
G01X354100Y455000D02*
G03X354100I-4100J0D01*
G01X334400Y465500D02*
G03X334400I-2400J0D01*
G01Y480500D02*
G03X334400I-2400J0D01*
G01X314100Y455000D02*
G03X314100I-4100J0D01*
G01Y475000D02*
G03X314100I-4100J0D01*
G01X304100Y465000D02*
G03X304100I-4100J0D01*
G01X294100Y455000D02*
G03X294100I-4100J0D01*
G01Y475000D02*
G03X294100I-4100J0D01*
G01X277600Y460000D02*
G03X277600I-2600J0D01*
G01X264100D02*
G03X264100I-4100J0D01*
G01X239100D02*
G03X239100I-4100J0D01*
G01X162600Y415000D02*
G03X162600I-2600J0D01*
G01X169100Y465000D02*
G03X169100I-4100J0D01*
G01X159100Y425000D02*
G03X159100I-4100J0D01*
G01X157600Y440000D02*
G03X157600I-2600J0D01*
G01X159100Y475000D02*
G03X159100I-4100J0D01*
G01X146100Y380000D02*
G03X146100I-4100J0D01*
G01X149100Y415000D02*
G03X149100I-4100J0D01*
G01X144100Y425000D02*
G03X144100I-4100J0D01*
G01X132600Y360000D02*
G03X132600I-2600J0D01*
G01X134100Y375000D02*
G03X134100I-4100J0D01*
G01Y390000D02*
G03X134100I-4100J0D01*
G01Y405000D02*
G03X134100I-4100J0D01*
G01Y415000D02*
G03X134100I-4100J0D01*
G01X146500Y440000D02*
G03X146500I-6500J0D01*
G01X124100Y225000D02*
G03X124100I-4100J0D01*
G01X129100Y425000D02*
G03X129100I-4100J0D01*
G01X114100Y215000D02*
G03X114100I-4100J0D01*
G01Y230000D02*
G03X114100I-4100J0D01*
G01Y245000D02*
G03X114100I-4100J0D01*
G01Y255000D02*
G03X114100I-4100J0D01*
G01Y270000D02*
G03X114100I-4100J0D01*
G01Y285000D02*
G03X114100I-4100J0D01*
G01X112600Y300000D02*
G03X112600I-2600J0D01*
G01X114100Y315000D02*
G03X114100I-4100J0D01*
G01Y330000D02*
G03X114100I-4100J0D01*
G01X112400Y345500D02*
G03X112400I-2400J0D01*
G01Y360500D02*
G03X112400I-2400J0D01*
G01Y375500D02*
G03X112400I-2400J0D01*
G01Y390500D02*
G03X112400I-2400J0D01*
G01Y408000D02*
G03X112400I-2400J0D01*
G01X114100Y425000D02*
G03X114100I-4100J0D01*
G01X113696Y441584D02*
G03X114950Y444093I6304J-1584D01*
G01X113696Y441584D02*
G03X112862Y442064I-485J122D01*
G01X114066Y444472D02*
G03X112862Y442064I-4066J528D01*
G01X114066Y444472D02*
G03X114950Y444093I496J-65D01*
G01X134750Y450000D02*
G03X134750I-4750J0D01*
G01X146500Y460000D02*
G03X146500I-6500J0D01*
G01X126500D02*
G03X126500I-6500J0D01*
G01X229100Y190000D02*
G03X229100I-4100J0D01*
G01Y205000D02*
G03X229100I-4100J0D01*
G01X232600Y245000D02*
G03X232600I-2600J0D01*
G01X237600Y260000D02*
G03X237600I-2600J0D01*
G01Y300000D02*
G03X237600I-2600J0D01*
G01X239100Y310000D02*
G03X239100I-4100J0D01*
G01X237600Y320000D02*
G03X237600I-2600J0D01*
G01X227600Y260000D02*
G03X227600I-2600J0D01*
G01X229100Y300000D02*
G03X229100I-4100J0D01*
G01X227600Y310000D02*
G03X227600I-2600J0D01*
G01X229100Y320000D02*
G03X229100I-4100J0D01*
G01X209100Y185000D02*
G03X209100I-4100J0D01*
G01Y200000D02*
G03X209100I-4100J0D01*
G01X219100Y245000D02*
G03X219100I-4100J0D01*
G01X202600D02*
G03X202600I-2600J0D01*
G01X207600Y285000D02*
G03X207600I-2600J0D01*
G01Y300000D02*
G03X207600I-2600J0D01*
G01X210500Y310000D02*
G03X210500I-2600J0D01*
G01X192600Y300000D02*
G03X192600I-2600J0D01*
G01X194100Y320000D02*
G03X194100I-4100J0D01*
G01X177600Y175000D02*
G03X177600I-2600J0D01*
G01X180100Y279000D02*
G03X180100I-4100J0D01*
G01X179923Y310110D02*
G03X179923I-2600J0D01*
G01X164100Y190000D02*
G03X164100I-4100J0D01*
G01Y205000D02*
G03X164100I-4100J0D01*
G01Y220000D02*
G03X164100I-4100J0D01*
G01Y235000D02*
G03X164100I-4100J0D01*
G01X167600Y245000D02*
G03X167600I-2600J0D01*
G01X165100Y279000D02*
G03X165100I-4100J0D01*
G01X169100Y305000D02*
G03X169100I-4100J0D01*
G01Y320000D02*
G03X169100I-4100J0D01*
G01X146500Y170000D02*
G03X146500I-6500J0D01*
G01X126500D02*
G03X126500I-6500J0D01*
G01X134750Y180000D02*
G03X134750I-4750J0D01*
G01X146500Y190000D02*
G03X146500I-6500J0D01*
G01X149100Y220000D02*
G03X149100I-4100J0D01*
G01Y235000D02*
G03X149100I-4100J0D01*
G01X147600Y245000D02*
G03X147600I-2600J0D01*
G01X114100Y180000D02*
G03X114100I-4100J0D01*
G01X126500Y190000D02*
G03X126500I-6500J0D01*
G01X134100Y200000D02*
G03X134100I-4100J0D01*
G01Y220000D02*
G03X134100I-4100J0D01*
G01Y235000D02*
G03X134100I-4100J0D01*
G01X132600Y245000D02*
G03X132600I-2600J0D01*
G01X139363Y316013D02*
G03X137017Y316078I-1109J2352D01*
G01X139363Y316013D02*
G03X139338Y315121I213J-452D01*
G01X139170Y310464D02*
G03X139338Y315121I-1069J2370D01*
G01X139170Y310464D02*
G03X139183Y309547I206J-456D01*
G01X137108Y309519D02*
G03X139183Y309547I1069J-2370D01*
G01X137108Y309519D02*
G03X137095Y310436I-206J456D01*
G01X136992Y315186D02*
G03X137095Y310436I1109J-2352D01*
G01X136992Y315186D02*
G03X137017Y316078I-213J452D01*
G01X259100Y245000D02*
G03X259100I-4100J0D01*
G01X264100Y293000D02*
G03X264100I-6100J0D01*
G01X343990Y258363D02*
G03X343990I-2600J0D01*
G01X336587Y174783D02*
G03X336587I-2600J0D01*
G01X328951Y224911D02*
G03X328951I-2600J0D01*
G01X317600Y200000D02*
G03X317600I-2600J0D01*
G01X319100Y210000D02*
G03X319100I-4100J0D01*
G01X309100Y205000D02*
G03X309100I-4100J0D01*
G01X307600Y220000D02*
G03X307600I-2600J0D01*
G01X294100Y175000D02*
G03X294100I-4100J0D01*
G01X297600Y195000D02*
G03X297600I-2600J0D01*
G01X299100Y210000D02*
G03X299100I-4100J0D01*
G01Y225000D02*
G03X299100I-4100J0D01*
G01Y240000D02*
G03X299100I-4100J0D01*
G01X297600Y255000D02*
G03X297600I-2600J0D01*
G01X302600Y260000D02*
G03X302600I-2600J0D01*
G01X299100Y270000D02*
G03X299100I-4100J0D01*
G01X289400Y212000D02*
G03X289400I-2400J0D01*
G01Y238000D02*
G03X289400I-2400J0D01*
G01X287600Y260000D02*
G03X287600I-2600J0D01*
G01Y270000D02*
G03X287600I-2600J0D01*
G01X264100Y215000D02*
G03X264100I-4100J0D01*
G01X254100Y205000D02*
G03X254100I-4100J0D01*
G01X252600Y220000D02*
G03X252600I-2600J0D01*
G01X272600Y245000D02*
G03X272600I-2600J0D01*
G01X277600Y285000D02*
G03X277600I-2600J0D01*
G01X346739Y194948D02*
G03X347794Y195871I1761J-948D01*
G01X346739Y194948D02*
G03X346089Y195639I-440J237D01*
G01X343239Y199913D02*
G03X346089Y195639I1761J-1913D01*
G01X343239Y199913D02*
G03X343400Y200280I-339J367D01*
G01Y202720*
G03X343239Y203087I-500J-0*
G01X346761D02*
G03X343239I-1761J1913D01*
G01X346761D02*
G03X346600Y202720I339J-367D01*
G01Y200280*
G03X346761Y199913I500J0*
G01X347195Y196607D02*
G03X346761Y199913I-2195J1393D01*
G01X347195Y196607D02*
G03X347794Y195871I423J-268D01*
G01X170000Y112000D02*
X169000D01*
X166000Y116000D02*
Y115000D01*
X162000Y112000D02*
X163000D01*
X166000Y108000D02*
Y109000D01*
X148000Y112000D02*
X147000D01*
X144000Y116000D02*
Y115000D01*
X140000Y112000D02*
X141000D01*
X144000Y108000D02*
Y109000D01*
X230000Y112000D02*
X229000D01*
X226000Y116000D02*
Y115000D01*
X222000Y112000D02*
X223000D01*
X226000Y108000D02*
Y109000D01*
X208000Y112000D02*
X207000D01*
X204000Y116000D02*
Y115000D01*
X200000Y112000D02*
X201000D01*
X204000Y108000D02*
Y109000D01*
X281000Y112000D02*
X280000D01*
X277000Y116000D02*
Y115000D01*
X273000Y112000D02*
X274000D01*
X277000Y108000D02*
Y109000D01*
X258000Y112000D02*
X257000D01*
X254000Y116000D02*
Y115000D01*
X250000Y112000D02*
X251000D01*
X254000Y108000D02*
Y109000D01*
X387000Y459000D02*
X386000D01*
X383000Y463000D02*
Y462000D01*
X379000Y459000D02*
X380000D01*
X383000Y455000D02*
Y456000D01*
X387000Y439000D02*
X386000D01*
X383000Y443000D02*
Y442000D01*
X379000Y439000D02*
X380000D01*
X383000Y435000D02*
Y436000D01*
Y384000D02*
Y383000D01*
X379000Y380000D02*
X380000D01*
X383000Y376000D02*
Y377000D01*
X387000Y380000D02*
X386000D01*
X127250Y485000D02*
X126250D01*
X115000Y472750D02*
Y473750D01*
X126500Y440000D02*
X125500D01*
X120000Y446500D02*
Y445500D01*
X113500Y440000D02*
X114500D01*
X120000Y433500D02*
Y434500D01*
X146500Y440000D02*
X145500D01*
X140000Y446500D02*
Y445500D01*
X133500Y440000D02*
X134500D01*
X140000Y433500D02*
Y434500D01*
X146500Y460000D02*
X145500D01*
X140000Y466500D02*
Y465500D01*
X133500Y460000D02*
X134500D01*
X140000Y453500D02*
Y454500D01*
X126500Y460000D02*
X125500D01*
X120000Y466500D02*
Y465500D01*
X113500Y460000D02*
X114500D01*
X120000Y453500D02*
Y454500D01*
X146500Y170000D02*
X145500D01*
X140000Y176500D02*
Y175500D01*
X133500Y170000D02*
X134500D01*
X140000Y163500D02*
Y164500D01*
X126500Y170000D02*
X125500D01*
X120000Y176500D02*
Y175500D01*
X113500Y170000D02*
X114500D01*
X120000Y163500D02*
Y164500D01*
X146500Y190000D02*
X145500D01*
X140000Y196500D02*
Y195500D01*
X133500Y190000D02*
X134500D01*
X140000Y183500D02*
Y184500D01*
X126500Y190000D02*
X125500D01*
X120000Y196500D02*
Y195500D01*
X113500Y190000D02*
X114500D01*
X120000Y183500D02*
Y184500D01*
X157600Y112000D02*
X156500D01*
X155000Y114600D02*
Y113500D01*
X152400Y112000D02*
X153500D01*
X155000Y109400D02*
Y110500D01*
X157600Y129000D02*
X156500D01*
X155000Y131600D02*
Y130500D01*
X152400Y129000D02*
X153500D01*
X155000Y126400D02*
Y127500D01*
X217600Y129000D02*
X216500D01*
X215000Y131600D02*
Y130500D01*
X212400Y129000D02*
X213500D01*
X215000Y126400D02*
Y127500D01*
X267600Y129000D02*
X266500D01*
X265000Y131600D02*
Y130500D01*
X262400Y129000D02*
X263500D01*
X265000Y126400D02*
Y127500D01*
X369400Y370000D02*
X368300D01*
X367000Y372400D02*
Y371300D01*
X364600Y370000D02*
X365700D01*
X294100Y175000D02*
X293000D01*
X290000Y179100D02*
Y178000D01*
X285900Y175000D02*
X287000D01*
X290000Y170900D02*
Y172000D01*
X328951Y224911D02*
X327851D01*
X326351Y227511D02*
Y226411D01*
X323751Y224911D02*
X324851D01*
X326351Y222311D02*
Y223411D01*
X355000Y237600D02*
Y236500D01*
X352400Y235000D02*
X353500D01*
X355000Y232400D02*
Y233500D01*
X336587Y174783D02*
X335487D01*
X333987Y177383D02*
Y176283D01*
X331387Y174783D02*
X332487D01*
X333987Y172183D02*
Y173283D01*
X229100Y190000D02*
X228000D01*
X225000Y194100D02*
Y193000D01*
X220900Y190000D02*
X222000D01*
X225000Y185900D02*
Y187000D01*
X134100Y200000D02*
X133000D01*
X130000Y204100D02*
Y203000D01*
X125900Y200000D02*
X127000D01*
X130000Y195900D02*
Y197000D01*
X347600Y170000D02*
X346500D01*
X345000Y172600D02*
Y171500D01*
X342400Y170000D02*
X343500D01*
X345000Y167400D02*
Y168500D01*
X352600Y180000D02*
X351500D01*
X350000Y182600D02*
Y181500D01*
X347400Y180000D02*
X348500D01*
X350000Y177400D02*
Y178500D01*
X317600Y200000D02*
X316500D01*
X315000Y202600D02*
Y201500D01*
X312400Y200000D02*
X313500D01*
X315000Y197400D02*
Y198500D01*
X319100Y210000D02*
X318000D01*
X315000Y214100D02*
Y213000D01*
X310900Y210000D02*
X312000D01*
X315000Y205900D02*
Y207000D01*
X309100Y205000D02*
X308000D01*
X305000Y209100D02*
Y208000D01*
X300900Y205000D02*
X302000D01*
X305000Y200900D02*
Y202000D01*
X307600Y220000D02*
X306500D01*
X305000Y222600D02*
Y221500D01*
X302400Y220000D02*
X303500D01*
X305000Y217400D02*
Y218500D01*
X297600Y195000D02*
X296500D01*
X295000Y197600D02*
Y196500D01*
X292400Y195000D02*
X293500D01*
X295000Y192400D02*
Y193500D01*
X299100Y210000D02*
X298000D01*
X295000Y214100D02*
Y213000D01*
X290900Y210000D02*
X292000D01*
X295000Y205900D02*
Y207000D01*
X299100Y225000D02*
X298000D01*
X295000Y229100D02*
Y228000D01*
X290900Y225000D02*
X292000D01*
X295000Y220900D02*
Y222000D01*
X299100Y240000D02*
X298000D01*
X295000Y244100D02*
Y243000D01*
X290900Y240000D02*
X292000D01*
X295000Y235900D02*
Y237000D01*
X297600Y255000D02*
X296500D01*
X295000Y257600D02*
Y256500D01*
X292400Y255000D02*
X293500D01*
X295000Y252400D02*
Y253500D01*
X229100Y205000D02*
X228000D01*
X225000Y209100D02*
Y208000D01*
X220900Y205000D02*
X222000D01*
X225000Y200900D02*
Y202000D01*
X209100Y185000D02*
X208000D01*
X205000Y189100D02*
Y188000D01*
X200900Y185000D02*
X202000D01*
X205000Y180900D02*
Y182000D01*
X209100Y200000D02*
X208000D01*
X205000Y204100D02*
Y203000D01*
X200900Y200000D02*
X202000D01*
X205000Y195900D02*
Y197000D01*
X265000Y197600D02*
Y196500D01*
X262400Y195000D02*
X263500D01*
X265000Y192400D02*
Y193500D01*
X254100Y205000D02*
X253000D01*
X250000Y209100D02*
Y208000D01*
X245900Y205000D02*
X247000D01*
X250000Y200900D02*
Y202000D01*
X264100Y215000D02*
X263000D01*
X260000Y219100D02*
Y218000D01*
X255900Y215000D02*
X257000D01*
X260000Y210900D02*
Y212000D01*
X265000Y207600D02*
Y206500D01*
X262400Y205000D02*
X263500D01*
X265000Y202400D02*
Y203500D01*
X252600Y220000D02*
X251500D01*
X250000Y222600D02*
Y221500D01*
X247400Y220000D02*
X248500D01*
X250000Y217400D02*
Y218500D01*
X272600Y245000D02*
X271500D01*
X270000Y247600D02*
Y246500D01*
X267400Y245000D02*
X268500D01*
X270000Y242400D02*
Y243500D01*
X259100Y245000D02*
X258000D01*
X255000Y249100D02*
Y248000D01*
X250900Y245000D02*
X252000D01*
X255000Y240900D02*
Y242000D01*
X232600Y245000D02*
X231500D01*
X230000Y247600D02*
Y246500D01*
X227400Y245000D02*
X228500D01*
X230000Y242400D02*
Y243500D01*
X219100Y245000D02*
X218000D01*
X215000Y249100D02*
Y248000D01*
X210900Y245000D02*
X212000D01*
X215000Y240900D02*
Y242000D01*
X202600Y245000D02*
X201500D01*
X200000Y247600D02*
Y246500D01*
X197400Y245000D02*
X198500D01*
X200000Y242400D02*
Y243500D01*
X124100Y225000D02*
X123000D01*
X120000Y229100D02*
Y228000D01*
X115900Y225000D02*
X117000D01*
X120000Y220900D02*
Y222000D01*
X134100Y220000D02*
X133000D01*
X130000Y224100D02*
Y223000D01*
X125900Y220000D02*
X127000D01*
X130000Y215900D02*
Y217000D01*
X134100Y235000D02*
X133000D01*
X130000Y239100D02*
Y238000D01*
X125900Y235000D02*
X127000D01*
X130000Y230900D02*
Y232000D01*
X149100Y220000D02*
X148000D01*
X145000Y224100D02*
Y223000D01*
X140900Y220000D02*
X142000D01*
X145000Y215900D02*
Y217000D01*
X149100Y235000D02*
X148000D01*
X145000Y239100D02*
Y238000D01*
X140900Y235000D02*
X142000D01*
X145000Y230900D02*
Y232000D01*
X164100Y235000D02*
X163000D01*
X160000Y239100D02*
Y238000D01*
X155900Y235000D02*
X157000D01*
X160000Y230900D02*
Y232000D01*
X164100Y220000D02*
X163000D01*
X160000Y224100D02*
Y223000D01*
X155900Y220000D02*
X157000D01*
X160000Y215900D02*
Y217000D01*
X164100Y205000D02*
X163000D01*
X160000Y209100D02*
Y208000D01*
X155900Y205000D02*
X157000D01*
X160000Y200900D02*
Y202000D01*
X164100Y190000D02*
X163000D01*
X160000Y194100D02*
Y193000D01*
X155900Y190000D02*
X157000D01*
X160000Y185900D02*
Y187000D01*
X177600Y175000D02*
X176500D01*
X175000Y177600D02*
Y176500D01*
X172400Y175000D02*
X173500D01*
X175000Y172400D02*
Y173500D01*
X114100Y180000D02*
X113000D01*
X110000Y184100D02*
Y183000D01*
X105900Y180000D02*
X107000D01*
X110000Y175900D02*
Y177000D01*
X147600Y245000D02*
X146500D01*
X145000Y247600D02*
Y246500D01*
X142400Y245000D02*
X143500D01*
X145000Y242400D02*
Y243500D01*
X180000Y247600D02*
Y246500D01*
X177400Y245000D02*
X178500D01*
X180000Y242400D02*
Y243500D01*
X167600Y245000D02*
X166500D01*
X165000Y247600D02*
Y246500D01*
X162400Y245000D02*
X163500D01*
X165000Y242400D02*
Y243500D01*
X132600Y245000D02*
X131500D01*
X130000Y247600D02*
Y246500D01*
X127400Y245000D02*
X128500D01*
X130000Y242400D02*
Y243500D01*
X114100Y215000D02*
X113000D01*
X110000Y219100D02*
Y218000D01*
X105900Y215000D02*
X107000D01*
X110000Y210900D02*
Y212000D01*
X114100Y230000D02*
X113000D01*
X110000Y234100D02*
Y233000D01*
X105900Y230000D02*
X107000D01*
X110000Y225900D02*
Y227000D01*
X114100Y245000D02*
X113000D01*
X110000Y249100D02*
Y248000D01*
X105900Y245000D02*
X107000D01*
X110000Y240900D02*
Y242000D01*
X252600Y325000D02*
X251500D01*
X247400D02*
X248500D01*
X250000Y322400D02*
Y323500D01*
X272600Y325000D02*
X271500D01*
X267400D02*
X268500D01*
X270000Y322400D02*
Y323500D01*
X292600Y325000D02*
X291500D01*
X287400D02*
X288500D01*
X290000Y322400D02*
Y323500D01*
X307600Y325000D02*
X306500D01*
X302400D02*
X303500D01*
X305000Y322400D02*
Y323500D01*
X342600Y335000D02*
X341500D01*
X337400D02*
X338500D01*
X322600D02*
X321500D01*
X317400D02*
X318500D01*
X312600D02*
X311500D01*
X307400D02*
X308500D01*
X302600D02*
X301500D01*
X297400D02*
X298500D01*
X282600D02*
X281500D01*
X277400D02*
X278500D01*
X267600D02*
X266500D01*
X262400D02*
X263500D01*
X252600D02*
X251500D01*
X247400D02*
X248500D01*
X237600D02*
X236500D01*
X232400D02*
X233500D01*
X222600D02*
X221500D01*
X217400D02*
X218500D01*
X207600D02*
X206500D01*
X202400D02*
X203500D01*
X192600D02*
X191500D01*
X187400D02*
X188500D01*
X172600D02*
X171500D01*
X167400D02*
X168500D01*
X227600Y310000D02*
X226500D01*
X225000Y312600D02*
Y311500D01*
X222400Y310000D02*
X223500D01*
X225000Y307400D02*
Y308500D01*
X229100Y320000D02*
X228000D01*
X225000Y324100D02*
Y323000D01*
X220900Y320000D02*
X222000D01*
X225000Y315900D02*
Y317000D01*
X237600Y320000D02*
X236500D01*
X235000Y322600D02*
Y321500D01*
X232400Y320000D02*
X233500D01*
X235000Y317400D02*
Y318500D01*
X239100Y310000D02*
X238000D01*
X235000Y314100D02*
Y313000D01*
X230900Y310000D02*
X232000D01*
X235000Y305900D02*
Y307000D01*
X237600Y300000D02*
X236500D01*
X235000Y302600D02*
Y301500D01*
X232400Y300000D02*
X233500D01*
X235000Y297400D02*
Y298500D01*
X229100Y300000D02*
X228000D01*
X225000Y304100D02*
Y303000D01*
X220900Y300000D02*
X222000D01*
X225000Y295900D02*
Y297000D01*
X207600Y300000D02*
X206500D01*
X205000Y302600D02*
Y301500D01*
X202400Y300000D02*
X203500D01*
X205000Y297400D02*
Y298500D01*
X192600Y300000D02*
X191500D01*
X190000Y302600D02*
Y301500D01*
X187400Y300000D02*
X188500D01*
X190000Y297400D02*
Y298500D01*
X194100Y320000D02*
X193000D01*
X190000Y324100D02*
Y323000D01*
X185900Y320000D02*
X187000D01*
X190000Y315900D02*
Y317000D01*
X169100Y305000D02*
X168000D01*
X165000Y309100D02*
Y308000D01*
X160900Y305000D02*
X162000D01*
X165000Y300900D02*
Y302000D01*
X169100Y320000D02*
X168000D01*
X165000Y324100D02*
Y323000D01*
X160900Y320000D02*
X162000D01*
X165000Y315900D02*
Y317000D01*
X207600Y285000D02*
X206500D01*
X205000Y287600D02*
Y286500D01*
X202400Y285000D02*
X203500D01*
X205000Y282400D02*
Y283500D01*
X237600Y260000D02*
X236500D01*
X235000Y262600D02*
Y261500D01*
X232400Y260000D02*
X233500D01*
X235000Y257400D02*
Y258500D01*
X227600Y260000D02*
X226500D01*
X225000Y262600D02*
Y261500D01*
X222400Y260000D02*
X223500D01*
X225000Y257400D02*
Y258500D01*
X287600Y270000D02*
X286500D01*
X285000Y272600D02*
Y271500D01*
X282400Y270000D02*
X283500D01*
X285000Y267400D02*
Y268500D01*
X299100Y270000D02*
X298000D01*
X295000Y274100D02*
Y273000D01*
X290900Y270000D02*
X292000D01*
X295000Y265900D02*
Y267000D01*
X302600Y260000D02*
X301500D01*
X300000Y262600D02*
Y261500D01*
X297400Y260000D02*
X298500D01*
X300000Y257400D02*
Y258500D01*
X287600Y260000D02*
X286500D01*
X285000Y262600D02*
Y261500D01*
X282400Y260000D02*
X283500D01*
X285000Y257400D02*
Y258500D01*
X114100Y255000D02*
X113000D01*
X110000Y259100D02*
Y258000D01*
X105900Y255000D02*
X107000D01*
X110000Y250900D02*
Y252000D01*
X114100Y270000D02*
X113000D01*
X110000Y274100D02*
Y273000D01*
X105900Y270000D02*
X107000D01*
X110000Y265900D02*
Y267000D01*
X114100Y285000D02*
X113000D01*
X110000Y289100D02*
Y288000D01*
X105900Y285000D02*
X107000D01*
X110000Y280900D02*
Y282000D01*
X112600Y300000D02*
X111500D01*
X110000Y302600D02*
Y301500D01*
X107400Y300000D02*
X108500D01*
X110000Y297400D02*
Y298500D01*
X114100Y315000D02*
X113000D01*
X110000Y319100D02*
Y318000D01*
X105900Y315000D02*
X107000D01*
X110000Y310900D02*
Y312000D01*
X114100Y330000D02*
X113000D01*
X110000Y334100D02*
Y333000D01*
X105900Y330000D02*
X107000D01*
X110000Y325900D02*
Y327000D01*
X262600Y350000D02*
X261500D01*
X260000Y352600D02*
Y351500D01*
X257400Y350000D02*
X258500D01*
X237600D02*
X236500D01*
X235000Y352600D02*
Y351500D01*
X232400Y350000D02*
X233500D01*
X157600D02*
X156500D01*
X155000Y352600D02*
Y351500D01*
X152400Y350000D02*
X153500D01*
X184100D02*
X183000D01*
X180000Y354100D02*
Y353000D01*
X175900Y350000D02*
X177000D01*
X162600Y390000D02*
X161500D01*
X160000Y392600D02*
Y391500D01*
X157400Y390000D02*
X158500D01*
X160000Y387400D02*
Y388500D01*
X187600Y390000D02*
X186500D01*
X185000Y392600D02*
Y391500D01*
X182400Y390000D02*
X183500D01*
X185000Y387400D02*
Y388500D01*
X282600Y350000D02*
X281500D01*
X280000Y352600D02*
Y351500D01*
X277400Y350000D02*
X278500D01*
X262600Y370000D02*
X261500D01*
X260000Y372600D02*
Y371500D01*
X257400Y370000D02*
X258500D01*
X260000Y367400D02*
Y368500D01*
X274100Y360000D02*
X273000D01*
X270000Y364100D02*
Y363000D01*
X265900Y360000D02*
X267000D01*
X270000Y355900D02*
Y357000D01*
X344100Y355000D02*
X343000D01*
X340000Y359100D02*
Y358000D01*
X335900Y355000D02*
X337000D01*
X340000Y350900D02*
Y352000D01*
X344100Y390000D02*
X343000D01*
X340000Y394100D02*
Y393000D01*
X335900Y390000D02*
X337000D01*
X340000Y385900D02*
Y387000D01*
X314100Y390000D02*
X313000D01*
X310000Y394100D02*
Y393000D01*
X305900Y390000D02*
X307000D01*
X310000Y385900D02*
Y387000D01*
X314100Y375000D02*
X313000D01*
X310000Y379100D02*
Y378000D01*
X305900Y375000D02*
X307000D01*
X310000Y370900D02*
Y372000D01*
X314100Y360000D02*
X313000D01*
X310000Y364100D02*
Y363000D01*
X305900Y360000D02*
X307000D01*
X310000Y355900D02*
Y357000D01*
X299100Y360000D02*
X298000D01*
X295000Y364100D02*
Y363000D01*
X290900Y360000D02*
X292000D01*
X295000Y355900D02*
Y357000D01*
X299100Y375000D02*
X298000D01*
X295000Y379100D02*
Y378000D01*
X290900Y375000D02*
X292000D01*
X295000Y370900D02*
Y372000D01*
X299100Y390000D02*
X298000D01*
X295000Y394100D02*
Y393000D01*
X290900Y390000D02*
X292000D01*
X295000Y385900D02*
Y387000D01*
X132600Y360000D02*
X131500D01*
X130000Y362600D02*
Y361500D01*
X127400Y360000D02*
X128500D01*
X130000Y357400D02*
Y358500D01*
X134100Y375000D02*
X133000D01*
X130000Y379100D02*
Y378000D01*
X125900Y375000D02*
X127000D01*
X130000Y370900D02*
Y372000D01*
X134100Y390000D02*
X133000D01*
X130000Y394100D02*
Y393000D01*
X125900Y390000D02*
X127000D01*
X130000Y385900D02*
Y387000D01*
X134100Y405000D02*
X133000D01*
X130000Y409100D02*
Y408000D01*
X125900Y405000D02*
X127000D01*
X130000Y400900D02*
Y402000D01*
X317600Y415000D02*
X316500D01*
X315000Y417600D02*
Y416500D01*
X312400Y415000D02*
X313500D01*
X302600D02*
X301500D01*
X300000Y417600D02*
Y416500D01*
X297400Y415000D02*
X298500D01*
X252600D02*
X251500D01*
X250000Y417600D02*
Y416500D01*
X247400Y415000D02*
X248500D01*
X250000Y412400D02*
Y413500D01*
X237600Y415000D02*
X236500D01*
X235000Y417600D02*
Y416500D01*
X232400Y415000D02*
X233500D01*
X235000Y412400D02*
Y413500D01*
X222600Y415000D02*
X221500D01*
X220000Y417600D02*
Y416500D01*
X217400Y415000D02*
X218500D01*
X220000Y412400D02*
Y413500D01*
X207600Y415000D02*
X206500D01*
X205000Y417600D02*
Y416500D01*
X202400Y415000D02*
X203500D01*
X205000Y412400D02*
Y413500D01*
X192600Y415000D02*
X191500D01*
X190000Y417600D02*
Y416500D01*
X187400Y415000D02*
X188500D01*
X190000Y412400D02*
Y413500D01*
X177600Y415000D02*
X176500D01*
X175000Y417600D02*
Y416500D01*
X172400Y415000D02*
X173500D01*
X175000Y412400D02*
Y413500D01*
X162600Y415000D02*
X161500D01*
X160000Y417600D02*
Y416500D01*
X157400Y415000D02*
X158500D01*
X160000Y412400D02*
Y413500D01*
X149100Y415000D02*
X148000D01*
X145000Y419100D02*
Y418000D01*
X140900Y415000D02*
X142000D01*
X145000Y410900D02*
Y412000D01*
X134100Y415000D02*
X133000D01*
X130000Y419100D02*
Y418000D01*
X125900Y415000D02*
X127000D01*
X130000Y410900D02*
Y412000D01*
X332600Y440000D02*
X331500D01*
X327400D02*
X328500D01*
X312600D02*
X311500D01*
X307400D02*
X308500D01*
X292600D02*
X291500D01*
X287400D02*
X288500D01*
X157600D02*
X156500D01*
X155000Y442600D02*
Y441500D01*
X152400Y440000D02*
X153500D01*
X155000Y437400D02*
Y438500D01*
X294100Y455000D02*
X293000D01*
X290000Y459100D02*
Y458000D01*
X285900Y455000D02*
X287000D01*
X290000Y450900D02*
Y452000D01*
X314100Y475000D02*
X313000D01*
X310000Y479100D02*
Y478000D01*
X305900Y475000D02*
X307000D01*
X310000Y470900D02*
Y472000D01*
X314100Y455000D02*
X313000D01*
X310000Y459100D02*
Y458000D01*
X305900Y455000D02*
X307000D01*
X310000Y450900D02*
Y452000D01*
X304100Y465000D02*
X303000D01*
X300000Y469100D02*
Y468000D01*
X295900Y465000D02*
X297000D01*
X300000Y460900D02*
Y462000D01*
X294100Y475000D02*
X293000D01*
X290000Y479100D02*
Y478000D01*
X285900Y475000D02*
X287000D01*
X290000Y470900D02*
Y472000D01*
X169100Y465000D02*
X168000D01*
X165000Y469100D02*
Y468000D01*
X160900Y465000D02*
X162000D01*
X165000Y460900D02*
Y462000D01*
X159100Y475000D02*
X158000D01*
X155000Y479100D02*
Y478000D01*
X150900Y475000D02*
X152000D01*
X155000Y470900D02*
Y472000D01*
X334100Y425000D02*
X333000D01*
X330000Y429100D02*
Y428000D01*
X325900Y425000D02*
X327000D01*
X330000Y420900D02*
Y422000D01*
X319100Y425000D02*
X318000D01*
X315000Y429100D02*
Y428000D01*
X310900Y425000D02*
X312000D01*
X315000Y420900D02*
Y422000D01*
X304100Y425000D02*
X303000D01*
X300000Y429100D02*
Y428000D01*
X295900Y425000D02*
X297000D01*
X300000Y420900D02*
Y422000D01*
X289100Y425000D02*
X288000D01*
X285000Y429100D02*
Y428000D01*
X280900Y425000D02*
X282000D01*
X285000Y420900D02*
Y422000D01*
X264100Y425000D02*
X263000D01*
X260000Y429100D02*
Y428000D01*
X255900Y425000D02*
X257000D01*
X260000Y420900D02*
Y422000D01*
X249100Y425000D02*
X248000D01*
X245000Y429100D02*
Y428000D01*
X240900Y425000D02*
X242000D01*
X245000Y420900D02*
Y422000D01*
X234100Y425000D02*
X233000D01*
X230000Y429100D02*
Y428000D01*
X225900Y425000D02*
X227000D01*
X230000Y420900D02*
Y422000D01*
X219100Y425000D02*
X218000D01*
X215000Y429100D02*
Y428000D01*
X210900Y425000D02*
X212000D01*
X215000Y420900D02*
Y422000D01*
X204100Y425000D02*
X203000D01*
X200000Y429100D02*
Y428000D01*
X195900Y425000D02*
X197000D01*
X200000Y420900D02*
Y422000D01*
X189100Y425000D02*
X188000D01*
X185000Y429100D02*
Y428000D01*
X180900Y425000D02*
X182000D01*
X185000Y420900D02*
Y422000D01*
X174100Y425000D02*
X173000D01*
X170000Y429100D02*
Y428000D01*
X165900Y425000D02*
X167000D01*
X170000Y420900D02*
Y422000D01*
X159100Y425000D02*
X158000D01*
X155000Y429100D02*
Y428000D01*
X150900Y425000D02*
X152000D01*
X155000Y420900D02*
Y422000D01*
X144100Y425000D02*
X143000D01*
X140000Y429100D02*
Y428000D01*
X135900Y425000D02*
X137000D01*
X140000Y420900D02*
Y422000D01*
X129100Y425000D02*
X128000D01*
X125000Y429100D02*
Y428000D01*
X120900Y425000D02*
X122000D01*
X125000Y420900D02*
Y422000D01*
X114100Y445000D02*
X113000D01*
X110000Y449100D02*
Y448000D01*
X105900Y445000D02*
X107000D01*
X110000Y440900D02*
Y442000D01*
X334100Y490000D02*
X333000D01*
X325900D02*
X327000D01*
X330000Y485900D02*
Y487000D01*
X319100Y490000D02*
X318000D01*
X310900D02*
X312000D01*
X315000Y485900D02*
Y487000D01*
X304100Y490000D02*
X303000D01*
X295900D02*
X297000D01*
X300000Y485900D02*
Y487000D01*
X289100Y490000D02*
X288000D01*
X280900D02*
X282000D01*
X285000Y485900D02*
Y487000D01*
X274100Y490000D02*
X273000D01*
X265900D02*
X267000D01*
X270000Y485900D02*
Y487000D01*
X259100Y490000D02*
X258000D01*
X250900D02*
X252000D01*
X255000Y485900D02*
Y487000D01*
X244100Y490000D02*
X243000D01*
X235900D02*
X237000D01*
X240000Y485900D02*
Y487000D01*
X229100Y490000D02*
X228000D01*
X220900D02*
X222000D01*
X225000Y485900D02*
Y487000D01*
X214100Y490000D02*
X213000D01*
X205900D02*
X207000D01*
X210000Y485900D02*
Y487000D01*
X199100Y490000D02*
X198000D01*
X190900D02*
X192000D01*
X195000Y485900D02*
Y487000D01*
X184100Y490000D02*
X183000D01*
X175900D02*
X177000D01*
X180000Y485900D02*
Y487000D01*
X169100Y490000D02*
X168000D01*
X160900D02*
X162000D01*
X165000Y485900D02*
Y487000D01*
X154100Y490000D02*
X153000D01*
X145900D02*
X147000D01*
X150000Y485900D02*
Y487000D01*
X187600Y440000D02*
X186500D01*
X185000Y442600D02*
Y441500D01*
X182400Y440000D02*
X183500D01*
X237600Y445000D02*
X236500D01*
X232400D02*
X233500D01*
X219100D02*
X218000D01*
X210900D02*
X212000D01*
X215000Y440900D02*
Y442000D01*
X239100Y460000D02*
X238000D01*
X235000Y464100D02*
Y463000D01*
X230900Y460000D02*
X232000D01*
X235000Y455900D02*
Y457000D01*
X219100Y455000D02*
X218000D01*
X215000Y459100D02*
Y458000D01*
X210900Y455000D02*
X212000D01*
X192600Y460000D02*
X191500D01*
X190000Y462600D02*
Y461500D01*
X187400Y460000D02*
X188500D01*
X190000Y457400D02*
Y458500D01*
X264100Y460000D02*
X263000D01*
X260000Y464100D02*
Y463000D01*
X255900Y460000D02*
X257000D01*
X260000Y455900D02*
Y457000D01*
X354100Y425000D02*
X353000D01*
X350000Y429100D02*
Y428000D01*
X345900Y425000D02*
X347000D01*
X350000Y420900D02*
Y422000D01*
X354100Y455000D02*
X353000D01*
X350000Y459100D02*
Y458000D01*
X345900Y455000D02*
X347000D01*
X350000Y450900D02*
Y452000D01*
X354100Y490000D02*
X353000D01*
X345900D02*
X347000D01*
X350000Y485900D02*
Y487000D01*
X114100Y425000D02*
X113000D01*
X110000Y429100D02*
Y428000D01*
X105900Y425000D02*
X107000D01*
X110000Y420900D02*
Y422000D01*
X277600Y285000D02*
X276500D01*
X275000Y287600D02*
Y286500D01*
X272400Y285000D02*
X273500D01*
X275000Y282400D02*
Y283500D01*
X114100Y470000D02*
X113000D01*
X105900D02*
X107000D01*
X110000Y465900D02*
Y467000D01*
X140701Y312834D02*
X139601D01*
X135501D02*
X136601D01*
X140854Y318365D02*
X139754D01*
X138254Y320965D02*
Y319865D01*
X135654Y318365D02*
X136754D01*
X355000Y217600D02*
Y216500D01*
X352400Y215000D02*
X353500D01*
X355000Y212400D02*
Y213500D01*
X264100Y293000D02*
X263000D01*
X258000Y299100D02*
Y298000D01*
X251900Y293000D02*
X253000D01*
X258000Y286900D02*
Y288000D01*
X139100Y490000D02*
X138000D01*
X130900D02*
X132000D01*
X135000Y485900D02*
Y487000D01*
X229100Y355000D02*
X228000D01*
X225000Y359100D02*
Y358000D01*
X220900Y355000D02*
X222000D01*
X225000Y350900D02*
Y352000D01*
X219100Y355000D02*
X218000D01*
X215000Y359100D02*
Y358000D01*
X210900Y355000D02*
X212000D01*
X215000Y350900D02*
Y352000D01*
X256100Y361000D02*
X255000D01*
X252000Y365100D02*
Y364000D01*
X247900Y361000D02*
X249000D01*
X252000Y356900D02*
Y358000D01*
X192100Y361000D02*
X191000D01*
X188000Y365100D02*
Y364000D01*
X183900Y361000D02*
X185000D01*
X188000Y356900D02*
Y358000D01*
X256600Y455000D02*
X255500D01*
X254000Y457600D02*
Y456500D01*
X251400Y455000D02*
X252500D01*
X146100Y380000D02*
X145000D01*
X142000Y384100D02*
Y383000D01*
X137900Y380000D02*
X139000D01*
X142000Y375900D02*
Y377000D01*
X176100Y362000D02*
X175000D01*
X172000Y366100D02*
Y365000D01*
X167900Y362000D02*
X169000D01*
X172000Y357900D02*
Y359000D01*
X277100Y393000D02*
X276000D01*
X273000Y397100D02*
Y396000D01*
X268900Y393000D02*
X270000D01*
X273000Y388900D02*
Y390000D01*
X237600Y440000D02*
X236500D01*
X232400D02*
X233500D01*
X191600Y454000D02*
X190500D01*
X189000Y456600D02*
Y455500D01*
X186400Y454000D02*
X187500D01*
X137100Y283000D02*
X136000D01*
X128900D02*
X130000D01*
X133000Y278900D02*
Y280000D01*
X180100Y279000D02*
X179000D01*
X176000Y283100D02*
Y282000D01*
X171900Y279000D02*
X173000D01*
X176000Y274900D02*
Y276000D01*
X277600Y460000D02*
X276500D01*
X275000Y462600D02*
Y461500D01*
X272400Y460000D02*
X273500D01*
X275000Y457400D02*
Y458500D01*
X165100Y279000D02*
X164000D01*
X161000Y283100D02*
Y282000D01*
X156900Y279000D02*
X158000D01*
X161000Y274900D02*
Y276000D01*
X140777Y307149D02*
X139677D01*
X135577D02*
X136677D01*
X138177Y304549D02*
Y305649D01*
X343990Y258363D02*
X342890D01*
X341390Y260963D02*
Y259863D01*
X338790Y258363D02*
X339890D01*
X341390Y255763D02*
Y256863D01*
G54D12*
X610000Y170000D03*
X625000D03*
X360000Y110000D03*
X680000Y295000D03*
Y350000D03*
X460000Y405000D03*
Y420000D03*
X615000Y490000D03*
X660000Y120000D03*
X460000Y370000D03*
G54D13*
X610000Y160000D03*
Y150000D03*
X660000Y445000D03*
Y435157D03*
X667874D03*
Y445000D03*
X587000Y472000D03*
X567000D03*
X535000Y460000D03*
X625000Y160000D03*
Y150000D03*
X370000Y110000D03*
X690000Y295000D03*
X680000Y285000D03*
X690000D03*
X680000Y275000D03*
X690000D03*
X680000Y265000D03*
X690000D03*
X680000Y255000D03*
X690000D03*
Y350000D03*
X680000Y340000D03*
X690000D03*
X680000Y330000D03*
X690000D03*
X680000Y320000D03*
X690000D03*
X680000Y310000D03*
X690000D03*
X470000Y405000D03*
X480000D03*
X490000D03*
X470000Y420000D03*
X480000D03*
X490000D03*
X625000Y490000D03*
X550000Y460000D03*
X525000D03*
X577000Y487000D03*
X647000Y468000D03*
X383000Y400000D03*
X635000Y275000D03*
X383000Y380000D03*
Y459000D03*
Y439000D03*
X450000Y140000D03*
X470000D03*
X635000Y265000D03*
Y255000D03*
Y245000D03*
X204000Y112000D03*
X226000D03*
X254000D03*
X277000D03*
X144000D03*
X166000D03*
X660000Y110000D03*
X650000Y120000D03*
Y110000D03*
X640000Y120000D03*
Y110000D03*
X630000Y120000D03*
Y110000D03*
X620000Y120000D03*
Y110000D03*
X610000Y120000D03*
Y110000D03*
X600000Y120000D03*
Y110000D03*
X590000Y120000D03*
Y110000D03*
X580000Y120000D03*
Y110000D03*
X570000Y120000D03*
Y110000D03*
X560000Y120000D03*
Y110000D03*
X550000Y120000D03*
Y110000D03*
X540000Y120000D03*
Y110000D03*
X530000Y120000D03*
Y110000D03*
X520000Y120000D03*
Y110000D03*
X510000Y120000D03*
Y110000D03*
X500000Y120000D03*
Y110000D03*
X490000Y120000D03*
Y110000D03*
X480000Y120000D03*
Y110000D03*
X470000Y120000D03*
Y110000D03*
X460000Y120000D03*
Y110000D03*
X450000Y120000D03*
Y110000D03*
X440000Y120000D03*
Y110000D03*
X430000Y120000D03*
Y110000D03*
X350000Y445000D03*
Y435000D03*
Y410000D03*
Y400000D03*
Y340000D03*
Y330000D03*
Y300000D03*
X340000D03*
X350000Y310000D03*
X340000D03*
X350000Y320000D03*
X340000D03*
X460000Y380000D03*
X470000Y370000D03*
Y380000D03*
X480000Y370000D03*
Y380000D03*
X490000Y370000D03*
Y380000D03*
X500000Y370000D03*
Y380000D03*
X110000Y180000D03*
X205000Y185000D03*
X290000Y175000D03*
X130000Y200000D03*
X160000Y205000D03*
Y190000D03*
X205000Y200000D03*
X225000Y190000D03*
Y205000D03*
X250000D03*
X305000D03*
X120000Y225000D03*
X110000Y215000D03*
X130000Y220000D03*
X145000D03*
X160000D03*
X260000Y215000D03*
X295000Y210000D03*
Y225000D03*
X315000Y210000D03*
X110000Y230000D03*
Y245000D03*
X130000Y235000D03*
X145000D03*
X160000D03*
X198000Y231000D03*
X215000Y245000D03*
X255000D03*
X295000Y240000D03*
X110000Y255000D03*
Y270000D03*
Y285000D03*
X133000Y283000D03*
X161000Y279000D03*
X176000D03*
X295000Y270000D03*
X165000Y305000D03*
X225000Y300000D03*
X110000Y315000D03*
X165000Y320000D03*
X190000D03*
X225000D03*
X235000Y310000D03*
X110000Y330000D03*
X180000Y350000D03*
X188000Y361000D03*
X172000Y362000D03*
X225000Y355000D03*
X215000D03*
X252000Y361000D03*
X270000Y360000D03*
X295000D03*
X310000D03*
X340000Y355000D03*
X130000Y375000D03*
X142000Y380000D03*
X295000Y375000D03*
X310000D03*
X130000Y390000D03*
Y405000D03*
X273000Y393000D03*
X295000Y390000D03*
X310000D03*
X340000D03*
X125000Y425000D03*
X110000D03*
X145000Y415000D03*
X130000D03*
X140000Y425000D03*
X155000D03*
X185000D03*
X170000D03*
X200000D03*
X215000D03*
X245000D03*
X230000D03*
X260000D03*
X285000D03*
X300000D03*
X315000D03*
X330000D03*
X350000D03*
X110000Y445000D03*
X215000D03*
X421083Y436553D03*
X165000Y465000D03*
X215000Y455000D03*
X235000Y460000D03*
X260000D03*
X290000Y455000D03*
X300000Y465000D03*
X310000Y455000D03*
X350000D03*
X110000Y470000D03*
X155000Y475000D03*
X290000D03*
X310000D03*
X514833Y472000D03*
X135000Y490000D03*
X165000D03*
X150000D03*
X180000D03*
X195000D03*
X225000D03*
X210000D03*
X240000D03*
X255000D03*
X285000D03*
X270000D03*
X300000D03*
X315000D03*
X330000D03*
X350000D03*
G54D22*
X678543Y416378D03*
Y463780D03*
G54D28*
X130000Y180000D03*
Y450000D03*
G54D29*
X120000Y190000D03*
X140000D03*
X120000Y170000D03*
X140000D03*
X120000Y460000D03*
X140000D03*
X120000Y440000D03*
X140000D03*
G54D32*
X520000Y490000D03*
X535600D03*
G54D33*
X115000Y115000D03*
Y485000D03*
X400000Y115000D03*
Y485000D03*
X685000Y115000D03*
Y485000D03*
G54D36*
X596265Y115146D02*
X595000Y116412D01*
Y122011*
X539922Y177089*
Y195078*
X596265Y115146D02*
X605976D01*
X610000Y119170*
Y120000*
X600000D02*
X574000Y146000D01*
Y195413*
X615960Y115213D02*
X614620Y116552D01*
Y124694*
X590602Y148712*
Y209164*
X583300Y216465*
Y253233*
X580200Y256333*
Y316646*
X582700Y319146*
Y413089*
X547989Y447800*
X615960Y115213D02*
X634802D01*
X639235Y119646*
X639646*
X640000Y120000*
X620000D02*
X616540Y123460D01*
Y128269*
X602135Y142675*
Y174676*
X592103Y184708*
Y213579*
X590500Y215182*
Y219500*
X630000Y120000D02*
X616229Y133771D01*
Y149286*
X610515Y155000*
X609485*
X604117Y160367*
Y180864*
X596250Y188731*
Y209750*
X594200Y211800*
Y261250*
X595838Y262888*
Y290912*
X593700Y293050*
Y304625*
X597300Y308225*
Y410750*
X589800Y418250*
Y455673*
X590000Y455873*
Y467000*
X626000Y136000D02*
X619758Y142242D01*
Y234287*
X613496Y240550*
X645579Y139926D02*
X660834D01*
X676140Y155232*
Y227093*
X678941Y229894*
X691238*
X391254Y154700D02*
X400746D01*
X426116Y180070*
Y183868*
X391254Y154700D02*
X374450Y171504D01*
Y180150*
X356500Y198100*
X397000Y160000D02*
Y215483D01*
X391700Y220783*
X606100Y163900D02*
Y185683D01*
X606700Y186283*
X625000Y160000D02*
X621005Y163995D01*
Y239133*
X615580Y244559*
Y245920*
X613500Y248000*
X610000Y160000D02*
X606100Y163900D01*
X631000Y166500D02*
Y169551D01*
X630325Y170226*
Y222675*
X627000Y226000*
X638500Y151500D02*
X629013Y160987D01*
X629013D02*
Y187955D01*
X629013D02*
X622570Y194397D01*
X645500Y158000D02*
X631550Y171950D01*
Y224547*
X626375Y229722*
Y230964*
X624819Y232519*
X383100Y175000D02*
Y184544D01*
X386470Y187914*
Y200930*
X383100Y175000D02*
X369000Y189100D01*
Y232292*
X356525Y244767*
Y329283*
X350000Y335808*
Y340000*
X380000Y185500D02*
Y224481D01*
X357851Y246630*
Y402149*
X350000Y410000*
X438000Y182500D02*
Y266771D01*
X423250Y281521*
Y296796*
X421546Y298500*
X440000Y180500D02*
Y208750D01*
X439450Y209300*
Y267243*
X427500Y279193*
Y296546*
X425796Y298250*
X475000Y181000D02*
Y214638D01*
X474750Y214888*
Y270618*
X471500Y273868*
Y324000*
X579000Y186000D02*
Y189677D01*
X580000Y190677*
Y239000*
X606700Y186283D02*
Y202800D01*
X602300Y207200*
X356500Y198100D02*
Y209009D01*
X357400Y209909*
X361500Y204500D02*
Y236602D01*
X355198Y242904*
Y302014*
X351612Y305600*
X420500Y196500D02*
Y251750D01*
X412003Y260247*
X412003D02*
Y277043D01*
X412003D02*
X410546Y278500D01*
X520989Y192200D02*
X527000D01*
X535800Y201000*
X555078*
X563149Y209070*
X565570*
X567000Y210500*
X520989Y192200D02*
X509425Y203764D01*
Y215075*
X498550Y225950*
Y239450*
X491800Y246200*
X517000Y206500D02*
X516927Y206427D01*
X511750Y211604*
Y221467*
X501000Y232217*
Y330597*
X521000Y208046D02*
Y327163D01*
X520000Y328163*
Y332533*
X524000Y194000D02*
Y206857D01*
X524400Y207257*
Y275833*
X525800Y277233*
Y383256*
X525000Y384056*
Y404000*
X521300Y195000D02*
Y201227D01*
X522500Y202427*
Y298642*
X524600Y300742*
Y325974*
X521200Y329374*
Y331974*
X522194Y332968*
Y351888*
X522700Y352394*
Y370583*
X522000Y371283*
Y405616*
X523000Y406616*
Y409000*
X526044Y206356D02*
X528200Y208512D01*
Y386182*
X531367Y389349*
Y410589*
X540500Y419722*
Y427000*
X520000Y206500D02*
X521000Y208046D01*
X602300Y207200D02*
Y238823D01*
X605000Y241523*
Y248000*
X622570Y194397D02*
Y233381D01*
X624094Y234905*
X625894Y235500*
X625000Y199500D02*
Y213500D01*
X624770Y213730*
Y227730*
X617511Y202088D02*
Y209341D01*
X606300Y220552*
X647049Y196346D02*
X667268D01*
X669912Y198991*
Y207545*
X647049Y196346D02*
Y196424D01*
X669912Y207545D02*
Y236241D01*
X658403Y247751*
Y264549*
X669990Y204823D02*
X669912D01*
Y207545*
X357400Y209909D02*
Y237428D01*
X353947Y240881*
Y301569*
X351615Y303900*
X388500Y228000D02*
Y278500D01*
X390500Y280500*
X385500Y226000D02*
Y256500D01*
X378000Y264000*
Y293000*
X391700Y220783D02*
Y270294D01*
X393953Y272547*
X395500Y224000D02*
Y270547D01*
X395880Y270927*
Y276926*
X397454Y278500*
X398546*
X400264Y280218*
Y282264*
X402000Y284000*
X394500Y211500D02*
X390500Y215500D01*
Y272847*
X418000Y216000D02*
Y229641D01*
X405228Y242413*
Y283317*
X402746Y285800*
X526200Y209100D02*
Y243418D01*
X527000Y244218*
Y389067*
X529800Y391867*
Y398073*
X528000Y399873*
Y404000*
X518500Y208500D02*
Y210627D01*
X519800Y211927*
Y325955*
X517500Y212500D02*
Y283500D01*
X516200Y284800*
X531500Y208700D02*
Y223894D01*
X535200Y227594*
Y328600*
X536500Y329900*
Y383500*
X538500Y385500*
Y408500*
X566500Y218000D02*
Y261877D01*
X566200Y262177*
Y311640*
X587922Y222578D02*
Y244156D01*
X585600Y246477*
Y279944*
X585200Y280344*
Y285950*
X586500Y287250*
Y307333*
X585169Y308663*
Y313415*
X588323Y316569*
Y416644*
X583850Y421117*
Y460665*
X563315Y481200*
X553758*
X541746Y493212*
X539375Y495583*
X606300Y220552D02*
Y231443D01*
X607632Y232775*
Y233657*
X609237Y235263*
X600000Y225000D02*
Y283000D01*
X597700Y285300*
X634000Y216000D02*
Y221682D01*
X633057Y222625*
Y231789*
X626800Y238047*
Y241506*
X627583Y242290*
Y246338*
X626800Y247121*
Y274499*
X619000Y282299*
Y307500*
X607000Y319500*
Y415000*
X639000Y210500D02*
Y222262D01*
X634565Y226697*
Y232886*
X628000Y239451*
Y240681*
X629071Y241752*
Y247869*
X628645Y248296*
Y248324*
X628000Y248969*
Y282250*
X627200Y283050*
Y334940*
X619100Y343040*
Y403756*
X622000Y406656*
Y408500*
X642500Y218000D02*
Y231789D01*
X639100Y235189*
Y278250*
X634300Y283050*
Y353433*
X623000Y364733*
Y403000*
X666500Y225000D02*
X655886Y235614D01*
Y355331*
X633627Y377590*
Y403533*
X624932Y412228*
X622732Y413082*
X650000Y213000D02*
Y232153D01*
X649250Y232903*
Y346809*
X631327Y364733*
Y390140*
X624300Y397167*
Y401583*
X624800Y402083*
Y405823*
X624000Y406623*
Y410500*
X409000Y231000D02*
X403042D01*
X400981Y233061*
X400978*
X472500Y243000D02*
Y254077D01*
X469500Y257077*
Y326265*
X465000Y330765*
Y451786*
X463000Y453786*
Y485500*
X477000Y247188D02*
Y274888D01*
X473800Y278088*
Y336848*
X473900Y336948*
Y477711*
X461904Y489707*
X447226*
X491800Y246200D02*
Y263378D01*
X492404Y263983*
X613496Y240550D02*
X612839D01*
X607500Y245889*
Y255500*
X624819Y232519D02*
X625000Y232700D01*
X630621Y239621D02*
Y265498D01*
X630800Y265677*
Y309200*
X628500Y311500*
Y341500*
X674067Y230086D02*
X674000Y364857D01*
X623657Y415200*
X374500Y248500D02*
Y295898D01*
X376853Y298252*
X378732*
X371561Y253439D02*
Y294656D01*
X371561D02*
X376356Y299452D01*
X379616*
X444500Y259000D02*
Y307123D01*
X441500Y310123*
Y312000*
X492404Y263983D02*
Y283096D01*
X478500Y297000*
Y322000*
X494000Y249000D02*
X498500Y253500D01*
Y333000*
X494000Y253000D02*
Y261077D01*
X497300Y264377*
Y324800*
X507000Y251000D02*
X502200Y255800D01*
Y328720*
X514000Y265119D02*
Y310024D01*
X512181Y311843*
Y321598*
X511400Y322379*
Y330840*
X541500Y258500D02*
Y305257D01*
X544300Y308057*
Y316950*
X544000Y255500D02*
Y290537D01*
X551261Y297799*
X554000Y259000D02*
Y273350D01*
X554661Y274012*
Y301492*
X551079Y261302D02*
Y283865D01*
X553461Y286247*
Y300194*
X552481Y301174*
Y327177*
X551700Y327958*
Y348793*
X554450Y351543*
Y391950*
X560000Y397500*
X589500Y264500D02*
Y284500D01*
X593500Y288500*
X410546Y278500D02*
X409454D01*
X407857Y280098*
Y286143*
X403000Y291000*
Y297046*
X401546Y298500*
X390500Y272847D02*
X392200Y274547D01*
Y278450*
X392300Y278550*
Y290573*
X394500Y292773*
Y304000*
X394100Y280400D02*
X396450Y282750D01*
X398000*
X401050Y285800*
X402746*
X508404Y270100D02*
Y274037D01*
X511600Y277233*
Y309796*
X510963Y310434*
X510963D02*
Y320708D01*
X510963D02*
X510200Y321470D01*
Y335755*
X512327Y337882*
Y362386*
X515100Y365159*
Y372506*
X515700Y373106*
Y381256*
X514700Y382256*
Y387300*
X516200Y284800D02*
Y326573D01*
X517000Y327373*
Y330500*
X562000Y288100D02*
Y302685D01*
X563700Y304385*
Y362833*
X563200Y363333*
Y391123*
X562402Y391823*
Y400431*
X584300Y278181D02*
X583900Y278581D01*
Y284073*
X583500Y284473*
Y289700*
X573000Y287000D02*
Y289627D01*
X572700Y289927*
Y310420*
X570500Y282500D02*
X571200Y284300D01*
Y316646*
X573200Y318646*
Y336144*
X583500Y270000D02*
Y273162D01*
X584300Y273962*
Y278181*
X597700Y285300D02*
Y302399D01*
X598500Y303199*
Y495500*
X641816Y282057D02*
Y339156D01*
X641921*
X351612Y305600D02*
X344400D01*
X340000Y310000*
Y300000D02*
X343900Y303900D01*
X351615*
X383378Y298622D02*
X380445D01*
X379616Y299452*
X381155Y297345D02*
X379638D01*
X378732Y298252*
X382500Y296000D02*
X381155Y297345D01*
X389500Y292500D02*
X383378Y298622D01*
X401546Y298500D02*
X400954D01*
X398500Y300954*
Y304000*
X425796Y298250D02*
X424704D01*
X423200Y299754*
X421546Y298500D02*
X420454D01*
X419000Y299954*
Y312873*
X418000Y313873*
Y319500*
X423200Y299754D02*
Y317406D01*
X425500Y319706*
Y327500*
X425000Y300500D02*
X427750Y303250D01*
Y331518*
X436732Y340500*
X440000*
X432500Y300500D02*
Y313472D01*
X432500D02*
X434922Y315894D01*
Y335578*
X433500Y296000D02*
Y298377D01*
X434500Y299377*
Y313472*
X434500D02*
X439000Y317972D01*
X439000D02*
Y333000D01*
X476000Y304500D02*
Y494000D01*
X506421Y290179D02*
X507819Y291577D01*
X507819D02*
Y293329D01*
X509000Y294510*
Y306154*
X508460Y306694*
Y319632*
X507800Y320292*
Y339392*
X506500Y290100D02*
X506421Y290179D01*
X509144Y290356D02*
Y292613D01*
X510400Y293868*
Y307993*
X506800Y303700D02*
Y311027D01*
X504700Y313127*
Y341408*
X510400Y307993D02*
X509725Y308668D01*
Y320110*
X509000Y320835*
Y337276*
X554661Y301492D02*
X553700Y302453D01*
Y324733*
X551261Y297799D02*
Y326254D01*
X550500Y327016*
Y364795*
X564000Y296500D02*
Y300718D01*
X565000Y301718*
Y384000*
X576500Y297500D02*
Y302049D01*
X577500Y303049*
Y394000*
X584300Y299457D02*
Y304784D01*
X583969Y305115*
Y314122*
X574500Y291500D02*
Y304494D01*
X575600Y305594*
Y363068*
X497300Y324800D02*
X496100Y326000D01*
Y414146*
X506500Y319000D02*
Y341408D01*
X508500Y343408*
Y371500*
X519800Y325955D02*
X518800Y326955D01*
Y333090*
X514000Y313500D02*
Y321888D01*
X512600Y323288*
Y330343*
X514400Y324500D02*
Y330446D01*
X518500Y334546*
Y364000*
X544300Y316950D02*
X543200Y318050D01*
Y339762*
X530000Y324500D02*
Y326827D01*
X532900Y329727*
Y354173*
X533500Y354773*
Y379000*
X547500Y327000D02*
Y370000D01*
X537000Y327500D02*
X537700Y329300D01*
Y344488*
X538500Y345288*
Y381500*
X537000Y313500D02*
X541900Y318400D01*
Y354676*
X543360Y356136*
Y401399*
X547500Y405539*
Y442000*
X553700Y324733D02*
X557300Y328333D01*
Y334256*
X561500Y338456*
Y342000*
X566200Y311640D02*
X567197Y312637D01*
Y382803*
X572700Y310420D02*
X574400Y312120D01*
Y349606*
X583969Y314122D02*
X585976Y316129D01*
Y372223*
X586523Y372770*
Y383477*
X501000Y330597D02*
X501650Y331247D01*
Y354970*
X503900Y357220*
Y394026*
X512500Y402626*
Y428000*
X502200Y328720D02*
X503180Y329700D01*
Y348189*
X505100Y350110*
Y390370*
X515075Y400345*
Y417686*
X534550Y437161*
X538206*
X539372Y438327*
Y439372*
X541000Y441000*
X507800Y339392D02*
X509777Y341370D01*
Y367472*
X511000Y368695*
Y375000*
X509000Y337276D02*
X511054Y339331D01*
Y364858*
X513500Y367304*
Y377500*
X504700Y341408D02*
X506300Y343008D01*
Y377756*
X508500Y379956*
Y387500*
X511400Y330840D02*
X514600Y334040D01*
Y359500*
X520000Y332533D02*
X520988Y333521D01*
Y356545*
X521500Y357057*
Y368041*
X518800Y333090D02*
X519746Y334036D01*
Y360069*
X520300Y360623*
Y366037*
X512600Y330343D02*
X516800Y334543D01*
Y361783*
X523400Y331000D02*
Y347232D01*
X523900Y347732*
Y373125*
X543200Y339762D02*
X545130Y341692D01*
Y386182*
X549300Y390352*
Y443511*
X534700Y331000D02*
Y355227D01*
X535300Y355827*
Y382950*
X531100Y331000D02*
Y383265D01*
X533033Y385199*
Y409683*
X543500Y420150*
Y431500*
X539500Y332500D02*
Y344488D01*
X540500Y345488*
Y365500*
X557500Y345500D02*
Y383000D01*
X561500Y342000D02*
Y363650D01*
X561400Y363750*
Y385000*
X573200Y336144D02*
X571356Y337988D01*
Y383144*
X516800Y361783D02*
X516700Y361883D01*
Y368577*
X520300Y366037D02*
X519600Y366737D01*
Y414017*
X521500Y368041D02*
X520800Y368741D01*
Y413300*
X550500Y364795D02*
X551000Y365295D01*
Y383000*
X574400Y349606D02*
X573212Y350794D01*
Y385000*
X575600Y363068D02*
X575500Y363168D01*
Y380000*
X367000Y370000D02*
Y403565D01*
X365845Y404720*
Y405506*
X523900Y373125D02*
X523600Y373425D01*
Y391890*
X523200Y392290*
Y404935*
X516700Y368577D02*
X517650Y369527D01*
Y413984*
X531850Y428184*
Y428593*
X536914Y433657*
X537657*
X540000Y436000*
X535300Y382950D02*
X534700Y383550D01*
Y408732*
X602872Y382761D02*
X602587D01*
Y401951*
X365845Y405506D02*
X371492Y399860D01*
X382860*
X383000Y400000*
X483927Y404992D02*
X484977Y406042D01*
Y428394*
X483927Y404992D02*
X480008D01*
X480000Y405000*
X523200Y404935D02*
X538252Y419987D01*
Y424752*
X564967Y394731D02*
X571902Y401666D01*
X571997*
X609700Y402000D02*
Y425649D01*
X615000Y430949*
Y490000*
X613000Y405900D02*
X617386Y410286D01*
Y410798*
X621789Y415200*
X623657*
X447219Y414581D02*
Y431573D01*
X447394*
X496100Y414146D02*
X514004Y432050D01*
X526951*
X533901Y439000*
X537500*
X519600Y414017D02*
X534125Y428542D01*
Y429171*
X536401Y431447*
X538447*
X520800Y413300D02*
X537000Y429500D01*
X534700Y408732D02*
X545500Y419532D01*
Y434500*
X622700Y413000D02*
X622732Y413082D01*
X449961Y447869D02*
Y471392D01*
X450083*
X480215Y436713D02*
X480154D01*
Y453022*
X482676Y442944D02*
X482841Y443109D01*
Y468348*
X549300Y443511D02*
X548243Y445000D01*
X542643Y446000D02*
X544443Y447800D01*
X547989*
X446979Y457991D02*
Y457994D01*
X435047*
X492327Y489547D02*
Y494533D01*
X493377Y495583*
X539375*
G54D37*
X144000Y112000D02*
Y118000D01*
X155000Y129000*
X204000Y112000D02*
Y118000D01*
X215000Y129000*
X254000Y112000D02*
Y118000D01*
X265000Y129000*
X298000Y126000D02*
X309600D01*
X311000Y127400*
Y149000*
X260000Y143000D02*
X239000D01*
X232000Y150000*
X260000Y143000D02*
X274000D01*
X361000Y142000D02*
Y145500D01*
X357500Y149000*
X352000*
X311000*
X245000Y230000D02*
Y296000D01*
G54D38*
X215000Y144000D02*
Y206500D01*
X211500Y210000*
X271000Y148000D02*
Y226500D01*
X267500Y230000*
X211500Y210000D02*
X201500D01*
X198000Y213500*
Y231000*
X245000Y230000D02*
X267500D01*
X155000Y112000D03*
X179000Y124000D03*
X298000Y126000D03*
X348000Y120000D03*
Y127000D03*
X354000Y110000D03*
X133000Y134000D03*
X159000Y144000D03*
X155000Y129000D03*
X192056Y142019D03*
X215000Y129000D03*
Y144000D03*
X260000Y143000D03*
X265000Y129000D03*
X274000Y143000D03*
X271000Y148000D03*
X299000Y139000D03*
X306000D03*
X323000D03*
X316000D03*
X348000Y134000D03*
X338000Y139000D03*
X330000D03*
X361000Y142000D03*
X645579Y139926D03*
X156000Y157000D03*
X177000D03*
X195000D03*
X232000Y150000D03*
X230000Y157000D03*
X261000D03*
X281000D03*
X311000Y149000D03*
X352000D03*
X460000Y155000D03*
X473374Y167123D03*
X498165Y150011D03*
X511362Y149956D03*
X175000Y175000D03*
X345000Y170000D03*
X333987Y174783D03*
X350000Y180000D03*
X426116Y183868D03*
X465925Y175147D03*
X483275Y170087D03*
X496508Y170167D03*
X518002Y170049D03*
X531462Y170115D03*
X553040Y170181D03*
X567127Y170167D03*
X599613Y170409D03*
X265000Y195000D03*
Y205000D03*
X295000Y195000D03*
X315000Y200000D03*
X345000Y205000D03*
Y198000D03*
X647049Y196424D03*
X669990Y204823D03*
X250000Y220000D03*
X305000D03*
X326351Y224911D03*
X355000Y215000D03*
X470816Y224291D03*
X145000Y245000D03*
X130000D03*
X165000D03*
X180000D03*
X200000D03*
X230000D03*
X245000Y230000D03*
X270000Y245000D03*
X343000Y244000D03*
Y232000D03*
X355000Y235000D03*
X377828Y237281D03*
X400978Y233061D03*
X409000Y231000D03*
X691238Y229894D03*
X225000Y260000D03*
X235000D03*
X285000D03*
X295000Y255000D03*
X300000Y260000D03*
X341390Y258363D03*
X641869Y249159D03*
X658403Y264549D03*
X158000Y288000D03*
X183957Y274976D03*
X205000Y285000D03*
X285000Y270000D03*
X275000Y285000D03*
X641816Y282057D03*
X110000Y300000D03*
X138177Y307149D03*
X158000Y296000D03*
X205000Y300000D03*
X190000D03*
X235000D03*
X245000Y296000D03*
X275000Y304000D03*
X138254Y318365D03*
X138101Y312834D03*
X177323Y310110D03*
X207900Y310000D03*
X225000D03*
X235000Y320000D03*
X248000Y316000D03*
X250000Y325000D03*
X270000D03*
X290000D03*
X305000D03*
X133000Y338000D03*
X153000Y340000D03*
X170000Y335000D03*
X205000D03*
X190000D03*
X220000D03*
X235000D03*
X265000D03*
X250000D03*
X280000D03*
X300000D03*
X320000D03*
X310000D03*
X340000D03*
X625936Y347529D03*
X641921Y339156D03*
X130000Y360000D03*
X136000Y362000D03*
X155000Y350000D03*
X152000Y363000D03*
X235000Y350000D03*
X260000D03*
X280000D03*
X260000Y370000D03*
X602872Y382761D03*
X627098D03*
X160000Y390000D03*
X185000D03*
X281000Y407000D03*
X571997Y401666D03*
X602587Y401951D03*
X672972Y405574D03*
X160000Y415000D03*
X175000D03*
X205000D03*
X190000D03*
X220000D03*
X235000D03*
X250000D03*
X266000Y414000D03*
X300000Y415000D03*
X315000D03*
X447219Y414581D03*
X484977Y428394D03*
X155000Y440000D03*
X185000D03*
X172000Y442000D03*
X235000Y445000D03*
Y440000D03*
X266000Y442000D03*
X284000Y445000D03*
X290000Y440000D03*
X310000D03*
X330000D03*
X449961Y447869D03*
X447394Y431573D03*
X480215Y436713D03*
X482676Y442944D03*
X166000Y457000D03*
X189000Y454000D03*
X190000Y460000D03*
X254000Y455000D03*
X275000Y460000D03*
X435047Y457994D03*
X446979Y457991D03*
X480154Y453022D03*
X482841Y468348D03*
X450083Y471392D03*
X541341Y472079D03*
X612432Y472001D03*
X644441Y484892D03*
X657909D03*
X447226Y489707D03*
X506234Y489419D03*
X492327Y489547D03*
X553046Y488968D03*
X601592Y489125D03*
G54D40*
X651000Y132500D03*
X383500Y165000D03*
X397000Y160000D03*
X440000Y161000D03*
Y156000D03*
X631000Y166500D03*
X638500Y151500D03*
X643000Y149000D03*
X416500Y180000D03*
X438000Y182500D03*
X440000Y180500D03*
X579000Y186000D03*
X612500Y185500D03*
X625500Y184000D03*
X643000Y185000D03*
X661358Y170358D03*
X689000Y177500D03*
X348500Y194000D03*
X361500Y204500D03*
X376500Y191000D03*
X389000Y199500D03*
X416500Y190000D03*
X420500Y196500D03*
X510000Y195500D03*
X527500D03*
X524000Y194000D03*
X526044Y206356D03*
X520000Y206500D03*
X517000D03*
X535500Y195500D03*
X545000Y206500D03*
X533100Y195500D03*
X549000D03*
X543000Y192500D03*
X561000Y195500D03*
X556000Y190000D03*
X569000Y206500D03*
X558600Y195500D03*
X553000Y207106D03*
X558000Y207500D03*
X566000Y189500D03*
X584500Y195500D03*
X573000Y206500D03*
X588500Y195500D03*
X578000Y193100D03*
Y195500D03*
X586500Y206500D03*
X598500Y195500D03*
X602500D03*
X604900D03*
X649803Y190303D03*
X651000Y192500D03*
X388000Y217000D03*
X388500Y228000D03*
X385500Y226000D03*
X398400Y220000D03*
X395500Y224000D03*
X418000Y209000D03*
X447500Y212000D03*
X434500D03*
X462000Y228000D03*
X477000D03*
X506500Y212000D03*
Y224000D03*
X509000Y227000D03*
X494000Y225000D03*
X526200Y209100D03*
X518500Y208500D03*
X517500Y212500D03*
X543000Y212000D03*
X566500Y218000D03*
X551000Y208500D03*
X567000Y210500D03*
X590500Y219500D03*
X594000Y209000D03*
X597000Y212000D03*
X604100Y214500D03*
X613500Y217500D03*
Y221500D03*
X627000Y226000D03*
X643000Y215300D03*
X639000Y225500D03*
X634000Y216000D03*
X639000Y210500D03*
X642500Y218000D03*
X662600Y223000D03*
X650000Y213000D03*
X348000Y242500D03*
X350000Y245500D03*
X398500Y238000D03*
X427500Y247500D03*
X428500Y235000D03*
X416000Y245000D03*
X441500Y235500D03*
X506500Y229500D03*
X495500Y237500D03*
X493500Y231000D03*
X514000Y235000D03*
X515000Y244500D03*
X596000Y238500D03*
X613500Y243500D03*
X624500Y248000D03*
X613500Y238000D03*
Y248000D03*
X625894Y235500D03*
X624500Y237500D03*
X644000Y235000D03*
X647000Y242000D03*
X630621Y239621D03*
X689000Y237500D03*
X380000Y253500D03*
X382018Y268482D03*
X374500Y248500D03*
X416000Y267500D03*
X444500Y259000D03*
X452500Y268000D03*
X472500Y265500D03*
X506500Y255000D03*
Y262500D03*
X494000Y249000D03*
X514000Y265119D03*
X541500Y258500D03*
X532500Y267000D03*
X589500Y264500D03*
X665000Y251000D03*
X385500Y273000D03*
X386500Y276500D03*
X382500Y272500D03*
X401000Y277000D03*
X397923Y272577D03*
X397500Y285000D03*
X402018Y288482D03*
X393500Y269000D03*
X409000D03*
X393953Y272547D03*
X402000Y284000D03*
X397500Y269000D03*
X394100Y280400D03*
X398000Y276500D03*
X390400D03*
X394000D03*
X398000Y280500D03*
X390500D03*
X410005Y272500D03*
X414000Y284500D03*
Y272500D03*
X410000Y276500D03*
Y280500D03*
Y284500D03*
X418000Y272500D03*
Y276500D03*
X413945Y280200D03*
X429500Y272500D03*
X436500Y273000D03*
X442500Y270500D03*
X433500Y288000D03*
X467500Y287000D03*
X480500D03*
X487500Y273500D03*
X490604Y274196D03*
X495000Y273900D03*
Y271500D03*
Y279900D03*
X549000Y274000D03*
X548000Y270000D03*
X562000Y288100D03*
X556500Y273000D03*
X573000Y287000D03*
X570500Y282500D03*
X571000Y268500D03*
X583500Y270000D03*
X582500Y276070D03*
X582000Y280000D03*
X587000Y282000D03*
X594038Y285638D03*
X598000Y273500D03*
X613500Y271000D03*
Y278500D03*
X624500Y270500D03*
X661000Y280500D03*
X377599Y296452D03*
X381500Y300500D03*
X382500Y296000D03*
X389500Y292500D03*
X378000Y293000D03*
X409000Y289000D03*
X408922Y304500D03*
X409000Y300500D03*
X405000Y296500D03*
Y292500D03*
X401500Y300500D03*
Y304500D03*
X401000Y296500D03*
X394500Y304000D03*
X398500D03*
X413000Y289000D03*
X417000D03*
X413000Y300500D03*
Y304500D03*
X417000D03*
Y300500D03*
Y296500D03*
X413000Y292500D03*
X421000Y296500D03*
Y300500D03*
Y304500D03*
X425000Y300500D03*
X428500D03*
X429500Y292000D03*
Y296000D03*
X425500D03*
X442030Y302030D03*
Y298030D03*
X436500Y304500D03*
X432500Y300500D03*
X430000Y304000D03*
X437555Y308000D03*
X442030Y290530D03*
X442130Y294130D03*
X433500Y296000D03*
X441113Y307887D03*
X451000Y292000D03*
X453500D03*
X456000Y299500D03*
X506500Y298500D03*
Y294900D03*
Y290100D03*
X509144Y290356D03*
X494000Y289500D03*
X547407Y305600D03*
X547000Y308000D03*
X545000Y304515D03*
X564000Y296500D03*
X555500Y304000D03*
X568000Y305000D03*
X557900Y304347D03*
X561500Y307000D03*
X576500Y297500D03*
X574500Y291500D03*
X583500Y289700D03*
X593500Y288500D03*
X595500Y296000D03*
X599500Y295000D03*
Y297400D03*
X600500Y300000D03*
X603697Y301697D03*
X613500Y308000D03*
X629000Y290500D03*
X386245Y323755D03*
X382500Y327500D03*
X405500Y308500D03*
X397500Y312500D03*
X393500D03*
X413000Y308500D03*
X417000D03*
X421000D03*
X418000Y319500D03*
X425500Y327500D03*
X437000Y324500D03*
X441500Y312000D03*
X441846Y316500D03*
X453500Y309500D03*
X478500Y322000D03*
X471500Y324000D03*
X506500Y319000D03*
X522800Y324500D03*
X518000D03*
X514000Y313500D03*
X514400Y324500D03*
X545000D03*
X537500D03*
X533400Y313500D03*
X530000Y324500D03*
X547500Y327000D03*
X537000Y327500D03*
Y313500D03*
X549000Y325000D03*
X542500Y310500D03*
X569000Y324500D03*
X559000D03*
X580500D03*
X571400D03*
X586969Y312460D03*
X589500Y309900D03*
X592500Y324500D03*
X590000Y313500D03*
X595500D03*
X612500Y319000D03*
X661000Y315500D03*
Y325000D03*
X409000Y328500D03*
X425500Y346000D03*
X410202Y331298D03*
X438500Y346000D03*
X442030Y328500D03*
X460000Y332000D03*
X454000Y337500D03*
X512757Y334743D03*
X517000Y330500D03*
X540000Y330000D03*
X534700Y331000D03*
X531100D03*
X539500Y332500D03*
X553500Y329000D03*
X617500Y330500D03*
X630500Y330000D03*
X661000Y345500D03*
Y335500D03*
X426500Y364000D03*
X518500D03*
X540500Y365500D03*
X623000Y357000D03*
X647000Y368000D03*
X650000Y358500D03*
X373000Y369000D03*
X536500Y387500D03*
X533500Y379000D03*
X547500Y370000D03*
X538500Y381500D03*
X568600Y385000D03*
X557500Y383000D03*
X561400Y385000D03*
X567197Y382803D03*
X565000Y384000D03*
X586523Y383477D03*
X575500Y380000D03*
X573212Y385000D03*
X571356Y383144D03*
X593500Y385000D03*
X628500Y388000D03*
X678500Y370000D03*
X691500D03*
X508000Y404000D03*
X528000Y395000D03*
Y404000D03*
X525000D03*
X562402Y400431D03*
X570000Y394000D03*
X577500D03*
X609700Y402000D03*
X613000Y403500D03*
X617000Y388500D03*
X623000Y403000D03*
X613000Y405900D03*
X661500Y402500D03*
X686000Y396000D03*
X389000Y415000D03*
X390000Y428000D03*
X437000Y409500D03*
X528000Y427000D03*
X512500Y428000D03*
X540500Y427000D03*
X624500Y419000D03*
X623000Y417000D03*
X624000Y410500D03*
X622000Y408500D03*
X487500Y445500D03*
Y440500D03*
X528000Y436500D03*
X540000Y436000D03*
X545500Y434500D03*
X543500Y431500D03*
X537000Y429500D03*
X537500Y439000D03*
X548243Y445000D03*
X547500Y442000D03*
X542643Y446000D03*
X538447Y431447D03*
X562000Y446000D03*
X580000D03*
X594000D03*
X609500D03*
X607100D03*
X591600D03*
X613000Y438500D03*
X640000Y428500D03*
X487500Y450500D03*
G54D41*
X158000Y288000D02*
X129100D01*
X127000Y290100*
Y339900*
X129100Y342000*
X158000Y296000D02*
Y328000D01*
X160000Y330000*
X140000*
X133000Y337000*
Y338000*
X138100Y345000D02*
X285900D01*
X288000Y347100*
Y400000*
X138100Y345000D02*
X136000Y347100D01*
Y362000*
X160000Y330000D02*
X350000D01*
Y340000D02*
X153000D01*
X152000*
X150000Y342000*
X129100*
X152000Y363000D02*
Y405780D01*
X155823Y409603*
X261603*
X266000Y414000*
X281000Y407000D02*
X288000Y400000D01*
X350000*
Y410000D02*
X293000D01*
X289000Y414000*
X266000*
X267750Y435000D02*
X167750D01*
X166000Y436750*
Y457000*
X172000Y442000D02*
X180000Y450000D01*
X282250*
X350000Y435000D02*
X267750D01*
X266000Y436750*
Y442000*
X350000Y445000D02*
X284000D01*
Y448250*
X282250Y450000*
G54D43*
X376000Y135000D03*
X626000Y136000D03*
X648000Y145000D03*
X678200Y147500D03*
X645500Y158000D03*
X689400Y162500D03*
X363000Y170000D03*
X365000Y180500D03*
X383100Y175000D03*
X380000Y185500D03*
X448500Y180000D03*
X475000Y181000D03*
X352500Y189000D03*
X383100Y195000D03*
X386470Y200930D03*
X393500Y192500D03*
X512800Y195413D03*
X521300Y195000D03*
X539922Y195078D03*
X564200Y195413D03*
X564936Y206713D03*
X569000Y195000D03*
X574000Y195413D03*
X625000Y199500D03*
X617511Y202088D03*
X287000Y212000D03*
X394500Y211500D03*
X418000Y216000D03*
X495000Y213500D03*
X531500Y208700D03*
X587922Y222578D03*
X600000Y225000D03*
X624770Y227730D03*
X666500Y225000D03*
X287000Y238000D03*
X412000Y243000D03*
X472500D03*
X477000Y247188D03*
X513623Y230000D03*
X511500Y232500D03*
X531000Y239500D03*
X580000Y239000D03*
X605000Y248000D03*
X609237Y235263D03*
X625172Y243201D03*
X625000Y232700D03*
X641500Y239500D03*
X674067Y230086D03*
X371561Y253439D03*
X494000Y253000D03*
X507000Y251000D03*
X544000Y255500D03*
X554000Y259000D03*
X556500Y261000D03*
X551079Y261302D03*
X607500Y255500D03*
X508404Y270100D03*
X476000Y304500D03*
X506800Y303700D03*
X551261Y297799D03*
X584300Y299457D03*
X625000Y306500D03*
X495100Y314100D03*
X556113Y312361D03*
X601500Y327500D03*
X591947Y311487D03*
X638500Y317500D03*
X110000Y345500D03*
X377500Y329500D03*
X440000Y340500D03*
X434922Y335578D03*
X439000Y333000D03*
X498500D03*
X523400Y331000D03*
X557500Y345500D03*
X561500Y342000D03*
X580000Y330000D03*
X628500Y341500D03*
X110000Y360500D03*
X334000Y365500D03*
X383780Y351279D03*
X514600Y359500D03*
X110000Y375500D03*
X334000Y380500D03*
X367000Y370000D03*
X508500Y371500D03*
Y387500D03*
X511000Y375000D03*
X513500Y377500D03*
X514700Y387300D03*
X551000Y383000D03*
X110000Y408000D03*
Y390500D03*
X369000Y408000D03*
X541460Y406935D03*
X564967Y394731D03*
X553700Y394400D03*
X560000Y397500D03*
X609500Y394500D03*
X626500Y400500D03*
X639500Y392500D03*
X639300Y402700D03*
X650700Y392500D03*
X333000Y420000D03*
X523000Y409000D03*
X538252Y424752D03*
X538500Y408500D03*
X607000Y415000D03*
X622700Y413000D03*
X455500Y438000D03*
X545443Y445600D03*
X541000Y441000D03*
X560000Y442000D03*
X586500Y445000D03*
X636500Y438000D03*
X332000Y465500D03*
X487000Y457000D03*
X556000Y455500D03*
X590000Y467000D03*
X634000Y464000D03*
X332000Y480500D03*
X408500Y470000D03*
X463000Y485500D03*
X476000Y494000D03*
X598500Y495500D03*
G54D44*
X258000Y293000D03*
G74*
X0Y0D02*
M02*
