*
*
G04 PADS Layout (Build Number 2005.266.2) generated Gerber (RS-274-X) file*
G04 PC Version=2.1*
*
%IN "atlas_2.pcb"*%
*
%MOIN*%
*
%FSLAX35Y35*%
*
*
*
*
G04 PC Standard Apertures*
*
*
G04 Thermal Relief Aperture macro.*
%AMTER*
1,1,$1,0,0*
1,0,$1-$2,0,0*
21,0,$3,$4,0,0,45*
21,0,$3,$4,0,0,135*
%
*
*
G04 Annular Aperture macro.*
%AMANN*
1,1,$1,0,0*
1,0,$2,0,0*
%
*
*
G04 Odd Aperture macro.*
%AMODD*
1,1,$1,0,0*
1,0,$1-0.005,0,0*
%
*
*
G04 PC Custom Aperture Macros*
*
*
*
*
*
*
G04 PC Aperture Table*
*
%ADD019C,0.01*%
*
*
*
*
G04 PC Copper Outlines (0)*
G04 Layer Name atlas_2.pcb - dark (0)*
%LPD*%
*
*
G04 PC Area=Custom_Thermal*
*
G04 PC Custom Flashes*
G04 Layer Name atlas_2.pcb - flashes*
%LPD*%
*
*
G04 PC Circuitry*
G04 Layer Name atlas_2.pcb - circuitry*
%LPD*%
*
G54D19*
G01X104422Y230000D02*
X110000D01*
X104422Y232705D02*
X110000D01*
X107078Y230000D02*
Y232705D01*
X104422Y234443D02*
X110000D01*
X104422D02*
Y236182D01*
X104687Y236761*
X104687D02*
X104953Y236955D01*
X105484Y237148*
X106281*
X106812Y236955*
X106812D02*
X107078Y236761D01*
X107344Y236182*
Y234443*
X105219Y241591D02*
X104687Y241205D01*
X104687D02*
X104422Y240625D01*
Y239852*
X104687Y239273*
X104687D02*
X105219Y238886D01*
X105750*
X106281Y239080*
X106547Y239273*
X106812Y239659*
X106812D02*
X107344Y240818D01*
X107609Y241205*
X107875Y241398*
X108406Y241591*
X109203*
X109734Y241205*
X110000Y240625*
Y239852*
X109734Y239273*
X109203Y238886*
X104422Y243330D02*
X110000D01*
X104422D02*
Y244682D01*
X104687Y245261*
X104687D02*
X105219Y245648D01*
X105750Y245841*
X106547Y246034*
X107875*
X108672Y245841*
X109203Y245648*
X109734Y245261*
X110000Y244682*
Y243330*
X104422Y247773D02*
X110000D01*
X104422D02*
Y249511D01*
X104687Y250091*
X104687D02*
X104953Y250284D01*
X105484Y250477*
X106016*
X106547Y250284*
X106812Y250091*
X106812D02*
X107078Y249511D01*
Y247773*
Y249125D02*
X110000Y250477D01*
X104422Y256659D02*
X110000D01*
X104422D02*
Y258398D01*
X104687Y258977*
X104687D02*
X104953Y259170D01*
X105484Y259364*
X106281*
X106812Y259170*
X106812D02*
X107078Y258977D01*
X107344Y258398*
Y256659*
X104422Y261102D02*
X110000D01*
X104422D02*
Y262841D01*
X104687Y263420*
X104687D02*
X104953Y263614D01*
X105484Y263807*
X106016*
X106547Y263614*
X106812Y263420*
X106812D02*
X107078Y262841D01*
Y261102*
Y262455D02*
X110000Y263807D01*
X104422Y266705D02*
X104687Y266318D01*
X104687D02*
X105219Y265932D01*
X105750Y265739*
X106547Y265545*
X107875*
X108672Y265739*
X109203Y265932*
X109734Y266318*
X110000Y266705*
Y267477*
X109734Y267864*
X109203Y268250*
X108672Y268443*
X107875Y268636*
X106547*
X105750Y268443*
X105219Y268250*
X104687Y267864*
X104687D02*
X104422Y267477D01*
Y266705*
Y272307D02*
X108672D01*
X109469Y272114*
X109734Y271920*
X110000Y271534*
Y271148*
X109734Y270761*
X109469Y270568*
X108672Y270375*
X108141*
X104422Y274045D02*
X110000D01*
X104422D02*
Y276557D01*
X107078Y274045D02*
Y275591D01*
X110000Y274045D02*
Y276557D01*
X105750Y281193D02*
X105219Y281000D01*
X104687Y280614*
X104687D02*
X104422Y280227D01*
Y279455*
X104687Y279068*
X104687D02*
X105219Y278682D01*
X105750Y278489*
X106547Y278295*
X107875*
X108672Y278489*
X109203Y278682*
X109734Y279068*
X110000Y279455*
Y280227*
X109734Y280614*
X109203Y281000*
X108672Y281193*
X104422Y284284D02*
X110000D01*
X104422Y282932D02*
Y285636D01*
X107609Y291818D02*
Y295295D01*
X104422Y303023D02*
X110000Y301477D01*
X104422Y303023D02*
X110000Y304568D01*
X108141Y302057D02*
Y303989D01*
X104422Y307659D02*
X110000D01*
X104422Y306307D02*
Y309011D01*
Y310750D02*
X110000D01*
Y313068*
X104422Y316352D02*
X110000Y314807D01*
X104422Y316352D02*
X110000Y317898D01*
X108141Y315386D02*
Y317318D01*
X105219Y322341D02*
X104687Y321955D01*
X104687D02*
X104422Y321375D01*
Y320602*
X104687Y320023*
X104687D02*
X105219Y319636D01*
X105750*
X106281Y319830*
X106547Y320023*
X106812Y320409*
X106812D02*
X107344Y321568D01*
X107609Y321955*
X107875Y322148*
X108406Y322341*
X109203*
X109734Y321955*
X110000Y321375*
Y320602*
X109734Y320023*
X109203Y319636*
X107609Y328523D02*
Y332000D01*
X105484Y342625D02*
X105219Y343011D01*
X104422Y343591*
X110000*
X104422Y347841D02*
Y345909D01*
X106812Y345716*
X106812D02*
X106547Y345909D01*
X106281Y346489*
Y347068*
X106547Y347648*
X107078Y348034*
X107875Y348227*
X108406Y348034*
X109203Y347841*
X109734Y347455*
X110000Y346875*
Y346295*
X109734Y345716*
X109469Y345523*
X108937Y345330*
X104422Y354409D02*
X110000D01*
X104422D02*
X110000Y355955D01*
X104422Y357500D02*
X110000Y355955D01*
X104422Y357500D02*
X110000D01*
X104422Y360784D02*
X110000Y359239D01*
X104422Y360784D02*
X110000Y362330D01*
X108141Y359818D02*
Y361750D01*
X104422Y364068D02*
X110000D01*
X104422D02*
Y365807D01*
X104687Y366386*
X104687D02*
X104953Y366580D01*
X105484Y366773*
X106016*
X106547Y366580*
X106812Y366386*
X106812D02*
X107078Y365807D01*
Y364068*
Y365420D02*
X110000Y366773D01*
X105750Y371409D02*
X105219Y371216D01*
X104687Y370830*
X104687D02*
X104422Y370443D01*
Y369670*
X104687Y369284*
X104687D02*
X105219Y368898D01*
X105750Y368705*
X106547Y368511*
X107875*
X108672Y368705*
X109203Y368898*
X109734Y369284*
X110000Y369670*
Y370443*
X109734Y370830*
X109203Y371216*
X108672Y371409*
X104422Y373148D02*
X110000D01*
X104422Y375852D02*
X110000D01*
X107078Y373148D02*
Y375852D01*
X105750Y382227D02*
X105484D01*
X104953Y382420*
X104687Y382614*
X104687D02*
X104422Y383000D01*
Y383773*
X104687Y384159*
X104687D02*
X104953Y384352D01*
X105484Y384545*
X106016*
X106547Y384352*
X107344Y383966*
X110000Y382034*
Y384739*
X104422Y387636D02*
X104687Y387057D01*
X104687D02*
X105484Y386670D01*
X106812Y386477*
X106812D02*
X107609D01*
X108937Y386670*
X108937D02*
X109734Y387057D01*
X110000Y387636*
Y388023*
X109734Y388602*
X108937Y388989*
X108937D02*
X107609Y389182D01*
X106812*
X106812D02*
X105484Y388989D01*
X104687Y388602*
X104687D02*
X104422Y388023D01*
Y387636*
Y392080D02*
X104687Y391500D01*
X104687D02*
X105484Y391114D01*
X106812Y390920*
X106812D02*
X107609D01*
X108937Y391114*
X108937D02*
X109734Y391500D01*
X110000Y392080*
Y392466*
X109734Y393045*
X108937Y393432*
X108937D02*
X107609Y393625D01*
X106812*
X106812D02*
X105484Y393432D01*
X104687Y393045*
X104687D02*
X104422Y392466D01*
Y392080*
X105219Y397682D02*
X104687Y397489D01*
X104687D02*
X104422Y396909D01*
Y396523*
X104687Y395943*
X104687D02*
X105484Y395557D01*
X106812Y395364*
X106812D02*
X108141D01*
X109203Y395557*
X109734Y395943*
X110000Y396523*
Y396716*
X109734Y397295*
X109203Y397682*
X108406Y397875*
X108141*
X107344Y397682*
X106812Y397295*
X106812D02*
X106547Y396716D01*
Y396523*
X106812Y395943*
X106812D02*
X107344Y395557D01*
X108141Y395364*
X104422Y404057D02*
X110000D01*
X104422D02*
Y405795D01*
X104687Y406375*
X104687D02*
X104953Y406568D01*
X105484Y406761*
X106016*
X106547Y406568*
X106812Y406375*
X106812D02*
X107078Y405795D01*
Y404057*
Y405409D02*
X110000Y406761D01*
X104422Y408500D02*
X110000D01*
X104422D02*
Y411011D01*
X107078Y408500D02*
Y410045D01*
X110000Y408500D02*
Y411011D01*
X104422Y412750D02*
X110000Y414295D01*
X104422Y415841D02*
X110000Y414295D01*
X106281Y417773D02*
X106547Y417580D01*
X106812Y417773*
X106812D02*
X106547Y417966D01*
X106281Y417773*
X109469D02*
X109734Y417580D01*
X110000Y417773*
X109734Y417966*
X109469Y417773*
X104422Y424148D02*
X110000D01*
X104422D02*
X110000Y426852D01*
X104422D02*
X110000D01*
X104422Y428591D02*
X110000D01*
X104422D02*
Y430330D01*
X104687Y430909*
X104687D02*
X104953Y431102D01*
X105484Y431295*
X106016*
X106547Y431102*
X106812Y430909*
X106812D02*
X107078Y430330D01*
Y428591*
Y429943D02*
X110000Y431295D01*
X160000Y446000D02*
X164000Y450000D01*
X160000Y454000*
X156000Y450000*
X160000Y446000*
Y450000D02*
Y454000D01*
Y436000D02*
X164000Y440000D01*
X160000Y444000*
X156000Y440000*
X160000Y436000*
Y440000D02*
Y444000D01*
Y426000D02*
X164000Y430000D01*
X160000Y434000*
X156000Y430000*
X160000Y426000*
Y430000D02*
Y434000D01*
Y416000D02*
X164000Y420000D01*
X160000Y424000*
X156000Y420000*
X160000Y416000*
Y420000D02*
Y424000D01*
Y406000D02*
X164000Y410000D01*
X160000Y414000*
X156000Y410000*
X160000Y406000*
Y410000D02*
Y414000D01*
Y396000D02*
X164000Y400000D01*
X160000Y404000*
X156000Y400000*
X160000Y396000*
Y400000D02*
Y404000D01*
Y386000D02*
X164000Y390000D01*
X160000Y394000*
X156000Y390000*
X160000Y386000*
Y390000D02*
Y394000D01*
Y376000D02*
X164000Y380000D01*
X160000Y384000*
X156000Y380000*
X160000Y376000*
Y380000D02*
Y384000D01*
Y366000D02*
X164000Y370000D01*
X160000Y374000*
X156000Y370000*
X160000Y366000*
Y370000D02*
Y374000D01*
Y356000D02*
X164000Y360000D01*
X160000Y364000*
X156000Y360000*
X160000Y356000*
Y360000D02*
Y364000D01*
Y346000D02*
X164000Y350000D01*
X160000Y354000*
X156000Y350000*
X160000Y346000*
Y350000D02*
Y354000D01*
Y336000D02*
X164000Y340000D01*
X160000Y344000*
X156000Y340000*
X160000Y336000*
Y340000D02*
Y344000D01*
Y326000D02*
X164000Y330000D01*
X160000Y334000*
X156000Y330000*
X160000Y326000*
Y330000D02*
Y334000D01*
Y316000D02*
X164000Y320000D01*
X160000Y324000*
X156000Y320000*
X160000Y316000*
Y320000D02*
Y324000D01*
Y306000D02*
X164000Y310000D01*
X160000Y314000*
X156000Y310000*
X160000Y306000*
Y310000D02*
Y314000D01*
Y296000D02*
X164000Y300000D01*
X160000Y304000*
X156000Y300000*
X160000Y296000*
Y300000D02*
Y304000D01*
Y286000D02*
X164000Y290000D01*
X160000Y294000*
X156000Y290000*
X160000Y286000*
Y290000D02*
Y294000D01*
Y276000D02*
X164000Y280000D01*
X160000Y284000*
X156000Y280000*
X160000Y276000*
Y280000D02*
Y284000D01*
Y266000D02*
X164000Y270000D01*
X160000Y274000*
X156000Y270000*
X160000Y266000*
Y270000D02*
Y274000D01*
Y256000D02*
X164000Y260000D01*
X160000Y264000*
X156000Y260000*
X160000Y256000*
Y260000D02*
Y264000D01*
Y246000D02*
X164000Y250000D01*
X160000Y254000*
X156000Y250000*
X160000Y246000*
Y250000D02*
Y254000D01*
Y236000D02*
X164000Y240000D01*
X160000Y244000*
X156000Y240000*
X160000Y236000*
Y240000D02*
Y244000D01*
Y226000D02*
X164000Y230000D01*
X160000Y234000*
X156000Y230000*
X160000Y226000*
Y230000D02*
Y234000D01*
Y216000D02*
X164000Y220000D01*
X160000Y224000*
X156000Y220000*
X160000Y216000*
Y220000D02*
Y224000D01*
Y206000D02*
X164000Y210000D01*
X160000Y214000*
X156000Y210000*
X160000Y206000*
Y210000D02*
Y214000D01*
Y196000D02*
X164000Y200000D01*
X160000Y204000*
X156000Y200000*
X160000Y196000*
Y200000D02*
Y204000D01*
Y186000D02*
X164000Y190000D01*
X160000Y194000*
X156000Y190000*
X160000Y186000*
Y190000D02*
Y194000D01*
Y176000D02*
X164000Y180000D01*
X160000Y184000*
X156000Y180000*
X160000Y176000*
Y180000D02*
Y184000D01*
Y166000D02*
X164000Y170000D01*
X160000Y174000*
X156000Y170000*
X160000Y166000*
Y170000D02*
Y174000D01*
Y156000D02*
X164000Y160000D01*
X160000Y164000*
X156000Y160000*
X160000Y156000*
Y160000D02*
Y164000D01*
Y146000D02*
X164000Y150000D01*
X160000Y154000*
X156000Y150000*
X160000Y146000*
Y150000D02*
Y154000D01*
Y136000D02*
X164000Y140000D01*
X160000Y144000*
X156000Y140000*
X160000Y136000*
Y140000D02*
Y144000D01*
X150000Y446000D02*
X154000Y450000D01*
X150000Y454000*
X146000Y450000*
X150000Y446000*
Y450000D02*
Y454000D01*
Y436000D02*
X154000Y440000D01*
X150000Y444000*
X146000Y440000*
X150000Y436000*
Y440000D02*
Y444000D01*
Y426000D02*
X154000Y430000D01*
X150000Y434000*
X146000Y430000*
X150000Y426000*
Y430000D02*
Y434000D01*
Y416000D02*
X154000Y420000D01*
X150000Y424000*
X146000Y420000*
X150000Y416000*
Y420000D02*
Y424000D01*
Y406000D02*
X154000Y410000D01*
X150000Y414000*
X146000Y410000*
X150000Y406000*
Y410000D02*
Y414000D01*
Y396000D02*
X154000Y400000D01*
X150000Y404000*
X146000Y400000*
X150000Y396000*
Y400000D02*
Y404000D01*
Y386000D02*
X154000Y390000D01*
X150000Y394000*
X146000Y390000*
X150000Y386000*
Y390000D02*
Y394000D01*
Y376000D02*
X154000Y380000D01*
X150000Y384000*
X146000Y380000*
X150000Y376000*
Y380000D02*
Y384000D01*
Y366000D02*
X154000Y370000D01*
X150000Y374000*
X146000Y370000*
X150000Y366000*
Y370000D02*
Y374000D01*
Y356000D02*
X154000Y360000D01*
X150000Y364000*
X146000Y360000*
X150000Y356000*
Y360000D02*
Y364000D01*
Y346000D02*
X154000Y350000D01*
X150000Y354000*
X146000Y350000*
X150000Y346000*
Y350000D02*
Y354000D01*
Y336000D02*
X154000Y340000D01*
X150000Y344000*
X146000Y340000*
X150000Y336000*
Y340000D02*
Y344000D01*
Y326000D02*
X154000Y330000D01*
X150000Y334000*
X146000Y330000*
X150000Y326000*
Y330000D02*
Y334000D01*
Y316000D02*
X154000Y320000D01*
X150000Y324000*
X146000Y320000*
X150000Y316000*
Y320000D02*
Y324000D01*
Y306000D02*
X154000Y310000D01*
X150000Y314000*
X146000Y310000*
X150000Y306000*
Y310000D02*
Y314000D01*
Y296000D02*
X154000Y300000D01*
X150000Y304000*
X146000Y300000*
X150000Y296000*
Y300000D02*
Y304000D01*
Y286000D02*
X154000Y290000D01*
X150000Y294000*
X146000Y290000*
X150000Y286000*
Y290000D02*
Y294000D01*
Y276000D02*
X154000Y280000D01*
X150000Y284000*
X146000Y280000*
X150000Y276000*
Y280000D02*
Y284000D01*
Y266000D02*
X154000Y270000D01*
X150000Y274000*
X146000Y270000*
X150000Y266000*
Y270000D02*
Y274000D01*
Y256000D02*
X154000Y260000D01*
X150000Y264000*
X146000Y260000*
X150000Y256000*
Y260000D02*
Y264000D01*
Y246000D02*
X154000Y250000D01*
X150000Y254000*
X146000Y250000*
X150000Y246000*
Y250000D02*
Y254000D01*
Y236000D02*
X154000Y240000D01*
X150000Y244000*
X146000Y240000*
X150000Y236000*
Y240000D02*
Y244000D01*
Y226000D02*
X154000Y230000D01*
X150000Y234000*
X146000Y230000*
X150000Y226000*
Y230000D02*
Y234000D01*
Y216000D02*
X154000Y220000D01*
X150000Y224000*
X146000Y220000*
X150000Y216000*
Y220000D02*
Y224000D01*
Y206000D02*
X154000Y210000D01*
X150000Y214000*
X146000Y210000*
X150000Y206000*
Y210000D02*
Y214000D01*
Y196000D02*
X154000Y200000D01*
X150000Y204000*
X146000Y200000*
X150000Y196000*
Y200000D02*
Y204000D01*
Y186000D02*
X154000Y190000D01*
X150000Y194000*
X146000Y190000*
X150000Y186000*
Y190000D02*
Y194000D01*
Y176000D02*
X154000Y180000D01*
X150000Y184000*
X146000Y180000*
X150000Y176000*
Y180000D02*
Y184000D01*
Y166000D02*
X154000Y170000D01*
X150000Y174000*
X146000Y170000*
X150000Y166000*
Y170000D02*
Y174000D01*
Y156000D02*
X154000Y160000D01*
X150000Y164000*
X146000Y160000*
X150000Y156000*
Y160000D02*
Y164000D01*
Y146000D02*
X154000Y150000D01*
X150000Y154000*
X146000Y150000*
X150000Y146000*
Y150000D02*
Y154000D01*
Y136000D02*
X154000Y140000D01*
X150000Y144000*
X146000Y140000*
X150000Y136000*
Y140000D02*
Y144000D01*
X140000Y446000D02*
X144000Y450000D01*
X140000Y454000*
X136000Y450000*
X140000Y446000*
Y450000D02*
Y454000D01*
Y436000D02*
X144000Y440000D01*
X140000Y444000*
X136000Y440000*
X140000Y436000*
Y440000D02*
Y444000D01*
Y426000D02*
X144000Y430000D01*
X140000Y434000*
X136000Y430000*
X140000Y426000*
Y430000D02*
Y434000D01*
Y416000D02*
X144000Y420000D01*
X140000Y424000*
X136000Y420000*
X140000Y416000*
Y420000D02*
Y424000D01*
Y406000D02*
X144000Y410000D01*
X140000Y414000*
X136000Y410000*
X140000Y406000*
Y410000D02*
Y414000D01*
Y396000D02*
X144000Y400000D01*
X140000Y404000*
X136000Y400000*
X140000Y396000*
Y400000D02*
Y404000D01*
Y386000D02*
X144000Y390000D01*
X140000Y394000*
X136000Y390000*
X140000Y386000*
Y390000D02*
Y394000D01*
Y376000D02*
X144000Y380000D01*
X140000Y384000*
X136000Y380000*
X140000Y376000*
Y380000D02*
Y384000D01*
Y366000D02*
X144000Y370000D01*
X140000Y374000*
X136000Y370000*
X140000Y366000*
Y370000D02*
Y374000D01*
Y356000D02*
X144000Y360000D01*
X140000Y364000*
X136000Y360000*
X140000Y356000*
Y360000D02*
Y364000D01*
Y346000D02*
X144000Y350000D01*
X140000Y354000*
X136000Y350000*
X140000Y346000*
Y350000D02*
Y354000D01*
Y336000D02*
X144000Y340000D01*
X140000Y344000*
X136000Y340000*
X140000Y336000*
Y340000D02*
Y344000D01*
Y326000D02*
X144000Y330000D01*
X140000Y334000*
X136000Y330000*
X140000Y326000*
Y330000D02*
Y334000D01*
Y316000D02*
X144000Y320000D01*
X140000Y324000*
X136000Y320000*
X140000Y316000*
Y320000D02*
Y324000D01*
Y306000D02*
X144000Y310000D01*
X140000Y314000*
X136000Y310000*
X140000Y306000*
Y310000D02*
Y314000D01*
Y296000D02*
X144000Y300000D01*
X140000Y304000*
X136000Y300000*
X140000Y296000*
Y300000D02*
Y304000D01*
Y286000D02*
X144000Y290000D01*
X140000Y294000*
X136000Y290000*
X140000Y286000*
Y290000D02*
Y294000D01*
Y276000D02*
X144000Y280000D01*
X140000Y284000*
X136000Y280000*
X140000Y276000*
Y280000D02*
Y284000D01*
Y266000D02*
X144000Y270000D01*
X140000Y274000*
X136000Y270000*
X140000Y266000*
Y270000D02*
Y274000D01*
Y256000D02*
X144000Y260000D01*
X140000Y264000*
X136000Y260000*
X140000Y256000*
Y260000D02*
Y264000D01*
Y246000D02*
X144000Y250000D01*
X140000Y254000*
X136000Y250000*
X140000Y246000*
Y250000D02*
Y254000D01*
Y236000D02*
X144000Y240000D01*
X140000Y244000*
X136000Y240000*
X140000Y236000*
Y240000D02*
Y244000D01*
Y226000D02*
X144000Y230000D01*
X140000Y234000*
X136000Y230000*
X140000Y226000*
Y230000D02*
Y234000D01*
Y216000D02*
X144000Y220000D01*
X140000Y224000*
X136000Y220000*
X140000Y216000*
Y220000D02*
Y224000D01*
Y206000D02*
X144000Y210000D01*
X140000Y214000*
X136000Y210000*
X140000Y206000*
Y210000D02*
Y214000D01*
Y196000D02*
X144000Y200000D01*
X140000Y204000*
X136000Y200000*
X140000Y196000*
Y200000D02*
Y204000D01*
Y186000D02*
X144000Y190000D01*
X140000Y194000*
X136000Y190000*
X140000Y186000*
Y190000D02*
Y194000D01*
Y176000D02*
X144000Y180000D01*
X140000Y184000*
X136000Y180000*
X140000Y176000*
Y180000D02*
Y184000D01*
Y166000D02*
X144000Y170000D01*
X140000Y174000*
X136000Y170000*
X140000Y166000*
Y170000D02*
Y174000D01*
Y156000D02*
X144000Y160000D01*
X140000Y164000*
X136000Y160000*
X140000Y156000*
Y160000D02*
Y164000D01*
Y146000D02*
X144000Y150000D01*
X140000Y154000*
X136000Y150000*
X140000Y146000*
Y150000D02*
Y154000D01*
Y136000D02*
X144000Y140000D01*
X140000Y144000*
X136000Y140000*
X140000Y136000*
Y140000D02*
Y144000D01*
X146000Y470000D02*
X154000D01*
X150000Y466000D02*
Y474000D01*
X146000Y120000D02*
X154000D01*
X150000Y116000D02*
Y124000D01*
X240000Y446000D02*
X244000Y450000D01*
X240000Y454000*
X236000Y450000*
X240000Y446000*
Y450000D02*
Y454000D01*
Y436000D02*
X244000Y440000D01*
X240000Y444000*
X236000Y440000*
X240000Y436000*
Y440000D02*
Y444000D01*
Y426000D02*
X244000Y430000D01*
X240000Y434000*
X236000Y430000*
X240000Y426000*
Y430000D02*
Y434000D01*
Y416000D02*
X244000Y420000D01*
X240000Y424000*
X236000Y420000*
X240000Y416000*
Y420000D02*
Y424000D01*
Y406000D02*
X244000Y410000D01*
X240000Y414000*
X236000Y410000*
X240000Y406000*
Y410000D02*
Y414000D01*
Y396000D02*
X244000Y400000D01*
X240000Y404000*
X236000Y400000*
X240000Y396000*
Y400000D02*
Y404000D01*
Y386000D02*
X244000Y390000D01*
X240000Y394000*
X236000Y390000*
X240000Y386000*
Y390000D02*
Y394000D01*
Y376000D02*
X244000Y380000D01*
X240000Y384000*
X236000Y380000*
X240000Y376000*
Y380000D02*
Y384000D01*
Y366000D02*
X244000Y370000D01*
X240000Y374000*
X236000Y370000*
X240000Y366000*
Y370000D02*
Y374000D01*
Y356000D02*
X244000Y360000D01*
X240000Y364000*
X236000Y360000*
X240000Y356000*
Y360000D02*
Y364000D01*
Y346000D02*
X244000Y350000D01*
X240000Y354000*
X236000Y350000*
X240000Y346000*
Y350000D02*
Y354000D01*
Y336000D02*
X244000Y340000D01*
X240000Y344000*
X236000Y340000*
X240000Y336000*
Y340000D02*
Y344000D01*
Y326000D02*
X244000Y330000D01*
X240000Y334000*
X236000Y330000*
X240000Y326000*
Y330000D02*
Y334000D01*
Y316000D02*
X244000Y320000D01*
X240000Y324000*
X236000Y320000*
X240000Y316000*
Y320000D02*
Y324000D01*
Y306000D02*
X244000Y310000D01*
X240000Y314000*
X236000Y310000*
X240000Y306000*
Y310000D02*
Y314000D01*
Y296000D02*
X244000Y300000D01*
X240000Y304000*
X236000Y300000*
X240000Y296000*
Y300000D02*
Y304000D01*
Y286000D02*
X244000Y290000D01*
X240000Y294000*
X236000Y290000*
X240000Y286000*
Y290000D02*
Y294000D01*
Y276000D02*
X244000Y280000D01*
X240000Y284000*
X236000Y280000*
X240000Y276000*
Y280000D02*
Y284000D01*
Y266000D02*
X244000Y270000D01*
X240000Y274000*
X236000Y270000*
X240000Y266000*
Y270000D02*
Y274000D01*
Y256000D02*
X244000Y260000D01*
X240000Y264000*
X236000Y260000*
X240000Y256000*
Y260000D02*
Y264000D01*
Y246000D02*
X244000Y250000D01*
X240000Y254000*
X236000Y250000*
X240000Y246000*
Y250000D02*
Y254000D01*
Y236000D02*
X244000Y240000D01*
X240000Y244000*
X236000Y240000*
X240000Y236000*
Y240000D02*
Y244000D01*
Y226000D02*
X244000Y230000D01*
X240000Y234000*
X236000Y230000*
X240000Y226000*
Y230000D02*
Y234000D01*
Y216000D02*
X244000Y220000D01*
X240000Y224000*
X236000Y220000*
X240000Y216000*
Y220000D02*
Y224000D01*
Y206000D02*
X244000Y210000D01*
X240000Y214000*
X236000Y210000*
X240000Y206000*
Y210000D02*
Y214000D01*
Y196000D02*
X244000Y200000D01*
X240000Y204000*
X236000Y200000*
X240000Y196000*
Y200000D02*
Y204000D01*
Y186000D02*
X244000Y190000D01*
X240000Y194000*
X236000Y190000*
X240000Y186000*
Y190000D02*
Y194000D01*
Y176000D02*
X244000Y180000D01*
X240000Y184000*
X236000Y180000*
X240000Y176000*
Y180000D02*
Y184000D01*
Y166000D02*
X244000Y170000D01*
X240000Y174000*
X236000Y170000*
X240000Y166000*
Y170000D02*
Y174000D01*
Y156000D02*
X244000Y160000D01*
X240000Y164000*
X236000Y160000*
X240000Y156000*
Y160000D02*
Y164000D01*
Y146000D02*
X244000Y150000D01*
X240000Y154000*
X236000Y150000*
X240000Y146000*
Y150000D02*
Y154000D01*
Y136000D02*
X244000Y140000D01*
X240000Y144000*
X236000Y140000*
X240000Y136000*
Y140000D02*
Y144000D01*
X230000Y446000D02*
X234000Y450000D01*
X230000Y454000*
X226000Y450000*
X230000Y446000*
Y450000D02*
Y454000D01*
Y436000D02*
X234000Y440000D01*
X230000Y444000*
X226000Y440000*
X230000Y436000*
Y440000D02*
Y444000D01*
Y426000D02*
X234000Y430000D01*
X230000Y434000*
X226000Y430000*
X230000Y426000*
Y430000D02*
Y434000D01*
Y416000D02*
X234000Y420000D01*
X230000Y424000*
X226000Y420000*
X230000Y416000*
Y420000D02*
Y424000D01*
Y406000D02*
X234000Y410000D01*
X230000Y414000*
X226000Y410000*
X230000Y406000*
Y410000D02*
Y414000D01*
Y396000D02*
X234000Y400000D01*
X230000Y404000*
X226000Y400000*
X230000Y396000*
Y400000D02*
Y404000D01*
Y386000D02*
X234000Y390000D01*
X230000Y394000*
X226000Y390000*
X230000Y386000*
Y390000D02*
Y394000D01*
Y376000D02*
X234000Y380000D01*
X230000Y384000*
X226000Y380000*
X230000Y376000*
Y380000D02*
Y384000D01*
Y366000D02*
X234000Y370000D01*
X230000Y374000*
X226000Y370000*
X230000Y366000*
Y370000D02*
Y374000D01*
Y356000D02*
X234000Y360000D01*
X230000Y364000*
X226000Y360000*
X230000Y356000*
Y360000D02*
Y364000D01*
Y346000D02*
X234000Y350000D01*
X230000Y354000*
X226000Y350000*
X230000Y346000*
Y350000D02*
Y354000D01*
Y336000D02*
X234000Y340000D01*
X230000Y344000*
X226000Y340000*
X230000Y336000*
Y340000D02*
Y344000D01*
Y326000D02*
X234000Y330000D01*
X230000Y334000*
X226000Y330000*
X230000Y326000*
Y330000D02*
Y334000D01*
Y316000D02*
X234000Y320000D01*
X230000Y324000*
X226000Y320000*
X230000Y316000*
Y320000D02*
Y324000D01*
Y306000D02*
X234000Y310000D01*
X230000Y314000*
X226000Y310000*
X230000Y306000*
Y310000D02*
Y314000D01*
Y296000D02*
X234000Y300000D01*
X230000Y304000*
X226000Y300000*
X230000Y296000*
Y300000D02*
Y304000D01*
Y286000D02*
X234000Y290000D01*
X230000Y294000*
X226000Y290000*
X230000Y286000*
Y290000D02*
Y294000D01*
Y276000D02*
X234000Y280000D01*
X230000Y284000*
X226000Y280000*
X230000Y276000*
Y280000D02*
Y284000D01*
Y266000D02*
X234000Y270000D01*
X230000Y274000*
X226000Y270000*
X230000Y266000*
Y270000D02*
Y274000D01*
Y256000D02*
X234000Y260000D01*
X230000Y264000*
X226000Y260000*
X230000Y256000*
Y260000D02*
Y264000D01*
Y246000D02*
X234000Y250000D01*
X230000Y254000*
X226000Y250000*
X230000Y246000*
Y250000D02*
Y254000D01*
Y236000D02*
X234000Y240000D01*
X230000Y244000*
X226000Y240000*
X230000Y236000*
Y240000D02*
Y244000D01*
Y226000D02*
X234000Y230000D01*
X230000Y234000*
X226000Y230000*
X230000Y226000*
Y230000D02*
Y234000D01*
Y216000D02*
X234000Y220000D01*
X230000Y224000*
X226000Y220000*
X230000Y216000*
Y220000D02*
Y224000D01*
Y206000D02*
X234000Y210000D01*
X230000Y214000*
X226000Y210000*
X230000Y206000*
Y210000D02*
Y214000D01*
Y196000D02*
X234000Y200000D01*
X230000Y204000*
X226000Y200000*
X230000Y196000*
Y200000D02*
Y204000D01*
Y186000D02*
X234000Y190000D01*
X230000Y194000*
X226000Y190000*
X230000Y186000*
Y190000D02*
Y194000D01*
Y176000D02*
X234000Y180000D01*
X230000Y184000*
X226000Y180000*
X230000Y176000*
Y180000D02*
Y184000D01*
Y166000D02*
X234000Y170000D01*
X230000Y174000*
X226000Y170000*
X230000Y166000*
Y170000D02*
Y174000D01*
Y156000D02*
X234000Y160000D01*
X230000Y164000*
X226000Y160000*
X230000Y156000*
Y160000D02*
Y164000D01*
Y146000D02*
X234000Y150000D01*
X230000Y154000*
X226000Y150000*
X230000Y146000*
Y150000D02*
Y154000D01*
Y136000D02*
X234000Y140000D01*
X230000Y144000*
X226000Y140000*
X230000Y136000*
Y140000D02*
Y144000D01*
X220000Y446000D02*
X224000Y450000D01*
X220000Y454000*
X216000Y450000*
X220000Y446000*
Y450000D02*
Y454000D01*
Y436000D02*
X224000Y440000D01*
X220000Y444000*
X216000Y440000*
X220000Y436000*
Y440000D02*
Y444000D01*
Y426000D02*
X224000Y430000D01*
X220000Y434000*
X216000Y430000*
X220000Y426000*
Y430000D02*
Y434000D01*
Y416000D02*
X224000Y420000D01*
X220000Y424000*
X216000Y420000*
X220000Y416000*
Y420000D02*
Y424000D01*
Y406000D02*
X224000Y410000D01*
X220000Y414000*
X216000Y410000*
X220000Y406000*
Y410000D02*
Y414000D01*
Y396000D02*
X224000Y400000D01*
X220000Y404000*
X216000Y400000*
X220000Y396000*
Y400000D02*
Y404000D01*
Y386000D02*
X224000Y390000D01*
X220000Y394000*
X216000Y390000*
X220000Y386000*
Y390000D02*
Y394000D01*
Y376000D02*
X224000Y380000D01*
X220000Y384000*
X216000Y380000*
X220000Y376000*
Y380000D02*
Y384000D01*
Y366000D02*
X224000Y370000D01*
X220000Y374000*
X216000Y370000*
X220000Y366000*
Y370000D02*
Y374000D01*
Y356000D02*
X224000Y360000D01*
X220000Y364000*
X216000Y360000*
X220000Y356000*
Y360000D02*
Y364000D01*
Y346000D02*
X224000Y350000D01*
X220000Y354000*
X216000Y350000*
X220000Y346000*
Y350000D02*
Y354000D01*
Y336000D02*
X224000Y340000D01*
X220000Y344000*
X216000Y340000*
X220000Y336000*
Y340000D02*
Y344000D01*
Y326000D02*
X224000Y330000D01*
X220000Y334000*
X216000Y330000*
X220000Y326000*
Y330000D02*
Y334000D01*
Y316000D02*
X224000Y320000D01*
X220000Y324000*
X216000Y320000*
X220000Y316000*
Y320000D02*
Y324000D01*
Y306000D02*
X224000Y310000D01*
X220000Y314000*
X216000Y310000*
X220000Y306000*
Y310000D02*
Y314000D01*
Y296000D02*
X224000Y300000D01*
X220000Y304000*
X216000Y300000*
X220000Y296000*
Y300000D02*
Y304000D01*
Y286000D02*
X224000Y290000D01*
X220000Y294000*
X216000Y290000*
X220000Y286000*
Y290000D02*
Y294000D01*
Y276000D02*
X224000Y280000D01*
X220000Y284000*
X216000Y280000*
X220000Y276000*
Y280000D02*
Y284000D01*
Y266000D02*
X224000Y270000D01*
X220000Y274000*
X216000Y270000*
X220000Y266000*
Y270000D02*
Y274000D01*
Y256000D02*
X224000Y260000D01*
X220000Y264000*
X216000Y260000*
X220000Y256000*
Y260000D02*
Y264000D01*
Y246000D02*
X224000Y250000D01*
X220000Y254000*
X216000Y250000*
X220000Y246000*
Y250000D02*
Y254000D01*
Y236000D02*
X224000Y240000D01*
X220000Y244000*
X216000Y240000*
X220000Y236000*
Y240000D02*
Y244000D01*
Y226000D02*
X224000Y230000D01*
X220000Y234000*
X216000Y230000*
X220000Y226000*
Y230000D02*
Y234000D01*
Y216000D02*
X224000Y220000D01*
X220000Y224000*
X216000Y220000*
X220000Y216000*
Y220000D02*
Y224000D01*
Y206000D02*
X224000Y210000D01*
X220000Y214000*
X216000Y210000*
X220000Y206000*
Y210000D02*
Y214000D01*
Y196000D02*
X224000Y200000D01*
X220000Y204000*
X216000Y200000*
X220000Y196000*
Y200000D02*
Y204000D01*
Y186000D02*
X224000Y190000D01*
X220000Y194000*
X216000Y190000*
X220000Y186000*
Y190000D02*
Y194000D01*
Y176000D02*
X224000Y180000D01*
X220000Y184000*
X216000Y180000*
X220000Y176000*
Y180000D02*
Y184000D01*
Y166000D02*
X224000Y170000D01*
X220000Y174000*
X216000Y170000*
X220000Y166000*
Y170000D02*
Y174000D01*
Y156000D02*
X224000Y160000D01*
X220000Y164000*
X216000Y160000*
X220000Y156000*
Y160000D02*
Y164000D01*
Y146000D02*
X224000Y150000D01*
X220000Y154000*
X216000Y150000*
X220000Y146000*
Y150000D02*
Y154000D01*
Y136000D02*
X224000Y140000D01*
X220000Y144000*
X216000Y140000*
X220000Y136000*
Y140000D02*
Y144000D01*
X226000Y470000D02*
X234000D01*
X230000Y466000D02*
Y474000D01*
X226000Y120000D02*
X234000D01*
X230000Y116000D02*
Y124000D01*
X196000Y446000D02*
X204000D01*
Y454000*
X196000*
Y446000*
X200000Y450000D02*
Y454000D01*
X196000Y436000D02*
X204000D01*
Y444000*
X196000*
Y436000*
X200000Y440000D02*
Y444000D01*
X196000Y426000D02*
X204000D01*
Y434000*
X196000*
Y426000*
X200000Y430000D02*
Y434000D01*
X196000Y416000D02*
X204000D01*
Y424000*
X196000*
Y416000*
X200000Y420000D02*
Y424000D01*
X196000Y406000D02*
X204000D01*
Y414000*
X196000*
Y406000*
X200000Y410000D02*
Y414000D01*
X196000Y396000D02*
X204000D01*
Y404000*
X196000*
Y396000*
X200000Y400000D02*
Y404000D01*
X196000Y386000D02*
X204000D01*
Y394000*
X196000*
Y386000*
X200000Y390000D02*
Y394000D01*
X196000Y376000D02*
X204000D01*
Y384000*
X196000*
Y376000*
X200000Y380000D02*
Y384000D01*
X196000Y366000D02*
X204000D01*
Y374000*
X196000*
Y366000*
X200000Y370000D02*
Y374000D01*
X196000Y356000D02*
X204000D01*
Y364000*
X196000*
Y356000*
X200000Y360000D02*
Y364000D01*
X196000Y346000D02*
X204000D01*
Y354000*
X196000*
Y346000*
X200000Y350000D02*
Y354000D01*
X196000Y336000D02*
X204000D01*
Y344000*
X196000*
Y336000*
X200000Y340000D02*
Y344000D01*
X196000Y326000D02*
X204000D01*
Y334000*
X196000*
Y326000*
X200000Y330000D02*
Y334000D01*
X196000Y316000D02*
X204000D01*
Y324000*
X196000*
Y316000*
X200000Y320000D02*
Y324000D01*
X196000Y306000D02*
X204000D01*
Y314000*
X196000*
Y306000*
X200000Y310000D02*
Y314000D01*
X196000Y296000D02*
X204000D01*
Y304000*
X196000*
Y296000*
X200000Y300000D02*
Y304000D01*
X196000Y286000D02*
X204000D01*
Y294000*
X196000*
Y286000*
X200000Y290000D02*
Y294000D01*
X196000Y276000D02*
X204000D01*
Y284000*
X196000*
Y276000*
X200000Y280000D02*
Y284000D01*
X196000Y266000D02*
X204000D01*
Y274000*
X196000*
Y266000*
X200000Y270000D02*
Y274000D01*
X196000Y256000D02*
X204000D01*
Y264000*
X196000*
Y256000*
X200000Y260000D02*
Y264000D01*
X196000Y246000D02*
X204000D01*
Y254000*
X196000*
Y246000*
X200000Y250000D02*
Y254000D01*
X196000Y236000D02*
X204000D01*
Y244000*
X196000*
Y236000*
X200000Y240000D02*
Y244000D01*
X196000Y226000D02*
X204000D01*
Y234000*
X196000*
Y226000*
X200000Y230000D02*
Y234000D01*
X196000Y216000D02*
X204000D01*
Y224000*
X196000*
Y216000*
X200000Y220000D02*
Y224000D01*
X196000Y206000D02*
X204000D01*
Y214000*
X196000*
Y206000*
X200000Y210000D02*
Y214000D01*
X196000Y196000D02*
X204000D01*
Y204000*
X196000*
Y196000*
X200000Y200000D02*
Y204000D01*
X196000Y186000D02*
X204000D01*
Y194000*
X196000*
Y186000*
X200000Y190000D02*
Y194000D01*
X196000Y176000D02*
X204000D01*
Y184000*
X196000*
Y176000*
X200000Y180000D02*
Y184000D01*
X196000Y166000D02*
X204000D01*
Y174000*
X196000*
Y166000*
X200000Y170000D02*
Y174000D01*
X196000Y156000D02*
X204000D01*
Y164000*
X196000*
Y156000*
X200000Y160000D02*
Y164000D01*
X196000Y146000D02*
X204000D01*
Y154000*
X196000*
Y146000*
X200000Y150000D02*
Y154000D01*
X196000Y136000D02*
X204000D01*
Y144000*
X196000*
Y136000*
X200000Y140000D02*
Y144000D01*
X256000Y446000D02*
X264000D01*
Y454000*
X256000*
Y446000*
X260000Y450000D02*
Y454000D01*
X256000Y436000D02*
X264000D01*
Y444000*
X256000*
Y436000*
X260000Y440000D02*
Y444000D01*
X256000Y426000D02*
X264000D01*
Y434000*
X256000*
Y426000*
X260000Y430000D02*
Y434000D01*
X256000Y416000D02*
X264000D01*
Y424000*
X256000*
Y416000*
X260000Y420000D02*
Y424000D01*
X256000Y406000D02*
X264000D01*
Y414000*
X256000*
Y406000*
X260000Y410000D02*
Y414000D01*
X256000Y396000D02*
X264000D01*
Y404000*
X256000*
Y396000*
X260000Y400000D02*
Y404000D01*
X256000Y386000D02*
X264000D01*
Y394000*
X256000*
Y386000*
X260000Y390000D02*
Y394000D01*
X256000Y376000D02*
X264000D01*
Y384000*
X256000*
Y376000*
X260000Y380000D02*
Y384000D01*
X256000Y366000D02*
X264000D01*
Y374000*
X256000*
Y366000*
X260000Y370000D02*
Y374000D01*
X256000Y356000D02*
X264000D01*
Y364000*
X256000*
Y356000*
X260000Y360000D02*
Y364000D01*
X256000Y346000D02*
X264000D01*
Y354000*
X256000*
Y346000*
X260000Y350000D02*
Y354000D01*
X256000Y336000D02*
X264000D01*
Y344000*
X256000*
Y336000*
X260000Y340000D02*
Y344000D01*
X256000Y326000D02*
X264000D01*
Y334000*
X256000*
Y326000*
X260000Y330000D02*
Y334000D01*
X256000Y316000D02*
X264000D01*
Y324000*
X256000*
Y316000*
X260000Y320000D02*
Y324000D01*
X256000Y306000D02*
X264000D01*
Y314000*
X256000*
Y306000*
X260000Y310000D02*
Y314000D01*
X256000Y296000D02*
X264000D01*
Y304000*
X256000*
Y296000*
X260000Y300000D02*
Y304000D01*
X256000Y286000D02*
X264000D01*
Y294000*
X256000*
Y286000*
X260000Y290000D02*
Y294000D01*
X256000Y276000D02*
X264000D01*
Y284000*
X256000*
Y276000*
X260000Y280000D02*
Y284000D01*
X256000Y266000D02*
X264000D01*
Y274000*
X256000*
Y266000*
X260000Y270000D02*
Y274000D01*
X256000Y256000D02*
X264000D01*
Y264000*
X256000*
Y256000*
X260000Y260000D02*
Y264000D01*
X256000Y246000D02*
X264000D01*
Y254000*
X256000*
Y246000*
X260000Y250000D02*
Y254000D01*
X256000Y236000D02*
X264000D01*
Y244000*
X256000*
Y236000*
X260000Y240000D02*
Y244000D01*
X256000Y226000D02*
X264000D01*
Y234000*
X256000*
Y226000*
X260000Y230000D02*
Y234000D01*
X256000Y216000D02*
X264000D01*
Y224000*
X256000*
Y216000*
X260000Y220000D02*
Y224000D01*
X256000Y206000D02*
X264000D01*
Y214000*
X256000*
Y206000*
X260000Y210000D02*
Y214000D01*
X256000Y196000D02*
X264000D01*
Y204000*
X256000*
Y196000*
X260000Y200000D02*
Y204000D01*
X256000Y186000D02*
X264000D01*
Y194000*
X256000*
Y186000*
X260000Y190000D02*
Y194000D01*
X256000Y176000D02*
X264000D01*
Y184000*
X256000*
Y176000*
X260000Y180000D02*
Y184000D01*
X256000Y166000D02*
X264000D01*
Y174000*
X256000*
Y166000*
X260000Y170000D02*
Y174000D01*
X256000Y156000D02*
X264000D01*
Y164000*
X256000*
Y156000*
X260000Y160000D02*
Y164000D01*
X256000Y146000D02*
X264000D01*
Y154000*
X256000*
Y146000*
X260000Y150000D02*
Y154000D01*
X256000Y136000D02*
X264000D01*
Y144000*
X256000*
Y136000*
X260000Y140000D02*
Y144000D01*
X116000Y446000D02*
X124000D01*
Y454000*
X116000*
Y446000*
X120000Y450000D02*
Y454000D01*
X116000Y436000D02*
X124000D01*
Y444000*
X116000*
Y436000*
X120000Y440000D02*
Y444000D01*
X116000Y426000D02*
X124000D01*
Y434000*
X116000*
Y426000*
X120000Y430000D02*
Y434000D01*
X116000Y416000D02*
X124000D01*
Y424000*
X116000*
Y416000*
X120000Y420000D02*
Y424000D01*
X116000Y406000D02*
X124000D01*
Y414000*
X116000*
Y406000*
X120000Y410000D02*
Y414000D01*
X116000Y396000D02*
X124000D01*
Y404000*
X116000*
Y396000*
X120000Y400000D02*
Y404000D01*
X116000Y386000D02*
X124000D01*
Y394000*
X116000*
Y386000*
X120000Y390000D02*
Y394000D01*
X116000Y376000D02*
X124000D01*
Y384000*
X116000*
Y376000*
X120000Y380000D02*
Y384000D01*
X116000Y366000D02*
X124000D01*
Y374000*
X116000*
Y366000*
X120000Y370000D02*
Y374000D01*
X116000Y356000D02*
X124000D01*
Y364000*
X116000*
Y356000*
X120000Y360000D02*
Y364000D01*
X116000Y346000D02*
X124000D01*
Y354000*
X116000*
Y346000*
X120000Y350000D02*
Y354000D01*
X116000Y336000D02*
X124000D01*
Y344000*
X116000*
Y336000*
X120000Y340000D02*
Y344000D01*
X116000Y326000D02*
X124000D01*
Y334000*
X116000*
Y326000*
X120000Y330000D02*
Y334000D01*
X116000Y316000D02*
X124000D01*
Y324000*
X116000*
Y316000*
X120000Y320000D02*
Y324000D01*
X116000Y306000D02*
X124000D01*
Y314000*
X116000*
Y306000*
X120000Y310000D02*
Y314000D01*
X116000Y296000D02*
X124000D01*
Y304000*
X116000*
Y296000*
X120000Y300000D02*
Y304000D01*
X116000Y286000D02*
X124000D01*
Y294000*
X116000*
Y286000*
X120000Y290000D02*
Y294000D01*
X116000Y276000D02*
X124000D01*
Y284000*
X116000*
Y276000*
X120000Y280000D02*
Y284000D01*
X116000Y266000D02*
X124000D01*
Y274000*
X116000*
Y266000*
X120000Y270000D02*
Y274000D01*
X116000Y256000D02*
X124000D01*
Y264000*
X116000*
Y256000*
X120000Y260000D02*
Y264000D01*
X116000Y246000D02*
X124000D01*
Y254000*
X116000*
Y246000*
X120000Y250000D02*
Y254000D01*
X116000Y236000D02*
X124000D01*
Y244000*
X116000*
Y236000*
X120000Y240000D02*
Y244000D01*
X116000Y226000D02*
X124000D01*
Y234000*
X116000*
Y226000*
X120000Y230000D02*
Y234000D01*
X116000Y216000D02*
X124000D01*
Y224000*
X116000*
Y216000*
X120000Y220000D02*
Y224000D01*
X116000Y206000D02*
X124000D01*
Y214000*
X116000*
Y206000*
X120000Y210000D02*
Y214000D01*
X116000Y196000D02*
X124000D01*
Y204000*
X116000*
Y196000*
X120000Y200000D02*
Y204000D01*
X116000Y186000D02*
X124000D01*
Y194000*
X116000*
Y186000*
X120000Y190000D02*
Y194000D01*
X116000Y176000D02*
X124000D01*
Y184000*
X116000*
Y176000*
X120000Y180000D02*
Y184000D01*
X116000Y166000D02*
X124000D01*
Y174000*
X116000*
Y166000*
X120000Y170000D02*
Y174000D01*
X116000Y156000D02*
X124000D01*
Y164000*
X116000*
Y156000*
X120000Y160000D02*
Y164000D01*
X116000Y146000D02*
X124000D01*
Y154000*
X116000*
Y146000*
X120000Y150000D02*
Y154000D01*
X116000Y136000D02*
X124000D01*
Y144000*
X116000*
Y136000*
X120000Y140000D02*
Y144000D01*
X176000Y446000D02*
X184000D01*
Y454000*
X176000*
Y446000*
X180000Y450000D02*
Y454000D01*
X176000Y436000D02*
X184000D01*
Y444000*
X176000*
Y436000*
X180000Y440000D02*
Y444000D01*
X176000Y426000D02*
X184000D01*
Y434000*
X176000*
Y426000*
X180000Y430000D02*
Y434000D01*
X176000Y416000D02*
X184000D01*
Y424000*
X176000*
Y416000*
X180000Y420000D02*
Y424000D01*
X176000Y406000D02*
X184000D01*
Y414000*
X176000*
Y406000*
X180000Y410000D02*
Y414000D01*
X176000Y396000D02*
X184000D01*
Y404000*
X176000*
Y396000*
X180000Y400000D02*
Y404000D01*
X176000Y386000D02*
X184000D01*
Y394000*
X176000*
Y386000*
X180000Y390000D02*
Y394000D01*
X176000Y376000D02*
X184000D01*
Y384000*
X176000*
Y376000*
X180000Y380000D02*
Y384000D01*
X176000Y366000D02*
X184000D01*
Y374000*
X176000*
Y366000*
X180000Y370000D02*
Y374000D01*
X176000Y356000D02*
X184000D01*
Y364000*
X176000*
Y356000*
X180000Y360000D02*
Y364000D01*
X176000Y346000D02*
X184000D01*
Y354000*
X176000*
Y346000*
X180000Y350000D02*
Y354000D01*
X176000Y336000D02*
X184000D01*
Y344000*
X176000*
Y336000*
X180000Y340000D02*
Y344000D01*
X176000Y326000D02*
X184000D01*
Y334000*
X176000*
Y326000*
X180000Y330000D02*
Y334000D01*
X176000Y316000D02*
X184000D01*
Y324000*
X176000*
Y316000*
X180000Y320000D02*
Y324000D01*
X176000Y306000D02*
X184000D01*
Y314000*
X176000*
Y306000*
X180000Y310000D02*
Y314000D01*
X176000Y296000D02*
X184000D01*
Y304000*
X176000*
Y296000*
X180000Y300000D02*
Y304000D01*
X176000Y286000D02*
X184000D01*
Y294000*
X176000*
Y286000*
X180000Y290000D02*
Y294000D01*
X176000Y276000D02*
X184000D01*
Y284000*
X176000*
Y276000*
X180000Y280000D02*
Y284000D01*
X176000Y266000D02*
X184000D01*
Y274000*
X176000*
Y266000*
X180000Y270000D02*
Y274000D01*
X176000Y256000D02*
X184000D01*
Y264000*
X176000*
Y256000*
X180000Y260000D02*
Y264000D01*
X176000Y246000D02*
X184000D01*
Y254000*
X176000*
Y246000*
X180000Y250000D02*
Y254000D01*
X176000Y236000D02*
X184000D01*
Y244000*
X176000*
Y236000*
X180000Y240000D02*
Y244000D01*
X176000Y226000D02*
X184000D01*
Y234000*
X176000*
Y226000*
X180000Y230000D02*
Y234000D01*
X176000Y216000D02*
X184000D01*
Y224000*
X176000*
Y216000*
X180000Y220000D02*
Y224000D01*
X176000Y206000D02*
X184000D01*
Y214000*
X176000*
Y206000*
X180000Y210000D02*
Y214000D01*
X176000Y196000D02*
X184000D01*
Y204000*
X176000*
Y196000*
X180000Y200000D02*
Y204000D01*
X176000Y186000D02*
X184000D01*
Y194000*
X176000*
Y186000*
X180000Y190000D02*
Y194000D01*
X176000Y176000D02*
X184000D01*
Y184000*
X176000*
Y176000*
X180000Y180000D02*
Y184000D01*
X176000Y166000D02*
X184000D01*
Y174000*
X176000*
Y166000*
X180000Y170000D02*
Y174000D01*
X176000Y156000D02*
X184000D01*
Y164000*
X176000*
Y156000*
X180000Y160000D02*
Y164000D01*
X176000Y146000D02*
X184000D01*
Y154000*
X176000*
Y146000*
X180000Y150000D02*
Y154000D01*
X176000Y136000D02*
X184000D01*
Y144000*
X176000*
Y136000*
X180000Y140000D02*
Y144000D01*
X320000Y446000D02*
X324000Y450000D01*
X320000Y454000*
X316000Y450000*
X320000Y446000*
Y450000D02*
Y454000D01*
Y436000D02*
X324000Y440000D01*
X320000Y444000*
X316000Y440000*
X320000Y436000*
Y440000D02*
Y444000D01*
Y426000D02*
X324000Y430000D01*
X320000Y434000*
X316000Y430000*
X320000Y426000*
Y430000D02*
Y434000D01*
Y416000D02*
X324000Y420000D01*
X320000Y424000*
X316000Y420000*
X320000Y416000*
Y420000D02*
Y424000D01*
Y406000D02*
X324000Y410000D01*
X320000Y414000*
X316000Y410000*
X320000Y406000*
Y410000D02*
Y414000D01*
Y396000D02*
X324000Y400000D01*
X320000Y404000*
X316000Y400000*
X320000Y396000*
Y400000D02*
Y404000D01*
Y386000D02*
X324000Y390000D01*
X320000Y394000*
X316000Y390000*
X320000Y386000*
Y390000D02*
Y394000D01*
Y376000D02*
X324000Y380000D01*
X320000Y384000*
X316000Y380000*
X320000Y376000*
Y380000D02*
Y384000D01*
Y366000D02*
X324000Y370000D01*
X320000Y374000*
X316000Y370000*
X320000Y366000*
Y370000D02*
Y374000D01*
Y356000D02*
X324000Y360000D01*
X320000Y364000*
X316000Y360000*
X320000Y356000*
Y360000D02*
Y364000D01*
Y346000D02*
X324000Y350000D01*
X320000Y354000*
X316000Y350000*
X320000Y346000*
Y350000D02*
Y354000D01*
Y336000D02*
X324000Y340000D01*
X320000Y344000*
X316000Y340000*
X320000Y336000*
Y340000D02*
Y344000D01*
Y326000D02*
X324000Y330000D01*
X320000Y334000*
X316000Y330000*
X320000Y326000*
Y330000D02*
Y334000D01*
Y316000D02*
X324000Y320000D01*
X320000Y324000*
X316000Y320000*
X320000Y316000*
Y320000D02*
Y324000D01*
Y306000D02*
X324000Y310000D01*
X320000Y314000*
X316000Y310000*
X320000Y306000*
Y310000D02*
Y314000D01*
Y296000D02*
X324000Y300000D01*
X320000Y304000*
X316000Y300000*
X320000Y296000*
Y300000D02*
Y304000D01*
Y286000D02*
X324000Y290000D01*
X320000Y294000*
X316000Y290000*
X320000Y286000*
Y290000D02*
Y294000D01*
Y276000D02*
X324000Y280000D01*
X320000Y284000*
X316000Y280000*
X320000Y276000*
Y280000D02*
Y284000D01*
Y266000D02*
X324000Y270000D01*
X320000Y274000*
X316000Y270000*
X320000Y266000*
Y270000D02*
Y274000D01*
Y256000D02*
X324000Y260000D01*
X320000Y264000*
X316000Y260000*
X320000Y256000*
Y260000D02*
Y264000D01*
Y246000D02*
X324000Y250000D01*
X320000Y254000*
X316000Y250000*
X320000Y246000*
Y250000D02*
Y254000D01*
Y236000D02*
X324000Y240000D01*
X320000Y244000*
X316000Y240000*
X320000Y236000*
Y240000D02*
Y244000D01*
Y226000D02*
X324000Y230000D01*
X320000Y234000*
X316000Y230000*
X320000Y226000*
Y230000D02*
Y234000D01*
Y216000D02*
X324000Y220000D01*
X320000Y224000*
X316000Y220000*
X320000Y216000*
Y220000D02*
Y224000D01*
Y206000D02*
X324000Y210000D01*
X320000Y214000*
X316000Y210000*
X320000Y206000*
Y210000D02*
Y214000D01*
Y196000D02*
X324000Y200000D01*
X320000Y204000*
X316000Y200000*
X320000Y196000*
Y200000D02*
Y204000D01*
Y186000D02*
X324000Y190000D01*
X320000Y194000*
X316000Y190000*
X320000Y186000*
Y190000D02*
Y194000D01*
Y176000D02*
X324000Y180000D01*
X320000Y184000*
X316000Y180000*
X320000Y176000*
Y180000D02*
Y184000D01*
Y166000D02*
X324000Y170000D01*
X320000Y174000*
X316000Y170000*
X320000Y166000*
Y170000D02*
Y174000D01*
Y156000D02*
X324000Y160000D01*
X320000Y164000*
X316000Y160000*
X320000Y156000*
Y160000D02*
Y164000D01*
Y146000D02*
X324000Y150000D01*
X320000Y154000*
X316000Y150000*
X320000Y146000*
Y150000D02*
Y154000D01*
Y136000D02*
X324000Y140000D01*
X320000Y144000*
X316000Y140000*
X320000Y136000*
Y140000D02*
Y144000D01*
X310000Y446000D02*
X314000Y450000D01*
X310000Y454000*
X306000Y450000*
X310000Y446000*
Y450000D02*
Y454000D01*
Y436000D02*
X314000Y440000D01*
X310000Y444000*
X306000Y440000*
X310000Y436000*
Y440000D02*
Y444000D01*
Y426000D02*
X314000Y430000D01*
X310000Y434000*
X306000Y430000*
X310000Y426000*
Y430000D02*
Y434000D01*
Y416000D02*
X314000Y420000D01*
X310000Y424000*
X306000Y420000*
X310000Y416000*
Y420000D02*
Y424000D01*
Y406000D02*
X314000Y410000D01*
X310000Y414000*
X306000Y410000*
X310000Y406000*
Y410000D02*
Y414000D01*
Y396000D02*
X314000Y400000D01*
X310000Y404000*
X306000Y400000*
X310000Y396000*
Y400000D02*
Y404000D01*
Y386000D02*
X314000Y390000D01*
X310000Y394000*
X306000Y390000*
X310000Y386000*
Y390000D02*
Y394000D01*
Y376000D02*
X314000Y380000D01*
X310000Y384000*
X306000Y380000*
X310000Y376000*
Y380000D02*
Y384000D01*
Y366000D02*
X314000Y370000D01*
X310000Y374000*
X306000Y370000*
X310000Y366000*
Y370000D02*
Y374000D01*
Y356000D02*
X314000Y360000D01*
X310000Y364000*
X306000Y360000*
X310000Y356000*
Y360000D02*
Y364000D01*
Y346000D02*
X314000Y350000D01*
X310000Y354000*
X306000Y350000*
X310000Y346000*
Y350000D02*
Y354000D01*
Y336000D02*
X314000Y340000D01*
X310000Y344000*
X306000Y340000*
X310000Y336000*
Y340000D02*
Y344000D01*
Y326000D02*
X314000Y330000D01*
X310000Y334000*
X306000Y330000*
X310000Y326000*
Y330000D02*
Y334000D01*
Y316000D02*
X314000Y320000D01*
X310000Y324000*
X306000Y320000*
X310000Y316000*
Y320000D02*
Y324000D01*
Y306000D02*
X314000Y310000D01*
X310000Y314000*
X306000Y310000*
X310000Y306000*
Y310000D02*
Y314000D01*
Y296000D02*
X314000Y300000D01*
X310000Y304000*
X306000Y300000*
X310000Y296000*
Y300000D02*
Y304000D01*
Y286000D02*
X314000Y290000D01*
X310000Y294000*
X306000Y290000*
X310000Y286000*
Y290000D02*
Y294000D01*
Y276000D02*
X314000Y280000D01*
X310000Y284000*
X306000Y280000*
X310000Y276000*
Y280000D02*
Y284000D01*
Y266000D02*
X314000Y270000D01*
X310000Y274000*
X306000Y270000*
X310000Y266000*
Y270000D02*
Y274000D01*
Y256000D02*
X314000Y260000D01*
X310000Y264000*
X306000Y260000*
X310000Y256000*
Y260000D02*
Y264000D01*
Y246000D02*
X314000Y250000D01*
X310000Y254000*
X306000Y250000*
X310000Y246000*
Y250000D02*
Y254000D01*
Y236000D02*
X314000Y240000D01*
X310000Y244000*
X306000Y240000*
X310000Y236000*
Y240000D02*
Y244000D01*
Y226000D02*
X314000Y230000D01*
X310000Y234000*
X306000Y230000*
X310000Y226000*
Y230000D02*
Y234000D01*
Y216000D02*
X314000Y220000D01*
X310000Y224000*
X306000Y220000*
X310000Y216000*
Y220000D02*
Y224000D01*
Y206000D02*
X314000Y210000D01*
X310000Y214000*
X306000Y210000*
X310000Y206000*
Y210000D02*
Y214000D01*
Y196000D02*
X314000Y200000D01*
X310000Y204000*
X306000Y200000*
X310000Y196000*
Y200000D02*
Y204000D01*
Y186000D02*
X314000Y190000D01*
X310000Y194000*
X306000Y190000*
X310000Y186000*
Y190000D02*
Y194000D01*
Y176000D02*
X314000Y180000D01*
X310000Y184000*
X306000Y180000*
X310000Y176000*
Y180000D02*
Y184000D01*
Y166000D02*
X314000Y170000D01*
X310000Y174000*
X306000Y170000*
X310000Y166000*
Y170000D02*
Y174000D01*
Y156000D02*
X314000Y160000D01*
X310000Y164000*
X306000Y160000*
X310000Y156000*
Y160000D02*
Y164000D01*
Y146000D02*
X314000Y150000D01*
X310000Y154000*
X306000Y150000*
X310000Y146000*
Y150000D02*
Y154000D01*
Y136000D02*
X314000Y140000D01*
X310000Y144000*
X306000Y140000*
X310000Y136000*
Y140000D02*
Y144000D01*
X300000Y446000D02*
X304000Y450000D01*
X300000Y454000*
X296000Y450000*
X300000Y446000*
Y450000D02*
Y454000D01*
Y436000D02*
X304000Y440000D01*
X300000Y444000*
X296000Y440000*
X300000Y436000*
Y440000D02*
Y444000D01*
Y426000D02*
X304000Y430000D01*
X300000Y434000*
X296000Y430000*
X300000Y426000*
Y430000D02*
Y434000D01*
Y416000D02*
X304000Y420000D01*
X300000Y424000*
X296000Y420000*
X300000Y416000*
Y420000D02*
Y424000D01*
Y406000D02*
X304000Y410000D01*
X300000Y414000*
X296000Y410000*
X300000Y406000*
Y410000D02*
Y414000D01*
Y396000D02*
X304000Y400000D01*
X300000Y404000*
X296000Y400000*
X300000Y396000*
Y400000D02*
Y404000D01*
Y386000D02*
X304000Y390000D01*
X300000Y394000*
X296000Y390000*
X300000Y386000*
Y390000D02*
Y394000D01*
Y376000D02*
X304000Y380000D01*
X300000Y384000*
X296000Y380000*
X300000Y376000*
Y380000D02*
Y384000D01*
Y366000D02*
X304000Y370000D01*
X300000Y374000*
X296000Y370000*
X300000Y366000*
Y370000D02*
Y374000D01*
Y356000D02*
X304000Y360000D01*
X300000Y364000*
X296000Y360000*
X300000Y356000*
Y360000D02*
Y364000D01*
Y346000D02*
X304000Y350000D01*
X300000Y354000*
X296000Y350000*
X300000Y346000*
Y350000D02*
Y354000D01*
Y336000D02*
X304000Y340000D01*
X300000Y344000*
X296000Y340000*
X300000Y336000*
Y340000D02*
Y344000D01*
Y326000D02*
X304000Y330000D01*
X300000Y334000*
X296000Y330000*
X300000Y326000*
Y330000D02*
Y334000D01*
Y316000D02*
X304000Y320000D01*
X300000Y324000*
X296000Y320000*
X300000Y316000*
Y320000D02*
Y324000D01*
Y306000D02*
X304000Y310000D01*
X300000Y314000*
X296000Y310000*
X300000Y306000*
Y310000D02*
Y314000D01*
Y296000D02*
X304000Y300000D01*
X300000Y304000*
X296000Y300000*
X300000Y296000*
Y300000D02*
Y304000D01*
Y286000D02*
X304000Y290000D01*
X300000Y294000*
X296000Y290000*
X300000Y286000*
Y290000D02*
Y294000D01*
Y276000D02*
X304000Y280000D01*
X300000Y284000*
X296000Y280000*
X300000Y276000*
Y280000D02*
Y284000D01*
Y266000D02*
X304000Y270000D01*
X300000Y274000*
X296000Y270000*
X300000Y266000*
Y270000D02*
Y274000D01*
Y256000D02*
X304000Y260000D01*
X300000Y264000*
X296000Y260000*
X300000Y256000*
Y260000D02*
Y264000D01*
Y246000D02*
X304000Y250000D01*
X300000Y254000*
X296000Y250000*
X300000Y246000*
Y250000D02*
Y254000D01*
Y236000D02*
X304000Y240000D01*
X300000Y244000*
X296000Y240000*
X300000Y236000*
Y240000D02*
Y244000D01*
Y226000D02*
X304000Y230000D01*
X300000Y234000*
X296000Y230000*
X300000Y226000*
Y230000D02*
Y234000D01*
Y216000D02*
X304000Y220000D01*
X300000Y224000*
X296000Y220000*
X300000Y216000*
Y220000D02*
Y224000D01*
Y206000D02*
X304000Y210000D01*
X300000Y214000*
X296000Y210000*
X300000Y206000*
Y210000D02*
Y214000D01*
Y196000D02*
X304000Y200000D01*
X300000Y204000*
X296000Y200000*
X300000Y196000*
Y200000D02*
Y204000D01*
Y186000D02*
X304000Y190000D01*
X300000Y194000*
X296000Y190000*
X300000Y186000*
Y190000D02*
Y194000D01*
Y176000D02*
X304000Y180000D01*
X300000Y184000*
X296000Y180000*
X300000Y176000*
Y180000D02*
Y184000D01*
Y166000D02*
X304000Y170000D01*
X300000Y174000*
X296000Y170000*
X300000Y166000*
Y170000D02*
Y174000D01*
Y156000D02*
X304000Y160000D01*
X300000Y164000*
X296000Y160000*
X300000Y156000*
Y160000D02*
Y164000D01*
Y146000D02*
X304000Y150000D01*
X300000Y154000*
X296000Y150000*
X300000Y146000*
Y150000D02*
Y154000D01*
Y136000D02*
X304000Y140000D01*
X300000Y144000*
X296000Y140000*
X300000Y136000*
Y140000D02*
Y144000D01*
X306000Y470000D02*
X314000D01*
X310000Y466000D02*
Y474000D01*
X306000Y120000D02*
X314000D01*
X310000Y116000D02*
Y124000D01*
X276000Y446000D02*
X284000D01*
Y454000*
X276000*
Y446000*
X280000Y450000D02*
Y454000D01*
X276000Y436000D02*
X284000D01*
Y444000*
X276000*
Y436000*
X280000Y440000D02*
Y444000D01*
X276000Y426000D02*
X284000D01*
Y434000*
X276000*
Y426000*
X280000Y430000D02*
Y434000D01*
X276000Y416000D02*
X284000D01*
Y424000*
X276000*
Y416000*
X280000Y420000D02*
Y424000D01*
X276000Y406000D02*
X284000D01*
Y414000*
X276000*
Y406000*
X280000Y410000D02*
Y414000D01*
X276000Y396000D02*
X284000D01*
Y404000*
X276000*
Y396000*
X280000Y400000D02*
Y404000D01*
X276000Y386000D02*
X284000D01*
Y394000*
X276000*
Y386000*
X280000Y390000D02*
Y394000D01*
X276000Y376000D02*
X284000D01*
Y384000*
X276000*
Y376000*
X280000Y380000D02*
Y384000D01*
X276000Y366000D02*
X284000D01*
Y374000*
X276000*
Y366000*
X280000Y370000D02*
Y374000D01*
X276000Y356000D02*
X284000D01*
Y364000*
X276000*
Y356000*
X280000Y360000D02*
Y364000D01*
X276000Y346000D02*
X284000D01*
Y354000*
X276000*
Y346000*
X280000Y350000D02*
Y354000D01*
X276000Y336000D02*
X284000D01*
Y344000*
X276000*
Y336000*
X280000Y340000D02*
Y344000D01*
X276000Y326000D02*
X284000D01*
Y334000*
X276000*
Y326000*
X280000Y330000D02*
Y334000D01*
X276000Y316000D02*
X284000D01*
Y324000*
X276000*
Y316000*
X280000Y320000D02*
Y324000D01*
X276000Y306000D02*
X284000D01*
Y314000*
X276000*
Y306000*
X280000Y310000D02*
Y314000D01*
X276000Y296000D02*
X284000D01*
Y304000*
X276000*
Y296000*
X280000Y300000D02*
Y304000D01*
X276000Y286000D02*
X284000D01*
Y294000*
X276000*
Y286000*
X280000Y290000D02*
Y294000D01*
X276000Y276000D02*
X284000D01*
Y284000*
X276000*
Y276000*
X280000Y280000D02*
Y284000D01*
X276000Y266000D02*
X284000D01*
Y274000*
X276000*
Y266000*
X280000Y270000D02*
Y274000D01*
X276000Y256000D02*
X284000D01*
Y264000*
X276000*
Y256000*
X280000Y260000D02*
Y264000D01*
X276000Y246000D02*
X284000D01*
Y254000*
X276000*
Y246000*
X280000Y250000D02*
Y254000D01*
X276000Y236000D02*
X284000D01*
Y244000*
X276000*
Y236000*
X280000Y240000D02*
Y244000D01*
X276000Y226000D02*
X284000D01*
Y234000*
X276000*
Y226000*
X280000Y230000D02*
Y234000D01*
X276000Y216000D02*
X284000D01*
Y224000*
X276000*
Y216000*
X280000Y220000D02*
Y224000D01*
X276000Y206000D02*
X284000D01*
Y214000*
X276000*
Y206000*
X280000Y210000D02*
Y214000D01*
X276000Y196000D02*
X284000D01*
Y204000*
X276000*
Y196000*
X280000Y200000D02*
Y204000D01*
X276000Y186000D02*
X284000D01*
Y194000*
X276000*
Y186000*
X280000Y190000D02*
Y194000D01*
X276000Y176000D02*
X284000D01*
Y184000*
X276000*
Y176000*
X280000Y180000D02*
Y184000D01*
X276000Y166000D02*
X284000D01*
Y174000*
X276000*
Y166000*
X280000Y170000D02*
Y174000D01*
X276000Y156000D02*
X284000D01*
Y164000*
X276000*
Y156000*
X280000Y160000D02*
Y164000D01*
X276000Y146000D02*
X284000D01*
Y154000*
X276000*
Y146000*
X280000Y150000D02*
Y154000D01*
X276000Y136000D02*
X284000D01*
Y144000*
X276000*
Y136000*
X280000Y140000D02*
Y144000D01*
X336000Y446000D02*
X344000D01*
Y454000*
X336000*
Y446000*
X340000Y450000D02*
Y454000D01*
X336000Y436000D02*
X344000D01*
Y444000*
X336000*
Y436000*
X340000Y440000D02*
Y444000D01*
X336000Y426000D02*
X344000D01*
Y434000*
X336000*
Y426000*
X340000Y430000D02*
Y434000D01*
X336000Y416000D02*
X344000D01*
Y424000*
X336000*
Y416000*
X340000Y420000D02*
Y424000D01*
X336000Y406000D02*
X344000D01*
Y414000*
X336000*
Y406000*
X340000Y410000D02*
Y414000D01*
X336000Y396000D02*
X344000D01*
Y404000*
X336000*
Y396000*
X340000Y400000D02*
Y404000D01*
X336000Y386000D02*
X344000D01*
Y394000*
X336000*
Y386000*
X340000Y390000D02*
Y394000D01*
X336000Y376000D02*
X344000D01*
Y384000*
X336000*
Y376000*
X340000Y380000D02*
Y384000D01*
X336000Y366000D02*
X344000D01*
Y374000*
X336000*
Y366000*
X340000Y370000D02*
Y374000D01*
X336000Y356000D02*
X344000D01*
Y364000*
X336000*
Y356000*
X340000Y360000D02*
Y364000D01*
X336000Y346000D02*
X344000D01*
Y354000*
X336000*
Y346000*
X340000Y350000D02*
Y354000D01*
X336000Y336000D02*
X344000D01*
Y344000*
X336000*
Y336000*
X340000Y340000D02*
Y344000D01*
X336000Y326000D02*
X344000D01*
Y334000*
X336000*
Y326000*
X340000Y330000D02*
Y334000D01*
X336000Y316000D02*
X344000D01*
Y324000*
X336000*
Y316000*
X340000Y320000D02*
Y324000D01*
X336000Y306000D02*
X344000D01*
Y314000*
X336000*
Y306000*
X340000Y310000D02*
Y314000D01*
X336000Y296000D02*
X344000D01*
Y304000*
X336000*
Y296000*
X340000Y300000D02*
Y304000D01*
X336000Y286000D02*
X344000D01*
Y294000*
X336000*
Y286000*
X340000Y290000D02*
Y294000D01*
X336000Y276000D02*
X344000D01*
Y284000*
X336000*
Y276000*
X340000Y280000D02*
Y284000D01*
X336000Y266000D02*
X344000D01*
Y274000*
X336000*
Y266000*
X340000Y270000D02*
Y274000D01*
X336000Y256000D02*
X344000D01*
Y264000*
X336000*
Y256000*
X340000Y260000D02*
Y264000D01*
X336000Y246000D02*
X344000D01*
Y254000*
X336000*
Y246000*
X340000Y250000D02*
Y254000D01*
X336000Y236000D02*
X344000D01*
Y244000*
X336000*
Y236000*
X340000Y240000D02*
Y244000D01*
X336000Y226000D02*
X344000D01*
Y234000*
X336000*
Y226000*
X340000Y230000D02*
Y234000D01*
X336000Y216000D02*
X344000D01*
Y224000*
X336000*
Y216000*
X340000Y220000D02*
Y224000D01*
X336000Y206000D02*
X344000D01*
Y214000*
X336000*
Y206000*
X340000Y210000D02*
Y214000D01*
X336000Y196000D02*
X344000D01*
Y204000*
X336000*
Y196000*
X340000Y200000D02*
Y204000D01*
X336000Y186000D02*
X344000D01*
Y194000*
X336000*
Y186000*
X340000Y190000D02*
Y194000D01*
X336000Y176000D02*
X344000D01*
Y184000*
X336000*
Y176000*
X340000Y180000D02*
Y184000D01*
X336000Y166000D02*
X344000D01*
Y174000*
X336000*
Y166000*
X340000Y170000D02*
Y174000D01*
X336000Y156000D02*
X344000D01*
Y164000*
X336000*
Y156000*
X340000Y160000D02*
Y164000D01*
X336000Y146000D02*
X344000D01*
Y154000*
X336000*
Y146000*
X340000Y150000D02*
Y154000D01*
X336000Y136000D02*
X344000D01*
Y144000*
X336000*
Y136000*
X340000Y140000D02*
Y144000D01*
X400000Y446000D02*
X404000Y450000D01*
X400000Y454000*
X396000Y450000*
X400000Y446000*
Y450000D02*
Y454000D01*
Y436000D02*
X404000Y440000D01*
X400000Y444000*
X396000Y440000*
X400000Y436000*
Y440000D02*
Y444000D01*
Y426000D02*
X404000Y430000D01*
X400000Y434000*
X396000Y430000*
X400000Y426000*
Y430000D02*
Y434000D01*
Y416000D02*
X404000Y420000D01*
X400000Y424000*
X396000Y420000*
X400000Y416000*
Y420000D02*
Y424000D01*
Y406000D02*
X404000Y410000D01*
X400000Y414000*
X396000Y410000*
X400000Y406000*
Y410000D02*
Y414000D01*
Y396000D02*
X404000Y400000D01*
X400000Y404000*
X396000Y400000*
X400000Y396000*
Y400000D02*
Y404000D01*
Y386000D02*
X404000Y390000D01*
X400000Y394000*
X396000Y390000*
X400000Y386000*
Y390000D02*
Y394000D01*
Y376000D02*
X404000Y380000D01*
X400000Y384000*
X396000Y380000*
X400000Y376000*
Y380000D02*
Y384000D01*
Y366000D02*
X404000Y370000D01*
X400000Y374000*
X396000Y370000*
X400000Y366000*
Y370000D02*
Y374000D01*
Y356000D02*
X404000Y360000D01*
X400000Y364000*
X396000Y360000*
X400000Y356000*
Y360000D02*
Y364000D01*
Y346000D02*
X404000Y350000D01*
X400000Y354000*
X396000Y350000*
X400000Y346000*
Y350000D02*
Y354000D01*
Y336000D02*
X404000Y340000D01*
X400000Y344000*
X396000Y340000*
X400000Y336000*
Y340000D02*
Y344000D01*
Y326000D02*
X404000Y330000D01*
X400000Y334000*
X396000Y330000*
X400000Y326000*
Y330000D02*
Y334000D01*
Y316000D02*
X404000Y320000D01*
X400000Y324000*
X396000Y320000*
X400000Y316000*
Y320000D02*
Y324000D01*
Y306000D02*
X404000Y310000D01*
X400000Y314000*
X396000Y310000*
X400000Y306000*
Y310000D02*
Y314000D01*
Y296000D02*
X404000Y300000D01*
X400000Y304000*
X396000Y300000*
X400000Y296000*
Y300000D02*
Y304000D01*
Y286000D02*
X404000Y290000D01*
X400000Y294000*
X396000Y290000*
X400000Y286000*
Y290000D02*
Y294000D01*
Y276000D02*
X404000Y280000D01*
X400000Y284000*
X396000Y280000*
X400000Y276000*
Y280000D02*
Y284000D01*
Y266000D02*
X404000Y270000D01*
X400000Y274000*
X396000Y270000*
X400000Y266000*
Y270000D02*
Y274000D01*
Y256000D02*
X404000Y260000D01*
X400000Y264000*
X396000Y260000*
X400000Y256000*
Y260000D02*
Y264000D01*
Y246000D02*
X404000Y250000D01*
X400000Y254000*
X396000Y250000*
X400000Y246000*
Y250000D02*
Y254000D01*
Y236000D02*
X404000Y240000D01*
X400000Y244000*
X396000Y240000*
X400000Y236000*
Y240000D02*
Y244000D01*
Y226000D02*
X404000Y230000D01*
X400000Y234000*
X396000Y230000*
X400000Y226000*
Y230000D02*
Y234000D01*
Y216000D02*
X404000Y220000D01*
X400000Y224000*
X396000Y220000*
X400000Y216000*
Y220000D02*
Y224000D01*
Y206000D02*
X404000Y210000D01*
X400000Y214000*
X396000Y210000*
X400000Y206000*
Y210000D02*
Y214000D01*
Y196000D02*
X404000Y200000D01*
X400000Y204000*
X396000Y200000*
X400000Y196000*
Y200000D02*
Y204000D01*
Y186000D02*
X404000Y190000D01*
X400000Y194000*
X396000Y190000*
X400000Y186000*
Y190000D02*
Y194000D01*
Y176000D02*
X404000Y180000D01*
X400000Y184000*
X396000Y180000*
X400000Y176000*
Y180000D02*
Y184000D01*
Y166000D02*
X404000Y170000D01*
X400000Y174000*
X396000Y170000*
X400000Y166000*
Y170000D02*
Y174000D01*
Y156000D02*
X404000Y160000D01*
X400000Y164000*
X396000Y160000*
X400000Y156000*
Y160000D02*
Y164000D01*
Y146000D02*
X404000Y150000D01*
X400000Y154000*
X396000Y150000*
X400000Y146000*
Y150000D02*
Y154000D01*
Y136000D02*
X404000Y140000D01*
X400000Y144000*
X396000Y140000*
X400000Y136000*
Y140000D02*
Y144000D01*
X390000Y446000D02*
X394000Y450000D01*
X390000Y454000*
X386000Y450000*
X390000Y446000*
Y450000D02*
Y454000D01*
Y436000D02*
X394000Y440000D01*
X390000Y444000*
X386000Y440000*
X390000Y436000*
Y440000D02*
Y444000D01*
Y426000D02*
X394000Y430000D01*
X390000Y434000*
X386000Y430000*
X390000Y426000*
Y430000D02*
Y434000D01*
Y416000D02*
X394000Y420000D01*
X390000Y424000*
X386000Y420000*
X390000Y416000*
Y420000D02*
Y424000D01*
Y406000D02*
X394000Y410000D01*
X390000Y414000*
X386000Y410000*
X390000Y406000*
Y410000D02*
Y414000D01*
Y396000D02*
X394000Y400000D01*
X390000Y404000*
X386000Y400000*
X390000Y396000*
Y400000D02*
Y404000D01*
Y386000D02*
X394000Y390000D01*
X390000Y394000*
X386000Y390000*
X390000Y386000*
Y390000D02*
Y394000D01*
Y376000D02*
X394000Y380000D01*
X390000Y384000*
X386000Y380000*
X390000Y376000*
Y380000D02*
Y384000D01*
Y366000D02*
X394000Y370000D01*
X390000Y374000*
X386000Y370000*
X390000Y366000*
Y370000D02*
Y374000D01*
Y356000D02*
X394000Y360000D01*
X390000Y364000*
X386000Y360000*
X390000Y356000*
Y360000D02*
Y364000D01*
Y346000D02*
X394000Y350000D01*
X390000Y354000*
X386000Y350000*
X390000Y346000*
Y350000D02*
Y354000D01*
Y336000D02*
X394000Y340000D01*
X390000Y344000*
X386000Y340000*
X390000Y336000*
Y340000D02*
Y344000D01*
Y326000D02*
X394000Y330000D01*
X390000Y334000*
X386000Y330000*
X390000Y326000*
Y330000D02*
Y334000D01*
Y316000D02*
X394000Y320000D01*
X390000Y324000*
X386000Y320000*
X390000Y316000*
Y320000D02*
Y324000D01*
Y306000D02*
X394000Y310000D01*
X390000Y314000*
X386000Y310000*
X390000Y306000*
Y310000D02*
Y314000D01*
Y296000D02*
X394000Y300000D01*
X390000Y304000*
X386000Y300000*
X390000Y296000*
Y300000D02*
Y304000D01*
Y286000D02*
X394000Y290000D01*
X390000Y294000*
X386000Y290000*
X390000Y286000*
Y290000D02*
Y294000D01*
Y276000D02*
X394000Y280000D01*
X390000Y284000*
X386000Y280000*
X390000Y276000*
Y280000D02*
Y284000D01*
Y266000D02*
X394000Y270000D01*
X390000Y274000*
X386000Y270000*
X390000Y266000*
Y270000D02*
Y274000D01*
Y256000D02*
X394000Y260000D01*
X390000Y264000*
X386000Y260000*
X390000Y256000*
Y260000D02*
Y264000D01*
Y246000D02*
X394000Y250000D01*
X390000Y254000*
X386000Y250000*
X390000Y246000*
Y250000D02*
Y254000D01*
Y236000D02*
X394000Y240000D01*
X390000Y244000*
X386000Y240000*
X390000Y236000*
Y240000D02*
Y244000D01*
Y226000D02*
X394000Y230000D01*
X390000Y234000*
X386000Y230000*
X390000Y226000*
Y230000D02*
Y234000D01*
Y216000D02*
X394000Y220000D01*
X390000Y224000*
X386000Y220000*
X390000Y216000*
Y220000D02*
Y224000D01*
Y206000D02*
X394000Y210000D01*
X390000Y214000*
X386000Y210000*
X390000Y206000*
Y210000D02*
Y214000D01*
Y196000D02*
X394000Y200000D01*
X390000Y204000*
X386000Y200000*
X390000Y196000*
Y200000D02*
Y204000D01*
Y186000D02*
X394000Y190000D01*
X390000Y194000*
X386000Y190000*
X390000Y186000*
Y190000D02*
Y194000D01*
Y176000D02*
X394000Y180000D01*
X390000Y184000*
X386000Y180000*
X390000Y176000*
Y180000D02*
Y184000D01*
Y166000D02*
X394000Y170000D01*
X390000Y174000*
X386000Y170000*
X390000Y166000*
Y170000D02*
Y174000D01*
Y156000D02*
X394000Y160000D01*
X390000Y164000*
X386000Y160000*
X390000Y156000*
Y160000D02*
Y164000D01*
Y146000D02*
X394000Y150000D01*
X390000Y154000*
X386000Y150000*
X390000Y146000*
Y150000D02*
Y154000D01*
Y136000D02*
X394000Y140000D01*
X390000Y144000*
X386000Y140000*
X390000Y136000*
Y140000D02*
Y144000D01*
X380000Y446000D02*
X384000Y450000D01*
X380000Y454000*
X376000Y450000*
X380000Y446000*
Y450000D02*
Y454000D01*
Y436000D02*
X384000Y440000D01*
X380000Y444000*
X376000Y440000*
X380000Y436000*
Y440000D02*
Y444000D01*
Y426000D02*
X384000Y430000D01*
X380000Y434000*
X376000Y430000*
X380000Y426000*
Y430000D02*
Y434000D01*
Y416000D02*
X384000Y420000D01*
X380000Y424000*
X376000Y420000*
X380000Y416000*
Y420000D02*
Y424000D01*
Y406000D02*
X384000Y410000D01*
X380000Y414000*
X376000Y410000*
X380000Y406000*
Y410000D02*
Y414000D01*
Y396000D02*
X384000Y400000D01*
X380000Y404000*
X376000Y400000*
X380000Y396000*
Y400000D02*
Y404000D01*
Y386000D02*
X384000Y390000D01*
X380000Y394000*
X376000Y390000*
X380000Y386000*
Y390000D02*
Y394000D01*
Y376000D02*
X384000Y380000D01*
X380000Y384000*
X376000Y380000*
X380000Y376000*
Y380000D02*
Y384000D01*
Y366000D02*
X384000Y370000D01*
X380000Y374000*
X376000Y370000*
X380000Y366000*
Y370000D02*
Y374000D01*
Y356000D02*
X384000Y360000D01*
X380000Y364000*
X376000Y360000*
X380000Y356000*
Y360000D02*
Y364000D01*
Y346000D02*
X384000Y350000D01*
X380000Y354000*
X376000Y350000*
X380000Y346000*
Y350000D02*
Y354000D01*
Y336000D02*
X384000Y340000D01*
X380000Y344000*
X376000Y340000*
X380000Y336000*
Y340000D02*
Y344000D01*
Y326000D02*
X384000Y330000D01*
X380000Y334000*
X376000Y330000*
X380000Y326000*
Y330000D02*
Y334000D01*
Y316000D02*
X384000Y320000D01*
X380000Y324000*
X376000Y320000*
X380000Y316000*
Y320000D02*
Y324000D01*
Y306000D02*
X384000Y310000D01*
X380000Y314000*
X376000Y310000*
X380000Y306000*
Y310000D02*
Y314000D01*
Y296000D02*
X384000Y300000D01*
X380000Y304000*
X376000Y300000*
X380000Y296000*
Y300000D02*
Y304000D01*
Y286000D02*
X384000Y290000D01*
X380000Y294000*
X376000Y290000*
X380000Y286000*
Y290000D02*
Y294000D01*
Y276000D02*
X384000Y280000D01*
X380000Y284000*
X376000Y280000*
X380000Y276000*
Y280000D02*
Y284000D01*
Y266000D02*
X384000Y270000D01*
X380000Y274000*
X376000Y270000*
X380000Y266000*
Y270000D02*
Y274000D01*
Y256000D02*
X384000Y260000D01*
X380000Y264000*
X376000Y260000*
X380000Y256000*
Y260000D02*
Y264000D01*
Y246000D02*
X384000Y250000D01*
X380000Y254000*
X376000Y250000*
X380000Y246000*
Y250000D02*
Y254000D01*
Y236000D02*
X384000Y240000D01*
X380000Y244000*
X376000Y240000*
X380000Y236000*
Y240000D02*
Y244000D01*
Y226000D02*
X384000Y230000D01*
X380000Y234000*
X376000Y230000*
X380000Y226000*
Y230000D02*
Y234000D01*
Y216000D02*
X384000Y220000D01*
X380000Y224000*
X376000Y220000*
X380000Y216000*
Y220000D02*
Y224000D01*
Y206000D02*
X384000Y210000D01*
X380000Y214000*
X376000Y210000*
X380000Y206000*
Y210000D02*
Y214000D01*
Y196000D02*
X384000Y200000D01*
X380000Y204000*
X376000Y200000*
X380000Y196000*
Y200000D02*
Y204000D01*
Y186000D02*
X384000Y190000D01*
X380000Y194000*
X376000Y190000*
X380000Y186000*
Y190000D02*
Y194000D01*
Y176000D02*
X384000Y180000D01*
X380000Y184000*
X376000Y180000*
X380000Y176000*
Y180000D02*
Y184000D01*
Y166000D02*
X384000Y170000D01*
X380000Y174000*
X376000Y170000*
X380000Y166000*
Y170000D02*
Y174000D01*
Y156000D02*
X384000Y160000D01*
X380000Y164000*
X376000Y160000*
X380000Y156000*
Y160000D02*
Y164000D01*
Y146000D02*
X384000Y150000D01*
X380000Y154000*
X376000Y150000*
X380000Y146000*
Y150000D02*
Y154000D01*
Y136000D02*
X384000Y140000D01*
X380000Y144000*
X376000Y140000*
X380000Y136000*
Y140000D02*
Y144000D01*
X386000Y470000D02*
X394000D01*
X390000Y466000D02*
Y474000D01*
X386000Y120000D02*
X394000D01*
X390000Y116000D02*
Y124000D01*
X356000Y446000D02*
X364000D01*
Y454000*
X356000*
Y446000*
X360000Y450000D02*
Y454000D01*
X356000Y436000D02*
X364000D01*
Y444000*
X356000*
Y436000*
X360000Y440000D02*
Y444000D01*
X356000Y426000D02*
X364000D01*
Y434000*
X356000*
Y426000*
X360000Y430000D02*
Y434000D01*
X356000Y416000D02*
X364000D01*
Y424000*
X356000*
Y416000*
X360000Y420000D02*
Y424000D01*
X356000Y406000D02*
X364000D01*
Y414000*
X356000*
Y406000*
X360000Y410000D02*
Y414000D01*
X356000Y396000D02*
X364000D01*
Y404000*
X356000*
Y396000*
X360000Y400000D02*
Y404000D01*
X356000Y386000D02*
X364000D01*
Y394000*
X356000*
Y386000*
X360000Y390000D02*
Y394000D01*
X356000Y376000D02*
X364000D01*
Y384000*
X356000*
Y376000*
X360000Y380000D02*
Y384000D01*
X356000Y366000D02*
X364000D01*
Y374000*
X356000*
Y366000*
X360000Y370000D02*
Y374000D01*
X356000Y356000D02*
X364000D01*
Y364000*
X356000*
Y356000*
X360000Y360000D02*
Y364000D01*
X356000Y346000D02*
X364000D01*
Y354000*
X356000*
Y346000*
X360000Y350000D02*
Y354000D01*
X356000Y336000D02*
X364000D01*
Y344000*
X356000*
Y336000*
X360000Y340000D02*
Y344000D01*
X356000Y326000D02*
X364000D01*
Y334000*
X356000*
Y326000*
X360000Y330000D02*
Y334000D01*
X356000Y316000D02*
X364000D01*
Y324000*
X356000*
Y316000*
X360000Y320000D02*
Y324000D01*
X356000Y306000D02*
X364000D01*
Y314000*
X356000*
Y306000*
X360000Y310000D02*
Y314000D01*
X356000Y296000D02*
X364000D01*
Y304000*
X356000*
Y296000*
X360000Y300000D02*
Y304000D01*
X356000Y286000D02*
X364000D01*
Y294000*
X356000*
Y286000*
X360000Y290000D02*
Y294000D01*
X356000Y276000D02*
X364000D01*
Y284000*
X356000*
Y276000*
X360000Y280000D02*
Y284000D01*
X356000Y266000D02*
X364000D01*
Y274000*
X356000*
Y266000*
X360000Y270000D02*
Y274000D01*
X356000Y256000D02*
X364000D01*
Y264000*
X356000*
Y256000*
X360000Y260000D02*
Y264000D01*
X356000Y246000D02*
X364000D01*
Y254000*
X356000*
Y246000*
X360000Y250000D02*
Y254000D01*
X356000Y236000D02*
X364000D01*
Y244000*
X356000*
Y236000*
X360000Y240000D02*
Y244000D01*
X356000Y226000D02*
X364000D01*
Y234000*
X356000*
Y226000*
X360000Y230000D02*
Y234000D01*
X356000Y216000D02*
X364000D01*
Y224000*
X356000*
Y216000*
X360000Y220000D02*
Y224000D01*
X356000Y206000D02*
X364000D01*
Y214000*
X356000*
Y206000*
X360000Y210000D02*
Y214000D01*
X356000Y196000D02*
X364000D01*
Y204000*
X356000*
Y196000*
X360000Y200000D02*
Y204000D01*
X356000Y186000D02*
X364000D01*
Y194000*
X356000*
Y186000*
X360000Y190000D02*
Y194000D01*
X356000Y176000D02*
X364000D01*
Y184000*
X356000*
Y176000*
X360000Y180000D02*
Y184000D01*
X356000Y166000D02*
X364000D01*
Y174000*
X356000*
Y166000*
X360000Y170000D02*
Y174000D01*
X356000Y156000D02*
X364000D01*
Y164000*
X356000*
Y156000*
X360000Y160000D02*
Y164000D01*
X356000Y146000D02*
X364000D01*
Y154000*
X356000*
Y146000*
X360000Y150000D02*
Y154000D01*
X356000Y136000D02*
X364000D01*
Y144000*
X356000*
Y136000*
X360000Y140000D02*
Y144000D01*
X416000Y446000D02*
X424000D01*
Y454000*
X416000*
Y446000*
X420000Y450000D02*
Y454000D01*
X416000Y436000D02*
X424000D01*
Y444000*
X416000*
Y436000*
X420000Y440000D02*
Y444000D01*
X416000Y426000D02*
X424000D01*
Y434000*
X416000*
Y426000*
X420000Y430000D02*
Y434000D01*
X416000Y416000D02*
X424000D01*
Y424000*
X416000*
Y416000*
X420000Y420000D02*
Y424000D01*
X416000Y406000D02*
X424000D01*
Y414000*
X416000*
Y406000*
X420000Y410000D02*
Y414000D01*
X416000Y396000D02*
X424000D01*
Y404000*
X416000*
Y396000*
X420000Y400000D02*
Y404000D01*
X416000Y386000D02*
X424000D01*
Y394000*
X416000*
Y386000*
X420000Y390000D02*
Y394000D01*
X416000Y376000D02*
X424000D01*
Y384000*
X416000*
Y376000*
X420000Y380000D02*
Y384000D01*
X416000Y366000D02*
X424000D01*
Y374000*
X416000*
Y366000*
X420000Y370000D02*
Y374000D01*
X416000Y356000D02*
X424000D01*
Y364000*
X416000*
Y356000*
X420000Y360000D02*
Y364000D01*
X416000Y346000D02*
X424000D01*
Y354000*
X416000*
Y346000*
X420000Y350000D02*
Y354000D01*
X416000Y336000D02*
X424000D01*
Y344000*
X416000*
Y336000*
X420000Y340000D02*
Y344000D01*
X416000Y326000D02*
X424000D01*
Y334000*
X416000*
Y326000*
X420000Y330000D02*
Y334000D01*
X416000Y316000D02*
X424000D01*
Y324000*
X416000*
Y316000*
X420000Y320000D02*
Y324000D01*
X416000Y306000D02*
X424000D01*
Y314000*
X416000*
Y306000*
X420000Y310000D02*
Y314000D01*
X416000Y296000D02*
X424000D01*
Y304000*
X416000*
Y296000*
X420000Y300000D02*
Y304000D01*
X416000Y286000D02*
X424000D01*
Y294000*
X416000*
Y286000*
X420000Y290000D02*
Y294000D01*
X416000Y276000D02*
X424000D01*
Y284000*
X416000*
Y276000*
X420000Y280000D02*
Y284000D01*
X416000Y266000D02*
X424000D01*
Y274000*
X416000*
Y266000*
X420000Y270000D02*
Y274000D01*
X416000Y256000D02*
X424000D01*
Y264000*
X416000*
Y256000*
X420000Y260000D02*
Y264000D01*
X416000Y246000D02*
X424000D01*
Y254000*
X416000*
Y246000*
X420000Y250000D02*
Y254000D01*
X416000Y236000D02*
X424000D01*
Y244000*
X416000*
Y236000*
X420000Y240000D02*
Y244000D01*
X416000Y226000D02*
X424000D01*
Y234000*
X416000*
Y226000*
X420000Y230000D02*
Y234000D01*
X416000Y216000D02*
X424000D01*
Y224000*
X416000*
Y216000*
X420000Y220000D02*
Y224000D01*
X416000Y206000D02*
X424000D01*
Y214000*
X416000*
Y206000*
X420000Y210000D02*
Y214000D01*
X416000Y196000D02*
X424000D01*
Y204000*
X416000*
Y196000*
X420000Y200000D02*
Y204000D01*
X416000Y186000D02*
X424000D01*
Y194000*
X416000*
Y186000*
X420000Y190000D02*
Y194000D01*
X416000Y176000D02*
X424000D01*
Y184000*
X416000*
Y176000*
X420000Y180000D02*
Y184000D01*
X416000Y166000D02*
X424000D01*
Y174000*
X416000*
Y166000*
X420000Y170000D02*
Y174000D01*
X416000Y156000D02*
X424000D01*
Y164000*
X416000*
Y156000*
X420000Y160000D02*
Y164000D01*
X416000Y146000D02*
X424000D01*
Y154000*
X416000*
Y146000*
X420000Y150000D02*
Y154000D01*
X416000Y136000D02*
X424000D01*
Y144000*
X416000*
Y136000*
X420000Y140000D02*
Y144000D01*
X480000Y446000D02*
X484000Y450000D01*
X480000Y454000*
X476000Y450000*
X480000Y446000*
Y450000D02*
Y454000D01*
Y436000D02*
X484000Y440000D01*
X480000Y444000*
X476000Y440000*
X480000Y436000*
Y440000D02*
Y444000D01*
Y426000D02*
X484000Y430000D01*
X480000Y434000*
X476000Y430000*
X480000Y426000*
Y430000D02*
Y434000D01*
Y416000D02*
X484000Y420000D01*
X480000Y424000*
X476000Y420000*
X480000Y416000*
Y420000D02*
Y424000D01*
Y406000D02*
X484000Y410000D01*
X480000Y414000*
X476000Y410000*
X480000Y406000*
Y410000D02*
Y414000D01*
Y396000D02*
X484000Y400000D01*
X480000Y404000*
X476000Y400000*
X480000Y396000*
Y400000D02*
Y404000D01*
Y386000D02*
X484000Y390000D01*
X480000Y394000*
X476000Y390000*
X480000Y386000*
Y390000D02*
Y394000D01*
Y376000D02*
X484000Y380000D01*
X480000Y384000*
X476000Y380000*
X480000Y376000*
Y380000D02*
Y384000D01*
Y366000D02*
X484000Y370000D01*
X480000Y374000*
X476000Y370000*
X480000Y366000*
Y370000D02*
Y374000D01*
Y356000D02*
X484000Y360000D01*
X480000Y364000*
X476000Y360000*
X480000Y356000*
Y360000D02*
Y364000D01*
Y346000D02*
X484000Y350000D01*
X480000Y354000*
X476000Y350000*
X480000Y346000*
Y350000D02*
Y354000D01*
Y336000D02*
X484000Y340000D01*
X480000Y344000*
X476000Y340000*
X480000Y336000*
Y340000D02*
Y344000D01*
Y326000D02*
X484000Y330000D01*
X480000Y334000*
X476000Y330000*
X480000Y326000*
Y330000D02*
Y334000D01*
Y316000D02*
X484000Y320000D01*
X480000Y324000*
X476000Y320000*
X480000Y316000*
Y320000D02*
Y324000D01*
Y306000D02*
X484000Y310000D01*
X480000Y314000*
X476000Y310000*
X480000Y306000*
Y310000D02*
Y314000D01*
Y296000D02*
X484000Y300000D01*
X480000Y304000*
X476000Y300000*
X480000Y296000*
Y300000D02*
Y304000D01*
Y286000D02*
X484000Y290000D01*
X480000Y294000*
X476000Y290000*
X480000Y286000*
Y290000D02*
Y294000D01*
Y276000D02*
X484000Y280000D01*
X480000Y284000*
X476000Y280000*
X480000Y276000*
Y280000D02*
Y284000D01*
Y266000D02*
X484000Y270000D01*
X480000Y274000*
X476000Y270000*
X480000Y266000*
Y270000D02*
Y274000D01*
Y256000D02*
X484000Y260000D01*
X480000Y264000*
X476000Y260000*
X480000Y256000*
Y260000D02*
Y264000D01*
Y246000D02*
X484000Y250000D01*
X480000Y254000*
X476000Y250000*
X480000Y246000*
Y250000D02*
Y254000D01*
Y236000D02*
X484000Y240000D01*
X480000Y244000*
X476000Y240000*
X480000Y236000*
Y240000D02*
Y244000D01*
Y226000D02*
X484000Y230000D01*
X480000Y234000*
X476000Y230000*
X480000Y226000*
Y230000D02*
Y234000D01*
Y216000D02*
X484000Y220000D01*
X480000Y224000*
X476000Y220000*
X480000Y216000*
Y220000D02*
Y224000D01*
Y206000D02*
X484000Y210000D01*
X480000Y214000*
X476000Y210000*
X480000Y206000*
Y210000D02*
Y214000D01*
Y196000D02*
X484000Y200000D01*
X480000Y204000*
X476000Y200000*
X480000Y196000*
Y200000D02*
Y204000D01*
Y186000D02*
X484000Y190000D01*
X480000Y194000*
X476000Y190000*
X480000Y186000*
Y190000D02*
Y194000D01*
Y176000D02*
X484000Y180000D01*
X480000Y184000*
X476000Y180000*
X480000Y176000*
Y180000D02*
Y184000D01*
Y166000D02*
X484000Y170000D01*
X480000Y174000*
X476000Y170000*
X480000Y166000*
Y170000D02*
Y174000D01*
Y156000D02*
X484000Y160000D01*
X480000Y164000*
X476000Y160000*
X480000Y156000*
Y160000D02*
Y164000D01*
Y146000D02*
X484000Y150000D01*
X480000Y154000*
X476000Y150000*
X480000Y146000*
Y150000D02*
Y154000D01*
Y136000D02*
X484000Y140000D01*
X480000Y144000*
X476000Y140000*
X480000Y136000*
Y140000D02*
Y144000D01*
X470000Y446000D02*
X474000Y450000D01*
X470000Y454000*
X466000Y450000*
X470000Y446000*
Y450000D02*
Y454000D01*
Y436000D02*
X474000Y440000D01*
X470000Y444000*
X466000Y440000*
X470000Y436000*
Y440000D02*
Y444000D01*
Y426000D02*
X474000Y430000D01*
X470000Y434000*
X466000Y430000*
X470000Y426000*
Y430000D02*
Y434000D01*
Y416000D02*
X474000Y420000D01*
X470000Y424000*
X466000Y420000*
X470000Y416000*
Y420000D02*
Y424000D01*
Y406000D02*
X474000Y410000D01*
X470000Y414000*
X466000Y410000*
X470000Y406000*
Y410000D02*
Y414000D01*
Y396000D02*
X474000Y400000D01*
X470000Y404000*
X466000Y400000*
X470000Y396000*
Y400000D02*
Y404000D01*
Y386000D02*
X474000Y390000D01*
X470000Y394000*
X466000Y390000*
X470000Y386000*
Y390000D02*
Y394000D01*
Y376000D02*
X474000Y380000D01*
X470000Y384000*
X466000Y380000*
X470000Y376000*
Y380000D02*
Y384000D01*
Y366000D02*
X474000Y370000D01*
X470000Y374000*
X466000Y370000*
X470000Y366000*
Y370000D02*
Y374000D01*
Y356000D02*
X474000Y360000D01*
X470000Y364000*
X466000Y360000*
X470000Y356000*
Y360000D02*
Y364000D01*
Y346000D02*
X474000Y350000D01*
X470000Y354000*
X466000Y350000*
X470000Y346000*
Y350000D02*
Y354000D01*
Y336000D02*
X474000Y340000D01*
X470000Y344000*
X466000Y340000*
X470000Y336000*
Y340000D02*
Y344000D01*
Y326000D02*
X474000Y330000D01*
X470000Y334000*
X466000Y330000*
X470000Y326000*
Y330000D02*
Y334000D01*
Y316000D02*
X474000Y320000D01*
X470000Y324000*
X466000Y320000*
X470000Y316000*
Y320000D02*
Y324000D01*
Y306000D02*
X474000Y310000D01*
X470000Y314000*
X466000Y310000*
X470000Y306000*
Y310000D02*
Y314000D01*
Y296000D02*
X474000Y300000D01*
X470000Y304000*
X466000Y300000*
X470000Y296000*
Y300000D02*
Y304000D01*
Y286000D02*
X474000Y290000D01*
X470000Y294000*
X466000Y290000*
X470000Y286000*
Y290000D02*
Y294000D01*
Y276000D02*
X474000Y280000D01*
X470000Y284000*
X466000Y280000*
X470000Y276000*
Y280000D02*
Y284000D01*
Y266000D02*
X474000Y270000D01*
X470000Y274000*
X466000Y270000*
X470000Y266000*
Y270000D02*
Y274000D01*
Y256000D02*
X474000Y260000D01*
X470000Y264000*
X466000Y260000*
X470000Y256000*
Y260000D02*
Y264000D01*
Y246000D02*
X474000Y250000D01*
X470000Y254000*
X466000Y250000*
X470000Y246000*
Y250000D02*
Y254000D01*
Y236000D02*
X474000Y240000D01*
X470000Y244000*
X466000Y240000*
X470000Y236000*
Y240000D02*
Y244000D01*
Y226000D02*
X474000Y230000D01*
X470000Y234000*
X466000Y230000*
X470000Y226000*
Y230000D02*
Y234000D01*
Y216000D02*
X474000Y220000D01*
X470000Y224000*
X466000Y220000*
X470000Y216000*
Y220000D02*
Y224000D01*
Y206000D02*
X474000Y210000D01*
X470000Y214000*
X466000Y210000*
X470000Y206000*
Y210000D02*
Y214000D01*
Y196000D02*
X474000Y200000D01*
X470000Y204000*
X466000Y200000*
X470000Y196000*
Y200000D02*
Y204000D01*
Y186000D02*
X474000Y190000D01*
X470000Y194000*
X466000Y190000*
X470000Y186000*
Y190000D02*
Y194000D01*
Y176000D02*
X474000Y180000D01*
X470000Y184000*
X466000Y180000*
X470000Y176000*
Y180000D02*
Y184000D01*
Y166000D02*
X474000Y170000D01*
X470000Y174000*
X466000Y170000*
X470000Y166000*
Y170000D02*
Y174000D01*
Y156000D02*
X474000Y160000D01*
X470000Y164000*
X466000Y160000*
X470000Y156000*
Y160000D02*
Y164000D01*
Y146000D02*
X474000Y150000D01*
X470000Y154000*
X466000Y150000*
X470000Y146000*
Y150000D02*
Y154000D01*
Y136000D02*
X474000Y140000D01*
X470000Y144000*
X466000Y140000*
X470000Y136000*
Y140000D02*
Y144000D01*
X460000Y446000D02*
X464000Y450000D01*
X460000Y454000*
X456000Y450000*
X460000Y446000*
Y450000D02*
Y454000D01*
Y436000D02*
X464000Y440000D01*
X460000Y444000*
X456000Y440000*
X460000Y436000*
Y440000D02*
Y444000D01*
Y426000D02*
X464000Y430000D01*
X460000Y434000*
X456000Y430000*
X460000Y426000*
Y430000D02*
Y434000D01*
Y416000D02*
X464000Y420000D01*
X460000Y424000*
X456000Y420000*
X460000Y416000*
Y420000D02*
Y424000D01*
Y406000D02*
X464000Y410000D01*
X460000Y414000*
X456000Y410000*
X460000Y406000*
Y410000D02*
Y414000D01*
Y396000D02*
X464000Y400000D01*
X460000Y404000*
X456000Y400000*
X460000Y396000*
Y400000D02*
Y404000D01*
Y386000D02*
X464000Y390000D01*
X460000Y394000*
X456000Y390000*
X460000Y386000*
Y390000D02*
Y394000D01*
Y376000D02*
X464000Y380000D01*
X460000Y384000*
X456000Y380000*
X460000Y376000*
Y380000D02*
Y384000D01*
Y366000D02*
X464000Y370000D01*
X460000Y374000*
X456000Y370000*
X460000Y366000*
Y370000D02*
Y374000D01*
Y356000D02*
X464000Y360000D01*
X460000Y364000*
X456000Y360000*
X460000Y356000*
Y360000D02*
Y364000D01*
Y346000D02*
X464000Y350000D01*
X460000Y354000*
X456000Y350000*
X460000Y346000*
Y350000D02*
Y354000D01*
Y336000D02*
X464000Y340000D01*
X460000Y344000*
X456000Y340000*
X460000Y336000*
Y340000D02*
Y344000D01*
Y326000D02*
X464000Y330000D01*
X460000Y334000*
X456000Y330000*
X460000Y326000*
Y330000D02*
Y334000D01*
Y316000D02*
X464000Y320000D01*
X460000Y324000*
X456000Y320000*
X460000Y316000*
Y320000D02*
Y324000D01*
Y306000D02*
X464000Y310000D01*
X460000Y314000*
X456000Y310000*
X460000Y306000*
Y310000D02*
Y314000D01*
Y296000D02*
X464000Y300000D01*
X460000Y304000*
X456000Y300000*
X460000Y296000*
Y300000D02*
Y304000D01*
Y286000D02*
X464000Y290000D01*
X460000Y294000*
X456000Y290000*
X460000Y286000*
Y290000D02*
Y294000D01*
Y276000D02*
X464000Y280000D01*
X460000Y284000*
X456000Y280000*
X460000Y276000*
Y280000D02*
Y284000D01*
Y266000D02*
X464000Y270000D01*
X460000Y274000*
X456000Y270000*
X460000Y266000*
Y270000D02*
Y274000D01*
Y256000D02*
X464000Y260000D01*
X460000Y264000*
X456000Y260000*
X460000Y256000*
Y260000D02*
Y264000D01*
Y246000D02*
X464000Y250000D01*
X460000Y254000*
X456000Y250000*
X460000Y246000*
Y250000D02*
Y254000D01*
Y236000D02*
X464000Y240000D01*
X460000Y244000*
X456000Y240000*
X460000Y236000*
Y240000D02*
Y244000D01*
Y226000D02*
X464000Y230000D01*
X460000Y234000*
X456000Y230000*
X460000Y226000*
Y230000D02*
Y234000D01*
Y216000D02*
X464000Y220000D01*
X460000Y224000*
X456000Y220000*
X460000Y216000*
Y220000D02*
Y224000D01*
Y206000D02*
X464000Y210000D01*
X460000Y214000*
X456000Y210000*
X460000Y206000*
Y210000D02*
Y214000D01*
Y196000D02*
X464000Y200000D01*
X460000Y204000*
X456000Y200000*
X460000Y196000*
Y200000D02*
Y204000D01*
Y186000D02*
X464000Y190000D01*
X460000Y194000*
X456000Y190000*
X460000Y186000*
Y190000D02*
Y194000D01*
Y176000D02*
X464000Y180000D01*
X460000Y184000*
X456000Y180000*
X460000Y176000*
Y180000D02*
Y184000D01*
Y166000D02*
X464000Y170000D01*
X460000Y174000*
X456000Y170000*
X460000Y166000*
Y170000D02*
Y174000D01*
Y156000D02*
X464000Y160000D01*
X460000Y164000*
X456000Y160000*
X460000Y156000*
Y160000D02*
Y164000D01*
Y146000D02*
X464000Y150000D01*
X460000Y154000*
X456000Y150000*
X460000Y146000*
Y150000D02*
Y154000D01*
Y136000D02*
X464000Y140000D01*
X460000Y144000*
X456000Y140000*
X460000Y136000*
Y140000D02*
Y144000D01*
X466000Y470000D02*
X474000D01*
X470000Y466000D02*
Y474000D01*
X466000Y120000D02*
X474000D01*
X470000Y116000D02*
Y124000D01*
X436000Y446000D02*
X444000D01*
Y454000*
X436000*
Y446000*
X440000Y450000D02*
Y454000D01*
X436000Y436000D02*
X444000D01*
Y444000*
X436000*
Y436000*
X440000Y440000D02*
Y444000D01*
X436000Y426000D02*
X444000D01*
Y434000*
X436000*
Y426000*
X440000Y430000D02*
Y434000D01*
X436000Y416000D02*
X444000D01*
Y424000*
X436000*
Y416000*
X440000Y420000D02*
Y424000D01*
X436000Y406000D02*
X444000D01*
Y414000*
X436000*
Y406000*
X440000Y410000D02*
Y414000D01*
X436000Y396000D02*
X444000D01*
Y404000*
X436000*
Y396000*
X440000Y400000D02*
Y404000D01*
X436000Y386000D02*
X444000D01*
Y394000*
X436000*
Y386000*
X440000Y390000D02*
Y394000D01*
X436000Y376000D02*
X444000D01*
Y384000*
X436000*
Y376000*
X440000Y380000D02*
Y384000D01*
X436000Y366000D02*
X444000D01*
Y374000*
X436000*
Y366000*
X440000Y370000D02*
Y374000D01*
X436000Y356000D02*
X444000D01*
Y364000*
X436000*
Y356000*
X440000Y360000D02*
Y364000D01*
X436000Y346000D02*
X444000D01*
Y354000*
X436000*
Y346000*
X440000Y350000D02*
Y354000D01*
X436000Y336000D02*
X444000D01*
Y344000*
X436000*
Y336000*
X440000Y340000D02*
Y344000D01*
X436000Y326000D02*
X444000D01*
Y334000*
X436000*
Y326000*
X440000Y330000D02*
Y334000D01*
X436000Y316000D02*
X444000D01*
Y324000*
X436000*
Y316000*
X440000Y320000D02*
Y324000D01*
X436000Y306000D02*
X444000D01*
Y314000*
X436000*
Y306000*
X440000Y310000D02*
Y314000D01*
X436000Y296000D02*
X444000D01*
Y304000*
X436000*
Y296000*
X440000Y300000D02*
Y304000D01*
X436000Y286000D02*
X444000D01*
Y294000*
X436000*
Y286000*
X440000Y290000D02*
Y294000D01*
X436000Y276000D02*
X444000D01*
Y284000*
X436000*
Y276000*
X440000Y280000D02*
Y284000D01*
X436000Y266000D02*
X444000D01*
Y274000*
X436000*
Y266000*
X440000Y270000D02*
Y274000D01*
X436000Y256000D02*
X444000D01*
Y264000*
X436000*
Y256000*
X440000Y260000D02*
Y264000D01*
X436000Y246000D02*
X444000D01*
Y254000*
X436000*
Y246000*
X440000Y250000D02*
Y254000D01*
X436000Y236000D02*
X444000D01*
Y244000*
X436000*
Y236000*
X440000Y240000D02*
Y244000D01*
X436000Y226000D02*
X444000D01*
Y234000*
X436000*
Y226000*
X440000Y230000D02*
Y234000D01*
X436000Y216000D02*
X444000D01*
Y224000*
X436000*
Y216000*
X440000Y220000D02*
Y224000D01*
X436000Y206000D02*
X444000D01*
Y214000*
X436000*
Y206000*
X440000Y210000D02*
Y214000D01*
X436000Y196000D02*
X444000D01*
Y204000*
X436000*
Y196000*
X440000Y200000D02*
Y204000D01*
X436000Y186000D02*
X444000D01*
Y194000*
X436000*
Y186000*
X440000Y190000D02*
Y194000D01*
X436000Y176000D02*
X444000D01*
Y184000*
X436000*
Y176000*
X440000Y180000D02*
Y184000D01*
X436000Y166000D02*
X444000D01*
Y174000*
X436000*
Y166000*
X440000Y170000D02*
Y174000D01*
X436000Y156000D02*
X444000D01*
Y164000*
X436000*
Y156000*
X440000Y160000D02*
Y164000D01*
X436000Y146000D02*
X444000D01*
Y154000*
X436000*
Y146000*
X440000Y150000D02*
Y154000D01*
X436000Y136000D02*
X444000D01*
Y144000*
X436000*
Y136000*
X440000Y140000D02*
Y144000D01*
X496000Y446000D02*
X504000D01*
Y454000*
X496000*
Y446000*
X500000Y450000D02*
Y454000D01*
X496000Y436000D02*
X504000D01*
Y444000*
X496000*
Y436000*
X500000Y440000D02*
Y444000D01*
X496000Y426000D02*
X504000D01*
Y434000*
X496000*
Y426000*
X500000Y430000D02*
Y434000D01*
X496000Y416000D02*
X504000D01*
Y424000*
X496000*
Y416000*
X500000Y420000D02*
Y424000D01*
X496000Y406000D02*
X504000D01*
Y414000*
X496000*
Y406000*
X500000Y410000D02*
Y414000D01*
X496000Y396000D02*
X504000D01*
Y404000*
X496000*
Y396000*
X500000Y400000D02*
Y404000D01*
X496000Y386000D02*
X504000D01*
Y394000*
X496000*
Y386000*
X500000Y390000D02*
Y394000D01*
X496000Y376000D02*
X504000D01*
Y384000*
X496000*
Y376000*
X500000Y380000D02*
Y384000D01*
X496000Y366000D02*
X504000D01*
Y374000*
X496000*
Y366000*
X500000Y370000D02*
Y374000D01*
X496000Y356000D02*
X504000D01*
Y364000*
X496000*
Y356000*
X500000Y360000D02*
Y364000D01*
X496000Y346000D02*
X504000D01*
Y354000*
X496000*
Y346000*
X500000Y350000D02*
Y354000D01*
X496000Y336000D02*
X504000D01*
Y344000*
X496000*
Y336000*
X500000Y340000D02*
Y344000D01*
X496000Y326000D02*
X504000D01*
Y334000*
X496000*
Y326000*
X500000Y330000D02*
Y334000D01*
X496000Y316000D02*
X504000D01*
Y324000*
X496000*
Y316000*
X500000Y320000D02*
Y324000D01*
X496000Y306000D02*
X504000D01*
Y314000*
X496000*
Y306000*
X500000Y310000D02*
Y314000D01*
X496000Y296000D02*
X504000D01*
Y304000*
X496000*
Y296000*
X500000Y300000D02*
Y304000D01*
X496000Y286000D02*
X504000D01*
Y294000*
X496000*
Y286000*
X500000Y290000D02*
Y294000D01*
X496000Y276000D02*
X504000D01*
Y284000*
X496000*
Y276000*
X500000Y280000D02*
Y284000D01*
X496000Y266000D02*
X504000D01*
Y274000*
X496000*
Y266000*
X500000Y270000D02*
Y274000D01*
X496000Y256000D02*
X504000D01*
Y264000*
X496000*
Y256000*
X500000Y260000D02*
Y264000D01*
X496000Y246000D02*
X504000D01*
Y254000*
X496000*
Y246000*
X500000Y250000D02*
Y254000D01*
X496000Y236000D02*
X504000D01*
Y244000*
X496000*
Y236000*
X500000Y240000D02*
Y244000D01*
X496000Y226000D02*
X504000D01*
Y234000*
X496000*
Y226000*
X500000Y230000D02*
Y234000D01*
X496000Y216000D02*
X504000D01*
Y224000*
X496000*
Y216000*
X500000Y220000D02*
Y224000D01*
X496000Y206000D02*
X504000D01*
Y214000*
X496000*
Y206000*
X500000Y210000D02*
Y214000D01*
X496000Y196000D02*
X504000D01*
Y204000*
X496000*
Y196000*
X500000Y200000D02*
Y204000D01*
X496000Y186000D02*
X504000D01*
Y194000*
X496000*
Y186000*
X500000Y190000D02*
Y194000D01*
X496000Y176000D02*
X504000D01*
Y184000*
X496000*
Y176000*
X500000Y180000D02*
Y184000D01*
X496000Y166000D02*
X504000D01*
Y174000*
X496000*
Y166000*
X500000Y170000D02*
Y174000D01*
X496000Y156000D02*
X504000D01*
Y164000*
X496000*
Y156000*
X500000Y160000D02*
Y164000D01*
X496000Y146000D02*
X504000D01*
Y154000*
X496000*
Y146000*
X500000Y150000D02*
Y154000D01*
X496000Y136000D02*
X504000D01*
Y144000*
X496000*
Y136000*
X500000Y140000D02*
Y144000D01*
X560000Y446000D02*
X564000Y450000D01*
X560000Y454000*
X556000Y450000*
X560000Y446000*
Y450000D02*
Y454000D01*
Y436000D02*
X564000Y440000D01*
X560000Y444000*
X556000Y440000*
X560000Y436000*
Y440000D02*
Y444000D01*
Y426000D02*
X564000Y430000D01*
X560000Y434000*
X556000Y430000*
X560000Y426000*
Y430000D02*
Y434000D01*
Y416000D02*
X564000Y420000D01*
X560000Y424000*
X556000Y420000*
X560000Y416000*
Y420000D02*
Y424000D01*
Y406000D02*
X564000Y410000D01*
X560000Y414000*
X556000Y410000*
X560000Y406000*
Y410000D02*
Y414000D01*
Y396000D02*
X564000Y400000D01*
X560000Y404000*
X556000Y400000*
X560000Y396000*
Y400000D02*
Y404000D01*
Y386000D02*
X564000Y390000D01*
X560000Y394000*
X556000Y390000*
X560000Y386000*
Y390000D02*
Y394000D01*
Y376000D02*
X564000Y380000D01*
X560000Y384000*
X556000Y380000*
X560000Y376000*
Y380000D02*
Y384000D01*
Y366000D02*
X564000Y370000D01*
X560000Y374000*
X556000Y370000*
X560000Y366000*
Y370000D02*
Y374000D01*
Y356000D02*
X564000Y360000D01*
X560000Y364000*
X556000Y360000*
X560000Y356000*
Y360000D02*
Y364000D01*
Y346000D02*
X564000Y350000D01*
X560000Y354000*
X556000Y350000*
X560000Y346000*
Y350000D02*
Y354000D01*
Y336000D02*
X564000Y340000D01*
X560000Y344000*
X556000Y340000*
X560000Y336000*
Y340000D02*
Y344000D01*
Y326000D02*
X564000Y330000D01*
X560000Y334000*
X556000Y330000*
X560000Y326000*
Y330000D02*
Y334000D01*
Y316000D02*
X564000Y320000D01*
X560000Y324000*
X556000Y320000*
X560000Y316000*
Y320000D02*
Y324000D01*
Y306000D02*
X564000Y310000D01*
X560000Y314000*
X556000Y310000*
X560000Y306000*
Y310000D02*
Y314000D01*
Y296000D02*
X564000Y300000D01*
X560000Y304000*
X556000Y300000*
X560000Y296000*
Y300000D02*
Y304000D01*
Y286000D02*
X564000Y290000D01*
X560000Y294000*
X556000Y290000*
X560000Y286000*
Y290000D02*
Y294000D01*
Y276000D02*
X564000Y280000D01*
X560000Y284000*
X556000Y280000*
X560000Y276000*
Y280000D02*
Y284000D01*
Y266000D02*
X564000Y270000D01*
X560000Y274000*
X556000Y270000*
X560000Y266000*
Y270000D02*
Y274000D01*
Y256000D02*
X564000Y260000D01*
X560000Y264000*
X556000Y260000*
X560000Y256000*
Y260000D02*
Y264000D01*
Y246000D02*
X564000Y250000D01*
X560000Y254000*
X556000Y250000*
X560000Y246000*
Y250000D02*
Y254000D01*
Y236000D02*
X564000Y240000D01*
X560000Y244000*
X556000Y240000*
X560000Y236000*
Y240000D02*
Y244000D01*
Y226000D02*
X564000Y230000D01*
X560000Y234000*
X556000Y230000*
X560000Y226000*
Y230000D02*
Y234000D01*
Y216000D02*
X564000Y220000D01*
X560000Y224000*
X556000Y220000*
X560000Y216000*
Y220000D02*
Y224000D01*
Y206000D02*
X564000Y210000D01*
X560000Y214000*
X556000Y210000*
X560000Y206000*
Y210000D02*
Y214000D01*
Y196000D02*
X564000Y200000D01*
X560000Y204000*
X556000Y200000*
X560000Y196000*
Y200000D02*
Y204000D01*
Y186000D02*
X564000Y190000D01*
X560000Y194000*
X556000Y190000*
X560000Y186000*
Y190000D02*
Y194000D01*
Y176000D02*
X564000Y180000D01*
X560000Y184000*
X556000Y180000*
X560000Y176000*
Y180000D02*
Y184000D01*
Y166000D02*
X564000Y170000D01*
X560000Y174000*
X556000Y170000*
X560000Y166000*
Y170000D02*
Y174000D01*
Y156000D02*
X564000Y160000D01*
X560000Y164000*
X556000Y160000*
X560000Y156000*
Y160000D02*
Y164000D01*
Y146000D02*
X564000Y150000D01*
X560000Y154000*
X556000Y150000*
X560000Y146000*
Y150000D02*
Y154000D01*
Y136000D02*
X564000Y140000D01*
X560000Y144000*
X556000Y140000*
X560000Y136000*
Y140000D02*
Y144000D01*
X550000Y446000D02*
X554000Y450000D01*
X550000Y454000*
X546000Y450000*
X550000Y446000*
Y450000D02*
Y454000D01*
Y436000D02*
X554000Y440000D01*
X550000Y444000*
X546000Y440000*
X550000Y436000*
Y440000D02*
Y444000D01*
Y426000D02*
X554000Y430000D01*
X550000Y434000*
X546000Y430000*
X550000Y426000*
Y430000D02*
Y434000D01*
Y416000D02*
X554000Y420000D01*
X550000Y424000*
X546000Y420000*
X550000Y416000*
Y420000D02*
Y424000D01*
Y406000D02*
X554000Y410000D01*
X550000Y414000*
X546000Y410000*
X550000Y406000*
Y410000D02*
Y414000D01*
Y396000D02*
X554000Y400000D01*
X550000Y404000*
X546000Y400000*
X550000Y396000*
Y400000D02*
Y404000D01*
Y386000D02*
X554000Y390000D01*
X550000Y394000*
X546000Y390000*
X550000Y386000*
Y390000D02*
Y394000D01*
Y376000D02*
X554000Y380000D01*
X550000Y384000*
X546000Y380000*
X550000Y376000*
Y380000D02*
Y384000D01*
Y366000D02*
X554000Y370000D01*
X550000Y374000*
X546000Y370000*
X550000Y366000*
Y370000D02*
Y374000D01*
Y356000D02*
X554000Y360000D01*
X550000Y364000*
X546000Y360000*
X550000Y356000*
Y360000D02*
Y364000D01*
Y346000D02*
X554000Y350000D01*
X550000Y354000*
X546000Y350000*
X550000Y346000*
Y350000D02*
Y354000D01*
Y336000D02*
X554000Y340000D01*
X550000Y344000*
X546000Y340000*
X550000Y336000*
Y340000D02*
Y344000D01*
Y326000D02*
X554000Y330000D01*
X550000Y334000*
X546000Y330000*
X550000Y326000*
Y330000D02*
Y334000D01*
Y316000D02*
X554000Y320000D01*
X550000Y324000*
X546000Y320000*
X550000Y316000*
Y320000D02*
Y324000D01*
Y306000D02*
X554000Y310000D01*
X550000Y314000*
X546000Y310000*
X550000Y306000*
Y310000D02*
Y314000D01*
Y296000D02*
X554000Y300000D01*
X550000Y304000*
X546000Y300000*
X550000Y296000*
Y300000D02*
Y304000D01*
Y286000D02*
X554000Y290000D01*
X550000Y294000*
X546000Y290000*
X550000Y286000*
Y290000D02*
Y294000D01*
Y276000D02*
X554000Y280000D01*
X550000Y284000*
X546000Y280000*
X550000Y276000*
Y280000D02*
Y284000D01*
Y266000D02*
X554000Y270000D01*
X550000Y274000*
X546000Y270000*
X550000Y266000*
Y270000D02*
Y274000D01*
Y256000D02*
X554000Y260000D01*
X550000Y264000*
X546000Y260000*
X550000Y256000*
Y260000D02*
Y264000D01*
Y246000D02*
X554000Y250000D01*
X550000Y254000*
X546000Y250000*
X550000Y246000*
Y250000D02*
Y254000D01*
Y236000D02*
X554000Y240000D01*
X550000Y244000*
X546000Y240000*
X550000Y236000*
Y240000D02*
Y244000D01*
Y226000D02*
X554000Y230000D01*
X550000Y234000*
X546000Y230000*
X550000Y226000*
Y230000D02*
Y234000D01*
Y216000D02*
X554000Y220000D01*
X550000Y224000*
X546000Y220000*
X550000Y216000*
Y220000D02*
Y224000D01*
Y206000D02*
X554000Y210000D01*
X550000Y214000*
X546000Y210000*
X550000Y206000*
Y210000D02*
Y214000D01*
Y196000D02*
X554000Y200000D01*
X550000Y204000*
X546000Y200000*
X550000Y196000*
Y200000D02*
Y204000D01*
Y186000D02*
X554000Y190000D01*
X550000Y194000*
X546000Y190000*
X550000Y186000*
Y190000D02*
Y194000D01*
Y176000D02*
X554000Y180000D01*
X550000Y184000*
X546000Y180000*
X550000Y176000*
Y180000D02*
Y184000D01*
Y166000D02*
X554000Y170000D01*
X550000Y174000*
X546000Y170000*
X550000Y166000*
Y170000D02*
Y174000D01*
Y156000D02*
X554000Y160000D01*
X550000Y164000*
X546000Y160000*
X550000Y156000*
Y160000D02*
Y164000D01*
Y146000D02*
X554000Y150000D01*
X550000Y154000*
X546000Y150000*
X550000Y146000*
Y150000D02*
Y154000D01*
Y136000D02*
X554000Y140000D01*
X550000Y144000*
X546000Y140000*
X550000Y136000*
Y140000D02*
Y144000D01*
X540000Y446000D02*
X544000Y450000D01*
X540000Y454000*
X536000Y450000*
X540000Y446000*
Y450000D02*
Y454000D01*
Y436000D02*
X544000Y440000D01*
X540000Y444000*
X536000Y440000*
X540000Y436000*
Y440000D02*
Y444000D01*
Y426000D02*
X544000Y430000D01*
X540000Y434000*
X536000Y430000*
X540000Y426000*
Y430000D02*
Y434000D01*
Y416000D02*
X544000Y420000D01*
X540000Y424000*
X536000Y420000*
X540000Y416000*
Y420000D02*
Y424000D01*
Y406000D02*
X544000Y410000D01*
X540000Y414000*
X536000Y410000*
X540000Y406000*
Y410000D02*
Y414000D01*
Y396000D02*
X544000Y400000D01*
X540000Y404000*
X536000Y400000*
X540000Y396000*
Y400000D02*
Y404000D01*
Y386000D02*
X544000Y390000D01*
X540000Y394000*
X536000Y390000*
X540000Y386000*
Y390000D02*
Y394000D01*
Y376000D02*
X544000Y380000D01*
X540000Y384000*
X536000Y380000*
X540000Y376000*
Y380000D02*
Y384000D01*
Y366000D02*
X544000Y370000D01*
X540000Y374000*
X536000Y370000*
X540000Y366000*
Y370000D02*
Y374000D01*
Y356000D02*
X544000Y360000D01*
X540000Y364000*
X536000Y360000*
X540000Y356000*
Y360000D02*
Y364000D01*
Y346000D02*
X544000Y350000D01*
X540000Y354000*
X536000Y350000*
X540000Y346000*
Y350000D02*
Y354000D01*
Y336000D02*
X544000Y340000D01*
X540000Y344000*
X536000Y340000*
X540000Y336000*
Y340000D02*
Y344000D01*
Y326000D02*
X544000Y330000D01*
X540000Y334000*
X536000Y330000*
X540000Y326000*
Y330000D02*
Y334000D01*
Y316000D02*
X544000Y320000D01*
X540000Y324000*
X536000Y320000*
X540000Y316000*
Y320000D02*
Y324000D01*
Y306000D02*
X544000Y310000D01*
X540000Y314000*
X536000Y310000*
X540000Y306000*
Y310000D02*
Y314000D01*
Y296000D02*
X544000Y300000D01*
X540000Y304000*
X536000Y300000*
X540000Y296000*
Y300000D02*
Y304000D01*
Y286000D02*
X544000Y290000D01*
X540000Y294000*
X536000Y290000*
X540000Y286000*
Y290000D02*
Y294000D01*
Y276000D02*
X544000Y280000D01*
X540000Y284000*
X536000Y280000*
X540000Y276000*
Y280000D02*
Y284000D01*
Y266000D02*
X544000Y270000D01*
X540000Y274000*
X536000Y270000*
X540000Y266000*
Y270000D02*
Y274000D01*
Y256000D02*
X544000Y260000D01*
X540000Y264000*
X536000Y260000*
X540000Y256000*
Y260000D02*
Y264000D01*
Y246000D02*
X544000Y250000D01*
X540000Y254000*
X536000Y250000*
X540000Y246000*
Y250000D02*
Y254000D01*
Y236000D02*
X544000Y240000D01*
X540000Y244000*
X536000Y240000*
X540000Y236000*
Y240000D02*
Y244000D01*
Y226000D02*
X544000Y230000D01*
X540000Y234000*
X536000Y230000*
X540000Y226000*
Y230000D02*
Y234000D01*
Y216000D02*
X544000Y220000D01*
X540000Y224000*
X536000Y220000*
X540000Y216000*
Y220000D02*
Y224000D01*
Y206000D02*
X544000Y210000D01*
X540000Y214000*
X536000Y210000*
X540000Y206000*
Y210000D02*
Y214000D01*
Y196000D02*
X544000Y200000D01*
X540000Y204000*
X536000Y200000*
X540000Y196000*
Y200000D02*
Y204000D01*
Y186000D02*
X544000Y190000D01*
X540000Y194000*
X536000Y190000*
X540000Y186000*
Y190000D02*
Y194000D01*
Y176000D02*
X544000Y180000D01*
X540000Y184000*
X536000Y180000*
X540000Y176000*
Y180000D02*
Y184000D01*
Y166000D02*
X544000Y170000D01*
X540000Y174000*
X536000Y170000*
X540000Y166000*
Y170000D02*
Y174000D01*
Y156000D02*
X544000Y160000D01*
X540000Y164000*
X536000Y160000*
X540000Y156000*
Y160000D02*
Y164000D01*
Y146000D02*
X544000Y150000D01*
X540000Y154000*
X536000Y150000*
X540000Y146000*
Y150000D02*
Y154000D01*
Y136000D02*
X544000Y140000D01*
X540000Y144000*
X536000Y140000*
X540000Y136000*
Y140000D02*
Y144000D01*
X546000Y470000D02*
X554000D01*
X550000Y466000D02*
Y474000D01*
X546000Y120000D02*
X554000D01*
X550000Y116000D02*
Y124000D01*
X516000Y446000D02*
X524000D01*
Y454000*
X516000*
Y446000*
X520000Y450000D02*
Y454000D01*
X516000Y436000D02*
X524000D01*
Y444000*
X516000*
Y436000*
X520000Y440000D02*
Y444000D01*
X516000Y426000D02*
X524000D01*
Y434000*
X516000*
Y426000*
X520000Y430000D02*
Y434000D01*
X516000Y416000D02*
X524000D01*
Y424000*
X516000*
Y416000*
X520000Y420000D02*
Y424000D01*
X516000Y406000D02*
X524000D01*
Y414000*
X516000*
Y406000*
X520000Y410000D02*
Y414000D01*
X516000Y396000D02*
X524000D01*
Y404000*
X516000*
Y396000*
X520000Y400000D02*
Y404000D01*
X516000Y386000D02*
X524000D01*
Y394000*
X516000*
Y386000*
X520000Y390000D02*
Y394000D01*
X516000Y376000D02*
X524000D01*
Y384000*
X516000*
Y376000*
X520000Y380000D02*
Y384000D01*
X516000Y366000D02*
X524000D01*
Y374000*
X516000*
Y366000*
X520000Y370000D02*
Y374000D01*
X516000Y356000D02*
X524000D01*
Y364000*
X516000*
Y356000*
X520000Y360000D02*
Y364000D01*
X516000Y346000D02*
X524000D01*
Y354000*
X516000*
Y346000*
X520000Y350000D02*
Y354000D01*
X516000Y336000D02*
X524000D01*
Y344000*
X516000*
Y336000*
X520000Y340000D02*
Y344000D01*
X516000Y326000D02*
X524000D01*
Y334000*
X516000*
Y326000*
X520000Y330000D02*
Y334000D01*
X516000Y316000D02*
X524000D01*
Y324000*
X516000*
Y316000*
X520000Y320000D02*
Y324000D01*
X516000Y306000D02*
X524000D01*
Y314000*
X516000*
Y306000*
X520000Y310000D02*
Y314000D01*
X516000Y296000D02*
X524000D01*
Y304000*
X516000*
Y296000*
X520000Y300000D02*
Y304000D01*
X516000Y286000D02*
X524000D01*
Y294000*
X516000*
Y286000*
X520000Y290000D02*
Y294000D01*
X516000Y276000D02*
X524000D01*
Y284000*
X516000*
Y276000*
X520000Y280000D02*
Y284000D01*
X516000Y266000D02*
X524000D01*
Y274000*
X516000*
Y266000*
X520000Y270000D02*
Y274000D01*
X516000Y256000D02*
X524000D01*
Y264000*
X516000*
Y256000*
X520000Y260000D02*
Y264000D01*
X516000Y246000D02*
X524000D01*
Y254000*
X516000*
Y246000*
X520000Y250000D02*
Y254000D01*
X516000Y236000D02*
X524000D01*
Y244000*
X516000*
Y236000*
X520000Y240000D02*
Y244000D01*
X516000Y226000D02*
X524000D01*
Y234000*
X516000*
Y226000*
X520000Y230000D02*
Y234000D01*
X516000Y216000D02*
X524000D01*
Y224000*
X516000*
Y216000*
X520000Y220000D02*
Y224000D01*
X516000Y206000D02*
X524000D01*
Y214000*
X516000*
Y206000*
X520000Y210000D02*
Y214000D01*
X516000Y196000D02*
X524000D01*
Y204000*
X516000*
Y196000*
X520000Y200000D02*
Y204000D01*
X516000Y186000D02*
X524000D01*
Y194000*
X516000*
Y186000*
X520000Y190000D02*
Y194000D01*
X516000Y176000D02*
X524000D01*
Y184000*
X516000*
Y176000*
X520000Y180000D02*
Y184000D01*
X516000Y166000D02*
X524000D01*
Y174000*
X516000*
Y166000*
X520000Y170000D02*
Y174000D01*
X516000Y156000D02*
X524000D01*
Y164000*
X516000*
Y156000*
X520000Y160000D02*
Y164000D01*
X516000Y146000D02*
X524000D01*
Y154000*
X516000*
Y146000*
X520000Y150000D02*
Y154000D01*
X516000Y136000D02*
X524000D01*
Y144000*
X516000*
Y136000*
X520000Y140000D02*
Y144000D01*
X576000Y446000D02*
X584000D01*
Y454000*
X576000*
Y446000*
X580000Y450000D02*
Y454000D01*
X576000Y436000D02*
X584000D01*
Y444000*
X576000*
Y436000*
X580000Y440000D02*
Y444000D01*
X576000Y426000D02*
X584000D01*
Y434000*
X576000*
Y426000*
X580000Y430000D02*
Y434000D01*
X576000Y416000D02*
X584000D01*
Y424000*
X576000*
Y416000*
X580000Y420000D02*
Y424000D01*
X576000Y406000D02*
X584000D01*
Y414000*
X576000*
Y406000*
X580000Y410000D02*
Y414000D01*
X576000Y396000D02*
X584000D01*
Y404000*
X576000*
Y396000*
X580000Y400000D02*
Y404000D01*
X576000Y386000D02*
X584000D01*
Y394000*
X576000*
Y386000*
X580000Y390000D02*
Y394000D01*
X576000Y376000D02*
X584000D01*
Y384000*
X576000*
Y376000*
X580000Y380000D02*
Y384000D01*
X576000Y366000D02*
X584000D01*
Y374000*
X576000*
Y366000*
X580000Y370000D02*
Y374000D01*
X576000Y356000D02*
X584000D01*
Y364000*
X576000*
Y356000*
X580000Y360000D02*
Y364000D01*
X576000Y346000D02*
X584000D01*
Y354000*
X576000*
Y346000*
X580000Y350000D02*
Y354000D01*
X576000Y336000D02*
X584000D01*
Y344000*
X576000*
Y336000*
X580000Y340000D02*
Y344000D01*
X576000Y326000D02*
X584000D01*
Y334000*
X576000*
Y326000*
X580000Y330000D02*
Y334000D01*
X576000Y316000D02*
X584000D01*
Y324000*
X576000*
Y316000*
X580000Y320000D02*
Y324000D01*
X576000Y306000D02*
X584000D01*
Y314000*
X576000*
Y306000*
X580000Y310000D02*
Y314000D01*
X576000Y296000D02*
X584000D01*
Y304000*
X576000*
Y296000*
X580000Y300000D02*
Y304000D01*
X576000Y286000D02*
X584000D01*
Y294000*
X576000*
Y286000*
X580000Y290000D02*
Y294000D01*
X576000Y276000D02*
X584000D01*
Y284000*
X576000*
Y276000*
X580000Y280000D02*
Y284000D01*
X576000Y266000D02*
X584000D01*
Y274000*
X576000*
Y266000*
X580000Y270000D02*
Y274000D01*
X576000Y256000D02*
X584000D01*
Y264000*
X576000*
Y256000*
X580000Y260000D02*
Y264000D01*
X576000Y246000D02*
X584000D01*
Y254000*
X576000*
Y246000*
X580000Y250000D02*
Y254000D01*
X576000Y236000D02*
X584000D01*
Y244000*
X576000*
Y236000*
X580000Y240000D02*
Y244000D01*
X576000Y226000D02*
X584000D01*
Y234000*
X576000*
Y226000*
X580000Y230000D02*
Y234000D01*
X576000Y216000D02*
X584000D01*
Y224000*
X576000*
Y216000*
X580000Y220000D02*
Y224000D01*
X576000Y206000D02*
X584000D01*
Y214000*
X576000*
Y206000*
X580000Y210000D02*
Y214000D01*
X576000Y196000D02*
X584000D01*
Y204000*
X576000*
Y196000*
X580000Y200000D02*
Y204000D01*
X576000Y186000D02*
X584000D01*
Y194000*
X576000*
Y186000*
X580000Y190000D02*
Y194000D01*
X576000Y176000D02*
X584000D01*
Y184000*
X576000*
Y176000*
X580000Y180000D02*
Y184000D01*
X576000Y166000D02*
X584000D01*
Y174000*
X576000*
Y166000*
X580000Y170000D02*
Y174000D01*
X576000Y156000D02*
X584000D01*
Y164000*
X576000*
Y156000*
X580000Y160000D02*
Y164000D01*
X576000Y146000D02*
X584000D01*
Y154000*
X576000*
Y146000*
X580000Y150000D02*
Y154000D01*
X576000Y136000D02*
X584000D01*
Y144000*
X576000*
Y136000*
X580000Y140000D02*
Y144000D01*
X111000Y115000D02*
X119000D01*
X115000Y111000D02*
Y119000D01*
X596000Y115000D02*
X604000D01*
X600000Y111000D02*
Y119000D01*
X111000Y480000D02*
X119000D01*
X115000Y476000D02*
Y484000D01*
X596000Y480000D02*
X604000D01*
X600000Y476000D02*
Y484000D01*
X634000Y171000D02*
X638000Y175000D01*
X634000Y179000*
X630000Y175000*
X634000Y171000*
Y175000D02*
Y179000D01*
Y161000D02*
X638000Y165000D01*
X634000Y169000*
X630000Y165000*
X634000Y161000*
Y165000D02*
Y169000D01*
Y151000D02*
X638000Y155000D01*
X634000Y159000*
X630000Y155000*
X634000Y151000*
Y155000D02*
Y159000D01*
Y141000D02*
X638000Y145000D01*
X634000Y149000*
X630000Y145000*
X634000Y141000*
Y145000D02*
Y149000D01*
Y131000D02*
X638000Y135000D01*
X634000Y139000*
X630000Y135000*
X634000Y131000*
Y135000D02*
Y139000D01*
Y121000D02*
X638000Y125000D01*
X634000Y129000*
X630000Y125000*
X634000Y121000*
Y125000D02*
Y129000D01*
X618000Y131000D02*
X626000D01*
X618000Y139000*
X626000*
X618000Y131000*
X598000D02*
X606000D01*
X598000Y139000*
X606000*
X598000Y131000*
X614000Y269000D02*
X622000D01*
Y277000*
X614000*
Y269000*
X618000Y273000D02*
Y277000D01*
X614000Y253000D02*
X622000D01*
Y261000*
X614000*
Y253000*
X618000Y257000D02*
Y261000D01*
X614000Y238000D02*
X622000D01*
Y246000*
X614000*
Y238000*
X618000Y242000D02*
Y246000D01*
X614000Y212000D02*
X622000D01*
Y220000*
X614000*
Y212000*
X618000Y216000D02*
Y220000D01*
X614000Y182000D02*
X622000D01*
Y190000*
X614000*
Y182000*
X618000Y186000D02*
Y190000D01*
Y117000D02*
X626000D01*
Y125000*
X618000*
Y117000*
X622000Y121000D02*
Y125000D01*
X636000Y476000D02*
X644000D01*
Y484000*
X636000*
Y476000*
X640000Y480000D02*
Y484000D01*
X626000Y476000D02*
X634000D01*
Y484000*
X626000*
Y476000*
X630000Y480000D02*
Y484000D01*
X591000Y456000D02*
X599000D01*
Y464000*
X591000*
Y456000*
X595000Y460000D02*
Y464000D01*
X606000Y301500D02*
X614000D01*
X610000Y297500D02*
Y305500D01*
X612000Y306781D02*
Y303500D01*
Y306781D02*
X613023D01*
X613364Y306625*
X613477Y306469*
X613591Y306156*
Y305844*
X613477Y305531*
X613364Y305375*
X613023Y305219*
X612000D02*
X613023D01*
X613364Y305062*
X613364D02*
X613477Y304906D01*
X613591Y304594*
Y304125*
X613477Y303812*
X613477D02*
X613364Y303656D01*
X613023Y303500*
X612000*
X606000Y318000D02*
X614000D01*
X610000Y314000D02*
Y322000D01*
X612000Y323281D02*
Y320000D01*
Y323281D02*
X613023D01*
X613364Y323125*
X613477Y322969*
X613591Y322656*
Y322344*
X613477Y322031*
X613364Y321875*
X613023Y321719*
X612000D02*
X613023D01*
X613364Y321562*
X613364D02*
X613477Y321406D01*
X613591Y321094*
Y320625*
X613477Y320312*
X613477D02*
X613364Y320156D01*
X613023Y320000*
X612000*
X606000Y334500D02*
X614000D01*
X610000Y330500D02*
Y338500D01*
X612000Y339781D02*
Y336500D01*
Y339781D02*
X613023D01*
X613364Y339625*
X613477Y339469*
X613591Y339156*
Y338844*
X613477Y338531*
X613364Y338375*
X613023Y338219*
X612000D02*
X613023D01*
X613364Y338062*
X613364D02*
X613477Y337906D01*
X613591Y337594*
Y337125*
X613477Y336812*
X613477D02*
X613364Y336656D01*
X613023Y336500*
X612000*
X606000Y351000D02*
X614000D01*
X610000Y347000D02*
Y355000D01*
X612000Y356281D02*
Y353000D01*
Y356281D02*
X613023D01*
X613364Y356125*
X613477Y355969*
X613591Y355656*
Y355344*
X613477Y355031*
X613364Y354875*
X613023Y354719*
X612000D02*
X613023D01*
X613364Y354562*
X613364D02*
X613477Y354406D01*
X613591Y354094*
Y353625*
X613477Y353312*
X613477D02*
X613364Y353156D01*
X613023Y353000*
X612000*
X606000Y367500D02*
X614000D01*
X610000Y363500D02*
Y371500D01*
X612000Y372781D02*
Y369500D01*
Y372781D02*
X613023D01*
X613364Y372625*
X613477Y372469*
X613591Y372156*
Y371844*
X613477Y371531*
X613364Y371375*
X613023Y371219*
X612000D02*
X613023D01*
X613364Y371062*
X613364D02*
X613477Y370906D01*
X613591Y370594*
Y370125*
X613477Y369812*
X613477D02*
X613364Y369656D01*
X613023Y369500*
X612000*
X606000Y384000D02*
X614000D01*
X610000Y380000D02*
Y388000D01*
X612000Y389281D02*
Y386000D01*
Y389281D02*
X613023D01*
X613364Y389125*
X613477Y388969*
X613591Y388656*
Y388344*
X613477Y388031*
X613364Y387875*
X613023Y387719*
X612000D02*
X613023D01*
X613364Y387562*
X613364D02*
X613477Y387406D01*
X613591Y387094*
Y386625*
X613477Y386312*
X613477D02*
X613364Y386156D01*
X613023Y386000*
X612000*
X606000Y400500D02*
X614000D01*
X610000Y396500D02*
Y404500D01*
X612000Y405781D02*
Y402500D01*
Y405781D02*
X613023D01*
X613364Y405625*
X613477Y405469*
X613591Y405156*
Y404844*
X613477Y404531*
X613364Y404375*
X613023Y404219*
X612000D02*
X613023D01*
X613364Y404062*
X613364D02*
X613477Y403906D01*
X613591Y403594*
Y403125*
X613477Y402812*
X613477D02*
X613364Y402656D01*
X613023Y402500*
X612000*
X606000Y417000D02*
X614000D01*
X610000Y413000D02*
Y421000D01*
X612000Y422281D02*
Y419000D01*
Y422281D02*
X613023D01*
X613364Y422125*
X613477Y421969*
X613591Y421656*
Y421344*
X613477Y421031*
X613364Y420875*
X613023Y420719*
X612000D02*
X613023D01*
X613364Y420562*
X613364D02*
X613477Y420406D01*
X613591Y420094*
Y419625*
X613477Y419312*
X613477D02*
X613364Y419156D01*
X613023Y419000*
X612000*
X606000Y433500D02*
X614000D01*
X610000Y429500D02*
Y437500D01*
X612000Y438781D02*
Y435500D01*
Y438781D02*
X613023D01*
X613364Y438625*
X613477Y438469*
X613591Y438156*
Y437844*
X613477Y437531*
X613364Y437375*
X613023Y437219*
X612000D02*
X613023D01*
X613364Y437062*
X613364D02*
X613477Y436906D01*
X613591Y436594*
Y436125*
X613477Y435812*
X613477D02*
X613364Y435656D01*
X613023Y435500*
X612000*
X606600Y449600D02*
X614600D01*
X610600Y445600D02*
Y453600D01*
X612600Y454881D02*
Y451600D01*
Y454881D02*
X613623D01*
X613964Y454725*
X614077Y454569*
X614191Y454256*
Y453944*
X614077Y453631*
X613964Y453475*
X613623Y453319*
X612600D02*
X613623D01*
X613964Y453162*
X613964D02*
X614077Y453006D01*
X614191Y452694*
Y452225*
X614077Y451912*
X614077D02*
X613964Y451756D01*
X613623Y451600*
X612600*
X627700Y301500D02*
X635700D01*
X631700Y297500D02*
Y305500D01*
X633700Y306781D02*
Y303500D01*
Y306781D02*
X634723D01*
X635064Y306625*
X635177Y306469*
X635291Y306156*
Y305844*
X635177Y305531*
X635064Y305375*
X634723Y305219*
X633700D02*
X634723D01*
X635064Y305062*
X635064D02*
X635177Y304906D01*
X635291Y304594*
Y304125*
X635177Y303812*
X635177D02*
X635064Y303656D01*
X634723Y303500*
X633700*
X627700Y318000D02*
X635700D01*
X631700Y314000D02*
Y322000D01*
X633700Y323281D02*
Y320000D01*
Y323281D02*
X634723D01*
X635064Y323125*
X635177Y322969*
X635291Y322656*
Y322344*
X635177Y322031*
X635064Y321875*
X634723Y321719*
X633700D02*
X634723D01*
X635064Y321562*
X635064D02*
X635177Y321406D01*
X635291Y321094*
Y320625*
X635177Y320312*
X635177D02*
X635064Y320156D01*
X634723Y320000*
X633700*
X627700Y334500D02*
X635700D01*
X631700Y330500D02*
Y338500D01*
X633700Y339781D02*
Y336500D01*
Y339781D02*
X634723D01*
X635064Y339625*
X635177Y339469*
X635291Y339156*
Y338844*
X635177Y338531*
X635064Y338375*
X634723Y338219*
X633700D02*
X634723D01*
X635064Y338062*
X635064D02*
X635177Y337906D01*
X635291Y337594*
Y337125*
X635177Y336812*
X635177D02*
X635064Y336656D01*
X634723Y336500*
X633700*
X627700Y351000D02*
X635700D01*
X631700Y347000D02*
Y355000D01*
X633700Y356281D02*
Y353000D01*
Y356281D02*
X634723D01*
X635064Y356125*
X635177Y355969*
X635291Y355656*
Y355344*
X635177Y355031*
X635064Y354875*
X634723Y354719*
X633700D02*
X634723D01*
X635064Y354562*
X635064D02*
X635177Y354406D01*
X635291Y354094*
Y353625*
X635177Y353312*
X635177D02*
X635064Y353156D01*
X634723Y353000*
X633700*
X627700Y367500D02*
X635700D01*
X631700Y363500D02*
Y371500D01*
X633700Y372781D02*
Y369500D01*
Y372781D02*
X634723D01*
X635064Y372625*
X635177Y372469*
X635291Y372156*
Y371844*
X635177Y371531*
X635064Y371375*
X634723Y371219*
X633700D02*
X634723D01*
X635064Y371062*
X635064D02*
X635177Y370906D01*
X635291Y370594*
Y370125*
X635177Y369812*
X635177D02*
X635064Y369656D01*
X634723Y369500*
X633700*
X627700Y384000D02*
X635700D01*
X631700Y380000D02*
Y388000D01*
X633700Y389281D02*
Y386000D01*
Y389281D02*
X634723D01*
X635064Y389125*
X635177Y388969*
X635291Y388656*
Y388344*
X635177Y388031*
X635064Y387875*
X634723Y387719*
X633700D02*
X634723D01*
X635064Y387562*
X635064D02*
X635177Y387406D01*
X635291Y387094*
Y386625*
X635177Y386312*
X635177D02*
X635064Y386156D01*
X634723Y386000*
X633700*
X627700Y400500D02*
X635700D01*
X631700Y396500D02*
Y404500D01*
X633700Y405781D02*
Y402500D01*
Y405781D02*
X634723D01*
X635064Y405625*
X635177Y405469*
X635291Y405156*
Y404844*
X635177Y404531*
X635064Y404375*
X634723Y404219*
X633700D02*
X634723D01*
X635064Y404062*
X635064D02*
X635177Y403906D01*
X635291Y403594*
Y403125*
X635177Y402812*
X635177D02*
X635064Y402656D01*
X634723Y402500*
X633700*
X627700Y417000D02*
X635700D01*
X631700Y413000D02*
Y421000D01*
X633700Y422281D02*
Y419000D01*
Y422281D02*
X634723D01*
X635064Y422125*
X635177Y421969*
X635291Y421656*
Y421344*
X635177Y421031*
X635064Y420875*
X634723Y420719*
X633700D02*
X634723D01*
X635064Y420562*
X635064D02*
X635177Y420406D01*
X635291Y420094*
Y419625*
X635177Y419312*
X635177D02*
X635064Y419156D01*
X634723Y419000*
X633700*
X627700Y433500D02*
X635700D01*
X631700Y429500D02*
Y437500D01*
X633700Y438781D02*
Y435500D01*
Y438781D02*
X634723D01*
X635064Y438625*
X635177Y438469*
X635291Y438156*
Y437844*
X635177Y437531*
X635064Y437375*
X634723Y437219*
X633700D02*
X634723D01*
X635064Y437062*
X635064D02*
X635177Y436906D01*
X635291Y436594*
Y436125*
X635177Y435812*
X635177D02*
X635064Y435656D01*
X634723Y435500*
X633700*
X627700Y450000D02*
X635700D01*
X631700Y446000D02*
Y454000D01*
X633700Y455281D02*
Y452000D01*
Y455281D02*
X634723D01*
X635064Y455125*
X635177Y454969*
X635291Y454656*
Y454344*
X635177Y454031*
X635064Y453875*
X634723Y453719*
X633700D02*
X634723D01*
X635064Y453562*
X635064D02*
X635177Y453406D01*
X635291Y453094*
Y452625*
X635177Y452312*
X635177D02*
X635064Y452156D01*
X634723Y452000*
X633700*
X625900Y283000D02*
X633900D01*
X629900Y279000D02*
Y287000D01*
X633605Y287500D02*
X633491Y287812D01*
X633491D02*
X633264Y288125D01*
X633036Y288281*
X632582*
X632355Y288125*
X632127Y287812*
X632127D02*
X632014Y287500D01*
X631900Y287031*
Y286250*
X632014Y285781*
X632127Y285469*
X632355Y285156*
X632582Y285000*
X633036*
X633264Y285156*
X633491Y285469*
X633605Y285781*
X625900Y468500D02*
X633900D01*
X629900Y464500D02*
Y472500D01*
X633605Y473000D02*
X633491Y473312D01*
X633491D02*
X633264Y473625D01*
X633036Y473781*
X632582*
X632355Y473625*
X632127Y473312*
X632127D02*
X632014Y473000D01*
X631900Y472531*
Y471750*
X632014Y471281*
X632127Y470969*
X632355Y470656*
X632582Y470500*
X633036*
X633264Y470656*
X633491Y470969*
X633605Y471281*
X591000Y182000D02*
X599000Y190000D01*
Y182000*
X591000Y190000*
Y182000*
X606000Y176000D02*
X614000Y184000D01*
Y176000*
X606000Y184000*
Y176000*
X597000Y196000D02*
X605000Y204000D01*
Y196000*
X597000Y204000*
Y196000*
Y223000D02*
X605000Y231000D01*
Y223000*
X597000Y231000*
Y223000*
X606000Y216000D02*
X614000Y224000D01*
Y216000*
X606000Y224000*
Y216000*
X597000Y253000D02*
X605000Y261000D01*
Y253000*
X597000Y261000*
Y253000*
Y271000D02*
X605000Y279000D01*
Y271000*
X597000Y279000*
Y271000*
X100000Y100000D02*
X650000D01*
Y494000*
X100000*
Y100000*
X650000Y292000D02*
X908000D01*
X650000Y268000D02*
X908000D01*
X650000Y244000D02*
X908000D01*
X650000Y220000D02*
X908000D01*
X650000Y196000D02*
X908000D01*
X650000Y172000D02*
X908000D01*
X650000Y148000D02*
X908000D01*
X650000Y124000D02*
X908000D01*
X650000Y100000D02*
X908000D01*
X650000Y292000D02*
Y100000D01*
X734000Y292000D02*
Y100000D01*
X770000Y292000D02*
Y100000D01*
X806000Y292000D02*
Y100000D01*
X860000Y292000D02*
Y100000D01*
X908000Y292000D02*
Y100000D01*
X685500Y280750D02*
X684955Y281500D01*
X684136Y281875*
X683045*
X682227Y281500*
X681682Y280750*
Y280000*
X681955Y279250*
X682227Y278875*
X682773Y278500*
X684409Y277750*
X684955Y277375*
X685227Y277000*
X685500Y276250*
Y275125*
X684955Y274375*
X684136Y274000*
X683045*
X682227Y274375*
X681682Y275125*
X687955Y281875D02*
Y274000D01*
X694227Y281875D02*
X690409Y274000D01*
Y281875D02*
X694227D01*
X690409Y274000D02*
X694227D01*
X696682Y281875D02*
Y274000D01*
Y281875D02*
X700227D01*
X696682Y278125D02*
X698864D01*
X696682Y274000D02*
X700227D01*
X743864Y281875D02*
X743318Y281500D01*
X742773Y280750*
X742500Y280000*
X742227Y278875*
Y277000*
X742500Y275875*
X742773Y275125*
X743318Y274375*
X743864Y274000*
X744955*
X745500Y274375*
X746045Y275125*
X746318Y275875*
X746591Y277000*
Y278875*
X746318Y280000*
X746045Y280750*
X745500Y281500*
X744955Y281875*
X743864*
X744682Y275500D02*
X746318Y273250D01*
X750955Y281875D02*
Y274000D01*
X749045Y281875D02*
X752864D01*
X755318D02*
X757500Y278125D01*
Y274000*
X759682Y281875D02*
X757500Y278125D01*
X782045Y280750D02*
X781500Y281500D01*
X780682Y281875*
X779591*
X778773Y281500*
X778227Y280750*
Y280000*
X778500Y279250*
X778773Y278875*
X779318Y278500*
X780955Y277750*
X781500Y277375*
X781773Y277000*
X782045Y276250*
Y275125*
X781500Y274375*
X780682Y274000*
X779591*
X778773Y274375*
X778227Y275125*
X784500Y281875D02*
X786682Y278125D01*
Y274000*
X788864Y281875D02*
X786682Y278125D01*
X791318Y281875D02*
Y274000D01*
Y281875D02*
X793500Y274000D01*
X795682Y281875D02*
X793500Y274000D01*
X795682Y281875D02*
Y274000D01*
X817500Y281875D02*
Y274000D01*
Y281875D02*
X819955D01*
X820773Y281500*
X821045Y281125*
X821318Y280375*
Y279250*
X821045Y278500*
X820773Y278125*
X819955Y277750*
X817500*
X823773Y281875D02*
Y274000D01*
X827045*
X831682Y281875D02*
X829500Y274000D01*
X831682Y281875D02*
X833864Y274000D01*
X830318Y276625D02*
X833045D01*
X838227Y281875D02*
Y274000D01*
X836318Y281875D02*
X840136D01*
X842591D02*
Y274000D01*
Y281875D02*
X846136D01*
X842591Y278125D02*
X844773D01*
X842591Y274000D02*
X846136D01*
X848591Y281875D02*
Y274000D01*
Y281875D02*
X850500D01*
X851318Y281500*
X851864Y280750*
X852136Y280000*
X852409Y278875*
Y277000*
X852136Y275875*
X851864Y275125*
X851318Y274375*
X850500Y274000*
X848591*
X876682Y281875D02*
Y274000D01*
X874773Y281875D02*
X878591D01*
X882682D02*
X882136Y281500D01*
X881591Y280750*
X881318Y280000*
X881045Y278875*
Y277000*
X881318Y275875*
X881591Y275125*
X882136Y274375*
X882682Y274000*
X883773*
X884318Y274375*
X884864Y275125*
X885136Y275875*
X885409Y277000*
Y278875*
X885136Y280000*
X884864Y280750*
X884318Y281500*
X883773Y281875*
X882682*
X887864D02*
Y274000D01*
X891136*
X656000Y256375D02*
X656545Y256750D01*
X657364Y257875*
Y250000*
X660091Y256000D02*
Y256375D01*
X660364Y257125*
X660636Y257500*
X661182Y257875*
X662273*
X662818Y257500*
X663091Y257125*
X663364Y256375*
Y255625*
X663091Y254875*
X662545Y253750*
X659818Y250000*
X663636*
X669636Y257875D02*
X666909D01*
X666636Y254500*
X666909Y254875*
X667727Y255250*
X668545*
X669364Y254875*
X669909Y254125*
X670182Y253000*
X669909Y252250*
X669636Y251125*
X669091Y250375*
X668273Y250000*
X667455*
X666636Y250375*
X666364Y250750*
X666091Y251500*
X747273Y256375D02*
X747818Y256750D01*
X748636Y257875*
Y250000*
X754364Y256750D02*
X754091Y257500D01*
X753273Y257875*
X752727*
X751909Y257500*
X751364Y256375*
X751091Y254500*
Y252625*
X751364Y251125*
X751909Y250375*
X752727Y250000*
X753000*
X753818Y250375*
X754364Y251125*
X754636Y252250*
Y252625*
X754364Y253750*
X753818Y254500*
X753000Y254875*
X752727*
X751909Y254500*
X751364Y253750*
X751091Y252625*
X782000Y256000D02*
X794000D01*
X788000Y250000D02*
Y262000D01*
X814636Y257875D02*
X816818Y254125D01*
Y250000*
X819000Y257875D02*
X816818Y254125D01*
X821455Y257875D02*
Y250000D01*
Y257875D02*
X825000D01*
X821455Y254125D02*
X823636D01*
X821455Y250000D02*
X825000D01*
X831273Y256750D02*
X830727Y257500D01*
X829909Y257875*
X828818*
X828000Y257500*
X827455Y256750*
Y256000*
X827727Y255250*
X828000Y254875*
X828545Y254500*
X830182Y253750*
X830727Y253375*
X831000Y253000*
X831273Y252250*
Y251125*
X830727Y250375*
X829909Y250000*
X828818*
X828000Y250375*
X827455Y251125*
X867818Y256750D02*
Y250000D01*
X865364Y253375D02*
X870273D01*
X877636Y259375D02*
X872727Y247375D01*
X880091Y253375D02*
X885000D01*
X889091Y257875D02*
X888273Y257500D01*
X887727Y256375*
X887455Y254500*
Y253375*
X887727Y251500*
X888273Y250375*
X889091Y250000*
X889636*
X890455Y250375*
X891000Y251500*
X891273Y253375*
Y254500*
X891000Y256375*
X890455Y257500*
X889636Y257875*
X889091*
X894000Y250750D02*
X893727Y250375D01*
X894000Y250000*
X894273Y250375*
X894000Y250750*
X898364Y257875D02*
X897545Y257500D01*
X897000Y256375*
X896727Y254500*
Y253375*
X897000Y251500*
X897545Y250375*
X898364Y250000*
X898909*
X899727Y250375*
X900273Y251500*
X900545Y253375*
Y254500*
X900273Y256375*
X899727Y257500*
X898909Y257875*
X898364*
X656545Y233875D02*
X659545D01*
X657909Y230875*
X658727*
X659273Y230500*
X659545Y230125*
X659818Y229000*
Y228250*
X659545Y227125*
X659000Y226375*
X658182Y226000*
X657364*
X656545Y226375*
X656273Y226750*
X656000Y227500*
X662818Y233875D02*
X665818D01*
X664182Y230875*
X665000*
X665545Y230500*
X665818Y230125*
X666091Y229000*
Y228250*
X665818Y227125*
X665273Y226375*
X664455Y226000*
X663636*
X662818Y226375*
X662545Y226750*
X662273Y227500*
X743455Y233875D02*
X746455D01*
X744818Y230875*
X745636*
X746182Y230500*
X746455Y230125*
X746727Y229000*
Y228250*
X746455Y227125*
X745909Y226375*
X745091Y226000*
X744273*
X743455Y226375*
X743182Y226750*
X742909Y227500*
X752727Y231250D02*
X752455Y230125D01*
X751909Y229375*
X751091Y229000*
X750818*
X750000Y229375*
X749455Y230125*
X749182Y231250*
Y231625*
X749455Y232750*
X750000Y233500*
X750818Y233875*
X751091*
X751909Y233500*
X752455Y232750*
X752727Y231250*
Y229375*
X752455Y227500*
X751909Y226375*
X751091Y226000*
X750545*
X749727Y226375*
X749455Y227125*
X755727Y233875D02*
X758727D01*
X757091Y230875*
X757909*
X758455Y230500*
X758727Y230125*
X759000Y229000*
Y228250*
X758727Y227125*
X758182Y226375*
X757364Y226000*
X756545*
X755727Y226375*
X755455Y226750*
X755182Y227500*
X782000Y226000D02*
X794000D01*
Y238000*
X782000*
Y226000*
X788000Y232000D02*
Y238000D01*
X814636Y233875D02*
X816818Y230125D01*
Y226000*
X819000Y233875D02*
X816818Y230125D01*
X821455Y233875D02*
Y226000D01*
Y233875D02*
X825000D01*
X821455Y230125D02*
X823636D01*
X821455Y226000D02*
X825000D01*
X831273Y232750D02*
X830727Y233500D01*
X829909Y233875*
X828818*
X828000Y233500*
X827455Y232750*
Y232000*
X827727Y231250*
X828000Y230875*
X828545Y230500*
X830182Y229750*
X830727Y229375*
X831000Y229000*
X831273Y228250*
Y227125*
X830727Y226375*
X829909Y226000*
X828818*
X828000Y226375*
X827455Y227125*
X867818Y232750D02*
Y226000D01*
X865364Y229375D02*
X870273D01*
X877636Y235375D02*
X872727Y223375D01*
X880091Y229375D02*
X885000D01*
X889091Y233875D02*
X888273Y233500D01*
X887727Y232375*
X887455Y230500*
Y229375*
X887727Y227500*
X888273Y226375*
X889091Y226000*
X889636*
X890455Y226375*
X891000Y227500*
X891273Y229375*
Y230500*
X891000Y232375*
X890455Y233500*
X889636Y233875*
X889091*
X894000Y226750D02*
X893727Y226375D01*
X894000Y226000*
X894273Y226375*
X894000Y226750*
X898364Y233875D02*
X897545Y233500D01*
X897000Y232375*
X896727Y230500*
Y229375*
X897000Y227500*
X897545Y226375*
X898364Y226000*
X898909*
X899727Y226375*
X900273Y227500*
X900545Y229375*
Y230500*
X900273Y232375*
X899727Y233500*
X898909Y233875*
X898364*
X656545Y209875D02*
X659545D01*
X657909Y206875*
X658727*
X659273Y206500*
X659545Y206125*
X659818Y205000*
Y204250*
X659545Y203125*
X659000Y202375*
X658182Y202000*
X657364*
X656545Y202375*
X656273Y202750*
X656000Y203500*
X666091Y209875D02*
X663364Y202000D01*
X662273Y209875D02*
X666091D01*
X746182D02*
X743455D01*
X743182Y206500*
X743455Y206875*
X744273Y207250*
X745091*
X745909Y206875*
X746455Y206125*
X746727Y205000*
X746455Y204250*
X746182Y203125*
X745636Y202375*
X744818Y202000*
X744000*
X743182Y202375*
X742909Y202750*
X742636Y203500*
X750545Y209875D02*
X749727Y209500D01*
X749455Y208750*
Y208000*
X749727Y207250*
X750273Y206875*
X751364Y206500*
X752182Y206125*
X752727Y205375*
X753000Y204625*
Y203500*
X752727Y202750*
X752455Y202375*
X751636Y202000*
X750545*
X749727Y202375*
X749455Y202750*
X749182Y203500*
Y204625*
X749455Y205375*
X750000Y206125*
X750818Y206500*
X751909Y206875*
X752455Y207250*
X752727Y208000*
Y208750*
X752455Y209500*
X751636Y209875*
X750545*
X755727Y208000D02*
Y208375D01*
X756000Y209125*
X756273Y209500*
X756818Y209875*
X757909*
X758455Y209500*
X758727Y209125*
X759000Y208375*
Y207625*
X758727Y206875*
X758182Y205750*
X755455Y202000*
X759273*
X788000D02*
X794000Y208000D01*
X788000Y214000*
X782000Y208000*
X788000Y202000*
Y208000D02*
Y214000D01*
X814636Y209875D02*
X816818Y206125D01*
Y202000*
X819000Y209875D02*
X816818Y206125D01*
X821455Y209875D02*
Y202000D01*
Y209875D02*
X825000D01*
X821455Y206125D02*
X823636D01*
X821455Y202000D02*
X825000D01*
X831273Y208750D02*
X830727Y209500D01*
X829909Y209875*
X828818*
X828000Y209500*
X827455Y208750*
Y208000*
X827727Y207250*
X828000Y206875*
X828545Y206500*
X830182Y205750*
X830727Y205375*
X831000Y205000*
X831273Y204250*
Y203125*
X830727Y202375*
X829909Y202000*
X828818*
X828000Y202375*
X827455Y203125*
X867818Y208750D02*
Y202000D01*
X865364Y205375D02*
X870273D01*
X877636Y211375D02*
X872727Y199375D01*
X880091Y205375D02*
X885000D01*
X889091Y209875D02*
X888273Y209500D01*
X887727Y208375*
X887455Y206500*
Y205375*
X887727Y203500*
X888273Y202375*
X889091Y202000*
X889636*
X890455Y202375*
X891000Y203500*
X891273Y205375*
Y206500*
X891000Y208375*
X890455Y209500*
X889636Y209875*
X889091*
X894000Y202750D02*
X893727Y202375D01*
X894000Y202000*
X894273Y202375*
X894000Y202750*
X898364Y209875D02*
X897545Y209500D01*
X897000Y208375*
X896727Y206500*
Y205375*
X897000Y203500*
X897545Y202375*
X898364Y202000*
X898909*
X899727Y202375*
X900273Y203500*
X900545Y205375*
Y206500*
X900273Y208375*
X899727Y209500*
X898909Y209875*
X898364*
X658727Y185875D02*
X656000Y180625D01*
X660091*
X658727Y185875D02*
Y178000D01*
X666091Y185875D02*
X663364D01*
X663091Y182500*
X663364Y182875*
X664182Y183250*
X665000*
X665818Y182875*
X666364Y182125*
X666636Y181000*
X666364Y180250*
X666091Y179125*
X665545Y178375*
X664727Y178000*
X663909*
X663091Y178375*
X662818Y178750*
X662545Y179500*
X749318Y184000D02*
Y184375D01*
X749591Y185125*
X749864Y185500*
X750409Y185875*
X751500*
X752045Y185500*
X752318Y185125*
X752591Y184375*
Y183625*
X752318Y182875*
X751773Y181750*
X749045Y178000*
X752864*
X782000D02*
X794000D01*
X782000Y190000*
X794000*
X782000Y178000*
X814636Y185875D02*
X816818Y182125D01*
Y178000*
X819000Y185875D02*
X816818Y182125D01*
X821455Y185875D02*
Y178000D01*
Y185875D02*
X825000D01*
X821455Y182125D02*
X823636D01*
X821455Y178000D02*
X825000D01*
X831273Y184750D02*
X830727Y185500D01*
X829909Y185875*
X828818*
X828000Y185500*
X827455Y184750*
Y184000*
X827727Y183250*
X828000Y182875*
X828545Y182500*
X830182Y181750*
X830727Y181375*
X831000Y181000*
X831273Y180250*
Y179125*
X830727Y178375*
X829909Y178000*
X828818*
X828000Y178375*
X827455Y179125*
X867818Y184750D02*
Y178000D01*
X865364Y181375D02*
X870273D01*
X877636Y187375D02*
X872727Y175375D01*
X880091Y181375D02*
X885000D01*
X889091Y185875D02*
X888273Y185500D01*
X887727Y184375*
X887455Y182500*
Y181375*
X887727Y179500*
X888273Y178375*
X889091Y178000*
X889636*
X890455Y178375*
X891000Y179500*
X891273Y181375*
Y182500*
X891000Y184375*
X890455Y185500*
X889636Y185875*
X889091*
X894000Y178750D02*
X893727Y178375D01*
X894000Y178000*
X894273Y178375*
X894000Y178750*
X898364Y185875D02*
X897545Y185500D01*
X897000Y184375*
X896727Y182500*
Y181375*
X897000Y179500*
X897545Y178375*
X898364Y178000*
X898909*
X899727Y178375*
X900273Y179500*
X900545Y181375*
Y182500*
X900273Y184375*
X899727Y185500*
X898909Y185875*
X898364*
X656273Y160000D02*
Y160375D01*
X656545Y161125*
X656818Y161500*
X657364Y161875*
X658455*
X659000Y161500*
X659273Y161125*
X659545Y160375*
Y159625*
X659273Y158875*
X658727Y157750*
X656000Y154000*
X659818*
X663909Y161875D02*
X663091Y161500D01*
X662545Y160375*
X662273Y158500*
Y157375*
X662545Y155500*
X663091Y154375*
X663909Y154000*
X664455*
X665273Y154375*
X665818Y155500*
X666091Y157375*
Y158500*
X665818Y160375*
X665273Y161500*
X664455Y161875*
X663909*
X752864D02*
X750136Y154000D01*
X749045Y161875D02*
X752864D01*
X782000Y154000D02*
X794000Y166000D01*
Y154000*
X782000Y166000*
Y154000*
X814636Y161875D02*
X816818Y158125D01*
Y154000*
X819000Y161875D02*
X816818Y158125D01*
X821455Y161875D02*
Y154000D01*
Y161875D02*
X825000D01*
X821455Y158125D02*
X823636D01*
X821455Y154000D02*
X825000D01*
X831273Y160750D02*
X830727Y161500D01*
X829909Y161875*
X828818*
X828000Y161500*
X827455Y160750*
Y160000*
X827727Y159250*
X828000Y158875*
X828545Y158500*
X830182Y157750*
X830727Y157375*
X831000Y157000*
X831273Y156250*
Y155125*
X830727Y154375*
X829909Y154000*
X828818*
X828000Y154375*
X827455Y155125*
X867818Y160750D02*
Y154000D01*
X865364Y157375D02*
X870273D01*
X877636Y163375D02*
X872727Y151375D01*
X880091Y157375D02*
X885000D01*
X889091Y161875D02*
X888273Y161500D01*
X887727Y160375*
X887455Y158500*
Y157375*
X887727Y155500*
X888273Y154375*
X889091Y154000*
X889636*
X890455Y154375*
X891000Y155500*
X891273Y157375*
Y158500*
X891000Y160375*
X890455Y161500*
X889636Y161875*
X889091*
X894000Y154750D02*
X893727Y154375D01*
X894000Y154000*
X894273Y154375*
X894000Y154750*
X898364Y161875D02*
X897545Y161500D01*
X897000Y160375*
X896727Y158500*
Y157375*
X897000Y155500*
X897545Y154375*
X898364Y154000*
X898909*
X899727Y154375*
X900273Y155500*
X900545Y157375*
Y158500*
X900273Y160375*
X899727Y161500*
X898909Y161875*
X898364*
X659545Y137875D02*
X656818D01*
X656545Y134500*
X656818Y134875*
X657636Y135250*
X658455*
X659273Y134875*
X659818Y134125*
X660091Y133000*
X659818Y132250*
X659545Y131125*
X659000Y130375*
X658182Y130000*
X657364*
X656545Y130375*
X656273Y130750*
X656000Y131500*
X666091Y137875D02*
X663364D01*
X663091Y134500*
X663364Y134875*
X664182Y135250*
X665000*
X665818Y134875*
X666364Y134125*
X666636Y133000*
X666364Y132250*
X666091Y131125*
X665545Y130375*
X664727Y130000*
X663909*
X663091Y130375*
X662818Y130750*
X662545Y131500*
X746182Y136000D02*
Y136375D01*
X746455Y137125*
X746727Y137500*
X747273Y137875*
X748364*
X748909Y137500*
X749182Y137125*
X749455Y136375*
Y135625*
X749182Y134875*
X748636Y133750*
X745909Y130000*
X749727*
X753818Y137875D02*
X753000Y137500D01*
X752455Y136375*
X752182Y134500*
Y133375*
X752455Y131500*
X753000Y130375*
X753818Y130000*
X754364*
X755182Y130375*
X755727Y131500*
X756000Y133375*
Y134500*
X755727Y136375*
X755182Y137500*
X754364Y137875*
X753818*
X782000Y136000D02*
X794000D01*
X788000Y130000D02*
Y142000D01*
X791000Y145300D02*
Y139000D01*
Y145300D02*
X792964D01*
X793618Y145000*
X793836Y144700*
X794055Y144100*
Y143500*
X793836Y142900*
X793618Y142600*
X792964Y142300*
X791000D02*
X792964D01*
X793618Y142000*
X793836Y141700*
X794055Y141100*
Y140200*
X793836Y139600*
X793618Y139300*
X792964Y139000*
X791000*
X814636Y137875D02*
X816818Y134125D01*
Y130000*
X819000Y137875D02*
X816818Y134125D01*
X821455Y137875D02*
Y130000D01*
Y137875D02*
X825000D01*
X821455Y134125D02*
X823636D01*
X821455Y130000D02*
X825000D01*
X831273Y136750D02*
X830727Y137500D01*
X829909Y137875*
X828818*
X828000Y137500*
X827455Y136750*
Y136000*
X827727Y135250*
X828000Y134875*
X828545Y134500*
X830182Y133750*
X830727Y133375*
X831000Y133000*
X831273Y132250*
Y131125*
X830727Y130375*
X829909Y130000*
X828818*
X828000Y130375*
X827455Y131125*
X867818Y136750D02*
Y130000D01*
X865364Y133375D02*
X870273D01*
X877636Y139375D02*
X872727Y127375D01*
X880091Y133375D02*
X885000D01*
X889091Y137875D02*
X888273Y137500D01*
X887727Y136375*
X887455Y134500*
Y133375*
X887727Y131500*
X888273Y130375*
X889091Y130000*
X889636*
X890455Y130375*
X891000Y131500*
X891273Y133375*
Y134500*
X891000Y136375*
X890455Y137500*
X889636Y137875*
X889091*
X894000Y130750D02*
X893727Y130375D01*
X894000Y130000*
X894273Y130375*
X894000Y130750*
X898364Y137875D02*
X897545Y137500D01*
X897000Y136375*
X896727Y134500*
Y133375*
X897000Y131500*
X897545Y130375*
X898364Y130000*
X898909*
X899727Y130375*
X900273Y131500*
X900545Y133375*
Y134500*
X900273Y136375*
X899727Y137500*
X898909Y137875*
X898364*
X656000Y112375D02*
X656545Y112750D01*
X657364Y113875*
Y106000*
X659818Y112375D02*
X660364Y112750D01*
X661182Y113875*
Y106000*
X665000Y113875D02*
X664182Y113500D01*
X663909Y112750*
Y112000*
X664182Y111250*
X664727Y110875*
X665818Y110500*
X666636Y110125*
X667182Y109375*
X667455Y108625*
Y107500*
X667182Y106750*
X666909Y106375*
X666091Y106000*
X665000*
X664182Y106375*
X663909Y106750*
X663636Y107500*
Y108625*
X663909Y109375*
X664455Y110125*
X665273Y110500*
X666364Y110875*
X666909Y111250*
X667182Y112000*
Y112750*
X666909Y113500*
X666091Y113875*
X665000*
X749318Y112000D02*
Y112375D01*
X749591Y113125*
X749864Y113500*
X750409Y113875*
X751500*
X752045Y113500*
X752318Y113125*
X752591Y112375*
Y111625*
X752318Y110875*
X751773Y109750*
X749045Y106000*
X752864*
X782000Y112000D02*
X794000D01*
X788000Y106000D02*
Y118000D01*
X794273Y119800D02*
X794055Y120400D01*
X793618Y121000*
X793182Y121300*
X792309*
X791873Y121000*
X791436Y120400*
X791218Y119800*
X791000Y118900*
Y117400*
X791218Y116500*
X791436Y115900*
X791873Y115300*
X792309Y115000*
X793182*
X793618Y115300*
X794055Y115900*
X794273Y116500*
X814636Y113875D02*
X816818Y110125D01*
Y106000*
X819000Y113875D02*
X816818Y110125D01*
X821455Y113875D02*
Y106000D01*
Y113875D02*
X825000D01*
X821455Y110125D02*
X823636D01*
X821455Y106000D02*
X825000D01*
X831273Y112750D02*
X830727Y113500D01*
X829909Y113875*
X828818*
X828000Y113500*
X827455Y112750*
Y112000*
X827727Y111250*
X828000Y110875*
X828545Y110500*
X830182Y109750*
X830727Y109375*
X831000Y109000*
X831273Y108250*
Y107125*
X830727Y106375*
X829909Y106000*
X828818*
X828000Y106375*
X827455Y107125*
X867818Y112750D02*
Y106000D01*
X865364Y109375D02*
X870273D01*
X877636Y115375D02*
X872727Y103375D01*
X880091Y109375D02*
X885000D01*
X889091Y113875D02*
X888273Y113500D01*
X887727Y112375*
X887455Y110500*
Y109375*
X887727Y107500*
X888273Y106375*
X889091Y106000*
X889636*
X890455Y106375*
X891000Y107500*
X891273Y109375*
Y110500*
X891000Y112375*
X890455Y113500*
X889636Y113875*
X889091*
X894000Y106750D02*
X893727Y106375D01*
X894000Y106000*
X894273Y106375*
X894000Y106750*
X898364Y113875D02*
X897545Y113500D01*
X897000Y112375*
X896727Y110500*
Y109375*
X897000Y107500*
X897545Y106375*
X898364Y106000*
X898909*
X899727Y106375*
X900273Y107500*
X900545Y109375*
Y110500*
X900273Y112375*
X899727Y113500*
X898909Y113875*
X898364*
X0Y0D02*
M02*
